<?xml version="1.0" encoding="UTF-8" standalone="no"?>
<svg width="19px" height="18px" viewBox="0 0 19 18" version="1.1" xmlns="http://www.w3.org/2000/svg" xmlns:xlink="http://www.w3.org/1999/xlink" xmlns:sketch="http://www.bohemiancoding.com/sketch/ns">
    <title>google</title>
    <description>Created with Sketch (http://www.bohemiancoding.com/sketch)</description>
    <defs></defs>
    <g id="Page-1" stroke="none" stroke-width="1" fill="none" fill-rule="evenodd" sketch:type="MSPage">
        <g id="google" sketch:type="MSArtboardGroup" transform="translate(-886.000000, -16.000000)" fill="#FFFFFF">
            <path d="M891.52596,31.8234222 C889.88626,31.8234222 888.60186,30.8234444 888.60186,29.5465556 C888.60186,28.3724222 890.10172,27.3429778 891.81134,27.3429778 L891.85732,27.3433556 C892.22934,27.3471333 892.59224,27.4022889 892.93462,27.5061778 C893.05166,27.5866444 893.1649,27.6633333 893.27396,27.737 C894.06588,28.2734444 894.58876,28.6274222 894.7343,29.1959778 C894.7685,29.3387778 894.7856,29.4819556 894.7856,29.6206 C894.7856,31.0822222 893.68892,31.8234222 891.52596,31.8234222 M889.67878,20.4927333 C889.56934,19.6669111 889.74414,18.9245778 890.1572,18.4557556 C890.42472,18.1524 890.77432,17.9926 891.16762,17.9926 L891.21208,17.9933556 C892.32206,18.0258444 893.38416,19.2551333 893.57948,20.7341333 C893.68892,21.5626 893.50386,22.3408222 893.0851,22.8156889 C892.8172,23.1194222 892.47216,23.2796 892.06328,23.2796 L892.06252,23.2796 L892.04466,23.2796 C890.95748,23.2467333 889.87258,21.9698444 889.67878,20.4927333 M894.94444,25.8522667 C894.34404,25.4299111 893.79798,24.8103556 893.78848,24.6199556 C893.78848,24.2727778 893.81964,24.1069333 894.60206,23.5013556 C895.614,22.7136889 896.17108,21.6785778 896.17108,20.5849111 C896.17108,19.5932444 895.86632,18.7122667 895.34724,18.0934667 L895.74928,18.0934667 C895.83288,18.0934667 895.9142,18.0677778 895.98146,18.0194222 L897.10436,17.2106 C897.24382,17.1116222 897.30196,16.9340667 897.24876,16.772 C897.19556,16.6103111 897.04432,16.5 896.87294,16.5 L891.85124,16.5 C891.30176,16.5 890.74354,16.5963333 890.19558,16.7837111 C888.3655,17.4115778 887.08566,18.9616 887.08566,20.5531778 C887.08566,22.8081333 888.84278,24.5172 891.19156,24.5712222 C891.14558,24.7495333 891.1224,24.9255778 891.1224,25.0982222 C891.1224,25.4457778 891.21132,25.7748222 891.39334,26.0929111 C891.37244,26.0932889 891.35154,26.0932889 891.32874,26.0932889 C889.09016,26.0932889 887.06894,27.1854444 886.30172,28.8106444 C886.10184,29.2333778 886,29.6602667 886,30.0826222 C886,30.4928889 886.10602,30.8876667 886.31388,31.2586444 C886.7961,32.1158222 887.8316,32.7814667 889.23114,33.1328 C889.95352,33.3141333 890.72986,33.4066889 891.53584,33.4066889 C892.2605,33.4066889 892.95058,33.3133778 893.58936,33.1297778 C895.5798,32.5555556 896.86648,31.0988444 896.86648,29.4169778 C896.86648,27.8031111 896.34512,26.8375111 894.94444,25.8522667 Z M904.537236,23.3647511 L901.682676,23.3647511 L901.682676,20.5272622 C901.682676,20.3107956 901.505976,20.1347511 901.288236,20.1347511 L900.475796,20.1347511 C900.256916,20.1347511 900.080216,20.3107956 900.080216,20.5272622 L900.080216,23.3647511 L897.225656,23.3647511 C897.008296,23.3647511 896.830836,23.5411733 896.830836,23.75764 L896.830836,24.5660844 C896.830836,24.7829289 897.008296,24.9585956 897.225656,24.9585956 L900.080216,24.9585956 L900.080216,27.7964622 C900.080216,28.0136844 900.256916,28.1893511 900.475796,28.1893511 L901.288236,28.1893511 C901.505976,28.1893511 901.682676,28.0136844 901.682676,27.7964622 L901.682676,24.9585956 L904.537236,24.9585956 C904.754596,24.9585956 904.932056,24.7829289 904.932056,24.5660844 L904.932056,23.75764 C904.932056,23.5411733 904.754596,23.3647511 904.537236,23.3647511 Z" id="Google-+-copy" sketch:type="MSShapeGroup"></path>
        </g>
    </g>
</svg>