<?xml version="1.0" encoding="utf-8"?>
<svg width="523.5px" height="50px" viewBox="0 0 523.5 50" version="1.1" xmlns="http://www.w3.org/2000/svg" xmlns:xlink="http://www.w3.org/1999/xlink">
<g id="ZEIT">
	<path fill="#FFFFFF" d="M35.1,34.5c-1.3,2.4-8.5,9.1-17.9,9.1h-6.4L36.1,1.8H12.2c-2.9,0-5.6-0.2-5.6-0.2s-4.4,10.2-4.8,11
		c-0.3,0.6,0.4,0.9,0.7,0.3c1.2-2,6.5-8.7,17.1-8.7H25L0,46h30.5c0,0,4.9-10.7,5.1-11.3C35.9,34.2,35.3,34,35.1,34.5z M6.4,43.7
		H5.5c-0.2,0-0.2-0.1-0.1-0.3L28.9,4.5c0.1-0.2,0.3-0.3,0.5-0.3h0.9c0.2,0,0.2,0.1,0.1,0.3L6.9,43.4C6.8,43.5,6.6,43.7,6.4,43.7z"
		/>
	<path fill="#FFFFFF" d="M57.3,4.2c8,0,14.5,3,18.6,9.4c0.2,0.4,0.9,0.2,0.7-0.2c-0.2-0.5-4.9-11.6-4.9-11.6l-32.2,0
		c-0.4,0-0.4,1,0,1c1.7,0,4.4,1.9,4.4,4.1v32.8c0,3.1-2.1,5.2-4.4,5.2c-0.4,0-0.4,1.1,0,1.1h32.3c0,0,4.5-10.6,4.6-11
		c0.2-0.4-0.4-0.8-0.7-0.3c-1.8,3.5-8.7,9-17.7,9h-6.2V25.2h8.2c5.4,0,8.1,3.8,8.9,4.8c0.4,0.5,1.1,0.3,0.8-0.3
		c-0.3-0.6-2.9-5.7-2.9-5.7s2.6-5.1,2.9-5.7c0.3-0.6-0.3-0.9-0.6-0.4c-0.3,0.5-4.3,4.7-9.9,4.7h-7.4V4.2L57.3,4.2L57.3,4.2z
		 M48.8,43.4c0,0.2-0.1,0.3-0.3,0.3h-0.9c-0.2,0-0.3-0.1-0.3-0.3V4.5c0-0.2,0.1-0.3,0.3-0.3h0.9c0.2,0,0.3,0.1,0.3,0.3V43.4z"/>
	<path fill="#FFFFFF" d="M97.8,44.9c-1.4,0-3.8-1.4-3.8-3.6l0-35c0-2.2,2.5-3.5,3.6-3.5c0.4,0,0.4-1,0-1H82c-0.4,0-0.4,1,0,1
		c1.1,0,3.6,1.4,3.6,3.5v35c0,2.2-2.2,3.6-3.6,3.6c-0.4,0-0.5,1.1,0,1.1h15.8C98.4,46,98.2,44.9,97.8,44.9z M90.7,43.4
		c0,0.2-0.1,0.3-0.3,0.3h-0.9c-0.2,0-0.3-0.1-0.3-0.3V4.5c0-0.2,0.1-0.3,0.3-0.3h0.9c0.2,0,0.3,0.1,0.3,0.3V43.4z"/>
	<path fill="#FFFFFF" d="M138.8,13c-0.2-0.5-4.7-9.6-5.1-10.7c-0.4-1.1-1.2-0.4-2-0.4H107c-0.7,0-1.6-0.6-2,0.4
		c-0.4,1.1-4.4,10.5-4.6,11c-0.2,0.5,0.6,0.9,1,0.2c1.7-3.1,7.5-9.3,13.8-9.3v37.1c0,2.2-2.2,3.6-3.6,3.6c-0.4,0-0.5,1.1,0,1.1
		h15.8c0.5,0,0.4-1.1,0-1.1c-1.4,0-3.8-1.4-3.8-3.6l0-37.1c6.1,0,12.3,6,14.4,9C138.3,13.9,139,13.5,138.8,13z M120.2,43.4
		c0,0.2-0.1,0.3-0.3,0.3H119c-0.2,0-0.3-0.1-0.3-0.3V4.5c0-0.2,0.1-0.3,0.3-0.3h0.9c0.2,0,0.3,0.1,0.3,0.3V43.4z"/>
</g>
<g id="MAGAZIN">
	<path fill="#FFFFFF" d="M280.2,44.9c-2,0-4.2-1.2-4.2-4.6l0-33.1c0-3.2,2.9-4.4,4-4.4c0.4,0,0.4-1,0-1l-12.4,0l-12.8,32.1
		c0,0-14.1-31.5-14.5-32.3c0,0-3,0.2-4.9,0.2H228c-0.4,0-0.4,1,0,1c1.1,0,4.4,1.3,4.4,4.7v28.2c0,7.5-2.1,9.2-4.8,9.2
		c-0.4,0-0.5,1.1,0,1.1h12.9c0.5,0,0.4-1.1,0-1.1c-3,0-5.1-1.6-5.1-9.2l0-24l16.7,35.7l15.4-38.9v31.8c0,3.4-1.7,4.6-4,4.6
		c-0.4,0-0.5,1.1,0,1.1h16.6C280.7,46,280.6,44.9,280.2,44.9z M253.4,38.9l-0.4,1.3c-0.1,0.1-0.2,0.1-0.3-0.1L236.5,4.6
		c-0.1-0.2,0-0.3,0.2-0.3l0.9,0c0.2,0,0.3,0.1,0.4,0.3l15.4,33.8C253.5,38.6,253.5,38.7,253.4,38.9z M272.8,43.4
		c0,0.2-0.1,0.3-0.3,0.3h-0.9c-0.2,0-0.3-0.1-0.3-0.3V4.5c0-0.2,0.1-0.3,0.3-0.3h0.9c0.2,0,0.3,0.1,0.3,0.3V43.4z"/>
	<path fill="#FFFFFF" d="M327.5,44.9c-1.4,0-3.8-0.2-5.3-4.1c0,0-13.9-39.5-14.1-40.2c-0.2-0.5-0.6-0.4-1.2-0.2
		c-2,0.9-5.7,2.4-7.3,3c-0.8,0.2-0.7,0.9,0.2,0.9c0.8,0,1.2,0.3,1.5,0.6l-11.1,30.4c-3.6,9.9-5.5,9.6-8.5,9.6
		c-0.4,0-0.5,1.1,0,1.1h12.9c0.5,0,0.4-1.1,0-1.1c-2.5,0-4.6-0.5-2.2-7.5l2.6-7.7h14.8l3.8,11.6c1,2.8-2,3.6-4,3.6
		c-0.4,0-0.5,1.1,0,1.1h17.9C328,46,327.8,44.9,327.5,44.9z M296,27.1l6.7-19.6l6.4,19.6H296z M319.1,43.6l-0.9,0
		c-0.2,0-0.3-0.1-0.4-0.3L304.9,4.6c-0.1-0.2-0.1-0.4,0.1-0.5l0.9-0.4c0.1-0.1,0.2-0.1,0.3,0.1l13.1,39.6
		C319.3,43.5,319.2,43.6,319.1,43.6z"/>
	<path fill="#FFFFFF" d="M370.6,26H357c-0.4,0-0.4,1,0,1c1.1,0,3.2,0.8,3.2,3.5V36c0,7.6-4.4,8.5-7.9,8.5
		c-12.6,0-17.6-11-17.6-20.3c0-13.5,8.8-20.6,17.8-20.6c0.3,0,0.6,0,0.9,0l0.5,0c7.2,0.4,12.7,9.1,14.2,12.3c0.4,0.7,1.1,0.5,1,0
		s-3.9-12.2-4.3-13.4c-0.8-2.6-0.8,0.4-2.8,0.1c-2.6-0.3-4.2-0.8-6.2-1.2c-0.7-0.1-1.5-0.2-2.4-0.3C352.7,1,351.9,1,350.9,1
		l-0.5,0c-15.2,0-24.6,11-24.6,23.3c0,12.2,9.1,22.9,25.4,22.9c0.8,0,1.7-0.1,2.4-0.2c5.4-0.6,8.2-3.3,10.4-4.6l4.2,4.6l0-5.3
		c0,0,0-0.1,0-0.1c0-0.6,0-7,0-8.2l0-0.2l0-2.7c0-2.7,1.3-3.5,2.4-3.5C371,27,371.1,26,370.6,26z M329.2,23.9
		c0-11.2,8.3-18.3,12.4-19.2c-3.6,2.1-10.7,8.5-10.7,19.2c0,10.7,5.9,16.6,11.2,19.9C336.3,41.6,329.2,35,329.2,23.9z
		 M365.1,38.4c0,0.2-0.1,0.2-0.3,0.1l-0.9-0.5c-0.2-0.1-0.3-0.3-0.3-0.5v-8.9c0-0.2,0.1-0.3,0.3-0.3h0.9c0.2,0,0.3,0.1,0.3,0.3
		V38.4z"/>
	<path fill="#FFFFFF" d="M416,44.9c-1.4,0-3.8-0.2-5.3-4.1L398.5,6.3c-1.3-3.6-1.7-5.1-2-5.8c-0.2-0.5-0.6-0.4-1.2-0.2
		c-2,0.9-5.7,2.4-7.3,3c-0.8,0.2-0.7,0.9,0.2,0.9c0.8,0,1.2,0.3,1.5,0.6l-0.7,1.9l-10.4,28.5c-3.6,9.9-5.5,9.6-8.5,9.6
		c-0.4,0-0.5,1.1,0,1.1h12.9c0.5,0,0.4-1.1,0-1.1c-2.5,0-4.6-0.5-2.2-7.5l2.6-7.7h14.8l3.8,11.6c1,2.8-2,3.6-4,3.6
		c-0.4,0-0.5,1.1,0,1.1H416C416.5,46,416.4,44.9,416,44.9z M384.5,27.1l6.7-19.6l6.4,19.6H384.5z M407.6,43.6l-0.9,0
		c-0.2,0-0.3-0.1-0.4-0.3L393.4,4.6c-0.1-0.2-0.1-0.4,0.1-0.5l0.9-0.4c0.1-0.1,0.2-0.1,0.3,0.1l13.1,39.6
		C407.9,43.5,407.8,43.6,407.6,43.6z"/>
	<path fill="#FFFFFF" d="M452.1,34.5c-1.3,2.4-8.5,9.1-17.9,9.1h-6.4l25.4-41.8h-24.7c-2.9,0-5.6-0.2-5.6-0.2s-4.4,10.2-4.8,11
		c-0.3,0.6,0.4,0.9,0.7,0.3c1.2-2,6.5-8.7,17.1-8.7h6.2l-25,41.8h30.5c0,0,4.9-10.7,5.1-11.3C452.9,34.2,452.4,34,452.1,34.5z
		 M423.5,43.7h-0.9c-0.2,0-0.2-0.1-0.1-0.3L446,4.5c0.1-0.2,0.3-0.3,0.5-0.3h0.9c0.2,0,0.2,0.1,0.1,0.3L424,43.4
		C423.9,43.5,423.7,43.7,423.5,43.7z"/>
	<path fill="#FFFFFF" d="M473.1,44.9c-1.4,0-3.8-1.4-3.8-3.6l0-35c0-2.2,2.5-3.5,3.6-3.5c0.4,0,0.4-1,0-1h-15.6c-0.4,0-0.4,1,0,1
		c1.1,0,3.6,1.4,3.6,3.5v35c0,2.2-2.2,3.6-3.6,3.6c-0.4,0-0.5,1.1,0,1.1h15.8C473.6,46,473.5,44.9,473.1,44.9z M465.9,43.4
		c0,0.2-0.1,0.3-0.3,0.3h-0.9c-0.2,0-0.3-0.1-0.3-0.3V4.5c0-0.2,0.1-0.3,0.3-0.3h0.9c0.2,0,0.3,0.1,0.3,0.3V43.4z"/>
	<path fill="#FFFFFF" d="M523.2,1.8h-13.5c-0.4,0-0.4,1,0,1c3.2,0,5.3,1.5,5.3,8.9v20.8L489.2,1.8l-12.3,0c-0.4,0-0.4,1,0,1
		c2.2,0,6.9,2.5,6.9,6.2v24.9c0,9.2-1.5,11-4.8,11c-0.4,0-0.5,1.1,0,1.1h12.9c0.5,0,0.4-1.1,0-1.1c-3.6,0-5.1-1.8-5.1-11l0-22.6
		l31,36.1l0-35.7c0-7.3,2.3-8.9,5.3-8.9C523.5,2.8,523.6,1.8,523.2,1.8z M515,38.7c0,0.4-0.4,0.3-0.5,0.1L485.3,4.4
		c-0.1-0.2-0.1-0.2,0-0.2h1.1c0.2,0,0.4,0.3,0.6,0.4l28,32.9C515.2,37.7,515,38.7,515,38.7z"/>
</g>
<g>
	<path fill="#FFFFFF" d="M217.8,43.9c1.4-0.9,1.1-2.7,1.1-2.7s-0.8,0.5-1.9,0.7c-0.7,0.1-1.2,1.2-0.8,2c-0.4,0.3-0.5,0.7-0.5,0.7
		c-0.8,0.3-1.6,0.3-1.6,0.3c1.3-2.6,1.3-2.7,0.9-4.3c-0.3-1.1-0.4-1.4-0.9-1.3c-0.8,0.2-0.9-1.5-0.1-2.5c0,0,2.5,2,5.1-0.1
		c2.5-2,1.8-5.5-1.2-8.5c-2.9-3-3.2-4.2-3.1-6.1c1.9,0.1,2.2-1.4,2-1.6c1.3-0.6,0.7-1.8,0.7-1.8c0.5-0.7,0.2-2,0.2-2
		c-1.3-0.1-2,0.4-2,0.4c-0.8-0.3-1.5,0.9-1.5,0.9c-1.6,0-1.1,3-1.1,3s-0.7,1.8-0.2,3.2c1.3,3.9,3.5,5,5,7.5c0.6,1,0.6,3-0.7,3.5
		c-1.2,0.5-2.2-0.5-2.9-3c-0.6-2.6-0.9-2.7-2.4-4.7c-1.5-2-1.6-3.1-1.7-5.2c-0.1-2.1-0.3-4.3-0.3-4.3c0.3,0.1,0.4-0.2,0.4-0.2
		c-0.6-0.9-0.7-1.9-0.7-1.9c0.3,0,0.4-0.2,0.4-0.2c-0.8-0.8-0.4-1-0.8-1.7c0.4,0,0.5-0.3,0.5-0.3c-0.9-0.7-0.8-1.3-1.7-2.3
		c0.3,0,0.4-0.2,0.4-0.2c-0.7-0.9-1-1.6-2.4-1.4l-0.4-0.4c0,0,1.1-0.1,1.6-0.8s-0.4-1.4-0.4-1.4s-0.2,0.3-0.4,0.2
		c-0.3-0.1,0-0.5-0.4-0.7c-0.4-0.2-0.2-0.9,0.4-0.7c0.5,0.1,0.1,0.8,0.5,0.9c0.4,0.1,0.5-0.6,0.9-0.5c0.2,0.1,0.3-0.1,0.8-1
		c0.3-0.6-0.2-0.5,0.1-1.3c0.2-0.5,0.3-1.3-1.9-1.6c0-1.9-1.8-1.2-2.4-1.3c-0.3-1.2-1.4-1.4-3-1.3l-0.1,0.3
		c-1.1-0.1-1.7,0.2-1.7,0.2l0.1,0.4c-1.1-0.1-1.5,0.6-2.1,0.7l0.1,0.3c-1,0.6-0.8,1.3-1.8,1.9l0.4,0.4l-0.2,0.4
		c-1,0-1.7,0.5-1.7,0.5c-1.2-0.2-1.5,1-1.5,1c-1.3,0.2-1.7,1.7-1.5,2.3c-1.1,0.3-0.9,1.6-0.9,1.6c-0.7,0.3-1,1.3,0,1.9
		c0,0-0.5,1.2-1.8,0.6c-1.4-0.6-1-1.5-0.8-1.8c1,0.8,1.6,0.1,1.5-0.8c1.4-0.4,1-1.8,1-1.8c1.7-0.9,0.6-2.9,0.6-2.9
		c0.8-0.7,0-1.7,0-1.7c0-1.2-0.8-2.3-0.8-2.3c-1.2,0.2-1.7,1-1.7,1c-1.3,0-1.6,1.3-1.6,1.3c-1.4,0.1-1.8,1.3-1.6,2.3
		c-0.8,0.5-1,1.6-0.5,2.5c-0.7,0.8-0.1,1.8,0.7,1.9c0,0-0.2,1.2-1.6,1.2c-1.4,0-2-1.4-1.6-2c1.1,0.4,1.5-0.5,1.3-1.3
		c1.3-1,0.2-2.3,0.2-2.3c0.8-1.2,0.1-2.1-0.7-2.8c0-0.8-0.6-0.8-0.6-0.8c-0.5-1.4-1.6-2-1.6-2s-1,0.6-1.6,2c0,0-0.6,0.1-0.6,0.8
		c-0.8,0.7-1.5,1.6-0.7,2.8c0,0-1.1,1.4,0.2,2.3c-0.2,0.8,0.3,1.8,1.3,1.3c0.4,0.6-0.2,2-1.6,2c-1.4,0-1.6-1.2-1.6-1.2
		c0.8,0,1.4-1,0.7-1.9c0.5-0.8,0.3-2-0.5-2.5c0.2-1-0.3-2.3-1.6-2.3c0,0-0.3-1.3-1.6-1.3c0,0-0.5-0.8-1.7-1c0,0-0.8,1.1-0.8,2.3
		c0,0-0.7,0.9,0,1.7c0,0-1.1,1.9,0.6,2.9c0,0-0.4,1.4,1,1.8c-0.1,0.9,0.6,1.5,1.5,0.8c0.2,0.2,0.6,1.2-0.8,1.8
		c-1.4,0.6-1.8-0.6-1.8-0.6c1-0.6,0.7-1.6,0-1.9c0,0,0.2-1.3-0.9-1.6c0.1-0.6-0.2-2.1-1.5-2.3c0,0-0.3-1.2-1.5-1
		c0,0-0.6-0.5-1.7-0.5l-0.2-0.4l0.4-0.4c-1-0.5-0.8-1.3-1.8-1.9l0.1-0.3c-0.7-0.1-1.1-0.9-2.1-0.7l0.1-0.4c0,0-0.7-0.3-1.7-0.2
		L160.7,0c-1.6-0.1-2.7,0.1-3,1.3c-0.6,0.1-2.3-0.6-2.4,1.3c-2.2,0.3-2.2,1.1-1.9,1.6c0.3,0.7-0.2,0.7,0.1,1.3
		c0.5,0.9,0.6,1.1,0.8,1c0.4-0.1,0.5,0.6,0.9,0.5c0.4-0.1,0-0.8,0.5-0.9c0.5-0.1,0.7,0.6,0.4,0.7c-0.4,0.2-0.1,0.6-0.4,0.7
		c-0.1,0-0.4-0.2-0.4-0.2s-1,0.7-0.4,1.4c0.5,0.7,1.6,0.8,1.6,0.8l-0.4,0.4c-1.4-0.3-1.7,0.5-2.4,1.4c0,0,0.2,0.2,0.4,0.2
		c-0.9,1-0.8,1.6-1.7,2.3c0,0,0.1,0.3,0.5,0.3c-0.4,0.7,0,0.9-0.8,1.7c0,0,0.1,0.2,0.4,0.2c0,0,0,1-0.7,1.9c0,0,0.1,0.3,0.4,0.2
		c0,0-0.2,2.2-0.3,4.3c-0.1,2.1-0.2,3.1-1.7,5.2c-1.5,2-1.8,2.1-2.4,4.7c-0.6,2.6-1.7,3.5-2.9,3c-1.3-0.5-1.3-2.4-0.7-3.5
		c1.4-2.5,3.7-3.6,5-7.5c0.5-1.5-0.2-3.2-0.2-3.2s0.5-3-1.1-3c0,0-0.6-1.2-1.5-0.9c0,0-0.7-0.5-2-0.4c0,0-0.3,1.2,0.2,2
		c0,0-0.6,1.2,0.7,1.8c-0.2,0.2,0,1.7,2,1.6c0.1,1.9-0.2,3.1-3.1,6.1c-2.9,3-3.7,6.4-1.2,8.5c2.6,2.1,5.1,0.1,5.1,0.1
		c0.7,1,0.7,2.7-0.1,2.5c-0.5-0.1-0.6,0.2-0.9,1.3c-0.4,1.7-0.4,1.8,0.9,4.3c0,0-0.8,0-1.6-0.3c0,0-0.1-0.5-0.5-0.7
		c0.3-0.8-0.2-1.9-0.9-2c-1.1-0.2-1.9-0.7-1.9-0.7s-0.3,1.8,1.1,2.7c0,0-1.7-0.4-2.6,0.8c1.1,0.4,1.1,1.1,2.1,1.4
		c1.1,0.3,1.6-0.8,1.6-0.8s0.3,0.2-0.1,0.8c-0.3,0.4-0.3,0.6,0.2,0.7c4.1,1.2,8.3,0.9,8.3,0.9s-0.9,0.5-1.2,1.6
		c1.8-0.4,4.9,0.8,6.9-1.9c0,0,2.2-0.6,5.4-1.2c0,0-0.7,0.4-1.1,1.1c0,0,2.7,1.3,6.3-0.7c0.2-0.1,0.4,0.2,0.2,0.3
		c-1.5,0.6-1.8,1.5-1.8,1.5s3,1.6,6.1-0.4c0,0-0.5,1.5,1.1,2c0,0,1.5-0.5,3-0.9c0,0-0.2,0.4,0.2,0.5c0,0,1.3-0.2,2.2-1.3
		c1,1.1,2.2,1.3,2.2,1.3c0.3-0.2,0.2-0.5,0.2-0.5c1.6,0.3,3,0.9,3,0.9c1.5-0.5,1.1-2,1.1-2c3,2,6.1,0.4,6.1,0.4s-0.3-0.9-1.8-1.5
		c-0.3-0.1,0-0.4,0.2-0.3c3.5,2,6.3,0.7,6.3,0.7c-0.4-0.7-1.1-1.1-1.1-1.1c3.1,0.5,5.4,1.2,5.4,1.2c1.9,2.8,5.1,1.5,6.9,1.9
		c-0.3-1.1-1.2-1.6-1.2-1.6s4.2,0.3,8.3-0.9c0.5-0.2,0.5-0.3,0.2-0.7c-0.4-0.5-0.1-0.8-0.1-0.8s0.5,1.1,1.6,0.8c1-0.3,1-1,2.1-1.4
		C219.4,43.5,217.8,43.9,217.8,43.9z M144.3,45.4c-0.7-0.1-1.2-0.7-1.2-0.7s0.5-0.4,1.3-0.4C145.2,44.5,145.2,45.5,144.3,45.4z
		 M145.1,43.5c-1-0.4-1-1.3-1-1.3s0.3,0.2,0.8,0.3C145.9,42.7,145.8,43.8,145.1,43.5z M145.8,44.7c-0.2,0.3-0.6-0.2-0.6-0.4
		C145.2,44.3,146.1,44.3,145.8,44.7z M207.5,11.1c0,0-0.4,0.1-0.6,0.1c-0.3,0-0.4,0.2,0,0.4c1.1,0.6,1.4,1.5,1.4,1.5
		s-0.6-0.1-1.2-0.6c-0.3-0.2-0.4,0-0.2,0.4c0.3,0.6,1.7,0.7,1.9,2.1c0,0-0.8-0.3-1.4-0.8c-0.3-0.3-0.4-0.1-0.3,0.3
		c0.4,0.9,1.9,1,2,2.6c0,0-0.6-0.2-1.1-0.8c-0.3-0.3-0.5,0-0.2,0.4c0.3,0.4,1.1,0.8,1.2,1.7c0.1,0.9,0.3,4.8,0.5,6s0.5,2.5,1.9,4.1
		c1.4,1.7,1.6,2,2,3.6c1,3.6,2.3,4.5,3.9,4c1.6-0.5,2.2-3,1-4.8c-1.7-2.5-6.2-6-4.5-10.1c0,0-0.6-0.9,0.1-1.8c0,0,0.2,0.1,0.3,0.4
		c0.4-0.4,0-0.9,0.7-1.5c0,0,0.2,0.2,0.2,0.6c0.5-0.1,0.4-1.4,2-1.3c0.2,1.4-0.7,1.1-1,1.9c0,0,0.5-0.1,0.7,0
		c-0.3,1-0.9,0.7-1.2,1.1c0,0,0.3,0,0.5,0.3c0,0-0.3,1.2-1.8,0.7c0,0-0.4,0.4-0.3,1.8c0.1,1.3,0.4,2.5,2.9,5.3
		c0.9,1,2.7,2.9,2.7,4.9c0,1.8-1.3,3.5-3,3.5c-2.2,0-3.1-1.6-3.4-3c-0.1-0.6-0.8-0.4-0.7,0.3c0.2,1.1,0.6,2.1,0.6,2.1
		s-0.3,0.6-0.5,1.3c-0.2,0.7-0.2,1,0,1.3c0.4,0.6,0.1,1.3,0.8,1.3c0.4-0.1,0.4,0.1,0.6,0.7c0.4,1.3,0.3,1.3,0,2
		c-0.3,0.7-0.7,1.8-0.8,2.1c-0.3,0.6-0.6-0.1-1.2,0.2c-0.5,0.3-1.1,0.1-0.7-0.4c0,0-0.3-0.2-0.5,0.1c0,0-0.4-1.2-1.3-0.6
		c0,0-0.5-0.5-0.9-0.4c0,0,0.5-0.8,3,0c0.4,0.1,0.7-0.5,0.2-0.7c0,0,0.4-1.3,0.5-1.6c0.1-0.3,0.2-0.3-0.3-0.7
		c-2.8-2.4-3-2.2-3.4-3.7c-0.4-1.5-0.6-1.7-1-2.8c-1.2-2.9-0.9-3.9-1.7-4.8c-1.7-1.9-2.3-3-2.3-3s-0.2,0-0.2,0.2
		c-0.6-0.4-0.3-0.9-0.9-1.4c0,0-0.2,0.1-0.2,0.5c-0.9-0.6-0.7-1.7-1-2.2c0,0-0.2,0.1-0.3,0.4c0,0-0.3-0.5-0.3-0.7
		c0-0.2-0.1-0.3,0.2-0.6c0.4-0.3,0.5-0.2,0.6,0.2c0.5-0.4,0.8-1.1,1.4-1.6c0,0,0.3,0.1,0.5,0.5c0,0,0.5-0.7,0.8-1.8
		c0.5,0.1,0.8,0,0.7-0.7c-0.1-1.3,0.5-1.6,0.4-3.2c0-0.6-0.6-0.4-0.5,0.1c0.1,1.3-0.3,1.3-0.5,2.4c-0.8-1-0.7,0.4-1,1.9
		c0,0-0.2-0.1-0.3-0.4c-0.2-0.6-0.4,0.3-1.1,1.5c-0.2-0.4-0.2-0.7-0.8-0.1c-0.5,0.6-2.5,2.3-4.3,3.6c-0.7,0.5-0.2,1-0.6,1.6
		c-0.2,0.4-0.6,0.8-0.6,0.8s-0.3-0.4-0.7-0.4c0,0,0.1-0.9-0.6-1.2c0,0,0.9-1.2-0.2-2c0.7-0.2,0.9-0.2,0.3-1.1c0,0,0.6-0.6-0.1-1.4
		c0.6-0.4,0.8,0.2,0.9,0.8c0.1,0.8,0.5,1.6,1,1.2c0.5-0.5,2.8-2.8,3.4-3.9c0.6-1.1,0.3-1.9,1.9-3.8c0.3-0.4,0-0.7-0.3-0.4
		c-0.2,0.2-0.6,0.3-0.6,0.3s-0.1-1,0.6-1.9c0.3-0.4,0-0.6-0.5-0.1c0,0-0.1-0.8,1.2-1.9c0.4-0.3,0.1-0.5-0.5-0.2
		c0,0,0.3-0.7,1.1-0.9c0.8-0.2,1.1,0.1,1.1,0.3c0,0.2,0.3,0.2,0.3,0c0-0.2,0.3-0.6,0.8-0.5c0.6,0.1,0.5,0.5,0.5,0.7
		c0,0.2,0.1,0.3,0.3,0.1C206,10.4,206.9,10.2,207.5,11.1z M210.3,44.9c-0.3,0.4-0.8,0.6-0.8,0.6c-0.1-0.5,0.3-0.9,0.3-0.9
		C210.3,44.7,210.3,44.9,210.3,44.9z M208.1,42.5c0,0-2.3-0.1-3.3,2.6c0,0-0.7,0-1.1-0.1c0,0,0.5-0.3,0.9-1.3
		c0.3-1.1,0.7-2.2,0.9-2.9c0.3-1-0.8-0.6-0.5-1.5c0.5-1.6,0.4-1.7,0.9-1.9s0.7-0.1,1.4-1.2c0,0,0.3,0.8,0.5,1.7
		c0.1,0.9,0.9,1.5,3.7,3.7c0,0-0.1,0.8-0.4,1.5c-2.9-0.5-2.7,0.3-3.8,2.4c0,0-0.5,0-1-0.1C206.3,45.4,208.1,44.5,208.1,42.5z
		 M205.4,45.3c0.2-0.8,1.2-1.8,2-2C207.2,44.2,206.3,45.1,205.4,45.3z M208.5,44.6c0.4,0,0.5,0.2,0.5,0.2c-0.6,0.5-1,0.8-1,0.8
		C207.9,44.9,208.5,44.6,208.5,44.6z M193.7,28.7c0,0-0.1,3.4-0.1,5.8c-0.1,4.1-1.6,9.3-12.5,9.3c-10.9,0-12.4-5.2-12.5-9.3
		c-0.1-2.5-0.1-5.8-0.1-5.8c0.3-0.1,0.4-0.3,0.4-0.3c-0.5-0.5-0.7-0.9-0.7-0.9c1.1,0.2,1.5-0.4,1.5-0.4c-0.8-0.8-1.1-1.4-1.1-1.4
		c0.7,0.1,1.3-0.1,1.3-0.1c0.1-1.3-1.2-1.4-1.3-2.4c0.3,0,0.6,0.2,0.6,0.2c0.8-1.7-1-1.7-0.6-3.1c0.5-0.2,0.8-0.6,0.8-0.6
		c-0.2,0-0.3-0.1-0.3-0.1c0.6-0.3,0.8-0.7,0.8-0.7c0.2,0.4,0.2,0.8,0.2,0.8c0.9-0.1,1.1-0.8,1.1-0.8c0.1,0.4,0.4,0.8,0.4,0.8
		c0.7-0.2,0.9-0.7,0.9-0.7s4.6,0.1,8.5,0.1c3.9,0,8.5-0.1,8.5-0.1s0.2,0.5,0.9,0.7c0,0,0.3-0.4,0.4-0.8c0,0,0.3,0.6,1.1,0.8
		c0,0,0-0.4,0.2-0.8c0,0,0.2,0.4,0.8,0.7c0,0-0.1,0.1-0.3,0.1c0,0,0.2,0.4,0.8,0.6c0.4,1.4-1.4,1.4-0.6,3.1c0,0,0.3-0.2,0.6-0.2
		c-0.1,1-1.4,1.1-1.3,2.4c0,0,0.6,0.2,1.3,0.1c0,0-0.3,0.6-1.1,1.4c0,0,0.4,0.6,1.5,0.4c0,0-0.2,0.4-0.7,0.9
		C193.3,28.3,193.4,28.5,193.7,28.7z M167.9,26.8c0,0-0.1-0.5,0.4-0.7c0,0,0.3,0.5,0.8,0.9C169.1,26.9,168.6,27.2,167.9,26.8z
		 M168.1,28.3c0,0-0.6,0-1.1-0.4c0,0,0-0.4,0.4-0.4C167.4,27.5,167.8,27.7,168.1,28.3z M162.3,15.9c2,1.9,1.2,3.3,1.2,3.3
		s-0.6-0.6-0.6-1.3c0-0.7-0.8-1.6-0.8-1.6C162.3,16.2,162.3,15.9,162.3,15.9z M162,14.4c0.5,0,0.4-0.6,0.4-0.6s0.7,0.5,1.1,1.1
		c0.6,0.9,0.3,1,0.5,2C162.6,15.9,162,14.4,162,14.4z M161.3,10.1c0,0,0.9,0.6,0.9,2c0,0.5-0.5,0.8-0.7-0.1l0.2-0.3
		C161.7,11.8,160.9,11,161.3,10.1z M159.7,7.8c0,0,0.3,0.3,0.8,0.6c0.8,0.4,0.2,1.4,0.2,1.4s-0.1-0.2-0.9-0.7
		C159.3,8.8,159.5,7.9,159.7,7.8z M159.6,9.6c0,0-0.2,0-0.5,0l0.3-0.2C159.4,9.3,159.4,9.4,159.6,9.6z M160.4,4.1
		c-1,0-1.2-0.7-0.9-1.1s0.9-0.2,0.9,0.2C160.3,3.6,160.4,4.1,160.4,4.1z M160,7.3c-0.4-0.2-0.2-1.6,0.6-0.8
		c0.5,0.5,0.4,1.5,0.4,1.5S160.6,7.6,160,7.3z M160.2,5.5c-0.4-0.7,0.1-1.2,0.6-0.6c0.5,0.6,0.3,1.2,0.3,1.2S160.5,6,160.2,5.5z
		 M161,4.2c0,0-0.4-0.4-0.2-1.3c0,0,1.2,0.1,1.6,1.3C162.4,4.2,161.7,4,161,4.2z M161.6,6.2c0.8,0.7,1.7,1,1.5,2.5
		C161.9,7.8,161.5,7.5,161.6,6.2z M162.8,10.9c-0.8-1.2-1.7-1.4-1.2-2.7C161.6,8.2,163.1,8.9,162.8,10.9z M161.3,4.8
		c1.2-0.3,1.8,0.6,1.8,1.6C163.1,6.4,161.6,6.1,161.3,4.8z M162.6,13.3c0,0-0.1-0.5,0.2-1c2,1.2,1.6,3,1.6,3
		C163.8,14.7,163.8,14.1,162.6,13.3z M163.8,6.5c0,0,2.3,0.6,1.9,2.9c-0.7-1.3-2.1-1.1-2.3-2.2c0,0,0.3,0.1,0.6,0.1
		C164,7.2,163.8,6.9,163.8,6.5z M163.8,8.5c1.7,0.7,1.5,2.7,1.5,2.7c-0.6-0.9-1.7-0.9-1.9-1.8c0.2,0,0.4-0.2,0.4-0.2
		C163.6,8.9,163.8,8.5,163.8,8.5z M163.5,10.5c0.8,0.9,1.5,1,1.3,2.8c0,0-0.9-0.7-1.5-1.5C163.3,11.7,163.6,11.3,163.5,10.5z
		 M164.4,18.6c0,0,0.5,0.1,1.2,0.2c0,0,0.3,1.1,1.7,1c0.1,0.4,0,0.4-0.4,0.6c-0.4,0.1-0.7,0.4-0.8,1.5c0,0.3-0.2,0.3-0.4,0
		l-1.5-1.7C164.2,20.1,164.5,19.3,164.4,18.6z M166.9,19.1c-0.9-0.2-0.6-1.3-0.4-1.4c0.2-0.2,0.2-0.6-0.2-0.4
		c-0.8,0.3-0.4,0.8-0.9,0.7c-0.5-0.1-0.8-0.2-0.8-0.2c0.2-0.5,0.3-1,0.3-1c0.1,0.1,0.4,0,0.4,0c-0.4-0.8,0.1-1.1,0.1-1.1
		s0.7,0.7,1.2,1c0.4,0.2,0.6,0.1,0.6,0c0.5-1,1.4-0.5,1.4-0.5c1.1-0.7,1.7-0.1,1.7-0.1c1.1-0.5,1.8,0.1,1.8,0.1l0.4,0.9
		c-0.7-0.2-1.3,0-1.3,0c-0.5-0.3-1.3-0.1-1.3-0.1c-0.9-0.4-1.4,0.2-1.4,0.2c-0.3-0.4-0.7-0.6-0.5-0.1c0.1,0.4,0.2,0.9-0.2,0.8
		c-0.3-0.1-0.5,0.1-0.2,0.5C167.1,18.6,166.9,19.1,166.9,19.1z M198.8,7.2c-0.2,1.1-1.6,0.9-2.3,2.2c-0.4-2.3,1.9-2.9,1.9-2.9
		c0,0.4-0.2,0.7-0.2,0.7C198.5,7.3,198.8,7.2,198.8,7.2z M201.8,3.2c-0.1-0.4,0.6-0.6,0.9-0.2c0.3,0.4,0.1,1.1-0.9,1.1
		C201.8,4.1,201.9,3.6,201.8,3.2z M202.3,9.1c-0.8,0.4-0.9,0.7-0.9,0.7s-0.5-1,0.2-1.4c0.5-0.3,0.8-0.6,0.8-0.6
		C202.7,7.9,202.9,8.8,202.3,9.1z M202.8,9.3l0.3,0.2c-0.3,0.1-0.5,0-0.5,0C202.8,9.4,202.8,9.3,202.8,9.3z M201.2,7.9
		c0,0-0.1-1,0.4-1.5c0.8-0.8,1,0.6,0.6,0.8C201.6,7.6,201.2,7.9,201.2,7.9z M202,5.5c-0.3,0.5-0.9,0.6-0.9,0.6s-0.2-0.7,0.3-1.2
		C201.9,4.3,202.5,4.8,202,5.5z M201.2,4.2c-0.7-0.1-1.3,0-1.3,0c0.4-1.3,1.6-1.3,1.6-1.3C201.5,3.8,201.2,4.2,201.2,4.2z
		 M200.7,12.1c-0.2,0.8-0.8,0.6-0.7,0.1c0-1.5,0.9-2,0.9-2c0.4,0.9-0.4,1.7-0.4,1.7L200.7,12.1z M200.1,16.3c0,0-0.8,1-0.8,1.6
		c0,0.7-0.6,1.3-0.6,1.3s-0.8-1.4,1.2-3.3C199.9,15.9,199.9,16.2,200.1,16.3z M198.3,16.9c0.2-0.9-0.1-1.1,0.5-2
		c0.5-0.7,1.1-1.1,1.1-1.1s-0.1,0.5,0.4,0.6C200.2,14.4,199.6,15.9,198.3,16.9z M199.4,10.9c-0.3-2,1.2-2.7,1.2-2.7
		C201.2,9.5,200.2,9.7,199.4,10.9z M200.9,4.8c-0.3,1.3-1.8,1.6-1.8,1.6C199.1,5.3,199.7,4.5,200.9,4.8z M200.6,6.2
		c0.1,1.3-0.3,1.7-1.5,2.5C198.9,7.2,199.8,6.9,200.6,6.2z M199.3,12.4c0.3,0.5,0.2,1,0.2,1c-1.2,0.8-1.2,1.4-1.8,2.1
		C197.8,15.4,197.3,13.6,199.3,12.4z M198,20.1l-1.5,1.7c-0.3,0.3-0.4,0.3-0.4,0c-0.1-1.1-0.4-1.4-0.8-1.5
		c-0.4-0.1-0.5-0.1-0.4-0.6c1.4,0.1,1.7-1,1.7-1c0.7-0.1,1.2-0.2,1.2-0.2C197.7,19.3,198,20.1,198,20.1z M198.9,11.7
		c-0.6,0.8-1.5,1.5-1.5,1.5c-0.2-1.7,0.5-1.9,1.3-2.8C198.6,11.3,198.9,11.7,198.9,11.7z M197,11.2c0,0-0.2-2,1.5-2.7
		c0,0,0.2,0.4,0,0.7c0,0,0.2,0.2,0.4,0.2C198.7,10.3,197.5,10.4,197,11.2z M196.9,15.6c0,0,0.5,0.3,0.1,1.1c0,0,0.3,0.1,0.4,0
		c0,0,0.1,0.5,0.3,1c0,0-0.3,0.1-0.8,0.2c-0.5,0.1-0.2-0.4-0.9-0.7c-0.4-0.2-0.4,0.2-0.2,0.4c0.2,0.2,0.5,1.2-0.4,1.4
		c0,0-0.2-0.5-0.6-0.7c0.3-0.3,0.1-0.5-0.2-0.5c-0.3,0.1-0.3-0.5-0.2-0.8c0.2-0.6-0.2-0.3-0.5,0.1c0,0-0.5-0.6-1.4-0.2
		c0,0-0.8-0.2-1.3,0.1c0,0-0.6-0.3-1.3,0l0.4-0.9c0,0,0.6-0.7,1.8-0.1c0,0,0.6-0.6,1.7,0.1c0,0,0.9-0.5,1.4,0.5
		c0.1,0.1,0.3,0.3,0.6,0C196.2,16.3,196.9,15.6,196.9,15.6z M193.3,22.6c0-0.7,0.6-1.1,0.6-1.1c0.4,0,0.4,0.5,0.4,0.5
		C193.7,22.2,193.3,22.6,193.3,22.6z M194,24.8c-0.7,0.5-1.3,0.2-1.3,0.2c0.4-0.6,1-0.8,1-0.8C194.2,24.4,194,24.8,194,24.8z
		 M193.5,19.5c0.7-0.3,0.9-0.7,0.9-0.7c0.5,0.1,0.4,0.5,0.4,0.5C194.1,19.9,193.5,19.5,193.5,19.5z M193.2,18.8
		c-1-0.2-0.6-1.3-0.6-1.3c0.4-0.3,0.8,0.1,0.8,0.1C193.1,18.2,193.2,18.8,193.2,18.8z M192,17.5c-0.2,0.5-0.3,1.4-0.3,1.4
		c-0.8-0.6-0.4-1.3-0.4-1.3C191.6,17.3,192,17.5,192,17.5z M190.7,17.6c-0.3,0.6-0.4,1.3-0.4,1.3c-0.5-0.6-0.2-1.3-0.2-1.3
		C190.4,17.4,190.7,17.6,190.7,17.6z M181.1,16.4c-4.8,0-7.4,1.1-8,1.3c-0.5,0.2-0.6-0.2-0.2-0.4c0.4-0.2,3.5-1.4,8.2-1.4
		c4.6,0,7.8,1.3,8.2,1.4c0.4,0.2,0.3,0.6-0.2,0.4C188.5,17.5,185.9,16.4,181.1,16.4z M186.8,17.7c0,0-1.3,0.1-5.7,0.1
		c-4.5,0-5.7-0.1-5.7-0.1s1.3-0.8,5.7-0.8C185.6,16.9,186.8,17.7,186.8,17.7z M172.5,16.2C172.6,16.1,172.6,16.1,172.5,16.2
		c0.3,0,0.5,0.2,0.5,0.4c0,0.1,0,0.2-0.1,0.3L172.5,16.2z M173.5,16.1c0-0.2,0.2-0.4,0.4-0.4c0.2,0,0.4,0.2,0.4,0.4
		s-0.2,0.4-0.4,0.4C173.7,16.5,173.5,16.3,173.5,16.1z M174.9,15.7c0-0.2,0.2-0.4,0.4-0.4c0.2,0,0.4,0.2,0.4,0.4s-0.2,0.4-0.4,0.4
		C175.1,16.1,174.9,15.9,174.9,15.7z M176.3,15.4c0-0.2,0.2-0.4,0.4-0.4c0.2,0,0.4,0.2,0.4,0.4s-0.2,0.4-0.4,0.4
		C176.5,15.8,176.3,15.6,176.3,15.4z M177.8,15.2c0-0.2,0.2-0.4,0.4-0.4s0.4,0.2,0.4,0.4c0,0.2-0.2,0.4-0.4,0.4
		C178,15.6,177.8,15.4,177.8,15.2z M179.2,15c0-0.2,0.2-0.4,0.4-0.4c0.2,0,0.4,0.2,0.4,0.4s-0.2,0.4-0.4,0.4
		C179.4,15.4,179.2,15.3,179.2,15z M180.7,15c0-0.2,0.2-0.4,0.4-0.4c0.2,0,0.4,0.2,0.4,0.4c0,0.2-0.2,0.4-0.4,0.4
		C180.9,15.4,180.7,15.2,180.7,15z M182.1,15c0-0.2,0.2-0.4,0.4-0.4c0.2,0,0.4,0.2,0.4,0.4s-0.2,0.4-0.4,0.4
		C182.3,15.4,182.1,15.3,182.1,15z M183.6,15.2c0-0.2,0.2-0.4,0.4-0.4c0.2,0,0.4,0.2,0.4,0.4c0,0.2-0.2,0.4-0.4,0.4
		C183.8,15.6,183.6,15.4,183.6,15.2z M185.1,15.4c0-0.2,0.2-0.4,0.4-0.4c0.2,0,0.4,0.2,0.4,0.4s-0.2,0.4-0.4,0.4
		C185.2,15.8,185.1,15.6,185.1,15.4z M186.5,15.7c0-0.2,0.2-0.4,0.4-0.4c0.2,0,0.4,0.2,0.4,0.4s-0.2,0.4-0.4,0.4
		C186.7,16.1,186.5,15.9,186.5,15.7z M187.9,16.1c0-0.2,0.2-0.4,0.4-0.4s0.4,0.2,0.4,0.4s-0.2,0.4-0.4,0.4
		C188.1,16.5,187.9,16.3,187.9,16.1z M189.3,16.8c-0.1-0.1-0.1-0.2-0.1-0.3c0-0.2,0.2-0.4,0.4-0.4c0,0,0.1,0,0.1,0L189.3,16.8z
		 M181.1,14.2c-4.4,0-8.7,1.6-8.7,1.6l-0.7-1c0,0,1.2,0.6,2.6,0.2c1.5-0.5,1.9-1.5,1.9-1.5s1.1,0.8,2.7,0.6
		c1.3-0.2,2.3-1.2,2.3-1.2s1,1,2.3,1.2c1.6,0.2,2.7-0.6,2.7-0.6s0.3,1,1.9,1.5c1.4,0.4,2.6-0.2,2.6-0.2l-0.7,1
		C189.8,15.8,185.5,14.2,181.1,14.2z M190.7,14.2c-1.1,0.6-3.6,0.8-4.5-1.4c0,0-1,1-2.7,0.8c-1.4-0.2-2.5-1.5-2.5-1.5
		s-1.1,1.3-2.4,1.5c-1.6,0.2-2.7-0.8-2.7-0.8c-0.9,2.2-3.4,2-4.5,1.4c-0.3-0.2-0.2-0.5,0.1-0.3c0.3,0.1,1.1,0.6,2.2,0.3
		c1.5-0.3,2-1.9,2-1.9s1.2,1.3,3,1c1.5-0.3,2.3-1.8,2.3-1.8s0.8,1.5,2.3,1.8c1.8,0.4,3-1,3-1s0.4,1.6,2,1.9
		c1.2,0.3,1.9-0.2,2.2-0.3S191,14.1,190.7,14.2z M171.9,18.9c0,0-0.1-0.7-0.4-1.3c0,0,0.3-0.2,0.6,0
		C172.1,17.6,172.4,18.3,171.9,18.9z M170.5,18.9c0,0-0.1-0.9-0.3-1.4c0,0,0.4-0.1,0.7,0C170.9,17.5,171.3,18.2,170.5,18.9z
		 M168.8,17.6c0,0,0.5-0.4,0.8-0.1c0,0,0.3,1-0.6,1.3C169,18.8,169.1,18.2,168.8,17.6z M167.9,18.8c0,0,0.2,0.4,0.9,0.7
		c0,0-0.6,0.4-1.3-0.3C167.4,19.2,167.4,18.9,167.9,18.8z M168.4,21.5c0,0,0.6,0.4,0.6,1.1c0,0-0.4-0.4-0.9-0.6
		C168,22,167.9,21.5,168.4,21.5z M168.4,24.2c0,0,0.6,0.2,1,0.8c0,0-0.6,0.3-1.3-0.2C168.2,24.8,168,24.4,168.4,24.2z M193.1,26.9
		c0.5-0.4,0.8-0.9,0.8-0.9c0.6,0.2,0.4,0.7,0.4,0.7C193.6,27.2,193.1,26.9,193.1,26.9z M194.8,27.5c0.3,0.1,0.4,0.4,0.4,0.4
		c-0.5,0.4-1.1,0.4-1.1,0.4C194.4,27.7,194.8,27.5,194.8,27.5z M206.1,7.8c-0.3,0.1-0.7-0.2-0.3-0.5C206.1,7.5,206.1,7.8,206.1,7.8
		z M205.2,2.2c0.6,0,0.8,0.3,0.7,0.8c0,0.3-0.1,0.5,0.6,0.4c1.6,0,1.9,0.3,1.5,0.7c-0.2,0.2-0.4,0.4-0.1,0.7c0.4,0.3,0,1.1-0.4,1
		c-1.3-0.5-1.7-0.4-2.2,0.7c-0.5,1.1-0.6,2.1,1.6,1.8c0,0,0,0.6-1.5,0.5c-1.4-0.1-1.7-2.3,0-4.1c0.4-0.4,0.3-0.7,0.1-0.9
		c0-0.5,0-1-1-0.5c-0.9,0.4-0.8,0.7-0.3,0.7c0.5,0,0.9,0.4,0.9,0.4s-0.9,0.8-1.2,2.3c-0.5,2,0.7,2.7,0.7,2.7s-0.7,0.5-1.5-0.4
		c0,0,0.3-0.8-0.1-1.4c0,0,0.3-0.8-0.4-1.7c0,0,0.5-0.5,0.1-1.4c0,0,0.9-0.4,0.5-1.5C203.2,2.8,204.1,2.3,205.2,2.2z M203.8,1.5
		l-0.5,0.2c-0.5-0.4-0.6-0.9-0.6-0.9C203.4,0.6,203.8,1.5,203.8,1.5z M202.8,2.1c-0.8,0.4-1.8-0.5-1.8-0.9
		C202.1,0.7,202.3,1.6,202.8,2.1z M201.3,2.4c0,0-0.9,0.6-2.2-0.5C199.1,1.9,200.4,1,201.3,2.4z M200.1,2.9c-0.5,1-1.8,0.3-2.7,0.5
		C198.3,1.7,199.5,3,200.1,2.9z M199.2,3.9c-0.3,1-1.6,0.5-2.4,1C197.2,3.6,198.2,4.1,199.2,3.9z M198.8,5c0,1-1.7,1.2-2.5,2.1
		C196.4,4.9,198.8,5,198.8,5z M195.8,10.6c0,0,0.2,0.1,0.4,0c-0.1,0.7,0.1,1.2-0.1,2.1c0,0,0.2,0.1,0.5,0.1c0.2,0.9-0.4,1.2,0,2.1
		c0,0-0.3,0.5-1,0.9c0,0-0.9-0.9-1.8-0.5c0,0-1-0.6-1.8,0c0,0-0.3-0.2-0.8-0.1c0,0,0.6-0.8,0.5-2c0,0,1.2-1.2,2.2-2.6
		c1-1.4,1.2-2.6,1.8-3.3c0,0,0.2,0.5-0.1,0.9c0,0,0.1,0.2,0.4,0.2C195.5,9.7,195.9,10,195.8,10.6z M193,7.5c0.2,0.3,0.2,0.9,0,1.1
		C192.8,8.4,192.6,7.8,193,7.5z M191.8,9c0.2,0.1,0.4-0.1,0.2-0.4c-0.3-0.4-0.2-1.4,0.7-1.9c0,0-0.7,1.7,0.3,2.7
		c0,0,0.6-0.1,0.6-1.1c0-1.2-0.5-2.5,0.5-2.8c0,0-0.2,0.5-0.1,1.1c0,0.2,0.3,0.2,0.3-0.2c0-0.4,0.4-1.2,1.4-1c0,0-0.7,1-1.2,2
		c-0.5,1.1-0.6,1.8-2,3.8c0,0-0.2-1.4-1.2-1.4C190.9,9.4,191.3,8.9,191.8,9z M188.8,10.4c-0.2,0.4-0.7,0.1-0.4-0.1
		c0.2-0.2,0-0.6-0.4-0.2c-1,0.9-1.1,2.7,0.4,3.2c1.5,0.5,2.8-0.7,2.9-2.1c0-0.3-0.4-0.4-0.4,0c0,0.4-0.8,0.3-0.5-0.2
		c0.3-0.8,1.5-0.3,1.4,0.6c-0.2,1.5-1.8,2.7-3.5,2.2c-1.7-0.5-2.1-2.7-0.6-4C188.2,9.1,189.2,9.7,188.8,10.4z M187.4,4.9
		c0.3,0.2,0.3,0.7,0.1,1.2C187.2,5.6,187.2,5.1,187.4,4.9z M186.3,6.5c-0.5-0.8-0.3-1.9,0.5-2c0,0-0.3,1.7,0.7,2.5
		c0,0,0.9-1.2,0.1-2.8c0,0-0.1-0.8,0.6-1c0,0,0.1,0.7,0.3,1.1c0.1,0.1,0.2-0.1,0.1-0.4c-0.1-0.4,0.4-1.4,1.3-1.5c0,0,1,1.3-0.1,2
		c-0.2,0.1-0.1,0.4,0.2,0.3c0.4-0.2,0.6-0.4,0.6-0.4s0.4,0.7-0.3,1c-2.2,0.9-2.1,2-2.1,2s1.4,0.3,2.3-1.2c0.3,0.9,0.1,1.6-0.8,1.8
		c-0.3,0.1-0.3,0.3-0.1,0.5c0.4,0.2,0.4,1.2-0.5,1.3c0,0-0.8-1.1-2.2-0.2c0,0-0.3-1.3-1.5-1.2C185,7.7,185.3,6.4,186.3,6.5z
		 M190.3,5.8c-0.1,0.4-0.9,0.9-1.4,1C189.1,6.3,189.8,5.8,190.3,5.8z M183.2,9.1c-0.2,0.3-0.6,0.1-0.5-0.2c0.3-0.5-0.1-0.6-0.4-0.2
		c-0.8,1.1-0.4,3.1,1.1,3.5c1.5,0.4,2.4-0.7,2.7-1.3c0.2-0.6,0.2-1.7-0.2-1.6c-0.3,0.1,0,0.4-0.2,0.4c-0.5,0.2-0.7-0.7-0.1-0.9
		c0.6-0.2,1,0.2,1.1,0.6c0.4,1.2-0.7,3.7-3.1,3.2c-2.3-0.4-2.5-3.1-1.7-4.1C182.6,7.5,183.7,8.3,183.2,9.1z M179.1,6.3
		c0.3-0.1,0.2-0.3,0-0.3c-0.8-0.5-0.5-1.7,0.1-2.1c-0.3,2,1.5,2.2,1.5,2.2s0.4-1.1-0.7-2c-0.5-0.5-0.6-0.9-0.4-1.1
		c0.2-0.1,0.4,0.2,0.6,0.3c0.2,0.2,0.4,0.1,0.2-0.1c-0.8-1.1,0.6-2,0.6-2s1.4,0.9,0.6,2c-0.2,0.2,0,0.3,0.2,0.1
		c0.2-0.2,0.4-0.5,0.6-0.3c0.3,0.2,0.2,0.6-0.4,1.1c-1.1,1-0.7,2-0.7,2s1.8-0.2,1.5-2.2c0.6,0.4,1,1.5,0.1,2.1
		c-0.1,0.1-0.3,0.3,0,0.3c0.6,0.1,0.9,1.1,0.3,1.5c-0.6-0.4-1.7-0.4-2.4,0.8c-0.7-1.2-1.7-1.2-2.4-0.8
		C178.1,7.4,178.4,6.4,179.1,6.3z M179.7,4.5c0.3,0,0.8,0.5,0.7,1C179.8,5.5,179.6,4.7,179.7,4.5z M181.8,5.5c-0.1-0.5,0.4-1,0.7-1
		C182.6,4.7,182.4,5.5,181.8,5.5z M176.6,9.7c-0.2-0.1,0-0.4-0.2-0.4c-0.4-0.1-0.4,1-0.2,1.6c0.2,0.6,1.2,1.7,2.7,1.3
		c1.5-0.4,1.9-2.5,1.1-3.5c-0.3-0.4-0.7-0.3-0.4,0.2c0.1,0.3-0.3,0.5-0.5,0.2c-0.5-0.8,0.5-1.6,1.4-0.5c0.7,1,0.6,3.6-1.7,4.1
		c-2.4,0.5-3.5-2.1-3.1-3.2c0.1-0.4,0.5-0.8,1.1-0.6C177.3,9,177,9.9,176.6,9.7z M174.8,4.9c0.2,0.2,0.2,0.8-0.1,1.2
		C174.5,5.6,174.6,5.1,174.8,4.9z M172.9,9.6c-0.9-0.1-0.9-1.1-0.5-1.3c0.2-0.2,0.2-0.4-0.1-0.5c-0.9-0.2-1.1-0.9-0.8-1.8
		c1,1.5,2.3,1.2,2.3,1.2s0.1-1.1-2.1-2c-0.6-0.3-0.3-1-0.3-1s0.2,0.3,0.6,0.4c0.2,0.1,0.3-0.2,0.2-0.3c-1.1-0.8-0.1-2-0.1-2
		c0.9,0.2,1.4,1.1,1.3,1.5c-0.1,0.3,0,0.5,0.1,0.4c0.3-0.4,0.3-1.1,0.3-1.1c0.6,0.2,0.6,1,0.6,1c-0.8,1.6,0.1,2.8,0.1,2.8
		c1.1-0.9,0.7-2.5,0.7-2.5c0.9,0.1,1.1,1.2,0.5,2c1-0.1,1.3,1.2,0.7,1.8c-1.2-0.1-1.5,1.2-1.5,1.2C173.7,8.4,172.9,9.6,172.9,9.6z
		 M171.9,5.8c0.5,0,1.2,0.5,1.4,1C172.8,6.8,172,6.2,171.9,5.8z M171.8,10.9c0.2,0.5-0.5,0.7-0.5,0.2c0-0.4-0.4-0.3-0.4,0
		c0.1,1.4,1.4,2.6,2.9,2.1c1.5-0.5,1.4-2.3,0.4-3.2c-0.4-0.3-0.6,0.1-0.4,0.2c0.2,0.3-0.2,0.5-0.4,0.1c-0.3-0.7,0.6-1.2,1.2-0.7
		c1.5,1.4,1.1,3.5-0.6,4c-1.7,0.5-3.3-0.6-3.5-2.2C170.3,10.5,171.5,10.1,171.8,10.9z M169.2,7.5c0.3,0.3,0.2,0.9,0,1.1
		C169,8.4,169.1,7.8,169.2,7.5z M168,6.5c0,0.4,0.2,0.4,0.3,0.2c0.1-0.6-0.1-1.1-0.1-1.1c1,0.3,0.6,1.5,0.5,2.8
		c0,1,0.6,1.1,0.6,1.1c1-1,0.3-2.7,0.3-2.7c0.9,0.4,0.9,1.4,0.7,1.9c-0.2,0.3,0,0.4,0.2,0.4c0.5-0.1,0.9,0.3,0.6,0.9
		c-1.1,0-1.2,1.4-1.2,1.4c-1.4-2-1.5-2.8-2-3.8c-0.5-1.1-1.2-2-1.2-2C167.5,5.3,168,6.1,168,6.5z M166,10.7c0.2,0.1,0.4,0,0.4,0
		c-0.1-0.6,0.2-1,0-2.1c0.2,0,0.4-0.2,0.4-0.2c-0.3-0.5-0.1-0.9-0.1-0.9c0.6,0.7,0.8,1.9,1.8,3.3s2.2,2.6,2.2,2.6
		c-0.2,1.1,0.5,2,0.5,2c-0.5-0.1-0.8,0.1-0.8,0.1c-0.8-0.6-1.8,0-1.8,0c-0.9-0.4-1.8,0.5-1.8,0.5c-0.7-0.4-1-0.9-1-0.9
		c0.4-0.9-0.2-1.2,0-2.1c0.3,0,0.5-0.1,0.5-0.1C165.9,11.8,166.1,11.4,166,10.7z M165.8,7.1c-0.8-0.9-2.5-1-2.5-2.1
		C163.4,5,165.8,4.9,165.8,7.1z M165.4,4.9c-0.8-0.6-2.1,0-2.4-1C164,4.1,165,3.6,165.4,4.9z M164.8,3.3c-0.9-0.2-2.2,0.5-2.7-0.5
		C162.7,3,163.9,1.7,164.8,3.3z M163.1,1.9c-1.3,1.1-2.2,0.5-2.2,0.5C161.8,1,163.1,1.9,163.1,1.9z M161.2,1.2c0,0.4-1,1.3-1.8,0.9
		C159.9,1.6,160.1,0.7,161.2,1.2z M159.5,0.8c0,0-0.1,0.5-0.6,0.9l-0.5-0.2C158.4,1.5,158.8,0.6,159.5,0.8z M156.4,7.2
		c0.5,0.3,0,0.6-0.3,0.5C156.1,7.8,156.1,7.5,156.4,7.2z M155.4,8.3c2.2,0.3,2.1-0.7,1.6-1.8c-0.5-1.1-0.9-1.2-2.2-0.7
		c-0.4,0.2-0.8-0.7-0.4-1c0.3-0.2,0.2-0.4-0.1-0.7c-0.3-0.3,0-0.7,1.5-0.7c0.6,0,0.6-0.2,0.6-0.4c-0.1-0.5,0-0.9,0.7-0.8
		c1.1,0.1,2,0.6,2,0.6c-0.4,1.1,0.5,1.5,0.5,1.5c-0.3,1,0.1,1.4,0.1,1.4c-0.6,0.9-0.4,1.7-0.4,1.7c-0.5,0.6-0.1,1.4-0.1,1.4
		c-0.7,1-1.5,0.4-1.5,0.4s1.2-0.6,0.7-2.7c-0.4-1.4-1.2-2.3-1.2-2.3s0.4-0.4,0.9-0.4c0.5,0,0.6-0.3-0.3-0.7c-1-0.5-1,0-1,0.5
		c-0.3,0.3-0.3,0.5,0.1,0.9c1.7,1.8,1.5,4,0,4.1C155.4,8.9,155.4,8.3,155.4,8.3z M148.1,42.9c-0.3-0.7-0.3-0.8,0-2
		c0.2-0.6,0.2-0.8,0.6-0.7c0.7,0.1,0.4-0.7,0.8-1.3c0.2-0.3,0.2-0.6,0-1.3c-0.2-0.7-0.5-1.3-0.5-1.3s0.4-1,0.6-2.1
		c0.1-0.7-0.6-0.9-0.7-0.3c-0.3,1.5-1.2,3-3.4,3c-1.7,0-3-1.6-3-3.5c0-2,1.9-3.9,2.7-4.9c2.4-2.8,2.8-4,2.9-5.3
		c0.1-1.4-0.3-1.8-0.3-1.8c-1.4,0.5-1.8-0.7-1.8-0.7c0.2-0.3,0.5-0.3,0.5-0.3c-0.3-0.4-1-0.1-1.2-1.1c0.2-0.2,0.7,0,0.7,0
		c-0.3-0.8-1.2-0.5-1-1.9c1.6,0,1.5,1.2,2,1.3c0-0.3,0.2-0.6,0.2-0.6c0.7,0.5,0.2,1.1,0.7,1.5c0.1-0.3,0.3-0.4,0.3-0.4
		c0.7,0.9,0.1,1.8,0.1,1.8c1.7,4-2.8,7.6-4.5,10.1c-1.2,1.8-0.6,4.4,1,4.8c1.6,0.5,2.9-0.4,3.9-4c0.5-1.6,0.7-2,2-3.6
		c1.4-1.7,1.7-3,1.9-4.1s0.4-5.1,0.5-6c0.1-0.9,0.9-1.3,1.2-1.7c0.3-0.4,0.1-0.7-0.2-0.4c-0.6,0.6-1.1,0.8-1.1,0.8
		c0.1-1.6,1.5-1.7,2-2.6c0.2-0.3,0-0.5-0.3-0.3c-0.6,0.5-1.4,0.8-1.4,0.8c0.2-1.4,1.5-1.5,1.9-2.1c0.2-0.3,0.1-0.6-0.2-0.4
		c-0.6,0.5-1.2,0.6-1.2,0.6s0.3-0.9,1.4-1.5c0.4-0.2,0.3-0.4,0-0.4c-0.3,0-0.6-0.1-0.6-0.1c0.6-0.9,1.5-0.6,1.8-0.3
		c0.2,0.2,0.3,0,0.3-0.1c0-0.2,0-0.6,0.5-0.7c0.6-0.1,0.8,0.3,0.8,0.5s0.3,0.2,0.3,0c0-0.2,0.3-0.5,1.1-0.3
		c0.8,0.2,1.1,0.9,1.1,0.9c-0.6-0.2-0.8,0-0.5,0.2c1.3,1.1,1.2,1.9,1.2,1.9c-0.5-0.5-0.8-0.3-0.5,0.1c0.7,0.9,0.6,1.9,0.6,1.9
		s-0.4-0.2-0.6-0.3c-0.3-0.3-0.6,0.1-0.3,0.4c1.6,1.9,1.3,2.8,1.9,3.8c0.6,1.1,2.9,3.5,3.4,3.9c0.5,0.4,0.9-0.4,1-1.2
		c0.1-0.6,0.2-1.2,0.9-0.8c-0.7,0.8-0.1,1.4-0.1,1.4c-0.6,1-0.3,0.9,0.3,1.1c-1.1,0.8-0.2,2-0.2,2c-0.7,0.3-0.6,1.2-0.6,1.2
		c-0.5,0-0.7,0.4-0.7,0.4s-0.4-0.3-0.6-0.8c-0.3-0.6,0.2-1.1-0.6-1.6c-1.9-1.4-3.8-3-4.3-3.6c-0.5-0.6-0.6-0.3-0.8,0.1
		c-0.7-1.2-0.9-2.2-1.1-1.5c-0.1,0.3-0.3,0.4-0.3,0.4c-0.3-1.5-0.2-2.8-1-1.9c-0.1-1.1-0.5-1.1-0.5-2.4c0-0.4-0.5-0.6-0.5-0.1
		c-0.1,1.6,0.6,1.9,0.4,3.2c-0.1,0.7,0.2,0.8,0.7,0.7c0.3,1.1,0.8,1.8,0.8,1.8c0.2-0.3,0.5-0.5,0.5-0.5c0.6,0.6,0.8,1.2,1.3,1.6
		c0.1-0.3,0.2-0.4,0.6-0.2c0.4,0.3,0.3,0.4,0.3,0.6c0,0.2-0.3,0.7-0.3,0.7c-0.1-0.3-0.3-0.4-0.3-0.4c-0.3,0.4-0.1,1.5-1,2.2
		c0-0.4-0.2-0.5-0.2-0.5c-0.6,0.4-0.3,0.9-0.9,1.4c0-0.2-0.2-0.2-0.2-0.2s-0.6,1.1-2.3,3c-0.8,0.9-0.5,1.9-1.7,4.8
		c-0.5,1.1-0.6,1.4-1,2.8c-0.4,1.5-0.6,1.3-3.4,3.7c-0.4,0.4-0.3,0.4-0.3,0.7c0.1,0.2,0.5,1.6,0.5,1.6c-0.5,0.2-0.2,0.9,0.2,0.7
		c2.5-0.8,3,0,3,0c-0.4-0.1-0.9,0.4-0.9,0.4c-1-0.5-1.3,0.6-1.3,0.6c-0.2-0.3-0.5-0.1-0.5-0.1c0.4,0.5-0.2,0.7-0.7,0.4
		c-0.6-0.3-0.9,0.3-1.2-0.2C148.8,44.7,148.3,43.6,148.1,42.9z M156.7,40.8c0.2,0.7,0.5,1.9,0.9,2.9c0.3,1.1,0.9,1.3,0.9,1.3
		c-0.4,0.2-1.1,0.1-1.1,0.1c-0.9-2.8-3.3-2.6-3.3-2.6c0,2,1.8,2.8,1.8,2.8c-0.5,0.1-1,0.1-1,0.1c-1.1-2.1-0.9-3-3.8-2.4
		c-0.3-0.7-0.4-1.5-0.4-1.5c2.8-2.2,3.5-2.8,3.7-3.7c0.1-0.9,0.5-1.7,0.5-1.7c0.7,1.1,0.9,1,1.4,1.2s0.5,0.3,0.9,1.9
		C157.5,40.2,156.4,39.8,156.7,40.8z M156.8,45.3c-0.9-0.2-1.8-1.1-2-2C155.7,43.5,156.6,44.4,156.8,45.3z M154.2,45.6
		c0,0-0.3-0.3-1-0.8c0,0,0.1-0.2,0.5-0.2C153.8,44.6,154.3,44.9,154.2,45.6z M152.7,45.5c0,0-0.4-0.2-0.8-0.6c0,0,0-0.3,0.4-0.3
		C152.4,44.6,152.8,45,152.7,45.5z M154.5,48.3c0.5-0.7,3.2-1.7,4.1-1C158.3,47.6,156.9,48.5,154.5,48.3z M154.9,46.7
		c-6.2,0.3-8.6-0.8-8.6-0.8l0.3-0.4c1.4,0.3,1.9,0.2,2.5,0.4c0.6,0.3,0.7-0.3,1.8,0.1c0.4,0.1,0.6,0,0.8-0.3c0.3,0,0.8,0.2,1,0.5
		c0.2,0.2,0.6,0.3,0.5,0.1c-0.1-0.2,0.1-0.4,0.1-0.4s0.5,0.1,1.1,0.6c0.4,0.3,0.3-0.1,0.7-0.3c2.7,0,4.1-0.3,4.1-0.3
		c1.1,0.3,1.5-0.5,1.5-0.5c0.4,0.2,0.7,0.2,0.7,0.2c0.5,0.3,1.2,0.3,1.2,0.3S159.9,46.5,154.9,46.7z M161.5,44.5
		c0,0,0.1-0.3,0.4-0.3c0,0,0.6,0.4,0.6,0.9C162.5,45.1,161.8,45,161.5,44.5z M162.3,43.8c-1.1-0.3-1.5,0.3-1.2,1
		c-1.2-0.5-1,0.3-1,0.3s-0.2,0.3-0.7,0.1c-0.2-0.1-0.9-0.9-1.2-1.5c-0.3-0.7-0.5-1.8-0.7-2.6c-0.3-0.8,0.6-0.5,0.5-1.4
		c-0.1-0.7-0.4-1.7-0.7-2.4c-0.3-0.7-0.7-0.4-1.3-0.9c-0.4-0.4-0.9-1.1-0.9-1.1s0.7-1.1,1.2-3.6c0.3-1.4,0.9-1.7,0.9-1.7
		s0.5,1.1,1.7,2.4c0.4,0.4,0.6,0.7,0.6,1.7c0.1,1,0.5,2.2,0.6,3.5c0.1,0.6,0.2,0.9-0.4,1.8c-0.6,1-0.7,1.2-0.1,3.4
		c0.2,0.6,0.5,0.8,0.9,0.7c1.1-0.3,1.6-0.3,2.1,0C162.4,43.4,162.3,43.8,162.3,43.8z M162.8,45.7c0,0,0.2-0.3,0.2-0.6
		c0,0,0.6,0,1.1,0.4C164.1,45.5,163.3,45.7,162.8,45.7z M162.8,44.1c0,0,0.1-0.4,0.5-0.4c0,0,0.7,0.5,0.7,1.2
		C164.1,44.8,163.5,44.5,162.8,44.1z M161,42.5c-0.5,0.1-0.5,0-0.7-1c-0.2-1,0-1.1,0.4-1.9c0.4-0.6,0.6-1,0.5-1.6
		c-0.1-0.6-0.4-3.1-0.6-4.3c-0.2-1.2-0.3-1.4-1.6-3c-0.7-0.9-1-1.7-1-1.7l0.6-0.8c0.1,0.2,0.4,0.2,0.4,0.2c0.3-0.4,0.2-1,0.8-1.3
		c0.2-0.1,0.5,0.1,0.5,0.1c0.4-0.6,0-0.7,1-1.8c0.2,0,0.3,0.3,0.3,0.3c0.4-0.5,0.1-0.9,0.8-2.3c0.6,0.4,1.5,1.2,2.1,1.6
		c0.6,0.4,0.6,0.5,0.9,1.6c0.4,1.5,1.2,1.4,1.2,1.4c0.2,0.3,0.9,0.6,0.9,0.6l0.2,6.1c0.2,7.7,5.5,9.6,12,10.3
		c-0.3,0.4-0.1,0.8-0.1,0.8s-1.2-0.3-2.2,0.5c-0.4,0.3-0.7,0.2-0.7,0.2c-1.5-2.5-3.6-2.6-3.6-2.6c-0.3,0.2,0,0.9,0.2,1.4
		c0.1,0.1,0.1,0.2,0.2,0.3c0,0-0.1-0.1-0.2-0.3c-1.5-2.5-3.7-3.1-3.7-3.1c-0.1,1.8,1.1,2.6,1.1,2.6l-0.9-0.3
		c-0.6-3-2.7-3.4-2.7-3.4c-0.4,1.9,1.1,3.2,1.1,3.2l-0.6-0.1c-0.4-1-1.2-2.1-1.2-2.1c2-3.4,0.2-5.8,0.2-5.8c-0.8,1-1.1,2.1-1.1,2.1
		c-0.3-0.8-0.4-1.5-0.4-1.5c2.6-3.5,1.2-6.4,1.2-6.4c-1,0.7-1.5,2-1.5,2l0-1c1.6-3.5-0.8-5.7-0.8-5.7c-2,3.5,0.4,5.7,0.4,5.7l0,0.9
		c-0.8-2.2-2.5-2.6-2.5-2.6c-0.5,3.7,2.4,5.4,2.4,5.4c0,0.7,0.1,1.3,0.1,1.3c-0.8-0.9-1.8-1.3-1.8-1.3c-0.2,4.3,2.8,5.5,2.8,5.5
		c0.2,0.5,0.3,0.9,0.3,0.9c-1.3-0.9-2.5-0.8-2.5-0.8c0.3,2.4,2.3,3.5,2.3,3.5c-0.6,0-1,0.2-1,0.2C163.4,42.4,162.9,42.1,161,42.5z
		 M175.6,46.3c-0.9-0.1-1.6-0.9-1.8-1.6C174.2,44.9,175.1,45.2,175.6,46.3z M172.2,45.3c-0.9-0.1-1.8-1.4-1.8-2
		C171.2,43.5,172.2,44.6,172.2,45.3z M169.1,44.2c-0.9-0.3-1.5-1.9-1.4-2.3C168.5,42.2,169,43.5,169.1,44.2z M166.9,44
		c-0.9-0.2-2.5-1.3-2.7-2.5C165.3,41.7,166.7,43.1,166.9,44z M166.4,37.7c0.6,1,0.1,2.7-0.3,2.8C165.6,39.7,166.1,38,166.4,37.7z
		 M165.1,39.5c-1.2-0.6-1.9-2.8-1.8-3.2C164.5,37.1,165,38.8,165.1,39.5z M164.4,30.6c-0.8-0.8-0.8-3-0.4-3.6
		C164.9,27.9,164.7,29.9,164.4,30.6z M165.8,31.9c0.4,1-0.3,3.3-0.9,3.6C164.4,34.6,165.3,32.4,165.8,31.9z M164.2,34
		c-1.3-0.7-1.7-2.6-1.6-3.1C163.8,31.7,164.1,33.3,164.2,34z M165.4,46.8c0.5-0.6,3-1.5,3.9-0.8C169,46.4,167.5,47.3,165.4,46.8z
		 M170.1,47.9c0.6-0.7,2.7-1.2,3.7-0.4C173.5,47.8,171.6,48.6,170.1,47.9z M170.2,45.8c-3.1-1.1-5.7-0.4-5.7-0.4l0.4-0.6
		c2.5-0.4,4.1-0.1,7.1,0.9c2.5,0.9,5.5,1.5,5.5,1.5l-1.3,0.3C176.2,47.6,174.2,47.2,170.2,45.8z M176.1,49
		c-0.5-0.2-0.4-0.8-0.4-0.8c1.5-0.4,3-0.7,3-0.7c0.5,0.1,0.5,0.7,0.5,0.7S177.7,48.5,176.1,49z M179.8,48.4c-0.1-1.6-2-1.6-2-1.6
		c2-1,2.9,0.8,2.9,0.8L179.8,48.4z M181.1,45c1.4,0,1.2,1.2,0,1.8C179.9,46.2,179.7,45,181.1,45z M182.4,48.4l-0.9-0.8
		c0,0,0.9-1.8,2.9-0.8C184.4,46.8,182.4,46.8,182.4,48.4z M186.1,49c-1.7-0.6-3.1-0.8-3.1-0.8s0-0.5,0.5-0.7c0,0,1.5,0.3,3,0.7
		C186.6,48.3,186.6,48.8,186.1,49z M192.1,47.9c-1.5,0.7-3.4-0.1-3.7-0.4C189.4,46.7,191.5,47.2,192.1,47.9z M192.9,46
		c0.9-0.7,3.4,0.2,3.9,0.8C194.7,47.3,193.2,46.4,192.9,46z M192,45.8c-4,1.4-6,1.8-6,1.8l-1.3-0.3c0,0,3-0.6,5.5-1.5
		c3-1,4.6-1.3,7.1-0.9l0.4,0.6C197.8,45.4,195.1,44.7,192,45.8z M186.6,46.3c0.4-1.1,1.3-1.5,1.8-1.6
		C188.3,45.4,187.5,46.2,186.6,46.3z M190,45.3c0-0.7,1-1.8,1.8-2C191.7,43.8,190.9,45.1,190,45.3z M193.1,44.2
		c0-0.7,0.6-2,1.4-2.3C194.6,42.4,194,43.9,193.1,44.2z M198,41.4c-0.2,1.2-1.8,2.3-2.7,2.5C195.5,43.1,196.9,41.7,198,41.4z
		 M195.8,37.7c0.3,0.3,0.8,2,0.3,2.8C195.7,40.4,195.2,38.7,195.8,37.7z M196.8,44c0,0,2-1.1,2.3-3.5c0,0-1.1-0.1-2.5,0.8
		c0,0,0.1-0.4,0.3-0.9c0,0,3-1.1,2.8-5.5c0,0-1,0.4-1.8,1.3c0,0,0.1-0.6,0.1-1.3c0,0,3-1.7,2.4-5.4c0,0-1.6,0.4-2.5,2.6l0-0.9
		c0,0,2.3-2.2,0.4-5.7c0,0-2.4,2.2-0.8,5.7l0,1c0,0-0.5-1.3-1.5-2c0,0-1.4,2.9,1.2,6.4c0,0-0.1,0.7-0.4,1.5c0,0-0.3-1-1.1-2.1
		c0,0-1.8,2.4,0.2,5.8c0,0-0.9,1.1-1.2,2.1l-0.6,0.1c0,0,1.5-1.2,1.1-3.2c0,0-2.1,0.4-2.7,3.4l-0.9,0.3c0,0,1.2-0.9,1.1-2.6
		c0,0-2.2,0.6-3.7,3.1c-0.1,0.2-0.2,0.3-0.2,0.3c0.1-0.1,0.1-0.2,0.2-0.3c0.2-0.4,0.6-1.2,0.2-1.4c0,0-2.1,0.2-3.6,2.6
		c0,0-0.3,0.1-0.7-0.2c-1-0.7-2.2-0.5-2.2-0.5s0.1-0.4-0.1-0.8c6.5-0.6,11.8-2.6,12-10.3l0.2-6.1c0,0,0.7-0.3,0.9-0.6
		c0,0,0.8,0.1,1.2-1.4c0.3-1.1,0.2-1.2,0.9-1.6c0.7-0.4,1.5-1.1,2.1-1.6c0.7,1.4,0.4,1.8,0.8,2.3c0,0,0.1-0.3,0.3-0.3
		c1,1.1,0.6,1.2,1,1.8c0,0,0.2-0.2,0.5-0.1c0.5,0.3,0.4,0.9,0.8,1.3c0,0,0.3,0,0.4-0.2l0.6,0.8c0,0-0.4,0.8-1,1.7
		c-1.3,1.7-1.4,1.8-1.6,3c-0.2,1.2-0.5,3.7-0.6,4.3c-0.1,0.6,0.2,1,0.5,1.6c0.4,0.8,0.6,0.9,0.4,1.9c-0.2,1-0.2,1-0.7,1
		c-1.9-0.4-2.4-0.1-3.5,1.7C197.8,44.2,197.3,44,196.8,44z M199,36.3c0.1,0.5-0.6,2.6-1.8,3.2C197.2,38.8,197.7,37.1,199,36.3z
		 M197.3,35.5c-0.6-0.3-1.3-2.6-0.9-3.6C196.9,32.4,197.8,34.6,197.3,35.5z M198.2,27c0.4,0.6,0.4,2.9-0.4,3.6
		C197.5,29.9,197.3,27.9,198.2,27z M198,34c0-0.7,0.3-2.4,1.6-3.1C199.7,31.4,199.3,33.3,198,34z M198.1,45.5
		c0.5-0.4,1.1-0.4,1.1-0.4c0,0.3,0.2,0.6,0.2,0.6C198.9,45.7,198.1,45.5,198.1,45.5z M198.1,44.8c0-0.6,0.7-1.2,0.7-1.2
		c0.4,0,0.5,0.4,0.5,0.4C198.7,44.5,198.1,44.8,198.1,44.8z M201.5,43.3c0.4,0.1,0.7-0.1,0.9-0.7c0.6-2.2,0.5-2.3-0.1-3.4
		c-0.5-0.9-0.4-1.1-0.4-1.8c0.1-1.4,0.5-2.6,0.6-3.5c0.1-1,0.2-1.3,0.6-1.7c1.2-1.3,1.7-2.4,1.7-2.4s0.6,0.3,0.9,1.7
		c0.5,2.5,1.2,3.6,1.2,3.6s-0.5,0.7-0.9,1.1c-0.5,0.5-1,0.2-1.3,0.9c-0.3,0.7-0.6,1.7-0.7,2.4c-0.2,1,0.7,0.6,0.5,1.4
		s-0.4,1.9-0.7,2.6c-0.3,0.7-1,1.4-1.2,1.5c-0.4,0.2-0.7-0.1-0.7-0.1s0.2-0.8-1-0.3c0.3-0.7-0.1-1.3-1.2-1c0,0-0.1-0.4-0.4-0.5
		C199.9,43,200.4,43,201.5,43.3z M200.7,44.5c-0.3,0.5-1,0.6-1,0.6c-0.1-0.5,0.6-0.9,0.6-0.9C200.6,44.2,200.7,44.5,200.7,44.5z
		 M203.6,47.2c0.9-0.7,3.6,0.4,4.1,1C205.3,48.5,203.9,47.6,203.6,47.2z M207.3,46.7c-5-0.2-7.8-1-7.8-1s0.7,0,1.2-0.3
		c0,0,0.3,0,0.7-0.2c0,0,0.4,0.8,1.5,0.5c0,0,1.5,0.3,4.1,0.3c0.4,0.3,0.3,0.7,0.7,0.3c0.6-0.5,1.1-0.6,1.1-0.6s0.2,0.3,0.1,0.4
		c-0.1,0.2,0.3,0.2,0.5-0.1c0.2-0.3,0.7-0.5,1-0.5c0.2,0.3,0.4,0.5,0.8,0.3c1.1-0.4,1.2,0.2,1.8-0.1c0.6-0.3,1.1-0.1,2.5-0.4
		l0.3,0.4C215.9,45.9,213.5,47,207.3,46.7z M216.4,44.7c-0.2-0.4,0.6-0.4,0.6-0.4C216.9,44.5,216.5,45,216.4,44.7z M217.3,42.5
		c0.5-0.1,0.8-0.3,0.8-0.3s0.1,0.8-1,1.3C216.4,43.8,216.3,42.7,217.3,42.5z M217.9,45.4c-0.9,0.1-0.9-1-0.1-1
		c0.8-0.1,1.3,0.4,1.3,0.4S218.5,45.3,217.9,45.4z M185.4,31.3c-0.8,0-1.6,0.2-2.3,0.5c-0.1-0.1-0.2-0.2-0.3-0.3
		c-0.2-0.4-0.5-0.2-0.5-0.2s-0.2-0.4-0.3-0.8c-0.1-0.3-0.4-0.3-0.6-0.1c-0.2,0.3-0.5,0.3-0.5,0.3l-3.7-3.5l1.1-1.2l0.5,0.5
		l-0.8,0.8l1.5,1.4l4-4.2l-2.4-2.3l-1.6,1.6l1,1l0.5-0.5l0.3,0.3l-0.8,0.9l-3.1-3l0.8-0.9l0.3,0.3l-0.5,0.5l0.9,0.9l1.6-1.6
		l-2.4-2.3l-4,4.2l1.5,1.4l0.8-0.8l0.5,0.5l-1.1,1.2l-2.7-2.6c-0.4-0.4-1,0-1.3,0.3c-0.3,0.3-0.6,1-0.2,1.3l7.7,7.4
		c0,0-0.1,0.2-0.3,0.5c-0.3,0.3-0.2,0.6,0.1,0.6c0.3,0,0.8,0.2,0.8,0.2s-0.2,0.3,0.2,0.5c0,0,0.1,0.1,0.2,0.1
		c-0.4,0.7-0.6,1.6-0.6,2.5c0,3,2.5,5.5,5.6,5.5c3.1,0,5.6-2.5,5.6-5.5C191.1,33.7,188.6,31.3,185.4,31.3z M172.4,24.8
		c-0.2-0.2-0.2-0.4,0.1-0.7c0.2-0.2,0.3-0.5,0.7-0.1l2.8,2.7l2-2l-1.2-1.2l-0.9,0.9l-0.7-0.7l3.2-3.4l1.6,1.6l-0.8,0.8l-0.3-0.3
		l0.4-0.4l-0.9-0.9l-1.5,1.5l3.8,3.6l1.5-1.5l-1-0.9l-0.4,0.4l-0.3-0.3l0.8-0.8l1.5,1.5l-3.2,3.3l-0.6-0.6l0.8-0.9l-1.4-1.3l-2,2
		l4.1,4l-0.8,0.8L172.4,24.8z M180.6,33.2c-0.2-0.2-0.3,0-0.5-0.2c-0.1-0.1-0.1-0.2,0.1-0.4c0.2-0.3,0.7-0.8,1-1.1
		c0.3-0.3,0.5-0.5,0.7-0.3c0.2,0.2,0,0.3,0.3,0.5c0.2,0.2,0.4-0.1,0.6,0.4c-1.3,0.9-1.9,1.8-1.9,1.8
		C180.3,33.6,180.8,33.4,180.6,33.2z M185.4,41.5c-2.7,0-4.8-2.1-4.8-4.7c0-2.6,2.2-4.7,4.8-4.7c2.7,0,4.8,2.1,4.8,4.7
		C190.3,39.4,188.1,41.5,185.4,41.5z M185.4,32.9c-2.2,0-4,1.8-4,3.9c0,2.2,1.8,3.9,4,3.9c2.2,0,4-1.8,4-3.9
		C189.5,34.6,187.7,32.9,185.4,32.9z M182.3,38.1c0,0-0.6-1.4,0-2.6C182.9,36.8,182.3,38.1,182.3,38.1z M186.8,33.7
		c-1.4,0.7-2.6,0-2.6,0S185.5,33.1,186.8,33.7z M184.1,39.9c0,0,1.2-0.7,2.6,0C185.5,40.5,184.1,39.9,184.1,39.9z M187.8,39.2
		c-0.5,0.6-1.2-0.2-2.4-0.2c-1.1,0-1.9,0.7-2.4,0.2c-0.6-0.5,0.2-1.2,0.2-2.4c0-1.1-0.7-1.9-0.2-2.4c0.5-0.6,1.2,0.2,2.4,0.2
		c1.1,0,1.9-0.7,2.4-0.2c0.6,0.5-0.2,1.2-0.2,2.4C187.6,37.9,188.4,38.7,187.8,39.2z M188.6,35.5c0.6,1.2,0,2.6,0,2.6
		S188,36.8,188.6,35.5z M185.4,35.2c-0.9,0-1.6,0.7-1.6,1.5c0,0.8,0.7,1.5,1.6,1.5c0.9,0,1.6-0.7,1.6-1.5
		C187,35.9,186.3,35.2,185.4,35.2z M185.4,37.7c-0.5,0-0.9-0.4-0.9-0.9c0-0.5,0.4-0.9,0.9-0.9c0.5,0,0.9,0.4,0.9,0.9
		C186.4,37.3,186,37.7,185.4,37.7z"/>
</g>
</svg>
