<?xml version="1.0" encoding="utf-8"?>
<!-- Generator: Adobe Illustrator 16.0.0, SVG Export Plug-In . SVG Version: 6.00 Build 0)  -->
<!DOCTYPE svg PUBLIC "-//W3C//DTD SVG 1.1//EN" "http://www.w3.org/Graphics/SVG/1.1/DTD/svg11.dtd">
<svg version="1.1" id="Ebene_1" xmlns="http://www.w3.org/2000/svg" xmlns:xlink="http://www.w3.org/1999/xlink" x="0px" y="0px"
	 width="13px" height="13.105px" viewBox="0 0 13 13.105" enable-background="new 0 0 13 13.105" xml:space="preserve">
<path id="magnifier-2-icon" fill="#FFFFFF" d="M13,11.819L9.612,8.432c0.638-0.876,1.014-1.954,1.014-3.118
	C10.626,2.384,8.243,0,5.313,0S0,2.384,0,5.313s2.384,5.313,5.313,5.313c1.11,0,2.142-0.343,2.996-0.928l3.406,3.406L13,11.819z
	 M1.559,5.313c0-2.07,1.684-3.755,3.755-3.755c2.07,0,3.755,1.685,3.755,3.755S7.384,9.068,5.313,9.068
	C3.243,9.068,1.559,7.384,1.559,5.313z"/>
</svg>
