<?xml version="1.0" encoding="UTF-8" standalone="no"?>
<svg width="20px" height="17px" viewBox="0 0 20 17" version="1.1" xmlns="http://www.w3.org/2000/svg" xmlns:xlink="http://www.w3.org/1999/xlink" xmlns:sketch="http://www.bohemiancoding.com/sketch/ns">
    <title>920 px</title>
    <description>Created with Sketch (http://www.bohemiancoding.com/sketch)</description>
    <defs></defs>
    <g id="Page-1" stroke="none" stroke-width="1" fill="none" fill-rule="evenodd" sketch:type="MSPage">
        <g id="920-px" sketch:type="MSArtboardGroup" transform="translate(-836.000000, -17.000000)" fill="#FFFFFF">
            <path d="M855.5,19.012264 C854.801139,19.3540813 854.049824,19.5846488 853.261099,19.687831 C854.066023,19.1570586 854.683891,18.3163153 854.975083,17.3137926 C854.22184,17.8055 853.387989,18.1630283 852.499756,18.3553802 C851.788939,17.5214307 850.775744,17 849.654558,17 C847.50205,17 845.75644,18.9218204 845.75644,21.2916125 C845.75644,21.6279099 845.791152,21.9552902 845.857489,22.2695074 C842.617735,22.0907433 839.745154,20.3825057 837.8229,17.785543 C837.487354,18.4194975 837.294897,19.1562094 837.294897,19.9430263 C837.294897,21.4321611 837.983344,22.745504 839.028937,23.5153362 C838.390242,23.4928315 837.788959,23.300055 837.263656,22.9781946 C837.263271,22.9960286 837.263271,23.0142871 837.263271,23.0325457 C837.263271,25.1114747 838.606997,26.8460386 840.390405,27.2405085 C840.063344,27.3385953 839.718927,27.3912479 839.363325,27.3912479 C839.111859,27.3912479 838.86772,27.364497 838.629753,27.3139674 C839.125743,29.0188081 840.565506,30.259966 842.271005,30.2943601 C840.93692,31.4454991 839.256105,32.1316815 837.429501,32.1316815 C837.115168,32.1316815 836.805077,32.1112998 836.5,32.0718104 C838.225169,33.2896143 840.273928,34 842.475418,34 C849.645687,34 853.566175,27.4604606 853.566175,21.7892647 C853.566175,21.6037067 853.562704,21.4181487 853.555376,21.2338645 C854.316718,20.6292087 854.977783,19.8729643 855.5,19.012264" id="Twitter-copy" sketch:type="MSShapeGroup"></path>
        </g>
    </g>
</svg>