<svg width="260.6" height="25" viewBox="0 0 260.6 25" xmlns="http://www.w3.org/2000/svg"><g fill="#FFF"><path d="M17.5 17.2c-.6 1.2-4.2 4.5-8.9 4.5H5.4L18 1H6.1C4.6 1 3.3.9 3.3.9S1.1 5.9.9 6.3c-.2.3.2.5.3.2.6-1 3.2-4.3 8.5-4.3h2.7L0 23h15.2s2.4-5.3 2.5-5.6c.2-.3-.1-.4-.2-.2zM3.2 21.8h-.5c-.1 0-.1 0 0-.1L14.4 2.3c0-.1.1-.1.2-.1h.4c.1 0 .1 0 0 .1L3.4 21.7s-.1.1-.2.1zM28.5 2.2c4 0 7.2 1.5 9.3 4.7.1.2.4.1.3-.1C38 6.5 35.7 1 35.7 1h-16c-.2 0-.2.5 0 .5.8 0 2.2.9 2.2 2v16.3c0 1.5-1 2.6-2.2 2.6-.2 0-.2.5 0 .5h16.1s2.2-5.3 2.3-5.5c.1-.2-.2-.4-.3-.1-.9 1.7-4.3 4.5-8.8 4.5h-3.1v-9.2H30c2.7 0 4 1.9 4.4 2.4.2.2.5.1.4-.1-.1-.3-1.4-2.8-1.4-2.8s1.3-2.5 1.4-2.8-.3-.6-.4-.3-2.1 2.3-4.9 2.3h-3.7V2.2h2.7zm-4.2 19.5c0 .1 0 .1-.1.1h-.4c-.1 0-.1 0-.1-.1V2.3c0-.1 0-.1.1-.1h.4c.1 0 .1 0 .1.1v19.4zM48.7 22.4c-.7 0-1.9-.7-1.9-1.8V3.2c0-1.1 1.2-1.7 1.8-1.7.2 0 .2-.5 0-.5h-7.8c-.2 0-.2.5 0 .5.5 0 1.8.7 1.8 1.7v17.4c0 1.1-1.1 1.8-1.8 1.8-.2 0-.2.5 0 .5h7.9c.3.1.2-.5 0-.5zm-3.6-.7c0 .1 0 .1-.1.1h-.4c-.1 0-.1 0-.1-.1V2.3c0-.1 0-.1.1-.1h.4c.1 0 .1 0 .1.1v19.4zM69.1 6.5c-.1-.2-2.3-4.8-2.5-5.3-.2-.5-.6-.2-1-.2H53.3c-.3 0-.8-.3-1 .2-.2.5-2.2 5.2-2.3 5.5-.1.2.3.4.5.1.8-1.5 3.7-4.6 6.9-4.6v18.5c0 1.1-1.1 1.8-1.8 1.8-.2 0-.2.5 0 .5h7.9c.2 0 .2-.5 0-.5-.7 0-1.9-.7-1.9-1.8V2.2c3 0 6.1 3 7.2 4.5 0 .3.4.1.3-.2zm-9.3 15.2c0 .1 0 .1-.1.1h-.4c-.1 0-.1 0-.1-.1V2.3c0-.1 0-.1.1-.1h.4c.1 0 .1 0 .1.1v19.4z"/></g><g fill="#FFF"><path d="M139.5 22.4c-1 0-2.1-.6-2.1-2.3V3.6c0-1.6 1.4-2.2 2-2.2.2 0 .2-.5 0-.5h-6.2l-6.4 16s-7-15.7-7.2-16.1c0 0-1.5.1-2.4.1h-3.7c-.2 0-.2.5 0 .5.5 0 2.2.6 2.2 2.3v14c0 3.7-1 4.6-2.4 4.6-.2 0-.2.5 0 .5h6.4c.2 0 .2-.5 0-.5-1.5 0-2.5-.8-2.5-4.6V5.9l8.3 17.8 7.7-19.4v15.8c0 1.7-.8 2.3-2 2.3-.2 0-.2.5 0 .5h8.3c.2.1.2-.5 0-.5zm-13.4-3l-.2.6h-.1l-8.1-17.7c0-.1 0-.1.1-.1h.4c.1 0 .1 0 .2.1l7.7 16.8c.1.2.1.2 0 .3zm9.7 2.3c0 .1 0 .1-.1.1h-.4c-.1 0-.1 0-.1-.1V2.3c0-.1 0-.1.1-.1h.4c.1 0 .1 0 .1.1v19.4zM163 22.4c-.7 0-1.9-.1-2.6-2 0 0-6.9-19.7-7-20-.1-.2-.3-.2-.6-.1-1 .4-2.8 1.2-3.6 1.5-.4.1-.3.4.1.4s.6.1.7.3l-5.5 15.1c-1.8 4.9-2.7 4.8-4.2 4.8-.2 0-.2.5 0 .5h6.4c.2 0 .2-.5 0-.5-1.2 0-2.3-.2-1.1-3.7l1.3-3.8h7.4l1.9 5.8c.5 1.4-1 1.8-2 1.8-.2 0-.2.5 0 .5h8.9c.2 0 .1-.6-.1-.6zm-15.7-8.8l3.3-9.8 3.2 9.8h-6.5zm11.5 8.2h-.4c-.1 0-.1 0-.2-.1l-6.4-19.3v-.2l.4-.2h.1l6.5 19.8c.1-.1.1 0 0 0zM184.5 13h-6.8c-.2 0-.2.5 0 .5.5 0 1.6.4 1.6 1.7V18c0 3.8-2.2 4.2-3.9 4.2-6.3 0-8.8-5.5-8.8-10.1 0-6.7 4.4-10.3 8.9-10.3H176.1c3.6.2 6.3 4.5 7.1 6.1.2.3.5.2.5 0s-1.9-6.1-2.1-6.7c-.4-1.3-.4.2-1.4 0-1.3-.1-2.1-.4-3.1-.6-.3 0-.7-.1-1.2-.1h-1.4c-7.6 0-12.2 5.5-12.2 11.6s4.5 11.4 12.6 11.4c.4 0 .8 0 1.2-.1 2.7-.3 4.1-1.6 5.2-2.3l2.1 2.3v-2.6V15.3c0-1.3.6-1.7 1.2-1.7.1-.1.1-.6-.1-.6zm-20.6-1c0-5.6 4.1-9.1 6.2-9.6-1.8 1-5.3 4.2-5.3 9.6s2.9 8.3 5.6 9.9c-3-1.1-6.5-4.4-6.5-9.9zm17.8 7.2c0 .1 0 .1-.1 0l-.4-.2c-.1 0-.1-.1-.1-.2v-4.4c0-.1 0-.1.1-.1h.4c.1 0 .1 0 .1.1v4.8zM207.1 22.4c-.7 0-1.9-.1-2.6-2l-6.1-17.2c-.6-1.8-.8-2.5-1-2.9-.1-.2-.3-.2-.6-.1-1 .4-2.8 1.2-3.6 1.5-.4.1-.3.4.1.4s.6.1.7.3l-.3.9-5.2 14.2c-1.8 4.9-2.7 4.8-4.2 4.8-.2 0-.2.5 0 .5h6.4c.2 0 .2-.5 0-.5-1.2 0-2.3-.2-1.1-3.7l1.3-3.8h7.4l1.9 5.8c.5 1.4-1 1.8-2 1.8-.2 0-.2.5 0 .5h9c.1.1.1-.5-.1-.5zm-15.7-8.8l3.3-9.8 3.2 9.8h-6.5zm11.5 8.2h-.4c-.1 0-.1 0-.2-.1l-6.4-19.3v-.2l.4-.2h.1l6.5 19.8c.1-.1.1 0 0 0zM225 17.2c-.6 1.2-4.2 4.5-8.9 4.5H213L225.6 1h-12.3c-1.4 0-2.8-.1-2.8-.1s-2.2 5.1-2.4 5.5c-.1.3.2.4.3.1.6-1 3.2-4.3 8.5-4.3h3.1L207.6 23h15.2s2.4-5.3 2.5-5.6c.1-.3-.1-.4-.3-.2zm-14.2 4.6h-.4c-.1 0-.1 0 0-.1L222 2.3c0-.1.1-.1.2-.1h.4c.1 0 .1 0 0 .1l-11.7 19.4c.1 0 0 .1-.1.1zM235.5 22.4c-.7 0-1.9-.7-1.9-1.8V3.2c0-1.1 1.2-1.7 1.8-1.7.2 0 .2-.5 0-.5h-7.8c-.2 0-.2.5 0 .5.5 0 1.8.7 1.8 1.7v17.4c0 1.1-1.1 1.8-1.8 1.8-.2 0-.2.5 0 .5h7.9c.3.1.2-.5 0-.5zm-3.6-.7c0 .1 0 .1-.1.1h-.4c-.1 0-.1 0-.1-.1V2.3c0-.1 0-.1.1-.1h.4c.1 0 .1 0 .1.1v19.4zM260.4 1h-6.7c-.2 0-.2.5 0 .5 1.6 0 2.6.7 2.6 4.4v10.4L243.5 1h-6.1c-.2 0-.2.5 0 .5 1.1 0 3.4 1.2 3.4 3.1V17c0 4.6-.7 5.5-2.4 5.5-.2 0-.2.5 0 .5h6.4c.2 0 .2-.5 0-.5-1.8 0-2.5-.9-2.5-5.5V5.7l15.4 18V5.9c0-3.6 1.1-4.4 2.6-4.4.3 0 .3-.5.1-.5zm-4 18.3c0 .2-.2.1-.2 0l-14.6-17v-.1h.5c.1 0 .2.1.3.2l13.9 16.4c.2 0 .1.5.1.5z"/></g><path fill="#FFF" d="M108.4 21.9c.7-.4.5-1.3.5-1.3s-.4.2-.9.3c-.3 0-.6.6-.4 1-.2.1-.2.3-.2.3-.4.1-.8.1-.8.1.6-1.3.6-1.3.4-2.1-.1-.5-.2-.7-.4-.6-.4.1-.4-.7 0-1.2 0 0 1.2 1 2.5 0 1.2-1 .9-2.7-.6-4.2-1.4-1.5-1.6-2.1-1.5-3 .9 0 1.1-.7 1-.8.6-.3.3-.9.3-.9.2-.3.1-1 .1-1-.6 0-1 .2-1 .2-.4-.3-.8.3-.8.3-.8 0-.5 1.5-.5 1.5s-.3.9-.1 1.6c.6 1.9 1.7 2.5 2.5 3.7.3.5.3 1.5-.3 1.7-.6.2-1.1-.2-1.4-1.5-.3-1.3-.4-1.3-1.2-2.3s-.8-1.5-.8-2.6c0-1-.1-2.1-.1-2.1.1 0 .2-.1.2-.1-.3-.4-.3-.9-.3-.9.1 0 .2-.1.2-.1-.4-.4-.2-.5-.4-.8.2 0 .2-.1.2-.1-.4-.3-.4-.6-.8-1.1.1 0 .2-.1.2-.1-.3-.4-.5-.8-1.2-.7l-.2-.2s.5 0 .8-.4-.2-.7-.2-.7-.1.1-.2.1 0-.2-.2-.3c-.2-.1-.1-.4.2-.3.2 0 0 .4.2.4s.2-.3.4-.2c.1 0 .1 0 .4-.5.1-.3-.1-.2 0-.6.1-.2.1-.6-.9-.8 0-.9-.9-.6-1.2-.6-.1-.6-.7-.7-1.5-.6v.1c-.5 0-.8.1-.8.1v.2c-.5 0-.7.3-1 .3v.1c-.5.3-.4.6-.9.9l.2.2-.1.2c-.5 0-.8.2-.8.2-.8-.2-1 .3-1 .3-.6.1-.8.8-.7 1.1-.6.2-.5.9-.5.9-.3.1-.5.6 0 .9 0 0-.2.6-.9.3s-.5-.7-.4-.9c.5.4.8 0 .7-.4.8-.2.6-.9.6-.9.8-.4.3-1.4.3-1.4.4-.3 0-.8 0-.8 0-.6-.4-1.1-.4-1.1-.6.1-.8.5-.8.5-.6 0-.8.6-.8.6-.7 0-.9.6-.8 1.1-.4.2-.5.8-.2 1.2-.3.4 0 .9.3.9 0 0-.1.6-.8.6-.7 0-1-.7-.8-1 .5.2.7-.2.6-.6.6-.5.1-1.1.1-1.1.4-.6 0-1-.3-1.4 0-.4-.3-.4-.3-.4-.2-.7-.8-1-.8-1s-.5.3-.8 1c0 0-.3 0-.3.4-.4.3-.7.8-.3 1.4 0 0-.5.7.1 1.1-.1.4.1.9.6.6.2.3-.1 1-.8 1-.7 0-.8-.6-.8-.6.4 0 .7-.5.3-.9.2-.4.1-1-.2-1.2.1-.5-.1-1.1-.8-1.1 0 0-.1-.6-.8-.6 0 0-.2-.4-.8-.5 0 0-.4.5-.4 1.1 0 0-.3.4 0 .8 0 0-.5.9.3 1.4 0 0-.2.7.5.9 0 .4.3.7.7.4.1.1.3.6-.4.9-.7.3-.9-.3-.9-.3.5-.3.3-.8 0-.9 0 0 .1-.6-.4-.8 0-.3-.1-1-.7-1.1 0 0-.1-.6-.7-.5 0 0-.3-.2-.8-.2l-.1-.2.2-.2c-.5-.2-.4-.6-.9-.9V1c-.3 0-.5-.4-1-.3V.5s-.3-.1-.8-.1L80 .1c-.8 0-1.3 0-1.5.6-.3 0-1.1-.3-1.2.6-1.1.1-1.1.5-.9.8.1.3-.1.3 0 .6.2.4.3.5.4.5.2 0 .2.3.4.2.2 0 0-.4.2-.4s.3.3.2.3c-.2.1 0 .3-.2.3l-.2-.1s-.4.5-.1.9c.2.3.8.4.8.4l-.2.2c-.7-.1-.8.2-1.2.7 0 0 .1.1.2.1-.4.5-.4.8-.8 1.1 0 0 0 .1.2.1-.2.3 0 .4-.4.8 0 0 0 .1.2.1 0 0 0 .5-.3.9 0 0 0 .1.2.1 0 0-.1 1.1-.1 2.1s-.1 1.5-.8 2.6c-.7 1-.9 1-1.2 2.3-.3 1.3-.8 1.7-1.4 1.5-.6-.2-.6-1.2-.3-1.7.7-1.2 1.8-1.8 2.5-3.7.2-.7-.1-1.6-.1-1.6s.2-1.5-.5-1.5c0 0-.3-.6-.7-.4 0 0-.3-.2-1-.2 0 0-.1.6.1 1 0 0-.3.6.3.9-.1.1 0 .8 1 .8 0 .9-.1 1.5-1.5 3s-1.8 3.2-.6 4.2c1.3 1 2.5 0 2.5 0 .3.5.3 1.3 0 1.2-.2 0-.3.1-.4.6-.2.8-.2.9.4 2.1 0 0-.4 0-.8-.1 0 0 0-.2-.2-.3.1-.4-.1-.9-.4-1-.5-.1-.9-.3-.9-.3s-.1.9.5 1.3c0 0-.8-.2-1.3.4.5.2.5.5 1 .7.5.1.8-.4.8-.4s.1.1 0 .4c-.1.2-.1.3.1.3 2 .6 4.1.4 4.1.4s-.4.2-.6.8c.9-.2 2.4.4 3.4-.9 0 0 1.1-.3 2.7-.6 0 0-.3.2-.5.5 0 0 1.3.6 3.1-.3.1 0 .2.1.1.1-.7.3-.9.7-.9.7s1.5.8 3-.2c0 0-.2.7.5 1 0 0 .7-.2 1.5-.4 0 0-.1.2.1.2 0 0 .6-.1 1.1-.6.5.5 1.1.6 1.1.6.1-.1.1-.2.1-.2.8.1 1.5.4 1.5.4.7-.2.5-1 .5-1 1.5 1 3 .2 3 .2s-.1-.4-.9-.7c-.1 0 0-.2.1-.1 1.7 1 3.1.3 3.1.3-.2-.3-.5-.5-.5-.5 1.5.2 2.7.6 2.7.6.9 1.4 2.5.7 3.4.9-.1-.5-.6-.8-.6-.8s2.1.1 4.1-.4c.2-.1.2-.1.1-.3-.2-.2 0-.4 0-.4s.2.5.8.4c.5-.1.5-.5 1-.7-.7-.4-1.5-.2-1.5-.2zm-36.6.8c-.3 0-.6-.3-.6-.3s.2-.2.6-.2c.5 0 .5.5 0 .5zm.4-1c-.5-.2-.5-.6-.5-.6s.1.1.4.1c.5.1.5.7.1.5zm.4.6c-.1.1-.3-.1-.3-.2 0 0 .4 0 .3.2zm30.7-16.7h-.3c-.1 0-.2.1 0 .2.5.3.7.7.7.7s-.3 0-.6-.3c-.1-.1-.2 0-.1.2.1.3.8.3.9 1 0 0-.4-.1-.7-.4-.1-.1-.2 0-.1.1.2.4.9.5 1 1.3 0 0-.3-.1-.5-.4-.1-.1-.2 0-.1.2s.5.4.6.8c0 .4.1 2.4.2 3 .1.6.2 1.2.9 2s.8 1 1 1.8c.5 1.8 1.1 2.2 1.9 2 .8-.2 1.1-1.5.5-2.4-.8-1.2-3.1-3-2.2-5 0 0-.3-.4 0-.9 0 0 .1 0 .1.2.2-.2 0-.4.3-.7 0 0 .1.1.1.3.2 0 .2-.7 1-.6.1.7-.3.5-.5.9h.3c-.1.5-.4.3-.6.5 0 0 .1 0 .2.1 0 0-.1.6-.9.3 0 0-.2.2-.1.9 0 .6.2 1.2 1.4 2.6.4.5 1.3 1.4 1.3 2.4 0 .9-.6 1.7-1.5 1.7-1.1 0-1.5-.8-1.7-1.5 0-.3-.4-.2-.3.1.1.5.3 1 .3 1l-.2.6c-.1.3-.1.5 0 .6.2.3 0 .6.4.6.2 0 .2 0 .3.3.2.6.1.6 0 1-.1.3-.3.9-.4 1-.1.3-.3 0-.6.1-.2.1-.5 0-.3-.2 0 0-.1-.1-.2 0 0 0-.2-.6-.6-.3 0 0-.2-.2-.4-.2 0 0 .2-.4 1.5 0 .2 0 .3-.2.1-.3 0 0 .2-.6.2-.8 0-.1.1-.1-.1-.3-1.4-1.2-1.5-1.1-1.7-1.8-.2-.7-.3-.8-.5-1.4-.6-1.4-.4-1.9-.8-2.4-.8-.9-1.1-1.5-1.1-1.5s-.1 0-.1.1c-.3-.2-.1-.4-.4-.7 0 0-.1 0-.1.2-.4-.3-.3-.8-.5-1.1 0 0-.1 0-.1.2 0 0-.1-.2-.1-.3s0-.1.1-.3c.2-.1.2-.1.3.1.2-.2.4-.5.7-.8 0 0 .1 0 .2.2 0 0 .2-.3.4-.9.2 0 .4 0 .3-.3 0-.6.2-.8.2-1.6 0-.3-.3-.2-.2 0 0 .6-.1.6-.2 1.2-.4-.5-.3.2-.5.9 0 0-.1 0-.1-.2-.1-.3-.2.1-.5.7-.1-.2-.1-.3-.4 0-.2.3-1.2 1.1-2.1 1.8-.3.2-.1.5-.3.8-.1.2-.3.4-.3.4s-.1-.2-.3-.2c0 0 0-.4-.3-.6 0 0 .4-.6-.1-1 .3-.1.4-.1.1-.5 0 0 .3-.3 0-.7.3-.2.4.1.4.4 0 .4.2.8.5.6.2-.2 1.4-1.4 1.7-1.9.3-.5.1-.9.9-1.9.1-.2 0-.3-.1-.2-.4.8-.6.9-.6.9s0-.5.3-.9c.1-.2 0-.3-.2 0 0 0 0-.4.6-.9.2-.1 0-.2-.2-.1 0 0 .1-.3.5-.4.4-.1.5 0 .5.1s.1.1.1 0 .1-.3.4-.2c.3 0 .2.2.2.3 0 .1 0 .1.1 0 .3-.7.8-.8 1.1-.3zm1.4 16.8c-.1.2-.4.3-.4.3 0-.2.1-.4.1-.4.3 0 .3.1.3.1zm-1.1-1.2s-1.1 0-1.6 1.3h-.5s.2-.1.4-.6c.1-.5.3-1.1.4-1.4.1-.5-.4-.3-.2-.7.2-.8.2-.8.4-.9.2-.1.3 0 .7-.6l.2.8c0 .4.4.7 1.8 1.8 0 0 0 .4-.2.7-1.4-.2-1.3.1-1.9 1.2h-.5c.1-.1 1-.6 1-1.6zm-1.4 1.4c.1-.4.6-.9 1-1-.1.5-.5.9-1 1zm1.6-.3c.2 0 .2.1.2.1-.3.2-.5.4-.5.4 0-.4.3-.5.3-.5zm-7.4-8v2.9c0 2-.8 4.6-6.2 4.6S84 19.2 84 17.2v-2.9c.1 0 .2-.1.2-.1-.2-.2-.3-.4-.3-.4.5.1.7-.2.7-.2-.4-.4-.5-.7-.5-.7h.6c0-.6-.6-.7-.6-1.2.1 0 .3.1.3.1.4-.8-.5-.8-.3-1.5.2-.1.4-.3.4-.3h-.1c.3-.1.4-.3.4-.3.1.2.1.4.1.4.4 0 .5-.4.5-.4 0 .2.2.4.2.4.3-.1.4-.3.4-.3h8.4s.1.2.4.3l.2-.4s.1.3.5.4c0 0 0-.2.1-.4 0 0 .1.2.4.3h-.1s.1.2.4.3c.2.7-.7.7-.3 1.5 0 0 .1-.1.3-.1 0 .5-.7.5-.6 1.2 0 0 .3.1.6 0 0 0-.1.3-.5.7 0 0 .2.3.7.2 0 0-.1.2-.3.4 0-.1.1 0 .2.1zm-12.8-.9s0-.2.2-.3c0 0 .1.2.4.4 0 0-.3.1-.6-.1zm.1.7s-.3 0-.5-.2c0 0 0-.2.2-.2-.1.1.1.1.3.4zM80.8 8c1 .9.6 1.6.6 1.6s-.3-.3-.3-.6-.4-.8-.4-.8c.1-.1.1-.2.1-.2zm-.2-.8c.2 0 .2-.3.2-.3s.3.2.5.5c.3.4.1.5.2 1-.6-.4-.9-1.2-.9-1.2zm-.3-2.1s.4.3.4 1c0 .2-.2.4-.3 0l.1-.1c0-.1-.4-.5-.2-.9zm-.8-1.2s.1.1.4.3c.4.2.1.7.1.7s0-.1-.4-.3c-.3-.2-.2-.6-.1-.7zm-.1.9h-.2.2c-.1-.1-.1-.1 0 0zm.4-2.7c-.5 0-.6-.3-.4-.5s.4-.1.4.1v.4zm-.2 1.6c-.2-.1-.1-.8.3-.4.3.2.2.7.2.7s-.2-.2-.5-.3zm.1-.9c-.2-.3 0-.6.3-.3.2.3.1.6.1.6s-.2-.1-.4-.3zm.4-.6s-.2-.2-.1-.6c0 0 .6 0 .8.6 0 0-.3-.1-.7 0zm.3.9c.4.3.8.5.7 1.2-.5-.4-.7-.5-.7-1.2zm.6 2.4c-.4-.6-.8-.7-.6-1.3 0-.1.8.3.6 1.3zm-.7-3c.6-.1.9.3.9.8 0-.1-.8-.2-.9-.8zm.6 4.2s0-.2.1-.5c1 .6.8 1.5.8 1.5-.3-.3-.3-.6-.9-1zm.6-3.4s1.1.3.9 1.4c-.3-.6-1-.5-1.1-1.1h.3s-.1-.1-.1-.3zm0 1c.8.3.7 1.3.7 1.3-.3-.4-.8-.4-.9-.9.1 0 .2-.1.2-.1-.1-.1 0-.3 0-.3zm-.1 1c.4.4.7.5.6 1.4 0 0-.4-.3-.7-.7 0-.1.1-.3.1-.7zm.4 4s.2 0 .6.1c0 0 .1.5.8.5 0 .2 0 .2-.2.3-.2 0-.3.2-.4.7 0 .1-.1.1-.2 0l-.7-.8s.2-.4.1-.8zm1.3.3c-.4-.1-.3-.6-.2-.7.1-.1.1-.3-.1-.2-.4.1-.2.4-.4.3-.2 0-.4-.1-.4-.1.1-.2.1-.5.1-.5h.2c-.2-.4 0-.5 0-.5s.3.3.6.5c.2.1.3 0 .3 0 .2-.5.7-.2.7-.2.5-.3.8 0 .8 0 .5-.2.9 0 .9 0l.2.4c-.3-.1-.6 0-.6 0-.2-.1-.6 0-.6 0-.4-.2-.7.1-.7.1-.1-.2-.3-.3-.2 0 0 .2.1.4-.1.4-.1 0-.2 0-.1.2-.3 0-.4.3-.4.3zm15.9-6c-.1.5-.8.4-1.1 1.1-.2-1.1.9-1.4.9-1.4 0 .2-.1.3-.1.3.1.1.3 0 .3 0zm1.5-1.9c0-.2.3-.3.4-.1.1.2 0 .5-.4.5v-.4zm.2 2.9c-.4.2-.4.3-.4.3s-.2-.5.1-.7c.2-.1.4-.3.4-.3.1.1.2.5-.1.7zm.3.1l.1.1c-.1 0-.2 0-.1-.1zm-.8-.7s0-.5.2-.7c.4-.4.5.3.3.4-.3.1-.5.3-.5.3zm.4-1.2c-.1.2-.4.3-.4.3s-.1-.3.1-.6.5 0 .3.3zm-.4-.6h-.6c.2-.6.8-.6.8-.6-.1.4-.2.6-.2.6zm-.3 3.9c-.1.4-.4.3-.3 0 0-.7.4-1 .4-1 .2.5-.2.9-.1 1zm-.3 2.1s-.4.5-.4.8c0 .3-.3.6-.3.6s-.4-.7.6-1.6c0 0 0 .1.1.2zm-.9.3c.1-.4 0-.5.2-1 .2-.3.5-.5.5-.5s0 .2.2.3c.1-.1-.2.7-.9 1.2zm.6-3c-.1-1 .6-1.3.6-1.3.3.6-.2.7-.6 1.3zm.7-3c-.1.6-.9.8-.9.8 0-.6.3-1 .9-.8zm-.1.6c0 .6-.1.8-.7 1.2-.2-.7.3-.8.7-1.2zm-.7 3.1c.1.2.1.5.1.5-.6.4-.6.7-.9 1 .1 0-.2-.9.8-1.5zm-.6 3.9l-.7.8c-.1.1-.2.1-.2 0 0-.5-.2-.7-.4-.7s-.2 0-.2-.3c.7 0 .8-.5.8-.5.3 0 .6-.1.6-.1-.1.4.1.8.1.8zm.4-4.2c-.3.4-.7.7-.7.7-.1-.8.2-.9.6-1.4 0 .5.1.7.1.7zm-.9-.3s-.1-1 .7-1.3c0 0 .1.2 0 .3 0 0 .1.1.2.1-.1.5-.7.5-.9.9zM98 7.8s.2.1 0 .5h.2s0 .2.1.5c0 0-.1 0-.4.1s-.1-.2-.4-.3c-.2-.1-.2.1-.1.2s.2.6-.2.7c0 0-.1-.2-.3-.3.1-.1 0-.2-.1-.2s-.1-.2-.1-.4c.1-.3-.1-.1-.2 0 0 0-.2-.3-.7-.1 0 0-.4-.1-.6 0 0 0-.3-.1-.6 0l.2-.4s.3-.3.9 0c0 0 .3-.3.8 0 0 0 .4-.2.7.2 0 0 .1.1.3 0 .2-.1.5-.5.5-.5zm-1.8 3.5c0-.3.3-.5.3-.5.2 0 .2.2.2.2-.3.1-.5.3-.5.3zm.4 1.1c-.3.2-.6.1-.6.1.2-.3.5-.4.5-.4.2.1.1.3.1.3zm-.3-2.6c.3-.1.4-.3.4-.3.3 0 .3.2.3.2-.4.3-.7.1-.7.1zm-.1-.4c-.5-.1-.3-.6-.3-.6.2-.1.4 0 .4 0-.2.3-.1.6-.1.6zm-.6-.6c-.1.2-.1.7-.1.7-.4-.3-.2-.6-.2-.6.1-.2.3-.1.3-.1zm-.7 0l-.2.6c-.2-.3-.1-.6-.1-.6.2-.1.3 0 .3 0zm-4.8-.6c-2.4 0-3.7.5-4 .6-.2.1-.3-.1-.1-.2.3 0 1.8-.6 4.1-.6s3.9.6 4.1.7c.2.1.1.3-.1.2-.3-.1-1.6-.7-4-.7zm2.9.7h-5.6s.6-.4 2.8-.4c2.2 0 2.8.4 2.8.4zm-7.1-.8c.1 0 .2.1.2.2v.1l-.2-.3zm.5 0c0-.1.1-.2.2-.2s.2.1.2.2-.1.2-.2.2-.2-.1-.2-.2zm.7-.2c0-.1.1-.2.2-.2s.2.1.2.2-.1.2-.2.2-.2-.1-.2-.2zm.7-.2c0-.1.1-.2.2-.2s.2.1.2.2-.1.2-.2.2-.2-.1-.2-.2zm.7-.1c0-.1.1-.2.2-.2s.2.1.2.2-.1.2-.2.2-.2-.1-.2-.2zm.7-.1c0-.1.1-.2.2-.2s.2.1.2.2-.1.2-.2.2-.2 0-.2-.2zm.7 0c0-.1.1-.2.2-.2s.2.1.2.2-.1.2-.2.2-.2-.1-.2-.2zm.7 0c0-.1.1-.2.2-.2s.2.1.2.2-.1.2-.2.2-.2 0-.2-.2zm.8.1c0-.1.1-.2.2-.2s.2.1.2.2-.1.2-.2.2-.2-.1-.2-.2zm.7.1c0-.1.1-.2.2-.2s.2.1.2.2-.1.2-.2.2-.2-.1-.2-.2zm.7.2c0-.1.1-.2.2-.2s.2.1.2.2-.1.2-.2.2-.2-.1-.2-.2zm.7.2c0-.1.1-.2.2-.2s.2.1.2.2-.1.2-.2.2-.2-.1-.2-.2zm.7.3v-.1c0-.1.1-.2.2-.2l-.2.3zm-4.1-1.3c-2.2 0-4.3.8-4.3.8l-.3-.5s.6.3 1.3.1c.7-.2.9-.7.9-.7s.5.4 1.3.3c.6-.1 1.1-.6 1.1-.6s.5.5 1.1.6c.8.1 1.3-.3 1.3-.3s.1.5.9.7c.7.2 1.3-.1 1.3-.1l-.3.5c.1 0-2.1-.8-4.3-.8zm4.8 0c-.5.3-1.8.4-2.2-.7 0 0-.5.5-1.3.4-.7-.1-1.2-.7-1.2-.7s-.5.6-1.2.7c-.8.1-1.3-.4-1.3-.4-.4 1.1-1.7 1-2.2.7-.1-.1-.1-.2 0-.1.1 0 .5.3 1.1.1.7-.1 1-.9 1-.9s.6.6 1.5.5c.7-.1 1.1-.9 1.1-.9s.4.7 1.1.9c.9.2 1.5-.5 1.5-.5s.2.8 1 .9c.5.2.9-.1 1-.1s.3.1.1.1zm-9.3 2.4s0-.3-.2-.6c0 0 .1-.1.3 0 0-.1.1.3-.1.6zm-.7 0s0-.4-.1-.7h.3s.2.3-.2.7zm-.9-.7s.2-.2.4 0c0 0 .1.5-.3.6 0 0 .1-.3-.1-.6zm-.4.6s.1.2.4.3c0 0-.3.2-.6-.1-.1 0-.1-.1.2-.2zm.2 1.4s.3.2.3.5c0 0-.2-.2-.4-.3-.1 0-.1-.2.1-.2zm0 1.3s.3.1.5.4c0 0-.3.1-.6-.1 0 0-.1-.2.1-.3zm12.3 1.4l.4-.4c.3.1.2.3.2.3-.3.2-.6.1-.6.1zm.9.3c.1 0 .2.2.2.2-.2.2-.5.2-.5.2.1-.4.3-.4.3-.4zm5.6-9.9c-.1 0-.3-.1-.1-.2.1.1.1.2.1.2zm-.5-2.7c.3 0 .4.1.3.4 0 .1 0 .2.3.2.8 0 .9.1.7.3-.1.1-.2.2 0 .3.2.1 0 .5-.2.5-.6-.2-.8-.2-1.1.3s-.3 1 .8.9c0 0 0 .3-.7.2-.7 0-.8-1.1 0-2 .2-.2.1-.3 0-.4 0-.2 0-.5-.5-.2-.4.2-.4.3-.1.3s.4.2.4.2-.4.4-.6 1.1c-.2 1 .3 1.3.3 1.3s-.3.2-.7-.2c0 0 .1-.4 0-.7 0 0 .1-.4-.2-.8 0 0 .2-.2 0-.7 0 0 .4-.2.2-.7.2 0 .6-.3 1.1-.3zm-.7-.4l-.2.1c-.2-.2-.3-.4-.3-.4.3-.1.5.3.5.3zm-.4.3c-.4.2-.9-.2-.9-.4.5-.3.6.2.9.4zm-.8.2s-.4.3-1.1-.2c0-.1.7-.5 1.1.2zm-.6.2c-.2.5-.9.1-1.3.2.4-.8 1-.1 1.3-.2zm-.4.5c-.2.5-.8.3-1.2.5.2-.6.7-.4 1.2-.5zm-.2.5c0 .5-.8.6-1.2 1 0-1 1.2-1 1.2-1zm-1.5 2.8h.2v1h.2c.1.4-.2.6 0 1 0 0-.1.2-.5.4 0 0-.4-.4-.9-.2 0 0-.5-.3-.9 0 0 0-.1-.1-.4 0 0 0 .3-.4.2-1 0 0 .6-.6 1.1-1.3s.6-1.3.9-1.6c0 0 .1.2 0 .4 0 0 0 .1.2.1-.3.8-.1.9-.1 1.2zm-1.4-1.5c.1.1.1.4 0 .5-.1-.1-.2-.4 0-.5zm-.6.7c.1 0 .2 0 .1-.2s-.1-.7.3-.9c0 0-.3.8.1 1.3 0 0 .3 0 .3-.5 0-.6-.2-1.2.2-1.4 0 0-.1.2 0 .5 0 .1.1.1.1-.1s.2-.6.7-.5l-.6 1c-.2.5-.3.9-1 1.9 0 0-.1-.7-.6-.7-.1-.2.1-.4.4-.4zm-1.5.7c-.1.2-.3 0-.2 0 .1-.1 0-.3-.2-.1-.5.4-.5 1.3.2 1.6.7.2 1.4-.3 1.4-1 0-.1-.2-.2-.2 0s-.4.1-.2-.1c.1-.4.7-.1.7.3-.1.7-.9 1.3-1.7 1.1-.8-.2-1-1.3-.3-2 .2-.4.7-.1.5.2zm-.7-2.7c.1.1.1.3 0 .6-.1-.3-.1-.5 0-.6zm-.6.8c-.2-.4-.1-.9.2-1 0 0-.1.8.3 1.2 0 0 .4-.6 0-1.4 0 0 0-.4.3-.5 0 0 0 .3.1.5 0 0 .1 0 0-.2 0-.2.2-.7.6-.7 0 0 .5.6 0 1-.1 0 0 .2.1.1.2-.1.3-.2.3-.2s.2.3-.1.5c-1.1.4-1 1-1 1s.7.1 1.1-.6c.1.4 0 .8-.4.9-.1 0-.1.1 0 .2.2.1.2.6-.2.6 0 0-.4-.5-1.1-.1 0 0-.1-.6-.7-.6-.1-.1 0-.8.5-.7zm2-.4c0 .2-.4.4-.7.5.1-.2.5-.5.7-.5zm-3.5 1.7c-.1.1-.3 0-.2-.1.1-.2 0-.3-.2-.1-.4.5-.2 1.5.5 1.7.7.2 1.2-.3 1.3-.6.1-.3.1-.8-.1-.8-.1 0 0 .2-.1.2-.2.1-.3-.3 0-.4.3-.1.5.1.5.3.2.6-.3 1.8-1.5 1.6-1.1-.2-1.2-1.5-.8-2 .3-.6.8-.2.6.2zm-2-1.4c.1 0 .1-.1 0-.1-.4-.2-.2-.8 0-1-.1 1 .7 1.1.7 1.1s.2-.5-.3-1c-.2-.2-.3-.4-.2-.5.1 0 .2.1.3.1.1.1.2 0 .1 0-.4-.5.3-1 .3-1s.7.4.3 1c-.1.1 0 .1.1 0s.2-.2.3-.1c.1.1.1.3-.2.5-.5.5-.3 1-.3 1s.8-.2.7-1.2c.3.2.5.7 0 1 0 0-.1.1 0 .1.3 0 .4.5.1.7-.3-.2-.8-.2-1.2.4-.3-.6-.8-.6-1.2-.4 0-.1.1-.6.5-.6zm.3-.9c.1 0 .4.2.3.5-.3 0-.4-.4-.3-.5zm1 .5c0-.2.2-.5.3-.5.1.1 0 .5-.3.5zm-2.6 2.1c-.1 0 0-.2-.1-.2-.2 0-.2.5-.1.8.1.3.6.8 1.3.6.7-.2.9-1.2.5-1.7-.1-.2-.3-.1-.2.1 0 .1-.1.2-.2.1-.2-.4.2-.8.7-.2.3.5.3 1.8-.8 2-1.2.2-1.7-1-1.5-1.6 0-.2.2-.4.5-.3.3 0 .1.5-.1.4zM87 2.5c.1.1.1.4 0 .6-.1-.3-.1-.5 0-.6zm-.9 2.3c-.4 0-.4-.5-.2-.6.1-.1.1-.2 0-.2-.4-.1-.5-.4-.4-.9.5.7 1.1.6 1.1.6s0-.5-1-1c-.3-.1-.1-.5-.1-.5s.1.1.3.2c.1 0 .1-.1.1-.1-.5-.4 0-1 0-1 .4.1.7.5.6.7v.2c.1-.2.1-.5.1-.5.3.1.3.5.3.5-.4.8 0 1.4 0 1.4.5-.4.3-1.2.3-1.2.4 0 .5.6.2 1 .5 0 .6.6.3.9-.6 0-.7.6-.7.6-.5-.7-.9-.1-.9-.1zm-.5-1.9c.2 0 .6.2.7.5-.3 0-.7-.3-.7-.5zm-.1 2.6c.1.2-.2.3-.2.1 0-.2-.2-.1-.2 0 0 .7.7 1.3 1.4 1s.7-1.1.2-1.6c-.2-.1-.3 0-.2.1.1.1-.1.2-.2 0-.1-.3.3-.6.6-.3.7.7.5 1.7-.3 2-.8.2-1.6-.3-1.7-1.1-.1-.4.5-.6.6-.2zm-1.3-1.7c.1.1.1.4 0 .5-.1-.1 0-.4 0-.5zm-.6-.5c0 .2.1.2.1.1v-.5c.5.1.3.7.3 1.3 0 .5.3.5.3.5.5-.5.1-1.3.1-1.3.4.2.4.7.3.9-.1.1 0 .2.1.2.2 0 .4.1.3.4-.5 0-.6.7-.6.7-.7-1-.7-1.4-1-1.9-.2-.5-.6-1-.6-1 .5 0 .7.4.7.6zm-1 2.1h.2c0-.3.1-.5 0-1 .1 0 .2-.1.2-.1-.1-.2 0-.4 0-.4.3.3.4.9.9 1.6.5.6 1.1 1.2 1.1 1.2-.1.5.2 1 .2 1h-.4c-.4-.3-.9 0-.9 0-.4-.1-.9.3-.9.3-.3-.2-.5-.4-.5-.4.2-.4-.1-.6 0-1h.2c-.1-.7 0-.9-.1-1.2zm-.1-1.8c-.4-.4-1.2-.5-1.2-1 0-.1 1.2-.1 1.2 1zm-.2-1.1c-.4-.3-1 0-1.2-.5.5.1 1-.1 1.2.5zm-.3-.8c-.4-.1-1.1.2-1.3-.2.3.1.9-.6 1.3.2zm-.8-.7c-.6.5-1.1.2-1.1.2.4-.6 1.1-.2 1.1-.2zm-1-.3c0 .2-.5.6-.9.4.3-.2.4-.7.9-.4zm-.8-.2s0 .2-.3.4l-.2-.1c-.1 0 .1-.4.5-.3zm-1.5 3.1c.2.1 0 .3-.1.2-.1.1-.1 0 .1-.2zm-.5.6c1.1.1 1-.3.8-.9-.2-.5-.4-.6-1.1-.3-.2.1-.4-.3-.2-.5.1-.1.1-.2 0-.3-.1-.1 0-.3.7-.3.3 0 .3-.1.3-.2 0-.2 0-.4.3-.4.5 0 1 .3 1 .3-.2.4.2.6.2.6-.1.5 0 .7 0 .7-.3.4-.2.8-.2.8-.2.3 0 .7 0 .7-.3.5-.7.2-.7.2s.6-.3.3-1.3c-.2-.7-.6-1.1-.6-1.1s.3-.2.5-.2.3-.1-.1-.3c-.5-.2-.5 0-.5.2-.1.1-.1.2 0 .4.8.9.7 2 0 2-.7.2-.7-.1-.7-.1zm-3.7 17.2c-.1-.3-.1-.4 0-1 .1-.3.1-.4.3-.3.3 0 .2-.3.4-.6.1-.1.1-.3 0-.6l-.2-.6s.2-.5.3-1c0-.3-.3-.4-.3-.1-.1.7-.6 1.5-1.7 1.5-.8 0-1.5-.8-1.5-1.7 0-1 .9-1.9 1.3-2.4 1.2-1.4 1.4-2 1.4-2.6 0-.7-.1-.9-.1-.9-.7.2-.9-.3-.9-.3.1-.1.2-.1.2-.1-.1-.2-.5 0-.6-.5.1-.1.3 0 .3 0-.1-.4-.6-.2-.5-.9.8 0 .7.6 1 .6 0-.1.1-.3.1-.3.3.2.1.5.3.7 0-.1.1-.2.1-.2.3.4 0 .9 0 .9.8 2-1.4 3.8-2.2 5-.6.9-.3 2.2.5 2.4.8.2 1.4-.2 1.9-2 .2-.8.3-1 1-1.8s.8-1.5.9-2c.1-.5.2-2.5.2-3 0-.4.4-.6.6-.8.1-.2 0-.3-.1-.2-.3.3-.5.4-.5.4 0-.8.7-.8 1-1.3.4-.7.3-.8.1-.7-.3.2-.7.4-.7.4.1-.7.7-.7.9-1 .1-.1 0-.3-.1-.2-.3.2-.6.3-.6.3s.1-.4.7-.7c.2-.1.1-.2 0-.2h-.3c.3-.4.7-.3.9-.1.1.1.1 0 .1 0 0-.1 0-.3.2-.3.3 0 .4.1.4.2s.1.1.1 0 .1-.2.5-.1.5.4.5.4c-.3-.1-.4 0-.2.1.6.5.6.9.6.9-.2-.2-.4-.1-.2 0 .3.4.3.9.3.9s0-.2-.1-.2c-.1-.1-.3 0-.1.2.8.9.6 1.4.9 1.9.3.5 1.4 1.7 1.7 1.9s.4-.2.5-.6c0-.3.1-.6.4-.4-.3.4 0 .7 0 .7-.3.5-.1.4.1.5-.5.4-.1 1-.1 1-.3.1-.3.6-.3.6-.2 0-.3.2-.3.2s-.2-.1-.3-.4c-.1-.3.1-.5-.3-.8-.9-.7-1.9-1.5-2.1-1.8-.2-.3-.3-.1-.4 0-.3-.6-.4-1.1-.5-.7 0 .1-.1.2-.1.2-.1-.7-.1-1.4-.5-.9 0-.5-.2-.5-.2-1.2 0-.2-.2-.3-.2 0 0 .8.3.9.2 1.6 0 .3.1.4.3.3.1.5.4.9.4.9l.2-.2c.3.3.4.6.6.8 0-.1.1-.2.3-.1.2.1.1.2.1.3 0 .1-.1.3-.1.3 0-.1-.1-.2-.1-.2-.1.2 0 .7-.5 1.1 0-.2-.1-.2-.1-.2-.3.2-.1.4-.4.7 0-.1-.1-.1-.1-.1s-.3.5-1.1 1.5c-.4.4-.2.9-.8 2.4-.2.5-.3.7-.5 1.4s-.3.6-1.7 1.8c-.2.2-.1.2-.1.3 0 .1.2.8.2.8-.2.1-.1.4.1.3 1.2-.4 1.5 0 1.5 0-.2 0-.4.2-.4.2-.5-.2-.6.3-.6.3-.1-.1-.2 0-.2 0 .2.2-.1.3-.3.2-.3-.1-.4.1-.6-.1-.4.2-.7-.3-.8-.7zm4.3-1c.1.3.2.9.4 1.4.1.5.4.6.4.6-.2.1-.5 0-.5 0-.4-1.4-1.6-1.3-1.6-1.3 0 1 .9 1.4.9 1.4h-.5c-.5-1-.4-1.5-1.9-1.2-.1-.3-.2-.7-.2-.7 1.4-1.1 1.7-1.4 1.8-1.8 0-.4.2-.8.2-.8.3.5.4.5.7.6.2.1.2.1.4.9.3.6-.2.4-.1.9zm.1 2.2c-.4-.1-.9-.5-1-1 .4.1.9.6 1 1zm-1.3.2s-.1-.1-.5-.4c0 0 0-.1.2-.1.1 0 .3.1.3.5zm-.8-.1s-.2-.1-.4-.3c0 0 0-.1.2-.1.1 0 .3.2.2.4zm.9 1.4c.2-.3 1.6-.8 2-.5-.1.2-.8.6-2 .5zm.2-.8c-3.1.1-4.3-.4-4.3-.4l.1-.2c.7.1.9.1 1.2.2.3.1.3-.1.9 0 .2 0 .3 0 .4-.1.1 0 .4.1.5.2.1.1.3.1.2 0v-.2s.2 0 .5.3c.2.1.1 0 .3-.1 1.3 0 2-.1 2-.1.5.1.7-.2.7-.2.2.1.3.1.3.1.2.1.6.1.6.1s-.9.3-3.4.4zm3.3-1.1s0-.1.2-.1c0 0 .3.2.3.4 0 0-.4 0-.5-.3zm.4-.3c-.5-.1-.7.1-.6.5-.6-.2-.5.1-.5.1s-.1.1-.3 0c-.1 0-.4-.4-.6-.7-.1-.3-.2-.9-.3-1.3-.1-.4.3-.2.2-.7 0-.3-.2-.8-.3-1.2-.1-.3-.3-.2-.6-.4-.2-.2-.4-.5-.4-.5s.3-.5.6-1.8c.1-.7.4-.8.4-.8s.2.5.8 1.2c.2.2.3.3.3.8s.2 1.1.3 1.7c0 .3.1.4-.2.9-.3.5-.3.6 0 1.7.1.3.2.4.4.3.5-.1.8-.1 1 0-.2 0-.2.2-.2.2zm.2.9s.1-.1.1-.3c0 0 .3 0 .5.2.1 0-.3.1-.6.1zm0-.8s0-.2.2-.2c0 0 .3.2.3.6.2 0-.1-.2-.5-.4zm-.9-.8c-.2 0-.2 0-.3-.5s0-.5.2-.9c.2-.3.3-.5.2-.8 0-.3-.2-1.5-.3-2.1-.1-.6-.1-.7-.8-1.5-.3-.4-.5-.8-.5-.8l.3-.4c0 .1.2.1.2.1.1-.2.1-.5.4-.6h.2c.2-.3 0-.3.5-.9.1 0 .1.1.1.1.2-.2 0-.4.4-1.1.3.2.7.6 1 .8.3.2.3.2.4.8.2.7.6.7.6.7.1.1.4.3.4.3l.1 3c.1 3.8 2.7 4.8 6 5.1-.1.2 0 .4 0 .4s-.6-.1-1.1.2c-.2.1-.3.1-.3.1-.7-1.2-1.8-1.3-1.8-1.3-.1.1 0 .4.1.7 0 0 0 .1.1.1l-.1-.1c-.7-1.2-1.8-1.5-1.8-1.5 0 .9.5 1.3.5 1.3l-.4-.1c-.3-1.5-1.3-1.7-1.3-1.7-.2.9.5 1.6.5 1.6h-.3c-.2-.5-.6-1-.6-1 1-1.7.1-2.9.1-2.9-.4.5-.5 1-.5 1-.1-.4-.2-.7-.2-.7 1.3-1.7.6-3.2.6-3.2-.5.3-.7 1-.7 1v-.5c.8-1.7-.4-2.8-.4-2.8-1 1.7.2 2.8.2 2.8v.4c-.4-1.1-1.2-1.3-1.2-1.3-.2 1.8 1.2 2.7 1.2 2.7v.6c-.4-.4-.9-.6-.9-.6-.1 2.1 1.4 2.7 1.4 2.7.1.2.1.4.1.4-.6-.4-1.2-.4-1.2-.4.1 1.2 1.1 1.7 1.1 1.7-.3 0-.5.1-.5.1-.5-1-.7-1.2-1.7-1zm7.3 1.9c-.4 0-.8-.4-.9-.8.2.1.7.3.9.8zm-1.7-.5c-.4 0-.9-.7-.9-1 .4.1.9.7.9 1zm-1.5-.5c-.4-.1-.7-.9-.7-1.1.4.1.6.7.7 1.1zm-1.1-.1c-.4-.1-1.2-.6-1.3-1.2.5 0 1.2.7 1.3 1.2zm-.3-3.2c.3.5 0 1.3-.1 1.4-.3-.4 0-1.2.1-1.4zm-.6.9c-.6-.3-.9-1.4-.9-1.6.6.4.8 1.3.9 1.6zm-.4-4.4c-.4-.4-.4-1.5-.2-1.8.5.4.4 1.4.2 1.8zm.7.6c.2.5-.1 1.6-.4 1.8-.3-.4.2-1.5.4-1.8zm-.8 1.1c-.6-.3-.8-1.3-.8-1.5.6.3.8 1.1.8 1.5zm.6 6.4c.2-.3 1.5-.7 1.9-.4-.1.2-.8.6-1.9.4zm2.4.5c.3-.3 1.3-.6 1.8-.2-.1.2-1.1.6-1.8.2zm0-1c-1.5-.5-2.8-.2-2.8-.2l.2-.3c1.2-.2 2 0 3.5.4 1.2.4 2.7.7 2.7.7l-.6.1c0 .2-1 0-3-.7zm3 1.6c-.2-.1-.2-.4-.2-.4.7-.2 1.5-.3 1.5-.3.2 0 .2.3.2.3s-.7.1-1.5.4zm1.8-.3c0-.8-1-.8-1-.8 1-.5 1.4.4 1.4.4l-.4.4zm.6-1.7c.7 0 .6.6 0 .9-.5-.3-.6-.9 0-.9zm.7 1.7l-.4-.4s.4-.9 1.4-.4c0 0-1 0-1 .8zm1.8.3c-.8-.3-1.5-.4-1.5-.4s0-.2.2-.3c0 0 .7.1 1.5.3.1 0 .1.3-.2.4zm3-.6c-.7.3-1.7 0-1.8-.2.5-.4 1.5-.1 1.8.2zm.4-.9c.4-.3 1.7.1 1.9.4-1 .2-1.7-.2-1.9-.4zm-.4-.1c-2 .7-3 .9-3 .9l-.6-.1s1.5-.3 2.7-.7c1.5-.5 2.3-.6 3.5-.4l.2.3c.1-.2-1.3-.6-2.8 0zm-2.7.2c.2-.5.6-.7.9-.8-.1.4-.5.8-.9.8zm1.7-.5c0-.3.5-.9.9-1-.1.3-.5.9-.9 1zm1.5-.5c0-.3.3-1 .7-1.1.1.2-.2.9-.7 1.1zm2.5-1.4c-.1.6-.9 1.1-1.3 1.2 0-.4.7-1.1 1.3-1.2zm-1.1-1.9c.1.1.4 1 .1 1.4-.2 0-.4-.9-.1-1.4zM98 22s1-.5 1.1-1.7c0 0-.5 0-1.2.4 0 0 0-.2.1-.4 0 0 1.5-.5 1.4-2.7 0 0-.5.2-.9.6v-.6s1.5-.8 1.2-2.7c0 0-.8.2-1.2 1.3v-.4s1.1-1.1.2-2.8c0 0-1.2 1.1-.4 2.8v.5s-.2-.6-.7-1c0 0-.7 1.4.6 3.2 0 0 0 .3-.2.7 0 0-.1-.5-.5-1 0 0-.9 1.2.1 2.9 0 0-.4.5-.6 1h-.3s.7-.6.5-1.6c0 0-1 .2-1.3 1.7l-.4.1s.6-.4.5-1.3c0 0-1.1.3-1.8 1.5 0 .1-.1.1-.1.1s0-.1.1-.1c.1-.2.3-.6.1-.7 0 0-1 .1-1.8 1.3 0 0-.1 0-.3-.1-.5-.3-1.1-.2-1.1-.2v-.4c3.2-.3 5.9-1.3 6-5.1l.1-3s.3-.1.4-.3c0 0 .4 0 .6-.7.1-.5.1-.6.4-.8s.7-.5 1-.8c.3.7.2.9.4 1.1 0 0 0-.1.1-.1.5.5.3.6.5.9 0 0 .1-.1.2 0 .2.1.2.4.4.6 0 0 .1 0 .2-.1l.3.4s-.2.4-.5.8c-.6.8-.7.9-.8 1.5-.1.6-.2 1.8-.3 2.1s.1.5.2.8c.2.4.3.4.2.9-.1.5-.1.5-.3.5-.9-.2-1.2 0-1.7.8 0 .2-.3.1-.5.1zm1.1-3.9c0 .2-.3 1.3-.9 1.6 0-.3.2-1.2.9-1.6zm-.9-.4c-.3-.1-.6-1.3-.4-1.8.2.3.7 1.4.4 1.8zm.5-4.2c.2.3.2 1.4-.2 1.8-.2-.4-.3-1.4.2-1.8zm-.1 3.5c0-.3.1-1.2.8-1.5 0 .2-.2 1.1-.8 1.5zm0 5.7c.2-.2.5-.2.5-.2 0 .1.1.3.1.3-.2 0-.6-.1-.6-.1zm0-.3c0-.3.3-.6.3-.6.2 0 .2.2.2.2-.2.2-.5.4-.5.4zm1.7-.8c.2 0 .3 0 .4-.3.3-1.1.2-1.1 0-1.7-.2-.4-.2-.5-.2-.9 0-.7.2-1.3.3-1.7 0-.5.1-.6.3-.8.6-.6.8-1.2.8-1.2s.3.1.4.8c.2 1.2.6 1.8.6 1.8s-.2.3-.4.5-.5.1-.6.4c-.1.3-.3.8-.3 1.2-.1.5.3.3.2.7s-.2.9-.3 1.3c-.1.3-.5.7-.6.7-.2.1-.3 0-.3 0s.1-.4-.5-.1c.1-.3 0-.6-.6-.5 0 0 0-.2-.2-.2.2-.1.5-.1 1 0zm-.4.6c-.1.2-.5.3-.5.3 0-.2.3-.4.3-.4.2 0 .2.1.2.1zm1.4 1.4c.4-.3 1.8.2 2 .5-1.1.1-1.8-.3-2-.5zm1.9-.3c-2.5-.1-3.9-.5-3.9-.5s.3 0 .6-.1c0 0 .1 0 .3-.1 0 0 .2.4.7.2 0 0 .7.1 2 .1.2.1.1.3.3.1.3-.2.5-.3.5-.3s.1.1 0 .2c0 .1.1.1.2 0s.3-.2.5-.2c.1.1.2.2.4.1.5-.2.6.1.9 0 .3-.1.5 0 1.2-.2l.1.2c.5.1-.7.7-3.8.5zm4.5-1c-.1-.2.3-.2.3-.2 0 .1-.2.4-.3.2zm.5-1.1c.2 0 .4-.1.4-.1s0 .4-.5.6c-.4.2-.4-.4.1-.5zm.3 1.5c-.4 0-.4-.5 0-.5s.6.2.6.2-.3.2-.6.3zm-16.2-7.1c-.4 0-.8.1-1.1.2l-.1-.1c-.1-.2-.2-.1-.2-.1s-.1-.2-.1-.4c0-.1-.2-.1-.3 0-.1.1-.2.1-.2.1l-1.8-1.7.5-.6.2.2-.4.4.7.7 2-2.1-1.2-1.1-.8.8.5.5.2-.2.1.1-.4.4-1.5-1.5.4-.4.1.1-.2.2.4.4.8-.8-1.2-1.1-2 2.1.7.7.4-.4.2.2-.5.8-1.3-1.3c-.2-.2-.5 0-.6.1s-.3.5-.1.6l3.8 3.7s0 .1-.1.2-.1.3 0 .3.4.1.4.1-.1.1.1.2h.1c-.2.3-.3.8-.3 1.2 0 1.5 1.2 2.7 2.8 2.7s2.8-1.2 2.8-2.7c0-1.3-1.2-2.5-2.8-2.5zm-6.5-3.2c-.1-.1-.1-.2 0-.3.1-.1.1-.2.3 0l1.4 1.3 1-1-.5-.6-.4.4-.3-.3 1.6-1.7.8.8-.4.4-.1-.1.2-.2-.4-.4-.7.7 1.9 1.8.7-.7-.5-.4H90l-.1-.1.4-.4.7.7-1.6 1.6-.3-.3.4-.4-.7-.6-1 1 2 2-.4.4-3.6-3.6zm4.1 4.2c-.1-.1-.1 0-.2-.1v-.2c.1-.1.3-.4.5-.5.1-.1.2-.2.3-.1s0 .1.1.2.2 0 .3.2c-.6.4-.9.9-.9.9-.2-.2 0-.3-.1-.4zm2.4 4.1c-1.3 0-2.4-1-2.4-2.3 0-1.3 1.1-2.3 2.4-2.3 1.3 0 2.4 1 2.4 2.3 0 1.3-1.1 2.3-2.4 2.3zm0-4.3c-1.1 0-2 .9-2 1.9 0 1.1.9 1.9 2 1.9s2-.9 2-1.9c0-1-.9-1.9-2-1.9zM90.7 19s-.3-.7 0-1.3c.3.7 0 1.3 0 1.3zm2.3-2.2c-.7.3-1.3 0-1.3 0s.6-.3 1.3 0zm-1.4 3.1s.6-.3 1.3 0c-.6.3-1.3 0-1.3 0zm1.9-.3c-.2.3-.6-.1-1.2-.1-.5 0-.9.3-1.2.1-.3-.2.1-.6.1-1.2 0-.5-.3-.9-.1-1.2.2-.3.6.1 1.2.1.5 0 .9-.3 1.2-.1.3.2-.1.6-.1 1.2 0 .5.4.9.1 1.2zm.4-1.9c.3.6 0 1.3 0 1.3s-.3-.6 0-1.3zm-1.6-.1c-.4 0-.8.3-.8.7s.3.7.8.7c.4 0 .8-.3.8-.7s-.4-.7-.8-.7zm0 1.2c-.2 0-.4-.2-.4-.4s.2-.4.4-.4.4.2.4.4c.1.2-.1.4-.4.4z"/></svg>