<?xml version="1.0" encoding="UTF-8"?>
<svg width="28px" height="23px" viewBox="0 0 28 23" version="1.1" xmlns="http://www.w3.org/2000/svg" xmlns:xlink="http://www.w3.org/1999/xlink">
    <title>Z+</title>
    <g>
        <polygon fill="#FFFFFF" points="21 12 21 9 20 9 20 12 17 12 17 13 20 13 20 16 21 16 21 13 24 13 24 12"></polygon>
        <path d="M15.7133477,15.0072949 C15.3025982,15.791192 12.9461,18.0000738 9.87654415,18.0000738 L7.78782982,18.0000738 L16.0399998,4.31968855 L8.2667425,4.31968855 C7.33547423,4.31968855 6.44713991,4.24361226 6.44713991,4.24361226 C6.44713991,4.24361226 5.00154953,7.56338574 4.87009198,7.85078505 C4.77847006,8.05321026 4.98473004,8.15242086 5.11308926,7.93531426 C5.5074619,7.26931307 7.23455732,5.09468794 10.6896334,5.09468794 L12.4508104,5.09468794 L4.3,18.7563877 L14.2288069,18.7563877 C14.2288069,18.7563877 15.8222317,15.2515398 15.8979194,15.0744733 C15.9731645,14.8978518 15.7978877,14.8471342 15.7133477,15.0072949 L15.7133477,15.0072949 Z M6.41659927,18.0009635 L6.41659927,18.0009635 L5.98194839,18.0009635 L5.98150577,18.0009635 C5.93016209,18.0009635 5.91378522,17.9573643 5.94653895,17.9053121 L13.6016172,5.19122919 C13.6339283,5.1387321 13.7020915,5.09557772 13.7529926,5.09557772 L13.7534352,5.09557772 L14.1867582,5.09557772 L14.1872008,5.09557772 C14.2389871,5.09557772 14.2549214,5.1387321 14.2230529,5.19122919 L6.567532,17.9053121 C6.53522089,17.9573643 6.46750033,18.0009635 6.41659927,18.0009635 L6.41659927,18.0009635 Z" fill="#FFFFFF"></path>
    </g>
</svg>
