<?xml version="1.0" encoding="UTF-8"?>
<svg width="19px" height="10px" viewBox="0 0 19 10" version="1.1" xmlns="http://www.w3.org/2000/svg" xmlns:xlink="http://www.w3.org/1999/xlink">
    <!-- Generator: Sketch 46.2 (44496) - http://www.bohemiancoding.com/sketch -->
    <title>deezer-icon</title>
    <desc>Created with Sketch.</desc>
    <defs></defs>
    <g id="Andere-Assets" stroke="none" stroke-width="1" fill="none" fill-rule="evenodd">
        <g id="Artboard" transform="translate(-114.000000, -68.000000)" fill-rule="nonzero" fill="#44444C">
            <path d="M114,78 L114,77.0090288 L117.46325,77.0090288 L117.46325,78 L114,78 Z M114,76.7139397 L114,75.7229685 L117.46325,75.7229685 L117.46325,76.7139397 L114,76.7139397 Z M114,75.4278793 L114,74.4369082 L117.46325,74.4369082 L117.46325,75.4278793 L114,75.4278793 Z M114,74.1396168 L114,73.1486457 L117.46325,73.1486457 L117.46325,74.1396168 L114,74.1396168 Z M114,72.8535565 L114,71.8647875 L117.46325,71.8647875 L117.46325,72.8535565 L114,72.8535565 Z M117.883604,78 L117.883604,77.0090288 L121.346853,77.0090288 L121.346853,78 L117.883604,78 Z M117.883604,76.7139397 L117.883604,75.7229685 L121.346853,75.7229685 L121.346853,76.7139397 L117.883604,76.7139397 Z M117.883604,75.4278793 L117.883604,74.4369082 L121.346853,74.4369082 L121.346853,75.4278793 L117.883604,75.4278793 Z M125.232793,78 L121.767207,78 L121.767207,77.0090288 L125.232793,77.0090288 L125.232793,78 Z M125.232793,76.7139397 L121.767207,76.7139397 L121.767207,75.7229685 L125.232793,75.7229685 L125.232793,76.7139397 Z M125.232793,75.4278793 L121.767207,75.4278793 L121.767207,74.4369082 L125.232793,74.4369082 L125.232793,75.4278793 Z M125.232793,74.1396168 L121.767207,74.1396168 L121.767207,73.1486457 L125.232793,73.1486457 L125.232793,74.1396168 Z M125.232793,72.8535565 L121.767207,72.8535565 L121.767207,71.8647875 L125.232793,71.8647875 L125.232793,72.8535565 Z M125.232793,71.565294 L121.767207,71.565294 L121.767207,70.5743228 L125.232793,70.5743228 L125.232793,71.565294 Z M125.232793,70.2792336 L121.767207,70.2792336 L121.767207,69.2882625 L125.232793,69.2882625 L125.232793,70.2792336 Z M125.653147,78 L125.653147,77.0090288 L129.116396,77.0090288 L129.116396,78 L125.653147,78 Z M125.653147,76.7139397 L125.653147,75.7229685 L129.116396,75.7229685 L129.116396,76.7139397 L125.653147,76.7139397 Z M125.653147,75.4278793 L125.653147,74.4369082 L129.116396,74.4369082 L129.116396,75.4278793 L125.653147,75.4278793 Z M125.653147,74.1396168 L125.653147,73.1486457 L129.116396,73.1486457 L129.116396,74.1396168 L125.653147,74.1396168 Z M125.653147,72.8535565 L125.653147,71.8647875 L129.116396,71.8647875 L129.116396,72.8535565 L125.653147,72.8535565 Z M129.53675,78 L129.53675,77.0090288 L133,77.0090288 L133,78 L129.53675,78 Z M129.53675,76.7139397 L129.53675,75.7229685 L133,75.7229685 L133,76.7139397 L129.53675,76.7139397 Z M129.53675,75.4256772 L129.53675,74.434706 L133,74.434706 L133,75.4256772 L129.53675,75.4256772 Z M129.53675,74.1396168 L129.53675,73.1486457 L133,73.1486457 L133,74.1396168 L129.53675,74.1396168 Z M129.53675,72.8535565 L129.53675,71.8625853 L133,71.8625853 L133,72.8535565 L129.53675,72.8535565 Z M129.53675,71.565294 L129.53675,70.576525 L133,70.576525 L133,71.565294 L129.53675,71.565294 Z M129.53675,70.2792336 L129.53675,69.2904647 L133,69.2904647 L133,70.2792336 L129.53675,70.2792336 Z M129.53675,68.9909712 L129.53675,68 L133,68 L133,68.9909712 L129.53675,68.9909712 Z" id="deezer-icon"></path>
        </g>
    </g>
</svg>