<?xml version="1.0" encoding="UTF-8"?>
<svg width="13px" height="16px" viewBox="0 0 13 16" version="1.1" xmlns="http://www.w3.org/2000/svg" xmlns:xlink="http://www.w3.org/1999/xlink">
    <!-- Generator: Sketch 46.2 (44496) - http://www.bohemiancoding.com/sketch -->
    <title>itunes-icon</title>
    <desc>Created with Sketch.</desc>
    <defs></defs>
    <g id="Andere-Assets" stroke="none" stroke-width="1" fill="none" fill-rule="evenodd">
        <g id="Artboard" transform="translate(-19.000000, -65.000000)" fill-rule="nonzero" fill="#44444C">
            <path d="M31.9929595,77.2884925 C32.0957296,78.6498678 31.0613984,79.8871849 29.6756597,80.0569487 C28.2932362,80.2267125 27.0832013,79.2603646 26.977116,77.8989893 C26.8710308,76.5408787 27.9119924,75.3002969 29.2944159,75.1305331 C29.7320175,75.0782981 30.1497282,75.1370625 30.5243418,75.2872382 L30.5243418,68.6076846 L24.0266199,69.7992961 L24.0266199,78.1471057 C24.0166744,78.1699585 24.0233047,78.1928113 24.0233047,78.2156641 C24.12939,79.5770394 23.0917435,80.8143565 21.7060049,80.9841204 C20.3202662,81.1538842 19.1135464,80.1875363 19.0074612,78.8294257 C18.9013759,77.4680504 19.9390223,76.2274686 21.324761,76.0609694 C21.7623627,76.0054697 22.1800734,76.0674988 22.5546869,76.2176745 L22.5546869,66.5933715 L31.9796989,65.003468 L31.9896444,77.2166693 C31.9896444,77.2460515 31.9929595,77.2656397 31.9929595,77.2884925 Z" id="itunes-icon"></path>
        </g>
    </g>
</svg>