<?xml version="1.0" encoding="utf-8"?>
<!-- Generator: Adobe Illustrator 21.1.0, SVG Export Plug-In . SVG Version: 6.00 Build 0)  -->
<svg version="1.1" id="Ebene_1" xmlns="http://www.w3.org/2000/svg" xmlns:xlink="http://www.w3.org/1999/xlink" x="0px" y="0px"
	 viewBox="0 0 330 27" style="enable-background:new 0 0 330 27;" xml:space="preserve">
<g>
	<g>
		<path class="st0" d="M47.7,24.5c-0.7,0-1.9-0.7-1.9-1.7l0-17C45.8,4.6,47,4,47.6,4c0.2,0,0.2-0.5,0-0.5H40c-0.2,0-0.2,0.5,0,0.5
			c0.5,0,1.8,0.7,1.8,1.7v17c0,1.1-1.1,1.7-1.8,1.7c-0.2,0-0.3,0.5,0,0.5h7.7C47.9,25,47.9,24.5,47.7,24.5z M44.2,23.7
			c0,0.1-0.1,0.1-0.1,0.1h-0.5c-0.1,0-0.1-0.1-0.1-0.1V4.8c0-0.1,0.1-0.1,0.1-0.1h0.5c0.1,0,0.1,0.1,0.1,0.1V23.7z"/>
		<path class="st0" d="M35,3.5H19.3c-0.2,0-0.2,0.5,0,0.5c0.8,0,2.2,0.9,2.2,2v16c0,1.5-1,2.5-2.2,2.5c-0.2,0-0.2,0.5,0,0.5H35
			c0,0,2.2-5.2,2.3-5.4c0.1-0.2-0.2-0.4-0.4-0.2c-0.9,1.7-4.2,4.4-8.6,4.4h-3v-9h4c2.6,0,3.9,1.8,4.3,2.3c0.2,0.2,0.5,0.1,0.4-0.1
			c-0.1-0.3-1.4-2.8-1.4-2.8s1.3-2.5,1.4-2.8c0.1-0.3-0.2-0.4-0.3-0.2c-0.2,0.3-2.1,2.3-4.8,2.3h-3.6v-9h2.6c3.9,0,7.1,1.5,9.1,4.6
			c0.1,0.2,0.4,0.1,0.4-0.1C37.3,8.9,35,3.5,35,3.5z M23.8,23.7c0,0.1-0.1,0.1-0.1,0.1h-0.5c-0.1,0-0.1-0.1-0.1-0.1V4.8
			c0-0.1,0.1-0.1,0.1-0.1h0.5c0.1,0,0.1,0.1,0.1,0.1V23.7z"/>
		<path class="st0" d="M5.9,3.5c-1.4,0-2.7-0.1-2.7-0.1S1.1,8.3,0.9,8.8C0.7,9.1,1,9.2,1.2,8.9c0.6-1,3.2-4.2,8.4-4.2h2.6L0,25h14.9
			c0,0,2.4-5.2,2.5-5.5c0.1-0.3-0.1-0.3-0.3-0.1c-0.6,1.2-4.1,4.5-8.7,4.5H5.2L17.6,3.5H5.9z M3.4,23.7c0,0.1-0.1,0.1-0.2,0.1h0H2.5
			c-0.1,0-0.1-0.1-0.1-0.1L13.9,4.8c0-0.1,0.2-0.1,0.2-0.1h0.6c0.1,0,0.1,0.1,0.1,0.1L3.4,23.7z"/>
		<path class="st0" d="M65.2,3.7c-0.2-0.5-0.6-0.2-1-0.2H52.1c-0.4,0-0.8-0.3-1,0.2c-0.2,0.6-2.1,5.1-2.2,5.4
			c-0.1,0.3,0.3,0.5,0.5,0.1c0.8-1.5,3.6-4.5,6.7-4.5v18.1c0,1.1-1.1,1.7-1.8,1.7c-0.2,0-0.3,0.5,0,0.5h7.7c0.3,0,0.2-0.5,0-0.5
			c-0.7,0-1.9-0.7-1.9-1.7l0-18.1c3,0,6,2.9,7,4.4c0.2,0.3,0.6,0.1,0.5-0.1C67.5,8.7,65.4,4.3,65.2,3.7z M58.6,23.7
			c0,0.1-0.1,0.1-0.1,0.1h-0.5c-0.1,0-0.1-0.1-0.1-0.1V4.8c0-0.1,0.1-0.1,0.1-0.1h0.5c0.1,0,0.1,0.1,0.1,0.1V23.7z"/>
		<path class="st0" d="M219.9,4.6c3.9,0,7.1,1.5,9.1,4.6c0.1,0.2,0.4,0.1,0.4-0.1c-0.1-0.3-2.4-5.7-2.4-5.7h-15.7
			c-0.2,0-0.2,0.5,0,0.5c0.8,0,2.2,0.9,2.2,2v16c0,1.5-1,2.5-2.2,2.5c-0.2,0-0.2,0.5,0,0.5h15.8c0,0,2.2-5.2,2.3-5.4
			c0.1-0.2-0.2-0.4-0.4-0.2c-0.9,1.7-4.2,4.4-8.6,4.4h-3v-9h4c2.6,0,3.9,1.8,4.3,2.3c0.2,0.2,0.5,0.1,0.4-0.1
			c-0.1-0.3-1.4-2.8-1.4-2.8s1.3-2.5,1.4-2.8c0.1-0.3-0.2-0.4-0.3-0.2c-0.2,0.3-2.1,2.3-4.8,2.3h-3.6v-9H219.9z M215.8,23.7
			c0,0.1-0.1,0.1-0.1,0.1h-0.5c-0.1,0-0.1-0.1-0.1-0.1V4.8c0-0.1,0.1-0.1,0.1-0.1h0.5c0.1,0,0.1,0.1,0.1,0.1V23.7z"/>
		<path class="st0" d="M184.5,24.5c-0.7,0-1.9-0.7-1.9-1.7l0-17c0-1.1,1.2-1.7,1.8-1.7c0.2,0,0.2-0.5,0-0.5h-7.6
			c-0.2,0-0.2,0.5,0,0.5c0.5,0,1.8,0.7,1.8,1.7v17c0,1.1-1.1,1.7-1.8,1.7c-0.2,0-0.3,0.5,0,0.5h7.7C184.8,25,184.7,24.5,184.5,24.5z
			 M181.1,23.7c0,0.1-0.1,0.1-0.1,0.1h-0.5c-0.1,0-0.1-0.1-0.1-0.1V4.8c0-0.1,0.1-0.1,0.1-0.1h0.5c0.1,0,0.1,0.1,0.1,0.1V23.7z"/>
		<path class="st0" d="M209.3,3.5h-6.6c-0.2,0-0.2,0.5,0,0.5c1.5,0,2.6,0.7,2.6,4.3v10.1L192.7,3.5h-6c-0.2,0-0.2,0.5,0,0.5
			c1.1,0,3.4,1.2,3.4,3v12.1c0,4.5-0.7,5.4-2.4,5.4c-0.2,0-0.3,0.5,0,0.5h6.3c0.3,0,0.2-0.5,0-0.5c-1.8,0-2.5-0.9-2.5-5.4l0-11
			l15.1,17.6l0-17.4c0-3.6,1.1-4.3,2.6-4.3C209.4,4,209.5,3.5,209.3,3.5z M205.3,21.2c0,0.2-0.6,0.1-0.7,0l-14-16.5
			c-0.1-0.1-0.1-0.1,0-0.1h0.7c0.1,0,0.2,0.1,0.3,0.2l13.6,15.9c0.1,0.1,0.1,0.2,0.1,0.3V21.2z"/>
		<path class="st0" d="M156.1,3.5h-6.6c-0.2,0-0.2,0.5,0,0.5c1.5,0,2.6,0.7,2.6,4.3v10.1L139.5,3.5l-6,0c-0.2,0-0.2,0.5,0,0.5
			c1.1,0,3.4,1.2,3.4,3v12.1c0,4.5-0.7,5.4-2.4,5.4c-0.2,0-0.3,0.5,0,0.5h6.3c0.3,0,0.2-0.5,0-0.5c-1.8,0-2.5-0.9-2.5-5.4l0-11
			l15.1,17.6l0-17.4c0-3.6,1.1-4.3,2.6-4.3C156.3,4,156.3,3.5,156.1,3.5z M152.2,21.2c0,0.2-0.6,0.1-0.7,0l-14-16.5
			c-0.1-0.1-0.1-0.1,0-0.1h0.8c0.1,0,0.2,0.1,0.3,0.2l13.5,16c0.1,0.1,0.1,0.2,0.1,0.3V21.2z"/>
		<path class="st0" d="M122,3c-5,0-11.2,3.8-11.2,11.5c0,6.7,4.2,10.9,11.1,10.9c8.9,0,11.4-6.5,11.4-11.1C133.3,7.9,128.4,3,122,3z
			 M112.8,14.6c0-5.4,3.4-9.6,5.4-10c-1.8,1-4.6,4.8-4.5,10c0.1,4.9,1.6,7.1,3.8,9C115.2,22.3,112.8,20,112.8,14.6z M115.4,14.3
			c0-6.8,3.3-10.2,6.6-10.2c3.9,0,6.8,3.2,6.8,9.9c0,6.8-3.3,10.1-6.7,10.1C118.5,24.1,115.4,21.9,115.4,14.3z M125.8,23.6
			c1.8-1,4.6-4.5,4.5-9.7c0-5-1.6-7.4-3.7-9.4c2.2,1.4,4.6,4,4.6,9.4C131.3,19.4,127.8,23.2,125.8,23.6z"/>
		<path class="st0" d="M175.5,19.2c-0.9,1.7-4.1,4.6-8.5,4.6h-2.5l0-18.2c0-1.1,1.4-1.7,2-1.7c0.2,0,0.2-0.5,0-0.5h-8.1
			c-0.2,0-0.2,0.5,0,0.5c0.8,0,2.2,0.9,2.2,2v15.7c0,2-1.2,2.8-2.4,2.8c-0.2,0-0.2,0.5,0,0.5h15.6c0,0,2.1-5.4,2.1-5.6
			C175.9,19.2,175.6,19,175.5,19.2z M162.9,23.7c0,0.1-0.1,0.1-0.1,0.1h-0.5c-0.1,0-0.1-0.1-0.1-0.1V4.8c0-0.1,0.1-0.1,0.1-0.1h0.5
			c0.1,0,0.1,0.1,0.1,0.1V23.7z"/>
		<path class="st0" d="M90.4,17.9c-0.4,0-0.8,0.1-1.1,0.2C89.2,18,89.2,18,89.1,18c-0.1-0.2-0.2-0.1-0.2-0.1s-0.1-0.2-0.1-0.4
			c0-0.2-0.2-0.2-0.3,0c-0.1,0.1-0.2,0.2-0.2,0.2l-1.8-1.7l0.6-0.6l0.2,0.2L86.9,16l0.7,0.7l2-2l-1.1-1.1l-0.8,0.8l0.5,0.5l0.2-0.2
			l0.1,0.1l-0.4,0.4l-1.5-1.5l0.4-0.4l0.1,0.1l-0.2,0.2l0.4,0.4l0.8-0.8L87,12.1l-2,2l0.7,0.7l0.4-0.4l0.2,0.2l-0.6,0.6L84.5,14
			c-0.2-0.2-0.5,0-0.6,0.1c-0.2,0.2-0.3,0.5-0.1,0.7l3.7,3.6c0,0,0,0.1-0.2,0.2c-0.1,0.1-0.1,0.3,0,0.3c0.2,0,0.4,0.1,0.4,0.1
			s-0.1,0.2,0.1,0.2c0,0,0.1,0,0.1,0.1c-0.2,0.4-0.3,0.8-0.3,1.2c0,1.5,1.2,2.7,2.7,2.7c1.5,0,2.7-1.2,2.7-2.7
			C93.1,19.1,91.9,17.9,90.4,17.9z M84,14.7c-0.1-0.1-0.1-0.2,0-0.4c0.1-0.1,0.2-0.2,0.3-0.1l1.4,1.3l1-1l-0.6-0.6l-0.4,0.4
			l-0.3-0.3l1.6-1.6l0.8,0.8l-0.4,0.4l-0.1-0.1l0.2-0.2L87,12.9l-0.7,0.8l1.8,1.8l0.7-0.8l-0.5-0.5l-0.2,0.2L88,14.3l0.4-0.4
			l0.7,0.7l-1.6,1.6L87.3,16l0.4-0.4L87,14.9l-1,1l2,1.9l-0.4,0.4L84,14.7z M88,18.8c-0.1-0.1-0.2,0-0.2-0.1c0,0,0-0.1,0.1-0.2
			c0.1-0.1,0.4-0.4,0.5-0.5c0.1-0.1,0.2-0.2,0.3-0.1c0.1,0.1,0,0.2,0.1,0.3c0.1,0.1,0.2-0.1,0.3,0.2c-0.6,0.4-0.9,0.9-0.9,0.9
			C87.9,19,88.1,18.9,88,18.8z M90.4,22.9c-1.3,0-2.4-1-2.4-2.3c0-1.3,1.1-2.3,2.4-2.3c1.3,0,2.4,1,2.4,2.3
			C92.7,21.8,91.7,22.9,90.4,22.9z"/>
		<path class="st0" d="M90.4,18.6c-1.1,0-2,0.9-2,1.9c0,1.1,0.9,1.9,2,1.9c1.1,0,2-0.9,2-1.9C92.3,19.5,91.5,18.6,90.4,18.6z
			 M88.8,21.2c0,0-0.3-0.7,0-1.3C89.2,20.6,88.8,21.2,88.8,21.2z M91,19c-0.7,0.3-1.3,0-1.3,0S90.4,18.8,91,19z M89.7,22.1
			c0,0,0.6-0.3,1.3,0C90.4,22.3,89.7,22.1,89.7,22.1z M91.6,21.7c-0.2,0.3-0.6-0.1-1.2-0.1c-0.6,0-0.9,0.4-1.2,0.1
			c-0.3-0.2,0.1-0.6,0.1-1.2c0-0.6-0.4-0.9-0.1-1.2c0.2-0.3,0.6,0.1,1.2,0.1c0.6,0,0.9-0.4,1.2-0.1c0.3,0.2-0.1,0.6-0.1,1.2
			C91.5,21.1,91.8,21.5,91.6,21.7z M91.9,19.9c0.3,0.6,0,1.3,0,1.3S91.6,20.6,91.9,19.9z"/>
		<path class="st0" d="M90.4,19.8c-0.4,0-0.8,0.3-0.8,0.7c0,0.4,0.3,0.7,0.8,0.7c0.4,0,0.8-0.3,0.8-0.7
			C91.2,20.1,90.8,19.8,90.4,19.8z M90.4,21c-0.3,0-0.5-0.2-0.5-0.4c0-0.2,0.2-0.4,0.5-0.4c0.3,0,0.5,0.2,0.5,0.4
			C90.8,20.8,90.6,21,90.4,21z"/>
		<path class="st0" d="M106.8,20.5c1.2-1,0.9-2.7-0.6-4.1c-1.4-1.5-1.5-2.1-1.5-3c0.9,0,1.1-0.7,1-0.8c0.7-0.3,0.4-0.9,0.4-0.9
			c0.2-0.4,0.1-1,0.1-1c-0.6,0-1,0.2-1,0.2c-0.4-0.1-0.7,0.4-0.7,0.4c-0.8,0-0.5,1.5-0.5,1.5s-0.3,0.9-0.1,1.6
			c0.6,1.9,1.7,2.4,2.4,3.7c0.3,0.5,0.3,1.4-0.4,1.7c-0.6,0.2-1.1-0.2-1.4-1.5c-0.3-1.3-0.4-1.3-1.2-2.3c-0.7-1-0.8-1.5-0.8-2.5
			c-0.1-1-0.2-2.1-0.2-2.1c0.2,0,0.2-0.1,0.2-0.1c-0.3-0.4-0.3-0.9-0.3-0.9c0.1,0,0.2-0.1,0.2-0.1c-0.4-0.4-0.2-0.5-0.4-0.8
			c0.2,0,0.3-0.2,0.3-0.2c-0.5-0.3-0.4-0.6-0.8-1.1c0.1,0,0.2-0.1,0.2-0.1c-0.4-0.4-0.5-0.8-1.2-0.7l-0.2-0.2c0,0,0.5,0,0.8-0.4
			c0.3-0.3-0.2-0.7-0.2-0.7s-0.1,0.1-0.2,0.1c-0.2-0.1,0-0.2-0.2-0.3c-0.2-0.1-0.1-0.4,0.2-0.4c0.3,0,0.1,0.4,0.3,0.5
			c0.2,0.1,0.3-0.3,0.4-0.3c0.1,0,0.1-0.1,0.4-0.5c0.2-0.3-0.1-0.3,0.1-0.6c0.1-0.3,0.2-0.6-0.9-0.8c0-0.9-0.9-0.6-1.2-0.6
			c-0.2-0.6-0.7-0.7-1.5-0.6l-0.1,0.1c-0.5,0-0.8,0.1-0.8,0.1l0,0.2c-0.5-0.1-0.7,0.3-1,0.4l0.1,0.2c-0.5,0.3-0.4,0.7-0.9,0.9
			l0.2,0.2l-0.1,0.2c-0.5,0-0.8,0.2-0.8,0.2C94.2,5,94,5.6,94,5.6c-0.6,0.1-0.8,0.8-0.8,1.1c-0.5,0.2-0.4,0.8-0.4,0.8
			c-0.3,0.2-0.5,0.6,0,0.9c0,0-0.2,0.6-0.9,0.3c-0.7-0.3-0.5-0.8-0.4-0.9c0.5,0.4,0.8,0,0.8-0.4c0.7-0.2,0.5-0.9,0.5-0.9
			c0.8-0.5,0.3-1.4,0.3-1.4c0.4-0.4,0-0.8,0-0.8c0-0.6-0.4-1.1-0.4-1.1C92.2,3.4,92,3.8,92,3.8c-0.6,0-0.8,0.7-0.8,0.7
			c-0.7,0-0.9,0.6-0.8,1.1c-0.4,0.2-0.5,0.8-0.2,1.2c-0.4,0.4-0.1,0.9,0.3,0.9c0,0-0.1,0.6-0.8,0.6c-0.7,0-1-0.7-0.8-1
			c0.5,0.2,0.8-0.2,0.7-0.6c0.6-0.5,0.1-1.1,0.1-1.1c0.4-0.6,0-1-0.4-1.4c0-0.4-0.3-0.4-0.3-0.4c-0.3-0.7-0.8-1-0.8-1
			s-0.5,0.3-0.8,1c0,0-0.3,0-0.3,0.4c-0.4,0.4-0.7,0.8-0.4,1.4c0,0-0.6,0.7,0.1,1.1c-0.1,0.4,0.1,0.9,0.7,0.6c0.2,0.3-0.1,1-0.8,1
			c-0.7,0-0.8-0.6-0.8-0.6c0.4,0,0.7-0.5,0.3-0.9c0.2-0.4,0.2-1-0.2-1.2c0.1-0.5-0.1-1.1-0.8-1.1c0,0-0.1-0.6-0.8-0.7
			c0,0-0.2-0.4-0.8-0.5c0,0-0.4,0.5-0.4,1.1c0,0-0.4,0.5,0,0.8c0,0-0.5,0.9,0.3,1.4c0,0-0.2,0.7,0.5,0.9c0,0.4,0.3,0.8,0.8,0.4
			c0.1,0.1,0.3,0.6-0.4,0.9c-0.7,0.3-0.9-0.3-0.9-0.3c0.5-0.3,0.3-0.8,0-0.9c0,0,0.1-0.6-0.4-0.8c0.1-0.3-0.1-1-0.8-1.1
			c0,0-0.2-0.6-0.8-0.5c0,0-0.3-0.2-0.8-0.2l-0.1-0.2L81,4.5c-0.5-0.3-0.4-0.6-0.9-0.9l0.1-0.2c-0.3-0.1-0.5-0.4-1-0.4l0-0.2
			c0,0-0.3-0.1-0.8-0.1l-0.1-0.1c-0.8-0.1-1.3,0-1.5,0.6c-0.3,0-1.1-0.3-1.2,0.6c-1.1,0.2-1.1,0.5-0.9,0.8C74.9,5,74.6,5,74.8,5.3
			c0.3,0.5,0.3,0.5,0.4,0.5c0.2-0.1,0.2,0.3,0.4,0.3c0.2-0.1,0-0.4,0.3-0.5c0.3-0.1,0.4,0.3,0.2,0.4c-0.2,0.1-0.1,0.3-0.2,0.3
			c-0.1,0-0.2-0.1-0.2-0.1s-0.5,0.3-0.2,0.7c0.3,0.3,0.8,0.4,0.8,0.4l-0.2,0.2c-0.7-0.1-0.8,0.2-1.2,0.7c0,0,0.1,0.1,0.2,0.1
			c-0.4,0.5-0.4,0.8-0.8,1.1c0,0,0,0.2,0.3,0.2c-0.2,0.3,0,0.5-0.4,0.8c0,0,0.1,0.1,0.2,0.1c0,0,0,0.5-0.3,0.9c0,0,0.1,0.1,0.2,0.1
			c0,0-0.1,1.1-0.2,2.1c-0.1,1-0.1,1.5-0.8,2.5c-0.7,1-0.9,1-1.2,2.3c-0.3,1.3-0.8,1.7-1.4,1.5c-0.6-0.2-0.6-1.2-0.4-1.7
			c0.7-1.2,1.8-1.7,2.4-3.7c0.2-0.7-0.1-1.6-0.1-1.6s0.3-1.5-0.5-1.5c0,0-0.3-0.6-0.7-0.4c0,0-0.4-0.2-1-0.2c0,0-0.1,0.6,0.1,1
			c0,0-0.3,0.6,0.4,0.9c-0.1,0.1,0,0.8,1,0.8c0,0.9-0.1,1.5-1.5,3c-1.4,1.5-1.8,3.1-0.6,4.1c1.3,1,2.5,0,2.5,0
			c0.3,0.5,0.3,1.3-0.1,1.2c-0.2-0.1-0.3,0.1-0.4,0.7c-0.2,0.8-0.2,0.9,0.4,2.1c0,0-0.4,0-0.8-0.2c0,0,0-0.2-0.2-0.4
			c0.2-0.4-0.1-0.9-0.4-1c-0.5-0.1-0.9-0.4-0.9-0.4s-0.2,0.9,0.5,1.3c0,0-0.8-0.2-1.2,0.4c0.5,0.2,0.5,0.5,1,0.7
			c0.5,0.1,0.8-0.4,0.8-0.4s0.2,0.1,0,0.4c-0.2,0.2-0.1,0.3,0.1,0.4c2,0.6,4,0.4,4,0.4s-0.4,0.2-0.6,0.8c0.9-0.2,2.4,0.4,3.3-0.9
			c0,0,1.1-0.3,2.6-0.6c0,0-0.3,0.2-0.5,0.6c0,0,1.3,0.7,3.1-0.3c0.1,0,0.2,0.1,0.1,0.1c-0.7,0.3-0.9,0.7-0.9,0.7s1.5,0.8,3-0.2
			c0,0-0.2,0.7,0.5,1c0,0,0.7-0.3,1.5-0.4c0,0-0.1,0.2,0.1,0.3c0,0,0.6-0.1,1.1-0.7c0.5,0.6,1.1,0.7,1.1,0.7
			c0.2-0.1,0.1-0.3,0.1-0.3c0.8,0.2,1.5,0.4,1.5,0.4c0.8-0.3,0.5-1,0.5-1c1.5,1,3,0.2,3,0.2s-0.2-0.4-0.9-0.7
			c-0.1-0.1,0-0.2,0.1-0.1c1.7,1,3.1,0.3,3.1,0.3c-0.2-0.4-0.5-0.6-0.5-0.6c1.5,0.3,2.6,0.6,2.6,0.6c0.9,1.3,2.5,0.7,3.3,0.9
			c-0.2-0.5-0.6-0.8-0.6-0.8s2,0.2,4-0.4c0.2-0.1,0.3-0.2,0.1-0.4c-0.2-0.3,0-0.4,0-0.4s0.3,0.5,0.8,0.4c0.5-0.1,0.5-0.5,1-0.7
			c-0.4-0.6-1.2-0.4-1.2-0.4c0.7-0.5,0.5-1.3,0.5-1.3s-0.4,0.3-0.9,0.4c-0.3,0.1-0.6,0.6-0.4,1c-0.2,0.1-0.2,0.4-0.2,0.4
			c-0.4,0.2-0.8,0.2-0.8,0.2c0.7-1.2,0.6-1.3,0.4-2.1c-0.1-0.6-0.2-0.7-0.4-0.7c-0.4,0.1-0.4-0.7-0.1-1.2
			C104.3,20.6,105.5,21.6,106.8,20.5z M70.3,24.8c-0.3,0-0.6-0.3-0.6-0.3s0.2-0.2,0.6-0.2C70.8,24.3,70.8,24.8,70.3,24.8z
			 M70.7,23.8c-0.5-0.2-0.5-0.6-0.5-0.6s0.1,0.1,0.4,0.1C71.1,23.5,71.1,24,70.7,23.8z M71.1,24.4c-0.1,0.1-0.3-0.1-0.3-0.2
			C70.8,24.2,71.2,24.2,71.1,24.4z M106.2,24.3c0.4,0,0.6,0.2,0.6,0.2s-0.3,0.3-0.6,0.3C105.8,24.8,105.8,24.3,106.2,24.3z
			 M105.9,23.3c0.3-0.1,0.4-0.1,0.4-0.1s0,0.4-0.5,0.6C105.5,24,105.4,23.5,105.9,23.3z M105.7,24.2c0,0.1-0.2,0.3-0.3,0.2
			C105.3,24.2,105.7,24.2,105.7,24.2z M100.4,6.4c-0.2,0.1-0.4-0.1-0.1-0.2C100.5,6.3,100.4,6.4,100.4,6.4z M100,3.7
			c0.3,0,0.4,0.1,0.3,0.4c0,0.1,0,0.2,0.3,0.2c0.8,0,0.9,0.2,0.7,0.3c-0.1,0.1-0.2,0.2,0,0.3c0.2,0.1,0,0.6-0.2,0.5
			c-0.6-0.2-0.8-0.2-1.1,0.3c-0.2,0.6-0.3,1,0.8,0.9c0,0,0,0.3-0.7,0.2c-0.7,0-0.8-1.1,0-2c0.2-0.2,0.2-0.3,0-0.5
			c0-0.3,0-0.5-0.5-0.3c-0.4,0.2-0.4,0.3-0.1,0.3c0.3,0,0.4,0.2,0.4,0.2s-0.4,0.4-0.6,1.1c-0.2,1,0.3,1.3,0.3,1.3S99.3,7.4,99,6.9
			c0,0,0.2-0.4-0.1-0.7c0,0,0.1-0.4-0.2-0.8c0,0,0.2-0.2,0.1-0.7c0,0,0.5-0.2,0.2-0.7C99,4,99.5,3.8,100,3.7z M97.8,8.5
			c-0.1,0.4-0.4,0.3-0.4,0c0-0.7,0.5-1,0.5-1c0.2,0.4-0.2,0.8-0.2,0.8L97.8,8.5z M97.5,10.6c0,0-0.4,0.5-0.4,0.8
			c0,0.3-0.3,0.6-0.3,0.6s-0.4-0.7,0.6-1.6C97.4,10.4,97.4,10.5,97.5,10.6z M96.6,10.9c0.1-0.5-0.1-0.5,0.2-1
			c0.2-0.3,0.5-0.6,0.5-0.6s0,0.3,0.2,0.3C97.6,9.6,97.3,10.4,96.6,10.9z M94.7,15.7c-0.3,0.2-0.6,0.1-0.6,0.1
			c0.2-0.2,0.4-0.4,0.4-0.4C94.8,15.4,94.7,15.7,94.7,15.7z M95,16c0.2,0,0.2,0.2,0.2,0.2c-0.2,0.2-0.5,0.2-0.5,0.2
			C94.8,16.1,95,16,95,16z M94.4,16.6c0,0,0,1.6-0.1,2.8c0,2-0.8,4.6-6.1,4.6c-5.3,0-6.1-2.5-6.1-4.6c0-1.2-0.1-2.8-0.1-2.8
			c0.1-0.1,0.2-0.2,0.2-0.2C82.1,16.2,82,16,82,16c0.5,0.1,0.7-0.2,0.7-0.2c-0.4-0.4-0.5-0.7-0.5-0.7c0.3,0,0.7-0.1,0.7-0.1
			c0.1-0.6-0.6-0.7-0.6-1.2c0.2,0,0.3,0.1,0.3,0.1c0.4-0.8-0.5-0.8-0.3-1.5c0.3-0.1,0.4-0.3,0.4-0.3c-0.1,0-0.2-0.1-0.2-0.1
			c0.3-0.1,0.4-0.3,0.4-0.3c0.1,0.2,0.1,0.4,0.1,0.4c0.4-0.1,0.6-0.4,0.6-0.4c0,0.2,0.2,0.4,0.2,0.4c0.3-0.1,0.5-0.4,0.5-0.4
			s2.3,0,4.1,0c1.9,0,4.1,0,4.1,0s0.1,0.2,0.5,0.4c0,0,0.2-0.2,0.2-0.4c0,0,0.1,0.3,0.6,0.4c0,0,0-0.2,0.1-0.4c0,0,0.1,0.2,0.4,0.3
			c0,0-0.1,0-0.2,0.1c0,0,0.1,0.2,0.4,0.3c0.2,0.7-0.7,0.7-0.3,1.5c0,0,0.1-0.1,0.3-0.1c0,0.5-0.7,0.5-0.6,1.2c0,0,0.3,0.1,0.7,0.1
			c0,0-0.1,0.3-0.5,0.7c0,0,0.2,0.3,0.7,0.2c0,0-0.1,0.2-0.3,0.4C94.2,16.4,94.3,16.5,94.4,16.6z M81.8,15.7c0,0-0.1-0.3,0.2-0.4
			c0,0,0.1,0.2,0.4,0.4C82.4,15.7,82.2,15.9,81.8,15.7z M81.9,16.4c0,0-0.3,0-0.5-0.2c0,0,0-0.2,0.2-0.2
			C81.6,16,81.8,16.1,81.9,16.4z M79.1,10.4c1,0.9,0.6,1.6,0.6,1.6s-0.3-0.3-0.3-0.6c0-0.3-0.4-0.8-0.4-0.8
			C79.1,10.5,79.1,10.4,79.1,10.4z M79,9.6c0.2,0,0.2-0.3,0.2-0.3s0.3,0.2,0.5,0.6c0.3,0.4,0.1,0.5,0.2,1C79.3,10.4,79,9.6,79,9.6z
			 M78.6,7.5c0,0,0.4,0.3,0.5,1c0,0.3-0.2,0.4-0.4,0l0.1-0.1C78.8,8.4,78.5,8,78.6,7.5z M77.9,6.4c0,0,0.2,0.1,0.4,0.3
			c0.4,0.2,0.1,0.7,0.1,0.7s-0.1-0.1-0.4-0.3C77.7,6.9,77.8,6.5,77.9,6.4z M77.8,7.3c0,0-0.1,0-0.3,0l0.1-0.1
			C77.7,7.1,77.7,7.2,77.8,7.3z M78.2,4.6c-0.5,0-0.6-0.3-0.5-0.5c0.1-0.2,0.5-0.1,0.4,0.1C78.1,4.4,78.2,4.6,78.2,4.6z M78,6.2
			c-0.2-0.1-0.1-0.8,0.3-0.4c0.3,0.3,0.2,0.7,0.2,0.7S78.3,6.3,78,6.2z M78.1,5.3c-0.2-0.3,0-0.6,0.3-0.3c0.2,0.3,0.2,0.6,0.2,0.6
			S78.2,5.6,78.1,5.3z M78.5,4.7c0,0-0.2-0.2-0.1-0.6c0,0,0.6,0,0.8,0.6C79.2,4.7,78.8,4.6,78.5,4.7z M78.8,5.7
			c0.4,0.3,0.8,0.5,0.7,1.2C78.9,6.5,78.7,6.3,78.8,5.7z M79.4,7.9c-0.4-0.6-0.8-0.7-0.6-1.3C78.8,6.6,79.5,7,79.4,7.9z M78.6,5
			c0.6-0.1,0.9,0.3,0.9,0.8C79.5,5.7,78.8,5.6,78.6,5z M79.3,9.1c0,0,0-0.3,0.1-0.5c1,0.6,0.8,1.5,0.8,1.5
			C79.9,9.8,79.9,9.5,79.3,9.1z M79.8,5.8c0,0,1.1,0.3,0.9,1.4c-0.3-0.6-1-0.6-1.1-1.1c0,0,0.2,0.1,0.3,0C79.9,6.2,79.8,6,79.8,5.8z
			 M79.8,6.8c0.8,0.4,0.7,1.3,0.7,1.3c-0.3-0.4-0.8-0.5-0.9-0.9c0.1,0,0.2-0.1,0.2-0.1C79.8,7,79.8,6.8,79.8,6.8z M79.7,7.8
			c0.4,0.4,0.7,0.5,0.6,1.3c0,0-0.5-0.4-0.7-0.7C79.6,8.4,79.7,8.2,79.7,7.8z M80.1,11.7c0,0,0.2,0.1,0.6,0.1c0,0,0.1,0.5,0.8,0.5
			c0,0.2,0,0.2-0.2,0.3c-0.2,0.1-0.3,0.2-0.4,0.7c0,0.1-0.1,0.1-0.2,0L80,12.4C80,12.4,80.2,12.1,80.1,11.7z M81.4,12
			c-0.4-0.1-0.3-0.6-0.2-0.7c0.1-0.1,0.1-0.3-0.1-0.2c-0.4,0.1-0.2,0.4-0.5,0.4c-0.2,0-0.4-0.1-0.4-0.1c0.1-0.2,0.1-0.5,0.1-0.5
			c0.1,0.1,0.2,0,0.2,0c-0.2-0.4,0-0.5,0-0.5s0.3,0.3,0.6,0.5c0.2,0.1,0.3,0,0.3,0c0.3-0.5,0.7-0.3,0.7-0.3c0.5-0.3,0.8,0,0.8,0
			c0.5-0.3,0.9,0.1,0.9,0.1l0.2,0.4c-0.3-0.1-0.6,0-0.6,0c-0.3-0.2-0.7-0.1-0.7-0.1c-0.4-0.2-0.7,0.1-0.7,0.1
			c-0.1-0.2-0.4-0.3-0.3,0c0.1,0.2,0.1,0.4-0.1,0.4c-0.2,0-0.2,0.1-0.1,0.2C81.4,11.7,81.4,12,81.4,12z M88.3,10.6
			c-2.3,0-3.6,0.5-3.9,0.6c-0.3,0.1-0.3-0.1-0.1-0.2c0.2-0.1,1.7-0.7,4-0.7c2.3,0,3.8,0.6,4,0.7c0.2,0.1,0.2,0.3-0.1,0.2
			C91.9,11.1,90.6,10.6,88.3,10.6z M91.1,11.3c0,0-0.6,0.1-2.8,0.1c-2.2,0-2.8-0.1-2.8-0.1s0.6-0.4,2.8-0.4
			C90.4,10.9,91.1,11.3,91.1,11.3z M84.1,10.5C84.1,10.5,84.1,10.5,84.1,10.5c0.2,0,0.2,0.1,0.2,0.2c0,0.1,0,0.1-0.1,0.1L84.1,10.5z
			 M84.6,10.5c0-0.1,0.1-0.2,0.2-0.2c0.1,0,0.2,0.1,0.2,0.2c0,0.1-0.1,0.2-0.2,0.2C84.6,10.7,84.6,10.6,84.6,10.5z M85.2,10.3
			c0-0.1,0.1-0.2,0.2-0.2c0.1,0,0.2,0.1,0.2,0.2c0,0.1-0.1,0.2-0.2,0.2C85.3,10.5,85.2,10.4,85.2,10.3z M86,10.1
			c0-0.1,0.1-0.2,0.2-0.2c0.1,0,0.2,0.1,0.2,0.2c0,0.1-0.1,0.2-0.2,0.2C86,10.3,86,10.2,86,10.1z M86.7,10c0-0.1,0.1-0.2,0.2-0.2
			c0.1,0,0.2,0.1,0.2,0.2c0,0.1-0.1,0.2-0.2,0.2C86.7,10.2,86.7,10.1,86.7,10z M87.4,10c0-0.1,0.1-0.2,0.2-0.2
			c0.1,0,0.2,0.1,0.2,0.2c0,0.1-0.1,0.2-0.2,0.2C87.5,10.2,87.4,10.1,87.4,10z M88.1,9.9c0-0.1,0.1-0.2,0.2-0.2
			c0.1,0,0.2,0.1,0.2,0.2c0,0.1-0.1,0.2-0.2,0.2C88.2,10.1,88.1,10.1,88.1,9.9z M88.8,10c0-0.1,0.1-0.2,0.2-0.2
			c0.1,0,0.2,0.1,0.2,0.2c0,0.1-0.1,0.2-0.2,0.2C88.9,10.2,88.8,10.1,88.8,10z M89.5,10c0-0.1,0.1-0.2,0.2-0.2
			c0.1,0,0.2,0.1,0.2,0.2c0,0.1-0.1,0.2-0.2,0.2C89.6,10.2,89.5,10.1,89.5,10z M90.2,10.1c0-0.1,0.1-0.2,0.2-0.2
			c0.1,0,0.2,0.1,0.2,0.2c0,0.1-0.1,0.2-0.2,0.2C90.3,10.3,90.2,10.2,90.2,10.1z M90.9,10.3c0-0.1,0.1-0.2,0.2-0.2
			c0.1,0,0.2,0.1,0.2,0.2c0,0.1-0.1,0.2-0.2,0.2C91,10.5,90.9,10.4,90.9,10.3z M91.6,10.5c0-0.1,0.1-0.2,0.2-0.2
			c0.1,0,0.2,0.1,0.2,0.2c0,0.1-0.1,0.2-0.2,0.2C91.7,10.7,91.6,10.6,91.6,10.5z M92.3,10.8c0,0-0.1-0.1-0.1-0.1
			c0-0.1,0.1-0.2,0.2-0.2c0,0,0,0,0,0L92.3,10.8z M88.3,9.6c-2.2,0-4.2,0.8-4.2,0.8l-0.3-0.5c0,0,0.6,0.3,1.3,0.1
			c0.8-0.2,0.9-0.7,0.9-0.7s0.5,0.4,1.3,0.3c0.6-0.1,1.1-0.6,1.1-0.6s0.5,0.5,1.1,0.6c0.8,0.1,1.3-0.3,1.3-0.3s0.2,0.5,0.9,0.7
			c0.7,0.2,1.3-0.1,1.3-0.1l-0.3,0.5C92.5,10.4,90.4,9.6,88.3,9.6z M90.8,8.9c0,0-0.5,0.5-1.3,0.4c-0.7-0.1-1.2-0.7-1.2-0.7
			s-0.5,0.7-1.2,0.7c-0.8,0.1-1.3-0.4-1.3-0.4c-0.4,1.1-1.7,1-2.2,0.7c-0.1-0.1-0.1-0.2,0.1-0.2c0.1,0.1,0.5,0.3,1.1,0.2
			c0.8-0.2,1-0.9,1-0.9s0.6,0.6,1.4,0.5c0.7-0.2,1.1-0.9,1.1-0.9s0.4,0.7,1.1,0.9c0.9,0.2,1.4-0.5,1.4-0.5s0.2,0.8,1,0.9
			c0.6,0.1,0.9-0.1,1.1-0.2c0.1-0.1,0.2,0.1,0.1,0.2C92.4,9.9,91.2,9.9,90.8,8.9z M83.8,11.8c0,0,0-0.3-0.2-0.6c0,0,0.2-0.1,0.3,0
			C83.9,11.2,84,11.6,83.8,11.8z M83.1,11.8c0,0-0.1-0.4-0.1-0.7c0,0,0.2-0.1,0.3,0C83.3,11.2,83.5,11.5,83.1,11.8z M82.3,11.2
			c0,0,0.2-0.2,0.4,0c0,0,0.2,0.5-0.3,0.6C82.4,11.8,82.4,11.5,82.3,11.2z M81.8,11.8c0,0,0.1,0.2,0.4,0.4c0,0-0.3,0.2-0.6-0.1
			C81.6,12,81.6,11.9,81.8,11.8z M82.1,13.1c0,0,0.3,0.2,0.3,0.6c0,0-0.2-0.2-0.5-0.3C81.9,13.4,81.9,13.1,82.1,13.1z M82.1,14.4
			c0,0,0.3,0.1,0.5,0.4c0,0-0.3,0.1-0.6-0.1C82,14.7,81.9,14.5,82.1,14.4z M92.7,11.2c0.1-0.1,0.3,0,0.3,0c-0.1,0.3-0.2,0.6-0.2,0.6
			C92.5,11.6,92.7,11.2,92.7,11.2z M93.3,11.2c0.1-0.1,0.3,0,0.3,0c-0.1,0.3-0.1,0.7-0.1,0.7C93,11.5,93.3,11.2,93.3,11.2z
			 M94.2,11.8c-0.5-0.1-0.3-0.6-0.3-0.6c0.2-0.1,0.4,0,0.4,0C94.1,11.5,94.2,11.8,94.2,11.8z M94.5,14.7c-0.3,0.2-0.6,0.1-0.6,0.1
			c0.2-0.3,0.5-0.4,0.5-0.4C94.6,14.5,94.5,14.7,94.5,14.7z M94.2,13.7c0-0.4,0.3-0.6,0.3-0.6c0.2,0,0.2,0.3,0.2,0.3
			C94.4,13.5,94.2,13.7,94.2,13.7z M94.3,12.1c0.3-0.2,0.4-0.4,0.4-0.4c0.2,0.1,0.2,0.2,0.2,0.2C94.6,12.3,94.3,12.1,94.3,12.1z
			 M94.9,11.6c0.1-0.2,0.1-0.3-0.1-0.2c-0.2,0-0.1-0.2-0.1-0.4c0.1-0.3-0.1-0.2-0.3,0c0,0-0.2-0.3-0.7-0.1c0,0-0.4-0.1-0.7,0.1
			c0,0-0.3-0.1-0.6,0l0.2-0.4c0,0,0.3-0.3,0.9-0.1c0,0,0.3-0.3,0.8,0c0,0,0.4-0.2,0.7,0.3c0,0.1,0.1,0.1,0.3,0
			c0.2-0.1,0.6-0.5,0.6-0.5s0.2,0.2,0,0.5c0,0,0.1,0.1,0.2,0c0,0,0,0.3,0.1,0.5c0,0-0.2,0.1-0.4,0.1c-0.2,0-0.1-0.2-0.5-0.4
			c-0.2-0.1-0.2,0.1-0.1,0.2c0.1,0.1,0.2,0.6-0.2,0.7C95.2,12,95.1,11.7,94.9,11.6z M96.9,6.1c-0.1,0.5-0.8,0.4-1.1,1.1
			c-0.2-1.1,0.9-1.4,0.9-1.4c0,0.2-0.1,0.4-0.1,0.4C96.7,6.2,96.9,6.1,96.9,6.1z M96.9,8.4c-0.3,0.4-0.7,0.7-0.7,0.7
			c-0.1-0.8,0.2-0.9,0.6-1.3C96.8,8.2,96.9,8.4,96.9,8.4z M96,8.1c0,0-0.1-1,0.7-1.3c0,0,0.1,0.2,0,0.3c0,0,0.1,0.1,0.2,0.1
			C96.8,7.7,96.3,7.7,96,8.1z M95,12.3c0.7,0,0.8-0.5,0.8-0.5c0.3,0,0.6-0.1,0.6-0.1c0,0.4,0.1,0.8,0.1,0.8l-0.7,0.8
			c-0.1,0.1-0.2,0.1-0.2,0c0-0.5-0.2-0.7-0.4-0.7C95,12.5,95,12.5,95,12.3z M96.4,10.1c0,0-0.2-0.9,0.8-1.5c0.2,0.2,0.1,0.5,0.1,0.5
			C96.7,9.5,96.7,9.8,96.4,10.1z M97.1,5.7c0-0.5,0.3-0.9,0.9-0.8C97.8,5.6,97.1,5.7,97.1,5.7z M97.2,7.9c-0.2-1,0.6-1.3,0.6-1.3
			C98,7.3,97.6,7.3,97.2,7.9z M97.8,5.7c0,0.6-0.1,0.8-0.7,1.2C97,6.1,97.4,6,97.8,5.7z M97.4,4.7C97.6,4.1,98.2,4,98.2,4
			C98.2,4.5,98,4.7,98,4.7C97.7,4.6,97.4,4.7,97.4,4.7z M98.2,5c0.2-0.3,0.5-0.1,0.3,0.3C98.3,5.6,98,5.6,98,5.6S97.9,5.3,98.2,5z
			 M98.4,4.2c0-0.2,0.3-0.3,0.4-0.1c0.1,0.2,0,0.5-0.5,0.5C98.3,4.6,98.4,4.4,98.4,4.2z M98.3,5.8c0.4-0.4,0.5,0.3,0.3,0.4
			c-0.3,0.2-0.5,0.3-0.5,0.3S98,6,98.3,5.8z M98.3,6.7c0.2-0.1,0.4-0.3,0.4-0.3c0.1,0.1,0.2,0.5-0.1,0.7c-0.4,0.2-0.4,0.3-0.4,0.3
			S97.9,6.9,98.3,6.7z M98.9,7.1L99,7.3c-0.1,0-0.3,0-0.3,0C98.8,7.2,98.9,7.1,98.9,7.1z M99.3,3.4l-0.2,0.1C98.8,3.3,98.8,3,98.8,3
			C99.2,2.9,99.3,3.4,99.3,3.4z M98.9,3.6C98.5,3.8,98,3.4,98,3.2C98.5,3,98.6,3.4,98.9,3.6z M98.1,3.8c0,0-0.4,0.3-1.1-0.2
			C97.1,3.5,97.7,3.1,98.1,3.8z M97.5,4c-0.2,0.5-0.9,0.1-1.3,0.2C96.7,3.5,97.2,4.1,97.5,4z M97.1,4.5C96.9,5,96.3,4.8,95.9,5
			C96.1,4.4,96.6,4.6,97.1,4.5z M96.9,5.1c0,0.5-0.8,0.6-1.2,1C95.7,5,96.9,5.1,96.9,5.1z M95.4,7.8c0,0,0.1,0.1,0.2,0
			c-0.1,0.4,0.1,0.6-0.1,1c0,0,0.1,0.1,0.2,0c0.1,0.4-0.2,0.6,0,1c0,0-0.2,0.2-0.5,0.4c0,0-0.5-0.4-0.9-0.2c0,0-0.5-0.3-0.9,0
			c0,0-0.1-0.1-0.4-0.1c0,0,0.3-0.4,0.2-1c0,0,0.6-0.6,1-1.3c0.5-0.7,0.6-1.3,0.9-1.6c0,0,0.1,0.2-0.1,0.4c0,0,0.1,0.1,0.2,0.1
			C95.3,7.3,95.5,7.5,95.4,7.8z M94.1,6.3c0.1,0.1,0.1,0.4,0,0.5C94,6.7,93.9,6.4,94.1,6.3z M93.5,7c0.1,0,0.2,0,0.1-0.2
			c-0.1-0.2-0.1-0.7,0.3-0.9c0,0-0.4,0.8,0.1,1.3c0,0,0.3-0.1,0.3-0.5c0-0.6-0.2-1.2,0.3-1.4c0,0-0.1,0.2,0,0.5
			c0,0.1,0.1,0.1,0.1-0.1c0-0.2,0.2-0.6,0.7-0.5c0,0-0.3,0.5-0.6,1c-0.3,0.5-0.3,0.9-1,1.9c0,0-0.1-0.7-0.6-0.7
			C93.1,7.2,93.2,7,93.5,7z M92,7.7c-0.1,0.2-0.3,0.1-0.2-0.1c0.1-0.1,0-0.3-0.2-0.1c-0.5,0.4-0.5,1.3,0.2,1.6
			c0.7,0.2,1.4-0.4,1.4-1c0-0.1-0.2-0.2-0.2,0c0,0.2-0.4,0.1-0.3-0.1c0.2-0.4,0.7-0.2,0.7,0.3c-0.1,0.8-0.9,1.3-1.7,1.1
			c-0.8-0.2-1-1.3-0.3-2C91.7,7.1,92.2,7.4,92,7.7z M91.3,5c0.1,0.1,0.2,0.4,0.1,0.6C91.2,5.4,91.2,5.1,91.3,5z M90.8,5.8
			c-0.3-0.4-0.2-0.9,0.3-1c0,0-0.2,0.8,0.4,1.2c0,0,0.4-0.6,0-1.4c0,0,0-0.4,0.3-0.5c0,0,0,0.4,0.2,0.5c0,0.1,0.1,0,0.1-0.2
			c0-0.2,0.2-0.7,0.6-0.7c0,0,0.5,0.6,0,1c-0.1,0.1,0,0.2,0.1,0.2C92.9,4.8,93,4.7,93,4.7s0.2,0.3-0.1,0.5c-1.1,0.4-1,1-1,1
			s0.7,0.1,1.1-0.6c0.1,0.4,0,0.8-0.4,0.9c-0.1,0-0.2,0.1,0,0.2c0.2,0.1,0.2,0.6-0.2,0.6c0,0-0.4-0.5-1.1-0.1c0,0-0.2-0.6-0.7-0.6
			C90.2,6.4,90.3,5.8,90.8,5.8z M92.8,5.5c-0.1,0.2-0.4,0.5-0.7,0.5C92.2,5.7,92.5,5.5,92.8,5.5z M89.3,7.1C89.2,7.2,89,7.1,89,7
			c0.1-0.2-0.1-0.3-0.2-0.1c-0.4,0.5-0.2,1.5,0.6,1.7c0.7,0.2,1.2-0.4,1.3-0.6c0.1-0.3,0.1-0.8-0.1-0.8c-0.1,0,0,0.2-0.1,0.2
			c-0.2,0.1-0.3-0.3,0-0.4c0.3-0.1,0.5,0.1,0.5,0.3c0.2,0.6-0.3,1.8-1.5,1.6c-1.1-0.2-1.2-1.5-0.8-2C89,6.3,89.5,6.7,89.3,7.1z
			 M87.3,5.7c0.1,0,0.1-0.1,0-0.2c-0.4-0.3-0.2-0.8,0.1-1c-0.1,1,0.7,1.1,0.7,1.1s0.2-0.5-0.3-1c-0.3-0.2-0.3-0.4-0.2-0.5
			c0.1-0.1,0.2,0.1,0.3,0.2c0.1,0.1,0.2,0,0.1-0.1c-0.4-0.5,0.3-1,0.3-1s0.7,0.4,0.3,1c-0.1,0.1,0,0.2,0.1,0.1
			C88.7,4.2,88.9,4,89,4.1c0.1,0.1,0.1,0.3-0.2,0.5c-0.5,0.5-0.3,1-0.3,1s0.9-0.1,0.7-1.1c0.3,0.2,0.5,0.8,0.1,1
			c-0.1,0-0.1,0.1,0,0.2c0.3,0.1,0.5,0.5,0.2,0.7c-0.3-0.2-0.8-0.2-1.2,0.4c-0.3-0.6-0.8-0.6-1.2-0.4C86.8,6.2,87,5.8,87.3,5.7z
			 M87.6,4.8c0.1,0,0.4,0.3,0.3,0.5C87.7,5.3,87.5,4.9,87.6,4.8z M88.6,5.3c0-0.2,0.2-0.5,0.3-0.5C89,4.9,88.9,5.3,88.6,5.3z
			 M86.1,7.4c-0.1,0,0-0.2-0.1-0.2c-0.2,0-0.2,0.5-0.1,0.8c0.1,0.3,0.6,0.9,1.3,0.6c0.8-0.2,0.9-1.2,0.6-1.7
			c-0.2-0.2-0.3-0.1-0.2,0.1c0.1,0.1-0.1,0.2-0.2,0.1c-0.3-0.4,0.3-0.8,0.7-0.2c0.4,0.5,0.3,1.8-0.8,2c-1.2,0.2-1.7-1-1.5-1.6
			c0.1-0.2,0.2-0.4,0.5-0.3C86.4,7,86.3,7.4,86.1,7.4z M85.2,5c0.1,0.1,0.1,0.4,0,0.6C85.1,5.4,85.1,5.1,85.2,5z M84.3,7.3
			c-0.4-0.1-0.4-0.5-0.2-0.6c0.1-0.1,0.1-0.2,0-0.2c-0.4-0.1-0.5-0.5-0.4-0.9c0.5,0.7,1.1,0.6,1.1,0.6s0-0.5-1-1
			c-0.3-0.1-0.1-0.5-0.1-0.5s0.1,0.1,0.3,0.2C84,5,84,4.8,83.9,4.8c-0.5-0.4,0-1,0-1c0.4,0.1,0.7,0.5,0.6,0.7c0,0.2,0,0.3,0.1,0.2
			c0.1-0.2,0.2-0.5,0.2-0.5c0.3,0.1,0.3,0.5,0.3,0.5c-0.4,0.8,0,1.4,0,1.4c0.5-0.4,0.4-1.2,0.4-1.2c0.4,0.1,0.5,0.6,0.3,1
			c0.5,0,0.7,0.6,0.4,0.9c-0.6,0-0.7,0.6-0.7,0.6C84.7,6.7,84.3,7.3,84.3,7.3z M83.8,5.5c0.2,0,0.6,0.2,0.7,0.5
			C84.2,5.9,83.8,5.7,83.8,5.5z M83.7,7.9c0.1,0.3-0.3,0.3-0.3,0.1c0-0.2-0.2-0.1-0.2,0c0,0.7,0.7,1.3,1.4,1
			c0.7-0.2,0.7-1.1,0.2-1.6c-0.2-0.2-0.3,0-0.2,0.1c0.1,0.1-0.1,0.3-0.2,0.1c-0.2-0.3,0.3-0.6,0.6-0.3c0.7,0.7,0.5,1.7-0.3,2
			C84,9.5,83.2,9,83.1,8.2C83,7.8,83.6,7.6,83.7,7.9z M82.5,6.3c0.2,0.1,0.1,0.4,0,0.5C82.4,6.7,82.4,6.4,82.5,6.3z M81.9,5.8
			C81.9,6,82,6,82,5.9c0.1-0.3,0-0.5,0-0.5c0.5,0.1,0.3,0.7,0.3,1.4c0,0.5,0.3,0.5,0.3,0.5C83,6.8,82.6,6,82.6,6
			c0.4,0.2,0.5,0.7,0.3,0.9c-0.1,0.1,0,0.2,0.1,0.2c0.2-0.1,0.4,0.2,0.3,0.4c-0.5,0-0.6,0.7-0.6,0.7c-0.7-1-0.7-1.3-1-1.9
			c-0.3-0.5-0.6-1-0.6-1C81.7,5.2,81.9,5.6,81.9,5.8z M80.9,7.8c0.1,0,0.2,0,0.2,0c-0.1-0.3,0.1-0.5,0-1c0.1,0,0.2-0.1,0.2-0.1
			c-0.2-0.2-0.1-0.4-0.1-0.4c0.3,0.4,0.4,0.9,0.9,1.6c0.5,0.7,1.1,1.3,1.1,1.3c-0.1,0.6,0.2,1,0.2,1C83.2,10,83,10.1,83,10.1
			c-0.4-0.3-0.9,0-0.9,0c-0.4-0.2-0.9,0.2-0.9,0.2c-0.3-0.2-0.5-0.4-0.5-0.4c0.2-0.4-0.1-0.6,0-1c0.1,0,0.2,0,0.2,0
			C80.9,8.4,81,8.2,80.9,7.8z M80.8,6.1c-0.4-0.4-1.2-0.5-1.2-1C79.6,5.1,80.8,5,80.8,6.1z M80.6,5c-0.4-0.3-1,0-1.2-0.5
			C79.9,4.6,80.4,4.4,80.6,5z M80.3,4.3C79.9,4.2,79.3,4.5,79,4C79.3,4.1,79.9,3.5,80.3,4.3z M79.5,3.5c-0.7,0.5-1.1,0.2-1.1,0.2
			C78.9,3.1,79.5,3.5,79.5,3.5z M78.6,3.2c0,0.2-0.5,0.6-0.9,0.4C77.9,3.4,78,3,78.6,3.2z M77.8,3c0,0,0,0.2-0.3,0.4l-0.2-0.1
			C77.2,3.4,77.4,2.9,77.8,3z M76.2,6.2c0.2,0.2,0,0.3-0.1,0.2C76.1,6.4,76.1,6.3,76.2,6.2z M75.7,6.7c1.1,0.1,1-0.3,0.8-0.9
			c-0.2-0.6-0.4-0.6-1.1-0.3C75.2,5.5,75,5.1,75.2,5c0.2-0.1,0.1-0.2,0-0.3c-0.2-0.2,0-0.3,0.7-0.3c0.3,0,0.3-0.1,0.3-0.2
			c0-0.3,0-0.4,0.3-0.4c0.5,0,1,0.3,1,0.3c-0.2,0.5,0.2,0.7,0.2,0.7c-0.2,0.5,0.1,0.7,0.1,0.7c-0.3,0.5-0.2,0.8-0.2,0.8
			c-0.2,0.3-0.1,0.7-0.1,0.7c-0.4,0.5-0.7,0.2-0.7,0.2s0.6-0.3,0.3-1.3c-0.2-0.7-0.6-1.1-0.6-1.1s0.2-0.2,0.4-0.2
			c0.3,0,0.3-0.1-0.1-0.3c-0.5-0.2-0.5,0-0.5,0.3c-0.1,0.1-0.2,0.2,0,0.5c0.8,0.9,0.7,2,0,2C75.8,7,75.7,6.7,75.7,6.7z M72.2,23.5
			c-0.1-0.3-0.2-0.4,0-1c0.1-0.3,0.1-0.4,0.3-0.3c0.3,0,0.2-0.3,0.4-0.6c0.1-0.2,0.1-0.3,0-0.6c-0.1-0.4-0.3-0.6-0.3-0.6
			s0.2-0.5,0.3-1c0.1-0.3-0.3-0.5-0.3-0.2c-0.1,0.7-0.6,1.5-1.7,1.5c-0.8,0-1.5-0.8-1.5-1.7c0-1,0.9-1.9,1.3-2.4
			c1.2-1.4,1.3-1.9,1.4-2.6c0.1-0.7-0.1-0.9-0.1-0.9c-0.7,0.2-0.9-0.4-0.9-0.4c0.1-0.1,0.3-0.1,0.3-0.1c-0.1-0.2-0.5-0.1-0.6-0.5
			c0.1-0.1,0.3,0,0.3,0c-0.2-0.4-0.6-0.2-0.5-0.9c0.8,0,0.7,0.6,1,0.6c0-0.2,0.1-0.3,0.1-0.3c0.3,0.3,0.1,0.5,0.3,0.7
			c0-0.1,0.1-0.2,0.1-0.2c0.3,0.4,0.1,0.9,0.1,0.9c0.8,2-1.4,3.7-2.2,4.9c-0.6,0.9-0.3,2.1,0.5,2.4c0.8,0.2,1.4-0.2,1.9-2
			c0.2-0.8,0.3-1,1-1.8c0.7-0.8,0.8-1.5,0.9-2c0.1-0.6,0.2-2.5,0.3-2.9c0-0.4,0.4-0.6,0.6-0.8c0.2-0.2,0-0.3-0.1-0.2
			c-0.3,0.3-0.6,0.4-0.6,0.4c0-0.8,0.7-0.8,1-1.3c0.1-0.2,0-0.2-0.1-0.1c-0.3,0.3-0.7,0.4-0.7,0.4c0.1-0.7,0.8-0.8,0.9-1
			c0.1-0.2,0-0.3-0.1-0.2C75.3,8.9,75,9,75,9s0.2-0.5,0.7-0.8c0.2-0.1,0.1-0.2,0-0.2c-0.1,0-0.3,0-0.3,0c0.3-0.4,0.7-0.3,0.9-0.1
			c0.1,0.1,0.1,0,0.1-0.1c0-0.1,0-0.3,0.3-0.3c0.3,0,0.4,0.2,0.4,0.3c0,0.1,0.2,0.1,0.2,0c0-0.1,0.1-0.2,0.5-0.1
			c0.4,0.1,0.5,0.4,0.5,0.4C78,8,77.9,8,78.1,8.2c0.6,0.5,0.6,0.9,0.6,0.9c-0.3-0.2-0.4-0.1-0.2,0c0.3,0.4,0.3,0.9,0.3,0.9
			s-0.2-0.1-0.3-0.2c-0.2-0.1-0.3,0-0.2,0.2c0.8,0.9,0.6,1.3,0.9,1.9c0.3,0.5,1.4,1.7,1.7,1.9c0.2,0.2,0.4-0.2,0.5-0.6
			c0-0.3,0.1-0.6,0.4-0.4c-0.3,0.4,0,0.7,0,0.7c-0.3,0.5-0.2,0.4,0.2,0.6c-0.5,0.4-0.1,1-0.1,1c-0.4,0.2-0.3,0.6-0.3,0.6
			c-0.2,0-0.4,0.2-0.4,0.2s-0.2-0.2-0.3-0.4c-0.2-0.3,0.1-0.5-0.3-0.8c-0.9-0.7-1.9-1.5-2.1-1.8c-0.3-0.3-0.3-0.2-0.4,0
			c-0.3-0.6-0.5-1.1-0.6-0.8c0,0.2-0.2,0.2-0.2,0.2c-0.2-0.7-0.1-1.4-0.5-0.9c-0.1-0.5-0.3-0.5-0.2-1.2c0-0.2-0.3-0.3-0.3,0
			c0,0.8,0.3,0.9,0.2,1.6c0,0.3,0.1,0.4,0.4,0.3c0.2,0.6,0.4,0.9,0.4,0.9c0.1-0.2,0.2-0.2,0.2-0.2c0.3,0.3,0.4,0.6,0.7,0.8
			c0-0.2,0.1-0.2,0.3-0.1c0.2,0.1,0.1,0.2,0.1,0.3c0,0.1-0.1,0.3-0.1,0.3c0-0.2-0.2-0.2-0.2-0.2c-0.2,0.2-0.1,0.7-0.5,1.1
			c0-0.2-0.1-0.2-0.1-0.2c-0.3,0.2-0.1,0.5-0.4,0.7c0-0.1-0.1-0.1-0.1-0.1S77,16.1,76.2,17c-0.4,0.5-0.3,0.9-0.8,2.4
			c-0.2,0.5-0.3,0.7-0.5,1.4c-0.2,0.7-0.3,0.6-1.7,1.8c-0.2,0.2-0.2,0.2-0.1,0.3c0,0.1,0.2,0.8,0.2,0.8c-0.3,0.1-0.1,0.4,0.1,0.4
			c1.2-0.4,1.5,0,1.5,0c-0.2-0.1-0.4,0.2-0.4,0.2c-0.5-0.3-0.6,0.3-0.6,0.3c-0.1-0.1-0.2,0-0.2,0c0.2,0.2-0.1,0.3-0.3,0.2
			c-0.3-0.2-0.4,0.2-0.6-0.1C72.5,24.4,72.3,23.9,72.2,23.5z M76.4,22.5c0.1,0.3,0.3,0.9,0.4,1.4c0.2,0.5,0.4,0.6,0.4,0.6
			c-0.2,0.1-0.5,0.1-0.5,0.1c-0.5-1.4-1.6-1.3-1.6-1.3c0,1,0.9,1.4,0.9,1.4c-0.2,0.1-0.5,0-0.5,0c-0.5-1-0.4-1.5-1.9-1.2
			c-0.1-0.3-0.2-0.7-0.2-0.7c1.4-1.1,1.7-1.4,1.8-1.8c0.1-0.4,0.2-0.8,0.2-0.8c0.3,0.5,0.4,0.5,0.7,0.6c0.3,0.1,0.2,0.2,0.5,0.9
			C76.8,22.2,76.2,22,76.4,22.5z M76.4,24.7c-0.4-0.1-0.9-0.5-1-1C75.9,23.8,76.3,24.3,76.4,24.7z M75.2,24.9c0,0-0.2-0.2-0.5-0.4
			c0,0,0-0.1,0.2-0.1C74.9,24.4,75.2,24.5,75.2,24.9z M74.4,24.8c0,0-0.2-0.1-0.4-0.3c0,0,0-0.1,0.2-0.1
			C74.3,24.4,74.5,24.6,74.4,24.8z M75.3,26.2c0.2-0.3,1.6-0.8,2-0.5C77.2,25.8,76.5,26.3,75.3,26.2z M75.5,25.4
			c-3,0.1-4.2-0.4-4.2-0.4l0.1-0.2c0.7,0.2,0.9,0.1,1.2,0.2c0.3,0.1,0.3-0.2,0.9,0c0.2,0.1,0.3,0,0.4-0.2c0.1,0,0.4,0.1,0.5,0.2
			c0.1,0.1,0.3,0.1,0.3,0c0-0.1,0-0.2,0-0.2s0.3,0,0.5,0.3c0.2,0.2,0.2,0,0.4-0.2c1.3,0,2-0.2,2-0.2c0.5,0.2,0.7-0.2,0.7-0.2
			c0.2,0.1,0.4,0.1,0.4,0.1c0.3,0.1,0.6,0.2,0.6,0.2S78,25.3,75.5,25.4z M78.7,24.3c0,0,0.1-0.1,0.2-0.1c0,0,0.3,0.2,0.3,0.4
			C79.2,24.6,78.9,24.6,78.7,24.3z M79.1,24c-0.6-0.2-0.7,0.2-0.6,0.5c-0.6-0.2-0.5,0.2-0.5,0.2s-0.1,0.2-0.3,0
			c-0.1-0.1-0.5-0.4-0.6-0.8c-0.1-0.3-0.2-0.9-0.4-1.3c-0.1-0.4,0.3-0.2,0.2-0.7c-0.1-0.3-0.2-0.8-0.3-1.2c-0.1-0.3-0.4-0.2-0.6-0.5
			c-0.2-0.2-0.4-0.5-0.4-0.5s0.3-0.6,0.6-1.8c0.1-0.7,0.4-0.8,0.4-0.8s0.2,0.6,0.8,1.2c0.2,0.2,0.3,0.4,0.3,0.8
			c0,0.5,0.2,1.1,0.3,1.7c0,0.3,0.1,0.4-0.2,0.9c-0.3,0.5-0.4,0.6-0.1,1.6c0.1,0.3,0.2,0.4,0.4,0.3c0.5-0.1,0.8-0.2,1,0
			C79.2,23.8,79.1,24,79.1,24z M79.4,24.9c0,0,0.1-0.2,0.1-0.3c0,0,0.3,0,0.5,0.2C80,24.8,79.6,24.9,79.4,24.9z M79.4,24.1
			c0,0,0-0.2,0.2-0.2c0,0,0.4,0.3,0.4,0.6C80,24.5,79.7,24.3,79.4,24.1z M78.5,23.3c-0.2,0-0.2,0-0.3-0.5c-0.1-0.5,0-0.5,0.2-0.9
			c0.2-0.3,0.3-0.5,0.3-0.8c0-0.3-0.2-1.5-0.3-2.1c-0.1-0.6-0.1-0.7-0.8-1.5c-0.3-0.4-0.5-0.8-0.5-0.8l0.3-0.4
			c0.1,0.1,0.2,0.1,0.2,0.1c0.2-0.2,0.1-0.5,0.4-0.6c0.1,0,0.2,0.1,0.2,0.1c0.2-0.3,0-0.3,0.5-0.9c0.1,0,0.2,0.1,0.2,0.1
			c0.2-0.3,0-0.5,0.4-1.1c0.3,0.2,0.7,0.6,1,0.8c0.3,0.2,0.3,0.2,0.4,0.8c0.2,0.7,0.6,0.7,0.6,0.7c0.1,0.2,0.4,0.3,0.4,0.3l0.1,2.9
			c0.1,3.7,2.7,4.7,5.8,5c-0.1,0.2-0.1,0.4-0.1,0.4s-0.6-0.1-1.1,0.2c-0.2,0.1-0.3,0.1-0.3,0.1c-0.7-1.2-1.8-1.3-1.8-1.3
			c-0.2,0.1,0,0.5,0.1,0.7c0,0.1,0.1,0.1,0.1,0.2c0,0,0-0.1-0.1-0.2c-0.7-1.2-1.8-1.5-1.8-1.5c0,0.9,0.6,1.3,0.6,1.3l-0.4-0.1
			c-0.3-1.5-1.3-1.7-1.3-1.7c-0.2,0.9,0.5,1.5,0.5,1.5l-0.3-0.1c-0.2-0.5-0.6-1-0.6-1c1-1.7,0.1-2.8,0.1-2.8c-0.4,0.5-0.5,1-0.5,1
			c-0.1-0.4-0.2-0.7-0.2-0.7c1.3-1.7,0.6-3.1,0.6-3.1c-0.5,0.3-0.7,1-0.7,1l0-0.5c0.8-1.7-0.4-2.8-0.4-2.8c-1,1.7,0.2,2.8,0.2,2.8
			l0,0.4c-0.4-1-1.2-1.3-1.2-1.3c-0.3,1.8,1.2,2.6,1.2,2.6c0,0.3,0.1,0.6,0.1,0.6c-0.4-0.4-0.9-0.6-0.9-0.6
			c-0.1,2.1,1.3,2.7,1.3,2.7c0.1,0.2,0.1,0.4,0.1,0.4c-0.7-0.4-1.2-0.4-1.2-0.4c0.1,1.2,1.1,1.7,1.1,1.7c-0.3,0-0.5,0.1-0.5,0.1
			C79.7,23.3,79.4,23.1,78.5,23.3z M85.6,25.2c-0.4-0.1-0.8-0.5-0.9-0.8C84.9,24.5,85.4,24.7,85.6,25.2z M84,24.7
			c-0.4-0.1-0.9-0.7-0.9-1C83.5,23.8,83.9,24.4,84,24.7z M82.4,24.2c-0.4-0.2-0.7-0.9-0.7-1.1C82.1,23.2,82.4,23.9,82.4,24.2z
			 M81.3,24.1c-0.4-0.1-1.2-0.6-1.3-1.2C80.6,23,81.2,23.6,81.3,24.1z M81.1,21c0.3,0.5,0.1,1.3-0.1,1.4C80.7,22,81,21.1,81.1,21z
			 M80.5,21.9c-0.6-0.3-0.9-1.3-0.9-1.6C80.2,20.7,80.4,21.5,80.5,21.9z M80.2,17.5c-0.4-0.4-0.4-1.5-0.2-1.8
			C80.4,16.2,80.3,17.2,80.2,17.5z M80.4,19.9c-0.2-0.4,0.2-1.5,0.4-1.7C81,18.6,80.7,19.8,80.4,19.9z M80,19.2
			c-0.6-0.3-0.8-1.3-0.8-1.5C79.9,18.1,80,18.9,80,19.2z M80.6,25.5c0.2-0.3,1.5-0.7,1.9-0.4C82.4,25.2,81.6,25.7,80.6,25.5z
			 M82.9,26c0.3-0.3,1.3-0.6,1.8-0.2C84.6,25.9,83.7,26.3,82.9,26z M83,24.9c-1.5-0.5-2.8-0.2-2.8-0.2l0.2-0.3
			c1.2-0.2,2-0.1,3.4,0.5c1.2,0.4,2.7,0.7,2.7,0.7l-0.6,0.1C85.9,25.8,84.9,25.6,83,24.9z M85.8,26.5c-0.3-0.1-0.2-0.4-0.2-0.4
			c0.7-0.2,1.5-0.4,1.5-0.4c0.2,0.1,0.2,0.3,0.2,0.3S86.6,26.3,85.8,26.5z M87.6,26.2c0-0.8-1-0.8-1-0.8c1-0.5,1.4,0.4,1.4,0.4
			L87.6,26.2z M88.3,24.6c0.7,0,0.6,0.6,0,0.9C87.7,25.2,87.6,24.6,88.3,24.6z M88.9,26.2l-0.5-0.4c0,0,0.4-0.9,1.4-0.4
			C89.9,25.4,88.9,25.4,88.9,26.2z M90.7,26.5c-0.8-0.3-1.5-0.4-1.5-0.4s0-0.3,0.2-0.3c0,0,0.8,0.2,1.5,0.4
			C90.9,26.2,91,26.4,90.7,26.5z M93.6,26c-0.8,0.4-1.6-0.1-1.8-0.2C92.3,25.4,93.3,25.7,93.6,26z M94,25.1c0.4-0.3,1.7,0.1,1.9,0.4
			C94.9,25.7,94.2,25.2,94,25.1z M93.6,24.9c-1.9,0.7-2.9,0.9-2.9,0.9l-0.6-0.1c0,0,1.5-0.3,2.7-0.7c1.5-0.5,2.2-0.6,3.4-0.5
			l0.2,0.3C96.4,24.8,95.1,24.4,93.6,24.9z M91,25.2c0.2-0.5,0.6-0.7,0.9-0.8C91.8,24.8,91.4,25.2,91,25.2z M92.6,24.7
			c0-0.3,0.5-0.9,0.9-1C93.5,24,93,24.6,92.6,24.7z M94.1,24.2c0-0.3,0.3-1,0.7-1.1C94.9,23.3,94.6,24,94.1,24.2z M96.5,22.8
			c-0.1,0.6-0.9,1.1-1.3,1.2C95.3,23.6,96,23,96.5,22.8z M95.4,21c0.1,0.2,0.4,1,0.1,1.4C95.4,22.3,95.1,21.5,95.4,21z M95.9,24.1
			c0,0,1-0.5,1.1-1.7c0,0-0.6,0-1.2,0.4c0,0,0-0.2,0.1-0.4c0,0,1.5-0.5,1.3-2.7c0,0-0.5,0.2-0.9,0.6c0,0,0.1-0.3,0.1-0.6
			c0,0,1.4-0.8,1.2-2.6c0,0-0.8,0.2-1.2,1.3l0-0.4c0,0,1.1-1.1,0.2-2.8c0,0-1.2,1.1-0.4,2.8l0,0.5c0,0-0.2-0.6-0.7-1
			c0,0-0.7,1.4,0.6,3.1c0,0,0,0.4-0.2,0.7c0,0-0.2-0.5-0.5-1c0,0-0.9,1.2,0.1,2.8c0,0-0.4,0.5-0.6,1l-0.3,0.1c0,0,0.7-0.6,0.5-1.5
			c0,0-1,0.2-1.3,1.7l-0.4,0.1c0,0,0.6-0.4,0.6-1.3c0,0-1.1,0.3-1.8,1.5c-0.1,0.1-0.1,0.2-0.1,0.2c0-0.1,0.1-0.1,0.1-0.2
			c0.1-0.2,0.3-0.6,0.1-0.7c0,0-1,0.1-1.8,1.3c0,0-0.1,0.1-0.3-0.1c-0.5-0.4-1.1-0.2-1.1-0.2s0.1-0.2-0.1-0.4c3.2-0.3,5.7-1.3,5.8-5
			l0.1-2.9c0,0,0.3-0.1,0.4-0.3c0,0,0.4,0,0.6-0.7c0.1-0.5,0.1-0.6,0.4-0.8c0.3-0.2,0.7-0.6,1-0.8c0.4,0.7,0.2,0.9,0.4,1.1
			c0,0,0.1-0.1,0.2-0.1c0.5,0.5,0.3,0.6,0.5,0.9c0,0,0.1-0.1,0.2-0.1c0.3,0.1,0.2,0.5,0.4,0.6c0,0,0.1,0,0.2-0.1l0.3,0.4
			c0,0-0.2,0.4-0.5,0.8c-0.6,0.8-0.7,0.9-0.8,1.5c-0.1,0.6-0.3,1.8-0.3,2.1c0,0.3,0.1,0.5,0.3,0.8c0.2,0.4,0.3,0.4,0.2,0.9
			c-0.1,0.5-0.1,0.5-0.3,0.5c-0.9-0.2-1.2,0-1.7,0.8C96.4,24.2,96.2,24.1,95.9,24.1z M97,20.3c0,0.2-0.3,1.3-0.9,1.6
			C96.1,21.5,96.3,20.7,97,20.3z M96.2,19.9c-0.3-0.2-0.6-1.3-0.4-1.7C96,18.4,96.4,19.5,96.2,19.9z M96.6,15.8
			c0.2,0.3,0.2,1.4-0.2,1.8C96.2,17.2,96.2,16.2,96.6,15.8z M96.5,19.2c0-0.3,0.2-1.2,0.8-1.5C97.4,17.9,97.1,18.9,96.5,19.2z
			 M96.6,24.8c0.2-0.2,0.5-0.2,0.5-0.2c0,0.2,0.1,0.3,0.1,0.3C96.9,24.9,96.6,24.8,96.6,24.8z M96.6,24.5c0-0.3,0.4-0.6,0.4-0.6
			c0.2,0,0.2,0.2,0.2,0.2C96.8,24.3,96.6,24.5,96.6,24.5z M98.2,23.7c0.2,0.1,0.4,0,0.4-0.3c0.3-1.1,0.3-1.1-0.1-1.6
			c-0.3-0.4-0.2-0.6-0.2-0.9c0.1-0.7,0.3-1.3,0.3-1.7c0-0.5,0.1-0.6,0.3-0.8c0.6-0.6,0.8-1.2,0.8-1.2s0.3,0.2,0.4,0.8
			c0.3,1.2,0.6,1.8,0.6,1.8s-0.3,0.3-0.4,0.5c-0.3,0.3-0.5,0.1-0.6,0.5c-0.1,0.3-0.3,0.8-0.3,1.2c-0.1,0.5,0.4,0.3,0.2,0.7
			c-0.1,0.4-0.2,0.9-0.4,1.3c-0.1,0.3-0.5,0.7-0.6,0.8c-0.2,0.1-0.3,0-0.3,0s0.1-0.4-0.5-0.2c0.2-0.3,0-0.6-0.6-0.5
			c0,0-0.1-0.2-0.2-0.2C97.4,23.6,97.7,23.6,98.2,23.7z M101,24.8c0,0-0.2,0-0.5,0c0,0,0.9-0.4,0.9-1.4c0,0-1.1-0.1-1.6,1.3
			c0,0-0.3,0-0.5-0.1c0,0,0.3-0.1,0.4-0.6c0.2-0.5,0.3-1.1,0.4-1.4c0.1-0.5-0.4-0.3-0.3-0.7c0.2-0.8,0.2-0.8,0.5-0.9
			c0.3-0.1,0.4-0.1,0.7-0.6c0,0,0.2,0.4,0.2,0.8c0.1,0.4,0.4,0.8,1.8,1.8c0,0-0.1,0.4-0.2,0.7C101.5,23.3,101.6,23.8,101,24.8z
			 M101.8,24.5c-0.3,0.3-0.5,0.4-0.5,0.4c-0.1-0.3,0.2-0.5,0.2-0.5C101.8,24.4,101.8,24.5,101.8,24.5z M100.1,24.7
			c0.1-0.4,0.6-0.9,1-1C101,24.2,100.5,24.6,100.1,24.7z M97.8,24.3c-0.2,0.2-0.5,0.3-0.5,0.3c0-0.3,0.3-0.4,0.3-0.4
			C97.8,24.2,97.8,24.3,97.8,24.3z M99.2,25.7c0.4-0.3,1.8,0.2,2,0.5C100,26.3,99.4,25.8,99.2,25.7z M105.1,24.8l0.1,0.2
			c0,0-1.2,0.5-4.2,0.4c-2.5-0.1-3.8-0.5-3.8-0.5s0.3,0,0.6-0.2c0,0,0.2,0,0.4-0.1c0,0,0.2,0.4,0.7,0.2c0,0,0.7,0.2,2,0.2
			c0.2,0.1,0.2,0.3,0.4,0.2c0.3-0.2,0.5-0.3,0.5-0.3s0.1,0.1,0.1,0.2c-0.1,0.1,0.2,0.1,0.3,0c0.1-0.1,0.4-0.2,0.5-0.2
			c0.1,0.2,0.2,0.2,0.4,0.2c0.5-0.2,0.6,0.1,0.9,0C104.2,24.9,104.4,25,105.1,24.8z M102.1,24.8c0-0.3,0.2-0.4,0.2-0.4
			c0.2,0,0.2,0.1,0.2,0.1C102.3,24.7,102.1,24.8,102.1,24.8z M103.6,19.3c0.1,0.5,0.3,1,0.3,1s-0.1,0.3-0.3,0.6
			c-0.1,0.4-0.1,0.5,0,0.6c0.2,0.3,0,0.7,0.4,0.6c0.2,0,0.2,0.1,0.3,0.3c0.2,0.6,0.1,0.6,0,1c-0.1,0.3-0.3,0.9-0.4,1
			c-0.2,0.3-0.3,0-0.6,0.1c-0.2,0.1-0.5,0-0.3-0.2c0,0-0.1-0.1-0.2,0c0,0-0.2-0.6-0.6-0.3c0,0-0.2-0.2-0.4-0.2c0,0,0.2-0.4,1.5,0
			c0.2,0.1,0.4-0.3,0.1-0.4c0,0,0.2-0.6,0.2-0.8c0-0.1,0.1-0.2-0.1-0.3c-1.4-1.2-1.5-1.1-1.7-1.8c-0.2-0.7-0.3-0.8-0.5-1.4
			c-0.6-1.4-0.4-1.9-0.8-2.4c-0.8-0.9-1.1-1.5-1.1-1.5s-0.1,0-0.1,0.1c-0.3-0.2-0.2-0.5-0.4-0.7c0,0-0.1,0.1-0.1,0.2
			c-0.4-0.3-0.3-0.8-0.5-1.1c0,0-0.1,0-0.2,0.2c0,0-0.1-0.2-0.1-0.3c0-0.1-0.1-0.2,0.1-0.3c0.2-0.1,0.2-0.1,0.3,0.1
			c0.3-0.2,0.4-0.5,0.7-0.8c0,0,0.1,0.1,0.2,0.2c0,0,0.2-0.3,0.4-0.9c0.3,0,0.4,0,0.4-0.3c-0.1-0.6,0.3-0.8,0.2-1.6
			c0-0.3-0.3-0.2-0.3,0c0,0.6-0.2,0.6-0.2,1.2c-0.4-0.5-0.3,0.2-0.5,0.9c0,0-0.1,0-0.2-0.2c-0.1-0.3-0.2,0.2-0.6,0.8
			c-0.1-0.2-0.1-0.4-0.4,0c-0.3,0.3-1.2,1.1-2.1,1.8c-0.3,0.3-0.1,0.5-0.3,0.8c-0.1,0.2-0.3,0.4-0.3,0.4s-0.1-0.2-0.4-0.2
			c0,0,0.1-0.4-0.3-0.6c0,0,0.5-0.6-0.1-1c0.3-0.1,0.4-0.1,0.2-0.6c0,0,0.3-0.3,0-0.7c0.3-0.2,0.4,0.1,0.4,0.4
			c0,0.4,0.2,0.8,0.5,0.6c0.2-0.2,1.4-1.4,1.7-1.9c0.3-0.5,0.2-0.9,0.9-1.9c0.1-0.2,0-0.3-0.2-0.2c-0.1,0.1-0.3,0.2-0.3,0.2
			s0-0.5,0.3-0.9c0.1-0.2,0-0.3-0.2,0c0,0,0-0.4,0.6-0.9C98.6,8,98.5,8,98.2,8.1c0,0,0.1-0.4,0.5-0.4c0.4-0.1,0.5,0.1,0.5,0.1
			c0,0.1,0.2,0.1,0.2,0c0-0.1,0.1-0.3,0.4-0.3c0.3,0,0.3,0.2,0.3,0.3c0,0.1,0.1,0.2,0.1,0.1c0.1-0.2,0.6-0.3,0.9,0.1
			c0,0-0.2,0-0.3,0c-0.1,0-0.2,0.1,0,0.2c0.5,0.3,0.7,0.8,0.7,0.8s-0.3,0-0.6-0.3c-0.1-0.1-0.2,0-0.1,0.2c0.2,0.3,0.8,0.3,0.9,1
			c0,0-0.4-0.1-0.7-0.4c-0.1-0.1-0.2,0-0.1,0.1c0.2,0.4,0.9,0.5,1,1.3c0,0-0.3-0.1-0.6-0.4c-0.1-0.1-0.2,0-0.1,0.2
			c0.2,0.2,0.5,0.4,0.6,0.8c0,0.4,0.2,2.3,0.3,2.9c0.1,0.6,0.3,1.2,0.9,2c0.7,0.8,0.8,1,1,1.8c0.5,1.7,1.1,2.2,1.9,2
			c0.8-0.2,1.1-1.5,0.5-2.4c-0.8-1.2-3-2.9-2.2-4.9c0,0-0.3-0.5,0.1-0.9c0,0,0.1,0.1,0.1,0.2c0.2-0.2,0-0.5,0.3-0.7
			c0,0,0.1,0.1,0.1,0.3c0.3-0.1,0.2-0.7,1-0.6c0.1,0.7-0.3,0.5-0.5,0.9c0,0,0.2-0.1,0.3,0c-0.1,0.5-0.5,0.3-0.6,0.5
			c0,0,0.2,0,0.3,0.1c0,0-0.2,0.6-0.9,0.4c0,0-0.2,0.2-0.1,0.9c0.1,0.6,0.2,1.2,1.4,2.6c0.4,0.5,1.3,1.4,1.3,2.4
			c0,0.9-0.6,1.7-1.5,1.7c-1.1,0-1.5-0.8-1.7-1.5C103.9,18.8,103.6,18.9,103.6,19.3z"/>
	</g>
	<g>
		<path class="st0" d="M251.3,25.4l-1.6-4.7h-8.8l-1.6,4.7h-4.9l7.7-22h6.3l7.7,22H251.3z M242.2,16.6h6.1l-3-9h-0.2L242.2,16.6z"/>
		<path class="st0" d="M269.3,8.9l-0.7,4.2h-0.2c-0.4-0.6-1.4-1.2-2.5-1.2c-2.2,0-3,1.9-3,4.6v9h-4.4V7.9h3.6l0.3,2.3h0.1
			c0.7-1.5,1.9-2.7,3.9-2.7C267.5,7.5,268.7,8,269.3,8.9z"/>
		<path class="st0" d="M276.2,9.7c0.9-1.4,2.8-2.2,4.6-2.2c4.9,0,8,4.1,8,9.3c0,5.2-2.9,9.1-7.9,9.1c-2.5,0-4.3-1.2-5.2-2.7h-0.1
			l-0.4,2.3h-3.4V2.1h4.4L276.2,9.7L276.2,9.7z M276,16.7c0,2.9,1.7,5,4.3,5c2.8,0,4.1-2.3,4.1-5c0-2.4-1.4-5.2-4.1-5.2
			C277.6,11.6,276,13.9,276,16.7z"/>
		<path class="st0" d="M307.6,16.7c0,0.5,0,1.3,0,1.3h-12c0,2.2,1.8,3.8,4,3.8c2.1,0,4.1-1.4,4.8-2.7h0.2l2,3.8
			c-0.7,1.1-3.2,3-7.1,3c-5.1,0-8.6-3.5-8.6-9c0-5.6,3.6-9.3,8.3-9.3C304,7.5,307.6,11.2,307.6,16.7z M295.6,14.6h7.3
			c-0.1-1.2-1.3-3-3.6-3C296.9,11.6,295.8,13.4,295.6,14.6z"/>
		<path class="st0" d="M315.7,2.8c0,1.7-1,2.8-2.8,2.8c-1.9,0-2.9-1.2-2.9-2.8c0-1.7,1-2.8,2.9-2.8C314.7,0,315.7,1.1,315.7,2.8z
			 M310.7,25.4V7.9h4.4v17.6H310.7z"/>
		<path class="st0" d="M330,7.9v4.1h-4.9v7.9c0,1,0.3,1.4,1.1,1.4c0.8,0,1.6-0.4,2.3-0.9h0.2l1.1,4.3c-0.8,0.5-2.5,1.2-4.4,1.2
			c-2.7,0-4.7-1.4-4.7-4.8v-9h-2.9V9.4c2.3-0.9,3.8-3.3,4.5-5.9h2.7v4.4H330z"/>
	</g>
</g>
</svg>
