<?xml version="1.0" encoding="utf-8"?>
<!-- Generator: Adobe Illustrator 21.1.0, SVG Export Plug-In . SVG Version: 6.00 Build 0)  -->
<svg version="1.1" id="Ebene_1" xmlns="http://www.w3.org/2000/svg" xmlns:xlink="http://www.w3.org/1999/xlink" x="0px" y="0px"
	 viewBox="0 0 122 30" style="enable-background:new 0 0 122 30;" xml:space="preserve">
<g>
	<path class="st0" d="M6.1,4.2C4.7,4.2,3.3,4,3.3,4S1.1,9.2,0.9,9.6c-0.1,0.3,0.2,0.5,0.4,0.1c0.6-1,3.3-4.4,8.6-4.4h2.7L0,26.4
		h15.4c0,0,2.5-5.4,2.6-5.7s-0.2-0.4-0.3-0.1c-0.6,1.2-4.3,4.6-9,4.6H5.4l12.8-21H6.1z M3.5,25.1c0,0.1-0.2,0.1-0.2,0.1l0,0H2.6
		c-0.1,0-0.1-0.1-0.1-0.1L14.4,5.5c0.1-0.1,0.2-0.1,0.2-0.1h0.7c0.1,0,0.1,0.1,0.1,0.1L3.5,25.1z"/>
</g>
<rect x="29.4" y="1.9" class="st1" width="1" height="26"/>
<g>
	<path class="st0" d="M54.5,24.9l-1.4-4h-7.5l-1.3,4h-4.1l6.6-18.7h5.4l6.6,18.7H54.5z M46.8,17.3H52l-2.5-7.6h-0.1L46.8,17.3z"/>
	<path class="st0" d="M69.9,10.7l-0.6,3.6h-0.2c-0.4-0.5-1.2-1-2.1-1c-1.9,0-2.6,1.6-2.6,3.9v7.6h-3.7v-15h3.1l0.2,2H64
		c0.6-1.3,1.6-2.3,3.3-2.3C68.4,9.6,69.4,10.1,69.9,10.7z"/>
	<path class="st0" d="M75.8,11.4c0.8-1.2,2.4-1.9,3.9-1.9c4.2,0,6.8,3.5,6.8,7.9c0,4.4-2.5,7.7-6.7,7.7c-2.1,0-3.7-1-4.5-2.3h-0.1
		l-0.4,2H72V5h3.7L75.8,11.4L75.8,11.4z M75.6,17.5c0,2.5,1.4,4.3,3.7,4.3c2.4,0,3.5-2,3.5-4.3c0-2-1.2-4.4-3.5-4.4
		C76.9,13,75.6,15,75.6,17.5z"/>
	<path class="st0" d="M102.5,17.4c0,0.4,0,1.1,0,1.1H92.2c0,1.8,1.5,3.2,3.4,3.2c1.8,0,3.5-1.2,4.1-2.3h0.2l1.7,3.2
		c-0.6,0.9-2.8,2.6-6,2.6c-4.3,0-7.3-3-7.3-7.7c0-4.8,3.1-7.9,7.1-7.9C99.4,9.6,102.5,12.7,102.5,17.4z M92.3,15.6h6.2
		c-0.1-1-1.1-2.6-3.1-2.6C93.4,13,92.5,14.6,92.3,15.6z"/>
	<path class="st0" d="M109.4,5.6c0,1.4-0.9,2.4-2.4,2.4c-1.6,0-2.5-1-2.5-2.4c0-1.4,0.9-2.4,2.5-2.4C108.5,3.2,109.4,4.2,109.4,5.6z
		 M105.1,24.9v-15h3.7v15H105.1z"/>
	<path class="st0" d="M121.6,9.9v3.5h-4.1v6.8c0,0.9,0.3,1.2,1,1.2c0.6,0,1.4-0.3,2-0.8h0.2l0.9,3.7c-0.7,0.4-2.1,1-3.7,1
		c-2.3,0-4-1.2-4-4.1v-7.7h-2.5v-2.2c2-0.8,3.2-2.8,3.9-5.1h2.3v3.7H121.6z"/>
</g>
</svg>
