<?xml version="1.0" encoding="utf-8"?>
<svg width="22px" height="22px" viewBox="0 0 22 22" version="1.1" xmlns="http://www.w3.org/2000/svg" xmlns:xlink="http://www.w3.org/1999/xlink">
    <title>Whatsapp</title>
    <path fill="#FFFFFF" d="M18.7946606,3.1970825C16.7265682,1.1365204,13.9761677,0.0011587,11.0459232,0 C5.0082126,0,0.0942627,4.89009,0.091846,10.9008141c-0.0008049,1.9213428,0.5036221,3.7968941,1.4621544,5.4500484L-0.0000004,22 l5.8069153-1.5159264c1.5999088,0.8684502,3.4012933,1.3261356,5.234652,1.3269081h0.0045052 c6.0370846,0,10.9514828-4.8907452,10.953928-10.9014683C22.001133,7.9966278,20.8628159,5.2576447,18.7946606,3.1970825  M11.0460415,19.9697876h-0.0037289c-1.6336765-0.0006542-3.2360635-0.4374027-4.6339021-1.26297l-0.3324871-0.196413 l-3.4458599,0.899601l0.9197826-3.3436069l-0.216507-0.3427582c-0.9113712-1.4426937-1.3927393-3.1101017-1.392024-4.8221436 c0.0019989-4.9958706,4.0863123-9.0603037,9.1083374-9.0603037c2.4317532,0.0009203,4.7177563,0.9446507,6.436718,2.6573162 c1.7189636,1.7126656,2.6650848,3.9892111,2.6641598,6.4102926C20.1484432,15.905056,16.0642185,19.9697876,11.0460415,19.9697876  M16.0400562,13.1836548c-0.2737217-0.1363373-1.61936-0.7953358-1.8702602-0.8862076 c-0.2508717-0.0909004-0.4333439-0.1363373-0.6158142,0.1363373c-0.1824417,0.2726746-0.706974,0.8862381-0.866684,1.0680103 c-0.1595917,0.1818027-0.319273,0.2045517-0.5929947,0.0681839c-0.2736626-0.1363373-1.1555901-0.4239502-2.2010174-1.3519707 c-0.8136177-0.7222519-1.3629684-1.6143398-1.5226192-1.8870144C8.2110157,10.0582886,8.353693,9.9108448,8.4907017,9.7750721 c0.1231098-0.1220531,0.2736931-0.31814,0.410553-0.4772243C9.0380859,9.138792,9.0836964,9.0251713,9.1749172,8.843399 c0.0912495-0.1818027,0.0456409-0.340889-0.022789-0.4772263c-0.0684319-0.1363373-0.6157856-1.4770813-0.843895-2.0224609 c-0.222147-0.5311546-0.4478116-0.4592896-0.6158147-0.4676037c-0.1594734-0.0078993-0.342123-0.0095921-0.5245628-0.0095921 c-0.1824722,0-0.4789829,0.0681829-0.7298851,0.3408585C6.187099,6.4800787,5.4800658,7.1390781,5.4800658,8.4797916 c0,1.3407173,0.9807262,2.6359653,1.1175861,2.8177986c0.1368313,0.1818027,1.9299798,2.9331398,4.6756063,4.1130466 c0.6530132,0.2806339,1.1628685,0.4481831,1.5603256,0.5738297c0.6556969,0.207222,1.2523594,0.1780014,1.7239742,0.1078873 c0.5258465-0.0781918,1.6193295-0.6589985,1.8474102-1.2952785s0.2280807-1.1816597,0.1596508-1.2952805 C16.4962177,13.3882065,16.3137474,13.3200226,16.0400562,13.1836548"/>
</svg>
