<?xml version="1.0" encoding="utf-8"?>
<svg width="17px" height="14px" viewBox="0 0 17 14" version="1.1" xmlns="http://www.w3.org/2000/svg" xmlns:xlink="http://www.w3.org/1999/xlink">
	<title>Synchronisierung</title>
	<path role="presentation" fill="#707070" d="M13.3368711,2.0863674l-1.537097,1.6137917c-0.834527-0.8760993-1.9872665-1.4178998-3.2605753-1.4178998
		c-2.5466576,0-4.6111259,2.1684148-4.6111259,4.8421125c0,0.0006924,0-0.0006933,0,0h1.7912717l-2.8611989,3.0027103L0,7.1243715
		h1.7542185c0-0.0003471,0,0.0002594,0,0C1.7542185,3.1902418,4.7919784,0,8.5391989,0
		C10.4127884,0,12.1090755,0.7973006,13.3368711,2.0863674L13.3368711,2.0863674z M17,6.8756289l-2.8581457-3.0027537
		l-2.8611994,3.0027537h1.7912722c0,0.0006928,0-0.0007367,0,0c0,2.673697-2.0644684,4.8421121-4.6111259,4.8421121
		c-1.2733083,0-2.4260898-0.5418444-3.2605753-1.4179001l-1.5370972,1.6137915C4.8910074,13.2026997,6.5872526,14,8.4608011,14
		c3.747179,0,6.7849808-3.1902418,6.7849808-7.1243277c0-0.0003033,0,0.0003467,0,0H17V6.8756289z"/>
</svg>
