<?xml version="1.0" encoding="UTF-8"?>
<svg width="17px" height="17px" viewBox="0 0 17 17" version="1.1" xmlns="http://www.w3.org/2000/svg" xmlns:xlink="http://www.w3.org/1999/xlink">
    <!-- Generator: Sketch 46.2 (44496) - http://www.bohemiancoding.com/sketch -->
    <title>spotify-icon</title>
    <desc>Created with Sketch.</desc>
    <defs></defs>
    <g id="Andere-Assets" stroke="none" stroke-width="1" fill="none" fill-rule="evenodd">
        <g id="Artboard" transform="translate(-48.000000, -65.000000)" fill-rule="nonzero" fill="#44444C">
            <path d="M60.472449,76.9745918 C60.472449,76.7386735 60.3614286,76.5495918 60.1411224,76.4108163 C58.7169388,75.562551 57.0672449,75.137551 55.1937755,75.137551 C54.2119388,75.137551 53.1537755,75.262449 52.017551,75.5139796 C51.7070408,75.579898 51.5526531,75.772449 51.5526531,76.089898 C51.5526531,76.2373469 51.6029592,76.3639796 51.7018367,76.4715306 C51.8007143,76.5790816 51.932551,76.6328571 52.0938776,76.6328571 C52.1303061,76.6328571 52.2673469,76.6033673 52.5032653,76.5443878 C53.4764286,76.344898 54.3732653,76.2460204 55.1920408,76.2460204 C56.8590816,76.2460204 58.324898,76.6259184 59.5860204,77.3857143 C59.7265306,77.4672449 59.8479592,77.5071429 59.9520408,77.5071429 C60.092551,77.5071429 60.2139796,77.4568367 60.3180612,77.3579592 C60.4221429,77.2573469 60.472449,77.1307143 60.472449,76.9745918 L60.472449,76.9745918 Z M61.5358163,74.5963265 C61.5358163,74.3014286 61.407449,74.0759184 61.1489796,73.9215306 C59.4004082,72.8807143 57.3777551,72.3603061 55.0844898,72.3603061 C53.9552041,72.3603061 52.8380612,72.5146939 51.7313265,72.8252041 C51.377449,72.9206122 51.2005102,73.1565306 51.2005102,73.5329592 C51.2005102,73.7168367 51.2646939,73.8746939 51.3947959,74.0030612 C51.5231633,74.1314286 51.6810204,74.1973469 51.864898,74.1973469 C51.9169388,74.1973469 52.0522449,74.1678571 52.2742857,74.1088776 C53.1745918,73.8660204 54.1009184,73.7428571 55.0515306,73.7428571 C57.1106122,73.7428571 58.9112245,74.2008163 60.4533673,75.115 C60.6303061,75.2104082 60.7708163,75.2589796 60.8731633,75.2589796 C61.0570408,75.2589796 61.214898,75.1947959 61.3432653,75.0646939 C61.4716327,74.9363265 61.5358163,74.7802041 61.5358163,74.5963265 L61.5358163,74.5963265 Z M62.7310204,71.8503061 C62.7310204,71.5033673 62.5835714,71.244898 62.2886735,71.074898 C61.3588776,70.5354082 60.2781633,70.1277551 59.0465306,69.8519388 C57.814898,69.5743878 56.5485714,69.4373469 55.2510204,69.4373469 C53.7453061,69.4373469 52.4026531,69.6108163 51.2230612,69.9577551 C51.0530612,70.0097959 50.9108163,70.1034694 50.7963265,70.2405102 C50.6818367,70.377551 50.6245918,70.5562245 50.6245918,70.7765306 C50.6245918,71.0055102 50.7009184,71.1963265 50.8518367,71.352449 C51.0027551,71.5068367 51.1935714,71.584898 51.422551,71.584898 C51.5040816,71.584898 51.6515306,71.5554082 51.864898,71.4964286 C52.8467347,71.2240816 53.9794898,71.0870408 55.2631633,71.0870408 C56.4358163,71.0870408 57.5789796,71.2119388 58.6891837,71.4634694 C59.7993878,71.715 60.7343878,72.0654082 61.4941837,72.5146939 C61.6485714,72.6031633 61.7960204,72.6482653 61.9365306,72.6482653 C62.149898,72.6482653 62.3372449,72.5719388 62.495102,72.4210204 C62.6512245,72.270102 62.7310204,72.0792857 62.7310204,71.8503061 L62.7310204,71.8503061 Z M65,73.5 C65,75.0421429 64.620102,76.4645918 63.8603061,77.7673469 C63.1005102,79.0683673 62.0683673,80.1005102 60.7673469,80.8603061 C59.4645918,81.620102 58.0421429,82 56.5,82 C54.9578571,82 53.5354082,81.620102 52.2326531,80.8603061 C50.9316327,80.1005102 49.8994898,79.0683673 49.1396939,77.7673469 C48.379898,76.4645918 48,75.0421429 48,73.5 C48,71.9578571 48.379898,70.5354082 49.1396939,69.2326531 C49.8994898,67.9316327 50.9316327,66.8994898 52.2326531,66.1396939 C53.5354082,65.379898 54.9578571,65 56.5,65 C58.0421429,65 59.4645918,65.379898 60.7673469,66.1396939 C62.0683673,66.8994898 63.1005102,67.9316327 63.8603061,69.2326531 C64.620102,70.5354082 65,71.9578571 65,73.5 Z" id="spotify-icon"></path>
        </g>
    </g>
</svg>