<?xml version="1.0" encoding="UTF-8"?>
<svg width="17px" height="17px" viewBox="0 0 17 17" version="1.1" xmlns="http://www.w3.org/2000/svg" xmlns:xlink="http://www.w3.org/1999/xlink">
    <!-- Generator: Sketch 49.3 (51167) - http://www.bohemiancoding.com/sketch -->
    <title>alexaskill-icon</title>
    <desc>Created with Sketch.</desc>
    <defs></defs>
    <g stroke="none" stroke-width="1" fill="none" fill-rule="evenodd">
        <g transform="translate(-72.000000, -50.000000)" fill="#44444C">
            <path d="M79.1673911,66.8926008 L79.1673911,65.2077226 C79.1673911,64.6088649 78.8005155,64.0744466 78.2437582,63.8381684 C76.1610735,62.9549176 74.7038815,60.8868392 74.7038815,58.5 C74.7038815,55.318407 77.2934903,52.7038815 80.5,52.7038815 C83.7073688,52.7038815 86.2961185,55.318407 86.2961185,58.5 C86.2961185,62.2538158 83.3920449,65.8022844 79.1673911,66.8926008 M80.5,50 C75.7976347,50 72,53.83458 72,58.5 C72,63.16542 75.7976347,67 80.5,67 C85.2023653,67 89,63.16542 89,58.5 C89,53.83458 85.2023653,50 80.5,50"></path>
        </g>
    </g>
</svg>
