<?xml version="1.0" encoding="utf-8"?>
<svg width="60px" height="60px" viewBox="0 0 60 60" version="1.1" xmlns="http://www.w3.org/2000/svg" xmlns:xlink="http://www.w3.org/1999/xlink">
	<title>Avatar</title>
	<path fill="#ABABAB" d="M30,60c8.568,0,16.299-3.593,21.764-9.354c-0.338-1.17-0.801-2.104-1.477-2.604
		c-2.102-1.558-4.676-2.836-8.15-4.275c-3.301-1.367-6.576-2.173-7.246-2.173c-0.182-0.58-0.398-1.195-0.652-2.21
		c3.984-3.297,4.637-11.359,4.637-12.969c0-8.405-2.645-11.738-8.875-11.738c-6.231,0-8.875,3.333-8.875,11.738
		c0,1.61,0.652,9.672,4.637,12.969c-0.254,1.015-0.471,1.63-0.652,2.21c-0.67,0-3.946,0.806-7.245,2.173
		c-3.475,1.439-6.05,2.718-8.151,4.275c-0.675,0.501-1.139,1.435-1.478,2.604C13.702,56.407,21.431,60,30,60z"/>
</svg>
