<?xml version="1.0" encoding="utf-8"?>
<!-- Generator: Adobe Illustrator 15.0.2, SVG Export Plug-In . SVG Version: 6.00 Build 0)  -->
<!DOCTYPE svg PUBLIC "-//W3C//DTD SVG 1.1//EN" "http://www.w3.org/Graphics/SVG/1.1/DTD/svg11.dtd">
<svg version="1.1" id="Ebene_1" xmlns="http://www.w3.org/2000/svg" xmlns:xlink="http://www.w3.org/1999/xlink" x="0px" y="0px"
     width="80px" height="80px" viewBox="0 0 80 80" enable-background="new 0 0 80 80" xml:space="preserve">
<title>Twitter</title>
<path fill="#252525" d="M40.002,0C17.91,0,0,17.913,0,40.002C0,62.093,17.91,80,40.002,80C62.093,80,80,62.093,80,40.002
	C80,17.913,62.093,0,40.002,0z M60.151,31.937c0.021,0.433,0.028,0.868,0.028,1.304c0,13.322-10.14,28.684-28.682,28.684
	c-5.691,0-10.991-1.669-15.454-4.529c0.79,0.092,1.593,0.14,2.405,0.14c4.725,0,9.07-1.612,12.52-4.315
	c-4.41-0.082-8.131-2.996-9.415-7c0.614,0.119,1.245,0.181,1.896,0.181c0.92,0,1.812-0.122,2.657-0.354
	c-4.612-0.927-8.088-5.002-8.088-9.884c0-0.044,0-0.085,0.003-0.128c1.358,0.755,2.913,1.209,4.565,1.263
	c-2.706-1.812-4.486-4.894-4.486-8.392c0-1.848,0.499-3.58,1.366-5.069c4.971,6.1,12.401,10.112,20.78,10.532
	c-0.174-0.737-0.262-1.507-0.262-2.297c0-5.566,4.513-10.08,10.081-10.08c2.899,0,5.519,1.225,7.357,3.182
	c2.297-0.451,4.455-1.291,6.402-2.446c-0.755,2.356-2.353,4.331-4.436,5.578c2.042-0.244,3.985-0.787,5.792-1.588
	C63.832,28.738,62.122,30.516,60.151,31.937z"/>
</svg>
