<?xml version="1.0" encoding="utf-8"?>
<!-- Generator: Adobe Illustrator 15.0.2, SVG Export Plug-In . SVG Version: 6.00 Build 0)  -->
<!DOCTYPE svg PUBLIC "-//W3C//DTD SVG 1.1//EN" "http://www.w3.org/Graphics/SVG/1.1/DTD/svg11.dtd">
<svg version="1.1" id="Ebene_1" xmlns="http://www.w3.org/2000/svg" xmlns:xlink="http://www.w3.org/1999/xlink" x="0px" y="0px"
     width="80px" height="80px" viewBox="0 0 80 80" enable-background="new 0 0 80 80" xml:space="preserve">
<title>Kommentare</title>
<path fill="#252525" d="M40.002,0C17.91,0,0,17.913,0,40.002S17.91,80,40.002,80C62.093,80,80,62.092,80,40.002S62.093,0,40.002,0z
	 M61.325,50.479c0,0.55-0.45,1-1,1h-7.627v6.59c0,1.1-0.675,1.405-1.501,0.678l-8.248-7.268H19.676c-0.55,0-1-0.45-1-1v-26.33
	c0-0.55,0.45-1,1-1h40.649c0.55,0,1,0.45,1,1V50.479z"/>
</svg>
