<?xml version="1.0" encoding="UTF-8" standalone="no"?>
<svg width="80px" height="80px" viewBox="0 0 80 80" version="1.1" xmlns="http://www.w3.org/2000/svg" xmlns:xlink="http://www.w3.org/1999/xlink">
<title>Meistgelesen</title>
    <g id="Page-1" stroke="none" stroke-width="1" fill="none" fill-rule="evenodd">
        <path d="M40.002,0 C17.91,0 0,17.913 0,40.002 C0,62.092 17.91,80 40.002,80 C62.092,80 80,62.093 80,40.002 C80,17.912 62.093,0 40.002,0 L40.002,0 Z M65.4303064,40.5 C59.496702,48.7013347 50.0898365,54 39.5,54 C28.9101635,54 19.503298,48.7013347 13.5696936,40.5 C19.503298,32.2986653 28.9101635,27 39.5,27 C50.0898365,27 59.496702,32.2986653 65.4303064,40.5 Z M40,45 C42.7614237,45 45,42.7614237 45,40 C45,37.2385763 42.7614237,35 40,35 C37.2385763,35 35,37.2385763 35,40 C35,42.7614237 37.2385763,45 40,45 Z" id="zmo_meistgelesen" fill="#252525"></path>
    </g>
</svg>
