<?xml version="1.0" encoding="utf-8"?>
<!-- Generator: Adobe Illustrator 15.0.2, SVG Export Plug-In . SVG Version: 6.00 Build 0)  -->
<!DOCTYPE svg PUBLIC "-//W3C//DTD SVG 1.1//EN" "http://www.w3.org/Graphics/SVG/1.1/DTD/svg11.dtd">
<svg version="1.1" id="Ebene_1" xmlns="http://www.w3.org/2000/svg" xmlns:xlink="http://www.w3.org/1999/xlink" x="0px" y="0px"
     width="80px" height="80px" viewBox="0 0 80 80" enable-background="new 0 0 80 80" xml:space="preserve">
<title>Facebook</title>
<path fill="#252525" d="M40,0C17.909,0,0,17.913,0,40.001C0,62.093,17.909,80,40,80s40-17.907,40-39.999C80,17.913,62.091,0,40,0z
	 M50.589,39.833h-6.926c0,11.07,0,24.702,0,24.702H33.395c0,0,0-13.492,0-24.702h-4.881v-8.722h4.881v-5.65
	c0-4.045,1.921-10.359,10.362-10.359l7.601,0.028v8.472c0,0-4.622,0-5.52,0c-0.899,0-2.175,0.45-2.175,2.373v5.137h7.825
	L50.589,39.833z"/>
</svg>
