<?xml version="1.0" encoding="utf-8"?>
<!-- Generator: Adobe Illustrator 16.0.0, SVG Export Plug-In . SVG Version: 6.00 Build 0)  -->
<!DOCTYPE svg PUBLIC "-//W3C//DTD SVG 1.1//EN" "http://www.w3.org/Graphics/SVG/1.1/DTD/svg11.dtd">
<svg version="1.1" id="Ebene_1" xmlns="http://www.w3.org/2000/svg" xmlns:xlink="http://www.w3.org/1999/xlink" x="0px" y="0px"
	 width="39.999px" height="29px" viewBox="0 0 39.999 29" enable-background="new 0 0 39.999 29" xml:space="preserve">
<title>Gallerie</title>
<g opacity="0.2">
	<polygon points="2,11.654 2,26.647 22.474,26.647 22.474,24.816 22.474,20.279 22.474,18.254 22.474,11.654 5.691,11.654
		3.389,11.654 	"/>
	<polygon points="37.712,10.307 30.063,9.103 31.597,18.843 24.474,19.964 24.474,23.399 35.38,25.117 	"/>
	<polygon points="24.474,17.939 29.31,17.178 26.978,2.366 6.756,5.551 7.401,9.654 24.474,9.654 	"/>
</g>
<path fill="#FFFFFF" d="M29.737,7.026l-1.094-6.947L4.469,3.886l0.907,5.769H0v18.993h24.474v-3.223l12.572,1.979l2.953-18.763
	L29.737,7.026z M22.474,18.254v2.025v4.537v1.831H2V11.654h1.389h2.303h16.782V18.254z M7.401,9.654L6.756,5.551l20.222-3.185
	l2.332,14.812l-4.836,0.762V9.654H7.401z M35.38,25.117l-10.906-1.718v-3.436l7.123-1.121l-1.533-9.74l7.648,1.204L35.38,25.117z"/>
</svg>
