<?xml version="1.0" encoding="utf-8"?>
<svg width="19px" height="18px" viewBox="0 0 19 18" version="1.1" xmlns="http://www.w3.org/2000/svg" xmlns:xlink="http://www.w3.org/1999/xlink" x="0px" y="0px">
<title>Google</title>
<g id="google">
	<path fill="#FFFFFF" d="M5.5,15.8c-1.6,0-2.9-1-2.9-2.3c0-1.2,1.5-2.2,3.2-2.2l0,0c0.4,0,0.7,0.1,1.1,0.2c0.1,0.1,0.2,0.2,0.3,0.2
		c0.8,0.5,1.3,0.9,1.5,1.5c0,0.1,0.1,0.3,0.1,0.4C8.8,15.1,7.7,15.8,5.5,15.8 M3.7,4.5c-0.1-0.8,0.1-1.6,0.5-2C4.4,2.2,4.8,2,5.2,2
		l0,0c1.1,0,2.2,1.3,2.4,2.7c0.1,0.8-0.1,1.6-0.5,2.1c-0.3,0.3-0.6,0.5-1,0.5h0h0C5,7.2,3.9,6,3.7,4.5 M8.9,9.9
		c-0.6-0.4-1.1-1-1.2-1.2c0-0.3,0-0.5,0.8-1.1c1-0.8,1.6-1.8,1.6-2.9c0-1-0.3-1.9-0.8-2.5h0.4c0.1,0,0.2,0,0.2-0.1l1.1-0.8
		c0.1-0.1,0.2-0.3,0.1-0.4c-0.1-0.2-0.2-0.3-0.4-0.3h-5c-0.5,0-1.1,0.1-1.7,0.3C2.4,1.4,1.1,3,1.1,4.6c0,2.3,1.8,4,4.1,4
		c0,0.2-0.1,0.4-0.1,0.5c0,0.3,0.1,0.7,0.3,1c0,0,0,0-0.1,0c-2.2,0-4.3,1.1-5,2.7C0.1,13.2,0,13.7,0,14.1c0,0.4,0.1,0.8,0.3,1.2
		c0.5,0.9,1.5,1.5,2.9,1.9c0.7,0.2,1.5,0.3,2.3,0.3c0.7,0,1.4-0.1,2.1-0.3c2-0.6,3.3-2,3.3-3.7C10.9,11.8,10.3,10.8,8.9,9.9z
		 M18.5,7.4h-2.9V4.5c0-0.2-0.2-0.4-0.4-0.4h-0.8c-0.2,0-0.4,0.2-0.4,0.4v2.8h-2.9c-0.2,0-0.4,0.2-0.4,0.4v0.8C10.8,8.8,11,9,11.2,9
		h2.9v2.8c0,0.2,0.2,0.4,0.4,0.4h0.8c0.2,0,0.4-0.2,0.4-0.4V9h2.9c0.2,0,0.4-0.2,0.4-0.4V7.8C18.9,7.5,18.8,7.4,18.5,7.4z"/>
</g>
</svg>
