<?xml version="1.0" encoding="utf-8"?>
<svg width="260.6px" height="25px" viewBox="0 0 260.6 25" version="1.1" xmlns="http://www.w3.org/2000/svg" xmlns:xlink="http://www.w3.org/1999/xlink">
<title>ZEIT Magazin Online</title>
<g id="ZEIT">
	<path fill="#FFFFFF" d="M17.5,17.2c-0.6,1.2-4.2,4.5-8.9,4.5H5.4L18,1H6.1C4.6,1,3.3,0.9,3.3,0.9S1.1,5.9,0.9,6.3
		C0.7,6.6,1.1,6.8,1.2,6.5c0.6-1,3.2-4.3,8.5-4.3h2.7L0,23h15.2c0,0,2.4-5.3,2.5-5.6C17.9,17.1,17.6,17,17.5,17.2z M3.2,21.8H2.7
		c-0.1,0-0.1,0,0-0.1L14.4,2.3c0-0.1,0.1-0.1,0.2-0.1h0.4c0.1,0,0.1,0,0,0.1L3.4,21.7C3.4,21.7,3.3,21.8,3.2,21.8z"/>
	<path fill="#FFFFFF" d="M28.5,2.2c4,0,7.2,1.5,9.3,4.7c0.1,0.2,0.4,0.1,0.3-0.1C38,6.5,35.7,1,35.7,1h-16c-0.2,0-0.2,0.5,0,0.5
		c0.8,0,2.2,0.9,2.2,2v16.3c0,1.5-1,2.6-2.2,2.6c-0.2,0-0.2,0.5,0,0.5h16.1c0,0,2.2-5.3,2.3-5.5c0.1-0.2-0.2-0.4-0.3-0.1
		c-0.9,1.7-4.3,4.5-8.8,4.5h-3.1v-9.2h4.1c2.7,0,4,1.9,4.4,2.4c0.2,0.2,0.5,0.1,0.4-0.1c-0.1-0.3-1.4-2.8-1.4-2.8s1.3-2.5,1.4-2.8
		S34.5,8.7,34.4,9s-2.1,2.3-4.9,2.3h-3.7V2.2H28.5L28.5,2.2z M24.3,21.7c0,0.1,0,0.1-0.1,0.1h-0.4c-0.1,0-0.1,0-0.1-0.1V2.3
		c0-0.1,0-0.1,0.1-0.1h0.4c0.1,0,0.1,0,0.1,0.1V21.7z"/>
	<path fill="#FFFFFF" d="M48.7,22.4c-0.7,0-1.9-0.7-1.9-1.8V3.2c0-1.1,1.2-1.7,1.8-1.7c0.2,0,0.2-0.5,0-0.5h-7.8
		c-0.2,0-0.2,0.5,0,0.5c0.5,0,1.8,0.7,1.8,1.7v17.4c0,1.1-1.1,1.8-1.8,1.8c-0.2,0-0.2,0.5,0,0.5h7.9C49,23,48.9,22.4,48.7,22.4z
		 M45.1,21.7c0,0.1,0,0.1-0.1,0.1h-0.4c-0.1,0-0.1,0-0.1-0.1V2.3c0-0.1,0-0.1,0.1-0.1H45c0.1,0,0.1,0,0.1,0.1V21.7z"/>
	<path fill="#FFFFFF" d="M69.1,6.5c-0.1-0.2-2.3-4.8-2.5-5.3C66.4,0.7,66,1,65.6,1H53.3c-0.3,0-0.8-0.3-1,0.2
		c-0.2,0.5-2.2,5.2-2.3,5.5c-0.1,0.2,0.3,0.4,0.5,0.1c0.8-1.5,3.7-4.6,6.9-4.6v18.5c0,1.1-1.1,1.8-1.8,1.8c-0.2,0-0.2,0.5,0,0.5h7.9
		c0.2,0,0.2-0.5,0-0.5c-0.7,0-1.9-0.7-1.9-1.8V2.2c3,0,6.1,3,7.2,4.5C68.8,7,69.2,6.8,69.1,6.5z M59.8,21.7c0,0.1,0,0.1-0.1,0.1
		h-0.4c-0.1,0-0.1,0-0.1-0.1V2.3c0-0.1,0-0.1,0.1-0.1h0.4c0.1,0,0.1,0,0.1,0.1C59.8,2.3,59.8,21.7,59.8,21.7z"/>
</g>
<g id="MAGAZIN">
	<path fill="#FFFFFF" d="M139.5,22.4c-1,0-2.1-0.6-2.1-2.3V3.6c0-1.6,1.4-2.2,2-2.2c0.2,0,0.2-0.5,0-0.5h-6.2l-6.4,16
		c0,0-7-15.7-7.2-16.1c0,0-1.5,0.1-2.4,0.1h-3.7c-0.2,0-0.2,0.5,0,0.5c0.5,0,2.2,0.6,2.2,2.3v14c0,3.7-1,4.6-2.4,4.6
		c-0.2,0-0.2,0.5,0,0.5h6.4c0.2,0,0.2-0.5,0-0.5c-1.5,0-2.5-0.8-2.5-4.6V5.9l8.3,17.8l7.7-19.4v15.8c0,1.7-0.8,2.3-2,2.3
		c-0.2,0-0.2,0.5,0,0.5h8.3C139.7,23,139.7,22.4,139.5,22.4z M126.1,19.4l-0.2,0.6c0,0-0.1,0-0.1,0l-8.1-17.7c0-0.1,0-0.1,0.1-0.1
		h0.4c0.1,0,0.1,0,0.2,0.1l7.7,16.8C126.2,19.3,126.2,19.3,126.1,19.4z M135.8,21.7c0,0.1,0,0.1-0.1,0.1h-0.4c-0.1,0-0.1,0-0.1-0.1
		V2.3c0-0.1,0-0.1,0.1-0.1h0.4c0.1,0,0.1,0,0.1,0.1V21.7z"/>
	<path fill="#FFFFFF" d="M163,22.4c-0.7,0-1.9-0.1-2.6-2c0,0-6.9-19.7-7-20c-0.1-0.2-0.3-0.2-0.6-0.1c-1,0.4-2.8,1.2-3.6,1.5
		c-0.4,0.1-0.3,0.4,0.1,0.4c0.4,0,0.6,0.1,0.7,0.3l-5.5,15.1c-1.8,4.9-2.7,4.8-4.2,4.8c-0.2,0-0.2,0.5,0,0.5h6.4
		c0.2,0,0.2-0.5,0-0.5c-1.2,0-2.3-0.2-1.1-3.7l1.3-3.8h7.4l1.9,5.8c0.5,1.4-1,1.8-2,1.8c-0.2,0-0.2,0.5,0,0.5h8.9
		C163.3,23,163.2,22.4,163,22.4z M147.3,13.6l3.3-9.8l3.2,9.8H147.3z M158.8,21.8h-0.4c-0.1,0-0.1,0-0.2-0.1l-6.4-19.3
		c0-0.1,0-0.2,0-0.2l0.4-0.2c0,0,0.1,0,0.1,0L158.8,21.8C158.9,21.7,158.9,21.8,158.8,21.8z"/>
	<path fill="#FFFFFF" d="M184.5,13h-6.8c-0.2,0-0.2,0.5,0,0.5c0.5,0,1.6,0.4,1.6,1.7V18c0,3.8-2.2,4.2-3.9,4.2
		c-6.3,0-8.8-5.5-8.8-10.1c0-6.7,4.4-10.3,8.9-10.3c0.1,0,0.3,0,0.4,0h0.2c3.6,0.2,6.3,4.5,7.1,6.1c0.2,0.3,0.5,0.2,0.5,0
		c0-0.2-1.9-6.1-2.1-6.7c-0.4-1.3-0.4,0.2-1.4,0c-1.3-0.1-2.1-0.4-3.1-0.6c-0.3,0-0.7-0.1-1.2-0.1c-0.3,0-0.7,0-1.2,0h-0.2
		c-7.6,0-12.2,5.5-12.2,11.6c0,6.1,4.5,11.4,12.6,11.4c0.4,0,0.8,0,1.2-0.1c2.7-0.3,4.1-1.6,5.2-2.3l2.1,2.3v-2.6v0
		c0-0.3,0-3.5,0-4.1v-0.1v-1.3c0-1.3,0.6-1.7,1.2-1.7C184.7,13.5,184.7,13,184.5,13z M163.9,12c0-5.6,4.1-9.1,6.2-9.6
		c-1.8,1-5.3,4.2-5.3,9.6s2.9,8.3,5.6,9.9C167.4,20.8,163.9,17.5,163.9,12z M181.7,19.2c0,0.1,0,0.1-0.1,0l-0.4-0.2
		c-0.1,0-0.1-0.1-0.1-0.2v-4.4c0-0.1,0-0.1,0.1-0.1h0.4c0.1,0,0.1,0,0.1,0.1V19.2z"/>
	<path fill="#FFFFFF" d="M207.1,22.4c-0.7,0-1.9-0.1-2.6-2l-6.1-17.2c-0.6-1.8-0.8-2.5-1-2.9c-0.1-0.2-0.3-0.2-0.6-0.1
		c-1,0.4-2.8,1.2-3.6,1.5c-0.4,0.1-0.3,0.4,0.1,0.4c0.4,0,0.6,0.1,0.7,0.3l-0.3,0.9l-5.2,14.2c-1.8,4.9-2.7,4.8-4.2,4.8
		c-0.2,0-0.2,0.5,0,0.5h6.4c0.2,0,0.2-0.5,0-0.5c-1.2,0-2.3-0.2-1.1-3.7l1.3-3.8h7.4l1.9,5.8c0.5,1.4-1,1.8-2,1.8
		c-0.2,0-0.2,0.5,0,0.5h9C207.3,23,207.3,22.4,207.1,22.4z M191.4,13.6l3.3-9.8l3.2,9.8H191.4z M202.9,21.8h-0.4
		c-0.1,0-0.1,0-0.2-0.1l-6.4-19.3c0-0.1,0-0.2,0-0.2l0.4-0.2c0,0,0.1,0,0.1,0L202.9,21.8C203,21.7,203,21.8,202.9,21.8z"/>
	<path fill="#FFFFFF" d="M225,17.2c-0.6,1.2-4.2,4.5-8.9,4.5H213L225.6,1h-12.3c-1.4,0-2.8-0.1-2.8-0.1s-2.2,5.1-2.4,5.5
		c-0.1,0.3,0.2,0.4,0.3,0.1c0.6-1,3.2-4.3,8.5-4.3h3.1L207.6,23h15.2c0,0,2.4-5.3,2.5-5.6C225.4,17.1,225.2,17,225,17.2z
		 M210.8,21.8h-0.4c-0.1,0-0.1,0,0-0.1L222,2.3c0-0.1,0.1-0.1,0.2-0.1h0.4c0.1,0,0.1,0,0,0.1l-11.7,19.4
		C211,21.7,210.9,21.8,210.8,21.8z"/>
	<path fill="#FFFFFF" d="M235.5,22.4c-0.7,0-1.9-0.7-1.9-1.8V3.2c0-1.1,1.2-1.7,1.8-1.7c0.2,0,0.2-0.5,0-0.5h-7.8
		c-0.2,0-0.2,0.5,0,0.5c0.5,0,1.8,0.7,1.8,1.7v17.4c0,1.1-1.1,1.8-1.8,1.8c-0.2,0-0.2,0.5,0,0.5h7.9C235.8,23,235.7,22.4,235.5,22.4
		z M231.9,21.7c0,0.1,0,0.1-0.1,0.1h-0.4c-0.1,0-0.1,0-0.1-0.1V2.3c0-0.1,0-0.1,0.1-0.1h0.4c0.1,0,0.1,0,0.1,0.1V21.7z"/>
	<path fill="#FFFFFF" d="M260.4,1h-6.7c-0.2,0-0.2,0.5,0,0.5c1.6,0,2.6,0.7,2.6,4.4v10.4L243.5,1h-6.1c-0.2,0-0.2,0.5,0,0.5
		c1.1,0,3.4,1.2,3.4,3.1v12.4c0,4.6-0.7,5.5-2.4,5.5c-0.2,0-0.2,0.5,0,0.5h6.4c0.2,0,0.2-0.5,0-0.5c-1.8,0-2.5-0.9-2.5-5.5V5.7
		l15.4,18V5.9c0-3.6,1.1-4.4,2.6-4.4C260.6,1.5,260.6,1,260.4,1z M256.4,19.3c0,0.2-0.2,0.1-0.2,0L241.6,2.3c0-0.1,0-0.1,0-0.1h0.5
		c0.1,0,0.2,0.1,0.3,0.2l13.9,16.4C256.5,18.8,256.4,19.3,256.4,19.3z"/>
</g>
<g>
	<path fill="#FFFFFF" d="M108.4,21.9c0.7-0.4,0.5-1.3,0.5-1.3s-0.4,0.2-0.9,0.3c-0.3,0-0.6,0.6-0.4,1c-0.2,0.1-0.2,0.3-0.2,0.3
		c-0.4,0.1-0.8,0.1-0.8,0.1c0.6-1.3,0.6-1.3,0.4-2.1c-0.1-0.5-0.2-0.7-0.4-0.6c-0.4,0.1-0.4-0.7,0-1.2c0,0,1.2,1,2.5,0
		c1.2-1,0.9-2.7-0.6-4.2c-1.4-1.5-1.6-2.1-1.5-3c0.9,0,1.1-0.7,1-0.8c0.6-0.3,0.3-0.9,0.3-0.9c0.2-0.3,0.1-1,0.1-1
		c-0.6,0-1,0.2-1,0.2C107,8.4,106.6,9,106.6,9c-0.8,0-0.5,1.5-0.5,1.5s-0.3,0.9-0.1,1.6c0.6,1.9,1.7,2.5,2.5,3.7
		c0.3,0.5,0.3,1.5-0.3,1.7c-0.6,0.2-1.1-0.2-1.4-1.5c-0.3-1.3-0.4-1.3-1.2-2.3s-0.8-1.5-0.8-2.6c0-1-0.1-2.1-0.1-2.1
		c0.1,0,0.2-0.1,0.2-0.1c-0.3-0.4-0.3-0.9-0.3-0.9c0.1,0,0.2-0.1,0.2-0.1c-0.4-0.4-0.2-0.5-0.4-0.8c0.2,0,0.2-0.1,0.2-0.1
		c-0.4-0.3-0.4-0.6-0.8-1.1c0.1,0,0.2-0.1,0.2-0.1c-0.3-0.4-0.5-0.8-1.2-0.7l-0.2-0.2c0,0,0.5,0,0.8-0.4s-0.2-0.7-0.2-0.7
		s-0.1,0.1-0.2,0.1c-0.1,0,0-0.2-0.2-0.3c-0.2-0.1-0.1-0.4,0.2-0.3c0.2,0,0,0.4,0.2,0.4s0.2-0.3,0.4-0.2c0.1,0,0.1,0,0.4-0.5
		c0.1-0.3-0.1-0.2,0-0.6c0.1-0.2,0.1-0.6-0.9-0.8c0-0.9-0.9-0.6-1.2-0.6c-0.1-0.6-0.7-0.7-1.5-0.6l0,0.1c-0.5,0-0.8,0.1-0.8,0.1
		l0,0.2c-0.5,0-0.7,0.3-1,0.3l0,0.1c-0.5,0.3-0.4,0.6-0.9,0.9l0.2,0.2l-0.1,0.2c-0.5,0-0.8,0.2-0.8,0.2C96.2,2.5,96,3,96,3
		c-0.6,0.1-0.8,0.8-0.7,1.1C94.7,4.3,94.8,5,94.8,5c-0.3,0.1-0.5,0.6,0,0.9c0,0-0.2,0.6-0.9,0.3c-0.7-0.3-0.5-0.7-0.4-0.9
		c0.5,0.4,0.8,0,0.7-0.4C95,4.7,94.8,4,94.8,4c0.8-0.4,0.3-1.4,0.3-1.4c0.4-0.3,0-0.8,0-0.8c0-0.6-0.4-1.1-0.4-1.1
		c-0.6,0.1-0.8,0.5-0.8,0.5c-0.6,0-0.8,0.6-0.8,0.6c-0.7,0-0.9,0.6-0.8,1.1c-0.4,0.2-0.5,0.8-0.2,1.2c-0.3,0.4,0,0.9,0.3,0.9
		c0,0-0.1,0.6-0.8,0.6c-0.7,0-1-0.7-0.8-1c0.5,0.2,0.7-0.2,0.6-0.6c0.6-0.5,0.1-1.1,0.1-1.1c0.4-0.6,0-1-0.3-1.4
		c0-0.4-0.3-0.4-0.3-0.4c-0.2-0.7-0.8-1-0.8-1s-0.5,0.3-0.8,1c0,0-0.3,0-0.3,0.4c-0.4,0.3-0.7,0.8-0.3,1.4c0,0-0.5,0.7,0.1,1.1
		c-0.1,0.4,0.1,0.9,0.6,0.6c0.2,0.3-0.1,1-0.8,1c-0.7,0-0.8-0.6-0.8-0.6c0.4,0,0.7-0.5,0.3-0.9c0.2-0.4,0.1-1-0.2-1.2
		c0.1-0.5-0.1-1.1-0.8-1.1c0,0-0.1-0.6-0.8-0.6c0,0-0.2-0.4-0.8-0.5c0,0-0.4,0.5-0.4,1.1c0,0-0.3,0.4,0,0.8c0,0-0.5,0.9,0.3,1.4
		c0,0-0.2,0.7,0.5,0.9c0,0.4,0.3,0.7,0.7,0.4c0.1,0.1,0.3,0.6-0.4,0.9c-0.7,0.3-0.9-0.3-0.9-0.3c0.5-0.3,0.3-0.8,0-0.9
		c0,0,0.1-0.6-0.4-0.8c0-0.3-0.1-1-0.7-1.1c0,0-0.1-0.6-0.7-0.5c0,0-0.3-0.2-0.8-0.2l-0.1-0.2l0.2-0.2c-0.5-0.2-0.4-0.6-0.9-0.9
		l0-0.1c-0.3,0-0.5-0.4-1-0.3l0-0.2c0,0-0.3-0.1-0.8-0.1L80,0.1c-0.8,0-1.3,0-1.5,0.6c-0.3,0-1.1-0.3-1.2,0.6
		c-1.1,0.1-1.1,0.5-0.9,0.8c0.1,0.3-0.1,0.3,0,0.6c0.2,0.4,0.3,0.5,0.4,0.5c0.2,0,0.2,0.3,0.4,0.2c0.2,0,0-0.4,0.2-0.4
		s0.3,0.3,0.2,0.3c-0.2,0.1,0,0.3-0.2,0.3c0,0-0.2-0.1-0.2-0.1S76.8,4,77.1,4.4c0.2,0.3,0.8,0.4,0.8,0.4L77.7,5
		c-0.7-0.1-0.8,0.2-1.2,0.7c0,0,0.1,0.1,0.2,0.1c-0.4,0.5-0.4,0.8-0.8,1.1c0,0,0,0.1,0.2,0.1c-0.2,0.3,0,0.4-0.4,0.8
		c0,0,0,0.1,0.2,0.1c0,0,0,0.5-0.3,0.9c0,0,0,0.1,0.2,0.1c0,0-0.1,1.1-0.1,2.1s-0.1,1.5-0.8,2.6c-0.7,1-0.9,1-1.2,2.3
		c-0.3,1.3-0.8,1.7-1.4,1.5c-0.6-0.2-0.6-1.2-0.3-1.7c0.7-1.2,1.8-1.8,2.5-3.7c0.2-0.7-0.1-1.6-0.1-1.6s0.2-1.5-0.5-1.5
		c0,0-0.3-0.6-0.7-0.4c0,0-0.3-0.2-1-0.2c0,0-0.1,0.6,0.1,1c0,0-0.3,0.6,0.3,0.9c-0.1,0.1,0,0.8,1,0.8c0,0.9-0.1,1.5-1.5,3
		c-1.4,1.5-1.8,3.2-0.6,4.2c1.3,1,2.5,0,2.5,0c0.3,0.5,0.3,1.3,0,1.2c-0.2,0-0.3,0.1-0.4,0.6c-0.2,0.8-0.2,0.9,0.4,2.1
		c0,0-0.4,0-0.8-0.1c0,0,0-0.2-0.2-0.3c0.1-0.4-0.1-0.9-0.4-1c-0.5-0.1-0.9-0.3-0.9-0.3s-0.1,0.9,0.5,1.3c0,0-0.8-0.2-1.3,0.4
		c0.5,0.2,0.5,0.5,1,0.7c0.5,0.1,0.8-0.4,0.8-0.4s0.1,0.1,0,0.4c-0.1,0.2-0.1,0.3,0.1,0.3c2,0.6,4.1,0.4,4.1,0.4s-0.4,0.2-0.6,0.8
		c0.9-0.2,2.4,0.4,3.4-0.9c0,0,1.1-0.3,2.7-0.6c0,0-0.3,0.2-0.5,0.5c0,0,1.3,0.6,3.1-0.3c0.1,0,0.2,0.1,0.1,0.1
		c-0.7,0.3-0.9,0.7-0.9,0.7s1.5,0.8,3-0.2c0,0-0.2,0.7,0.5,1c0,0,0.7-0.2,1.5-0.4c0,0-0.1,0.2,0.1,0.2c0,0,0.6-0.1,1.1-0.6
		c0.5,0.5,1.1,0.6,1.1,0.6c0.1-0.1,0.1-0.2,0.1-0.2c0.8,0.1,1.5,0.4,1.5,0.4c0.7-0.2,0.5-1,0.5-1c1.5,1,3,0.2,3,0.2
		s-0.1-0.4-0.9-0.7c-0.1,0,0-0.2,0.1-0.1c1.7,1,3.1,0.3,3.1,0.3c-0.2-0.3-0.5-0.5-0.5-0.5c1.5,0.2,2.7,0.6,2.7,0.6
		c0.9,1.4,2.5,0.7,3.4,0.9c-0.1-0.5-0.6-0.8-0.6-0.8s2.1,0.1,4.1-0.4c0.2-0.1,0.2-0.1,0.1-0.3c-0.2-0.2,0-0.4,0-0.4s0.2,0.5,0.8,0.4
		c0.5-0.1,0.5-0.5,1-0.7C109.2,21.7,108.4,21.9,108.4,21.9z M71.8,22.7c-0.3,0-0.6-0.3-0.6-0.3s0.2-0.2,0.6-0.2
		C72.3,22.2,72.3,22.7,71.8,22.7z M72.2,21.7c-0.5-0.2-0.5-0.6-0.5-0.6s0.1,0.1,0.4,0.1C72.6,21.3,72.6,21.9,72.2,21.7z M72.6,22.3
		c-0.1,0.1-0.3-0.1-0.3-0.2C72.3,22.1,72.7,22.1,72.6,22.3z M103.3,5.6c0,0-0.2,0-0.3,0c-0.1,0-0.2,0.1,0,0.2
		c0.5,0.3,0.7,0.7,0.7,0.7s-0.3,0-0.6-0.3c-0.1-0.1-0.2,0-0.1,0.2c0.1,0.3,0.8,0.3,0.9,1c0,0-0.4-0.1-0.7-0.4
		c-0.1-0.1-0.2,0-0.1,0.1c0.2,0.4,0.9,0.5,1,1.3c0,0-0.3-0.1-0.5-0.4c-0.1-0.1-0.2,0-0.1,0.2c0.1,0.2,0.5,0.4,0.6,0.8
		c0,0.4,0.1,2.4,0.2,3c0.1,0.6,0.2,1.2,0.9,2c0.7,0.8,0.8,1,1,1.8c0.5,1.8,1.1,2.2,1.9,2c0.8-0.2,1.1-1.5,0.5-2.4
		c-0.8-1.2-3.1-3-2.2-5c0,0-0.3-0.4,0-0.9c0,0,0.1,0,0.1,0.2c0.2-0.2,0-0.4,0.3-0.7c0,0,0.1,0.1,0.1,0.3c0.2,0,0.2-0.7,1-0.6
		c0.1,0.7-0.3,0.5-0.5,0.9c0,0,0.2,0,0.3,0c-0.1,0.5-0.4,0.3-0.6,0.5c0,0,0.1,0,0.2,0.1c0,0-0.1,0.6-0.9,0.3c0,0-0.2,0.2-0.1,0.9
		c0,0.6,0.2,1.2,1.4,2.6c0.4,0.5,1.3,1.4,1.3,2.4c0,0.9-0.6,1.7-1.5,1.7c-1.1,0-1.5-0.8-1.7-1.5c0-0.3-0.4-0.2-0.3,0.1
		c0.1,0.5,0.3,1,0.3,1s-0.1,0.3-0.2,0.6s-0.1,0.5,0,0.6c0.2,0.3,0,0.6,0.4,0.6c0.2,0,0.2,0,0.3,0.3c0.2,0.6,0.1,0.6,0,1
		c-0.1,0.3-0.3,0.9-0.4,1c-0.1,0.3-0.3,0-0.6,0.1c-0.2,0.1-0.5,0-0.3-0.2c0,0-0.1-0.1-0.2,0c0,0-0.2-0.6-0.6-0.3
		c0,0-0.2-0.2-0.4-0.2c0,0,0.2-0.4,1.5,0c0.2,0,0.3-0.2,0.1-0.3c0,0,0.2-0.6,0.2-0.8c0-0.1,0.1-0.1-0.1-0.3
		c-1.4-1.2-1.5-1.1-1.7-1.8c-0.2-0.7-0.3-0.8-0.5-1.4c-0.6-1.4-0.4-1.9-0.8-2.4c-0.8-0.9-1.1-1.5-1.1-1.5s-0.1,0-0.1,0.1
		c-0.3-0.2-0.1-0.4-0.4-0.7c0,0-0.1,0-0.1,0.2c-0.4-0.3-0.3-0.8-0.5-1.1c0,0-0.1,0-0.1,0.2c0,0-0.1-0.2-0.1-0.3s0-0.1,0.1-0.3
		c0.2-0.1,0.2-0.1,0.3,0.1c0.2-0.2,0.4-0.5,0.7-0.8c0,0,0.1,0,0.2,0.2c0,0,0.2-0.3,0.4-0.9c0.2,0,0.4,0,0.3-0.3
		c0-0.6,0.2-0.8,0.2-1.6c0-0.3-0.3-0.2-0.2,0c0,0.6-0.1,0.6-0.2,1.2c-0.4-0.5-0.3,0.2-0.5,0.9c0,0-0.1,0-0.1-0.2
		c-0.1-0.3-0.2,0.1-0.5,0.7c-0.1-0.2-0.1-0.3-0.4,0c-0.2,0.3-1.2,1.1-2.1,1.8c-0.3,0.2-0.1,0.5-0.3,0.8c-0.1,0.2-0.3,0.4-0.3,0.4
		s-0.1-0.2-0.3-0.2c0,0,0-0.4-0.3-0.6c0,0,0.4-0.6-0.1-1c0.3-0.1,0.4-0.1,0.1-0.5c0,0,0.3-0.3,0-0.7c0.3-0.2,0.4,0.1,0.4,0.4
		c0,0.4,0.2,0.8,0.5,0.6c0.2-0.2,1.4-1.4,1.7-1.9c0.3-0.5,0.1-0.9,0.9-1.9c0.1-0.2,0-0.3-0.1-0.2C100.1,7.9,99.9,8,99.9,8
		s0-0.5,0.3-0.9c0.1-0.2,0-0.3-0.2,0c0,0,0-0.4,0.6-0.9c0.2-0.1,0-0.2-0.2-0.1c0,0,0.1-0.3,0.5-0.4c0.4-0.1,0.5,0,0.5,0.1
		c0,0.1,0.1,0.1,0.1,0c0-0.1,0.1-0.3,0.4-0.2c0.3,0,0.2,0.2,0.2,0.3c0,0.1,0,0.1,0.1,0C102.5,5.2,103,5.1,103.3,5.6z M104.7,22.4
		c-0.1,0.2-0.4,0.3-0.4,0.3c0-0.2,0.1-0.4,0.1-0.4C104.7,22.3,104.7,22.4,104.7,22.4z M103.6,21.2c0,0-1.1,0-1.6,1.3
		c0,0-0.3,0-0.5,0c0,0,0.2-0.1,0.4-0.6c0.1-0.5,0.3-1.1,0.4-1.4c0.1-0.5-0.4-0.3-0.2-0.7c0.2-0.8,0.2-0.8,0.4-0.9
		c0.2-0.1,0.3,0,0.7-0.6c0,0,0.1,0.4,0.2,0.8c0,0.4,0.4,0.7,1.8,1.8c0,0,0,0.4-0.2,0.7c-1.4-0.2-1.3,0.1-1.9,1.2c0,0-0.2,0-0.5,0
		C102.7,22.7,103.6,22.2,103.6,21.2z M102.2,22.6c0.1-0.4,0.6-0.9,1-1C103.1,22.1,102.7,22.5,102.2,22.6z M103.8,22.3
		c0.2,0,0.2,0.1,0.2,0.1c-0.3,0.2-0.5,0.4-0.5,0.4C103.5,22.4,103.8,22.3,103.8,22.3z M96.4,14.3c0,0,0,1.7,0,2.9
		c0,2-0.8,4.6-6.2,4.6s-6.2-2.6-6.2-4.6c0-1.2,0-2.9,0-2.9c0.1,0,0.2-0.1,0.2-0.1c-0.2-0.2-0.3-0.4-0.3-0.4c0.5,0.1,0.7-0.2,0.7-0.2
		c-0.4-0.4-0.5-0.7-0.5-0.7c0.3,0,0.6,0,0.6,0c0-0.6-0.6-0.7-0.6-1.2c0.1,0,0.3,0.1,0.3,0.1c0.4-0.8-0.5-0.8-0.3-1.5
		c0.2-0.1,0.4-0.3,0.4-0.3c-0.1,0-0.1,0-0.1,0c0.3-0.1,0.4-0.3,0.4-0.3c0.1,0.2,0.1,0.4,0.1,0.4c0.4,0,0.5-0.4,0.5-0.4
		c0,0.2,0.2,0.4,0.2,0.4c0.3-0.1,0.4-0.3,0.4-0.3s2.3,0,4.2,0s4.2,0,4.2,0s0.1,0.2,0.4,0.3c0,0,0.1-0.2,0.2-0.4c0,0,0.1,0.3,0.5,0.4
		c0,0,0-0.2,0.1-0.4c0,0,0.1,0.2,0.4,0.3c0,0,0,0-0.1,0c0,0,0.1,0.2,0.4,0.3c0.2,0.7-0.7,0.7-0.3,1.5c0,0,0.1-0.1,0.3-0.1
		c0,0.5-0.7,0.5-0.6,1.2c0,0,0.3,0.1,0.6,0c0,0-0.1,0.3-0.5,0.7c0,0,0.2,0.3,0.7,0.2c0,0-0.1,0.2-0.3,0.4
		C96.2,14.1,96.3,14.2,96.4,14.3z M83.6,13.4c0,0,0-0.2,0.2-0.3c0,0,0.1,0.2,0.4,0.4C84.2,13.5,83.9,13.6,83.6,13.4z M83.7,14.1
		c0,0-0.3,0-0.5-0.2c0,0,0-0.2,0.2-0.2C83.3,13.8,83.5,13.8,83.7,14.1z M80.8,8c1,0.9,0.6,1.6,0.6,1.6S81.1,9.3,81.1,9
		s-0.4-0.8-0.4-0.8C80.8,8.1,80.8,8,80.8,8z M80.6,7.2c0.2,0,0.2-0.3,0.2-0.3s0.3,0.2,0.5,0.5c0.3,0.4,0.1,0.5,0.2,1
		C80.9,8,80.6,7.2,80.6,7.2z M80.3,5.1c0,0,0.4,0.3,0.4,1c0,0.2-0.2,0.4-0.3,0l0.1-0.1C80.5,5.9,80.1,5.5,80.3,5.1z M79.5,3.9
		c0,0,0.1,0.1,0.4,0.3C80.3,4.4,80,4.9,80,4.9s0-0.1-0.4-0.3C79.3,4.4,79.4,4,79.5,3.9z M79.4,4.8c0,0-0.1,0-0.2,0H79.4
		C79.3,4.7,79.3,4.7,79.4,4.8z M79.8,2.1c-0.5,0-0.6-0.3-0.4-0.5s0.4-0.1,0.4,0.1C79.8,1.9,79.8,2.1,79.8,2.1z M79.6,3.7
		c-0.2-0.1-0.1-0.8,0.3-0.4C80.2,3.5,80.1,4,80.1,4S79.9,3.8,79.6,3.7z M79.7,2.8c-0.2-0.3,0-0.6,0.3-0.3c0.2,0.3,0.1,0.6,0.1,0.6
		S79.9,3,79.7,2.8z M80.1,2.2c0,0-0.2-0.2-0.1-0.6c0,0,0.6,0,0.8,0.6C80.8,2.2,80.5,2.1,80.1,2.2z M80.4,3.1
		c0.4,0.3,0.8,0.5,0.7,1.2C80.6,3.9,80.4,3.8,80.4,3.1z M81,5.5c-0.4-0.6-0.8-0.7-0.6-1.3C80.4,4.1,81.2,4.5,81,5.5z M80.3,2.5
		c0.6-0.1,0.9,0.3,0.9,0.8C81.2,3.2,80.4,3.1,80.3,2.5z M80.9,6.7c0,0,0-0.2,0.1-0.5c1,0.6,0.8,1.5,0.8,1.5
		C81.5,7.4,81.5,7.1,80.9,6.7z M81.5,3.3c0,0,1.1,0.3,0.9,1.4c-0.3-0.6-1-0.5-1.1-1.1c0,0,0.1,0,0.3,0C81.6,3.6,81.5,3.5,81.5,3.3z
		 M81.5,4.3c0.8,0.3,0.7,1.3,0.7,1.3c-0.3-0.4-0.8-0.4-0.9-0.9c0.1,0,0.2-0.1,0.2-0.1C81.4,4.5,81.5,4.3,81.5,4.3z M81.4,5.3
		c0.4,0.4,0.7,0.5,0.6,1.4c0,0-0.4-0.3-0.7-0.7C81.3,5.9,81.4,5.7,81.4,5.3z M81.8,9.3c0,0,0.2,0,0.6,0.1c0,0,0.1,0.5,0.8,0.5
		c0,0.2,0,0.2-0.2,0.3c-0.2,0-0.3,0.2-0.4,0.7c0,0.1-0.1,0.1-0.2,0l-0.7-0.8C81.7,10.1,81.9,9.7,81.8,9.3z M83.1,9.6
		c-0.4-0.1-0.3-0.6-0.2-0.7C83,8.8,83,8.6,82.8,8.7c-0.4,0.1-0.2,0.4-0.4,0.3c-0.2,0-0.4-0.1-0.4-0.1c0.1-0.2,0.1-0.5,0.1-0.5
		c0,0,0.2,0,0.2,0c-0.2-0.4,0-0.5,0-0.5s0.3,0.3,0.6,0.5c0.2,0.1,0.3,0,0.3,0c0.2-0.5,0.7-0.2,0.7-0.2c0.5-0.3,0.8,0,0.8,0
		c0.5-0.2,0.9,0,0.9,0l0.2,0.4c-0.3-0.1-0.6,0-0.6,0c-0.2-0.1-0.6,0-0.6,0c-0.4-0.2-0.7,0.1-0.7,0.1c-0.1-0.2-0.3-0.3-0.2,0
		c0,0.2,0.1,0.4-0.1,0.4c-0.1,0-0.2,0-0.1,0.2C83.2,9.3,83.1,9.6,83.1,9.6z M99,3.6c-0.1,0.5-0.8,0.4-1.1,1.1
		c-0.2-1.1,0.9-1.4,0.9-1.4c0,0.2-0.1,0.3-0.1,0.3C98.8,3.7,99,3.6,99,3.6z M100.5,1.7c0-0.2,0.3-0.3,0.4-0.1c0.1,0.2,0,0.5-0.4,0.5
		C100.5,2.1,100.5,1.9,100.5,1.7z M100.7,4.6c-0.4,0.2-0.4,0.3-0.4,0.3s-0.2-0.5,0.1-0.7c0.2-0.1,0.4-0.3,0.4-0.3
		C100.9,4,101,4.4,100.7,4.6z M101,4.7l0.1,0.1C101,4.8,100.9,4.8,101,4.7C101,4.7,101,4.7,101,4.7z M100.2,4c0,0,0-0.5,0.2-0.7
		c0.4-0.4,0.5,0.3,0.3,0.4C100.4,3.8,100.2,4,100.2,4z M100.6,2.8c-0.1,0.2-0.4,0.3-0.4,0.3s-0.1-0.3,0.1-0.6
		C100.5,2.2,100.8,2.5,100.6,2.8z M100.2,2.2c-0.3,0-0.6,0-0.6,0c0.2-0.6,0.8-0.6,0.8-0.6C100.3,2,100.2,2.2,100.2,2.2z M99.9,6.1
		c-0.1,0.4-0.4,0.3-0.3,0c0-0.7,0.4-1,0.4-1C100.2,5.6,99.8,6,99.9,6.1L99.9,6.1z M99.6,8.2c0,0-0.4,0.5-0.4,0.8
		c0,0.3-0.3,0.6-0.3,0.6S98.5,8.9,99.5,8C99.5,8,99.5,8.1,99.6,8.2z M98.7,8.5c0.1-0.4,0-0.5,0.2-1c0.2-0.3,0.5-0.5,0.5-0.5
		s0,0.2,0.2,0.3C99.7,7.2,99.4,8,98.7,8.5z M99.3,5.5c-0.1-1,0.6-1.3,0.6-1.3C100.2,4.8,99.7,4.9,99.3,5.5z M100,2.5
		c-0.1,0.6-0.9,0.8-0.9,0.8C99.1,2.7,99.4,2.3,100,2.5z M99.9,3.1c0,0.6-0.1,0.8-0.7,1.2C99,3.6,99.5,3.5,99.9,3.1z M99.2,6.2
		c0.1,0.2,0.1,0.5,0.1,0.5c-0.6,0.4-0.6,0.7-0.9,1C98.5,7.7,98.2,6.8,99.2,6.2z M98.6,10.1l-0.7,0.8c-0.1,0.1-0.2,0.1-0.2,0
		c0-0.5-0.2-0.7-0.4-0.7c-0.2,0-0.2,0-0.2-0.3c0.7,0,0.8-0.5,0.8-0.5c0.3,0,0.6-0.1,0.6-0.1C98.4,9.7,98.6,10.1,98.6,10.1z M99,5.9
		c-0.3,0.4-0.7,0.7-0.7,0.7c-0.1-0.8,0.2-0.9,0.6-1.4C98.9,5.7,99,5.9,99,5.9z M98.1,5.6c0,0-0.1-1,0.7-1.3c0,0,0.1,0.2,0,0.3
		c0,0,0.1,0.1,0.2,0.1C98.9,5.2,98.3,5.2,98.1,5.6z M98,7.8c0,0,0.2,0.1,0,0.5c0,0,0.1,0,0.2,0c0,0,0,0.2,0.1,0.5c0,0-0.1,0-0.4,0.1
		s-0.1-0.2-0.4-0.3c-0.2-0.1-0.2,0.1-0.1,0.2s0.2,0.6-0.2,0.7c0,0-0.1-0.2-0.3-0.3c0.1-0.1,0-0.2-0.1-0.2c-0.1,0-0.1-0.2-0.1-0.4
		c0.1-0.3-0.1-0.1-0.2,0c0,0-0.2-0.3-0.7-0.1c0,0-0.4-0.1-0.6,0c0,0-0.3-0.1-0.6,0l0.2-0.4c0,0,0.3-0.3,0.9,0c0,0,0.3-0.3,0.8,0
		c0,0,0.4-0.2,0.7,0.2c0,0,0.1,0.1,0.3,0C97.7,8.2,98,7.8,98,7.8z M96.2,11.3c0-0.3,0.3-0.5,0.3-0.5c0.2,0,0.2,0.2,0.2,0.2
		C96.4,11.1,96.2,11.3,96.2,11.3z M96.6,12.4c-0.3,0.2-0.6,0.1-0.6,0.1c0.2-0.3,0.5-0.4,0.5-0.4C96.7,12.2,96.6,12.4,96.6,12.4z
		 M96.3,9.8c0.3-0.1,0.4-0.3,0.4-0.3C97,9.5,97,9.7,97,9.7C96.6,10,96.3,9.8,96.3,9.8z M96.2,9.4c-0.5-0.1-0.3-0.6-0.3-0.6
		c0.2-0.1,0.4,0,0.4,0C96.1,9.1,96.2,9.4,96.2,9.4z M95.6,8.8c-0.1,0.2-0.1,0.7-0.1,0.7c-0.4-0.3-0.2-0.6-0.2-0.6
		C95.4,8.7,95.6,8.8,95.6,8.8z M94.9,8.8c-0.1,0.3-0.2,0.6-0.2,0.6c-0.2-0.3-0.1-0.6-0.1-0.6C94.8,8.7,94.9,8.8,94.9,8.8z M90.1,8.2
		c-2.4,0-3.7,0.5-4,0.6c-0.2,0.1-0.3-0.1-0.1-0.2C86.3,8.6,87.8,8,90.1,8c2.3,0,3.9,0.6,4.1,0.7c0.2,0.1,0.1,0.3-0.1,0.2
		C93.8,8.8,92.5,8.2,90.1,8.2z M93,8.9c0,0-0.6,0-2.8,0c-2.2,0-2.8,0-2.8,0s0.6-0.4,2.8-0.4C92.4,8.5,93,8.9,93,8.9z M85.9,8.1
		C85.9,8.1,85.9,8.1,85.9,8.1c0.1,0,0.2,0.1,0.2,0.2c0,0,0,0.1,0,0.1L85.9,8.1z M86.4,8.1c0-0.1,0.1-0.2,0.2-0.2s0.2,0.1,0.2,0.2
		c0,0.1-0.1,0.2-0.2,0.2S86.4,8.2,86.4,8.1z M87.1,7.9c0-0.1,0.1-0.2,0.2-0.2s0.2,0.1,0.2,0.2c0,0.1-0.1,0.2-0.2,0.2
		C87.2,8.1,87.1,8,87.1,7.9z M87.8,7.7c0-0.1,0.1-0.2,0.2-0.2s0.2,0.1,0.2,0.2S88.1,7.9,88,7.9C87.9,7.9,87.8,7.8,87.8,7.7z
		 M88.5,7.6c0-0.1,0.1-0.2,0.2-0.2s0.2,0.1,0.2,0.2c0,0.1-0.1,0.2-0.2,0.2C88.6,7.8,88.5,7.7,88.5,7.6z M89.2,7.5
		c0-0.1,0.1-0.2,0.2-0.2c0.1,0,0.2,0.1,0.2,0.2c0,0.1-0.1,0.2-0.2,0.2C89.3,7.7,89.2,7.7,89.2,7.5z M89.9,7.5c0-0.1,0.1-0.2,0.2-0.2
		s0.2,0.1,0.2,0.2c0,0.1-0.1,0.2-0.2,0.2S89.9,7.6,89.9,7.5z M90.6,7.5c0-0.1,0.1-0.2,0.2-0.2S91,7.4,91,7.5c0,0.1-0.1,0.2-0.2,0.2
		S90.6,7.7,90.6,7.5z M91.4,7.6c0-0.1,0.1-0.2,0.2-0.2s0.2,0.1,0.2,0.2c0,0.1-0.1,0.2-0.2,0.2C91.5,7.8,91.4,7.7,91.4,7.6z
		 M92.1,7.7c0-0.1,0.1-0.2,0.2-0.2s0.2,0.1,0.2,0.2s-0.1,0.2-0.2,0.2C92.2,7.9,92.1,7.8,92.1,7.7z M92.8,7.9c0-0.1,0.1-0.2,0.2-0.2
		s0.2,0.1,0.2,0.2c0,0.1-0.1,0.2-0.2,0.2S92.8,8,92.8,7.9z M93.5,8.1c0-0.1,0.1-0.2,0.2-0.2s0.2,0.1,0.2,0.2c0,0.1-0.1,0.2-0.2,0.2
		C93.6,8.3,93.5,8.2,93.5,8.1z M94.2,8.4c0,0,0-0.1,0-0.1c0-0.1,0.1-0.2,0.2-0.2h0L94.2,8.4z M90.1,7.1c-2.2,0-4.3,0.8-4.3,0.8
		l-0.3-0.5c0,0,0.6,0.3,1.3,0.1c0.7-0.2,0.9-0.7,0.9-0.7s0.5,0.4,1.3,0.3c0.6-0.1,1.1-0.6,1.1-0.6s0.5,0.5,1.1,0.6
		c0.8,0.1,1.3-0.3,1.3-0.3s0.1,0.5,0.9,0.7c0.7,0.2,1.3-0.1,1.3-0.1l-0.3,0.5C94.5,7.9,92.3,7.1,90.1,7.1z M94.9,7.1
		c-0.5,0.3-1.8,0.4-2.2-0.7c0,0-0.5,0.5-1.3,0.4c-0.7-0.1-1.2-0.7-1.2-0.7s-0.5,0.6-1.2,0.7c-0.8,0.1-1.3-0.4-1.3-0.4
		c-0.4,1.1-1.7,1-2.2,0.7c-0.1-0.1-0.1-0.2,0-0.1c0.1,0,0.5,0.3,1.1,0.1c0.7-0.1,1-0.9,1-0.9s0.6,0.6,1.5,0.5
		c0.7-0.1,1.1-0.9,1.1-0.9s0.4,0.7,1.1,0.9c0.9,0.2,1.5-0.5,1.5-0.5s0.2,0.8,1,0.9C94.3,7.3,94.7,7,94.8,7S95.1,7.1,94.9,7.1z
		 M85.6,9.5c0,0,0-0.3-0.2-0.6c0,0,0.1-0.1,0.3,0C85.7,8.8,85.8,9.2,85.6,9.5z M84.9,9.5c0,0,0-0.4-0.1-0.7c0,0,0.2,0,0.3,0
		C85.1,8.8,85.3,9.1,84.9,9.5z M84,8.8c0,0,0.2-0.2,0.4,0c0,0,0.1,0.5-0.3,0.6C84.1,9.4,84.2,9.1,84,8.8z M83.6,9.4
		c0,0,0.1,0.2,0.4,0.3c0,0-0.3,0.2-0.6-0.1C83.3,9.6,83.3,9.5,83.6,9.4z M83.8,10.8c0,0,0.3,0.2,0.3,0.5c0,0-0.2-0.2-0.4-0.3
		C83.6,11,83.6,10.8,83.8,10.8z M83.8,12.1c0,0,0.3,0.1,0.5,0.4c0,0-0.3,0.1-0.6-0.1C83.7,12.4,83.6,12.2,83.8,12.1z M96.1,13.5
		c0.2-0.2,0.4-0.4,0.4-0.4c0.3,0.1,0.2,0.3,0.2,0.3C96.4,13.6,96.1,13.5,96.1,13.5z M97,13.8c0.1,0,0.2,0.2,0.2,0.2
		c-0.2,0.2-0.5,0.2-0.5,0.2C96.8,13.8,97,13.8,97,13.8z M102.6,3.9c-0.1,0-0.3-0.1-0.1-0.2C102.6,3.8,102.6,3.9,102.6,3.9z
		 M102.1,1.2c0.3,0,0.4,0.1,0.3,0.4c0,0.1,0,0.2,0.3,0.2c0.8,0,0.9,0.1,0.7,0.3c-0.1,0.1-0.2,0.2,0,0.3c0.2,0.1,0,0.5-0.2,0.5
		c-0.6-0.2-0.8-0.2-1.1,0.3s-0.3,1,0.8,0.9c0,0,0,0.3-0.7,0.2c-0.7,0-0.8-1.1,0-2c0.2-0.2,0.1-0.3,0-0.4c0-0.2,0-0.5-0.5-0.2
		c-0.4,0.2-0.4,0.3-0.1,0.3s0.4,0.2,0.4,0.2s-0.4,0.4-0.6,1.1c-0.2,1,0.3,1.3,0.3,1.3s-0.3,0.2-0.7-0.2c0,0,0.1-0.4,0-0.7
		c0,0,0.1-0.4-0.2-0.8c0,0,0.2-0.2,0-0.7c0,0,0.4-0.2,0.2-0.7C101.2,1.5,101.6,1.2,102.1,1.2z M101.4,0.8l-0.2,0.1
		c-0.2-0.2-0.3-0.4-0.3-0.4C101.2,0.4,101.4,0.8,101.4,0.8z M101,1.1c-0.4,0.2-0.9-0.2-0.9-0.4C100.6,0.4,100.7,0.9,101,1.1z
		 M100.2,1.3c0,0-0.4,0.3-1.1-0.2C99.1,1,99.8,0.6,100.2,1.3z M99.6,1.5c-0.2,0.5-0.9,0.1-1.3,0.2C98.7,0.9,99.3,1.6,99.6,1.5z
		 M99.2,2C99,2.5,98.4,2.3,98,2.5C98.2,1.9,98.7,2.1,99.2,2z M99,2.5c0,0.5-0.8,0.6-1.2,1C97.8,2.5,99,2.5,99,2.5z M97.5,5.3
		c0,0,0.1,0,0.2,0c0,0.3,0,0.6,0,1c0,0,0.1,0,0.2,0c0.1,0.4-0.2,0.6,0,1c0,0-0.1,0.2-0.5,0.4c0,0-0.4-0.4-0.9-0.2c0,0-0.5-0.3-0.9,0
		c0,0-0.1-0.1-0.4,0c0,0,0.3-0.4,0.2-1c0,0,0.6-0.6,1.1-1.3s0.6-1.3,0.9-1.6c0,0,0.1,0.2,0,0.4c0,0,0,0.1,0.2,0.1
		C97.3,4.9,97.5,5,97.5,5.3z M96.1,3.8c0.1,0.1,0.1,0.4,0,0.5C96,4.2,95.9,3.9,96.1,3.8z M95.5,4.5c0.1,0,0.2,0,0.1-0.2
		c-0.1-0.2-0.1-0.7,0.3-0.9c0,0-0.3,0.8,0.1,1.3c0,0,0.3,0,0.3-0.5c0-0.6-0.2-1.2,0.2-1.4c0,0-0.1,0.2,0,0.5c0,0.1,0.1,0.1,0.1-0.1
		c0-0.2,0.2-0.6,0.7-0.5c0,0-0.3,0.5-0.6,1c-0.2,0.5-0.3,0.9-1,1.9c0,0-0.1-0.7-0.6-0.7C95,4.7,95.2,4.5,95.5,4.5z M94,5.2
		c-0.1,0.2-0.3,0-0.2,0c0.1-0.1,0-0.3-0.2-0.1c-0.5,0.4-0.5,1.3,0.2,1.6c0.7,0.2,1.4-0.3,1.4-1c0-0.1-0.2-0.2-0.2,0
		c0,0.2-0.4,0.1-0.2-0.1c0.1-0.4,0.7-0.1,0.7,0.3c-0.1,0.7-0.9,1.3-1.7,1.1c-0.8-0.2-1-1.3-0.3-2C93.7,4.6,94.2,4.9,94,5.2z
		 M93.3,2.5c0.1,0.1,0.1,0.3,0,0.6C93.2,2.8,93.2,2.6,93.3,2.5z M92.7,3.3c-0.2-0.4-0.1-0.9,0.2-1c0,0-0.1,0.8,0.3,1.2
		c0,0,0.4-0.6,0-1.4c0,0,0-0.4,0.3-0.5c0,0,0,0.3,0.1,0.5c0,0,0.1,0,0-0.2c0-0.2,0.2-0.7,0.6-0.7c0,0,0.5,0.6,0,1
		c-0.1,0,0,0.2,0.1,0.1c0.2-0.1,0.3-0.2,0.3-0.2s0.2,0.3-0.1,0.5c-1.1,0.4-1,1-1,1s0.7,0.1,1.1-0.6c0.1,0.4,0,0.8-0.4,0.9
		c-0.1,0-0.1,0.1,0,0.2c0.2,0.1,0.2,0.6-0.2,0.6c0,0-0.4-0.5-1.1-0.1c0,0-0.1-0.6-0.7-0.6C92.1,3.9,92.2,3.2,92.7,3.3z M94.7,2.9
		c0,0.2-0.4,0.4-0.7,0.5C94.1,3.2,94.5,2.9,94.7,2.9z M91.2,4.6c-0.1,0.1-0.3,0-0.2-0.1c0.1-0.2,0-0.3-0.2-0.1
		c-0.4,0.5-0.2,1.5,0.5,1.7c0.7,0.2,1.2-0.3,1.3-0.6c0.1-0.3,0.1-0.8-0.1-0.8c-0.1,0,0,0.2-0.1,0.2c-0.2,0.1-0.3-0.3,0-0.4
		c0.3-0.1,0.5,0.1,0.5,0.3c0.2,0.6-0.3,1.8-1.5,1.6c-1.1-0.2-1.2-1.5-0.8-2C90.9,3.8,91.4,4.2,91.2,4.6z M89.2,3.2
		c0.1,0,0.1-0.1,0-0.1c-0.4-0.2-0.2-0.8,0-1c-0.1,1,0.7,1.1,0.7,1.1s0.2-0.5-0.3-1c-0.2-0.2-0.3-0.4-0.2-0.5c0.1,0,0.2,0.1,0.3,0.1
		c0.1,0.1,0.2,0,0.1,0c-0.4-0.5,0.3-1,0.3-1s0.7,0.4,0.3,1c-0.1,0.1,0,0.1,0.1,0c0.1-0.1,0.2-0.2,0.3-0.1c0.1,0.1,0.1,0.3-0.2,0.5
		c-0.5,0.5-0.3,1-0.3,1S91.1,3,91,2c0.3,0.2,0.5,0.7,0,1c0,0-0.1,0.1,0,0.1c0.3,0,0.4,0.5,0.1,0.7c-0.3-0.2-0.8-0.2-1.2,0.4
		c-0.3-0.6-0.8-0.6-1.2-0.4C88.7,3.7,88.8,3.2,89.2,3.2z M89.5,2.3c0.1,0,0.4,0.2,0.3,0.5C89.5,2.8,89.4,2.4,89.5,2.3z M90.5,2.8
		c0-0.2,0.2-0.5,0.3-0.5C90.9,2.4,90.8,2.8,90.5,2.8z M87.9,4.9c-0.1,0,0-0.2-0.1-0.2c-0.2,0-0.2,0.5-0.1,0.8
		c0.1,0.3,0.6,0.8,1.3,0.6c0.7-0.2,0.9-1.2,0.5-1.7c-0.1-0.2-0.3-0.1-0.2,0.1c0,0.1-0.1,0.2-0.2,0.1c-0.2-0.4,0.2-0.8,0.7-0.2
		c0.3,0.5,0.3,1.8-0.8,2c-1.2,0.2-1.7-1-1.5-1.6c0-0.2,0.2-0.4,0.5-0.3C88.3,4.5,88.1,5,87.9,4.9z M87,2.5c0.1,0.1,0.1,0.4,0,0.6
		C86.9,2.8,86.9,2.6,87,2.5z M86.1,4.8c-0.4,0-0.4-0.5-0.2-0.6c0.1-0.1,0.1-0.2,0-0.2c-0.4-0.1-0.5-0.4-0.4-0.9
		c0.5,0.7,1.1,0.6,1.1,0.6s0-0.5-1-1c-0.3-0.1-0.1-0.5-0.1-0.5s0.1,0.1,0.3,0.2c0.1,0,0.1-0.1,0.1-0.1c-0.5-0.4,0-1,0-1
		c0.4,0.1,0.7,0.5,0.6,0.7c0,0.1,0,0.2,0,0.2c0.1-0.2,0.1-0.5,0.1-0.5c0.3,0.1,0.3,0.5,0.3,0.5c-0.4,0.8,0,1.4,0,1.4
		c0.5-0.4,0.3-1.2,0.3-1.2c0.4,0,0.5,0.6,0.2,1c0.5,0,0.6,0.6,0.3,0.9c-0.6,0-0.7,0.6-0.7,0.6C86.5,4.2,86.1,4.8,86.1,4.8z
		 M85.6,2.9c0.2,0,0.6,0.2,0.7,0.5C86,3.4,85.6,3.1,85.6,2.9z M85.5,5.5c0.1,0.2-0.2,0.3-0.2,0.1c0-0.2-0.2-0.1-0.2,0
		c0,0.7,0.7,1.3,1.4,1s0.7-1.1,0.2-1.6c-0.2-0.1-0.3,0-0.2,0.1c0.1,0.1-0.1,0.2-0.2,0c-0.1-0.3,0.3-0.6,0.6-0.3
		c0.7,0.7,0.5,1.7-0.3,2c-0.8,0.2-1.6-0.3-1.7-1.1C84.8,5.3,85.4,5.1,85.5,5.5z M84.2,3.8c0.1,0.1,0.1,0.4,0,0.5
		C84.1,4.2,84.2,3.9,84.2,3.8z M83.6,3.3c0,0.2,0.1,0.2,0.1,0.1c0-0.3,0-0.5,0-0.5C84.2,3,84,3.6,84,4.2c0,0.5,0.3,0.5,0.3,0.5
		c0.5-0.5,0.1-1.3,0.1-1.3c0.4,0.2,0.4,0.7,0.3,0.9c-0.1,0.1,0,0.2,0.1,0.2c0.2,0,0.4,0.1,0.3,0.4c-0.5,0-0.6,0.7-0.6,0.7
		c-0.7-1-0.7-1.4-1-1.9c-0.2-0.5-0.6-1-0.6-1C83.4,2.7,83.6,3.1,83.6,3.3z M82.6,5.4c0.1,0,0.2,0,0.2,0c0-0.3,0.1-0.5,0-1
		c0.1,0,0.2-0.1,0.2-0.1c-0.1-0.2,0-0.4,0-0.4c0.3,0.3,0.4,0.9,0.9,1.6C84.4,6.1,85,6.7,85,6.7c-0.1,0.5,0.2,1,0.2,1
		c-0.2,0-0.4,0-0.4,0c-0.4-0.3-0.9,0-0.9,0C83.5,7.6,83,8,83,8c-0.3-0.2-0.5-0.4-0.5-0.4c0.2-0.4-0.1-0.6,0-1c0.1,0,0.2,0,0.2,0
		C82.6,5.9,82.7,5.7,82.6,5.4z M82.5,3.6c-0.4-0.4-1.2-0.5-1.2-1C81.3,2.5,82.5,2.5,82.5,3.6z M82.3,2.5c-0.4-0.3-1,0-1.2-0.5
		C81.6,2.1,82.1,1.9,82.3,2.5z M82,1.7c-0.4-0.1-1.1,0.2-1.3-0.2C81,1.6,81.6,0.9,82,1.7z M81.2,1c-0.6,0.5-1.1,0.2-1.1,0.2
		C80.5,0.6,81.2,1,81.2,1z M80.2,0.7c0,0.2-0.5,0.6-0.9,0.4C79.6,0.9,79.7,0.4,80.2,0.7z M79.4,0.5c0,0,0,0.2-0.3,0.4l-0.2-0.1
		C78.8,0.8,79,0.4,79.4,0.5z M77.9,3.6c0.2,0.1,0,0.3-0.1,0.2C77.7,3.9,77.7,3.8,77.9,3.6z M77.4,4.2c1.1,0.1,1-0.3,0.8-0.9
		c-0.2-0.5-0.4-0.6-1.1-0.3c-0.2,0.1-0.4-0.3-0.2-0.5c0.1-0.1,0.1-0.2,0-0.3c-0.1-0.1,0-0.3,0.7-0.3c0.3,0,0.3-0.1,0.3-0.2
		c0-0.2,0-0.4,0.3-0.4c0.5,0,1,0.3,1,0.3C79,2,79.4,2.2,79.4,2.2c-0.1,0.5,0,0.7,0,0.7c-0.3,0.4-0.2,0.8-0.2,0.8
		c-0.2,0.3,0,0.7,0,0.7c-0.3,0.5-0.7,0.2-0.7,0.2s0.6-0.3,0.3-1.3c-0.2-0.7-0.6-1.1-0.6-1.1S78.5,2,78.7,2s0.3-0.1-0.1-0.3
		c-0.5-0.2-0.5,0-0.5,0.2c-0.1,0.1-0.1,0.2,0,0.4c0.8,0.9,0.7,2,0,2C77.4,4.5,77.4,4.2,77.4,4.2z M73.7,21.4c-0.1-0.3-0.1-0.4,0-1
		c0.1-0.3,0.1-0.4,0.3-0.3c0.3,0,0.2-0.3,0.4-0.6c0.1-0.1,0.1-0.3,0-0.6c-0.1-0.3-0.2-0.6-0.2-0.6s0.2-0.5,0.3-1
		c0-0.3-0.3-0.4-0.3-0.1c-0.1,0.7-0.6,1.5-1.7,1.5c-0.8,0-1.5-0.8-1.5-1.7c0-1,0.9-1.9,1.3-2.4c1.2-1.4,1.4-2,1.4-2.6
		c0-0.7-0.1-0.9-0.1-0.9c-0.7,0.2-0.9-0.3-0.9-0.3c0.1-0.1,0.2-0.1,0.2-0.1c-0.1-0.2-0.5,0-0.6-0.5c0.1-0.1,0.3,0,0.3,0
		c-0.1-0.4-0.6-0.2-0.5-0.9c0.8,0,0.7,0.6,1,0.6c0-0.1,0.1-0.3,0.1-0.3c0.3,0.2,0.1,0.5,0.3,0.7c0-0.1,0.1-0.2,0.1-0.2
		c0.3,0.4,0,0.9,0,0.9c0.8,2-1.4,3.8-2.2,5c-0.6,0.9-0.3,2.2,0.5,2.4c0.8,0.2,1.4-0.2,1.9-2c0.2-0.8,0.3-1,1-1.8
		c0.7-0.8,0.8-1.5,0.9-2c0.1-0.5,0.2-2.5,0.2-3c0-0.4,0.4-0.6,0.6-0.8c0.1-0.2,0-0.3-0.1-0.2c-0.3,0.3-0.5,0.4-0.5,0.4
		c0-0.8,0.7-0.8,1-1.3C77.3,7,77.2,6.9,77,7c-0.3,0.2-0.7,0.4-0.7,0.4c0.1-0.7,0.7-0.7,0.9-1c0.1-0.1,0-0.3-0.1-0.2
		c-0.3,0.2-0.6,0.3-0.6,0.3s0.1-0.4,0.7-0.7c0.2-0.1,0.1-0.2,0-0.2s-0.3,0-0.3,0c0.3-0.4,0.7-0.3,0.9-0.1c0.1,0.1,0.1,0,0.1,0
		c0-0.1,0-0.3,0.2-0.3c0.3,0,0.4,0.1,0.4,0.2s0.1,0.1,0.1,0s0.1-0.2,0.5-0.1c0.4,0.1,0.5,0.4,0.5,0.4c-0.3-0.1-0.4,0-0.2,0.1
		c0.6,0.5,0.6,0.9,0.6,0.9c-0.2-0.2-0.4-0.1-0.2,0c0.3,0.4,0.3,0.9,0.3,0.9S80.1,7.4,80,7.4c-0.1-0.1-0.3,0-0.1,0.2
		c0.8,0.9,0.6,1.4,0.9,1.9c0.3,0.5,1.4,1.7,1.7,1.9s0.4-0.2,0.5-0.6c0-0.3,0.1-0.6,0.4-0.4c-0.3,0.4,0,0.7,0,0.7
		c-0.3,0.5-0.1,0.4,0.1,0.5c-0.5,0.4-0.1,1-0.1,1c-0.3,0.1-0.3,0.6-0.3,0.6c-0.2,0-0.3,0.2-0.3,0.2s-0.2-0.1-0.3-0.4
		c-0.1-0.3,0.1-0.5-0.3-0.8c-0.9-0.7-1.9-1.5-2.1-1.8c-0.2-0.3-0.3-0.1-0.4,0c-0.3-0.6-0.4-1.1-0.5-0.7c0,0.1-0.1,0.2-0.1,0.2
		c-0.1-0.7-0.1-1.4-0.5-0.9c0-0.5-0.2-0.5-0.2-1.2c0-0.2-0.2-0.3-0.2,0c0,0.8,0.3,0.9,0.2,1.6c0,0.3,0.1,0.4,0.3,0.3
		c0.1,0.5,0.4,0.9,0.4,0.9c0.1-0.1,0.2-0.2,0.2-0.2c0.3,0.3,0.4,0.6,0.6,0.8c0-0.1,0.1-0.2,0.3-0.1c0.2,0.1,0.1,0.2,0.1,0.3
		c0,0.1-0.1,0.3-0.1,0.3c0-0.1-0.1-0.2-0.1-0.2c-0.1,0.2,0,0.7-0.5,1.1c0-0.2-0.1-0.2-0.1-0.2c-0.3,0.2-0.1,0.4-0.4,0.7
		c0-0.1-0.1-0.1-0.1-0.1s-0.3,0.5-1.1,1.5c-0.4,0.4-0.2,0.9-0.8,2.4c-0.2,0.5-0.3,0.7-0.5,1.4c-0.2,0.7-0.3,0.6-1.7,1.8
		c-0.2,0.2-0.1,0.2-0.1,0.3c0,0.1,0.2,0.8,0.2,0.8c-0.2,0.1-0.1,0.4,0.1,0.3c1.2-0.4,1.5,0,1.5,0c-0.2,0-0.4,0.2-0.4,0.2
		c-0.5-0.2-0.6,0.3-0.6,0.3c-0.1-0.1-0.2,0-0.2,0c0.2,0.2-0.1,0.3-0.3,0.2c-0.3-0.1-0.4,0.1-0.6-0.1C74.1,22.3,73.8,21.8,73.7,21.4z
		 M78,20.4c0.1,0.3,0.2,0.9,0.4,1.4c0.1,0.5,0.4,0.6,0.4,0.6c-0.2,0.1-0.5,0-0.5,0c-0.4-1.4-1.6-1.3-1.6-1.3c0,1,0.9,1.4,0.9,1.4
		c-0.2,0-0.5,0-0.5,0c-0.5-1-0.4-1.5-1.9-1.2c-0.1-0.3-0.2-0.7-0.2-0.7c1.4-1.1,1.7-1.4,1.8-1.8c0-0.4,0.2-0.8,0.2-0.8
		c0.3,0.5,0.4,0.5,0.7,0.6c0.2,0.1,0.2,0.1,0.4,0.9C78.4,20.1,77.9,19.9,78,20.4z M78.1,22.6c-0.4-0.1-0.9-0.5-1-1
		C77.5,21.7,78,22.2,78.1,22.6z M76.8,22.8c0,0-0.1-0.1-0.5-0.4c0,0,0-0.1,0.2-0.1C76.6,22.3,76.8,22.4,76.8,22.8z M76,22.7
		c0,0-0.2-0.1-0.4-0.3c0,0,0-0.1,0.2-0.1C75.9,22.3,76.1,22.5,76,22.7z M76.9,24.1c0.2-0.3,1.6-0.8,2-0.5
		C78.8,23.8,78.1,24.2,76.9,24.1z M77.1,23.3c-3.1,0.1-4.3-0.4-4.3-0.4l0.1-0.2c0.7,0.1,0.9,0.1,1.2,0.2c0.3,0.1,0.3-0.1,0.9,0
		c0.2,0,0.3,0,0.4-0.1c0.1,0,0.4,0.1,0.5,0.2c0.1,0.1,0.3,0.1,0.2,0c0-0.1,0-0.2,0-0.2s0.2,0,0.5,0.3c0.2,0.1,0.1,0,0.3-0.1
		c1.3,0,2-0.1,2-0.1c0.5,0.1,0.7-0.2,0.7-0.2c0.2,0.1,0.3,0.1,0.3,0.1c0.2,0.1,0.6,0.1,0.6,0.1S79.6,23.2,77.1,23.3z M80.4,22.2
		c0,0,0-0.1,0.2-0.1c0,0,0.3,0.2,0.3,0.4C80.9,22.5,80.5,22.5,80.4,22.2z M80.8,21.9c-0.5-0.1-0.7,0.1-0.6,0.5
		c-0.6-0.2-0.5,0.1-0.5,0.1s-0.1,0.1-0.3,0c-0.1,0-0.4-0.4-0.6-0.7c-0.1-0.3-0.2-0.9-0.3-1.3c-0.1-0.4,0.3-0.2,0.2-0.7
		c0-0.3-0.2-0.8-0.3-1.2c-0.1-0.3-0.3-0.2-0.6-0.4c-0.2-0.2-0.4-0.5-0.4-0.5s0.3-0.5,0.6-1.8c0.1-0.7,0.4-0.8,0.4-0.8
		s0.2,0.5,0.8,1.2c0.2,0.2,0.3,0.3,0.3,0.8c0,0.5,0.2,1.1,0.3,1.7c0,0.3,0.1,0.4-0.2,0.9c-0.3,0.5-0.3,0.6,0,1.7
		c0.1,0.3,0.2,0.4,0.4,0.3c0.5-0.1,0.8-0.1,1,0C80.8,21.7,80.8,21.9,80.8,21.9z M81,22.8c0,0,0.1-0.1,0.1-0.3c0,0,0.3,0,0.5,0.2
		C81.7,22.7,81.3,22.8,81,22.8z M81,22c0,0,0-0.2,0.2-0.2c0,0,0.3,0.2,0.3,0.6C81.7,22.4,81.4,22.2,81,22z M80.1,21.2
		c-0.2,0-0.2,0-0.3-0.5s0-0.5,0.2-0.9c0.2-0.3,0.3-0.5,0.2-0.8c0-0.3-0.2-1.5-0.3-2.1c-0.1-0.6-0.1-0.7-0.8-1.5
		c-0.3-0.4-0.5-0.8-0.5-0.8l0.3-0.4c0,0.1,0.2,0.1,0.2,0.1c0.1-0.2,0.1-0.5,0.4-0.6c0.1,0,0.2,0,0.2,0c0.2-0.3,0-0.3,0.5-0.9
		c0.1,0,0.1,0.1,0.1,0.1c0.2-0.2,0-0.4,0.4-1.1c0.3,0.2,0.7,0.6,1,0.8c0.3,0.2,0.3,0.2,0.4,0.8c0.2,0.7,0.6,0.7,0.6,0.7
		c0.1,0.1,0.4,0.3,0.4,0.3l0.1,3c0.1,3.8,2.7,4.8,6,5.1c-0.1,0.2,0,0.4,0,0.4s-0.6-0.1-1.1,0.2c-0.2,0.1-0.3,0.1-0.3,0.1
		c-0.7-1.2-1.8-1.3-1.8-1.3c-0.1,0.1,0,0.4,0.1,0.7c0,0,0,0.1,0.1,0.1c0,0,0,0-0.1-0.1c-0.7-1.2-1.8-1.5-1.8-1.5
		c0,0.9,0.5,1.3,0.5,1.3l-0.4-0.1c-0.3-1.5-1.3-1.7-1.3-1.7c-0.2,0.9,0.5,1.6,0.5,1.6l-0.3,0c-0.2-0.5-0.6-1-0.6-1
		c1-1.7,0.1-2.9,0.1-2.9c-0.4,0.5-0.5,1-0.5,1c-0.1-0.4-0.2-0.7-0.2-0.7c1.3-1.7,0.6-3.2,0.6-3.2c-0.5,0.3-0.7,1-0.7,1v-0.5
		c0.8-1.7-0.4-2.8-0.4-2.8c-1,1.7,0.2,2.8,0.2,2.8v0.4c-0.4-1.1-1.2-1.3-1.2-1.3c-0.2,1.8,1.2,2.7,1.2,2.7c0,0.3,0,0.6,0,0.6
		c-0.4-0.4-0.9-0.6-0.9-0.6c-0.1,2.1,1.4,2.7,1.4,2.7c0.1,0.2,0.1,0.4,0.1,0.4c-0.6-0.4-1.2-0.4-1.2-0.4c0.1,1.2,1.1,1.7,1.1,1.7
		c-0.3,0-0.5,0.1-0.5,0.1C81.3,21.2,81.1,21,80.1,21.2z M87.4,23.1c-0.4,0-0.8-0.4-0.9-0.8C86.7,22.4,87.2,22.6,87.4,23.1z
		 M85.7,22.6c-0.4,0-0.9-0.7-0.9-1C85.2,21.7,85.7,22.3,85.7,22.6z M84.2,22.1c-0.4-0.1-0.7-0.9-0.7-1.1
		C83.9,21.1,84.1,21.7,84.2,22.1z M83.1,22c-0.4-0.1-1.2-0.6-1.3-1.2C82.3,20.8,83,21.5,83.1,22z M82.8,18.8c0.3,0.5,0,1.3-0.1,1.4
		C82.4,19.8,82.7,19,82.8,18.8z M82.2,19.7c-0.6-0.3-0.9-1.4-0.9-1.6C81.9,18.5,82.1,19.4,82.2,19.7z M81.8,15.3
		c-0.4-0.4-0.4-1.5-0.2-1.8C82.1,13.9,82,14.9,81.8,15.3z M82.5,15.9c0.2,0.5-0.1,1.6-0.4,1.8C81.8,17.3,82.3,16.2,82.5,15.9z
		 M81.7,17c-0.6-0.3-0.8-1.3-0.8-1.5C81.5,15.8,81.7,16.6,81.7,17z M82.3,23.4c0.2-0.3,1.5-0.7,1.9-0.4
		C84.1,23.2,83.4,23.6,82.3,23.4z M84.7,23.9c0.3-0.3,1.3-0.6,1.8-0.2C86.4,23.9,85.4,24.3,84.7,23.9z M84.7,22.9
		c-1.5-0.5-2.8-0.2-2.8-0.2l0.2-0.3c1.2-0.2,2,0,3.5,0.4c1.2,0.4,2.7,0.7,2.7,0.7l-0.6,0.1C87.7,23.8,86.7,23.6,84.7,22.9z
		 M87.7,24.5c-0.2-0.1-0.2-0.4-0.2-0.4c0.7-0.2,1.5-0.3,1.5-0.3c0.2,0,0.2,0.3,0.2,0.3S88.5,24.2,87.7,24.5z M89.5,24.2
		c0-0.8-1-0.8-1-0.8c1-0.5,1.4,0.4,1.4,0.4L89.5,24.2z M90.1,22.5c0.7,0,0.6,0.6,0,0.9C89.6,23.1,89.5,22.5,90.1,22.5z M90.8,24.2
		l-0.4-0.4c0,0,0.4-0.9,1.4-0.4C91.8,23.4,90.8,23.4,90.8,24.2z M92.6,24.5c-0.8-0.3-1.5-0.4-1.5-0.4s0-0.2,0.2-0.3
		c0,0,0.7,0.1,1.5,0.3C92.9,24.1,92.9,24.4,92.6,24.5z M95.6,23.9c-0.7,0.3-1.7,0-1.8-0.2C94.3,23.3,95.3,23.6,95.6,23.9z M96,23
		c0.4-0.3,1.7,0.1,1.9,0.4C96.9,23.6,96.2,23.2,96,23z M95.6,22.9c-2,0.7-3,0.9-3,0.9l-0.6-0.1c0,0,1.5-0.3,2.7-0.7
		c1.5-0.5,2.3-0.6,3.5-0.4l0.2,0.3C98.5,22.7,97.1,22.3,95.6,22.9z M92.9,23.1c0.2-0.5,0.6-0.7,0.9-0.8
		C93.7,22.7,93.3,23.1,92.9,23.1z M94.6,22.6c0-0.3,0.5-0.9,0.9-1C95.4,21.9,95,22.5,94.6,22.6z M96.1,22.1c0-0.3,0.3-1,0.7-1.1
		C96.9,21.2,96.6,21.9,96.1,22.1z M98.6,20.7c-0.1,0.6-0.9,1.1-1.3,1.2C97.3,21.5,98,20.8,98.6,20.7z M97.5,18.8
		c0.1,0.1,0.4,1,0.1,1.4C97.4,20.2,97.2,19.3,97.5,18.8z M98,22c0,0,1-0.5,1.1-1.7c0,0-0.5,0-1.2,0.4c0,0,0-0.2,0.1-0.4
		c0,0,1.5-0.5,1.4-2.7c0,0-0.5,0.2-0.9,0.6c0,0,0-0.3,0-0.6c0,0,1.5-0.8,1.2-2.7c0,0-0.8,0.2-1.2,1.3v-0.4c0,0,1.1-1.1,0.2-2.8
		c0,0-1.2,1.1-0.4,2.8v0.5c0,0-0.2-0.6-0.7-1c0,0-0.7,1.4,0.6,3.2c0,0,0,0.3-0.2,0.7c0,0-0.1-0.5-0.5-1c0,0-0.9,1.2,0.1,2.9
		c0,0-0.4,0.5-0.6,1l-0.3,0c0,0,0.7-0.6,0.5-1.6c0,0-1,0.2-1.3,1.7l-0.4,0.1c0,0,0.6-0.4,0.5-1.3c0,0-1.1,0.3-1.8,1.5
		c0,0.1-0.1,0.1-0.1,0.1c0,0,0-0.1,0.1-0.1c0.1-0.2,0.3-0.6,0.1-0.7c0,0-1,0.1-1.8,1.3c0,0-0.1,0-0.3-0.1c-0.5-0.3-1.1-0.2-1.1-0.2
		s0-0.2,0-0.4c3.2-0.3,5.9-1.3,6-5.1l0.1-3c0,0,0.3-0.1,0.4-0.3c0,0,0.4,0,0.6-0.7c0.1-0.5,0.1-0.6,0.4-0.8s0.7-0.5,1-0.8
		c0.3,0.7,0.2,0.9,0.4,1.1c0,0,0-0.1,0.1-0.1c0.5,0.5,0.3,0.6,0.5,0.9c0,0,0.1-0.1,0.2,0c0.2,0.1,0.2,0.4,0.4,0.6c0,0,0.1,0,0.2-0.1
		l0.3,0.4c0,0-0.2,0.4-0.5,0.8c-0.6,0.8-0.7,0.9-0.8,1.5c-0.1,0.6-0.2,1.8-0.3,2.1s0.1,0.5,0.2,0.8c0.2,0.4,0.3,0.4,0.2,0.9
		c-0.1,0.5-0.1,0.5-0.3,0.5c-0.9-0.2-1.2,0-1.7,0.8C98.5,22.1,98.2,22,98,22z M99.1,18.1c0,0.2-0.3,1.3-0.9,1.6
		C98.2,19.4,98.4,18.5,99.1,18.1z M98.2,17.7c-0.3-0.1-0.6-1.3-0.4-1.8C98,16.2,98.5,17.3,98.2,17.7z M98.7,13.5
		c0.2,0.3,0.2,1.4-0.2,1.8C98.3,14.9,98.2,13.9,98.7,13.5z M98.6,17c0-0.3,0.1-1.2,0.8-1.5C99.4,15.7,99.2,16.6,98.6,17z M98.6,22.7
		c0.2-0.2,0.5-0.2,0.5-0.2c0,0.1,0.1,0.3,0.1,0.3C99,22.8,98.6,22.7,98.6,22.7z M98.6,22.4c0-0.3,0.3-0.6,0.3-0.6
		c0.2,0,0.2,0.2,0.2,0.2C98.9,22.2,98.6,22.4,98.6,22.4z M100.3,21.6c0.2,0,0.3,0,0.4-0.3c0.3-1.1,0.2-1.1,0-1.7
		c-0.2-0.4-0.2-0.5-0.2-0.9c0-0.7,0.2-1.3,0.3-1.7c0-0.5,0.1-0.6,0.3-0.8c0.6-0.6,0.8-1.2,0.8-1.2s0.3,0.1,0.4,0.8
		c0.2,1.2,0.6,1.8,0.6,1.8s-0.2,0.3-0.4,0.5c-0.2,0.2-0.5,0.1-0.6,0.4c-0.1,0.3-0.3,0.8-0.3,1.2c-0.1,0.5,0.3,0.3,0.2,0.7
		s-0.2,0.9-0.3,1.3c-0.1,0.3-0.5,0.7-0.6,0.7c-0.2,0.1-0.3,0-0.3,0s0.1-0.4-0.5-0.1c0.1-0.3,0-0.6-0.6-0.5c0,0,0-0.2-0.2-0.2
		C99.5,21.5,99.8,21.5,100.3,21.6z M99.9,22.2c-0.1,0.2-0.5,0.3-0.5,0.3c0-0.2,0.3-0.4,0.3-0.4C99.9,22.1,99.9,22.2,99.9,22.2z
		 M101.3,23.6c0.4-0.3,1.8,0.2,2,0.5C102.2,24.2,101.5,23.8,101.3,23.6z M103.2,23.3c-2.5-0.1-3.9-0.5-3.9-0.5s0.3,0,0.6-0.1
		c0,0,0.1,0,0.3-0.1c0,0,0.2,0.4,0.7,0.2c0,0,0.7,0.1,2,0.1c0.2,0.1,0.1,0.3,0.3,0.1c0.3-0.2,0.5-0.3,0.5-0.3s0.1,0.1,0,0.2
		c0,0.1,0.1,0.1,0.2,0c0.1-0.1,0.3-0.2,0.5-0.2c0.1,0.1,0.2,0.2,0.4,0.1c0.5-0.2,0.6,0.1,0.9,0c0.3-0.1,0.5,0,1.2-0.2l0.1,0.2
		C107.5,22.9,106.3,23.5,103.2,23.3z M107.7,22.3c-0.1-0.2,0.3-0.2,0.3-0.2C108,22.2,107.8,22.5,107.7,22.3z M108.2,21.2
		c0.2,0,0.4-0.1,0.4-0.1s0,0.4-0.5,0.6C107.7,21.9,107.7,21.3,108.2,21.2z M108.5,22.7c-0.4,0-0.4-0.5,0-0.5c0.4,0,0.6,0.2,0.6,0.2
		S108.8,22.6,108.5,22.7z M92.3,15.6c-0.4,0-0.8,0.1-1.1,0.2c0,0-0.1-0.1-0.1-0.1c-0.1-0.2-0.2-0.1-0.2-0.1s-0.1-0.2-0.1-0.4
		c0-0.1-0.2-0.1-0.3,0c-0.1,0.1-0.2,0.1-0.2,0.1l-1.8-1.7l0.5-0.6l0.2,0.2l-0.4,0.4l0.7,0.7l2-2.1l-1.2-1.1l-0.8,0.8l0.5,0.5
		l0.2-0.2l0.1,0.1l-0.4,0.4l-1.5-1.5l0.4-0.4l0.1,0.1l-0.2,0.2l0.4,0.4l0.8-0.8l-1.2-1.1l-2,2.1l0.7,0.7l0.4-0.4l0.2,0.2L87.5,13
		l-1.3-1.3c-0.2-0.2-0.5,0-0.6,0.1s-0.3,0.5-0.1,0.6l3.8,3.7c0,0,0,0.1-0.1,0.2c-0.1,0.1-0.1,0.3,0,0.3s0.4,0.1,0.4,0.1
		s-0.1,0.1,0.1,0.2c0,0,0,0,0.1,0c-0.2,0.3-0.3,0.8-0.3,1.2c0,1.5,1.2,2.7,2.8,2.7s2.8-1.2,2.8-2.7C95.1,16.8,93.9,15.6,92.3,15.6z
		 M85.8,12.4c-0.1-0.1-0.1-0.2,0-0.3c0.1-0.1,0.1-0.2,0.3,0l1.4,1.3l1-1L88,11.8l-0.4,0.4l-0.3-0.3l1.6-1.7l0.8,0.8l-0.4,0.4
		l-0.1-0.1l0.2-0.2l-0.4-0.4l-0.7,0.7l1.9,1.8l0.7-0.7l-0.5-0.4L90,12.1L89.9,12l0.4-0.4l0.7,0.7l-1.6,1.6l-0.3-0.3l0.4-0.4
		l-0.7-0.6l-1,1l2,2l-0.4,0.4L85.8,12.4z M89.9,16.6c-0.1-0.1-0.1,0-0.2-0.1c0,0,0-0.1,0-0.2c0.1-0.1,0.3-0.4,0.5-0.5
		c0.1-0.1,0.2-0.2,0.3-0.1s0,0.1,0.1,0.2c0.1,0.1,0.2,0,0.3,0.2c-0.6,0.4-0.9,0.9-0.9,0.9C89.8,16.8,90,16.7,89.9,16.6z M92.3,20.7
		c-1.3,0-2.4-1-2.4-2.3c0-1.3,1.1-2.3,2.4-2.3c1.3,0,2.4,1,2.4,2.3C94.7,19.7,93.6,20.7,92.3,20.7z M92.3,16.4c-1.1,0-2,0.9-2,1.9
		c0,1.1,0.9,1.9,2,1.9s2-0.9,2-1.9C94.3,17.3,93.4,16.4,92.3,16.4z M90.7,19c0,0-0.3-0.7,0-1.3C91,18.4,90.7,19,90.7,19z M93,16.8
		c-0.7,0.3-1.3,0-1.3,0S92.3,16.5,93,16.8z M91.6,19.9c0,0,0.6-0.3,1.3,0C92.3,20.2,91.6,19.9,91.6,19.9z M93.5,19.6
		c-0.2,0.3-0.6-0.1-1.2-0.1c-0.5,0-0.9,0.3-1.2,0.1c-0.3-0.2,0.1-0.6,0.1-1.2c0-0.5-0.3-0.9-0.1-1.2c0.2-0.3,0.6,0.1,1.2,0.1
		c0.5,0,0.9-0.3,1.2-0.1c0.3,0.2-0.1,0.6-0.1,1.2C93.4,18.9,93.8,19.3,93.5,19.6z M93.9,17.7c0.3,0.6,0,1.3,0,1.3
		S93.6,18.4,93.9,17.7z M92.3,17.6c-0.4,0-0.8,0.3-0.8,0.7s0.3,0.7,0.8,0.7c0.4,0,0.8-0.3,0.8-0.7S92.7,17.6,92.3,17.6z M92.3,18.8
		c-0.2,0-0.4-0.2-0.4-0.4c0-0.2,0.2-0.4,0.4-0.4s0.4,0.2,0.4,0.4C92.8,18.6,92.6,18.8,92.3,18.8z"/>
</g>
</svg>
