<?xml version="1.0" encoding="utf-8"?>
<svg width="103px" height="50px" viewBox="0 0 103 50" version="1.1" xmlns="http://www.w3.org/2000/svg" xmlns:xlink="http://www.w3.org/1999/xlink">
<title>ZEIT Magazin Online</title>
<g fill="#FFFFFF">
	<path d="M7,45.5H6.7c-0.2,0-0.2-0.1-0.1-0.3L31.5,2.5c0.1-0.2,0.3-0.3,0.5-0.3h0.4c0.2,0,0.2,0.1,0.1,0.3
		L7.5,45.2C7.4,45.3,7.2,45.5,7,45.5 M37.9,35.3c-1.4,2.6-9.2,9.8-19.4,9.8h-6.9L39,0.2H12.3c-3.1,0-6-0.2-6-0.2S1.4,10.9,1,11.8
		c-0.3,0.7,0.4,1,0.8,0.3c1.3-2.2,7-9.3,18.5-9.3h6.7L0,47.7h33c0,0,5.3-11.5,5.5-12.1C38.8,35,38.2,34.8,37.9,35.3"/>
	<path d="M92.9,45.2c0,0.2-0.1,0.3-0.3,0.3h-0.4c-0.2,0-0.3-0.1-0.3-0.3V2.5c0-0.2,0.1-0.3,0.3-0.3h0.4
		c0.2,0,0.3,0.1,0.3,0.3V45.2z M72.3,40.6l-0.2,0.5c-0.1,0.2-0.2,0.1-0.3-0.1L55.1,2.5c-0.1-0.2,0-0.3,0.2-0.3l0.4,0
		c0.2,0,0.3,0.1,0.4,0.4l16.3,37.5C72.4,40.3,72.4,40.4,72.3,40.6L72.3,40.6z M72.7,39.8L72.7,39.8L72.4,39L72.7,39.8z M102.3,47.1
		c-2.2,0-4.7-1.3-4.7-5l0-36c0-3.5,3.2-4.7,4.4-4.7c0.4,0,0.5-1.1,0-1.1l-13.6,0L74.4,35.2c0,0-15.5-34.2-15.9-35.2
		c0,0-3.2,0.3-5.3,0.3H45c-0.5,0-0.4,1.1,0,1.1c1.2,0,4.9,1.4,4.9,5.1v30.7c0,8.2-2.3,10-5.3,10c-0.4,0-0.6,1.2,0,1.2h14.2
		c0.6,0,0.4-1.2,0-1.2c-3.3,0-5.6-1.8-5.6-10l0-26.1l18.3,38.8L88.5,7.5v34.6c0,3.7-1.8,5-4.4,5c-0.4,0-0.6,1.2,0,1.2h18.2
		C102.9,48.3,102.7,47.1,102.3,47.1L102.3,47.1z"/>
</g>
</svg>
