<?xml version="1.0" encoding="utf-8"?>
<svg width="50px" height="50px" viewBox="0 0 50 50" version="1.1" xmlns="http://www.w3.org/2000/svg" xmlns:xlink="http://www.w3.org/1999/xlink">
<title>ZEIT ONLINE</title>
<g>
	<path fill="#FFFFFF" d="M7.4,47.7H7c-0.2,0-0.2-0.2-0.1-0.3L33.1,2.6c0.1-0.2,0.3-0.3,0.5-0.3
		H34c0.2,0,0.2,0.2,0.1,0.3L7.9,47.4C7.8,47.6,7.6,47.7,7.4,47.7 M39.9,37.1c-1.4,2.7-9.7,10.3-20.4,10.3h-7.3L41,0.3H12.9
		C9.7,0.3,6.6,0,6.6,0s-5,11.4-5.5,12.4c-0.3,0.7,0.4,1,0.8,0.3c1.4-2.3,7.4-9.8,19.5-9.8h7.1L0,50h34.7c0,0,5.6-12.1,5.8-12.7
		C40.8,36.7,40.2,36.5,39.9,37.1"/>
</g>
</svg>
