<?xml version="1.0" encoding="utf-8" standalone="no"?>
<svg version="1.1" id="Layer_1" xmlns="http://www.w3.org/2000/svg" xmlns:xlink="http://www.w3.org/1999/xlink" x="0px" y="0px"
	 width="14px" height="14px" viewBox="0 0 14 14" enable-background="new 0 0 14 14" xml:space="preserve">
<title>Auf Twitter teilen</title>
<path fill="#010101" d="M13.999,2.889c-0.515,0.228-1.067,0.383-1.649,0.452c0.594-0.355,1.048-0.918,1.264-1.588
	c-0.555,0.328-1.17,0.567-1.824,0.697c-0.524-0.559-1.271-0.907-2.096-0.907c-1.586,0-2.872,1.284-2.872,2.871
	c0,0.225,0.025,0.445,0.073,0.653c-2.386-0.119-4.502-1.261-5.92-2.999C0.728,2.492,0.586,2.985,0.586,3.512
	c0,0.996,0.507,1.876,1.278,2.391c-0.47-0.017-0.914-0.146-1.302-0.36c0,0.014,0,0.025,0,0.036c0,1.393,0.99,2.552,2.305,2.817
	C2.625,8.461,2.373,8.498,2.11,8.498c-0.185,0-0.365-0.019-0.541-0.052c0.365,1.142,1.426,1.971,2.683,1.995
	c-0.983,0.77-2.221,1.229-3.567,1.229c-0.232,0-0.46-0.015-0.686-0.041c1.271,0.814,2.781,1.292,4.404,1.292
	c5.283,0,8.17-4.377,8.17-8.173c0-0.124-0.003-0.248-0.008-0.373C13.128,3.972,13.615,3.466,13.999,2.889z"/>
</svg>
