<?xml version="1.0" encoding="utf-8" standalone="no"?>
<svg version="1.1" id="Layer_1" xmlns="http://www.w3.org/2000/svg" xmlns:xlink="http://www.w3.org/1999/xlink" x="0px" y="0px"
	 width="14px" height="14px" viewBox="0 0 14 14" enable-background="new 0 0 14 14" xml:space="preserve">
<title>Auf Google+ teilen</title>
<g>
	<path fill="#010101" d="M13.708,5.956h-2.111V3.943c0-0.153-0.131-0.279-0.292-0.279h-0.6c-0.162,0-0.292,0.126-0.292,0.279v2.014
		H8.301c-0.161,0-0.291,0.125-0.291,0.278V6.81c0,0.154,0.13,0.279,0.291,0.279h2.112v2.013c0,0.154,0.13,0.28,0.292,0.28h0.6
		c0.161,0,0.292-0.126,0.292-0.28V7.089h2.111C13.869,7.089,14,6.964,14,6.81V6.235C14,6.082,13.869,5.956,13.708,5.956z"/>
	<path fill="#010101" d="M6.615,7.721C6.17,7.423,5.767,6.981,5.758,6.848c0-0.248,0.024-0.364,0.604-0.794
		c0.749-0.56,1.159-1.295,1.159-2.07c0-0.705-0.226-1.33-0.61-1.77H7.21c0.062,0,0.122-0.017,0.171-0.052l0.83-0.573
		c0.104-0.071,0.146-0.198,0.107-0.312C8.279,1.163,8.167,1.084,8.041,1.084H4.327c-0.406,0-0.818,0.069-1.224,0.202
		c-1.354,0.444-2.3,1.546-2.3,2.675c0,1.601,1.3,2.814,3.037,2.853C3.806,6.94,3.789,7.065,3.789,7.188
		c0,0.246,0.065,0.479,0.2,0.706c-0.016,0-0.031,0-0.048,0c-1.655,0-3.149,0.774-3.717,1.93C0.076,10.121,0,10.426,0,10.724
		c0,0.293,0.08,0.572,0.231,0.835c0.356,0.608,1.123,1.082,2.158,1.331c0.534,0.129,1.108,0.194,1.705,0.194
		c0.536,0,1.046-0.066,1.518-0.195c1.473-0.409,2.423-1.441,2.423-2.638C8.035,9.108,7.65,8.422,6.615,7.721z M1.924,10.345
		c0-0.834,1.109-1.563,2.374-1.563l0.034,0.001c0.275,0.002,0.543,0.041,0.797,0.114c0.086,0.058,0.17,0.111,0.25,0.164
		c0.585,0.38,0.972,0.633,1.08,1.036c0.025,0.101,0.039,0.202,0.039,0.3c0,1.037-0.81,1.563-2.41,1.563
		C2.874,11.96,1.924,11.25,1.924,10.345z M3.075,2.472C3.272,2.258,3.53,2.144,3.821,2.144h0.033
		C4.675,2.167,5.461,3.04,5.605,4.089C5.687,4.677,5.549,5.23,5.239,5.567C5.042,5.782,4.786,5.895,4.484,5.895c0,0,0,0,0,0H4.471
		c-0.804-0.021-1.607-0.929-1.75-1.977C2.64,3.332,2.769,2.804,3.075,2.472z"/>
</g>
</svg>
