<?xml version="1.0" encoding="utf-8"?>
<!-- Generator: Adobe Illustrator 16.0.4, SVG Export Plug-In . SVG Version: 6.00 Build 0)  -->
<!DOCTYPE svg PUBLIC "-//W3C//DTD SVG 1.1//EN" "http://www.w3.org/Graphics/SVG/1.1/DTD/svg11.dtd">
<svg version="1.1" id="Ebene_1" xmlns="http://www.w3.org/2000/svg" xmlns:xlink="http://www.w3.org/1999/xlink" x="0px" y="0px"
	 width="18px" height="18px" viewBox="0 0 18 18" enable-background="new 0 0 18 18" xml:space="preserve">
<path fill="#444444" d="M16.32,14.339l-4.171-4.202c0.526-0.859,0.836-1.865,0.836-2.944c0-3.117-2.536-5.652-5.653-5.652
	S1.68,4.075,1.68,7.192s2.536,5.653,5.653,5.653c0.95,0,1.844-0.238,2.63-0.653l4.236,4.268L16.32,14.339z M3.68,7.192
	c0-2.014,1.639-3.652,3.653-3.652s3.653,1.639,3.653,3.652c0,2.015-1.639,3.653-3.653,3.653S3.68,9.207,3.68,7.192z"/>
</svg>
