<?xml version="1.0" encoding="utf-8"?>
<!-- Generator: Adobe Illustrator 16.0.4, SVG Export Plug-In . SVG Version: 6.00 Build 0)  -->
<!DOCTYPE svg PUBLIC "-//W3C//DTD SVG 1.1//EN" "http://www.w3.org/Graphics/SVG/1.1/DTD/svg11.dtd">
<svg version="1.1" id="Ebene_1" xmlns="http://www.w3.org/2000/svg" xmlns:xlink="http://www.w3.org/1999/xlink" x="0px" y="0px"
	 width="346px" height="37px" viewBox="0 0 346 37" enable-background="new 0 0 346 37" xml:space="preserve">
<g>
	<g>
		<path d="M98.296,1.791c-0.304-0.797-0.91-0.321-1.458-0.321H78.646c-0.55,0-1.155-0.476-1.458,0.321
			c-0.316,0.836-3.202,7.73-3.371,8.109c-0.172,0.38,0.409,0.697,0.698,0.172c1.251-2.256,5.487-6.858,10.132-6.858v27.28
			c0,1.591-1.592,2.616-2.653,2.616c-0.285,0-0.398,0.812,0,0.812h11.612c0.397,0,0.284-0.812,0-0.812
			c-1.061,0-2.818-1.021-2.818-2.616L90.784,3.21c4.485,0,9.061,4.416,10.559,6.614c0.337,0.497,0.873,0.209,0.7-0.17
			C101.877,9.274,98.614,2.627,98.296,1.791z M88.143,32.007c0,0.118-0.095,0.214-0.213,0.214h-0.253
			c-0.119,0-0.214-0.096-0.214-0.214V3.429c0-0.12,0.095-0.216,0.214-0.216h0.253c0.119,0,0.213,0.096,0.213,0.216V32.007z"/>
		<path d="M71.912,33.109c-1.063,0-2.817-1.021-2.817-2.616l0.01-25.709c0-1.591,1.838-2.597,2.652-2.597
			c0.285,0,0.322-0.718,0-0.718h-11.46c-0.322,0-0.283,0.718,0,0.718c0.815,0,2.652,1.005,2.652,2.597v25.709
			c0,1.591-1.589,2.616-2.652,2.616c-0.283,0-0.396,0.812,0,0.812H71.91C72.31,33.921,72.196,33.109,71.912,33.109z M66.446,32.007
			c0,0.118-0.096,0.214-0.214,0.214h-0.252c-0.119,0-0.214-0.096-0.214-0.214V3.429c0-0.12,0.096-0.216,0.214-0.216h0.252
			c0.119,0,0.214,0.096,0.214,0.216V32.007z"/>
		<path d="M161.078,27.122c1.832-1.502,1.307-4.016-0.853-6.233c-2.16-2.217-2.331-3.107-2.295-4.471
			c1.423,0.057,1.592-1.044,1.46-1.215c0.984-0.416,0.551-1.325,0.551-1.325c0.359-0.549,0.17-1.46,0.17-1.46
			c-0.927-0.055-1.478,0.286-1.478,0.286c-0.605-0.19-1.08,0.663-1.08,0.663c-1.173,0.018-0.778,2.236-0.778,2.236
			s-0.518,1.309-0.171,2.387c0.928,2.899,2.595,3.675,3.653,5.533c0.426,0.745,0.419,2.178-0.529,2.54
			c-0.892,0.338-1.648-0.341-2.121-2.238c-0.474-1.894-0.643-1.95-1.764-3.446c-1.117-1.499-1.174-2.257-1.246-3.81
			c-0.078-1.554-0.23-3.185-0.23-3.185c0.247,0.057,0.321-0.131,0.321-0.131c-0.474-0.625-0.511-1.364-0.511-1.364
			c0.19,0,0.265-0.153,0.265-0.153c-0.568-0.586-0.302-0.757-0.568-1.268c0.323,0.018,0.38-0.228,0.38-0.228
			c-0.682-0.512-0.606-0.966-1.269-1.723c0.19,0.018,0.302-0.114,0.302-0.114c-0.53-0.643-0.739-1.193-1.764-1.002l-0.283-0.323
			c0,0,0.815-0.057,1.212-0.568c0.397-0.512-0.322-1.023-0.322-1.023s-0.169,0.203-0.265,0.17c-0.229-0.075,0.018-0.341-0.304-0.494
			c-0.262-0.123-0.114-0.624,0.286-0.549c0.395,0.076,0.093,0.588,0.377,0.682s0.386-0.478,0.643-0.378
			c0.153,0.057,0.191-0.078,0.589-0.76c0.249-0.425-0.152-0.397,0.093-0.927c0.175-0.377,0.228-0.948-1.421-1.193
			c-0.039-1.364-1.308-0.892-1.762-0.929c-0.248-0.89-1.062-1.061-2.219-0.966l-0.091,0.19c-0.778-0.037-1.27,0.153-1.27,0.153
			l0.058,0.32c-0.778-0.075-1.081,0.458-1.573,0.551l0.095,0.227c-0.719,0.437-0.605,0.984-1.306,1.363l0.284,0.286l-0.172,0.305
			c-0.757-0.021-1.231,0.339-1.231,0.339c-0.909-0.133-1.137,0.759-1.137,0.759c-0.966,0.17-1.232,1.25-1.137,1.687
			c-0.796,0.247-0.626,1.194-0.626,1.194c-0.512,0.227-0.738,0.966,0.017,1.382c0,0-0.339,0.874-1.342,0.456
			c-1-0.414-0.74-1.137-0.57-1.288c0.7,0.568,1.212,0.075,1.138-0.568c1.042-0.302,0.757-1.325,0.757-1.325
			c1.27-0.684,0.475-2.104,0.475-2.104c0.569-0.549,0.019-1.231,0.019-1.231c0.018-0.891-0.569-1.705-0.569-1.705
			c-0.908,0.153-1.248,0.739-1.248,0.739c-0.966,0.019-1.175,0.984-1.175,0.984c-1.004,0.039-1.347,0.948-1.213,1.705
			c-0.606,0.341-0.701,1.213-0.359,1.819c-0.53,0.607-0.076,1.346,0.511,1.364c0,0-0.11,0.911-1.155,0.911
			c-1.042,0-1.44-1.023-1.174-1.458c0.779,0.32,1.136-0.36,0.985-0.966c0.948-0.721,0.112-1.725,0.112-1.725
			c0.586-0.872,0.057-1.535-0.53-2.083c0-0.568-0.436-0.625-0.436-0.625c-0.378-1.044-1.144-1.459-1.144-1.459
			s-0.763,0.416-1.143,1.459c0,0-0.436,0.057-0.436,0.625c-0.587,0.549-1.118,1.211-0.531,2.083c0,0-0.833,1.004,0.114,1.725
			c-0.152,0.606,0.208,1.287,0.982,0.966c0.266,0.434-0.131,1.458-1.174,1.458c-1.042,0-1.156-0.911-1.156-0.911
			c0.588-0.018,1.043-0.757,0.513-1.364c0.34-0.605,0.248-1.478-0.359-1.819c0.131-0.757-0.211-1.666-1.212-1.705
			c0,0-0.21-0.965-1.175-0.984c0,0-0.341-0.586-1.25-0.739c0,0-0.588,0.814-0.568,1.705c0,0-0.549,0.682,0.019,1.231
			c0,0-0.795,1.421,0.474,2.104c0,0-0.284,1.021,0.76,1.325c-0.076,0.643,0.435,1.137,1.137,0.568
			c0.17,0.152,0.429,0.874-0.568,1.288c-1.005,0.417-1.346-0.456-1.346-0.456c0.758-0.416,0.532-1.155,0.017-1.382
			c0,0,0.173-0.949-0.625-1.194c0.095-0.437-0.171-1.517-1.138-1.687c0,0-0.227-0.892-1.137-0.759c0,0-0.473-0.36-1.231-0.339
			l-0.17-0.305l0.283-0.286c-0.7-0.377-0.587-0.926-1.307-1.363l0.095-0.227c-0.493-0.093-0.796-0.625-1.573-0.551l0.057-0.32
			c0,0-0.492-0.191-1.268-0.153l-0.092-0.19c-1.157-0.094-1.974,0.077-2.218,0.966c-0.455,0.038-1.724-0.435-1.763,0.929
			c-1.648,0.245-1.595,0.816-1.42,1.193c0.247,0.53-0.152,0.502,0.095,0.927c0.396,0.682,0.434,0.815,0.587,0.76
			c0.258-0.099,0.36,0.473,0.645,0.378s-0.02-0.606,0.377-0.682c0.397-0.075,0.544,0.426,0.284,0.549
			c-0.323,0.152-0.074,0.419-0.304,0.494c-0.094,0.033-0.266-0.17-0.266-0.17s-0.719,0.511-0.322,1.023
			c0.398,0.512,1.213,0.568,1.213,0.568l-0.283,0.323c-1.022-0.191-1.232,0.357-1.763,1.002c0,0,0.113,0.132,0.303,0.114
			c-0.663,0.757-0.586,1.211-1.267,1.723c0,0,0.055,0.245,0.377,0.228c-0.265,0.511,0,0.682-0.569,1.268
			c0,0,0.076,0.153,0.266,0.153c0,0-0.038,0.739-0.512,1.364c0,0,0.076,0.19,0.322,0.131c0,0-0.151,1.63-0.227,3.185
			c-0.076,1.553-0.133,2.311-1.25,3.81c-1.118,1.496-1.289,1.553-1.762,3.446c-0.475,1.895-1.231,2.576-2.123,2.238
			c-0.947-0.36-0.956-1.795-0.53-2.54c1.062-1.857,2.728-2.634,3.656-5.533c0.346-1.079-0.17-2.387-0.17-2.387
			s0.397-2.217-0.778-2.236c0,0-0.477-0.853-1.083-0.663c0,0-0.549-0.341-1.477-0.286c0,0-0.189,0.91,0.173,1.46
			c0,0-0.436,0.91,0.549,1.325c-0.132,0.172,0.038,1.271,1.459,1.215c0.038,1.364-0.133,2.255-2.293,4.471
			c-2.16,2.217-2.685,4.731-0.853,6.233c1.894,1.554,3.735,0.076,3.735,0.076c0.529,0.739,0.491,1.97-0.097,1.837
			c-0.351-0.08-0.433,0.157-0.625,0.986c-0.284,1.231-0.321,1.307,0.663,3.183c0,0-0.587,0-1.175-0.247c0,0-0.057-0.34-0.34-0.549
			c0.247-0.607-0.125-1.364-0.626-1.458c-0.795-0.151-1.363-0.549-1.363-0.549s-0.228,1.286,0.814,1.968
			c0,0-1.212-0.263-1.874,0.627c0.777,0.265,0.788,0.818,1.515,1.003c0.815,0.209,1.211-0.607,1.211-0.607s0.247,0.165-0.055,0.568
			c-0.229,0.304-0.223,0.437,0.152,0.551c2.995,0.891,6.083,0.643,6.083,0.643s-0.625,0.341-0.872,1.156
			c1.289-0.322,3.619,0.606,5.04-1.422c0,0,1.65-0.455,3.941-0.853c0,0-0.512,0.303-0.815,0.834c0,0,2.01,0.986,4.604-0.512
			c0.125-0.072,0.304,0.133,0.114,0.209c-1.1,0.436-1.347,1.098-1.347,1.098s2.238,1.193,4.452-0.264c0,0-0.341,1.098,0.796,1.478
			c0,0,1.082-0.398,2.238-0.646c0,0-0.114,0.284,0.131,0.397c0,0,0.927-0.151,1.634-0.984c0.707,0.834,1.636,0.984,1.632,0.984
			c0.246-0.113,0.132-0.397,0.132-0.397c1.155,0.248,2.238,0.646,2.238,0.646c1.137-0.38,0.795-1.478,0.795-1.478
			c2.217,1.458,4.453,0.264,4.453,0.264s-0.247-0.661-1.345-1.098c-0.191-0.075-0.011-0.281,0.113-0.209
			c2.596,1.496,4.605,0.512,4.605,0.512c-0.303-0.531-0.815-0.834-0.815-0.834c2.293,0.397,3.94,0.853,3.94,0.853
			c1.421,2.028,3.751,1.101,5.04,1.422c-0.247-0.815-0.872-1.156-0.872-1.156s3.089,0.248,6.083-0.643
			c0.374-0.112,0.38-0.247,0.149-0.551c-0.302-0.404-0.055-0.568-0.055-0.568s0.396,0.817,1.213,0.607
			c0.727-0.187,0.739-0.739,1.514-1.003c-0.661-0.89-1.873-0.627-1.873-0.627c1.041-0.682,0.813-1.968,0.813-1.968
			s-0.568,0.395-1.364,0.549c-0.502,0.094-0.874,0.851-0.625,1.458c-0.284,0.208-0.341,0.549-0.341,0.549
			c-0.587,0.247-1.175,0.247-1.175,0.247c0.984-1.875,0.948-1.952,0.664-3.183c-0.193-0.829-0.274-1.065-0.625-0.986
			c-0.586,0.133-0.625-1.1-0.096-1.837C157.345,27.198,159.185,28.676,161.078,27.122z M106.105,33.508
			c-0.494-0.057-0.891-0.494-0.891-0.494s0.356-0.323,0.944-0.266C106.75,32.807,106.767,33.583,106.105,33.508z M106.654,32.087
			c-0.75-0.307-0.701-0.93-0.701-0.93s0.191,0.114,0.587,0.211C107.242,31.537,107.166,32.295,106.654,32.087z M107.222,32.997
			c-0.132,0.206-0.417-0.135-0.436-0.305C106.785,32.692,107.404,32.709,107.222,32.997z M160.133,32.749
			c0.589-0.057,0.948,0.266,0.948,0.266s-0.401,0.436-0.892,0.494C159.527,33.583,159.546,32.807,160.133,32.749z M159.753,31.367
			c0.397-0.096,0.587-0.209,0.587-0.209s0.051,0.622-0.698,0.929C159.127,32.295,159.054,31.537,159.753,31.367z M159.507,32.692
			c-0.02,0.17-0.302,0.511-0.435,0.305C158.891,32.709,159.507,32.692,159.507,32.692z M151.496,5.822
			c-0.233,0.09-0.542-0.117-0.197-0.374C151.55,5.612,151.496,5.822,151.496,5.822z M150.862,1.753c0.455-0.036,0.562,0.2,0.491,0.6
			c-0.036,0.196-0.06,0.341,0.416,0.328c1.146-0.036,1.382,0.254,1.127,0.491c-0.179,0.167-0.293,0.302-0.054,0.481
			c0.29,0.215-0.004,0.829-0.326,0.708c-0.966-0.363-1.248-0.328-1.618,0.509c-0.371,0.836-0.464,1.551,1.164,1.352
			c0,0-0.03,0.417-1.074,0.363c-1.041-0.054-1.223-1.68,0.036-3.006c0.298-0.314,0.254-0.482,0.057-0.681
			c-0.018-0.381-0.018-0.729-0.754-0.381c-0.658,0.31-0.601,0.526-0.218,0.508c0.38-0.018,0.654,0.274,0.654,0.274
			s-0.633,0.6-0.89,1.662c-0.365,1.499,0.509,1.973,0.509,1.973s-0.528,0.399-1.074-0.31c0,0,0.254-0.618-0.108-1.026
			c0,0,0.201-0.58-0.273-1.271c0,0,0.346-0.346,0.11-1.062c0,0,0.69-0.292,0.364-1.092C149.399,2.172,150.06,1.817,150.862,1.753z
			 M147.552,8.993c-0.173,0.622-0.557,0.437-0.547,0.038c0.018-1.07,0.696-1.503,0.696-1.503c0.263,0.658-0.301,1.259-0.301,1.259
			L147.552,8.993z M147.086,12.117c0,0-0.561,0.708-0.578,1.198s-0.438,0.929-0.438,0.929s-0.586-1.052,0.911-2.461
			C146.981,11.784,146.963,12.011,147.086,12.117z M145.764,12.556c0.124-0.684-0.089-0.793,0.34-1.436
			c0.335-0.498,0.824-0.832,0.824-0.832s-0.053,0.384,0.279,0.411C147.209,10.698,146.735,11.802,145.764,12.556z M142.882,19.797
			c-0.515,0.353-0.881,0.103-0.881,0.103c0.354-0.308,0.574-0.646,0.574-0.646C142.984,19.4,142.882,19.797,142.882,19.797z
			 M143.234,20.31c0.251,0.045,0.265,0.312,0.265,0.312c-0.336,0.293-0.794,0.278-0.794,0.278
			C142.925,20.488,143.234,20.31,143.234,20.31z M142.42,21.201c0,0-0.04,2.467-0.076,4.272c-0.063,3.042-1.159,6.875-9.197,6.875
			c-8.039,0-9.133-3.832-9.195-6.875c-0.037-1.805-0.078-4.272-0.078-4.272c0.208-0.097,0.33-0.254,0.33-0.254
			c-0.391-0.354-0.512-0.64-0.512-0.64c0.815,0.13,1.093-0.302,1.093-0.302c-0.581-0.619-0.789-1.033-0.789-1.033
			c0.523,0.061,0.984-0.109,0.984-0.109c0.097-0.966-0.912-1.016-0.962-1.781c0.243,0.024,0.451,0.169,0.451,0.169
			c0.596-1.25-0.705-1.25-0.438-2.315c0.401-0.133,0.583-0.425,0.583-0.425c-0.171-0.036-0.255-0.097-0.255-0.097
			c0.449-0.193,0.571-0.51,0.571-0.51c0.133,0.328,0.133,0.607,0.133,0.607c0.639-0.109,0.833-0.56,0.833-0.56
			c0.073,0.293,0.304,0.583,0.304,0.583c0.512-0.183,0.693-0.546,0.693-0.546s3.404,0.073,6.252,0.073
			c2.848,0,6.253-0.073,6.253-0.073s0.183,0.363,0.693,0.546c0,0,0.233-0.291,0.304-0.583c0,0,0.194,0.452,0.834,0.56
			c0,0,0-0.28,0.133-0.607c0,0,0.121,0.315,0.57,0.51c0,0-0.084,0.061-0.253,0.097c0,0,0.183,0.292,0.583,0.425
			c0.268,1.063-1.032,1.063-0.437,2.315c0,0,0.207-0.145,0.45-0.169c-0.048,0.766-1.058,0.813-0.96,1.781
			c0,0,0.459,0.17,0.981,0.109c0,0-0.206,0.414-0.79,1.033c0,0,0.279,0.433,1.093,0.302c0,0-0.121,0.287-0.509,0.64
			C142.094,20.947,142.216,21.103,142.42,21.201z M123.414,19.797c0,0-0.102-0.395,0.311-0.543c0,0,0.22,0.338,0.572,0.646
			C124.295,19.9,123.928,20.148,123.414,19.797z M123.589,20.899c0,0-0.456,0.015-0.793-0.278c0,0,0.015-0.267,0.265-0.312
			C123.061,20.31,123.368,20.488,123.589,20.899z M119.314,11.784c1.497,1.409,0.911,2.461,0.911,2.461s-0.421-0.438-0.438-0.929
			c-0.017-0.491-0.577-1.198-0.577-1.198C119.332,12.011,119.314,11.784,119.314,11.784z M119.086,10.698
			c0.333-0.027,0.28-0.411,0.28-0.411s0.491,0.333,0.821,0.83c0.431,0.645,0.217,0.754,0.341,1.438
			C119.559,11.802,119.086,10.698,119.086,10.698z M118.594,7.53c0,0,0.678,0.434,0.699,1.502c0.006,0.398-0.377,0.583-0.548-0.036
			l0.152-0.209C118.894,8.786,118.331,8.188,118.594,7.53z M117.423,5.84c0,0,0.252,0.218,0.608,0.416
			c0.567,0.322,0.181,1.056,0.181,1.056s-0.103-0.175-0.662-0.491C117.131,6.584,117.277,5.929,117.423,5.84z M117.369,7.147
			c0,0-0.163,0.038-0.381-0.036l0.2-0.181C117.187,6.929,117.224,7.057,117.369,7.147z M117.957,3.15
			c-0.752,0.018-0.915-0.507-0.698-0.799c0.215-0.292,0.678-0.129,0.637,0.146C117.852,2.771,117.957,3.15,117.957,3.15z
			 M117.64,5.467c-0.272-0.151-0.145-1.18,0.427-0.618c0.382,0.377,0.311,1.08,0.311,1.08S118.102,5.723,117.64,5.467z
			 M117.769,4.16c-0.322-0.519,0.052-0.863,0.426-0.437c0.372,0.426,0.253,0.908,0.253,0.908S117.995,4.523,117.769,4.16z
			 M118.405,3.186c0,0-0.283-0.281-0.17-0.941c0,0,0.867,0.038,1.149,0.962C119.386,3.206,118.913,3.093,118.405,3.186z
			 M118.801,4.67c0.566,0.509,1.244,0.715,1.111,1.822C119.008,5.891,118.745,5.648,118.801,4.67z M119.685,8.131
			c-0.6-0.904-1.28-1-0.901-1.959C118.782,6.172,119.912,6.643,119.685,8.131z M118.594,3.615c0.847-0.187,1.301,0.434,1.301,1.187
			C119.894,4.802,118.839,4.595,118.594,3.615z M119.559,9.92c0,0-0.052-0.386,0.176-0.718c1.497,0.892,1.144,2.232,1.144,2.232
			C120.443,10.961,120.461,10.498,119.559,9.92z M120.426,4.895c0,0,1.664,0.456,1.384,2.127c-0.508-0.963-1.515-0.841-1.67-1.637
			c0,0,0.232,0.088,0.41,0.053C120.549,5.438,120.426,5.176,120.426,4.895z M120.408,6.39c1.244,0.544,1.086,1.988,1.086,1.988
			c-0.42-0.637-1.269-0.691-1.41-1.356c0.158,0,0.305-0.141,0.305-0.141C120.295,6.653,120.408,6.39,120.408,6.39z M120.226,7.844
			c0.585,0.656,1.128,0.745,0.953,2.022c0,0-0.684-0.542-1.093-1.122C120.085,8.745,120.278,8.448,120.226,7.844z M120.885,13.77
			c0,0,0.336,0.104,0.853,0.162c0,0,0.206,0.808,1.247,0.734c0.074,0.31-0.013,0.323-0.277,0.412
			c-0.266,0.088-0.5,0.294-0.559,1.089c-0.015,0.207-0.132,0.207-0.322-0.015l-1.088-1.249
			C120.738,14.902,120.93,14.33,120.885,13.77z M122.706,14.183c-0.661-0.162-0.428-0.926-0.294-1.059
			c0.133-0.131,0.174-0.417-0.146-0.293c-0.575,0.22-0.323,0.603-0.69,0.529c-0.367-0.072-0.603-0.162-0.603-0.162
			c0.176-0.368,0.221-0.766,0.221-0.766c0.087,0.09,0.28-0.014,0.28-0.014c-0.28-0.558,0.058-0.792,0.058-0.792
			s0.517,0.498,0.852,0.719c0.265,0.175,0.411,0.064,0.457-0.03c0.38-0.751,1.043-0.383,1.043-0.383
			c0.809-0.5,1.278-0.059,1.278-0.059c0.824-0.396,1.294,0.104,1.294,0.104l0.308,0.676c-0.485-0.162-0.925,0.03-0.925,0.03
			c-0.395-0.251-0.984-0.089-0.984-0.089c-0.66-0.263-1.013,0.176-1.013,0.176c-0.221-0.308-0.544-0.47-0.381-0.06
			c0.103,0.263,0.131,0.664-0.118,0.619c-0.251-0.045-0.367,0.103-0.163,0.353C122.825,13.8,122.706,14.183,122.706,14.183z
			 M133.147,12.158c-3.502,0-5.474,0.796-5.872,0.921c-0.395,0.129-0.438-0.169-0.155-0.296c0.285-0.129,2.609-1.049,6.027-1.049
			c3.418,0,5.742,0.92,6.026,1.049c0.283,0.128,0.241,0.425-0.156,0.296C138.621,12.954,136.649,12.158,133.147,12.158z
			 M137.363,13.138c0,0-0.924,0.085-4.216,0.085c-3.29,0-4.212-0.085-4.212-0.085s0.937-0.567,4.212-0.567
			C136.422,12.571,137.363,13.138,137.363,13.138z M126.852,11.996c0.023-0.006,0.048-0.009,0.072-0.009
			c0.164,0,0.296,0.133,0.296,0.298c0,0.082-0.032,0.158-0.089,0.214L126.852,11.996z M127.546,11.932
			c0-0.165,0.131-0.298,0.295-0.298c0.164,0,0.297,0.132,0.297,0.298c0,0.165-0.133,0.297-0.297,0.297
			C127.677,12.229,127.546,12.097,127.546,11.932z M128.567,11.676c0-0.165,0.133-0.298,0.298-0.298
			c0.164,0,0.295,0.133,0.295,0.298s-0.132,0.299-0.295,0.299C128.7,11.975,128.567,11.841,128.567,11.676z M129.644,11.422
			c0-0.165,0.133-0.298,0.298-0.298c0.165,0,0.297,0.133,0.297,0.298s-0.132,0.296-0.297,0.296
			C129.778,11.718,129.644,11.586,129.644,11.422z M130.708,11.265c0-0.163,0.131-0.297,0.295-0.297
			c0.167,0,0.298,0.133,0.298,0.297c0,0.166-0.132,0.298-0.298,0.298C130.84,11.562,130.708,11.431,130.708,11.265z M131.786,11.18
			c0-0.165,0.133-0.296,0.298-0.296s0.295,0.132,0.295,0.296s-0.131,0.297-0.295,0.297C131.919,11.479,131.786,11.344,131.786,11.18
			z M132.851,11.153c0-0.165,0.131-0.299,0.294-0.299c0.165,0,0.299,0.135,0.299,0.299s-0.134,0.297-0.299,0.297
			C132.981,11.45,132.851,11.317,132.851,11.153z M133.913,11.18c0-0.165,0.134-0.296,0.298-0.296c0.166,0,0.296,0.132,0.296,0.296
			s-0.132,0.297-0.296,0.297C134.047,11.479,133.913,11.344,133.913,11.18z M134.99,11.265c0-0.163,0.133-0.297,0.298-0.297
			c0.164,0,0.298,0.133,0.298,0.297c0,0.166-0.134,0.298-0.298,0.298C135.124,11.562,134.99,11.431,134.99,11.265z M136.055,11.422
			c0-0.165,0.131-0.298,0.298-0.298c0.164,0,0.295,0.133,0.295,0.298s-0.131,0.296-0.295,0.296
			C136.188,11.718,136.055,11.586,136.055,11.422z M137.132,11.676c0-0.165,0.134-0.298,0.298-0.298
			c0.165,0,0.296,0.133,0.296,0.298s-0.132,0.299-0.296,0.299C137.266,11.975,137.132,11.841,137.132,11.676z M138.155,11.932
			c0-0.165,0.132-0.298,0.296-0.298c0.166,0,0.298,0.132,0.298,0.298c0,0.165-0.134,0.297-0.298,0.297
			C138.287,12.229,138.155,12.097,138.155,11.932z M139.164,12.499c-0.053-0.054-0.089-0.132-0.089-0.212
			c0-0.165,0.134-0.299,0.297-0.299c0.024,0,0.046,0.003,0.07,0.009L139.164,12.499z M133.147,10.554
			c-3.249,0-6.409,1.206-6.409,1.206l-0.497-0.737c0,0,0.869,0.437,1.9,0.127c1.134-0.339,1.376-1.105,1.376-1.105
			s0.78,0.597,1.957,0.439c0.936-0.124,1.672-0.893,1.672-0.893s0.737,0.769,1.67,0.893c1.178,0.157,1.955-0.439,1.955-0.439
			s0.242,0.766,1.375,1.105c1.033,0.312,1.901-0.127,1.901-0.127l-0.495,0.737C139.556,11.761,136.396,10.554,133.147,10.554z
			 M136.905,9.548c0,0-0.766,0.716-1.957,0.582c-1.006-0.114-1.801-1.105-1.801-1.105s-0.794,0.992-1.802,1.105
			c-1.19,0.135-1.954-0.582-1.954-0.582c-0.653,1.588-2.499,1.488-3.292,1.021c-0.202-0.117-0.111-0.353,0.1-0.254
			c0.213,0.099,0.794,0.413,1.645,0.228c1.137-0.246,1.462-1.433,1.462-1.433s0.88,0.981,2.171,0.709
			c1.084-0.226,1.671-1.318,1.671-1.318s0.587,1.092,1.674,1.318c1.29,0.272,2.169-0.709,2.169-0.709s0.323,1.188,1.461,1.433
			c0.851,0.186,1.432-0.129,1.646-0.228c0.213-0.099,0.301,0.136,0.099,0.254C139.4,11.036,137.557,11.135,136.905,9.548z
			 M126.353,14.021c0,0-0.059-0.5-0.264-0.942c0,0,0.233-0.131,0.438,0C126.529,13.079,126.72,13.594,126.353,14.021z
			 M125.324,13.992c0,0-0.091-0.631-0.22-1.014c0,0,0.308-0.105,0.515,0.03C125.617,13.004,125.94,13.522,125.324,13.992z
			 M124.089,13.049c0,0,0.353-0.263,0.617-0.045c0,0,0.251,0.766-0.456,0.942C124.25,13.947,124.294,13.522,124.089,13.049z
			 M123.426,13.932c0,0,0.148,0.293,0.634,0.53c0,0-0.44,0.265-0.957-0.191C123.104,14.27,123.061,14.035,123.426,13.932z
			 M123.794,15.915c0,0,0.441,0.295,0.414,0.839c0,0-0.294-0.28-0.692-0.441C123.516,16.313,123.471,15.915,123.794,15.915z
			 M123.84,17.929c0,0,0.439,0.12,0.762,0.589c0,0-0.411,0.222-0.925-0.131C123.677,18.386,123.545,18.048,123.84,17.929z
			 M139.766,13.079c0.205-0.131,0.439,0,0.439,0c-0.206,0.443-0.263,0.942-0.263,0.942
			C139.576,13.594,139.766,13.079,139.766,13.079z M140.676,13.004c0.205-0.132,0.516-0.03,0.516-0.03
			c-0.132,0.384-0.219,1.016-0.219,1.016C140.353,13.522,140.676,13.004,140.676,13.004z M142.045,13.947
			c-0.705-0.175-0.457-0.941-0.457-0.941c0.266-0.22,0.619,0.045,0.619,0.045C142.001,13.522,142.045,13.947,142.045,13.947z
			 M142.617,18.386c-0.513,0.353-0.925,0.131-0.925,0.131c0.322-0.469,0.764-0.589,0.764-0.589
			C142.749,18.048,142.617,18.386,142.617,18.386z M142.088,16.754c-0.03-0.543,0.412-0.839,0.412-0.839
			c0.322,0,0.279,0.398,0.279,0.398C142.381,16.475,142.088,16.754,142.088,16.754z M142.236,14.461
			c0.484-0.235,0.631-0.53,0.631-0.53c0.367,0.104,0.324,0.338,0.324,0.338C142.676,14.726,142.236,14.461,142.236,14.461z
			 M143.118,13.684c0.206-0.25,0.088-0.396-0.162-0.354c-0.252,0.045-0.221-0.354-0.118-0.618c0.161-0.41-0.162-0.25-0.383,0.06
			c0,0-0.352-0.443-1.013-0.176c0,0-0.589-0.163-0.985,0.086c0,0-0.441-0.191-0.926-0.03l0.31-0.674c0,0,0.47-0.5,1.295-0.104
			c0,0,0.47-0.439,1.277,0.059c0,0,0.66-0.367,1.041,0.381c0.051,0.096,0.194,0.207,0.458,0.03c0.334-0.221,0.853-0.719,0.853-0.719
			s0.338,0.235,0.059,0.794c0,0,0.191,0.104,0.279,0.014c0,0,0.044,0.396,0.22,0.766c0,0-0.234,0.088-0.602,0.162
			c-0.367,0.073-0.118-0.31-0.69-0.531c-0.321-0.123-0.279,0.165-0.148,0.296c0.132,0.132,0.367,0.895-0.293,1.058
			C143.589,14.183,143.47,13.8,143.118,13.684z M146.158,5.385c-0.158,0.796-1.164,0.673-1.672,1.637
			c-0.281-1.671,1.386-2.127,1.386-2.127c0,0.281-0.123,0.543-0.123,0.543C145.922,5.472,146.158,5.385,146.158,5.385z
			 M146.209,8.745c-0.411,0.58-1.094,1.123-1.094,1.123c-0.172-1.279,0.37-1.366,0.955-2.022
			C146.018,8.448,146.209,8.745,146.209,8.745z M144.801,8.378c0,0-0.158-1.443,1.083-1.988c0,0,0.113,0.263,0.017,0.491
			c0,0,0.15,0.141,0.306,0.141C146.07,7.687,145.221,7.739,144.801,8.378z M143.308,14.666c1.044,0.073,1.25-0.734,1.25-0.734
			c0.514-0.058,0.853-0.162,0.853-0.162c-0.045,0.558,0.146,1.131,0.146,1.131l-1.086,1.25c-0.191,0.222-0.308,0.222-0.322,0.015
			c-0.059-0.796-0.293-1.002-0.557-1.089C143.324,14.989,143.234,14.976,143.308,14.666z M145.415,11.434
			c0,0-0.352-1.34,1.145-2.232c0.228,0.332,0.173,0.718,0.173,0.718C145.835,10.498,145.853,10.961,145.415,11.434z M146.402,4.802
			c0-0.754,0.452-1.373,1.299-1.187C147.457,4.595,146.402,4.802,146.402,4.802z M146.609,8.131
			c-0.226-1.488,0.903-1.959,0.903-1.959C147.888,7.132,147.211,7.228,146.609,8.131z M147.495,4.67
			c0.054,0.979-0.208,1.221-1.112,1.822C146.25,5.385,146.929,5.179,147.495,4.67z M146.911,3.206
			c0.282-0.923,1.149-0.962,1.149-0.962c0.111,0.66-0.172,0.942-0.172,0.942C147.38,3.093,146.911,3.206,146.911,3.206z
			 M148.101,3.723c0.372-0.426,0.748-0.082,0.426,0.437c-0.226,0.363-0.681,0.471-0.681,0.471S147.728,4.149,148.101,3.723z
			 M148.399,2.498c-0.046-0.275,0.417-0.437,0.637-0.146c0.218,0.292,0.055,0.817-0.699,0.799
			C148.337,3.15,148.445,2.771,148.399,2.498z M148.229,4.85c0.571-0.562,0.699,0.466,0.425,0.618
			c-0.462,0.256-0.734,0.462-0.734,0.462S147.845,5.227,148.229,4.85z M148.265,6.258c0.353-0.2,0.608-0.418,0.608-0.418
			c0.145,0.091,0.29,0.745-0.127,0.981c-0.561,0.317-0.663,0.494-0.663,0.494S147.698,6.579,148.265,6.258z M149.108,6.929
			l0.198,0.182c-0.217,0.072-0.38,0.036-0.38,0.036C149.072,7.057,149.108,6.929,149.108,6.929z M149.809,1.242l-0.35,0.173
			c-0.386-0.296-0.457-0.671-0.457-0.671C149.563,0.533,149.809,1.242,149.809,1.242z M149.108,1.627
			c-0.577,0.314-1.286-0.352-1.323-0.646C148.575,0.628,148.74,1.332,149.108,1.627z M148.014,1.855c0,0-0.631,0.438-1.61-0.368
			C146.404,1.487,147.314,0.868,148.014,1.855z M147.086,2.241c-0.353,0.736-1.287,0.209-1.954,0.332
			C145.799,1.382,146.684,2.346,147.086,2.241z M146.421,2.977c-0.229,0.727-1.184,0.352-1.759,0.762
			C144.993,2.768,145.712,3.1,146.421,2.977z M146.192,3.791c0.016,0.754-1.218,0.858-1.832,1.524
			C144.381,3.756,146.192,3.791,146.192,3.791z M143.941,7.916c0,0,0.125,0.088,0.298,0.036c-0.087,0.533,0.105,0.847-0.087,1.548
			c0,0,0.159,0.106,0.35,0.07c0.123,0.666-0.28,0.876,0,1.531c0,0-0.245,0.333-0.771,0.631c0,0-0.691-0.649-1.356-0.335
			c0,0-0.718-0.437-1.304,0.001c0,0-0.212-0.175-0.578-0.088c0,0,0.474-0.613,0.333-1.443c0,0,0.883-0.848,1.586-1.899
			c0.699-1.052,0.894-1.894,1.305-2.425c0,0,0.14,0.341-0.088,0.673c0,0,0.104,0.141,0.28,0.157
			C143.768,7.216,144.047,7.443,143.941,7.916z M141.863,5.663c0.142,0.196,0.175,0.643,0.033,0.775
			C141.722,6.318,141.627,5.871,141.863,5.663z M141.016,6.773c0.168,0.045,0.283-0.06,0.151-0.265
			c-0.208-0.322-0.17-1.065,0.491-1.381c0,0-0.55,1.257,0.211,2.004c0,0,0.419-0.086,0.409-0.83
			c-0.01-0.917-0.374-1.817,0.397-2.039c0,0-0.16,0.352-0.058,0.794c0.035,0.151,0.21,0.118,0.198-0.151
			c-0.011-0.269,0.304-0.853,1.045-0.748c0,0-0.495,0.718-0.894,1.496c-0.396,0.778-0.455,1.314-1.496,2.806
			c0,0-0.112-1.062-0.91-1.044C140.372,7.02,140.655,6.679,141.016,6.773z M138.824,7.751c-0.152,0.287-0.49,0.099-0.314-0.101
			c0.125-0.137,0.001-0.429-0.287-0.175c-0.763,0.676-0.826,2.013,0.287,2.377c1.113,0.363,2.088-0.537,2.138-1.536
			c0.01-0.228-0.275-0.326-0.275-0.015c0,0.314-0.566,0.218-0.399-0.173c0.237-0.562,1.112-0.254,1.011,0.452
			c-0.162,1.137-1.348,1.973-2.584,1.611c-1.243-0.364-1.575-1.952-0.464-2.95C138.376,6.843,139.078,7.267,138.824,7.751z
			 M137.76,3.701c0.201,0.138,0.238,0.539,0.076,0.863C137.598,4.263,137.598,3.877,137.76,3.701z M136.986,4.876
			c-0.399-0.598-0.237-1.411,0.4-1.499c0,0-0.253,1.236,0.536,1.861c0,0,0.675-0.899,0.062-2.061c0,0-0.038-0.613,0.438-0.751
			c0,0,0.05,0.537,0.25,0.8c0.06,0.079,0.135-0.055,0.089-0.299c-0.063-0.324,0.299-1,0.948-1.113c0,0,0.75,0.924-0.036,1.5
			c-0.13,0.093-0.05,0.302,0.125,0.224c0.288-0.124,0.436-0.314,0.436-0.314s0.282,0.512-0.187,0.7
			c-1.639,0.664-1.563,1.49-1.563,1.49s1.024,0.199,1.725-0.889c0.201,0.637,0.038,1.149-0.612,1.325
			c-0.194,0.054-0.233,0.222-0.051,0.338c0.275,0.174,0.262,0.874-0.363,0.962c0,0-0.613-0.824-1.609-0.112
			c0,0-0.225-0.936-1.125-0.861C135.999,5.777,136.222,4.827,136.986,4.876z M139.91,4.401c-0.086,0.3-0.636,0.691-1,0.7
			C139.064,4.751,139.537,4.413,139.91,4.401z M134.661,6.815c-0.162,0.2-0.457,0.041-0.35-0.153
			c0.188-0.335-0.094-0.455-0.324-0.149c-0.589,0.775-0.302,2.262,0.837,2.588c1.078,0.308,1.8-0.539,1.962-0.976
			c0.162-0.438,0.145-1.271-0.138-1.201c-0.199,0.051-0.001,0.272-0.163,0.324c-0.338,0.114-0.525-0.498-0.075-0.637
			c0.452-0.138,0.713,0.18,0.812,0.476c0.289,0.85-0.513,2.702-2.312,2.362c-1.682-0.314-1.809-2.266-1.263-2.987
			C134.274,5.639,135.061,6.213,134.661,6.815z M131.646,4.739c0.214-0.045,0.125-0.186,0.025-0.248
			c-0.612-0.389-0.361-1.227,0.089-1.526c-0.189,1.5,1.125,1.625,1.125,1.625s0.314-0.787-0.502-1.487
			c-0.402-0.35-0.472-0.655-0.26-0.802c0.125-0.087,0.325,0.138,0.45,0.251c0.152,0.135,0.27,0.057,0.15-0.102
			c-0.613-0.799,0.425-1.436,0.425-1.436s1.035,0.637,0.42,1.436c-0.119,0.159-0.001,0.236,0.152,0.102
			c0.127-0.11,0.326-0.338,0.452-0.251c0.209,0.146,0.142,0.452-0.262,0.802c-0.813,0.7-0.501,1.487-0.501,1.487
			s1.312-0.125,1.125-1.625c0.45,0.299,0.698,1.137,0.087,1.526c-0.1,0.062-0.188,0.203,0.025,0.248
			c0.463,0.1,0.688,0.8,0.251,1.125c-0.476-0.288-1.235-0.275-1.748,0.613c-0.512-0.889-1.276-0.901-1.75-0.613
			C130.958,5.539,131.184,4.839,131.646,4.739z M132.097,3.425c0.226,0.025,0.562,0.401,0.525,0.763
			C132.222,4.165,132.022,3.588,132.097,3.425z M133.668,4.188c-0.037-0.362,0.301-0.738,0.526-0.763
			C134.27,3.588,134.07,4.165,133.668,4.188z M129.808,7.25c-0.162-0.052,0.038-0.273-0.163-0.324
			c-0.283-0.07-0.299,0.763-0.137,1.199c0.165,0.437,0.884,1.284,1.964,0.977c1.14-0.325,1.426-1.814,0.838-2.588
			c-0.234-0.304-0.514-0.187-0.325,0.151c0.106,0.191-0.189,0.35-0.352,0.149c-0.397-0.598,0.389-1.176,1.013-0.35
			c0.546,0.72,0.419,2.673-1.264,2.987c-1.801,0.336-2.601-1.512-2.313-2.363c0.101-0.295,0.363-0.612,0.812-0.475
			C130.333,6.752,130.147,7.362,129.808,7.25z M128.533,3.701c0.164,0.177,0.164,0.562-0.073,0.863
			C128.297,4.239,128.335,3.838,128.533,3.701z M127.109,7.15c-0.625-0.087-0.636-0.787-0.362-0.96
			c0.182-0.116,0.144-0.286-0.049-0.338c-0.651-0.175-0.813-0.688-0.616-1.325c0.699,1.086,1.729,0.887,1.729,0.887
			s0.073-0.824-1.566-1.488c-0.469-0.188-0.187-0.7-0.187-0.7s0.152,0.188,0.438,0.314c0.173,0.076,0.253-0.131,0.124-0.226
			c-0.787-0.576-0.037-1.499-0.037-1.499c0.649,0.111,1.012,0.787,0.949,1.111c-0.046,0.246,0.029,0.378,0.088,0.301
			c0.201-0.262,0.253-0.8,0.253-0.8c0.475,0.138,0.435,0.751,0.435,0.751c-0.612,1.164,0.063,2.061,0.063,2.061
			c0.787-0.625,0.537-1.861,0.537-1.861c0.638,0.088,0.8,0.901,0.4,1.499c0.761-0.049,0.986,0.9,0.536,1.301
			c-0.899-0.075-1.123,0.861-1.123,0.861C127.722,6.327,127.109,7.15,127.109,7.15z M126.383,4.401
			c0.375,0.012,0.847,0.35,1.003,0.7C127.021,5.092,126.473,4.701,126.383,4.401z M126.322,8.125
			c0.167,0.395-0.399,0.491-0.399,0.177s-0.286-0.214-0.274,0.012c0.049,1,1.023,1.9,2.137,1.538
			c1.112-0.364,1.048-1.701,0.289-2.375c-0.29-0.256-0.414,0.036-0.289,0.173c0.174,0.201-0.162,0.386-0.314,0.101
			c-0.254-0.486,0.448-0.908,0.888-0.513c1.112,0.999,0.778,2.587-0.462,2.95c-1.238,0.362-2.425-0.476-2.588-1.611
			C125.208,7.873,126.083,7.564,126.322,8.125z M124.432,5.663c0.234,0.208,0.141,0.655-0.035,0.775
			C124.254,6.306,124.291,5.859,124.432,5.663z M123.481,4.906c-0.013,0.27,0.163,0.302,0.198,0.149
			c0.103-0.442-0.058-0.792-0.058-0.792c0.771,0.221,0.408,1.122,0.395,2.039c-0.01,0.742,0.411,0.83,0.411,0.83
			c0.758-0.748,0.211-2.004,0.211-2.004c0.66,0.314,0.697,1.059,0.488,1.381c-0.131,0.204-0.017,0.31,0.152,0.265
			c0.358-0.094,0.643,0.247,0.456,0.643c-0.796-0.018-0.91,1.044-0.91,1.044c-1.038-1.492-1.097-2.03-1.495-2.806
			c-0.395-0.779-0.895-1.496-0.895-1.496C123.177,4.054,123.492,4.637,123.481,4.906z M122.053,7.952
			c0.176,0.051,0.298-0.036,0.298-0.036c-0.105-0.473,0.174-0.7,0.035-1.541c0.174-0.018,0.28-0.158,0.28-0.158
			c-0.229-0.332-0.089-0.673-0.089-0.673c0.413,0.533,0.604,1.373,1.306,2.426c0.699,1.05,1.584,1.899,1.584,1.899
			c-0.14,0.83,0.334,1.443,0.334,1.443c-0.37-0.088-0.578,0.087-0.578,0.087c-0.587-0.438-1.306-0.001-1.306-0.001
			c-0.665-0.314-1.357,0.335-1.357,0.335c-0.524-0.297-0.771-0.631-0.771-0.631c0.281-0.656-0.122-0.864,0-1.531
			c0.193,0.036,0.352-0.069,0.352-0.069C121.949,8.798,122.143,8.484,122.053,7.952z M121.932,5.314
			c-0.613-0.666-1.848-0.77-1.83-1.524C120.102,3.791,121.914,3.756,121.932,5.314z M121.634,3.738
			c-0.578-0.412-1.532-0.035-1.759-0.762C120.583,3.1,121.3,2.768,121.634,3.738z M121.16,2.573
			c-0.666-0.123-1.602,0.404-1.952-0.332C119.611,2.346,120.494,1.382,121.16,2.573z M119.893,1.487
			c-0.982,0.806-1.611,0.368-1.611,0.368C118.981,0.868,119.893,1.487,119.893,1.487z M118.507,0.981
			c-0.034,0.294-0.741,0.96-1.321,0.646C117.555,1.332,117.718,0.628,118.507,0.981z M117.291,0.745c0,0-0.07,0.374-0.456,0.673
			l-0.353-0.175C116.485,1.242,116.731,0.533,117.291,0.745z M114.998,5.448c0.346,0.256,0.037,0.464-0.199,0.374
			C114.799,5.822,114.743,5.612,114.998,5.448z M114.234,6.221c1.626,0.199,1.535-0.516,1.164-1.352
			c-0.374-0.836-0.656-0.872-1.618-0.51c-0.322,0.123-0.618-0.491-0.328-0.708c0.236-0.178,0.125-0.314-0.053-0.48
			c-0.254-0.236-0.019-0.527,1.125-0.491c0.476,0.013,0.456-0.132,0.417-0.328c-0.071-0.399,0.037-0.637,0.491-0.6
			c0.799,0.064,1.463,0.418,1.463,0.418c-0.329,0.799,0.363,1.089,0.363,1.089c-0.235,0.718,0.111,1.063,0.111,1.063
			c-0.473,0.69-0.274,1.271-0.274,1.271c-0.363,0.409-0.109,1.025-0.109,1.025c-0.546,0.709-1.073,0.311-1.073,0.311
			s0.872-0.476,0.509-1.975c-0.256-1.059-0.89-1.66-0.89-1.66s0.274-0.29,0.655-0.272c0.381,0.018,0.435-0.2-0.218-0.51
			c-0.737-0.349-0.735,0-0.754,0.381c-0.199,0.2-0.241,0.368,0.054,0.681c1.263,1.327,1.081,2.953,0.037,3.008
			C114.263,6.638,114.234,6.221,114.234,6.221z M108.881,31.66c-0.184-0.525-0.241-0.567,0.029-1.502
			c0.125-0.437,0.127-0.568,0.425-0.526c0.494,0.072,0.298-0.497,0.567-0.921c0.156-0.247,0.184-0.44,0.014-0.978
			c-0.173-0.539-0.383-0.965-0.383-0.965s0.298-0.737,0.425-1.519c0.085-0.522-0.422-0.691-0.511-0.242
			c-0.213,1.08-0.908,2.229-2.499,2.229c-1.263,0-2.212-1.206-2.212-2.554c0-1.446,1.381-2.87,2.015-3.588
			c1.8-2.043,2.033-2.923,2.113-3.871c0.085-1.008-0.213-1.319-0.213-1.319c-1.048,0.341-1.289-0.539-1.289-0.539
			c0.154-0.201,0.395-0.212,0.395-0.212c-0.212-0.314-0.709-0.087-0.893-0.796c0.156-0.112,0.525-0.012,0.525-0.012
			c-0.242-0.568-0.879-0.341-0.751-1.391c1.19-0.028,1.077,0.879,1.46,0.978c-0.028-0.254,0.142-0.425,0.142-0.425
			c0.482,0.383,0.155,0.794,0.482,1.079c0.057-0.199,0.212-0.298,0.212-0.298c0.511,0.637,0.099,1.319,0.099,1.319
			c1.234,2.977-2.07,5.617-3.29,7.416c-0.911,1.346-0.456,3.221,0.737,3.56c1.191,0.341,2.127-0.326,2.879-2.95
			c0.337-1.177,0.482-1.446,1.489-2.666c1.008-1.22,1.249-2.199,1.391-3.048c0.142-0.853,0.326-3.745,0.394-4.382
			c0.071-0.637,0.654-0.921,0.881-1.221c0.227-0.296,0.062-0.507-0.141-0.296c-0.415,0.425-0.839,0.565-0.839,0.565
			c0.042-1.175,1.123-1.274,1.448-1.928c0.12-0.238-0.008-0.371-0.198-0.184c-0.411,0.396-0.993,0.609-0.993,0.609
			c0.142-1.034,1.134-1.135,1.39-1.56c0.15-0.251,0.042-0.44-0.156-0.27c-0.46,0.395-0.866,0.455-0.866,0.455s0.241-0.68,1.05-1.134
			c0.266-0.151,0.184-0.299-0.014-0.272c-0.197,0.03-0.468-0.042-0.468-0.042c0.44-0.652,1.123-0.467,1.333-0.212
			c0.123,0.146,0.212,0.03,0.212-0.099c0-0.129-0.029-0.411,0.397-0.481c0.425-0.072,0.597,0.254,0.609,0.396
			c0.015,0.142,0.228,0.112,0.256,0c0.028-0.112,0.212-0.339,0.809-0.214c0.595,0.129,0.779,0.667,0.779,0.667
			c-0.44-0.156-0.615-0.036-0.354,0.185c0.95,0.808,0.893,1.403,0.893,1.403c-0.397-0.368-0.564-0.212-0.369,0.057
			c0.479,0.667,0.437,1.405,0.437,1.405s-0.295-0.127-0.437-0.254c-0.232-0.208-0.449,0.034-0.226,0.298
			c1.205,1.418,0.962,2.028,1.43,2.821c0.468,0.794,2.157,2.542,2.524,2.878c0.341,0.314,0.652-0.268,0.709-0.892
			c0.04-0.437,0.184-0.879,0.653-0.553c-0.495,0.58-0.043,1.02-0.043,1.02c-0.411,0.724-0.241,0.667,0.255,0.837
			c-0.809,0.625-0.129,1.49-0.129,1.49c-0.538,0.254-0.454,0.892-0.454,0.892c-0.355-0.012-0.539,0.314-0.539,0.314
			s-0.296-0.254-0.454-0.58c-0.229-0.476,0.112-0.796-0.414-1.179c-1.368-0.999-2.793-2.211-3.188-2.681
			c-0.397-0.466-0.426-0.254-0.556,0.072c-0.511-0.879-0.696-1.603-0.838-1.135c-0.074,0.25-0.227,0.313-0.227,0.313
			c-0.241-1.079-0.17-2.07-0.738-1.361c-0.099-0.809-0.396-0.823-0.354-1.746c0.015-0.326-0.376-0.468-0.396-0.057
			c-0.056,1.148,0.412,1.376,0.326,2.338c-0.045,0.51,0.155,0.582,0.539,0.511c0.227,0.838,0.596,1.334,0.596,1.334
			c0.142-0.256,0.34-0.341,0.34-0.341c0.412,0.412,0.596,0.865,0.994,1.191c0.071-0.239,0.17-0.326,0.438-0.114
			c0.271,0.214,0.184,0.314,0.184,0.47c0,0.155-0.212,0.523-0.212,0.523c-0.071-0.226-0.229-0.296-0.229-0.296
			c-0.24,0.311-0.084,1.12-0.722,1.588c-0.03-0.27-0.171-0.353-0.171-0.353c-0.412,0.326-0.212,0.679-0.653,1.005
			c-0.028-0.128-0.143-0.113-0.143-0.113s-0.454,0.837-1.715,2.24c-0.617,0.687-0.396,1.418-1.263,3.56
			c-0.332,0.824-0.468,1.008-0.738,2.085c-0.271,1.077-0.439,0.978-2.51,2.722c-0.326,0.275-0.242,0.326-0.199,0.511
			c0.042,0.186,0.34,1.164,0.34,1.164c-0.397,0.141-0.155,0.631,0.142,0.539c1.857-0.582,2.212-0.015,2.212-0.015
			c-0.312-0.099-0.652,0.272-0.652,0.272c-0.71-0.383-0.979,0.467-0.979,0.467c-0.156-0.197-0.354-0.057-0.354-0.057
			c0.283,0.354-0.134,0.511-0.496,0.312c-0.439-0.241-0.668,0.241-0.895-0.172C109.385,33.018,109.065,32.185,108.881,31.66z
			 M115.188,30.105c0.148,0.519,0.39,1.369,0.639,2.154c0.25,0.784,0.651,0.974,0.651,0.974c-0.301,0.131-0.801,0.099-0.801,0.099
			c-0.69-2.041-2.393-1.94-2.393-1.94c-0.017,1.457,1.304,2.091,1.304,2.091c-0.353,0.083-0.7,0.051-0.7,0.051
			c-0.801-1.542-0.651-2.191-2.792-1.792c-0.201-0.501-0.301-1.102-0.301-1.102c2.036-1.588,2.592-2.075,2.692-2.726
			c0.1-0.649,0.352-1.223,0.352-1.223c0.499,0.802,0.635,0.769,1.051,0.9c0.417,0.134,0.334,0.256,0.69,1.409
			C115.779,29.651,114.987,29.399,115.188,30.105z M115.285,33.41c-0.654-0.159-1.332-0.779-1.498-1.469
			C114.437,32.108,115.142,32.789,115.285,33.41z M113.381,33.66c0,0-0.247-0.229-0.702-0.606c0,0,0.038-0.152,0.36-0.173
			C113.039,32.883,113.476,33.146,113.381,33.66z M112.281,33.601c0,0-0.321-0.17-0.568-0.455c0,0,0-0.188,0.323-0.209
			C112.036,32.94,112.339,33.223,112.281,33.601z M113.588,35.611c0.361-0.494,2.387-1.252,3.021-0.754
			C116.412,35.118,115.388,35.798,113.588,35.611z M113.872,34.475c-4.545,0.186-6.326-0.626-6.326-0.626l0.208-0.304
			c1.022,0.247,1.402,0.114,1.819,0.304c0.415,0.19,0.492-0.247,1.306,0.058c0.294,0.108,0.417,0,0.587-0.248
			c0.191,0,0.568,0.17,0.74,0.36c0.162,0.179,0.473,0.19,0.398,0.055c-0.077-0.131,0.072-0.321,0.072-0.321s0.38,0.057,0.8,0.417
			c0.272,0.238,0.245-0.057,0.53-0.245c1.97,0,3.05-0.229,3.05-0.229c0.815,0.247,1.119-0.36,1.119-0.36
			c0.303,0.17,0.548,0.152,0.548,0.152c0.398,0.228,0.892,0.246,0.892,0.246S117.587,34.322,113.872,34.475z M118.705,32.844
			c0,0,0.095-0.209,0.322-0.209c0,0,0.474,0.284,0.435,0.664C119.462,33.299,118.951,33.186,118.705,32.844z M119.33,32.294
			c-0.843-0.235-1.127,0.229-0.89,0.721c-0.891-0.359-0.72,0.246-0.72,0.246s-0.17,0.248-0.493,0.078
			c-0.175-0.093-0.682-0.625-0.89-1.137c-0.209-0.515-0.342-1.307-0.531-1.894c-0.192-0.588,0.455-0.341,0.341-1.044
			c-0.078-0.479-0.286-1.249-0.496-1.762c-0.208-0.512-0.549-0.302-0.928-0.682c-0.266-0.265-0.643-0.776-0.643-0.776
			s0.512-0.833,0.91-2.671c0.217-1.01,0.661-1.25,0.661-1.25s0.361,0.833,1.27,1.762c0.303,0.31,0.416,0.549,0.475,1.25
			c0.057,0.7,0.34,1.59,0.435,2.595c0.043,0.456,0.134,0.649-0.265,1.289c-0.476,0.757-0.551,0.871-0.095,2.462
			c0.128,0.45,0.338,0.576,0.664,0.494c0.814-0.209,1.212-0.248,1.515-0.02C119.406,32.029,119.33,32.294,119.33,32.294z
			 M119.728,33.733c0,0,0.131-0.226,0.113-0.473c0,0,0.474,0,0.815,0.284C120.656,33.544,120.068,33.697,119.728,33.733z
			 M119.709,32.541c0,0,0.036-0.304,0.358-0.321c0,0,0.549,0.377,0.549,0.853C120.617,33.072,120.221,32.805,119.709,32.541z
			 M118.341,31.354c-0.349,0.07-0.35,0.03-0.515-0.7c-0.167-0.733-0.031-0.8,0.292-1.376c0.261-0.46,0.446-0.746,0.382-1.177
			c-0.063-0.429-0.273-2.266-0.445-3.13c-0.176-0.865-0.214-1.002-1.186-2.217c-0.505-0.633-0.762-1.242-0.762-1.242l0.459-0.574
			c0.096,0.144,0.289,0.173,0.289,0.173c0.237-0.286,0.174-0.769,0.557-0.975c0.16-0.048,0.333,0.081,0.333,0.081
			c0.309-0.431,0.014-0.511,0.754-1.337c0.16,0.015,0.239,0.221,0.239,0.221c0.317-0.398,0.047-0.685,0.589-1.693
			c0.445,0.32,1.086,0.85,1.565,1.152c0.479,0.304,0.444,0.375,0.638,1.164c0.271,1.104,0.86,1.041,0.86,1.041
			c0.159,0.252,0.659,0.445,0.659,0.445l0.118,4.449c0.15,5.633,4.036,7.084,8.799,7.551c-0.191,0.317-0.084,0.613-0.084,0.613
			s-0.89-0.201-1.609,0.341c-0.277,0.211-0.48,0.111-0.48,0.111c-1.083-1.804-2.648-1.948-2.648-1.948
			c-0.231,0.167,0.005,0.694,0.174,1.013c0.05,0.083,0.097,0.163,0.143,0.25c0,0-0.065-0.105-0.143-0.25
			c-1.076-1.817-2.712-2.287-2.712-2.287c-0.049,1.29,0.834,1.915,0.834,1.915l-0.626-0.206c-0.432-2.202-1.958-2.522-1.958-2.522
			c-0.292,1.433,0.812,2.33,0.812,2.33l-0.445-0.083c-0.286-0.766-0.913-1.562-0.913-1.562c1.454-2.504,0.144-4.293,0.144-4.293
			c-0.556,0.763-0.812,1.517-0.812,1.517c-0.223-0.562-0.287-1.104-0.287-1.104c1.932-2.583,0.892-4.691,0.892-4.691
			c-0.764,0.516-1.114,1.439-1.114,1.439l-0.032-0.7c1.195-2.537-0.604-4.182-0.604-4.182c-1.453,2.585,0.272,4.182,0.272,4.182
			l0.03,0.668c-0.61-1.581-1.82-1.901-1.82-1.901c-0.396,2.729,1.772,3.976,1.772,3.976c0.016,0.495,0.096,0.924,0.096,0.924
			c-0.597-0.639-1.327-0.924-1.327-0.924c-0.173,3.189,2.028,4.02,2.028,4.02c0.142,0.354,0.192,0.674,0.192,0.674
			c-0.988-0.658-1.82-0.61-1.82-0.61c0.222,1.756,1.725,2.567,1.725,2.567c-0.43,0.021-0.749,0.149-0.749,0.149
			C120.14,31.307,119.757,31.067,118.341,31.354z M129.076,34.193c-0.669-0.096-1.194-0.685-1.354-1.193
			C128.104,33.11,128.759,33.383,129.076,34.193z M126.636,33.398c-0.668-0.096-1.307-1.056-1.324-1.454
			C125.888,32.087,126.604,32.888,126.636,33.398z M124.307,32.644c-0.669-0.254-1.117-1.37-1.051-1.72
			C123.86,31.163,124.274,32.134,124.307,32.644z M122.677,32.438c-0.653-0.159-1.816-0.972-1.975-1.847
			C121.545,30.78,122.534,31.815,122.677,32.438z M122.343,27.815c0.435,0.748,0.093,2.004-0.209,2.085
			C121.769,29.278,122.12,28.053,122.343,27.815z M121.355,29.153c-0.892-0.431-1.422-2.028-1.359-2.378
			C120.974,27.412,121.323,28.643,121.355,29.153z M120.894,22.609c-0.61-0.557-0.594-2.212-0.318-2.664
			C121.213,20.651,121.117,22.114,120.894,22.609z M121.243,26.185c-0.366-0.621,0.256-2.265,0.668-2.632
			C122.214,24.254,121.674,25.947,121.243,26.185z M120.703,25.129c-0.944-0.51-1.266-1.926-1.202-2.276
			C120.448,23.394,120.67,24.621,120.703,25.129z M121.604,34.549c0.359-0.435,2.217-1.08,2.85-0.583
			C124.257,34.227,123.139,34.891,121.604,34.549z M125.051,35.345c0.457-0.494,2.011-0.909,2.757-0.299
			C127.534,35.271,126.188,35.876,125.051,35.345z M125.126,33.771c-2.25-0.788-4.224-0.263-4.224-0.263l0.303-0.417
			c1.838-0.265,2.993-0.077,5.193,0.68c1.812,0.627,4.054,1.101,4.054,1.101l-0.929,0.228
			C129.522,35.1,128.044,34.796,125.126,33.771z M129.448,36.178c-0.378-0.169-0.321-0.567-0.321-0.567
			c1.099-0.304,2.235-0.531,2.235-0.531c0.36,0.094,0.36,0.492,0.36,0.492S130.678,35.761,129.448,36.178z M132.193,35.686
			c-0.038-1.174-1.458-1.174-1.458-1.174c1.497-0.72,2.141,0.568,2.141,0.568L132.193,35.686z M133.147,33.224
			c1.01,0,0.866,0.871,0,1.308C132.283,34.095,132.136,33.224,133.147,33.224z M134.1,35.686l-0.68-0.605
			c0,0,0.642-1.288,2.138-0.568C135.558,34.512,134.137,34.512,134.1,35.686z M136.848,36.178c-1.231-0.414-2.274-0.605-2.274-0.605
			s0-0.398,0.358-0.492c0,0,1.14,0.227,2.237,0.531C137.17,35.611,137.227,36.009,136.848,36.178z M141.244,35.345
			c-1.138,0.531-2.482-0.075-2.756-0.299C139.236,34.436,140.79,34.852,141.244,35.345z M141.842,33.966
			c0.634-0.497,2.49,0.148,2.847,0.583C143.157,34.891,142.039,34.227,141.842,33.966z M141.167,33.771
			c-2.918,1.025-4.396,1.329-4.396,1.329l-0.927-0.228c0,0,2.24-0.476,4.056-1.101c2.196-0.757,3.351-0.945,5.19-0.682l0.304,0.417
			C145.393,33.508,143.418,32.983,141.167,33.771z M137.218,34.193c0.318-0.811,0.971-1.083,1.353-1.193
			C138.412,33.508,137.886,34.098,137.218,34.193z M139.66,33.398c0.029-0.51,0.748-1.311,1.321-1.454
			C140.963,32.342,140.328,33.302,139.66,33.398z M141.99,32.644c0.03-0.51,0.445-1.481,1.051-1.72
			C143.104,31.274,142.658,32.39,141.99,32.644z M145.592,30.59c-0.159,0.875-1.321,1.688-1.974,1.847
			C143.762,31.815,144.748,30.78,145.592,30.59z M143.953,27.815c0.223,0.238,0.573,1.463,0.206,2.085
			C143.855,29.82,143.518,28.563,143.953,27.815z M144.652,32.485c0,0,1.504-0.814,1.726-2.57c0,0-0.835-0.048-1.82,0.61
			c0,0,0.048-0.319,0.19-0.673c0,0,2.204-0.829,2.028-4.019c0,0-0.732,0.286-1.326,0.923c0,0,0.08-0.429,0.093-0.923
			c0,0,2.174-1.246,1.773-3.974c0,0-1.21,0.318-1.82,1.899l0.031-0.668c0,0,1.726-1.598,0.271-4.181c0,0-1.798,1.646-0.605,4.181
			l-0.03,0.699c0,0-0.353-0.921-1.114-1.436c0,0-1.041,2.106,0.892,4.691c0,0-0.066,0.541-0.289,1.104c0,0-0.254-0.754-0.814-1.518
			c0,0-1.307,1.788,0.145,4.293c0,0-0.625,0.797-0.914,1.56l-0.446,0.085c0,0,1.104-0.896,0.813-2.329c0,0-1.529,0.317-1.957,2.521
			l-0.627,0.208c0,0,0.88-0.625,0.833-1.915c0,0-1.637,0.47-2.712,2.287c0.17-0.317,0.406-0.847,0.176-1.014
			c0,0-1.568,0.142-2.648,1.948c0,0-0.204,0.1-0.483-0.112c-0.716-0.54-1.608-0.338-1.608-0.338s0.107-0.298-0.084-0.617
			c4.766-0.465,8.652-1.916,8.797-7.55l0.12-4.449c0,0,0.499-0.191,0.659-0.446c0,0,0.59,0.064,0.859-1.041
			c0.192-0.787,0.16-0.858,0.637-1.161c0.478-0.304,1.123-0.834,1.568-1.152c0.539,1.008,0.271,1.294,0.589,1.692
			c0,0,0.079-0.207,0.238-0.223c0.738,0.829,0.446,0.908,0.753,1.337c0,0,0.174-0.127,0.334-0.079
			c0.381,0.208,0.318,0.689,0.558,0.977c0,0,0.19-0.031,0.286-0.176l0.462,0.574c0,0-0.259,0.61-0.766,1.243
			c-0.97,1.216-1.006,1.354-1.182,2.218c-0.175,0.863-0.382,2.701-0.445,3.129c-0.065,0.431,0.121,0.718,0.379,1.179
			c0.324,0.574,0.457,0.642,0.294,1.373c-0.163,0.733-0.165,0.772-0.515,0.702c-1.417-0.287-1.798-0.048-2.554,1.279
			C145.4,32.633,145.083,32.506,144.652,32.485z M146.297,26.774c0.065,0.35-0.466,1.948-1.359,2.378
			C144.97,28.643,145.321,27.412,146.297,26.774z M144.381,23.553c0.416,0.368,1.035,2.012,0.669,2.632
			C144.622,25.947,144.079,24.254,144.381,23.553z M145.719,19.945c0.277,0.452,0.294,2.107-0.318,2.664
			C145.178,22.114,145.083,20.651,145.719,19.945z M145.592,25.129c0.03-0.51,0.253-1.735,1.2-2.276
			C146.854,23.203,146.536,24.621,145.592,25.129z M145.638,33.544c0.341-0.284,0.814-0.284,0.814-0.284
			c-0.017,0.248,0.114,0.476,0.114,0.476C146.226,33.697,145.638,33.544,145.638,33.544z M145.677,33.072
			c0-0.476,0.55-0.853,0.55-0.853c0.321,0.018,0.36,0.321,0.36,0.321C146.075,32.805,145.677,33.072,145.677,33.072z M148.16,31.972
			c0.325,0.084,0.535-0.043,0.661-0.492c0.456-1.591,0.379-1.705-0.092-2.465c-0.4-0.637-0.311-0.832-0.266-1.286
			c0.093-1.005,0.377-1.894,0.435-2.597c0.057-0.7,0.172-0.942,0.475-1.249c0.908-0.929,1.269-1.762,1.269-1.762
			s0.444,0.239,0.663,1.249c0.398,1.838,0.909,2.671,0.909,2.671s-0.378,0.512-0.645,0.778c-0.378,0.38-0.719,0.17-0.927,0.682
			c-0.209,0.512-0.416,1.282-0.494,1.762c-0.114,0.7,0.531,0.457,0.341,1.043c-0.191,0.588-0.32,1.383-0.529,1.895
			c-0.212,0.512-0.718,1.042-0.892,1.137c-0.322,0.17-0.495-0.078-0.495-0.078s0.172-0.604-0.719-0.246
			c0.235-0.494-0.049-0.957-0.89-0.721c0,0-0.076-0.265-0.321-0.34C146.947,31.726,147.344,31.764,148.16,31.972z M152.407,33.532
			c0,0-0.35,0.033-0.699-0.051c0,0,1.319-0.634,1.301-2.091c0,0-1.702-0.101-2.39,1.941c0,0-0.502,0.031-0.799-0.102
			c0,0,0.398-0.188,0.649-0.972c0.251-0.784,0.493-1.635,0.637-2.154c0.2-0.706-0.589-0.455-0.389-1.107
			c0.354-1.152,0.274-1.274,0.689-1.406c0.417-0.135,0.552-0.102,1.052-0.9c0,0,0.251,0.571,0.35,1.223
			c0.102,0.649,0.658,1.134,2.692,2.726c0,0-0.099,0.598-0.298,1.101C153.058,31.341,153.209,31.992,152.407,33.532z
			 M153.614,33.054c-0.454,0.377-0.7,0.606-0.7,0.606c-0.093-0.513,0.341-0.779,0.341-0.779
			C153.578,32.901,153.614,33.054,153.614,33.054z M151.01,33.41c0.146-0.619,0.847-1.301,1.498-1.469
			C152.34,32.632,151.664,33.251,151.01,33.41z M147.589,32.844c-0.248,0.341-0.758,0.455-0.758,0.455
			c-0.038-0.38,0.435-0.664,0.435-0.664C147.496,32.635,147.589,32.844,147.589,32.844z M149.685,34.857
			c0.634-0.498,2.661,0.26,3.021,0.754C150.905,35.798,149.884,35.118,149.685,34.857z M158.541,33.544l0.209,0.304
			c0,0-1.778,0.812-6.327,0.626c-3.713-0.152-5.739-0.739-5.739-0.739s0.492-0.021,0.89-0.249c0,0,0.247,0.02,0.55-0.151
			c0,0,0.303,0.606,1.118,0.36c0,0,1.078,0.228,3.05,0.228c0.284,0.188,0.254,0.483,0.531,0.245
			c0.415-0.359,0.794-0.416,0.794-0.416s0.152,0.19,0.078,0.321c-0.078,0.133,0.235,0.125,0.398-0.055
			c0.17-0.191,0.547-0.362,0.739-0.362c0.17,0.248,0.293,0.356,0.586,0.248c0.814-0.304,0.892,0.132,1.307-0.057
			C157.138,33.658,157.518,33.791,158.541,33.544z M154.26,32.94c0.323,0.018,0.323,0.208,0.323,0.208
			c-0.249,0.286-0.57,0.455-0.57,0.455C153.957,33.223,154.26,32.94,154.26,32.94z M156.336,25.249
			c0.128,0.781,0.425,1.519,0.425,1.519s-0.212,0.426-0.383,0.965c-0.171,0.538-0.141,0.731,0.012,0.978
			c0.272,0.425,0.075,0.993,0.568,0.921c0.296-0.042,0.299,0.09,0.425,0.526c0.27,0.935,0.212,0.977,0.03,1.502
			c-0.186,0.525-0.504,1.358-0.625,1.574c-0.226,0.413-0.455-0.07-0.892,0.172c-0.363,0.199-0.781,0.043-0.497-0.311
			c0,0-0.199-0.142-0.354,0.055c0,0-0.272-0.85-0.981-0.467c0,0-0.338-0.371-0.652-0.271c0,0,0.354-0.567,2.212,0.013
			c0.296,0.093,0.539-0.396,0.141-0.538c0,0,0.299-0.979,0.341-1.164c0.043-0.184,0.129-0.236-0.197-0.51
			c-2.072-1.746-2.239-1.647-2.512-2.724c-0.271-1.077-0.405-1.259-0.737-2.085c-0.866-2.142-0.645-2.872-1.262-3.56
			c-1.266-1.403-1.717-2.239-1.717-2.239s-0.112-0.014-0.141,0.112c-0.439-0.326-0.241-0.679-0.652-1.005
			c0,0-0.143,0.083-0.172,0.353c-0.637-0.467-0.482-1.276-0.723-1.589c0,0-0.154,0.072-0.227,0.298c0,0-0.213-0.37-0.213-0.525
			c0-0.156-0.087-0.254,0.184-0.468c0.27-0.212,0.369-0.127,0.438,0.114c0.396-0.328,0.58-0.779,0.993-1.192
			c0,0,0.198,0.087,0.339,0.341c0,0,0.371-0.497,0.598-1.334c0.383,0.072,0.583,0,0.539-0.51c-0.087-0.965,0.381-1.191,0.326-2.338
			c-0.021-0.413-0.415-0.27-0.396,0.057c0.043,0.921-0.256,0.935-0.354,1.744c-0.568-0.709-0.497,0.284-0.739,1.361
			c0,0-0.153-0.063-0.228-0.312c-0.143-0.468-0.327,0.254-0.837,1.134c-0.13-0.326-0.157-0.538-0.556-0.07
			c-0.395,0.468-1.82,1.68-3.189,2.681c-0.525,0.383-0.184,0.702-0.413,1.177c-0.155,0.326-0.454,0.58-0.454,0.58
			s-0.185-0.326-0.539-0.312c0,0,0.086-0.637-0.454-0.893c0,0,0.679-0.864-0.13-1.488c0.497-0.172,0.667-0.112,0.254-0.837
			c0,0,0.455-0.438-0.042-1.021c0.468-0.326,0.612,0.115,0.651,0.553c0.058,0.624,0.371,1.206,0.709,0.893
			c0.372-0.338,2.056-2.083,2.524-2.879c0.469-0.793,0.227-1.403,1.432-2.821c0.222-0.262,0.004-0.505-0.225-0.296
			c-0.144,0.125-0.44,0.254-0.44,0.254s-0.042-0.739,0.44-1.406c0.194-0.271,0.028-0.425-0.37-0.057c0,0-0.057-0.596,0.894-1.403
			c0.26-0.221,0.086-0.341-0.354-0.186c0,0,0.184-0.538,0.779-0.666c0.597-0.127,0.779,0.1,0.808,0.214
			c0.03,0.111,0.241,0.141,0.254,0c0.015-0.144,0.185-0.47,0.61-0.398c0.426,0.072,0.396,0.354,0.396,0.482
			c0,0.128,0.091,0.247,0.214,0.1c0.212-0.256,0.895-0.441,1.333,0.212c0,0-0.271,0.07-0.468,0.042
			c-0.198-0.028-0.28,0.121-0.014,0.271c0.808,0.455,1.049,1.134,1.049,1.134s-0.404-0.06-0.863-0.455
			c-0.197-0.17-0.307,0.018-0.154,0.271c0.252,0.424,1.244,0.525,1.388,1.56c0,0-0.58-0.214-0.993-0.61
			c-0.193-0.186-0.317-0.054-0.197,0.186c0.326,0.652,1.404,0.75,1.446,1.928c0,0-0.425-0.142-0.836-0.567
			c-0.204-0.211-0.371,0-0.142,0.298c0.226,0.297,0.809,0.58,0.881,1.219c0.069,0.637,0.253,3.532,0.395,4.383
			s0.383,1.831,1.388,3.048c1.006,1.221,1.153,1.49,1.49,2.667c0.75,2.624,1.687,3.289,2.878,2.948
			c1.192-0.34,1.651-2.214,0.739-3.56c-1.221-1.799-4.525-4.438-3.291-7.416c0,0-0.41-0.682,0.101-1.319
			c0,0,0.155,0.099,0.212,0.299c0.328-0.284,0-0.697,0.483-1.08c0,0,0.17,0.172,0.141,0.425c0.383-0.099,0.27-1.005,1.461-0.978
			c0.128,1.05-0.512,0.823-0.752,1.391c0,0,0.37-0.101,0.525,0.012c-0.185,0.709-0.68,0.482-0.894,0.796
			c0,0,0.241,0.012,0.396,0.212c0,0-0.241,0.879-1.289,0.539c0,0-0.298,0.312-0.212,1.319c0.078,0.95,0.311,1.831,2.113,3.871
			c0.631,0.718,2.015,2.142,2.015,3.59c0,1.346-0.951,2.552-2.213,2.552c-1.588,0-2.283-1.147-2.497-2.226
			C156.758,24.558,156.251,24.725,156.336,25.249z"/>
		<path d="M136.344,24.279c-1.628,0-2.946,1.29-2.946,2.881c0,1.589,1.321,2.879,2.946,2.879c1.627,0,2.947-1.289,2.947-2.879
			C139.291,25.569,137.971,24.279,136.344,24.279z M133.994,28.129c0,0-0.418-1.044,0-1.941
			C134.485,27.211,133.994,28.129,133.994,28.129z M137.315,24.878c-1.023,0.492-1.942,0-1.942,0S136.415,24.459,137.315,24.878z
			 M135.372,29.441c0,0,0.92-0.492,1.942,0C136.415,29.859,135.372,29.441,135.372,29.441z M138.094,28.912
			c-0.361,0.408-0.911-0.16-1.753-0.16c-0.843,0-1.399,0.55-1.758,0.141c-0.407-0.359,0.152-0.892,0.15-1.734
			c0-0.842-0.548-1.389-0.142-1.751c0.36-0.407,0.91,0.162,1.752,0.162c0.844,0,1.398-0.549,1.759-0.142
			c0.408,0.36-0.149,0.892-0.149,1.735C137.953,28.004,138.501,28.551,138.094,28.912z M138.691,26.188c0.417,0.9,0,1.941,0,1.941
			S138.199,27.211,138.691,26.188z"/>
		<path d="M136.344,23.105c-0.596,0-1.164,0.123-1.676,0.344c-0.087-0.073-0.169-0.158-0.198-0.22
			c-0.132-0.287-0.363-0.128-0.363-0.128s-0.148-0.326-0.186-0.56c-0.036-0.233-0.272-0.251-0.456-0.059
			c-0.183,0.19-0.337,0.253-0.337,0.253l-2.698-2.605l0.835-0.865l0.369,0.353l-0.598,0.622l1.077,1.038l2.974-3.08l-1.73-1.671
			l-1.145,1.185l0.764,0.739l0.354-0.37l0.225,0.217l-0.612,0.634l-2.29-2.211l0.612-0.634l0.225,0.217l-0.354,0.369l0.648,0.625
			l1.144-1.186l-1.731-1.671l-2.974,3.081l1.077,1.038l0.599-0.619l0.368,0.356l-0.836,0.865l-1.956-1.889
			c-0.294-0.283-0.718-0.021-0.955,0.224c-0.237,0.246-0.459,0.702-0.167,0.984l5.625,5.434c0,0-0.057,0.154-0.241,0.346
			c-0.185,0.191-0.159,0.425,0.074,0.455c0.235,0.03,0.565,0.163,0.565,0.163s-0.149,0.239,0.141,0.36
			c0.036,0.017,0.079,0.048,0.124,0.088c-0.286,0.55-0.446,1.173-0.446,1.833c0,2.239,1.858,4.055,4.149,4.055
			c2.292,0,4.149-1.816,4.149-4.055C140.494,24.921,138.634,23.105,136.344,23.105z M126.767,18.343
			c-0.171-0.169-0.154-0.301,0.072-0.534c0.111-0.116,0.253-0.335,0.514-0.082l2.052,1.979l1.434-1.485l-0.905-0.875l-0.638,0.661
			l-0.518-0.5l2.383-2.468l1.198,1.158l-0.552,0.575l-0.191-0.186l0.314-0.328l-0.676-0.651l-1.101,1.137l2.774,2.681l1.1-1.14
			l-0.708-0.682l-0.316,0.326l-0.231-0.223l0.552-0.573l1.111,1.072l-2.357,2.44l-0.429-0.415l0.611-0.634l-1.001-0.968
			l-1.435,1.487l3.027,2.921l-0.591,0.612L126.767,18.343z M132.753,24.518c-0.133-0.162-0.246-0.029-0.353-0.142
			c-0.067-0.074-0.047-0.18,0.088-0.323c0.172-0.186,0.549-0.586,0.757-0.796c0.209-0.207,0.37-0.341,0.492-0.217
			c0.124,0.124,0.031,0.238,0.192,0.398c0.161,0.162,0.303-0.076,0.435,0.284c-0.945,0.654-1.391,1.337-1.391,1.337
			C132.58,24.821,132.895,24.688,132.753,24.518z M136.344,30.627c-1.96,0-3.548-1.552-3.548-3.467c0-1.915,1.588-3.467,3.548-3.467
			c1.959,0,3.549,1.551,3.549,3.467C139.891,29.075,138.303,30.627,136.344,30.627z"/>
		<path d="M136.344,26.031c-0.638,0-1.156,0.505-1.156,1.129c0,0.623,0.518,1.129,1.156,1.129s1.156-0.507,1.156-1.129
			C137.499,26.538,136.982,26.031,136.344,26.031z M136.344,27.828c-0.376,0-0.683-0.299-0.683-0.667
			c0-0.368,0.307-0.667,0.683-0.667c0.377,0,0.682,0.299,0.682,0.667C137.026,27.528,136.722,27.828,136.344,27.828z"/>
		<path d="M8.961,1.469c-2.103,0-4.11-0.172-4.11-0.172S1.585,8.759,1.288,9.406C1.08,9.86,1.547,10.084,1.837,9.596
			c0.891-1.498,4.793-6.386,12.6-6.386h3.979L0,33.921h22.433c0,0,3.601-7.88,3.771-8.276c0.17-0.399-0.227-0.513-0.417-0.152
			c-0.929,1.762-6.252,6.727-13.187,6.727H7.882l18.644-30.75H8.961L8.961,1.469z M4.847,32.007
			c-0.073,0.118-0.225,0.215-0.342,0.215H4.258c-0.116,0-0.152-0.097-0.08-0.215L21.474,3.429c0.072-0.12,0.226-0.216,0.342-0.216
			h0.248c0.117,0,0.152,0.096,0.079,0.216L4.847,32.007z"/>
		<path d="M52.803,1.471L29.099,1.469c-0.316,0-0.279,0.718,0,0.718c1.269,0,3.266,1.388,3.266,2.979V29.27
			c0,2.303-1.521,3.839-3.266,3.839c-0.279,0-0.316,0.812,0,0.812h23.767c0,0,3.291-7.808,3.418-8.119
			c0.126-0.311-0.331-0.622-0.533-0.233c-1.339,2.573-6.386,6.65-13.011,6.65h-4.581V18.646h6.042c3.958,0,5.957,2.773,6.51,3.539
			c0.263,0.365,0.806,0.223,0.604-0.218c-0.203-0.437-2.1-4.215-2.1-4.215s1.897-3.774,2.1-4.212c0.203-0.44-0.229-0.648-0.456-0.26
			c-0.229,0.389-3.164,3.459-7.287,3.459h-5.412V3.211h3.973c5.917,0,10.647,2.23,13.709,6.924c0.176,0.269,0.634,0.128,0.533-0.129
			C56.225,9.627,52.803,1.471,52.803,1.471z M35.633,32.007c0,0.118-0.095,0.214-0.211,0.214h-0.248c-0.116,0-0.21-0.096-0.21-0.214
			V3.429c0-0.12,0.094-0.216,0.21-0.216h0.248c0.116,0,0.211,0.096,0.211,0.216V32.007z"/>
	</g>
	<g>
		<path d="M331.742,3.116c5.919,0,10.647,2.23,13.712,6.924c0.175,0.27,0.634,0.129,0.531-0.128c-0.148-0.38-3.57-8.536-3.57-8.536
			l-23.703-0.001c-0.316,0-0.28,0.719,0,0.719c1.267,0,3.265,1.387,3.265,2.978v24.103c0,2.303-1.521,3.841-3.265,3.841
			c-0.28,0-0.316,0.812,0,0.812h23.766c0,0,3.291-7.81,3.418-8.121c0.127-0.311-0.331-0.621-0.533-0.232
			c-1.34,2.573-6.385,6.649-13.01,6.649h-4.582V18.551h6.042c3.957,0,5.956,2.773,6.51,3.539c0.265,0.365,0.806,0.223,0.604-0.219
			c-0.203-0.438-2.1-4.215-2.1-4.215s1.897-3.774,2.1-4.213c0.202-0.438-0.229-0.645-0.456-0.259
			c-0.229,0.389-3.165,3.459-7.288,3.459h-5.412V3.116H331.742z M325.245,31.911c0,0.118-0.094,0.214-0.211,0.214h-0.248
			c-0.117,0-0.211-0.096-0.211-0.214V3.333c0-0.12,0.094-0.215,0.211-0.215h0.248c0.117,0,0.211,0.096,0.211,0.215V31.911z"/>
		<path d="M278.318,33.015c-1.061,0-2.818-1.024-2.818-2.616l0.012-25.711c0-1.592,1.837-2.595,2.652-2.595
			c0.284,0,0.321-0.719,0-0.719h-11.461c-0.323,0-0.284,0.719,0,0.719c0.815,0,2.652,1.003,2.652,2.595v25.711
			c0,1.591-1.592,2.616-2.652,2.616c-0.284,0-0.398,0.812,0,0.812h11.615C278.714,33.826,278.602,33.015,278.318,33.015z
			 M272.853,31.911c0,0.118-0.097,0.214-0.215,0.214h-0.251c-0.118,0-0.217-0.096-0.217-0.214V3.333c0-0.12,0.099-0.215,0.217-0.215
			h0.251c0.118,0,0.215,0.096,0.215,0.215V31.911z"/>
		<path d="M315.628,1.374h-9.944c-0.322,0-0.284,0.719,0,0.719c2.323,0,3.865,1.084,3.865,6.537v15.271L290.673,1.374h-9.012
			c-0.323,0-0.284,0.719,0,0.719c1.602,0,5.078,1.833,5.078,4.54v18.31c0,6.731-1.126,8.072-3.563,8.072
			c-0.284,0-0.398,0.812,0,0.812h9.492c0.398,0,0.286-0.812,0-0.812c-2.66,0-3.728-1.341-3.728-8.072l0.01-16.638l22.817,26.547
			l-0.005-26.222c0-5.377,1.662-6.537,3.865-6.537C315.913,2.093,315.952,1.374,315.628,1.374z M309.853,28.472
			c0,0.296-0.262,0.19-0.365,0.072L287.996,3.261c-0.1-0.12-0.09-0.169,0.033-0.169h0.396c0.16,0,0.326,0.193,0.428,0.313
			l20.789,24.442c0.1,0.12,0.212,0.254,0.212,0.434V28.472z"/>
		<path d="M235.451,1.374h-9.944c-0.323,0-0.283,0.719,0,0.719c2.323,0,3.865,1.084,3.865,6.537v15.271L210.495,1.374h-9.013
			c-0.32,0-0.284,0.719,0,0.719c1.605,0,5.08,1.833,5.08,4.54v18.31c0,6.731-1.126,8.072-3.563,8.072c-0.286,0-0.398,0.812,0,0.812
			h9.492c0.398,0,0.286-0.812,0-0.812c-2.661,0-3.728-1.341-3.728-8.072l0.01-16.638l22.818,26.547l-0.005-26.222
			c0-5.377,1.662-6.537,3.864-6.537C235.735,2.093,235.774,1.374,235.451,1.374z M229.675,28.472c0,0.296-0.263,0.19-0.363,0.072
			L207.818,3.261c-0.1-0.12-0.088-0.169,0.033-0.169h0.396c0.16,0,0.326,0.193,0.426,0.313l20.788,24.442
			c0.102,0.12,0.214,0.254,0.214,0.434V28.472L229.675,28.472z"/>
		<path d="M264.723,25.117c-1.339,2.573-6.196,7.006-12.823,7.006h-3.796l0.012-27.436c0-1.592,2.141-2.595,2.956-2.595
			c0.284,0,0.322-0.719,0-0.719h-12.205c-0.316,0-0.278,0.719,0,0.719c1.268,0,3.265,1.387,3.265,2.978v23.645
			c0,3.071-1.825,4.299-3.569,4.299c-0.278,0-0.314,0.812,0,0.812h23.462c0,0,3.105-8.167,3.232-8.477
			C265.382,25.04,264.925,24.728,264.723,25.117z M245.64,31.911c0,0.118-0.096,0.214-0.214,0.214h-0.167h-0.085h-0.169
			c-0.117,0-0.214-0.096-0.214-0.214V3.333c0-0.12,0.098-0.215,0.214-0.215h0.169h0.085h0.167c0.118,0,0.214,0.096,0.214,0.215
			V31.911z"/>
		<path d="M183.995,0.583c-7.592,0-16.923,5.729-16.923,17.279c0,10.119,6.403,16.401,16.694,16.401
			c13.357,0,17.245-9.84,17.245-16.679C201.011,7.976,193.647,0.583,183.995,0.583z M170.377,18.105
			c0-8.2,4.907-14.437,7.909-15.064c-2.662,1.535-7.266,7.246-7.108,15.064c0.15,7.32,2.66,10.668,5.931,13.649
			C173.838,29.715,170.377,26.275,170.377,18.105z M174.024,17.656c0-10.303,5.038-15.434,9.954-15.434
			c5.91,0,10.187,4.837,10.187,14.892c0,10.291-4.94,15.279-10.11,15.279C178.795,32.394,174.024,29.16,174.024,17.656z
			 M189.813,31.754c2.663-1.535,7.178-6.758,7.106-14.579c-0.068-7.491-2.659-11.153-5.929-14.134
			c3.27,2.042,6.732,5.964,6.732,14.134C197.723,25.376,192.815,31.128,189.813,31.754z"/>
	</g>
</g>
</svg>
