<?xml version="1.0" standalone="no"?>
<!DOCTYPE svg PUBLIC "-//W3C//DTD SVG 1.1//EN" "http://www.w3.org/Graphics/SVG/1.1/DTD/svg11.dtd" >
<svg xmlns="http://www.w3.org/2000/svg">
<metadata>
Created by FontPrep 20130207 at Fri Sep 27 12:50:51 2013
 By jakob runge
Copyright (c) 2013 by Jakob Runge. All rights reserved.
</metadata>
<defs>
<font id="1e4004a38162f3210e840229adeccb13" horiz-adv-x='1024' >
  <font-face 
    font-family="FranziskaFF-Regular"
    font-weight="380"
    font-stretch="normal"
    units-per-em="2048"
    panose-1="0 0 4 0 0 0 0 0 0 0"
    ascent="1638"
    descent="-410"
    x-height="1024"
    cap-height="1362"
    bbox="-225 -524 2537 1968"
    underline-thickness="102"
    underline-position="-102"
    unicode-range="U+0020-FB02"
  />
<missing-glyph horiz-adv-x="1396" 
d="M334 113h655l-655 1040v-1040zM1063 1249h-643l643 -1022v1022zM1186 0h-975v1362h975v-1362z" />
    <glyph glyph-name="uniFB00" unicode="ff" horiz-adv-x="1345" 
d="M885 1130q0 133 43 226q-135 76 -271 76q-268 0 -268 -310v-98h426l70 16v90zM221 1112q0 209 116 320q116 110 302 110t338 -106q94 106 262 106q111 0 187 -44t75 -110q0 -66 -43 -106h-125l-22 154q-25 4 -49 4q-209 0 -209 -279v-137h288v-109h-288v-813l213 -10v-92
h-525v92l144 31v792h-496v-813l182 -10v-92h-493v92l143 31v792l-143 11v82l143 32v72z" />
    <glyph glyph-name="fi" unicode="fi" horiz-adv-x="1263" 
d="M1212 0h-450v92l121 31h2v756l-125 32h-371v-809l182 -10v-92h-493v92l143 31v792l-143 11v82l143 32v50q0 233 129 343t355 109q170 0 263 -55t93 -129t-49 -109h-138l-22 176q-82 14 -154 15q-145 0 -227 -84t-82 -256v-76h416l207 20l41 -8v-934l159 -10v-92z" />
    <glyph glyph-name="fl" unicode="fl" horiz-adv-x="1261" 
d="M1210 0h-471v92l144 31v1274q-121 43 -242 43q-252 0 -252 -299v-117h217v-109h-217v-813l162 -10v-92h-473v92l143 31v792l-143 11v82l143 32v70q0 432 397 432q133 0 252 -47q76 33 140 47l41 -4v-1436l159 -10v-92z" />
    <glyph glyph-name="uni00540068" unicode="Th" horiz-adv-x="2205" 
d="M2179 0h-471v92l139 31v557q0 238 -213 238q-160 0 -278 -146v-670l160 -10v-92h-472v92l144 31v1112l-518 22v-1151l184 -10v-96h-551v96l184 31v1130l-292 -12l-29 -201h-119q-10 61 -10 166t10 152h1141q4 78 14 154q84 23 113 26l41 -6v-481q0 -27 -10 -166h20
q141 162 320 162q147 0 238 -87t91 -255v-607l164 -10v-92z" />
    <glyph glyph-name="uni0054006B" unicode="Tk" horiz-adv-x="2115" 
d="M1963 -16q-67 0 -115 30t-97 107l-75 122q-75 122 -152 244h-168v-385l139 -10v-92h-451v92l144 31v1112l-518 22v-1151l184 -10v-96h-551v96l184 31v1130l-292 -12l-29 -201h-119q-10 61 -10 166t10 152h1141q4 78 14 154q84 23 113 26l41 -6v-946h149q92 102 275 332
l-146 10v92h412v-92l-119 -29q-152 -166 -299 -305q160 -213 350 -492l117 -43l-8 -61q-57 -18 -124 -18z" />
    <glyph glyph-name="uni0054006C" unicode="Tl" horiz-adv-x="1566" 
d="M1516 0h-472v92l144 31v1112l-518 22v-1151l184 -10v-96h-551v96l184 31v1130l-292 -12l-29 -201h-119q-10 61 -10 166t10 152h1141q4 78 14 154q84 23 113 26l41 -6v-1434l160 -10v-92z" />
    <glyph glyph-name="uni01660068" unicode="&#x166;k" horiz-adv-x="2205" 
d="M2179 0h-471v92l139 31v557q0 238 -213 238q-160 0 -278 -146v-670l160 -10v-92h-472v92l144 31v1112l-518 22v-604h295v-104h-295v-443l184 -10v-96h-551v96l184 31v422h-305v104h305v604l-292 -12l-29 -201h-119q-10 61 -10 166t10 152h1141q4 78 14 154q84 23 113 26
l41 -6v-481q0 -27 -10 -166h20q141 162 320 162q147 0 238 -87t91 -255v-607l164 -10v-92z" />
    <glyph glyph-name="uni01640068" unicode="&#x164;h" horiz-adv-x="2205" 
d="M2179 0h-471v92l139 31v557q0 238 -213 238q-160 0 -278 -146v-670l160 -10v-92h-472v92l144 31v1112l-518 22v-1151l184 -10v-96h-551v96l184 31v1130l-292 -12l-29 -201h-119q-10 61 -10 166t10 152h1141q4 78 14 154q84 23 113 26l41 -6v-481q0 -27 -10 -166h20
q141 162 320 162q147 0 238 -87t91 -255v-607l164 -10v-92zM283 1751l120 82l201 -168h21l176 145h121l-293 -329h-103z" />
    <glyph glyph-name="uni01620068" unicode="&#x162;h" horiz-adv-x="2205" 
d="M618 -137q177 -5 177 -139q-1 -66 -61 -113t-170 -47t-185 55l18 74q86 -29 133 -29q115 0 115 78q0 31 -28 44t-117 30l28 184h-225v96l184 31v1130l-292 -12l-29 -201h-119q-10 61 -10 166t10 152h1141q4 78 14 154q84 23 113 26l41 -6v-481q0 -27 -10 -166h20
q141 162 320 162q147 0 238 -87t91 -255v-607l164 -10v-92h-471v92l139 31v557q0 238 -213 238q-160 0 -278 -146v-670l160 -10v-92h-472v92l144 31v1112l-518 22v-1151l184 -10v-96h-236v-137z" />
    <glyph glyph-name="uni021A0068" unicode="&#x21a;h" horiz-adv-x="2205" 
d="M562 -109q44 0 75 -16q37 -57 37 -133t-48 -144t-132 -98l-33 51q102 76 102 142q0 18 -2 31l-86 14v139q43 14 87 14zM2179 0h-471v92l139 31v557q0 238 -213 238q-160 0 -278 -146v-670l160 -10v-92h-472v92l144 31v1112l-518 22v-1151l184 -10v-96h-551v96l184 31
v1130l-292 -12l-29 -201h-119q-10 61 -10 166t10 152h1141q4 78 14 154q84 23 113 26l41 -6v-481q0 -27 -10 -166h20q141 162 320 162q147 0 238 -87t91 -255v-607l164 -10v-92z" />
    <glyph glyph-name="uni00660062" unicode="fb" horiz-adv-x="1875" 
d="M1276 76q162 0 245 121t83 333q0 387 -279 388q-87 0 -151 -36t-123 -110v-643q100 -53 225 -53zM1384 1051q192 -1 298 -141t106 -382t-144 -398q-144 -157 -368 -157q-80 1 -198 19t-195 45v1360q-121 43 -242 43q-252 0 -252 -299v-117h217v-109h-217v-813l203 -10
v-92h-514v92l143 31v792l-143 11v82l143 32v70q0 432 397 432q133 0 252 -47q76 33 140 47l41 -4v-483q-1 -27 -11 -166h21q131 162 323 162z" />
    <glyph glyph-name="uni006600660062" unicode="ffb" horiz-adv-x="2539" 
d="M1939 76q162 0 245 121t83 333q0 387 -278 388q-86 0 -151 -36t-124 -110v-643q100 -53 225 -53zM885 1110q0 147 47 244q-135 78 -275 78q-268 0 -268 -310v-98h426l70 16v70zM2048 1051q193 -1 298 -141t105 -382t-144 -398q-144 -157 -368 -157q-102 1 -221 23
t-172 41v1360q-121 43 -241 43q-252 0 -252 -299v-117h217v-109h-217v-813l202 -10v-92h-514v92l144 31v792h-496v-813l182 -10v-92h-493v92l143 31v792l-143 11v82l143 32v72q0 209 116 320q116 110 303 110t343 -110q100 111 299 110q133 0 252 -47q76 33 139 47l41 -4
v-483q0 -27 -10 -166h20q131 162 324 162z" />
    <glyph glyph-name="uni006600660068" unicode="ffh" horiz-adv-x="2564" 
d="M885 1110q0 147 47 244q-135 78 -275 78q-268 0 -268 -310v-98h426l70 16v70zM2537 0h-471v92l140 31v557q0 238 -213 238q-162 0 -279 -148v-668l160 -10v-92h-471v92l143 31v1274q-121 43 -241 43q-252 0 -252 -299v-117h217v-109h-217v-813l182 -10v-92h-494v92
l144 31v792h-496v-813l182 -10v-92h-493v92l143 31v792l-143 11v82l143 32v72q0 209 116 320q116 110 303 110t343 -110q100 111 299 110q133 0 252 -47q76 33 139 47l41 -4v-483q0 -27 -10 -166h20q141 162 320 162q147 0 238 -87t92 -255v-607l163 -10v-92z" />
    <glyph glyph-name="f_f_i" unicode="ffi" horiz-adv-x="1927" 
d="M885 1090q0 154 59 258q-141 84 -287 84q-268 0 -268 -310v-98h426l70 16v50zM1876 0h-451v92l121 31h2v756l-127 34h-368v-811l182 -10v-92h-494v92l144 31v792h-496v-813l182 -10v-92h-493v92l143 31v792l-143 11v82l143 32v72q0 209 116 320q117 110 309 110t353 -123
q125 123 369 123q170 0 263 -55t93 -129t-49 -109h-137l-22 176q-82 14 -154 15q-145 0 -227 -84t-82 -256v-76h415l207 20l41 -8v-934l160 -10v-92z" />
    <glyph glyph-name="uni00660066006A" unicode="ffj" horiz-adv-x="1898" 
d="M885 1090q0 154 59 256q-141 84 -287 84q-268 0 -268 -310v-98h414l82 18v50zM1716 -18q0 -158 -51 -248t-186 -170l-60 63l129 191v1061l-127 32h-368v-809l182 -10v-92h-494v92l144 31v790h-496v-813l182 -10v-92h-493v92l143 31v792l-143 11v82l143 32v72
q0 209 116 320q117 110 309 110t353 -123q123 125 369 125q170 0 263 -55t93 -129t-49 -109h-137l-22 176q-82 14 -154 15q-145 0 -227 -84t-82 -256v-76h415l207 20l41 -8v-1054z" />
    <glyph glyph-name="uni00660066006B" unicode="ffk" horiz-adv-x="2473" 
d="M885 1110q0 147 47 244q-135 78 -275 78q-268 0 -268 -310v-98h426l70 16v70zM2322 -16q-66 0 -115 30q-48 30 -86 89q-38 58 -111 177q-72 119 -128 207h-168v-385l139 -10v-92h-450v92l143 31v1274q-121 43 -241 43q-252 0 -252 -299v-117h217v-109h-217v-813l161 -10
v-92h-473v92l144 31v792h-496v-813l182 -10v-92h-493v92l143 31v792l-143 11v82l143 32v72q0 209 116 320q116 110 303 110t343 -110q100 111 299 110q133 0 252 -47q76 33 139 47l41 -4v-948h150q92 102 274 332l-145 10v92h411v-92l-118 -29q-152 -166 -299 -305
q81 -108 200 -278t150 -214l117 -43l-9 -61q-57 -18 -123 -18z" />
    <glyph glyph-name="f_f_l" unicode="ffl" horiz-adv-x="1925" 
d="M885 1110q0 147 47 244q-135 78 -275 78q-268 0 -268 -310v-98h426l70 16v70zM1874 0h-471v92l143 31v1274q-121 43 -241 43q-252 0 -252 -299v-117h217v-109h-217v-813l161 -10v-92h-473v92l144 31v792h-496v-813l182 -10v-92h-493v92l143 31v792l-143 11v82l143 32v72
q0 209 116 320q116 110 303 110t343 -110q100 111 299 110q133 0 252 -47q76 33 139 47l41 -4v-1436l160 -10v-92z" />
    <glyph glyph-name="uni00660068" unicode="fh" horiz-adv-x="1900" 
d="M1874 0h-471v92l139 31v557q0 238 -213 238q-162 0 -278 -148v-668l159 -10v-92h-471v92l144 31v1274q-121 43 -242 43q-252 0 -252 -299v-117h217v-109h-217v-813l182 -10v-92h-493v92l143 31v792l-143 11v82l143 32v70q0 432 397 432q133 0 252 -47q76 33 140 47l41 -4
v-483q0 -27 -11 -166h21q141 162 319 162q146 0 238 -87t92 -255v-607l164 -10v-92z" />
    <glyph glyph-name="uni00660127" unicode="f&#x127;" horiz-adv-x="1900" 
d="M1874 0h-471v92l139 31v557q0 238 -213 238q-162 0 -278 -148v-668l159 -10v-92h-471v92l144 31v1137h-164v102h164v35q-121 43 -242 43q-252 0 -252 -299v-117h217v-109h-217v-813l182 -10v-92h-493v92l143 31v792l-143 11v82l143 32v70q0 432 397 432q133 0 252 -47
q76 33 140 47l41 -4v-176h323v-102h-323v-205q0 -27 -11 -166h21q141 162 319 162q146 0 238 -87t92 -255v-607l164 -10v-92z" />
    <glyph glyph-name="uni006600EE" unicode="f&#xee;" horiz-adv-x="1261" 
d="M1210 0h-471v92l144 31v756l-142 36h-352v-813l182 -10v-92h-493v92l143 31v792l-143 11v82l143 32v70q0 203 122 308t300 106q113 0 211 -33l43 72h102l185 -310l-121 -71l-141 196h-21l-117 -184h-108l129 215q-63 12 -119 12q-135 -1 -216 -73t-81 -228v-96h414
l207 20l41 -8v-934l159 -10v-92z" />
    <glyph glyph-name="uni0066012B" unicode="f&#x12b;" horiz-adv-x="1282" 
d="M1231 0h-471v92l143 31v756l-141 36h-373v-813l213 -10v-92h-524v92l143 31v792l-143 11v82l143 32v90q0 312 219 391q61 21 148 21q86 0 160 -36t88 -101h356q8 -31 8 -68t-8 -67h-522l-25 166q-23 4 -47 4q-209 0 -209 -279v-137h434l207 20l41 -8v-934l160 -10v-92z
" />
    <glyph glyph-name="uni0066012F" unicode="f&#x12f;" horiz-adv-x="1263" 
d="M934 -214q0 -62 36 -92t93 -30t117 23l18 -74q-66 -49 -174 -49q-172 0 -221 115q-14 34 -15 71q0 137 189 230v20h-236v92l144 31v756l-125 32h-371v-809l182 -10v-92h-493v92l143 31v792l-143 11v82l143 32v50q0 233 129 343t355 109q170 0 263 -55t93 -129t-49 -109
h-138l-22 176q-82 14 -154 15q-145 0 -227 -84t-82 -256v-76h416l207 20l41 -8v-934l159 -10v-92q-130 -37 -204 -94q-74 -58 -74 -120z" />
    <glyph glyph-name="uni0066006A" unicode="fj" horiz-adv-x="1236" 
d="M1053 -18q1 -158 -51 -248t-187 -170l-59 63l129 191v1061l-125 32h-371v-809l182 -10v-92h-493v92l143 31v792l-143 11v82l143 32v50q0 233 129 343t355 109q170 0 263 -55t93 -129t-49 -109h-138l-22 176q-82 14 -154 15q-145 0 -227 -84t-82 -256v-76h416l207 20
l41 -8v-1054z" />
    <glyph glyph-name="uni0066006B" unicode="fk" horiz-adv-x="1810" 
d="M1658 -16q-67 0 -115 30t-97 107q-15 23 -94 150q-78 128 -133 216h-168v-385l139 -10v-92h-451v92l144 31v1274q-121 43 -242 43q-252 0 -252 -299v-117h217v-109h-217v-813l162 -10v-92h-473v92l143 31v792l-143 11v82l143 32v70q0 432 397 432q133 0 252 -47
q76 33 140 47l41 -4v-948h149q92 102 275 332l-146 10v92h412v-92l-119 -29q-152 -166 -299 -305q160 -213 350 -492l117 -43l-8 -61q-57 -18 -124 -18z" />
    <glyph glyph-name="uni0066013A" unicode="f&#x13a;" horiz-adv-x="1331" 
d="M1233 0h-471v92l143 31v1266q-125 51 -264 51q-252 0 -252 -299v-117h238v-109h-238v-813l182 -10v-92h-493v92l143 31v792l-143 11v82l143 32v70q0 432 397 432q201 0 353 -98q31 12 61 16l41 -4v-1354l160 -10v-92zM965 1542l139 289h53q82 -35 123 -107l-203 -182
h-112z" />
    <glyph glyph-name="uni0066013E" unicode="f&#x13e;" horiz-adv-x="1261" 
d="M1308 1542q52 0 87 -18q43 -72 43 -168t-60 -178q-60 -80 -159 -109l-23 59q65 36 94 99q30 63 17 119l-93 16l-4 168q46 12 98 12zM1210 0h-471v92l144 31v1274q-121 43 -242 43q-252 0 -252 -299v-117h217v-109h-217v-813l162 -10v-92h-473v92l143 31v792l-143 11v82
l143 32v70q0 432 397 432q133 0 252 -47q76 33 140 47l41 -4v-1436l159 -10v-92z" />
    <glyph glyph-name=".notdef" horiz-adv-x="1396" 
d="M334 113h655l-655 1040v-1040zM1063 1249h-643l643 -1022v1022zM1186 0h-975v1362h975v-1362z" />
    <glyph glyph-name=".null" horiz-adv-x="0" 
 />
    <glyph glyph-name="nonmarkingreturn" horiz-adv-x="681" 
 />
    <glyph glyph-name="space" unicode=" " horiz-adv-x="448" 
 />
    <glyph glyph-name="exclam" unicode="!" horiz-adv-x="544" 
d="M267 209q60 0 87 -21q27 -49 27 -101t-53 -112l-154 25l-4 197q37 12 97 12zM342 1389l35 -31q-1 -163 -23 -502q-22 -338 -26 -442h-115q-5 104 -27 461t-22 483q82 31 178 31z" />
    <glyph glyph-name="quotedbl" unicode="&#x22;" horiz-adv-x="839" 
d="M645 1051h-115l-49 419q82 31 178 31l35 -31zM309 1051h-114l-50 419q82 31 179 31l34 -31z" />
    <glyph glyph-name="numbersign" unicode="#" horiz-adv-x="1224" 
d="M793 786h-320l-43 -356h320zM1071 430v-147l-209 -29l-33 -281h-96l-33 31l31 258h-319l-35 -289h-96l-33 31l31 258h-191v148l211 28l41 348h-186v148l206 29l33 282h96l33 -31l-30 -260h319l35 291h96l33 -31l-31 -260h193v-147l-213 -29l-41 -348h188z" />
    <glyph glyph-name="dollar" unicode="$" horiz-adv-x="1077" 
d="M588 504v-424q195 27 194 199q0 84 -42 129t-152 96zM500 735v404q-186 -27 -187 -193q1 -76 43 -119t144 -92zM119 204q0 75 53 118h121l33 -234q84 -10 153 -12l15 469l-56 26q-137 63 -208 139q-70 76 -70 212q0 134 89 220t249 99v234l100 10l20 -12l-8 -230
q200 -9 292 -102q52 -53 52 -127t-53 -117h-121l-30 233q-74 8 -142 13l-14 -449l51 -24q115 -54 178 -100q137 -99 136 -259q-1 -161 -100 -241t-267 -95v-231l-103 -10l-20 12l6 227q-213 13 -304 104q-52 52 -52 127z" />
    <glyph glyph-name="percent" unicode="%" horiz-adv-x="1730" 
d="M1319 643q-152 0 -152 -291t152 -291t151 291q1 291 -151 291zM1307 -27q-149 1 -225 103t-74 271q0 169 86 277t236 107q148 0 224 -103t76 -271t-87 -276t-236 -108zM412 1157q-152 0 -152 -291t152 -291t151 291q1 291 -151 291zM400 487q-150 1 -225 103t-75 271
t87 277t235 107q148 0 225 -103q76 -103 76 -271t-87 -276q-86 -108 -236 -108zM1300 1229l9 -25q-43 -68 -172 -263t-201 -315t-199 -342t-207 -350l-98 50l-8 24q343 515 534 847q191 333 244 423z" />
    <glyph glyph-name="ampersand" unicode="&#x26;" horiz-adv-x="1472" 
d="M565 82q154 0 307 119q-264 227 -426 469q-176 -113 -176 -303q0 -139 90 -212t205 -73zM659 1284q-84 0 -132 -56t-48 -171t96 -275q123 66 176 146q52 80 52 180q-1 176 -144 176zM942 143q-170 -170 -378 -170t-338 80q-67 41 -105 117q-39 76 -39 176q0 152 86 242
t242 143q-113 188 -113 330q0 100 56 177q110 151 312 151q203 0 279 -129q37 -61 37 -144q0 -133 -97 -243t-268 -156q135 -193 369 -381q38 82 47 183q8 101 8 233q178 29 351 28v-131h-203q-2 -92 -36 -190t-97 -176q139 -106 270 -177l127 -28l-10 -74
q-200 -85 -475 121z" />
    <glyph glyph-name="quotesingle" unicode="'" horiz-adv-x="503" 
d="M309 1051h-114l-50 419q82 31 179 31l34 -31z" />
    <glyph glyph-name="parenleft" unicode="(" horiz-adv-x="661" 
d="M311 578q0 -516 207 -928l-76 -37q-150 174 -224 435q-75 262 -75 530t75 529q74 261 224 435l76 -37q-207 -411 -207 -927z" />
    <glyph glyph-name="parenright" unicode=")" horiz-adv-x="661" 
d="M518 578q0 -268 -75 -530t-224 -435l-76 37q207 412 207 928t-207 927l76 37q151 -174 225 -435t74 -529z" />
    <glyph glyph-name="asterisk" unicode="*" horiz-adv-x="952" 
d="M494 1110l63 49q119 -86 172 -158q16 -20 37 -63l-117 -88q-77 53 -155 260zM387 1161l66 -47q-58 -188 -150 -264l-119 86q42 102 203 225zM823 1399l47 -139q-35 -20 -94 -40t-203 -24l-24 76q165 121 274 127zM82 1260l45 141q99 -5 276 -125l-24 -76q-186 0 -297 60z
M559 1500q0 -64 -41 -202h-80q-43 134 -43 200t8 101h148q8 -35 8 -99z" />
    <glyph glyph-name="plus" unicode="+" 
d="M696 539v-426h-135v426h-420v123h420v425h135v-425h420v-123h-420z" />
    <glyph glyph-name="comma" unicode="," horiz-adv-x="505" 
d="M244 211q52 0 84 -21q45 -70 45 -177t-75 -203t-202 -142l-33 56q184 117 185 233q0 20 -4 41l-97 16l-4 185q49 12 101 12z" />
    <glyph glyph-name="hyphen" unicode="-" horiz-adv-x="765" 
d="M119 539v123h528v-123h-528z" />
    <glyph glyph-name="period" unicode="." horiz-adv-x="505" 
d="M248 236q60 0 80 -7q45 -61 45 -116t-37 -113h-166l-37 205q55 31 115 31z" />
    <glyph glyph-name="slash" unicode="/" horiz-adv-x="673" 
d="M184 -373h-102l-25 21l432 1827h103l24 -21z" />
    <glyph glyph-name="zero" unicode="0" horiz-adv-x="1212" 
d="M606 1141q-299 0 -299 -531q0 -264 77 -399t222 -135t222 135t77 399q0 531 -299 531zM622 1243q230 0 351 -172q121 -171 121 -457t-136 -463t-367 -177q-230 0 -351 171q-121 172 -121 458t136 463q137 177 367 177z" />
    <glyph glyph-name="one" unicode="1" horiz-adv-x="802" 
d="M752 0h-656v92l246 31v872q-88 -27 -250 -26v106q227 12 336 168l82 -4v-1137l242 -10v-92z" />
    <glyph glyph-name="two" unicode="2" horiz-adv-x="970" 
d="M899 128q0 -83 -10 -128h-826l-12 117q311 253 396 357q44 54 101 132q107 149 105 303q0 113 -60 173q-61 60 -149 60t-155 -28l-33 -237h-129q-55 41 -55 116q0 106 109 179q110 73 283 73q172 0 280 -95t108 -254t-161 -341t-486 -432l6 -19q131 18 266 27l266 16
l17 121h129q10 -57 10 -140z" />
    <glyph glyph-name="three" unicode="3" horiz-adv-x="1034" 
d="M418 -170q-150 0 -248 60t-98 173q0 78 53 119h129l33 -235q61 -14 127 -15q139 0 227 75t88 221q1 146 -67 220q-68 72 -228 72h-98v111h215q137 82 137 266q0 246 -252 246q-78 0 -139 -25l-31 -223h-116q-55 41 -56 113q0 104 106 171t280 67q173 0 283 -95
q110 -94 109 -256q0 -213 -219 -297v-20q119 -29 189 -113t69 -207q0 -178 -138 -303t-355 -125z" />
    <glyph glyph-name="four" unicode="4" horiz-adv-x="1054" 
d="M786 190v-333h-168v333h-550l-11 74q229 508 404 983l157 -57l5 -23q-213 -477 -428 -848l6 -18q168 12 250 12h167v426l127 27l41 -4v-449h211v-123h-211z" />
    <glyph glyph-name="five" unicode="5" horiz-adv-x="1017" 
d="M496 727q194 0 312 -114q118 -113 118 -313t-135 -335t-355 -135q-147 0 -246 61q-98 61 -98 172q0 78 53 119h129l33 -233q61 -16 123 -17q135 0 223 86t88 243t-79 235q-80 78 -248 88l-244 14l23 621l122 26q117 -47 255 -47t290 47l29 -67q-139 -145 -346 -146
q-119 0 -238 47l-26 -379q109 27 217 27z" />
    <glyph glyph-name="six" unicode="6" horiz-adv-x="1159" 
d="M305 504q0 -224 85 -326t211 -102t201 91t75 281t-113 269q-59 41 -150 41q-168 0 -305 -168q-4 -41 -4 -86zM666 891q182 0 288 -127q106 -128 106 -320t-131 -331q-132 -139 -349 -139t-339 159q-122 160 -122 440q0 363 189 589t474 227q78 0 148 -17l-6 -92
q-282 0 -426 -130t-181 -400h21q146 141 328 141z" />
    <glyph glyph-name="seven" unicode="7" horiz-adv-x="935" 
d="M225 14q0 164 134 415t403 656l-10 15l-535 -37l-20 -143h-115q-10 63 -10 152t10 147h819l14 -68q-209 -319 -323 -572t-178 -507l57 -193l-137 -51q-109 53 -109 186z" />
    <glyph glyph-name="eight" unicode="8" horiz-adv-x="1134" 
d="M305 346q0 -116 68 -192q69 -78 193 -78t194 72t70 180q0 106 -66 164q-66 57 -254 141l-8 4q-104 -39 -150 -107t-47 -184zM803 1042q1 102 -59 174q-60 70 -176 70t-176 -68t-60 -165q0 -96 60 -151t218 -126q100 40 146 102t47 164zM1012 358q0 -188 -132 -286
t-324 -98t-313 94q-120 94 -120 250t82 241q82 84 196 111v20q-252 117 -251 338q0 92 39 164q72 129 243 176q74 20 152 21q166 -1 284 -89t117 -235q0 -147 -82 -221t-186 -99v-20q139 -57 217 -140t78 -227z" />
    <glyph glyph-name="nine" unicode="9" horiz-adv-x="1159" 
d="M854 715q0 223 -85 325t-212 102t-201 -89q-74 -90 -74 -254q1 -338 263 -338q168 0 305 168q4 41 4 86zM493 328q-181 0 -288 129t-107 321t131 329q131 138 349 138t340 -160t122 -440q0 -362 -192 -589q-193 -226 -481 -226q-80 0 -158 16l6 93q557 0 627 530h-21
q-147 -141 -328 -141z" />
    <glyph glyph-name="colon" unicode=":" horiz-adv-x="505" 
d="M248 236q60 0 80 -7q45 -61 45 -116t-37 -113h-166l-37 205q55 31 115 31zM248 1030q60 0 80 -6q45 -60 45 -116t-37 -113h-166l-37 204q55 31 115 31z" />
    <glyph glyph-name="semicolon" unicode=";" horiz-adv-x="505" 
d="M244 211q52 0 84 -21q45 -70 45 -177t-75 -203t-202 -142l-33 56q184 117 185 233q0 20 -4 41l-97 16l-4 185q49 12 101 12zM248 1030q60 0 80 -6q45 -60 45 -116t-37 -113h-166l-37 204q55 31 115 31z" />
    <glyph glyph-name="less" unicode="&#x3c;" 
d="M336 612v-20l733 -397l-57 -111l-865 444v148l865 444l57 -110z" />
    <glyph glyph-name="equal" unicode="=" 
d="M141 334v123h975v-123h-975zM141 743v123h975v-123h-975z" />
    <glyph glyph-name="greater" unicode="&#x3e;" 
d="M1106 528l-864 -444l-58 111l734 397v20l-734 398l58 110l864 -444v-148z" />
    <glyph glyph-name="question" unicode="?" horiz-adv-x="724" 
d="M304 209q60 0 87 -21q27 -49 27 -101t-53 -112l-154 25l-4 197q37 12 97 12zM143 1198v164q66 10 115 10q218 0 322 -127t104 -303q0 -126 -67 -194t-259 -154v-221h-110q-53 145 -53 217t23 102q24 31 89 62q174 84 221 118t47 97q0 113 -117 171q-118 58 -315 58z" />
    <glyph glyph-name="at" unicode="@" horiz-adv-x="1873" 
d="M719 477q0 -137 44 -192t122 -55t126 28q48 30 107 100l66 519q-82 72 -166 71q-133 0 -216 -137t-83 -334zM1051 -166v-74q-85 -20 -209 -20t-258 45q-289 97 -405 361q-60 140 -60 329t75 367q152 361 515 512q182 76 389 76q324 0 506 -180t182 -484q0 -154 -48 -281
t-128 -205q-168 -164 -375 -165q-63 0 -92 18t-27 62l2 45h-18q-106 -144 -260 -144t-230 93t-76 257t59 300q58 136 170 220t248 85q136 0 216 -80q57 53 104 73l41 -16l-102 -815q176 17 279 155t103 388t-144 411q-146 160 -421 160q-352 0 -577 -245t-225 -591
q0 -345 204 -501t562 -156z" />
    <glyph glyph-name="A" unicode="A" horiz-adv-x="1384" 
d="M418 510h483q-143 434 -235 672h-21q-90 -246 -227 -672zM1358 0h-481v96l149 29q-41 131 -90 278h-551q-51 -164 -92 -297l149 -10v-96h-415v96l129 29q250 768 434 1237l145 27h21q166 -403 471 -1283l131 -10v-96z" />
    <glyph glyph-name="B" unicode="B" horiz-adv-x="1222" 
d="M444 106h191q165 0 235 68t70 207t-73 205t-242 65h-181v-545zM444 756h297q137 84 138 262q0 123 -69 185t-228 63h-138v-510zM1128 373q0 -173 -126 -273t-390 -100h-514v96l164 31v1128l-166 11v96q260 10 493 10t355 -97t123 -259q0 -211 -203 -289v-20
q264 -68 264 -334z" />
    <glyph glyph-name="C" unicode="C" horiz-adv-x="1320" 
d="M762 -27q-156 0 -281 56.5t-203 152.5q-160 199 -159.5 504t181.5 504t499 199q180 0 366 -80q21 -98 -2 -305h-121l-32 233q-90 37 -199 37q-242 0 -368 -149.5t-126 -433.5t133.5 -434.5t342.5 -150t381 139.5l45 -70q-166 -203 -457 -203z" />
    <glyph glyph-name="D" unicode="D" horiz-adv-x="1431" 
d="M444 109h170q260 0 380 149.5t120 446.5q0 559 -483 559h-187v-1155zM580 1372q379 0 556 -180t177 -495.5t-172 -506t-529 -190.5h-514v96l164 31v1128l-166 11v96q260 10 484 10z" />
    <glyph glyph-name="E" unicode="E" horiz-adv-x="1212" 
d="M1122 195.5q0 -76.5 -26 -195.5h-998v96l164 31v1128l-166 11v96h1002q10 -47 10 -133t-10 -164h-119l-25 174l-510 18v-499h285l23 127h92v-379h-92l-25 143h-283v-545l508 19l49 188l119 -12q2 -27 2 -103.5z" />
    <glyph glyph-name="F" unicode="F" horiz-adv-x="1136" 
d="M96 1362h983q11 -47 11 -133t-11 -164h-121l-24 174l-490 18v-548h281l23 127h96v-379h-96l-25 143h-279v-494l205 -10v-96h-551v96l164 31v1128l-166 11v96z" />
    <glyph glyph-name="G" unicode="G" horiz-adv-x="1400" 
d="M819 -27q-358 0 -529 202.5t-171 508t189.5 505.5t510.5 200q180 0 367 -80q10 -47 10 -113t-12 -172h-121l-29 205q-82 45 -209 45q-242 0 -375 -150.5t-133 -438.5t129 -442.5t351 -154.5q139 0 252 55l-27 342l-203 11v96h488v-96l-103 -31v-412q-188 -80 -385 -80z
" />
    <glyph glyph-name="H" unicode="H" horiz-adv-x="1560" 
d="M1479 0h-527v96l164 31v522h-672v-543l181 -10v-96h-527v96l164 31v1128l-166 11v96h529v-96l-181 -31v-475h672v495l-182 11v96h528v-96l-164 -31v-1129l181 -10v-96z" />
    <glyph glyph-name="I" unicode="I" horiz-adv-x="708" 
d="M610 0h-510v96l164 31v1128l-166 11v96h512v-96l-164 -31v-1129l164 -10v-96z" />
    <glyph glyph-name="J" unicode="J" horiz-adv-x="954" 
d="M711 373q0 -251 -160 -347q-87 -52 -188 -53q-184 0 -260 74.5t-76 151t51 123.5h133l31 -224q41 -10 86 -10q201 0 200 254v913l-215 11v96h561v-96l-163 -31v-862z" />
    <glyph glyph-name="K" unicode="K" horiz-adv-x="1404" 
d="M469 647v-541l178 -10v-96h-526v96l166 31v1128l-168 11v96h508v-96l-158 -31v-477h215q166 229 340 495l-176 13v96h473v-96l-129 -23q-209 -272 -397 -493q104 -141 193 -276.5t140.5 -212.5t83.5 -128l146 -55l-10 -72q-72 -23 -123 -22q-98 0 -153.5 42t-103.5 114
q-77 113 -163.5 268t-138.5 239h-197z" />
    <glyph glyph-name="L" unicode="L" horiz-adv-x="1116" 
d="M1059 172.5q0 -80.5 -27 -172.5h-934v96l164 31v1128l-166 11v96h543v-96l-195 -31v-1131l441 17l55 211l115 -13q4 -66 4 -146.5z" />
    <glyph glyph-name="M" unicode="M" horiz-adv-x="1818" 
d="M1763 0h-526v96l180 31q-14 662 -35 1102h-20q-25 -119 -90 -297l-314 -869l-110 -22h-21l-313 879q-51 147 -92 309h-21q-31 -487 -45 -1123l179 -10v-96h-480v96l164 31q20 537 66 1126l-164 13v96h438q166 -459 348 -1038h21q160 510 356 1038h414v-96l-160 -29
q37 -528 61 -1131l164 -10v-96z" />
    <glyph glyph-name="N" unicode="N" horiz-adv-x="1562" 
d="M590 0h-492v96l164 31v1126l-166 13v96h424l467 -772q98 -162 180 -320h21l-17 985l-192 11v96h494v-96l-164 -31v-1235l-135 -27h-25l-586 967q-72 117 -155 289h-21l12 -1123l191 -10v-96z" />
    <glyph glyph-name="O" unicode="O" horiz-adv-x="1523" 
d="M762 1274q-203 0 -321.5 -152.5t-118.5 -438.5t119.5 -440.5t320.5 -154.5t320.5 154.5t119.5 440.5t-118.5 438.5t-321.5 152.5zM778 1389q301 0 464 -196t163 -504t-180.5 -512t-478.5 -204t-462.5 199t-164.5 507t179 509t480 201z" />
    <glyph glyph-name="P" unicode="P" horiz-adv-x="1148" 
d="M694 506q-65 0 -145 16v92h49q152 0 224 79t71 237q0 332 -324 332h-125v-1156l201 -10v-96h-547v96l164 31v1128l-166 11v96q260 10 499 10t368 -118t129 -315t-114 -315t-284 -118z" />
    <glyph glyph-name="Q" unicode="Q" horiz-adv-x="1523" 
d="M762 1274q-203 0 -322 -153q-118 -153 -118 -439t120 -440t320 -154t320 155t120 441t-118 438t-322 152zM741 -27q-295 0 -459 200t-163 508q0 308 179 508t480 200t464 -196t163 -497q0 -246 -110 -426t-314 -256v-20l281 -236l139 -51l-8 -80q-71 -12 -135 -12
t-111 17t-96 71l-248 270h-62z" />
    <glyph glyph-name="R" unicode="R" horiz-adv-x="1290" 
d="M444 680h291q154 91 154 291q0 150 -76 217t-244 69h-125v-577zM444 569v-463l181 -10v-96h-527v96l164 31v1128l-166 11v96q226 10 402 10q330 0 462 -112.5t132 -286.5q0 -266 -295 -365l-6 -20q76 -80 189.5 -245t154.5 -214l139 -51l-8 -72q-68 -23 -141.5 -22.5
t-126 36t-92.5 92t-142 217t-160 240.5h-160z" />
    <glyph glyph-name="S" unicode="S" horiz-adv-x="1124" 
d="M542 84q286 0 285 212q0 108 -55 166t-178 113l-174 80q-78 35 -131 75t-93 114t-40 178.5t53 189t152.5 131t256 46.5t328.5 -82q12 -57 12 -112.5t-12 -150.5h-121l-26 191q-100 43 -220 43t-188.5 -59.5t-68.5 -157.5t41 -143.5t139 -90.5l166 -75q264 -116 322 -262
q26 -64 26 -144q0 -188 -133 -280.5t-339 -92.5t-392 82q-23 106 -23 164t6 100l107 13l57 -201q103 -47 243 -47z" />
    <glyph glyph-name="T" unicode="T" horiz-adv-x="1155" 
d="M1118 1212.5q0 -102.5 -10 -168.5h-119l-28 201l-291 12v-1151l184 -10v-96h-551v96l184 31v1130l-292 -12l-29 -201h-119q-10 66 -10 168.5t10 149.5h1061q10 -47 10 -149.5z" />
    <glyph glyph-name="U" unicode="U" horiz-adv-x="1507" 
d="M1264 457q0 -219 -130 -351.5t-374 -132.5t-380 135.5t-136 362.5v784l-166 11v96h518v-96l-170 -31v-762q0 -385 350 -385t350 385v782l-192 11v96h493v-96l-163 -31v-778z" />
    <glyph glyph-name="V" unicode="V" horiz-adv-x="1363" 
d="M27 1362h501v-96l-180 -31q203 -645 361 -1055h20q168 459 352 1075l-184 11v96h440v-96l-118 -29q-93 -283 -225 -653t-218 -584l-137 -27h-21q-166 403 -471 1284l-120 9v96z" />
    <glyph glyph-name="W" unicode="W" horiz-adv-x="2062" 
d="M27 1362h501v-96l-180 -31q147 -539 320 -1055h20q233 682 297 883l-59 192l-117 11v96h506v-96l-195 -31q10 -39 62 -211t76 -255q118 -400 190 -589h20q174 549 312 1075l-185 11v96h441v-96l-117 -29q-205 -672 -403 -1237l-138 -27h-20q-248 715 -301 883h-21
q-166 -514 -301 -856l-139 -27h-21q-250 698 -432 1284l-116 9v96z" />
    <glyph glyph-name="X" unicode="X" horiz-adv-x="1394" 
d="M1354 0h-545v96l170 31q-197 322 -299 459h-25q-109 -139 -340 -480l168 -10v-96h-442v96l115 27q242 311 452 553q-244 348 -389 579l-145 11v96h540v-96l-174 -29q178 -289 283 -424h22q139 191 304 442l-166 11v96h440v-96l-115 -27q-272 -360 -411 -524
q213 -301 409 -611l148 -8v-96z" />
    <glyph glyph-name="Y" unicode="Y" horiz-adv-x="1304" 
d="M940 0h-551v96l184 31v356q-205 348 -423 772l-123 11v96h501v-96l-174 -29q186 -373 328 -606h20q147 236 326 624l-190 11v96h440v-96l-117 -31q-166 -342 -405 -748v-381l184 -10v-96z" />
    <glyph glyph-name="Z" unicode="Z" horiz-adv-x="1198" 
d="M1130 183q0 -83 -26 -183h-1016l-10 41l665 1014q91 134 138 194l-11 15l-606 -23l-26 -197h-121q-27 192 -2 318h1001l10 -41l-645 -983q-110 -160 -159 -225l10 -15l624 23l48 211l122 -13q4 -53 4 -136z" />
    <glyph glyph-name="bracketleft" unicode="[" horiz-adv-x="671" 
d="M553 -360h-348v1876h348v-99l-221 -12q54 -788 0 -1653l221 -12v-100z" />
    <glyph glyph-name="backslash" unicode="\" horiz-adv-x="673" 
d="M616 -352l-24 -21h-103l-432 1827l25 21h102z" />
    <glyph glyph-name="bracketright" unicode="]" horiz-adv-x="671" 
d="M467 -360h-348v100l221 12q-27 418 -27 838t27 815l-221 12v99h348v-1876z" />
    <glyph glyph-name="asciicircum" unicode="^" horiz-adv-x="888" 
d="M713 963l-258 358h-21l-258 -358l-110 69l305 469h147l305 -469z" />
    <glyph glyph-name="underscore" unicode="_" horiz-adv-x="935" 
d="M98 -276v108h740v-108h-740z" />
    <glyph glyph-name="grave" unicode="`" horiz-adv-x="514" 
d="M346 1174l-285 288q49 78 134 109h53l205 -397h-107z" />
    <glyph glyph-name="a" unicode="a" horiz-adv-x="1056" 
d="M659 449q-207 0 -297 -48.5t-90 -158.5q0 -145 150 -145.5t272 157.5l4 195h-39zM840 -16q-133 0 -133 127v28h-21q-70 -80 -142.5 -123t-191 -43t-191.5 71t-73 189t81 186q132 111 396 111q74 0 133 -8l2 197q4 229 -231 229q-61 0 -115 -12l-32 -234h-123
q-57 43 -58 107q0 104 120 173t266.5 69t244.5 -85t96 -237l-6 -610l146 -10v-80q-86 -45 -168 -45z" />
    <glyph glyph-name="b" unicode="b" horiz-adv-x="1171" 
d="M567 76q166 0 249 120t83 334q0 387 -278 388q-158 -1 -275 -146v-643q98 -53 221 -53zM346 1055q0 -27 -10 -166h20q131 162 324 162q193 -1 298 -141t105 -384t-144 -398q-144 -155 -386 -155q-190 0 -375 64v1358l-141 20v84q131 35 268 43l41 -10v-477z" />
    <glyph glyph-name="c" unicode="c" horiz-adv-x="1005" 
d="M88 508q0 234 134 388.5t345 154.5q127 0 224.5 -56.5t97.5 -173.5q0 -76 -53 -119h-131l-33 236q-41 10 -99 10q-133 0 -217 -111.5t-84 -317.5t83 -313.5t230 -107.5t292 129l43 -65q-147 -188 -372.5 -188.5t-342.5 150t-117 384.5z" />
    <glyph glyph-name="d" unicode="d" horiz-adv-x="1187" 
d="M272 492q0 -385 281 -386q155 1 272 146v631q-99 65 -245 65t-227 -124t-81 -332zM492 -27q-192 -1 -298 139t-106 378t138 399q138 162 356 162q125 0 243 -47v389l-141 20v84q141 39 268 45l41 -10v-1382l144 -37v-84q-158 -37 -271 -45l-41 8l11 143h-21
q-131 -162 -323 -162z" />
    <glyph glyph-name="e" unicode="e" horiz-adv-x="1034" 
d="M557 948q-111 0 -187 -87t-94 -249l484 19q0 317 -203 317zM88 509q0 235 135 388.5t355 153.5q176 0 266 -102.5t90 -270.5q0 -72 -16 -154h-646q0 -207 86 -316.5t239 -109.5t300 129l43 -65q-147 -188 -381.5 -188.5t-352.5 150t-118 385.5z" />
    <glyph glyph-name="f" unicode="f" horiz-adv-x="681" 
d="M221 1130q0 312 219 391q62 21 154 21t168 -44t76 -110t-43 -106h-125l-23 154q-25 4 -49 4q-209 0 -209 -279v-137h289v-109h-289v-813l213 -10v-92h-524v92l143 31v792l-143 11v82l143 32v90z" />
    <glyph glyph-name="g" unicode="g" horiz-adv-x="1087" 
d="M504 -334q138 0 252 48q56 24 90.5 63t34.5 82q1 43 -21 67q-50 54 -291 88l-266 39q-68 -78 -67 -190q0 -197 268 -197zM287 692q0 -258 228 -258t228 258q0 168 -100 228q-51 30 -117 30q-238 0 -239 -258zM924 691q0 -149 -117 -253t-309 -104q-57 0 -107 10v-147
l275 -37q197 -27 278.5 -84.5t81.5 -159.5q0 -158 -159.5 -255t-422.5 -97q-193 0 -293 61.5t-100 198.5q0 104 57.5 174t153.5 84q2 109 33 293q-125 59 -169 183q-20 58 -20 124q0 160 117 264.5t290 104.5t273 -72q41 207 164 207q61 0 101 -47l-17 -123h-123l-71 -84
q84 -92 84 -241z" />
    <glyph glyph-name="h" unicode="h" horiz-adv-x="1218" 
d="M1192 0h-471v92l139 31v557q0 238 -213 238q-160 0 -278 -146v-670l159 -10v-92h-471v92l144 31v1270l-142 20v84q141 39 269 45l41 -10v-477q0 -27 -11 -166h21q141 162 319 162q147 0 238.5 -87t91.5 -255v-607l164 -10v-92z" />
    <glyph glyph-name="i" unicode="i" horiz-adv-x="600" 
d="M549 0h-471v92l143 31v756l-143 36v84q158 37 270 45l41 -8v-934l160 -10v-92zM397 1374q0 -50 -45 -114h-143l-25 208q121 33 178 7q35 -51 35 -101z" />
    <glyph glyph-name="j" unicode="j" horiz-adv-x="557" 
d="M373 -18q0 -158 -51 -248t-187 -170l-59 63l129 191v1061l-144 36v84q158 37 271 45l41 -8v-1054zM383 1374q0 -50 -45 -114h-143l-25 208q121 33 178 7q35 -51 35 -101z" />
    <glyph glyph-name="k" unicode="k" horiz-adv-x="1128" 
d="M975 -16q-66 0 -114 30.5t-97 106.5l-75 122q-75 122 -152 244h-168v-385l139 -10v-92h-451v92l144 31v1272l-142 20v84q131 35 269 43l41 -10v-942h149q92 104 275 332l-146 10v92h412v-92l-119 -29q-152 -166 -299 -305q160 -213 350 -492l117 -43l-8 -61
q-59 -18 -125 -18z" />
    <glyph glyph-name="l" unicode="l" horiz-adv-x="579" 
d="M528 0h-471v92l144 31v1272l-142 20v84q131 35 269 43l41 -10v-1430l159 -10v-92z" />
    <glyph glyph-name="m" unicode="m" horiz-adv-x="1873" 
d="M1847 0h-450v92l123 31v557q0 238 -211 238q-145 0 -271 -138v-678l129 -10v-92h-399v92l102 31v557q0 238 -208 238q-162 0 -273 -146v-670l150 -10v-92h-461v92l143 31v756l-143 36v84q158 37 270 45l41 -8l-10 -147h20q76 88 149 125t167 37q203 0 289 -168h20
q154 168 336 168q150 0 238 -87t90 -255v-607l159 -10v-92z" />
    <glyph glyph-name="n" unicode="n" horiz-adv-x="1243" 
d="M1217 0h-472v92l140 31v557q0 238 -217 238q-160 0 -279 -146v-670l160 -10v-92h-471v92l143 31v756l-143 36v84q158 37 270 45l41 -8l-10 -147h20q141 162 320 162q147 0 240.5 -88.5t93.5 -253.5v-607l164 -10v-92z" />
    <glyph glyph-name="o" unicode="o" horiz-adv-x="1138" 
d="M569.5 948q-290.5 0 -290.5 -436t290.5 -436t290.5 436t-290.5 436zM585 1051q226 0 346 -149.5t120 -383.5t-136.5 -389.5t-361.5 -155.5t-345 150.5t-120 384.5t135.5 388.5t361.5 154.5z" />
    <glyph glyph-name="p" unicode="p" horiz-adv-x="1177" 
d="M600 76q144 0 224 123t81 333q0 385 -278 386q-158 -1 -275 -146v-633q104 -63 248 -63zM686 1051q193 1 298 -139q106 -140 106 -376t-138 -400q-138 -163 -360 -163q-123 0 -240 50v-330l160 -10v-93h-471v93l143 30v1166l-143 36v84q158 37 270 45l41 -8l-10 -147h20
q131 162 324 162z" />
    <glyph glyph-name="q" unicode="q" horiz-adv-x="1177" 
d="M598 948q-158 0 -242 -124t-84 -335q0 -383 281 -383q155 1 272 146v602q-113 94 -227 94zM1137 -410h-492v93l180 30v256q0 27 11 166h-21q-131 -162 -323 -162q-192 1 -298 141t-106 374t135 399q135 164 375 164q135 0 254 -80q47 51 100 73l41 -14v-1337l144 -10v-93
z" />
    <glyph glyph-name="r" unicode="r" horiz-adv-x="792" 
d="M592 0h-514v92l143 31v756l-143 36v84q150 37 262 45l41 -8l-12 -217h20q133 231 252 232q80 0 115 -72l-19 -135h-213q-80 -55 -135 -160v-582l203 -10v-92z" />
    <glyph glyph-name="s" unicode="s" horiz-adv-x="911" 
d="M823 274q0 -154 -108.5 -227.5t-282.5 -73.5t-334 70q-10 47 -10 121t10 137h123l27 -190q74 -35 174 -35q225 0 225 160q0 68 -43 107.5t-137 78.5l-102 41q-119 49 -181.5 111.5t-62.5 190.5t97 207t253.5 79t302.5 -66q10 -47 10 -122t-10 -136h-112l-25 184
q-78 37 -167 37t-142.5 -42t-53.5 -111.5t35 -102t121 -67.5l111 -43q143 -55 212.5 -120t69.5 -188z" />
    <glyph glyph-name="t" unicode="t" horiz-adv-x="733" 
d="M464 -27q-274 0 -274 242v700l-143 11v82l146 32l104 254l61 -4v-266h306v-109h-306v-675q0 -80 32 -112t107 -32t181 43l24 -80q-110 -86 -238 -86z" />
    <glyph glyph-name="u" unicode="u" horiz-adv-x="1218" 
d="M500 -27q-147 0 -238.5 89.5t-91.5 256.5v560l-143 36v84q158 37 270 45l41 -8v-688q0 -242 213 -242q160 0 278 150v623l-143 36v84q158 37 270 45l41 -8v-886l144 -37v-84q-158 -37 -271 -45l-41 8l11 147h-21q-139 -166 -319 -166z" />
    <glyph glyph-name="v" unicode="v" horiz-adv-x="1157" 
d="M16 1024h426v-92l-104 -29q117 -342 266 -702h21q152 371 264 721l-158 10v92h410v-92l-125 -29q-76 -215 -357 -903l-112 -27h-21q-215 502 -376 949l-134 10v92z" />
    <glyph glyph-name="w" unicode="w" horiz-adv-x="1701" 
d="M16 1024h426v-92l-104 -31q55 -231 205 -700h20q184 539 264 823l119 27h23q127 -496 239 -850h21q150 483 205 721l-158 10v92h410v-92l-125 -29q-111 -379 -295 -903l-117 -27h-21q-139 418 -247 809h-19q-209 -633 -262 -782l-117 -27h-20q-197 535 -316 949l-131 10
v92z" />
    <glyph glyph-name="x" unicode="x" horiz-adv-x="1103" 
d="M1083 0h-440v92l102 29q-133 203 -215 311h-18q-135 -190 -223 -330l160 -10v-92h-429v92l125 29q100 133 322 389q-33 45 -133 178t-168 234l-129 10v92h438v-92l-110 -29q72 -106 210 -291h19q119 166 209 310l-146 10v92h410v-92l-121 -29q-82 -102 -311 -364
q217 -297 309 -437l139 -10v-92z" />
    <glyph glyph-name="y" unicode="y" horiz-adv-x="1157" 
d="M16 1024h426v-92l-104 -29q104 -313 266 -702h23q168 422 262 721l-158 10v92h410v-92l-125 -29q-143 -401 -402 -1018q-135 -322 -344 -321q-98 0 -143 61l16 107h265q82 129 124 254q-168 367 -382 936l-134 10v92z" />
    <glyph glyph-name="z" unicode="z" horiz-adv-x="933" 
d="M866 177q0 -79 -26 -177h-758l-14 86l438 633q31 47 139 196l-8 15l-395 -17l-27 -186h-113q-10 66 -10 158t10 139h727l15 -88l-436 -631q-31 -47 -140 -196l8 -15l422 15l52 202l112 -10q4 -45 4 -124z" />
    <glyph glyph-name="braceleft" unicode="{" horiz-adv-x="649" 
d="M403 770q0 -56 -42 -98t-152 -66v-20q111 -25 153 -66q42 -40 41 -106q0 -66 -16 -174t-45 -264q-29 -157 -35 -191l219 -57v-90q-51 -4 -96 -5q-262 0 -262 189q0 74 26 228q26 153 70 423l-162 70v106l162 70q-12 78 -31 182q-65 376 -65 434q0 186 262 187q45 0 96 -4
v-91l-219 -55q26 -142 61 -320t35 -282z" />
    <glyph glyph-name="bar" unicode="|" horiz-adv-x="544" 
d="M211 -246v1782h123v-1782h-123z" />
    <glyph glyph-name="braceright" unicode="}" horiz-adv-x="649" 
d="M225 786q0 123 97 586l-220 55v91q51 4 97 4q262 0 262 -187q-1 -53 -15 -137l-23 -138t-27 -158t-31 -183l161 -70v-106l-161 -70q12 -74 26 -165t42 -247t28 -239q0 -188 -262 -189q-45 0 -97 5v90l220 57q-6 35 -51 275t-45 330q-1 89 41 130t153 66v20
q-111 25 -153 67t-42 113z" />
    <glyph glyph-name="asciitilde" unicode="~" 
d="M383 774q84 0 285 -108l223 -121l178 164l55 -56q-37 -99 -103 -157q-74 -65 -138 -66q-64 0 -122 25t-213 108q-155 84 -179 96l-181 -163l-55 55q29 79 97 151t153 72z" />
    <glyph glyph-name="exclamdown" unicode="&#xa1;" horiz-adv-x="544" 
d="M213 610h115q4 -104 26 -461t23 -483q-82 -31 -178 -31l-35 31q0 163 22 502q22 338 27 442zM381 929q0 -52 -53 -112l-154 25l-4 196q37 12 97 12t87 -20q27 -49 27 -101z" />
    <glyph glyph-name="cent" unicode="&#xa2;" horiz-adv-x="1011" 
d="M283 616q0 -174 61 -278t168 -133q4 213 4 413t-4 416q-111 -32 -170 -138t-59 -280zM924 903q0 -68 -54 -110h-127l-30 245q-43 6 -97 9q-4 -223 -4 -423t6 -425q138 10 269 127l43 -66q-123 -158 -309 -184l6 -219l-103 -11l-20 13l6 215q-199 14 -305 162
q-107 148 -107 363q0 216 111 368t301 178l-6 217l100 10l21 -12l-7 -213q57 -2 109 -18q197 -58 197 -226z" />
    <glyph glyph-name="sterling" unicode="&#xa3;" horiz-adv-x="1181" 
d="M180 -27q-41 0 -80 25l-18 149l166 58q74 117 74 213q0 53 -21 147h-192v103h167q-18 92 -18 157q0 176 116 298t312 122q126 0 226 -55t100 -174q0 -76 -54 -119h-120l-33 233q-57 10 -111 11q-125 0 -188 -79t-64 -206q0 -74 27 -188h354v-103h-329q12 -57 12 -98
q0 -160 -189 -293l9 -18q78 10 240 10t370 -39l59 205h90q4 -70 5 -94q0 -148 -54 -206t-193 -58q-138 0 -332 58q-46 13 -101 28t-74 24q-59 -111 -156 -111z" />
    <glyph glyph-name="currency" unicode="&#xa4;" horiz-adv-x="1142" 
d="M578 346q184 0 184 248t-184 248q-94 0 -146 -65t-51 -183q-1 -118 51 -182q52 -66 146 -66zM568 244q-126 0 -214 57l-184 -184l-96 94l184 184q-53 84 -53 202t71 210l-202 203l96 94l211 -211q93 51 203 51t190 -41l201 201l94 -96l-195 -195q64 -86 64 -206t-55 -208
l186 -186l-94 -96l-187 186q-94 -59 -220 -59z" />
    <glyph glyph-name="yen" unicode="&#xa5;" horiz-adv-x="1245" 
d="M1081 696v-102h-313l-55 -90v-94h368v-103h-368v-201l174 -10v-96h-510v96l153 31v180h-368v103h368v96l-55 88h-313v102h250q-164 260 -246 418h-2l-113 10v97h481v-97l-161 -28q147 -293 268 -492h20q113 176 267 508l-148 10v97h416v-97l-135 -30q-76 -152 -225 -396
h247z" />
    <glyph glyph-name="brokenbar" unicode="&#xa6;" horiz-adv-x="544" 
d="M211 -246v594h123v-594h-123zM211 942v594h123v-594h-123z" />
    <glyph glyph-name="section" unicode="&#xa7;" horiz-adv-x="1003" 
d="M225 736q-1 -72 57 -136t226 -194t201 -160q69 61 69 137q0 75 -66 145t-224 186q-156 116 -193 154q-70 -61 -70 -132zM508 1286q-72 0 -117 -44t-45 -110t44 -116q44 -52 116 -106q342 -261 382 -322q58 -89 58 -168q0 -154 -178 -242q43 -63 43 -145q0 -135 -93 -221
q-94 -86 -236 -86t-224 59t-82 152q0 66 49 104h113l29 -201q57 -12 129 -12t116 44q45 44 45 110t-44 115q-44 50 -179 156t-218 173t-107 107q-50 82 -51 159q-1 76 39 135t139 109q-43 68 -43 149q0 131 93 217q94 86 236 87t224 -59t81 -139q0 -79 -49 -118h-112
l-29 201q-57 12 -129 12z" />
    <glyph glyph-name="dieresis" unicode="&#xa8;" horiz-adv-x="739" 
d="M573.5 1462q53.5 0 71.5 -8q33 -53 33 -96t-39 -103h-133l-25 191q39 16 92.5 16zM153.5 1462q53.5 0 71.5 -8q33 -53 33 -96t-39 -103h-133l-25 191q39 16 92.5 16z" />
    <glyph glyph-name="copyright" unicode="&#xa9;" horiz-adv-x="1642" 
d="M858 999q-94 1 -147 -81t-53 -234t56 -230q58 -78 164 -79q106 0 218 100l39 -65q-111 -146 -293 -146t-278 117q-95 117 -95 297t109 300t274 120q104 0 186 -48t82 -145q0 -66 -41 -98h-118l-27 182q-39 10 -76 10zM821 70q254 0 412 168t158 445t-158 443t-412 166
q-253 0 -411 -166t-158 -442t158 -445t411 -169zM119 682q0 318 202 512t511 195t500 -191q192 -192 192 -511t-203 -517t-511 -197q-308 0 -500 195q-191 196 -191 514z" />
    <glyph glyph-name="ordfeminine" unicode="&#xaa;" horiz-adv-x="739" 
d="M215 623q0 -86 88 -86t164 92v123l-29 -2q-121 -6 -172 -34t-51 -93zM552 438q-80 0 -79 76v21h-12q-29 -33 -51 -53q-63 -52 -150 -52q-140 0 -181 106q-13 34 -13 74q0 205 327 205q41 0 76 -4v111q2 158 -141 157q-31 0 -80 -10l-21 -149h-86q-41 33 -41 77
q0 68 76 117t179 49t176 -62t71 -181l-6 -375l106 -6v-64q-70 -37 -150 -37z" />
    <glyph glyph-name="guillemotleft" unicode="&#xab;" horiz-adv-x="1067" 
d="M721 567l180 -325l-82 -58l-307 369v29l305 368l82 -57zM328 567l180 -325l-82 -58l-307 369v29l305 368l82 -57z" />
    <glyph glyph-name="logicalnot" unicode="&#xac;" 
d="M879 199v340h-740v123h875v-463h-135z" />
    <glyph glyph-name="softhyphen" unicode="&#xad;" horiz-adv-x="765" 
d="M119 539v123h528v-123h-528z" />
    <glyph glyph-name="registered" unicode="&#xae;" horiz-adv-x="1216" 
d="M557 993h82q47 33 47 103q0 100 -92 100h-37v-203zM788 711q-46 0 -77 45q-84 140 -109 180h-45v-164l70 -6v-49h-244v49l61 12v416l-61 4v51q81 6 195 6q226 0 227 -155q0 -113 -113 -142l-2 -10q23 -23 133 -170l41 -16l-4 -43q-26 -8 -72 -8zM608 551q176 0 291 118
t115 308t-114 307t-292 117t-292 -117t-114 -307t116 -308q114 -118 290 -118zM615 1477q221 1 361 -137t140 -362t-147 -364t-367 -139q-220 0 -361 138q-141 139 -141 363t148 362t367 139z" />
    <glyph glyph-name="macron" unicode="&#xaf;" horiz-adv-x="667" 
d="M606 1337q0 -37 -8 -67h-528q-8 31 -8 67.5t8 67.5h528q8 -31 8 -68z" />
    <glyph glyph-name="degree" unicode="&#xb0;" horiz-adv-x="694" 
d="M346 1393q-68 1 -115 -49t-47 -126t47 -123q47 -48 115 -48t114 48t46 125t-46 125t-114 48zM354 1501q117 0 196 -82q79 -83 79 -199t-87 -199t-204 -83t-195 81q-77 81 -77 197t86 201q86 84 202 84z" />
    <glyph glyph-name="plusminus" unicode="&#xb1;" 
d="M1065 123v-123h-872v123h872zM1065 641h-369v-324h-135v324h-368v123h368v323h135v-323h369v-123z" />
    <glyph glyph-name="twosuperior" unicode="&#xb2;" horiz-adv-x="598" 
d="M545 864q0 -51 -6 -78h-494l-8 76q225 181 271 252q73 106 73 193q0 123 -115 123q-33 0 -63 -13l-19 -139h-96q-39 27 -39 82t67 98q66 43 170 43t168 -56t64 -145q0 -90 -89 -186t-282 -242l7 -14q59 8 137 14l151 13l11 69h82q10 -39 10 -90z" />
    <glyph glyph-name="threesuperior" unicode="&#xb3;" horiz-adv-x="645" 
d="M302 1501q102 0 165 -53t63 -135q0 -106 -120 -150v-18q143 -39 143 -156q0 -95 -80 -157q-79 -62 -187 -62t-170 37t-62 93t36 85h94l21 -135q37 -8 63 -8q152 0 152 141q0 135 -152 135h-59v68h121q68 41 67 131q0 113 -116 113q-31 0 -72 -13l-16 -129h-87
q-40 27 -40 80t67 93t169 40z" />
    <glyph glyph-name="acute" unicode="&#xb4;" horiz-adv-x="505" 
d="M266 1571h53q80 -33 125 -109l-276 -288h-107z" />
    <glyph glyph-name="uni00B5" unicode="&#xb5;" horiz-adv-x="1232" 
d="M524 -27q-123 0 -196 95l-19 -9l29 -479q-55 -16 -150 -16l-34 33l30 514v903q74 20 127 30l41 -6v-690q0 -242 213 -242q160 0 279 150v758q74 20 127 30l41 -6v-888l143 -37v-84q-158 -37 -270 -45l-41 8l10 147h-20q-137 -166 -310 -166z" />
    <glyph glyph-name="paragraph" unicode="&#xb6;" horiz-adv-x="1189" 
d="M936 229q0 -399 -383 -399q-185 0 -303 107l43 73q125 -70 261 -70t198 63q61 62 61 216v1143h297v-94l-174 -33v-1006zM649 471h-98q-236 -2 -365 111q-129 114 -129 328t126 332t366 120h100v-891z" />
    <glyph glyph-name="periodcentered" unicode="&#xb7;" horiz-adv-x="505" 
d="M248 721q60 0 80 -6q45 -61 45 -117t-37 -113h-166l-37 205q55 31 115 31z" />
    <glyph glyph-name="cedilla" unicode="&#xb8;" horiz-adv-x="538" 
d="M301 -137q176 -5 176 -139q0 -66 -60.5 -113t-170 -47t-185.5 55l19 74q86 -29 133 -29q115 0 115 78q0 31 -28 44t-118 30l31 196h88v-149z" />
    <glyph glyph-name="onesuperior" unicode="&#xb9;" horiz-adv-x="509" 
d="M473 786h-401v68l141 18v476q-45 -14 -145 -15v72q137 4 202 94h64v-637l139 -8v-68z" />
    <glyph glyph-name="ordmasculine" unicode="&#xba;" horiz-adv-x="784" 
d="M392 1075q-179 1 -179 -279t179 -280t179 280t-179 279zM403 1163q152 0 234 -104t82 -262t-94 -262q-94 -105 -245 -105t-233 102q-81 102 -81 260t92 264t245 107z" />
    <glyph glyph-name="guillemotright" unicode="&#xbb;" horiz-adv-x="1069" 
d="M950 553l-307 -369l-82 58l180 325l-178 326l82 57l305 -368v-29zM555 553l-307 -369l-82 58l180 325l-178 326l82 57l305 -368v-29z" />
    <glyph glyph-name="onequarter" unicode="&#xbc;" horiz-adv-x="1665" 
d="M1477 145v-145h-140v145h-368l-8 60q143 324 264 655l133 -49l6 -20q-168 -340 -295 -543l6 -17q94 16 170 17h92v260l93 18l47 -4v-274h141v-103h-141zM78 1186v86q168 10 244 117l75 -5v-763l168 -9v-82h-483v82l170 23v569q-61 -18 -174 -18zM1335 1362l8 -25
q-309 -469 -405 -627t-230 -392t-219 -367l-98 49l-8 25q307 467 409 633t233 396q132 230 212 357z" />
    <glyph glyph-name="onehalf" unicode="&#xbd;" horiz-adv-x="1810" 
d="M1751 96q0 -52 -8 -96h-592l-10 90q250 200 331 317t81 204q-2 161 -136 161q-35 0 -78 -14l-22 -168h-115q-47 32 -47 98t81 118t204 52q122 0 200 -68t78 -176q0 -106 -106 -220t-338 -290l6 -18q96 14 166 18l182 13l12 84h99q12 -53 12 -105zM78 1186v86
q168 10 244 117l75 -5v-763l168 -9v-82h-483v82l170 23v569q-61 -18 -174 -18zM1335 1362l8 -25q-309 -469 -405 -627t-230 -392t-219 -367l-98 49l-8 25q307 467 409 633t233 396q132 230 212 357z" />
    <glyph glyph-name="threequarters" unicode="&#xbe;" horiz-adv-x="1738" 
d="M1550 145v-145h-139v145h-369l-8 60q143 324 264 655l134 -49l6 -20q-168 -340 -295 -543l6 -17q94 16 170 17h92v260l92 18l47 -4v-274h142v-103h-142zM659 774q0 -114 -96 -188q-95 -74 -225 -74t-204 44t-75 112q0 68 45 102h113l25 -164q41 -8 77 -8q180 0 181 168
q0 164 -183 164h-71v80h145q82 51 82 157q0 135 -137 136q-43 0 -90 -15l-19 -155h-104q-49 35 -49 86q0 73 81 121t203 48t199 -62q76 -64 76 -163q-1 -127 -146 -182v-20q172 -47 172 -187zM1409 1362l8 -25q-309 -469 -405 -627t-230 -392q-135 -234 -219 -367l-98 49
l-8 25q307 467 409 633t233 396q132 230 212 357z" />
    <glyph glyph-name="questiondown" unicode="&#xbf;" horiz-adv-x="724" 
d="M408 653h110q53 -145 53 -217q1 -72 -23 -102q-24 -31 -89 -62q-174 -84 -221 -118t-48 -97q0 -113 118 -171t315 -58v-164q-66 -10 -115 -10q-219 0 -323 127q-103 127 -103 303q0 127 66 195q67 68 260 153v221zM584 929q0 -52 -54 -112l-153 25l-4 196q37 12 97 12
t87 -20q27 -49 27 -101z" />
    <glyph glyph-name="Agrave" unicode="&#xc0;" horiz-adv-x="1384" 
d="M418 510h483q-143 434 -235 672h-21q-90 -246 -227 -672zM1358 0h-481v96l149 29q-41 131 -90 278h-551q-51 -164 -92 -297l149 -10v-96h-415v96l129 29q250 768 434 1237l145 27h21q166 -403 471 -1283l131 -10v-96zM633 1481l-291 241q45 72 123 107h53l227 -348h-112z
" />
    <glyph glyph-name="Aacute" unicode="&#xc1;" horiz-adv-x="1384" 
d="M418 510h483q-143 434 -235 672h-21q-90 -246 -227 -672zM1358 0h-481v96l149 29q-41 131 -90 278h-551q-51 -164 -92 -297l149 -10v-96h-415v96l129 29q250 768 434 1237l145 27h21q166 -403 471 -1283l131 -10v-96zM569 1481l228 348h53q82 -35 123 -107l-291 -241
h-113z" />
    <glyph glyph-name="Acircumflex" unicode="&#xc2;" horiz-adv-x="1384" 
d="M418 510h483q-143 434 -235 672h-21q-90 -246 -227 -672zM1358 0h-481v96l149 29q-41 131 -90 278h-551q-51 -164 -92 -297l149 -10v-96h-415v96l129 29q250 768 434 1237l145 27h21q166 -403 471 -1283l131 -10v-96zM324 1481l292 329h103l244 -270l-121 -82l-201 168
h-20l-177 -145h-120z" />
    <glyph glyph-name="Atilde" unicode="&#xc3;" horiz-adv-x="1384" 
d="M418 510h483q-143 434 -235 672h-21q-90 -246 -227 -672zM1358 0h-481v96l149 29q-41 131 -90 278h-551q-51 -164 -92 -297l149 -10v-96h-415v96l129 29q250 768 434 1237l145 27h21q166 -403 471 -1283l131 -10v-96zM540 1759q48 0 101 -26l172 -84l109 106l55 -55
q-57 -109 -100 -144q-79 -64 -193 -8l-172 84l-109 -106l-55 55q56 109 100 143t92 35z" />
    <glyph glyph-name="Adieresis" unicode="&#xc4;" horiz-adv-x="1384" 
d="M418 510h483q-143 434 -235 672h-21q-90 -246 -227 -672zM1358 0h-481v96l149 29q-41 131 -90 278h-551q-51 -164 -92 -297l149 -10v-96h-415v96l129 29q250 768 434 1237l145 27h21q166 -403 471 -1283l131 -10v-96zM898 1745q52 0 77 -8q33 -41 33 -95t-37 -108h-137
l-27 195q39 16 91 16zM408 1745q52 0 77 -8q33 -41 33 -95t-37 -108h-137l-27 195q39 16 91 16z" />
    <glyph glyph-name="Aring" unicode="&#xc5;" horiz-adv-x="1384" 
d="M418 510h483q-143 434 -235 672h-21q-90 -246 -227 -672zM1358 0h-481v96l149 29q-41 131 -90 278h-551q-51 -164 -92 -297l149 -10v-96h-415v96l129 29q250 768 434 1237l145 27h21q166 -403 471 -1283l131 -10v-96zM664 1554q84 0 84 94t-85 95q-85 0 -85 -94
q0 -45 22 -70t64 -25zM654 1468q-103 0 -158 46q-56 46 -56 132t65 134t167 49q102 0 156 -46t54 -132q0 -87 -62 -135q-63 -48 -166 -48z" />
    <glyph glyph-name="AE" unicode="&#xc6;" horiz-adv-x="1859" 
d="M928 1255h-45q-147 -260 -389 -745h434v745zM1769 187.5q0 -58.5 -26 -187.5h-979v96l164 31v276h-486q-86 -172 -143 -297l143 -10v-96h-415v96l133 29q262 541 596 1135l-135 6v96h1122q10 -47 10 -133t-10 -164h-119l-25 174l-489 16v-497h264l23 127h92v-379h-92
l-27 143h-260v-545l487 17l50 190l118 -12q4 -53 4 -111.5z" />
    <glyph glyph-name="Ccedilla" unicode="&#xc7;" horiz-adv-x="1320" 
d="M967 -276q-1 -66 -61 -113t-170 -47t-185 55l18 74q86 -29 135 -29t81 20t32 54q0 35 -27 48q-28 13 -118 30l24 159q-186 15 -319 115q-258 193 -258 586q0 315 181 514t499 199q180 0 366 -80q21 -98 -2 -305h-121l-32 233q-90 37 -199 37q-242 0 -368 -150t-126 -434
q-1 -284 133 -434t343 -150t381 140l45 -70q-158 -193 -428 -203v-110q176 -5 176 -139z" />
    <glyph glyph-name="Egrave" unicode="&#xc8;" horiz-adv-x="1212" 
d="M1122 196q0 -76 -26 -196h-998v96l164 31v1128l-166 11v96h1002q10 -47 10 -133t-10 -164h-119l-25 174l-510 18v-499h285l23 127h92v-379h-92l-25 143h-283v-545l508 19l49 188l119 -12q2 -27 2 -103zM580 1481l-291 241q45 72 123 107h53l227 -348h-112z" />
    <glyph glyph-name="Eacute" unicode="&#xc9;" horiz-adv-x="1212" 
d="M1122 196q0 -76 -26 -196h-998v96l164 31v1128l-166 11v96h1002q10 -47 10 -133t-10 -164h-119l-25 174l-510 18v-499h285l23 127h92v-379h-92l-25 143h-283v-545l508 19l49 188l119 -12q2 -27 2 -103zM516 1481l227 348h54q82 -35 123 -107l-291 -241h-113z" />
    <glyph glyph-name="Ecircumflex" unicode="&#xca;" horiz-adv-x="1212" 
d="M1122 196q0 -76 -26 -196h-998v96l164 31v1128l-166 11v96h1002q10 -47 10 -133t-10 -164h-119l-25 174l-510 18v-499h285l23 127h92v-379h-92l-25 143h-283v-545l508 19l49 188l119 -12q2 -27 2 -103zM270 1481l293 329h103l243 -270l-121 -82l-200 168h-21l-176 -145
h-121z" />
    <glyph glyph-name="Edieresis" unicode="&#xcb;" horiz-adv-x="1212" 
d="M1122 196q0 -76 -26 -196h-998v96l164 31v1128l-166 11v96h1002q10 -47 10 -133t-10 -164h-119l-25 174l-510 18v-499h285l23 127h92v-379h-92l-25 143h-283v-545l508 19l49 188l119 -12q2 -27 2 -103zM845 1745q52 0 77 -8q71 -88 -4 -203h-138l-26 195q39 16 91 16z
M356 1745q52 0 76 -8q33 -41 33 -95t-37 -108h-137l-27 195q40 16 92 16z" />
    <glyph glyph-name="Igrave" unicode="&#xcc;" horiz-adv-x="708" 
d="M610 0h-510v96l164 31v1128l-166 11v96h512v-96l-164 -31v-1129l164 -10v-96zM324 1481l-291 241q45 72 123 107h53l227 -348h-112z" />
    <glyph glyph-name="Iacute" unicode="&#xcd;" horiz-adv-x="708" 
d="M610 1362v-96l-164 -31v-1129l164 -10v-96h-510v96l164 31v1128l-166 11v96h512zM260 1481l227 348h54q82 -35 123 -107l-291 -241h-113z" />
    <glyph glyph-name="Icircumflex" unicode="&#xce;" horiz-adv-x="708" 
d="M610 1362v-96l-164 -31v-1129l164 -10v-96h-510v96l164 31v1128l-166 11v96h512zM14 1481l293 329h103l243 -270l-121 -82l-200 168h-21l-176 -145h-121z" />
    <glyph glyph-name="Idieresis" unicode="&#xcf;" horiz-adv-x="708" 
d="M610 1362v-96l-164 -31v-1129l164 -10v-96h-510v96l164 31v1128l-166 11v96h512zM536 1745q52 0 76 -8q33 -41 33 -95t-37 -108h-137l-27 195q40 16 92 16zM150 1745q52 0 77 -8q33 -41 33 -95t-37 -108h-137l-27 195q39 16 91 16z" />
    <glyph glyph-name="Eth" unicode="&#xd0;" horiz-adv-x="1431" 
d="M444 109h170q260 -1 380 149t120 447q0 559 -483 559h-187v-504h285v-111h-285v-540zM580 1372q379 0 556 -180t177 -496t-172 -506t-529 -190h-514v96l164 31v522h-162v111h162v495l-166 11v96q260 10 484 10z" />
    <glyph glyph-name="Ntilde" unicode="&#xd1;" horiz-adv-x="1562" 
d="M590 0h-492v96l164 31v1126l-166 13v96h424l467 -772q98 -162 180 -320h21l-17 985l-192 11v96h494v-96l-164 -31v-1235l-135 -27h-25l-586 967q-72 117 -155 289h-21l12 -1123l191 -10v-96zM656 1759q48 0 102 -26l172 -84l108 106l56 -55q-56 -109 -100 -144
q-79 -64 -193 -8l-172 84l-109 -106l-55 55q57 109 100 143t91 35z" />
    <glyph glyph-name="Ograve" unicode="&#xd2;" horiz-adv-x="1523" 
d="M762 1274q-203 0 -322 -153q-118 -153 -118 -439t120 -440t320 -154t320 155t120 441t-118 438t-322 152zM778 1389q301 0 464 -196t163 -504t-180 -512q-181 -204 -479 -204t-462 199t-165 507q0 308 179 509t480 201zM731 1481l-291 241q45 72 123 107h53l228 -348
h-113z" />
    <glyph glyph-name="Oacute" unicode="&#xd3;" horiz-adv-x="1523" 
d="M762 1274q-203 0 -322 -153q-118 -153 -118 -439t120 -440t320 -154t320 155t120 441t-118 438t-322 152zM778 1389q301 0 464 -196t163 -504t-180 -512q-181 -204 -479 -204t-462 199t-165 507q0 308 179 509t480 201zM895 1829h53q82 -35 123 -107l-291 -241h-112z" />
    <glyph glyph-name="Ocircumflex" unicode="&#xd4;" horiz-adv-x="1523" 
d="M762 1274q-203 0 -322 -153q-118 -153 -118 -439t120 -440t320 -154t320 155t120 441t-118 438t-322 152zM778 1389q301 0 464 -196t163 -504t-180 -512q-181 -204 -479 -204t-462 199t-165 507q0 308 179 509t480 201zM940 1458l-201 168h-20l-176 -145h-121l293 329
h102l244 -270z" />
    <glyph glyph-name="Otilde" unicode="&#xd5;" horiz-adv-x="1523" 
d="M762 88q200 0 320 155t120 441t-119 438t-321 152t-322 -153q-118 -153 -118 -439t120 -440t320 -154zM778 1389q301 0 464 -196t163 -504t-180 -512q-181 -204 -479 -204t-462 199t-165 507q0 308 179 509t480 201zM638 1759q48 0 101 -26l172 -84l109 106l55 -55
q-57 -109 -100 -144q-78 -63 -193 -8l-172 84l-108 -106l-56 55q56 109 100 143t92 35z" />
    <glyph glyph-name="Odieresis" unicode="&#xd6;" horiz-adv-x="1523" 
d="M762 1274q-203 0 -322 -153q-118 -153 -118 -439t120 -440t320 -154t320 155t120 441t-118 438t-322 152zM778 1389q301 0 464 -196t163 -504t-180 -512q-181 -204 -479 -204t-462 199t-165 507q0 308 179 509t480 201zM996 1745q52 0 77 -8q33 -41 33 -95t-37 -108h-137
l-27 195q39 16 91 16zM507 1745q52 0 77 -8q71 -88 -4 -203h-138l-26 195q39 16 91 16z" />
    <glyph glyph-name="multiply" unicode="&#xd7;" 
d="M719 600l332 -332l-88 -88l-332 332l-332 -332l-88 88l332 332l-332 332l88 88l332 -332l332 332l88 -88z" />
    <glyph glyph-name="Oslash" unicode="&#xd8;" horiz-adv-x="1523" 
d="M750 88q215 0 333.5 154.5t118.5 457.5q0 244 -80 385l-630 -915q100 -82 258 -82zM774 1274q-215 0 -333.5 -151.5t-118.5 -433.5t88 -425l634 920q-102 90 -270 90zM1405 702.5q0 -321.5 -180.5 -525.5t-479.5 -204q-193 0 -337 90l-146 -210l-92 38l-10 23l153 225
q-94 94 -144 232.5t-50 300.5q0 315 179 516t482 201q205 0 350 -99l152 219l92 -39l10 -22l-159 -236q180 -188 180 -509.5z" />
    <glyph glyph-name="Ugrave" unicode="&#xd9;" horiz-adv-x="1507" 
d="M1264 457q0 -219 -130 -351t-374 -133t-380 135t-136 363v784l-166 11v96h518v-96l-170 -31v-762q0 -385 350 -385t350 385v782l-192 11v96h493v-96l-163 -31v-778zM733 1481l-291 241q45 72 123 107h53l228 -348h-113z" />
    <glyph glyph-name="Uacute" unicode="&#xda;" horiz-adv-x="1507" 
d="M1264 457q0 -219 -130 -351t-374 -133t-380 135t-136 363v784l-166 11v96h518v-96l-170 -31v-762q0 -385 350 -385t350 385v782l-192 11v96h493v-96l-163 -31v-778zM670 1481l227 348h53q82 -35 123 -107l-291 -241h-112z" />
    <glyph glyph-name="Ucircumflex" unicode="&#xdb;" horiz-adv-x="1507" 
d="M1264 457q0 -219 -130 -351t-374 -133t-380 135t-136 363v784l-166 11v96h518v-96l-170 -31v-762q0 -385 350 -385t350 385v782l-192 11v96h493v-96l-163 -31v-778zM424 1481l293 329h102l244 -270l-121 -82l-201 168h-20l-176 -145h-121z" />
    <glyph glyph-name="Udieresis" unicode="&#xdc;" horiz-adv-x="1507" 
d="M1264 457q0 -219 -130 -351t-374 -133t-380 135t-136 363v784l-166 11v96h518v-96l-170 -31v-762q0 -385 350 -385t350 385v782l-192 11v96h493v-96l-163 -31v-778zM998 1745q52 0 77 -8q33 -41 33 -95t-37 -108h-137l-27 195q39 16 91 16zM509 1745q52 0 77 -8
q71 -88 -4 -203h-138l-26 195q39 16 91 16z" />
    <glyph glyph-name="Yacute" unicode="&#xdd;" horiz-adv-x="1304" 
d="M940 0h-551v96l184 31v356q-205 348 -423 772l-123 11v96h501v-96l-174 -29q186 -373 328 -606h20q147 236 326 624l-190 11v96h440v-96l-117 -31q-166 -342 -405 -748v-381l184 -10v-96zM559 1481l227 348h54q82 -35 123 -107l-291 -241h-113z" />
    <glyph glyph-name="Thorn" unicode="&#xde;" horiz-adv-x="1159" 
d="M444 1147h131q263 0 395 -109q132 -108 132 -306t-120 -322t-318 -123l-136 6v96h80q295 0 295 338q-1 149 -69 229t-234 80h-156v-930l164 -10v-96h-510v96l164 31v1128l-166 11v96h328l20 -29v-186z" />
    <glyph glyph-name="germandbls" unicode="&#xdf;" horiz-adv-x="1228" 
d="M221 1063q0 221 132 350t339 129q166 0 257 -83t91 -230q0 -78 -30 -144q-30 -67 -64 -103q-35 -36 -80 -69t-67 -59q-21 -26 -21 -67q0 -42 18 -62q18 -19 28 -31q11 -12 38 -29t45 -29q19 -12 59 -34q81 -46 134 -101q76 -78 77 -216q1 -137 -105 -225t-265 -87
q-113 0 -193 46t-79 145q0 72 47 110h100l27 -188q55 -12 125 -12t117 50q46 50 46 124t-28 119q-29 45 -129 115t-142 120q-43 48 -43 118t22 108t75 100q106 121 106 265q0 143 -55 195t-145 52t-143 -28q-126 -65 -126 -347v-1065h-311v92l143 31v792l-143 11v82l143 32
v23z" />
    <glyph glyph-name="agrave" unicode="&#xe0;" horiz-adv-x="1056" 
d="M659 449q-207 -1 -297 -49t-90 -158q0 -146 150 -146t272 158l4 195h-39zM840 -16q-135 0 -133 127v28h-21q-70 -80 -142 -123t-192 -43q-118 0 -191 71t-73 185q0 165 165 244q114 57 312 57q74 0 133 -8l2 197q4 229 -231 229q-61 0 -115 -12l-32 -234h-123
q-57 43 -58 107q0 104 120 173q121 69 267 69t244 -85t96 -237l-6 -610l146 -10v-80q-86 -45 -168 -45zM502 1174l-285 288q49 78 133 109h53l205 -397h-106z" />
    <glyph glyph-name="aacute" unicode="&#xe1;" horiz-adv-x="1056" 
d="M659 449q-207 -1 -297 -49t-90 -158q0 -146 150 -146t272 158l4 195h-39zM840 -16q-135 0 -133 127v28h-21q-70 -80 -142 -123t-192 -43q-118 0 -191 71t-73 185q0 165 165 244q114 57 312 57q74 0 133 -8l2 197q4 229 -231 229q-61 0 -115 -12l-32 -234h-123
q-57 43 -58 107q0 104 120 173q121 69 267 69t244 -85t96 -237l-6 -610l146 -10v-80q-86 -45 -168 -45zM455 1174l204 397h54q80 -33 125 -109l-277 -288h-106z" />
    <glyph glyph-name="acircumflex" unicode="&#xe2;" horiz-adv-x="1056" 
d="M659 449q-207 -1 -297 -49t-90 -158q0 -146 150 -146t272 158l4 195h-39zM840 -16q-135 0 -133 127v28h-21q-70 -80 -142 -123t-192 -43q-118 0 -191 71t-73 185q0 165 165 244q114 57 312 57q74 0 133 -8l2 197q4 229 -231 229q-61 0 -115 -12l-32 -234h-123
q-57 43 -58 107q0 104 120 173q121 69 267 69t244 -85t96 -237l-6 -610l146 -10v-80q-86 -45 -168 -45zM209 1174l262 389h102l226 -330l-121 -72l-182 217h-21l-158 -204h-108z" />
    <glyph glyph-name="atilde" unicode="&#xe3;" horiz-adv-x="1056" 
d="M659 449q-207 -1 -297 -49t-90 -158q0 -146 150 -146t272 158l4 195h-39zM840 -16q-135 0 -133 127v28h-21q-70 -80 -142 -123t-192 -43q-118 0 -191 71t-73 185q0 165 165 244q114 57 312 57q74 0 133 -8l2 197q4 229 -231 229q-61 0 -115 -12l-32 -234h-123
q-57 43 -58 107q0 104 120 173q121 69 267 69t244 -85t96 -237l-6 -610l146 -10v-80q-86 -45 -168 -45zM624 1235q-36 0 -92 29l-149 77l-111 -106l-55 55q64 131 133 170q69 38 160 -10l149 -78l111 107l55 -56q-91 -188 -201 -188z" />
    <glyph glyph-name="adieresis" unicode="&#xe4;" horiz-adv-x="1056" 
d="M659 449q-207 -1 -297 -49t-90 -158q0 -146 150 -146t272 158l4 195h-39zM840 -16q-135 0 -133 127v28h-21q-70 -80 -142 -123t-192 -43q-118 0 -191 71t-73 185q0 165 165 244q114 57 312 57q74 0 133 -8l2 197q4 229 -231 229q-61 0 -115 -12l-32 -234h-123
q-57 43 -58 107q0 104 120 173q121 69 267 69t244 -85t96 -237l-6 -610l146 -10v-80q-86 -45 -168 -45zM723 1462q53 0 72 -8q33 -53 33 -96t-40 -103h-133l-24 191q39 16 92 16zM303 1462q53 0 72 -8q33 -53 33 -96t-39 -103h-133l-25 191q39 16 92 16z" />
    <glyph glyph-name="aring" unicode="&#xe5;" horiz-adv-x="1056" 
d="M659 449q-207 -1 -297 -49t-90 -158q0 -146 150 -146t272 158l4 195h-39zM840 -16q-135 0 -133 127v28h-21q-70 -80 -142 -123t-192 -43q-118 0 -191 71t-73 185q0 165 165 244q114 57 312 57q74 0 133 -8l2 197q4 229 -231 229q-61 0 -115 -12l-32 -234h-123
q-57 43 -58 107q0 104 120 173q121 69 267 69t244 -85t96 -237l-6 -610l146 -10v-80q-86 -45 -168 -45zM521 1491q-85 -1 -85 -105t85 -104t85 104t-85 105zM513 1196q-101 0 -158 47q-56 47 -56 140t66 143q65 50 165 51q100 0 156 -48t55 -140q0 -92 -63 -143
q-64 -50 -165 -50z" />
    <glyph glyph-name="ae" unicode="&#xe6;" horiz-adv-x="1587" 
d="M270 244q0 -148 156 -148t289 189q-23 86 -25 198q-229 -23 -324.5 -77t-95.5 -162zM848 586l471 41q-4 322 -197 321q-109 0 -185.5 -94t-88.5 -268zM362 -27q-135 0 -204.5 71t-69.5 185q0 177 161 253q157 74 443 83l4 133q4 125 -63.5 187.5t-173.5 62.5
q-53 0 -105 -14l-32 -232h-123q-57 39 -58 107q0 102 115 172t260 70q227 0 279 -181h20q92 180 324 181q172 0 260 -103.5t88 -269.5q0 -72 -17 -154l-624 -20q4 -197 88 -301.5t228.5 -104.5t287.5 129l43 -65q-145 -188 -396 -188.5t-349 212.5h-21q-145 -213 -365 -213z
" />
    <glyph glyph-name="ccedilla" unicode="&#xe7;" horiz-adv-x="1005" 
d="M586 -137q176 -5 176 -139q0 -66 -60 -113t-170 -47t-186 55l19 74q86 -29 135 -29t81 20q31 20 31 54q0 35 -27 48q-28 13 -118 30l25 159q-195 15 -299 163q-105 148 -105 376t134 382t345 155q127 -1 225 -57t97 -173q0 -76 -53 -119h-131l-33 236q-41 10 -99 10
q-133 0 -217 -112t-84 -317t83 -313t230 -108t292 129l43 -65q-126 -165 -334 -187v-112z" />
    <glyph glyph-name="egrave" unicode="&#xe8;" horiz-adv-x="1034" 
d="M557 948q-111 0 -187 -87t-94 -249l484 19q0 317 -203 317zM88 510q0 234 135 388t355 153q176 -1 266 -103t90 -270q0 -72 -16 -154h-646q0 -206 86 -316t239 -110t300 129l43 -65q-148 -188 -382 -188t-352 150q-118 152 -118 386zM528 1174l-284 288q49 78 133 109h53
l205 -397h-107z" />
    <glyph glyph-name="eacute" unicode="&#xe9;" horiz-adv-x="1034" 
d="M557 948q-111 0 -187 -87t-94 -249l484 19q0 317 -203 317zM88 510q0 234 135 388t355 153q176 -1 266 -103t90 -270q0 -72 -16 -154h-646q0 -206 86 -316t239 -110t300 129l43 -65q-148 -188 -382 -188t-352 150q-118 152 -118 386zM481 1174l205 397h53
q80 -33 125 -109l-276 -288h-107z" />
    <glyph glyph-name="ecircumflex" unicode="&#xea;" horiz-adv-x="1034" 
d="M557 948q-111 0 -187 -87t-94 -249l484 19q0 317 -203 317zM88 510q0 234 135 388t355 153q176 -1 266 -103t90 -270q0 -72 -16 -154h-646q0 -206 86 -316t239 -110t300 129l43 -65q-148 -188 -382 -188t-352 150q-118 152 -118 386zM236 1174l262 389h102l225 -330
l-120 -72l-183 217h-20l-158 -204h-108z" />
    <glyph glyph-name="edieresis" unicode="&#xeb;" horiz-adv-x="1034" 
d="M557 948q-111 0 -187 -87t-94 -249l484 19q0 317 -203 317zM88 510q0 234 135 388t355 153q176 -1 266 -103t90 -270q0 -72 -16 -154h-646q0 -206 86 -316t239 -110t300 129l43 -65q-148 -188 -382 -188t-352 150q-118 152 -118 386zM750 1462q54 0 71 -8q33 -53 33 -96
t-39 -103h-133l-25 191q39 16 93 16zM330 1462q53 0 71 -8q33 -53 33 -96t-39 -103h-133l-24 191q39 16 92 16z" />
    <glyph glyph-name="igrave" unicode="&#xec;" horiz-adv-x="600" 
d="M549 0h-471v92l143 31v756l-143 36v84q158 37 270 45l41 -8v-934l160 -10v-92zM256 1174l-258 288q49 78 133 109h53l178 -397h-106z" />
    <glyph glyph-name="iacute" unicode="&#xed;" horiz-adv-x="600" 
d="M549 0h-471v92l143 31v756l-143 36v84q158 37 270 45l41 -8v-934l160 -10v-92zM215 1174l170 397h53q80 -33 125 -109l-241 -288h-107z" />
    <glyph glyph-name="icircumflex" unicode="&#xee;" horiz-adv-x="600" 
d="M549 0h-471v92l143 31v756l-143 36v84q158 37 270 45l41 -8v-934l160 -10v-92zM14 1194l222 369h102l184 -310l-121 -71l-141 196h-20l-117 -184h-109z" />
    <glyph glyph-name="idieresis" unicode="&#xef;" horiz-adv-x="600" 
d="M549 0h-471v92l143 31v756l-143 36v84q158 37 270 45l41 -8v-934l160 -10v-92zM461 1462q53 0 71 -8q33 -53 33 -96t-39 -103h-133l-24 191q39 16 92 16zM82 1462q53 0 72 -8q32 -53 32 -96t-39 -103h-133l-24 191q39 16 92 16z" />
    <glyph glyph-name="eth" unicode="&#xf0;" horiz-adv-x="1132" 
d="M560 74q132 0 217 106t85 334q0 135 -31 262q-133 109 -269 109q-136 1 -210 -97t-74 -298t75 -308t207 -108zM1044 567q0 -258 -136 -427t-350 -169q-214 1 -342 137t-128 379t116 381t290 138t301 -113h20q-55 190 -289 375l-194 -113l-86 47l-8 23l192 112
q-104 72 -235 142l38 69q178 -53 322 -137l223 131l86 -47l6 -25l-217 -127q303 -224 373 -591q18 -94 18 -185z" />
    <glyph glyph-name="ntilde" unicode="&#xf1;" horiz-adv-x="1243" 
d="M1217 0h-472v92l140 31v557q0 238 -217 238q-160 0 -279 -146v-670l160 -10v-92h-471v92l143 31v756l-143 36v84q158 37 270 45l41 -8l-10 -147h20q141 162 320 162q147 0 240 -88t94 -254v-607l164 -10v-92zM894 1365q-77 -130 -170 -130q-36 0 -91 29l-150 77
l-110 -106l-56 55q91 186 203 188q36 0 90 -28l150 -78l110 107l56 -56q-18 -37 -32 -58z" />
    <glyph glyph-name="ograve" unicode="&#xf2;" horiz-adv-x="1138" 
d="M569 948q-291 0 -291 -436t292 -436q290 0 290 436t-291 436zM88 508q0 234 136 388t361 155q226 0 346 -150q120 -149 120 -383q-1 -234 -137 -390t-361 -155q-225 0 -345 151q-120 150 -120 384zM549 1174l-285 288q49 78 133 109h54l204 -397h-106z" />
    <glyph glyph-name="oacute" unicode="&#xf3;" horiz-adv-x="1138" 
d="M569 948q-291 0 -291 -436t292 -436q290 0 290 436t-291 436zM88 508q0 234 136 388t361 155q226 0 346 -150q120 -149 120 -383q-1 -234 -137 -390t-361 -155q-225 0 -345 151q-120 150 -120 384zM707 1571h53q80 -33 125 -109l-277 -288h-106z" />
    <glyph glyph-name="ocircumflex" unicode="&#xf4;" horiz-adv-x="1138" 
d="M569 948q-291 0 -291 -436t292 -436q290 0 290 436t-291 436zM88 508q0 234 136 388t361 155q226 0 346 -150q120 -149 120 -383q-1 -234 -137 -390t-361 -155q-225 0 -345 151q-120 150 -120 384zM725 1161l-182 217h-21l-157 -204h-109l262 389h103l225 -330z" />
    <glyph glyph-name="otilde" unicode="&#xf5;" horiz-adv-x="1138" 
d="M569 76q291 0 291 436t-291 436t-291 -436t291 -436zM88 508q0 234 136 388t361 155q226 0 346 -150q120 -149 120 -383q-1 -234 -137 -390t-361 -155q-225 0 -345 151q-120 150 -120 384zM670 1235q-36 0 -90 29l-150 77l-111 -106l-55 55q64 131 133 170q69 38 160 -10
l150 -78l110 107l55 -56q-92 -188 -202 -188z" />
    <glyph glyph-name="odieresis" unicode="&#xf6;" horiz-adv-x="1138" 
d="M569 948q-291 0 -291 -436t292 -436q290 0 290 436t-291 436zM88 508q0 234 136 388t361 155q226 0 346 -150q120 -149 120 -383q-1 -234 -137 -390t-361 -155q-225 0 -345 151q-120 150 -120 384zM770 1462q53 0 72 -8q32 -53 32 -96t-38 -103h-134l-24 191q39 16 92 16
zM350 1462q53 0 72 -8q33 -53 33 -96t-39 -103h-133l-25 191q39 16 92 16z" />
    <glyph glyph-name="divide" unicode="&#xf7;" 
d="M622 369q60 0 83 -7q45 -61 45 -116t-37 -113h-168l-37 205q54 31 114 31zM141 539v123h975v-123h-975zM622 1112q60 0 83 -6q45 -60 45 -116t-37 -113h-168l-37 204q54 31 114 31z" />
    <glyph glyph-name="oslash" unicode="&#xf8;" horiz-adv-x="1138" 
d="M561 76q299 0 299 430q0 211 -51 311l-408 -698q61 -43 160 -43zM571 948q-97 0 -163 -49q-129 -96 -129 -399q0 -181 45 -279l403 690q-59 37 -156 37zM1051 539.5q0 -255.5 -136.5 -411t-363.5 -155.5q-123 0 -217 50l-109 -185l-90 39l-12 21l115 194
q-150 145 -150 397.5t135 407t363 154.5q117 0 209 -45l116 198l90 -39l13 -20l-121 -205q158 -145 158 -400.5z" />
    <glyph glyph-name="ugrave" unicode="&#xf9;" horiz-adv-x="1218" 
d="M500 -27q-147 0 -239 89q-91 89 -91 257v560l-143 36v84q158 37 270 45l41 -8v-688q0 -242 213 -242q160 0 278 150v623l-143 36v84q158 37 270 45l41 -8v-886l144 -37v-84q-158 -37 -271 -45l-41 8l11 147h-21q-139 -166 -319 -166zM537 1174l-285 288q49 78 133 109h53
l205 -397h-106z" />
    <glyph glyph-name="uacute" unicode="&#xfa;" horiz-adv-x="1218" 
d="M500 -27q-147 0 -239 89q-91 89 -91 257v560l-143 36v84q158 37 270 45l41 -8v-688q0 -242 213 -242q160 0 278 150v623l-143 36v84q158 37 270 45l41 -8v-886l144 -37v-84q-158 -37 -271 -45l-41 8l11 147h-21q-139 -166 -319 -166zM489 1174l205 397h54
q80 -33 124 -109l-276 -288h-107z" />
    <glyph glyph-name="ucircumflex" unicode="&#xfb;" horiz-adv-x="1218" 
d="M500 -27q-147 0 -239 89q-91 89 -91 257v560l-143 36v84q158 37 270 45l41 -8v-688q0 -242 213 -242q160 0 278 150v623l-143 36v84q158 37 270 45l41 -8v-886l144 -37v-84q-158 -37 -271 -45l-41 8l11 147h-21q-139 -166 -319 -166zM244 1174l262 389h102l226 -330
l-121 -72l-183 217h-20l-158 -204h-108z" />
    <glyph glyph-name="udieresis" unicode="&#xfc;" horiz-adv-x="1218" 
d="M500 -27q-147 0 -239 89q-91 89 -91 257v560l-143 36v84q158 37 270 45l41 -8v-688q0 -242 213 -242q160 0 278 150v623l-143 36v84q158 37 270 45l41 -8v-886l144 -37v-84q-158 -37 -271 -45l-41 8l11 147h-21q-139 -166 -319 -166zM758 1462q53 0 71 -8q33 -53 33 -96
t-39 -103h-133l-24 191q39 16 92 16zM338 1462q53 0 72 -8q32 -53 32 -96t-39 -103h-133l-24 191q39 16 92 16z" />
    <glyph glyph-name="yacute" unicode="&#xfd;" horiz-adv-x="1157" 
d="M16 1024h426v-92l-104 -29q104 -313 266 -702h23q168 422 262 721l-158 10v92h410v-92l-125 -29q-143 -401 -402 -1018q-135 -322 -344 -321q-98 0 -143 61l16 107h265q82 129 124 254q-168 367 -382 936l-134 10v92zM535 1174l204 397h54q80 -33 125 -109l-277 -288
h-106z" />
    <glyph glyph-name="thorn" unicode="&#xfe;" horiz-adv-x="1171" 
d="M594 76q144 0 224 123t81 333q0 385 -278 386q-158 -1 -275 -146v-633q104 -63 248 -63zM680 1051q193 1 298 -139t105 -376t-137 -400q-137 -163 -358 -163q-125 0 -242 50v-330l160 -10v-93h-471v93l143 30v1680l-141 20v84q141 39 268 45l41 -10v-477q0 -74 -10 -166
h20q131 162 324 162z" />
    <glyph glyph-name="ydieresis" unicode="&#xff;" horiz-adv-x="1157" 
d="M16 1024h426v-92l-104 -29q104 -313 266 -702h23q168 422 262 721l-158 10v92h410v-92l-125 -29q-143 -401 -402 -1018q-135 -322 -344 -321q-98 0 -143 61l16 107h265q82 129 124 254q-168 367 -382 936l-134 10v92zM803 1462q53 0 71 -8q33 -53 33 -96t-39 -103h-133
l-24 191q39 16 92 16zM383 1462q53 0 72 -8q33 -53 33 -96t-39 -103h-134l-24 191q39 16 92 16z" />
    <glyph glyph-name="Amacron" unicode="&#x100;" horiz-adv-x="1384" 
d="M418 510h483q-143 434 -235 672h-21q-90 -246 -227 -672zM1358 0h-481v96l149 29q-41 131 -90 278h-551q-51 -164 -92 -297l149 -10v-96h-415v96l129 29q250 768 434 1237l145 27h21q166 -403 471 -1283l131 -10v-96zM375 1632q0 38 8 70h569q8 -32 8 -70t-8 -69h-569
q-8 31 -8 69z" />
    <glyph glyph-name="amacron" unicode="&#x101;" horiz-adv-x="1056" 
d="M659 449q-207 -1 -297 -49t-90 -158q0 -146 150 -146t272 158l4 195h-39zM840 -16q-135 0 -133 127v28h-21q-70 -80 -142 -123t-192 -43q-118 0 -191 71t-73 185q0 165 165 244q114 57 312 57q74 0 133 -8l2 197q4 229 -231 229q-61 0 -115 -12l-32 -234h-123
q-57 43 -58 107q0 104 120 173q121 69 267 69t244 -85t96 -237l-6 -610l146 -10v-80q-86 -45 -168 -45zM250 1338q0 36 8 67h528q8 -31 8 -67t-8 -68h-528q-8 32 -8 68z" />
    <glyph glyph-name="Abreve" unicode="&#x102;" horiz-adv-x="1384" 
d="M418 510h483q-143 434 -235 672h-21q-90 -246 -227 -672zM1358 0h-481v96l149 29q-41 131 -90 278h-551q-51 -164 -92 -297l149 -10v-96h-415v96l129 29q250 768 434 1237l145 27h21q166 -403 471 -1283l131 -10v-96zM686 1610q82 0 130 42t79 126l68 -29
q-25 -131 -105 -200t-207 -68q-256 0 -286 252l120 45q49 -168 201 -168z" />
    <glyph glyph-name="abreve" unicode="&#x103;" horiz-adv-x="1056" 
d="M659 449q-207 -1 -297 -49t-90 -158q0 -146 150 -146t272 158l4 195h-39zM840 -16q-135 0 -133 127v28h-21q-70 -80 -142 -123t-192 -43q-118 0 -191 71t-73 185q0 165 165 244q114 57 312 57q74 0 133 -8l2 197q4 229 -231 229q-61 0 -115 -12l-32 -234h-123
q-57 43 -58 107q0 104 120 173q121 69 267 69t244 -85t96 -237l-6 -610l146 -10v-80q-86 -45 -168 -45zM508 1200q-125 0 -194 77t-74 216l120 45q33 -209 183 -209q80 0 124 52q43 53 66 157l68 -29q-16 -153 -92 -231t-201 -78z" />
    <glyph glyph-name="Aogonek" unicode="&#x104;" horiz-adv-x="1384" 
d="M418 510h483q-143 434 -235 672h-21q-90 -246 -227 -672zM1358 0h-338q-84 -100 -84 -195q0 -141 143 -141q57 0 117 23l18 -74q-66 -49 -176 -49q-184 0 -233 119q-16 39 -17 88q0 182 244 333q-43 139 -96 299h-551q-51 -164 -92 -297l149 -10v-96h-415v96l129 29
q250 768 434 1237l145 27h21q166 -403 471 -1283l131 -10v-96z" />
    <glyph glyph-name="aogonek" unicode="&#x105;" horiz-adv-x="1056" 
d="M659 449q-207 -1 -297 -49t-90 -158q0 -146 150 -146t272 158l4 195h-39zM743 -221q0 -115 129 -115q57 0 117 23l19 -74q-66 -49 -180 -49t-172 49t-58 141t81 178q36 37 83 66q-55 27 -55 113v28h-21q-72 -80 -144 -123t-190 -43t-191 71t-73 185q0 165 165 244
q114 57 312 57q74 0 133 -8l2 197q4 229 -231 229q-59 0 -115 -12l-32 -234h-123q-57 43 -58 107q0 104 120 173q121 69 267 69t244 -86t96 -236l-6 -610l146 -10v-80q-98 -27 -156 -71q-108 -80 -109 -179z" />
    <glyph glyph-name="Cacute" unicode="&#x106;" horiz-adv-x="1320" 
d="M762 -27q-156 1 -281 57t-203 152q-160 198 -159 503q0 306 181 505t499 199q180 0 366 -80q21 -98 -2 -305h-121l-32 233q-90 37 -199 37q-242 0 -368 -150t-126 -434q-1 -284 133 -434t343 -150t381 140l45 -70q-166 -203 -457 -203zM639 1481l227 348h54
q82 -35 122 -107l-290 -241h-113z" />
    <glyph glyph-name="cacute" unicode="&#x107;" horiz-adv-x="1005" 
d="M88 508q0 234 134 388t345 155q127 -1 225 -57t97 -173q0 -76 -53 -119h-131l-33 236q-41 10 -99 10q-133 0 -217 -112t-84 -317t83 -313t230 -108t292 129l43 -65q-146 -188 -372 -188t-343 150t-117 384zM481 1174l205 397h53q80 -33 125 -109l-276 -288h-107z" />
    <glyph glyph-name="Ccircumflex" unicode="&#x108;" horiz-adv-x="1320" 
d="M762 -27q-156 1 -281 57t-203 152q-160 198 -159 503q0 306 181 505t499 199q180 0 366 -80q21 -98 -2 -305h-121l-32 233q-90 37 -199 37q-242 0 -368 -150t-126 -434q-1 -284 133 -434t343 -150t381 140l45 -70q-166 -203 -457 -203zM393 1481l293 329h102l244 -270
l-121 -82l-200 168h-21l-176 -145h-121z" />
    <glyph glyph-name="ccircumflex" unicode="&#x109;" horiz-adv-x="1005" 
d="M88 508q0 234 134 388t345 155q127 -1 225 -57t97 -173q0 -76 -53 -119h-131l-33 236q-41 10 -99 10q-133 0 -217 -112t-84 -317t83 -313t230 -108t292 129l43 -65q-146 -188 -372 -188t-343 150t-117 384zM236 1174l262 389h102l225 -330l-120 -72l-183 217h-20
l-158 -204h-108z" />
    <glyph glyph-name="Cdotaccent" unicode="&#x10a;" horiz-adv-x="1320" 
d="M762 -27q-156 1 -281 57t-203 152q-160 198 -159 503q0 306 181 505t499 199q180 0 366 -80q21 -98 -2 -305h-121l-32 233q-90 37 -199 37q-242 0 -368 -150t-126 -434q-1 -284 133 -434t343 -150t381 140l45 -70q-166 -203 -457 -203zM736 1751q52 0 87 -10
q35 -51 35 -103t-47 -116h-145l-23 211q41 18 93 18z" />
    <glyph glyph-name="cdotaccent" unicode="&#x10b;" horiz-adv-x="1005" 
d="M88 508q0 234 134 388t345 155q127 -1 225 -57t97 -173q0 -76 -53 -119h-131l-33 236q-41 10 -99 10q-133 0 -217 -112t-84 -317t83 -313t230 -108t292 129l43 -65q-146 -188 -372 -188t-343 150t-117 384zM664 1374q0 -50 -46 -114h-143l-24 208q120 32 178 7
q35 -51 35 -101z" />
    <glyph glyph-name="Ccaron" unicode="&#x10c;" horiz-adv-x="1320" 
d="M762 -27q-156 1 -281 57t-203 152q-160 198 -159 503q0 306 181 505t499 199q180 0 366 -80q21 -98 -2 -305h-121l-32 233q-90 37 -199 37q-242 0 -368 -150t-126 -434q-1 -284 133 -434t343 -150t381 140l45 -70q-166 -203 -457 -203zM438 1751l121 82l201 -168h20
l176 145h121l-293 -329h-102z" />
    <glyph glyph-name="ccaron" unicode="&#x10d;" horiz-adv-x="1005" 
d="M88 508q0 234 134 388t345 155q127 -1 225 -57t97 -173q0 -76 -53 -119h-131l-33 236q-41 10 -99 10q-133 0 -217 -112t-84 -317t83 -313t230 -108t292 129l43 -65q-146 -188 -372 -188t-343 150t-117 384zM274 1505l121 72l183 -217h20l158 205h108l-262 -389h-102z" />
    <glyph glyph-name="Dcaron" unicode="&#x10e;" horiz-adv-x="1431" 
d="M444 109h170q260 -1 380 149t120 447q0 559 -483 559h-187v-1155zM580 1372q379 0 556 -180t177 -496t-172 -506t-529 -190h-514v96l164 31v1128l-166 11v96q260 10 484 10zM362 1751l121 82l201 -168h21l176 145h120l-292 -329h-103z" />
    <glyph glyph-name="dcaron" unicode="&#x10f;" horiz-adv-x="1386" 
d="M272 492q0 -385 281 -386q155 1 272 146v631q-99 65 -245 65t-227 -124t-81 -332zM1257 1542q51 0 86 -18q43 -72 43 -168t-59 -178q-59 -80 -160 -109l-22 59q47 25 81 72t34 109q0 20 -5 37l-92 16l-4 168q47 12 98 12zM492 -27q-192 -1 -298 139t-106 378t138 399
q138 162 356 162q125 0 243 -47v389l-141 20v84q141 39 268 45l41 -10v-1382l144 -37v-84q-158 -37 -271 -45l-41 8l11 143h-21q-131 -162 -323 -162z" />
    <glyph glyph-name="Dcroat" unicode="&#x110;" horiz-adv-x="1431" 
d="M444 109h170q260 -1 380 149t120 447q0 559 -483 559h-187v-504h285v-111h-285v-540zM580 1372q379 0 556 -180t177 -496t-172 -506t-529 -190h-514v96l164 31v522h-162v111h162v495l-166 11v96q260 10 484 10z" />
    <glyph glyph-name="dcroat" unicode="&#x111;" horiz-adv-x="1187" 
d="M272 492q0 -385 281 -386q155 1 272 146v631q-99 65 -245 65t-227 -124t-81 -332zM492 -27q-192 -1 -298 139t-106 378t138 399q138 162 356 162q127 0 243 -47v256h-295v102h295v154q53 16 127 28l41 -6v-176h185v-102h-185v-1110l144 -37v-84q-158 -37 -271 -45l-41 8
l11 143h-21q-131 -162 -323 -162z" />
    <glyph glyph-name="Emacron" unicode="&#x112;" horiz-adv-x="1212" 
d="M1122 196q0 -76 -26 -196h-998v96l164 31v1128l-166 11v96h1002q10 -47 10 -133t-10 -164h-119l-25 174l-510 18v-499h285l23 127h92v-379h-92l-25 143h-283v-545l508 19l49 188l119 -12q2 -27 2 -103zM322 1632q0 38 8 70h569q8 -32 8 -70t-8 -69h-569q-8 31 -8 69z" />
    <glyph glyph-name="emacron" unicode="&#x113;" horiz-adv-x="1034" 
d="M557 948q-111 0 -187 -87t-94 -249l484 19q0 317 -203 317zM88 510q0 234 135 388t355 153q176 -1 266 -103t90 -270q0 -72 -16 -154h-646q0 -206 86 -316t239 -110t300 129l43 -65q-148 -188 -382 -188t-352 150q-118 152 -118 386zM821 1338q0 -36 -8 -68h-528
q-18 71 0 135h528q8 -31 8 -67z" />
    <glyph glyph-name="Ebreve" unicode="&#x114;" horiz-adv-x="1212" 
d="M1122 196q0 -76 -26 -196h-998v96l164 31v1128l-166 11v96h1002q10 -47 10 -133t-10 -164h-119l-25 174l-510 18v-499h285l23 127h92v-379h-92l-25 143h-283v-545l508 19l49 188l119 -12q2 -27 2 -103zM633 1610q82 0 130 42t79 126l67 -29q-25 -131 -105 -200t-206 -68
q-256 0 -287 252l121 45q49 -168 201 -168z" />
    <glyph glyph-name="ebreve" unicode="&#x115;" horiz-adv-x="1034" 
d="M557 948q-111 0 -187 -87t-94 -249l484 19q0 317 -203 317zM88 510q0 234 135 388t355 153q176 -1 266 -103t90 -270q0 -72 -16 -154h-646q0 -206 86 -316t239 -110t300 129l43 -65q-148 -188 -382 -188t-352 150q-118 152 -118 386zM534 1200q-124 0 -193 77t-75 216
l121 45q33 -209 182 -209q80 1 124 53t67 156l67 -29q-16 -153 -92 -231q-77 -78 -201 -78z" />
    <glyph glyph-name="Edotaccent" unicode="&#x116;" horiz-adv-x="1212" 
d="M1122 196q0 -76 -26 -196h-998v96l164 31v1128l-166 11v96h1002q10 -47 10 -133t-10 -164h-119l-25 174l-510 18v-499h285l23 127h92v-379h-92l-25 143h-283v-545l508 19l49 188l119 -12q2 -27 2 -103zM614 1751q52 0 86 -10q35 -51 35 -103t-47 -116h-145l-23 211
q42 18 94 18z" />
    <glyph glyph-name="edotaccent" unicode="&#x117;" horiz-adv-x="1034" 
d="M557 948q-111 0 -187 -87t-94 -249l484 19q0 317 -203 317zM88 510q0 234 135 388t355 153q176 -1 266 -103t90 -270q0 -72 -16 -154h-646q0 -206 86 -316t239 -110t300 129l43 -65q-148 -188 -382 -188t-352 150q-118 152 -118 386zM664 1374q0 -50 -46 -114h-143
l-24 208q120 32 178 7q35 -51 35 -101z" />
    <glyph glyph-name="Eogonek" unicode="&#x118;" horiz-adv-x="1212" 
d="M946 -436q-112 0 -171 52q-60 52 -60 134q0 133 159 250h-776v96l164 31v1128l-166 11v96h1002q10 -47 10 -133t-10 -164h-119l-25 174l-510 18v-499h285l23 127h92v-379h-92l-25 143h-283v-545l508 19l49 188l119 -12q2 -27 2 -103t-26 -196h-121q-115 -123 -115 -221
q0 -51 36 -83t94 -32t116 23l18 -74q-66 -49 -178 -49z" />
    <glyph glyph-name="eogonek" unicode="&#x119;" horiz-adv-x="1034" 
d="M557 948q-111 0 -187 -87t-94 -249l484 19q0 317 -203 317zM805 -336q57 0 117 23l18 -74q-66 -49 -178 -49t-171 50q-61 50 -61 120t35 134t90 105l-6 17q-51 -16 -112 -17q-215 0 -332 152q-117 153 -117 385t135 386t355 155q176 -1 266 -103t90 -270q0 -72 -16 -154
h-646q0 -206 86 -316t239 -110t300 129l43 -65q-37 -39 -93 -89t-91 -90q-82 -94 -80 -188q0 -131 129 -131z" />
    <glyph glyph-name="Ecaron" unicode="&#x11a;" horiz-adv-x="1212" 
d="M1122 196q0 -76 -26 -196h-998v96l164 31v1128l-166 11v96h1002q10 -47 10 -133t-10 -164h-119l-25 174l-510 18v-499h285l23 127h92v-379h-92l-25 143h-283v-545l508 19l49 188l119 -12q2 -27 2 -103zM315 1751l121 82l201 -168h20l177 145h120l-292 -329h-103z" />
    <glyph glyph-name="ecaron" unicode="&#x11b;" horiz-adv-x="1034" 
d="M557 948q-111 0 -187 -87t-94 -249l484 19q0 317 -203 317zM88 510q0 234 135 388t355 153q176 -1 266 -103t90 -270q0 -72 -16 -154h-646q0 -206 86 -316t239 -110t300 129l43 -65q-148 -188 -382 -188t-352 150q-118 152 -118 386zM274 1505l121 72l183 -217h20
l158 205h108l-262 -389h-102z" />
    <glyph glyph-name="Gcircumflex" unicode="&#x11c;" horiz-adv-x="1400" 
d="M819 -27q-358 0 -529 202t-171 508t189 506t511 200q180 0 367 -80q10 -47 10 -113t-12 -172h-121l-29 205q-82 45 -209 45q-243 0 -375 -151t-132 -439t128 -442q129 -154 351 -154q139 0 252 55l-27 342l-203 11v96h488v-96l-103 -31v-412q-188 -80 -385 -80zM393 1481
l293 329h102l244 -270l-121 -82l-200 168h-21l-176 -145h-121z" />
    <glyph glyph-name="gcircumflex" unicode="&#x11d;" horiz-adv-x="1087" 
d="M504 -334q142 0 252 48q55 24 90 63t35 82t-22 67q-51 55 -290 88l-266 39q-68 -78 -67 -190q0 -197 268 -197zM287 692q0 -258 229 -258q113 0 170 67t57 170t-24 160q-53 121 -203 119q-229 0 -229 -258zM924 691q0 -149 -117 -253t-309 -104q-57 0 -107 10v-147
l275 -37q196 -27 278 -84t82 -160q0 -158 -160 -255t-422 -97q-192 0 -292 61t-101 199q-1 104 57 174t154 84q2 109 33 293q-186 88 -189 307q0 160 117 264t290 104t273 -71q41 207 164 207q61 0 101 -47l-17 -123h-123l-71 -84q84 -92 84 -241zM184 1174l262 389h103
l225 -330l-121 -72l-182 217h-20l-158 -204h-109z" />
    <glyph glyph-name="Gbreve" unicode="&#x11e;" horiz-adv-x="1400" 
d="M819 -27q-358 0 -529 202t-171 508t189 506t511 200q180 0 367 -80q10 -47 10 -113t-12 -172h-121l-29 205q-82 45 -209 45q-243 0 -375 -151t-132 -439t128 -442q129 -154 351 -154q139 0 252 55l-27 342l-203 11v96h488v-96l-103 -31v-412q-188 -80 -385 -80zM756 1610
q82 0 130 42t79 126l67 -29q-24 -131 -104 -200t-207 -68q-256 0 -287 252l121 45q49 -168 201 -168z" />
    <glyph glyph-name="gbreve" unicode="&#x11f;" horiz-adv-x="1087" 
d="M504 -334q142 0 252 48q55 24 90 63t35 82t-22 67q-51 55 -290 88l-266 39q-68 -78 -67 -190q0 -197 268 -197zM287 692q0 -258 229 -258q113 0 170 67t57 170t-24 160q-53 121 -203 119q-229 0 -229 -258zM924 691q0 -149 -117 -253t-309 -104q-57 0 -107 10v-147
l275 -37q196 -27 278 -84t82 -160q0 -158 -160 -255t-422 -97q-192 0 -292 61t-101 199q-1 104 57 174t154 84q2 109 33 293q-186 88 -189 307q0 160 117 264t290 104t273 -71q41 207 164 207q61 0 101 -47l-17 -123h-123l-71 -84q84 -92 84 -241zM483 1200q-125 0 -193 77
t-75 216l121 45q33 -209 182 -209q80 1 124 53t67 156l67 -29q-16 -153 -92 -231t-201 -78z" />
    <glyph glyph-name="Gdotaccent" unicode="&#x120;" horiz-adv-x="1400" 
d="M819 -27q-358 0 -529 202t-171 508t189 506t511 200q180 0 367 -80q10 -47 10 -113t-12 -172h-121l-29 205q-82 45 -209 45q-243 0 -375 -151t-132 -439t128 -442q129 -154 351 -154q139 0 252 55l-27 342l-203 11v96h488v-96l-103 -31v-412q-188 -80 -385 -80zM736 1751
q52 0 87 -10q35 -51 35 -103t-47 -116h-145l-23 211q41 18 93 18z" />
    <glyph glyph-name="gdotaccent" unicode="&#x121;" horiz-adv-x="1087" 
d="M504 -334q142 0 252 48q55 24 90 63t35 82t-22 67q-51 55 -290 88l-266 39q-68 -78 -67 -190q0 -197 268 -197zM287 692q0 -258 229 -258q113 0 170 67t57 170t-24 160q-53 121 -203 119q-229 0 -229 -258zM924 691q0 -149 -117 -253t-309 -104q-57 0 -107 10v-147
l275 -37q196 -27 278 -84t82 -160q0 -158 -160 -255t-422 -97q-192 0 -292 61t-101 199q-1 104 57 174t154 84q2 109 33 293q-186 88 -189 307q0 160 117 264t290 104t273 -71q41 207 164 207q61 0 101 -47l-17 -123h-123l-71 -84q84 -92 84 -241zM424 1260l-25 208
q120 33 179 7q34 -51 34 -101t-45 -114h-143z" />
    <glyph glyph-name="Gcommaaccent" unicode="&#x122;" horiz-adv-x="1400" 
d="M734 -109q44 0 75 -16q37 -57 37 -133t-48 -144t-132 -98l-33 51q102 76 102 142q0 18 -2 31l-86 14v139q43 14 87 14zM819 -27q-358 0 -529 202t-171 508t189 506t511 200q180 0 367 -80q10 -47 10 -113t-12 -172h-121l-29 205q-82 45 -209 45q-243 0 -375 -151
t-132 -439t128 -442q129 -154 351 -154q139 0 252 55l-27 342l-203 11v96h488v-96l-103 -31v-412q-188 -80 -385 -80z" />
    <glyph glyph-name="gcommaaccent" unicode="&#x123;" horiz-adv-x="1087" 
d="M504 -334q142 0 252 48q55 24 90 63t35 82t-22 67q-51 55 -290 88l-266 39q-68 -78 -67 -190q0 -197 268 -197zM287 692q0 -258 229 -258q113 0 170 67t57 170t-24 160q-53 121 -203 119q-229 0 -229 -258zM924 691q0 -149 -117 -253t-309 -104q-57 0 -107 10v-147
l275 -37q196 -27 278 -84t82 -160q0 -158 -160 -255t-422 -97q-192 0 -292 61t-101 199q-1 104 57 174t154 84q2 109 33 293q-186 88 -189 307q0 160 117 264t290 104t273 -71q41 207 164 207q61 0 101 -47l-17 -123h-123l-71 -84q84 -92 84 -241zM501 1188q-44 0 -75 16
q-37 57 -37 133t49 142t137 96l33 -51q-37 -27 -55 -42q-53 -44 -53 -96q0 -18 2 -30l86 -15v-139q-43 -14 -87 -14z" />
    <glyph glyph-name="Hcircumflex" unicode="&#x124;" horiz-adv-x="1560" 
d="M1479 0h-527v96l164 31v522h-672v-543l181 -10v-96h-527v96l164 31v1128l-166 11v96h529v-96l-181 -31v-475h672v495l-182 11v96h528v-96l-164 -31v-1129l181 -10v-96zM442 1481l293 329h103l243 -270l-120 -82l-201 168h-21l-176 -145h-121z" />
    <glyph glyph-name="hcircumflex" unicode="&#x125;" horiz-adv-x="1218" 
d="M369 1055q0 -27 -11 -166h21q141 162 319 162q146 0 238 -87t92 -255v-607l164 -10v-92h-471v92l139 31v557q0 238 -213 238q-160 0 -278 -146v-670l159 -10v-92h-471v92l144 31v1188l-142 20v84q141 39 269 45l41 -10v-395zM477 1522l-184 155h-21l-137 -135h-108
l241 289h103l227 -229z" />
    <glyph glyph-name="Hbar" unicode="&#x126;" horiz-adv-x="1562" 
d="M446 920v-228h672v228h-672zM1464 0h-526v96l180 31v455h-672v-476l181 -10v-96h-527v96l164 31v793h-227v104h227v231l-166 11v96h529v-96l-181 -31v-211h672v231l-182 11v96h528v-96l-164 -31v-211h226v-104h-226v-814l164 -10v-96z" />
    <glyph glyph-name="hbar" unicode="&#x127;" horiz-adv-x="1218" 
d="M1192 0h-471v92l139 31v557q0 238 -213 238q-160 0 -278 -146v-670l159 -10v-92h-471v92l144 31v1137h-164v102h164v149q74 20 127 31l41 -6v-174h323v-102h-323v-205q0 -27 -11 -166h21q141 162 319 162q146 0 238 -87t92 -255v-607l164 -10v-92z" />
    <glyph glyph-name="Itilde" unicode="&#x128;" horiz-adv-x="708" 
d="M610 1362v-96l-164 -31v-1129l164 -10v-96h-510v96l164 31v1128l-166 11v96h512zM276 1757q37 0 82 -33l113 -79l121 112l55 -55q-96 -180 -217 -180q-37 0 -82 32l-112 80l-121 -112l-56 55q96 180 217 180z" />
    <glyph glyph-name="itilde" unicode="&#x129;" horiz-adv-x="600" 
d="M549 0h-471v92l143 31v756l-143 36v84q158 37 270 45l41 -8v-934l160 -10v-92zM360 1235q-37 0 -84 33l-108 78l-105 -111l-55 55q66 135 133 173t146 -17l108 -78l105 111l55 -56q-64 -132 -126 -170q-32 -18 -69 -18z" />
    <glyph glyph-name="Imacron" unicode="&#x12a;" horiz-adv-x="708" 
d="M610 0h-510v96l164 31v1128l-166 11v96h512v-96l-164 -31v-1129l164 -10v-96zM96 1632q0 38 8 70h496q8 -32 8 -70t-8 -69h-496q-8 31 -8 69z" />
    <glyph glyph-name="imacron" unicode="&#x12b;" horiz-adv-x="600" 
d="M549 0h-471v92l143 31v756l-143 36v84q158 37 270 45l41 -8v-934l160 -10v-92zM518 1337q0 -37 -8 -67h-451q-8 32 -8 68t8 67h451q8 -31 8 -68z" />
    <glyph glyph-name="Ibreve" unicode="&#x12c;" horiz-adv-x="708" 
d="M610 1362v-96l-164 -31v-1129l164 -10v-96h-510v96l164 31v1128l-166 11v96h512zM377 1610q82 0 130 42t79 126l67 -29q-25 -131 -105 -200t-206 -68q-256 0 -287 252l121 45q49 -168 201 -168z" />
    <glyph glyph-name="ibreve" unicode="&#x12d;" horiz-adv-x="600" 
d="M549 0h-471v92l143 31v756l-143 36v84q158 37 270 45l41 -8v-934l160 -10v-92zM270 1200q-111 0 -173 76t-70 215l120 45q15 -109 53 -158t106 -49t105 50q37 51 60 157l68 -29q-37 -307 -269 -307z" />
    <glyph glyph-name="Iogonek" unicode="&#x12e;" horiz-adv-x="708" 
d="M334 -220q0 -60 36 -88t93 -28t117 23l18 -74q-66 -49 -178 -49t-171 48q-60 48 -61 124q0 76 54 139t135 105v20h-277v96l164 31v1128l-166 11v96h512v-96l-164 -31v-1129l164 -12v-94q-128 -39 -202 -99q-74 -61 -74 -121z" />
    <glyph glyph-name="iogonek" unicode="&#x12f;" horiz-adv-x="600" 
d="M270 -225q0 -51 36 -81t93 -30t117 23l19 -74q-66 -49 -178 -49t-172 53t-60 133q0 137 188 230v20h-235v92l143 31v756l-143 36v84q158 37 270 45l41 -8v-934l160 -10v-92q-279 -82 -279 -225zM397 1374q0 -50 -45 -114h-143l-25 208q121 33 178 7q35 -51 35 -101z" />
    <glyph glyph-name="uni0130" unicode="&#x130;" horiz-adv-x="708" 
d="M610 0h-510v96l164 31v1128l-166 11v96h512v-96l-164 -31v-1129l164 -10v-96zM357.5 1751q52.5 0 86.5 -10q35 -51 35 -103.5t-47 -115.5h-145l-23 211q41 18 93.5 18z" />
    <glyph glyph-name="dotlessi" unicode="&#x131;" horiz-adv-x="600" 
d="M549 0h-471v92l143 31v756l-143 36v84q158 37 270 45l41 -8v-934l160 -10v-92z" />
    <glyph glyph-name="IJ" unicode="&#x132;" horiz-adv-x="1662" 
d="M1419 373q0 -396 -382 -399q-140 -1 -221 70t-81 151t51 127h134l30 -224q41 -10 86 -10q201 0 201 254v913l-215 11v96h561v-96l-164 -31v-862zM610 1362v-96l-164 -31v-1129l164 -10v-96h-510v96l164 31v1128l-166 11v96h512z" />
    <glyph glyph-name="ij" unicode="&#x133;" horiz-adv-x="1157" 
d="M973 -18q0 -158 -51 -248t-187 -170l-59 63l129 191v1061l-143 36v84q158 37 270 45l41 -8v-1054zM549 0h-471v92l143 31v756l-143 36v84q158 37 270 45l41 -8v-934l160 -10v-92zM983 1374q0 -50 -45 -114h-143l-25 208q121 33 178 7q35 -51 35 -101zM397 1374
q0 -50 -45 -114h-143l-25 208q121 33 178 7q35 -51 35 -101z" />
    <glyph glyph-name="Jcircumflex" unicode="&#x134;" horiz-adv-x="954" 
d="M874 1362v-96l-163 -31v-862q0 -252 -160 -347q-83 -51 -186 -52q-247 -3 -319 150q-19 40 -19 96t51 102h133l31 -224q41 -10 86 -10q201 0 200 254v913l-215 11v96h561zM236 1481l292 329h103l243 -270l-120 -82l-201 168h-21l-176 -145h-120z" />
    <glyph glyph-name="jcircumflex" unicode="&#x135;" horiz-adv-x="557" 
d="M373 -18q0 -158 -51 -248t-187 -170l-59 63l129 191v1061l-144 36v84q158 37 271 45l41 -8v-1054zM387 1182l-141 196h-21l-116 -184h-109l221 369h103l184 -310z" />
    <glyph glyph-name="Kcommaaccent" unicode="&#x136;" horiz-adv-x="1404" 
d="M722 -109q44 0 75 -16q37 -57 37 -133t-48 -144t-133 -98l-32 51q102 76 102 142q0 18 -2 31l-86 14v139q43 14 87 14zM469 647v-541l178 -10v-96h-526v96l166 31v1128l-168 11v96h508v-96l-158 -31v-477h215q166 229 340 495l-176 13v96h473v-96l-129 -23
q-209 -272 -397 -493q103 -139 192 -276q90 -136 141 -213t84 -128l146 -55l-10 -72q-72 -23 -123 -22q-98 0 -154 42q-55 42 -103 114q-74 109 -170 277q-95 169 -132 230h-197z" />
    <glyph glyph-name="kcommaaccent" unicode="&#x137;" horiz-adv-x="1128" 
d="M599 -109q44 0 75 -16q37 -57 37 -133t-48 -144t-133 -98l-32 51q102 76 102 142q0 18 -2 31l-86 14v139q43 14 87 14zM975 -16q-66 0 -114 30t-97 107l-75 122q-75 122 -152 244h-168v-385l139 -10v-92h-451v92l144 31v1272l-142 20v84q131 35 269 43l41 -10v-942h149
q92 104 275 332l-146 10v92h412v-92l-119 -29q-152 -166 -299 -305q160 -213 350 -492l117 -43l-8 -61q-59 -18 -125 -18z" />
    <glyph glyph-name="kgreenlandic" unicode="&#x138;" horiz-adv-x="1148" 
d="M996 -16q-66 0 -118 33t-129 161q-28 45 -81 132t-111 177h-168v-385l139 -10v-92h-450v92l143 31v756l-143 36v84q156 39 270 45l41 -10v-444h150q92 104 274 332l-145 10v92h411v-92l-118 -29q-152 -166 -299 -305q81 -108 200 -278t150 -214l116 -43l-8 -61
q-58 -18 -124 -18z" />
    <glyph glyph-name="Lacute" unicode="&#x139;" horiz-adv-x="1116" 
d="M1059 172q0 -80 -27 -172h-934v96l164 31v1128l-166 11v96h543v-96l-195 -31v-1131l441 17l55 211l115 -13q4 -67 4 -147zM262 1481l227 348h54q82 -35 123 -107l-291 -241h-113z" />
    <glyph glyph-name="lacute" unicode="&#x13a;" horiz-adv-x="626" 
d="M528 0h-471v92l144 31v1190l-142 20v84q131 35 269 43l41 -10v-1348l159 -10v-92zM260 1542l139 289h54q82 -35 122 -107l-202 -182h-113z" />
    <glyph glyph-name="Lcommaaccent" unicode="&#x13b;" horiz-adv-x="1116" 
d="M548 -109q44 0 75 -16q37 -57 37 -133t-49 -144q-48 -68 -132 -98l-33 51q102 76 103 142q0 18 -2 31l-86 14v139q43 14 87 14zM1059 172q0 -80 -27 -172h-934v96l164 31v1128l-166 11v96h543v-96l-195 -31v-1131l441 17l55 211l115 -13q4 -67 4 -147z" />
    <glyph glyph-name="lcommaaccent" unicode="&#x13c;" horiz-adv-x="579" 
d="M275 -109q44 0 75 -16q37 -57 37 -133t-48 -144t-132 -98l-33 51q102 76 102 142q0 18 -2 31l-86 14v139q43 14 87 14zM528 0h-471v92l144 31v1272l-142 20v84q131 35 269 43l41 -10v-1430l159 -10v-92z" />
    <glyph glyph-name="Lcaron" unicode="&#x13d;" horiz-adv-x="1116" 
d="M1059 172q0 -80 -27 -172h-934v96l164 31v1128l-166 11v96h543v-96l-195 -31v-1131l441 17l55 211l115 -13q4 -67 4 -147zM1040 1202q0 -96 -60 -177t-159 -110l-22 60q47 25 81 72t33 108q0 20 -4 37l-92 16l-4 168q118 30 184 -6q43 -72 43 -168z" />
    <glyph glyph-name="lcaron" unicode="&#x13e;" horiz-adv-x="761" 
d="M633 1542q51 0 86 -18q43 -72 43 -168t-60 -178q-60 -80 -159 -109l-23 59q47 25 81 72t34 109q0 20 -4 37l-92 16l-4 168q47 12 98 12zM528 0h-471v92l144 31v1272l-142 20v84q131 35 269 43l41 -10v-1430l159 -10v-92z" />
    <glyph glyph-name="Ldot" unicode="&#x13f;" horiz-adv-x="1116" 
d="M803 610l-23 211q42 19 94 19t87 -11q71 -104 -13 -219h-145zM1059 172q0 -80 -27 -172h-934v96l164 31v1128l-166 11v96h543v-96l-195 -31v-1131l441 17l55 211l115 -13q4 -67 4 -147z" />
    <glyph glyph-name="ldot" unicode="&#x140;" horiz-adv-x="641" 
d="M713 726q0 -52 -47 -116h-146l-22 211q41 19 93 19t87 -11q35 -51 35 -103zM528 0h-471v92l144 31v1272l-142 20v84q131 35 269 43l41 -10v-1430l159 -10v-92z" />
    <glyph glyph-name="Lslash" unicode="&#x141;" horiz-adv-x="1118" 
d="M1061 172q0 -80 -27 -172h-934v96l164 31v448l-211 -88l-12 21v88l223 94v565l-166 11v96h543v-96l-195 -31v-469l412 172l12 -20v-89l-424 -178v-547l441 17l55 211l115 -13q4 -67 4 -147z" />
    <glyph glyph-name="lslash" unicode="&#x142;" horiz-adv-x="579" 
d="M528 0h-471v92l144 31v444l-158 -86l-12 21v86l170 92v715l-142 20v84q131 35 269 43l41 -10v-760l168 92l12 -20v-86l-180 -99v-557l159 -10v-92z" />
    <glyph glyph-name="Nacute" unicode="&#x143;" horiz-adv-x="1562" 
d="M590 0h-492v96l164 31v1126l-166 13v96h424l467 -772q98 -162 180 -320h21l-17 985l-192 11v96h494v-96l-164 -31v-1235l-135 -27h-25l-586 967q-72 117 -155 289h-21l12 -1123l191 -10v-96zM686 1481l227 348h54q82 -35 123 -107l-291 -241h-113z" />
    <glyph glyph-name="nacute" unicode="&#x144;" horiz-adv-x="1243" 
d="M1217 0h-472v92l140 31v557q0 238 -217 238q-160 0 -279 -146v-670l160 -10v-92h-471v92l143 31v756l-143 36v84q158 37 270 45l41 -8l-10 -147h20q141 162 320 162q147 0 240 -88t94 -254v-607l164 -10v-92zM555 1174l205 397h53q80 -33 125 -109l-276 -288h-107z" />
    <glyph glyph-name="Ncommaaccent" unicode="&#x145;" horiz-adv-x="1562" 
d="M771 -109q44 0 75 -16q37 -57 37 -133t-48 -144t-133 -98l-32 51q102 76 102 142q0 18 -2 31l-86 14v139q43 14 87 14zM590 0h-492v96l164 31v1126l-166 13v96h424l467 -772q98 -162 180 -320h21l-17 985l-192 11v96h494v-96l-164 -31v-1235l-135 -27h-25l-586 967
q-72 117 -155 289h-21l12 -1123l191 -10v-96z" />
    <glyph glyph-name="ncommaaccent" unicode="&#x146;" horiz-adv-x="1243" 
d="M613 -109q44 0 75 -16q37 -57 37 -133t-48 -144t-132 -98l-33 51q102 76 102 142q0 18 -2 31l-86 14v139q43 14 87 14zM1217 0h-472v92l140 31v557q0 238 -217 238q-160 0 -279 -146v-670l160 -10v-92h-471v92l143 31v756l-143 36v84q158 37 270 45l41 -8l-10 -147h20
q141 162 320 162q147 0 240 -88t94 -254v-607l164 -10v-92z" />
    <glyph glyph-name="Ncaron" unicode="&#x147;" horiz-adv-x="1562" 
d="M590 0h-492v96l164 31v1126l-166 13v96h424l467 -772q98 -162 180 -320h21l-17 985l-192 11v96h494v-96l-164 -31v-1235l-135 -27h-25l-586 967q-72 117 -155 289h-21l12 -1123l191 -10v-96zM485 1751l121 82l201 -168h20l177 145h120l-293 -329h-102z" />
    <glyph glyph-name="ncaron" unicode="&#x148;" horiz-adv-x="1243" 
d="M1217 0h-472v92l140 31v557q0 238 -217 238q-160 0 -279 -146v-670l160 -10v-92h-471v92l143 31v756l-143 36v84q158 37 270 45l41 -8l-10 -147h20q141 162 320 162q147 0 240 -88t94 -254v-607l164 -10v-92zM348 1505l121 72l182 -217h21l157 205h109l-262 -389h-103z
" />
    <glyph glyph-name="napostrophe" unicode="&#x149;" horiz-adv-x="1243" 
d="M1217 0h-472v92l140 31v557q0 238 -217 238q-160 0 -279 -146v-670l160 -10v-92h-471v92l143 31v756l-143 36v84q158 37 270 45l41 -8l-10 -147h20q141 162 320 162q147 0 240 -88t94 -254v-607l164 -10v-92zM28 1542q52 0 87 -18q43 -72 43 -168t-60 -178
q-60 -80 -159 -109l-23 59q47 25 81 72t34 109q0 20 -4 37l-93 16l-4 168q46 12 98 12z" />
    <glyph glyph-name="Eng" unicode="&#x14a;" horiz-adv-x="1552" 
d="M1309 0q1 -205 -101 -321t-237 -115q-100 0 -146 61l17 107h258q39 41 54 82t17 129l-608 997q-72 115 -155 289h-21l12 -1123l181 -10v-96h-482v96l164 31v1126l-166 13v96h424l467 -772q84 -139 178 -320h21l-15 985l-182 11v96h484v-96l-164 -31v-1235z" />
    <glyph glyph-name="eng" unicode="&#x14b;" horiz-adv-x="1236" 
d="M719 1051q147 0 240 -88t94 -254v-727q1 -158 -51 -248t-187 -170l-59 63l129 191v862q0 238 -217 238q-160 0 -279 -146v-670l160 -10v-92h-471v92l143 31v756l-143 36v84q158 37 270 45l41 -8l-10 -147h20q141 162 320 162z" />
    <glyph glyph-name="Omacron" unicode="&#x14c;" horiz-adv-x="1523" 
d="M762 1274q-203 0 -322 -153q-118 -153 -118 -439t120 -440t320 -154t320 155t120 441t-118 438t-322 152zM778 1389q301 0 464 -196t163 -504t-180 -512q-181 -204 -479 -204t-462 199t-165 507q0 308 179 509t480 201zM1059 1632q0 -39 -8 -69h-570q-8 31 -8 69t8 70
h570q8 -31 8 -70z" />
    <glyph glyph-name="omacron" unicode="&#x14d;" horiz-adv-x="1138" 
d="M569 948q-291 0 -291 -436t292 -436q290 0 290 436t-291 436zM88 508q0 234 136 388t361 155q226 0 346 -150q120 -149 120 -383q-1 -234 -137 -390t-361 -155q-225 0 -345 151q-120 150 -120 384zM842 1337q0 -37 -8 -67h-529q-8 32 -8 68t8 67h529q8 -31 8 -68z" />
    <glyph glyph-name="Obreve" unicode="&#x14e;" horiz-adv-x="1523" 
d="M762 1274q-203 0 -322 -153q-118 -153 -118 -439t120 -440t320 -154t320 155t120 441t-118 438t-322 152zM778 1389q301 0 464 -196t163 -504t-180 -512q-181 -204 -479 -204t-462 199t-165 507q0 308 179 509t480 201zM784 1610q82 0 130 42t79 126l68 -29
q-25 -131 -105 -200t-206 -68q-256 0 -287 252l121 45q49 -168 200 -168z" />
    <glyph glyph-name="obreve" unicode="&#x14f;" horiz-adv-x="1138" 
d="M569 948q-291 0 -291 -436t292 -436q290 0 290 436t-291 436zM88 508q0 234 136 388t361 155q226 0 346 -150q120 -149 120 -383q-1 -234 -137 -390t-361 -155q-225 0 -345 151q-120 150 -120 384zM590 1329q80 0 124 52t66 157l68 -29q-16 -153 -92 -231t-201 -78
t-194 77q-68 77 -74 216l121 45q33 -209 182 -209z" />
    <glyph glyph-name="Ohungarumlaut" unicode="&#x150;" horiz-adv-x="1523" 
d="M762 1274q-203 0 -322 -153q-118 -153 -118 -439t120 -440t320 -154t320 155t120 441t-118 438t-322 152zM778 1389q301 0 464 -196t163 -504t-180 -512q-181 -204 -479 -204t-462 199t-165 507q0 308 179 509t480 201zM918 1808h51q78 -18 127 -79l-170 -248h-86z
M588 1808h51q78 -18 127 -79l-170 -248h-86z" />
    <glyph glyph-name="ohungarumlaut" unicode="&#x151;" horiz-adv-x="1138" 
d="M569 948q-291 0 -291 -436t292 -436q290 0 290 436t-291 436zM88 508q0 234 136 388t361 155q226 0 346 -150q120 -149 120 -383q-1 -234 -137 -390t-361 -155q-225 0 -345 151q-120 150 -120 384zM768 1571h51q84 -14 144 -80l-203 -317h-86zM438 1571h51
q84 -14 144 -80l-203 -317h-86z" />
    <glyph glyph-name="OE" unicode="&#x152;" horiz-adv-x="1976" 
d="M801 1280q-221 0 -350 -155.5t-129 -441.5t129 -443.5t350 -157.5q139 0 243 49v1098q-109 51 -243 51zM772 -27q-305 0 -479 199t-174 507t188.5 509t493.5 201q119 0 248 -27h811q10 -47 10 -133t-10 -164h-119l-25 174l-489 16v-497h264l22 127h93v-379h-93l-24 143
h-262v-545l487 17l49 190l119 -12q4 -53 4.5 -111.5t-26.5 -187.5h-813q-145 -27 -275 -27z" />
    <glyph glyph-name="oe" unicode="&#x153;" horiz-adv-x="1736" 
d="M997 586l471 41q-4 322 -196 321q-109 0 -186 -94t-89 -268zM559.5 76q280.5 0 280.5 436t-280.5 436t-280.5 -436t280.5 -436zM553 -27q-229 0 -347 149.5t-118 385.5t133 389.5t365.5 153.5t331.5 -199h20q113 199 350 199q172 0 260 -103.5t88 -269.5q0 -72 -16 -154
h-2l-623 -20q4 -197 88 -301.5t228.5 -104.5t287.5 129l43 -65q-145 -188 -380.5 -188.5t-341.5 198.5h-21q-117 -199 -346 -199z" />
    <glyph glyph-name="Racute" unicode="&#x154;" horiz-adv-x="1290" 
d="M735 680q154 91 154 291q0 149 -76 217t-244 69h-125v-577h291zM444 569v-463l181 -10v-96h-527v96l164 31v1128l-166 11v96q226 10 402 10t288 -31q306 -84 306 -359t-295 -374l-6 -20q75 -80 189 -245t155 -214l139 -51l-8 -72q-68 -22 -142 -22t-126 36t-92 92
t-142 217t-160 240h-160zM516 1491l227 348h54q82 -35 123 -106l-291 -242h-113z" />
    <glyph glyph-name="racute" unicode="&#x155;" horiz-adv-x="792" 
d="M592 0h-514v92l143 31v756l-143 36v84q150 37 262 45l41 -8l-12 -217h20q133 231 252 232q80 0 115 -72l-19 -135h-213q-80 -55 -135 -160v-582l203 -10v-92zM281 1174l204 397h54q80 -33 125 -109l-277 -288h-106z" />
    <glyph glyph-name="Rcommaaccent" unicode="&#x156;" horiz-adv-x="1290" 
d="M697 -109q44 0 75 -16q37 -57 37 -133t-48 -144t-132 -98l-33 51q102 76 102 142q0 18 -2 31l-86 14v139q43 14 87 14zM735 680q154 91 154 291q0 149 -76 217t-244 69h-125v-577h291zM444 569v-463l181 -10v-96h-527v96l164 31v1128l-166 11v96q226 10 402 10t288 -31
q306 -84 306 -359t-295 -374l-6 -20q75 -80 189 -245t155 -214l139 -51l-8 -72q-68 -22 -142 -22t-126 36t-92 92t-142 217t-160 240h-160z" />
    <glyph glyph-name="rcommaaccent" unicode="&#x157;" horiz-adv-x="792" 
d="M325 -109q44 0 74 -16q37 -57 37 -133t-48 -144t-132 -98l-33 51q102 76 103 142q0 18 -2 31l-86 14v139q43 14 87 14zM592 0h-514v92l143 31v756l-143 36v84q150 37 262 45l41 -8l-12 -217h20q133 231 252 232q80 0 115 -72l-19 -135h-213q-80 -55 -135 -160v-582
l203 -10v-92z" />
    <glyph glyph-name="Rcaron" unicode="&#x158;" horiz-adv-x="1290" 
d="M735 680q154 91 154 291q0 149 -76 217t-244 69h-125v-577h291zM444 569v-463l181 -10v-96h-527v96l164 31v1128l-166 11v96q226 10 402 10t288 -31q306 -84 306 -359t-295 -374l-6 -20q75 -80 189 -245t155 -214l139 -51l-8 -72q-68 -22 -142 -22t-126 36t-92 92
t-142 217t-160 240h-160zM315 1761l121 82l201 -168h20l177 146h120l-292 -330h-103z" />
    <glyph glyph-name="rcaron" unicode="&#x159;" horiz-adv-x="792" 
d="M592 0h-514v92l143 31v756l-143 36v84q150 37 262 45l41 -8l-12 -217h20q133 231 252 232q80 0 115 -72l-19 -135h-213q-80 -55 -135 -160v-582l203 -10v-92zM74 1505l121 72l182 -217h20l158 205h109l-263 -389h-102z" />
    <glyph glyph-name="Sacute" unicode="&#x15a;" horiz-adv-x="1124" 
d="M542 84q288 0 286 212q0 108 -56 166q-55 58 -178 113l-174 80q-78 35 -131 75t-93 114t-40 178t53 190q110 175 385 177q180 0 352 -82q12 -57 12 -113t-12 -150h-121l-26 191q-100 43 -220 43t-189 -59q-68 -59 -68 -157t41 -144t139 -91l166 -75q262 -115 322 -263
q26 -63 26 -143q0 -188 -133 -280t-339 -92t-392 81q-23 106 -23 164t6 100l107 13l57 -201q103 -47 243 -47zM485 1481l228 348h53q82 -35 123 -107l-291 -241h-113z" />
    <glyph glyph-name="sacute" unicode="&#x15b;" horiz-adv-x="911" 
d="M432 -27q-174 0 -334 70q-10 47 -10 121t10 137h123l27 -190q74 -35 174 -35q225 0 225 160q0 68 -43 108t-137 78l-102 41q-119 49 -182 111q-62 62 -62 190t97 208q98 79 254 79t302 -66q10 -47 10 -122t-10 -136h-112l-25 184q-78 37 -167 37t-142 -42
q-54 -42 -54 -112t35 -102t121 -67l111 -43q143 -55 213 -120t69 -188q-1 -154 -109 -228t-282 -73zM381 1174l205 397h53q80 -33 125 -109l-277 -288h-106z" />
    <glyph glyph-name="Scircumflex" unicode="&#x15c;" horiz-adv-x="1124" 
d="M542 84q288 0 286 212q0 108 -56 166q-55 58 -178 113l-174 80q-78 35 -131 75t-93 114t-40 178t53 190q110 175 385 177q180 0 352 -82q12 -57 12 -113t-12 -150h-121l-26 191q-100 43 -220 43t-189 -59q-68 -59 -68 -157t41 -144t139 -91l166 -75q262 -115 322 -263
q26 -63 26 -143q0 -188 -133 -280t-339 -92t-392 81q-23 106 -23 164t6 100l107 13l57 -201q103 -47 243 -47zM240 1481l292 329h103l244 -270l-121 -82l-201 168h-20l-177 -145h-120z" />
    <glyph glyph-name="scircumflex" unicode="&#x15d;" horiz-adv-x="911" 
d="M432 -27q-174 0 -334 70q-10 47 -10 121t10 137h123l27 -190q74 -35 174 -35q225 0 225 160q0 68 -43 108t-137 78l-102 41q-119 49 -182 111q-62 62 -62 190t97 208q98 79 254 79t302 -66q10 -47 10 -122t-10 -136h-112l-25 184q-78 37 -167 37t-142 -42
q-54 -42 -54 -112t35 -102t121 -67l111 -43q143 -55 213 -120t69 -188q-1 -154 -109 -228t-282 -73zM135 1174l262 389h103l225 -330l-121 -72l-182 217h-21l-157 -204h-109z" />
    <glyph glyph-name="Scedilla" unicode="&#x15e;" horiz-adv-x="1124" 
d="M542 84q288 0 286 212q0 108 -56 166q-55 58 -178 113l-174 80q-78 35 -131 75t-93 114t-40 178t53 190q110 175 385 177q180 0 352 -82q12 -57 12 -113t-12 -150h-121l-26 191q-100 43 -220 43t-189 -59q-68 -59 -68 -157t41 -144t139 -91l166 -75q262 -115 322 -263
q26 -63 26 -143q0 -176 -118 -268t-312 -103v-112q176 -5 176 -139q0 -66 -60 -113t-170 -47t-186 55l19 74q86 -29 135 -29t81 20q31 20 31 54q0 35 -27 48q-28 13 -118 30l25 157q-172 8 -340 82q-23 106 -23 164t6 100l107 13l57 -201q103 -47 243 -47z" />
    <glyph glyph-name="scedilla" unicode="&#x15f;" horiz-adv-x="911" 
d="M672 -276q0 -66 -60 -113t-170 -47t-186 55l18 74q86 -29 126 -29q122 0 122 78q0 23 -17 38t-128 36l24 157q-156 4 -303 70q-10 47 -10 121t10 137h123l27 -190q74 -35 174 -35q225 0 225 160q0 68 -43 108t-137 78l-102 41q-119 49 -182 111q-62 62 -62 190t97 208
q98 79 254 79t302 -66q10 -47 10 -122t-10 -136h-112l-25 184q-78 37 -167 37t-142 -42q-54 -42 -54 -112t35 -102t121 -67l111 -43q143 -55 213 -120t70 -195t-90 -204q-89 -74 -238 -88v-112q176 -5 176 -139z" />
    <glyph glyph-name="Scaron" unicode="&#x160;" horiz-adv-x="1124" 
d="M542 84q288 0 286 212q0 108 -56 166q-55 58 -178 113l-174 80q-78 35 -131 75t-93 114t-40 178t53 190q110 175 385 177q180 0 352 -82q12 -57 12 -113t-12 -150h-121l-26 191q-100 43 -220 43t-189 -59q-68 -59 -68 -157t41 -144t139 -91l166 -75q262 -115 322 -263
q26 -63 26 -143q0 -188 -133 -280t-339 -92t-392 81q-23 106 -23 164t6 100l107 13l57 -201q103 -47 243 -47zM285 1751l121 82l200 -168h21l176 145h121l-293 -329h-103z" />
    <glyph glyph-name="scaron" unicode="&#x161;" horiz-adv-x="911" 
d="M432 -27q-174 0 -334 70q-10 47 -10 121t10 137h123l27 -190q74 -35 174 -35q225 0 225 160q0 68 -43 108t-137 78l-102 41q-119 49 -182 111q-62 62 -62 190t97 208q98 79 254 79t302 -66q10 -47 10 -122t-10 -136h-112l-25 184q-78 37 -167 37t-142 -42
q-54 -42 -54 -112t35 -102t121 -67l111 -43q143 -55 213 -120t69 -188q-1 -154 -109 -228t-282 -73zM174 1505l121 72l182 -217h21l157 205h109l-262 -389h-103z" />
    <glyph glyph-name="Tcedilla" unicode="&#x162;" horiz-adv-x="1155" 
d="M625 -137q176 -5 176 -139q-1 -66 -61 -113t-170 -47t-185 55l18 74q85 -29 135 -29t82 20t32 54q0 35 -28 48t-118 30l29 184h-232v96l184 31v1130l-292 -12l-29 -201h-119q-10 66 -10 168t10 150h1061q10 -46 10 -148t-10 -170h-119l-28 201l-291 12v-1151l184 -10v-96
h-229v-137z" />
    <glyph glyph-name="tcedilla" unicode="&#x163;" horiz-adv-x="733" 
d="M610 -268q0 -74 -60 -121t-170 -47t-185 55l18 74q86 -29 133 -29q115 0 115 78q0 31 -28 44t-118 30l27 174q-152 49 -152 225v700l-143 11v82l146 32l104 254l61 -4v-266h306v-109h-306v-675q0 -80 32 -112t107 -32t181 43l24 -80q-109 -86 -249 -86h-19v-110
q176 -6 176 -131z" />
    <glyph glyph-name="Tcaron" unicode="&#x164;" horiz-adv-x="1155" 
d="M1118 1212q0 -102 -10 -168h-119l-28 201l-291 12v-1151l184 -10v-96h-551v96l184 31v1130l-292 -12l-29 -201h-119q-10 66 -10 168t10 150h1061q10 -48 10 -150zM283 1751l120 82l201 -168h21l176 145h121l-293 -329h-103z" />
    <glyph glyph-name="tcaron" unicode="&#x165;" horiz-adv-x="733" 
d="M358 915v-675q0 -80 32 -112t107 -32t181 43l24 -80q-110 -86 -238 -86q-274 0 -274 242v700l-143 11v82l146 32l104 254l61 -4v-266h306v-109h-306zM612 1542q51 0 86 -18q43 -72 43 -150q0 -201 -219 -264l-22 59q115 49 114 140q0 20 -4 37l-92 16l-4 168q47 12 98 12
z" />
    <glyph glyph-name="Tbar" unicode="&#x166;" horiz-adv-x="1155" 
d="M1118 1214q0 -102 -10 -170h-119l-28 201l-291 12v-604h299v-104h-299v-443l184 -10v-96h-551v96l184 31v422h-301v104h301v604l-292 -12l-29 -201h-119q-10 66 -10 168t10 150h1061q10 -46 10 -148z" />
    <glyph glyph-name="tbar" unicode="&#x167;" horiz-adv-x="770" 
d="M496 -27q-276 0 -275 242v389h-143v109h143v202l-143 11v82l145 32l105 254l61 -4v-266h305v-109h-305v-202h305v-109h-305v-364q0 -80 32 -112t107 -32t181 43l24 -80q-107 -86 -237 -86z" />
    <glyph glyph-name="Utilde" unicode="&#x168;" horiz-adv-x="1507" 
d="M1264 457q0 -219 -130 -351t-374 -133t-380 135t-136 363v784l-166 11v96h518v-96l-170 -31v-762q0 -385 350 -385t350 385v782l-192 11v96h493v-96l-163 -31v-778zM640 1759q48 0 101 -26l172 -84l109 106l55 -55q-57 -109 -100 -144q-78 -63 -193 -8l-172 84l-108 -106
l-55 55q57 109 100 143t91 35z" />
    <glyph glyph-name="utilde" unicode="&#x169;" horiz-adv-x="1218" 
d="M500 -27q-147 0 -239 89q-91 89 -91 257v560l-143 36v84q158 37 270 45l41 -8v-688q0 -242 213 -242q160 0 278 150v623l-143 36v84q158 37 270 45l41 -8v-886l144 -37v-84q-158 -37 -271 -45l-41 8l11 147h-21q-139 -166 -319 -166zM860 1423q-91 -188 -202 -188
q-36 0 -91 29l-149 77l-111 -106l-55 55q64 131 133 170q69 38 160 -10l149 -78l111 107z" />
    <glyph glyph-name="Umacron" unicode="&#x16a;" horiz-adv-x="1507" 
d="M1264 457q0 -219 -130 -351t-374 -133t-380 135t-136 363v784l-166 11v96h518v-96l-170 -31v-762q0 -385 350 -385t350 385v782l-192 11v96h493v-96l-163 -31v-778zM475 1632q0 38 8 70h570q8 -32 8 -70t-8 -69h-570q-8 31 -8 69z" />
    <glyph glyph-name="umacron" unicode="&#x16b;" horiz-adv-x="1218" 
d="M500 -27q-147 0 -239 89q-91 89 -91 257v560l-143 36v84q158 37 270 45l41 -8v-688q0 -242 213 -242q160 0 278 150v623l-143 36v84q158 37 270 45l41 -8v-886l144 -37v-84q-158 -37 -271 -45l-41 8l11 147h-21q-139 -166 -319 -166zM285 1338q0 36 8 67h528q8 -31 8 -67
t-8 -68h-528q-8 32 -8 68z" />
    <glyph glyph-name="Ubreve" unicode="&#x16c;" horiz-adv-x="1507" 
d="M1264 457q0 -219 -130 -351t-374 -133t-380 135t-136 363v784l-166 11v96h518v-96l-170 -31v-762q0 -385 350 -385t350 385v782l-192 11v96h493v-96l-163 -31v-778zM786 1610q82 0 130 42t79 126l68 -29q-25 -131 -105 -200t-206 -68q-256 0 -287 252l121 45
q49 -168 200 -168z" />
    <glyph glyph-name="ubreve" unicode="&#x16d;" horiz-adv-x="1218" 
d="M500 -27q-147 0 -239 89q-91 89 -91 257v560l-143 36v84q158 37 270 45l41 -8v-688q0 -242 213 -242q160 0 278 150v623l-143 36v84q158 37 270 45l41 -8v-886l144 -37v-84q-158 -37 -271 -45l-41 8l11 147h-21q-139 -166 -319 -166zM542 1200q-124 0 -193 77t-75 216
l121 45q33 -209 183 -209q80 1 124 53t66 156l68 -29q-16 -153 -92 -231q-78 -78 -202 -78z" />
    <glyph glyph-name="Uring" unicode="&#x16e;" horiz-adv-x="1507" 
d="M1264 457q0 -219 -130 -351t-374 -133t-380 135t-136 363v784l-166 11v96h518v-96l-170 -31v-762q0 -385 350 -385t350 385v782l-192 11v96h493v-96l-163 -31v-778zM764 1554q84 0 84 94t-85 95q-85 0 -85 -94q0 -45 22 -70t64 -25zM772 1829q102 0 156 -46t55 -132
q-1 -87 -63 -135t-165 -48t-159 46q-55 46 -55 132t64 135q65 48 167 48z" />
    <glyph glyph-name="uring" unicode="&#x16f;" horiz-adv-x="1218" 
d="M500 -27q-147 0 -239 89q-91 89 -91 257v560l-143 36v84q158 37 270 45l41 -8v-688q0 -242 213 -242q160 0 278 150v623l-143 36v84q158 37 270 45l41 -8v-886l144 -37v-84q-158 -37 -271 -45l-41 8l11 147h-21q-139 -166 -319 -166zM556 1491q-85 -1 -85 -105t85 -104
t85 104t-85 105zM548 1196q-101 0 -158 47q-56 47 -56 140t65 144q66 50 166 50q99 0 155 -48t56 -140t-63 -143q-64 -50 -165 -50z" />
    <glyph glyph-name="Uhungarumlaut" unicode="&#x170;" horiz-adv-x="1507" 
d="M1264 457q0 -219 -130 -351t-374 -133t-380 135t-136 363v784l-166 11v96h518v-96l-170 -31v-762q0 -385 350 -385t350 385v782l-192 11v96h493v-96l-163 -31v-778zM842 1481l78 327h51q78 -18 127 -79l-170 -248h-86zM512 1481l78 327h51q78 -18 127 -79l-170 -248h-86z
" />
    <glyph glyph-name="uhungarumlaut" unicode="&#x171;" horiz-adv-x="1218" 
d="M500 -27q-147 0 -239 89q-91 89 -91 257v560l-143 36v84q158 37 270 45l41 -8v-688q0 -242 213 -242q160 0 278 150v623l-143 36v84q158 37 270 45l41 -8v-886l144 -37v-84q-158 -37 -271 -45l-41 8l11 147h-21q-139 -166 -319 -166zM662 1174l94 397h51q84 -14 143 -80
l-202 -317h-86zM332 1174l94 397h51q84 -14 144 -80l-203 -317h-86z" />
    <glyph glyph-name="Uogonek" unicode="&#x172;" horiz-adv-x="1507" 
d="M1264 457q0 -158 -47 -246t-136 -156q-73 -49 -106 -79l-65 -65q-60 -60 -60 -136q0 -111 129 -111q57 0 117 23l18 -74q-66 -49 -180 -49t-171 48q-58 48 -58 130q0 135 131 225l-7 17q-41 -10 -96 -11q-221 -1 -355 137t-134 361v784l-166 11v96h518v-96l-170 -31v-762
q0 -385 354 -385q174 0 260 93t86 292v782l-192 11v96h493v-96l-163 -31v-778z" />
    <glyph glyph-name="uogonek" unicode="&#x173;" horiz-adv-x="1218" 
d="M1006 -336q57 0 116 23l19 -74q-65 -49 -179 -49t-172 49t-59 137q0 143 133 227l-24 162h-21q-139 -166 -319 -166q-147 0 -239 89q-91 89 -91 257v560l-143 36v84q158 37 270 45l41 -8v-688q0 -242 213 -242q160 0 278 150v623l-143 36v84q158 37 270 45l41 -8v-886
l144 -37v-84q-109 -33 -187 -95t-77 -155q0 -115 129 -115z" />
    <glyph glyph-name="Wcircumflex" unicode="&#x174;" horiz-adv-x="2062" 
d="M27 1362h501v-96l-180 -31q147 -539 320 -1055h20q233 682 297 883l-59 192l-117 11v96h506v-96l-195 -31q10 -39 62 -211t76 -255q105 -356 190 -589h20q174 549 312 1075l-185 11v96h441v-96l-117 -29q-205 -672 -403 -1237l-138 -27h-20q-248 715 -301 883h-21
q-166 -514 -301 -856l-139 -27h-21q-250 698 -432 1284l-116 9v96zM692 1481l293 329h102l244 -270l-121 -82l-200 168h-21l-176 -145h-121z" />
    <glyph glyph-name="wcircumflex" unicode="&#x175;" horiz-adv-x="1701" 
d="M16 1024h426v-92l-104 -31q55 -231 205 -700h20q184 539 264 823l119 27h23q127 -496 239 -850h21q150 483 205 721l-158 10v92h410v-92l-125 -29q-111 -379 -295 -903l-117 -27h-21q-139 418 -247 809h-19q-209 -633 -262 -782l-117 -27h-20q-197 535 -316 949l-131 10
v92zM571 1174l263 389h102l225 -330l-121 -72l-182 217h-20l-158 -204h-109z" />
    <glyph glyph-name="Ycircumflex" unicode="&#x176;" horiz-adv-x="1304" 
d="M940 0h-551v96l184 31v356q-205 348 -423 772l-123 11v96h501v-96l-174 -29q186 -373 328 -606h20q147 236 326 624l-190 11v96h440v-96l-117 -31q-166 -342 -405 -748v-381l184 -10v-96zM313 1481l293 329h103l243 -270l-121 -82l-200 168h-21l-176 -145h-121z" />
    <glyph glyph-name="ycircumflex" unicode="&#x177;" horiz-adv-x="1157" 
d="M16 1024h426v-92l-104 -29q104 -313 266 -702h23q168 422 262 721l-158 10v92h410v-92l-125 -29q-143 -401 -402 -1018q-135 -322 -344 -321q-98 0 -143 61l16 107h265q82 129 124 254q-168 367 -382 936l-134 10v92zM289 1174l262 389h102l226 -330l-121 -72l-183 217
h-20l-158 -204h-108z" />
    <glyph glyph-name="Ydieresis" unicode="&#x178;" horiz-adv-x="1304" 
d="M940 0h-551v96l184 31v356q-205 348 -423 772l-123 11v96h501v-96l-174 -29q186 -373 328 -606h20q147 236 326 624l-190 11v96h440v-96l-117 -31q-166 -342 -405 -748v-381l184 -10v-96zM888 1745q52 0 77 -8q71 -88 -4 -203h-138l-26 195q39 16 91 16zM398 1745
q52 0 77 -8q33 -41 33 -95t-37 -108h-137l-27 195q39 16 91 16z" />
    <glyph glyph-name="Zacute" unicode="&#x179;" horiz-adv-x="1198" 
d="M1130 183q0 -83 -26 -183h-1016l-10 41l665 1014q91 134 138 194l-11 15l-606 -23l-26 -197h-121q-27 192 -2 318h1001l10 -41l-645 -983q-110 -160 -159 -225l10 -15l624 23l48 211l122 -13q4 -53 4 -136zM506 1481l227 348h53q82 -35 123 -107l-291 -241h-112z" />
    <glyph glyph-name="zacute" unicode="&#x17a;" horiz-adv-x="933" 
d="M866 177q0 -79 -26 -177h-758l-14 86l438 633q31 47 139 196l-8 15l-395 -17l-27 -186h-113q-10 66 -10 158t10 139h727l15 -88l-436 -631q-31 -47 -140 -196l8 -15l422 15l52 202l112 -10q4 -45 4 -124zM389 1174l205 397h53q80 -33 125 -109l-276 -288h-107z" />
    <glyph glyph-name="Zdotaccent" unicode="&#x17b;" horiz-adv-x="1198" 
d="M1130 183q0 -83 -26 -183h-1016l-10 41l665 1014q91 134 138 194l-11 15l-606 -23l-26 -197h-121q-27 192 -2 318h1001l10 -41l-645 -983q-110 -160 -159 -225l10 -15l624 23l48 211l122 -13q4 -53 4 -136zM604 1751q52 0 86 -10q35 -51 35 -103t-47 -116h-146l-22 211
q42 18 94 18z" />
    <glyph glyph-name="zdotaccent" unicode="&#x17c;" horiz-adv-x="933" 
d="M866 177q0 -79 -26 -177h-758l-14 86l438 633q31 47 139 196l-8 15l-395 -17l-27 -186h-113q-10 66 -10 158t10 139h727l15 -88l-436 -631q-31 -47 -140 -196l8 -15l422 15l52 202l112 -10q4 -45 4 -124zM383 1260l-25 208q120 33 179 7q35 -51 35 -101t-46 -114h-143z
" />
    <glyph glyph-name="Zcaron" unicode="&#x17d;" horiz-adv-x="1198" 
d="M1130 183q0 -83 -26 -183h-1016l-10 41l665 1014q91 134 138 194l-11 15l-606 -23l-26 -197h-121q-27 192 -2 318h1001l10 -41l-645 -983q-110 -160 -159 -225l10 -15l624 23l48 211l122 -13q4 -53 4 -136zM305 1751l121 82l201 -168h20l176 145h121l-293 -329h-102z" />
    <glyph glyph-name="zcaron" unicode="&#x17e;" horiz-adv-x="933" 
d="M866 177q0 -79 -26 -177h-758l-14 86l438 633q31 47 139 196l-8 15l-395 -17l-27 -186h-113q-10 66 -10 158t10 139h727l15 -88l-436 -631q-31 -47 -140 -196l8 -15l422 15l52 202l112 -10q4 -45 4 -124zM182 1505l121 72l182 -217h21l158 205h108l-262 -389h-102z" />
    <glyph glyph-name="longs" unicode="&#x17f;" horiz-adv-x="600" 
d="M221 1130q0 312 219 391q62 21 154 21t168 -44t76 -110t-43 -106h-125l-23 154q-25 4 -49 4q-209 0 -209 -279v-1059l174 -10v-92h-485v92l143 31v792l-143 11v82l143 32v90z" />
    <glyph glyph-name="uni018F" unicode="&#x18f;" 
d="M322 504q0 -205 57 -301q57 -97 195 -97t238 118q99 118 122 343l-612 -18v-45zM545 -27q-211 0 -319 133t-107 353q0 98 18 200h801v21q0 279 -106 427q-106 149 -286 149q-178 0 -362 -154l-47 67q185 219 449 219t409 -196q145 -198 145 -506t-166 -510
q-167 -202 -429 -203z" />
    <glyph glyph-name="florin" unicode="&#x192;" horiz-adv-x="1153" 
d="M907 1245q94 0 160 -44t66 -105t-58 -107h-110l-23 166h-27q-176 0 -213 -293l-14 -108h211v-103h-223l-51 -409q-27 -216 -136 -314t-247 -98q-94 0 -158 41t-64 105t58 110h115l22 -166h23q176 0 213 291l55 440h-139v103h151l10 77q28 209 134 311t245 103z" />
    <glyph glyph-name="Aringacute" unicode="&#x1fa;" horiz-adv-x="1384" 
d="M424 510h471q-133 383 -229 631h-21q-86 -221 -221 -631zM672 1505q-41 -1 -64 -25q-22 -24 -22 -69t22 -70t63 -25t63 26q22 24 22 69q0 94 -84 94zM1358 0h-481v96l149 29q-43 127 -94 278h-543q-53 -164 -94 -297l147 -10v-96h-415v96l129 29q201 594 405 1120
q-113 39 -112 160q0 90 64 138q65 48 167 48t156 -46t55 -128q0 -113 -98 -160q160 -391 434 -1151l131 -10v-96zM631 1665l194 303h54q76 -43 112 -96l-254 -207h-106z" />
    <glyph glyph-name="aringacute" unicode="&#x1fb;" horiz-adv-x="1056" 
d="M659 449q-207 -1 -297 -49t-90 -158q0 -146 150 -146t272 158l4 195h-39zM840 -16q-135 0 -133 127v28h-21q-70 -80 -142 -123t-192 -43q-118 0 -191 71t-73 185q0 165 165 244q114 57 312 57q74 0 133 -8l2 197q4 229 -231 229q-61 0 -115 -12l-32 -234h-123
q-57 43 -58 107q0 104 120 173q121 69 267 69t244 -85t96 -237l-6 -610l146 -10v-80q-86 -45 -168 -45zM610 1314q0 104 -85 105q-85 0 -85 -104t84 -105q86 0 86 104zM745 1317q1 -93 -63 -143t-165 -50t-158 47q-56 47 -56 141t66 143q66 50 166 50t155 -48t55 -140z
M465 1579l174 283h53q76 -43 113 -97l-234 -186h-106z" />
    <glyph glyph-name="AEacute" unicode="&#x1fc;" horiz-adv-x="1859" 
d="M928 1255h-45q-147 -260 -389 -745h434v745zM1769 188q0 -58 -26 -188h-979v96l164 31v276h-486q-86 -172 -143 -297l143 -10v-96h-415v96l133 29q262 541 596 1135l-135 6v96h1122q10 -47 10 -133t-10 -164h-119l-25 174l-489 16v-497h264l23 127h92v-379h-92l-27 143
h-260v-545l487 17l50 190l118 -12q4 -53 4 -111zM1014 1481l227 348h53q82 -35 123 -107l-291 -241h-112z" />
    <glyph glyph-name="aeacute" unicode="&#x1fd;" horiz-adv-x="1587" 
d="M426 96q156 0 289 189q-23 86 -25 198q-229 -23 -324 -77t-96 -162q0 -148 156 -148zM848 586l471 41q-4 322 -197 321q-110 0 -186 -94t-88 -268zM362 -27q-134 0 -204 71t-70 185q0 178 161 253q154 74 443 83l4 133q4 125 -63 188q-68 62 -174 62q-53 0 -105 -14
l-32 -232h-123q-57 39 -58 107q0 102 115 172t260 70q227 0 279 -181h20q92 180 324 181q172 1 260 -103t88 -270q0 -72 -17 -154l-624 -20q4 -197 88 -301q84 -105 228 -105t288 129l43 -65q-145 -188 -396 -188t-349 212h-21q-145 -213 -365 -213zM729 1174l205 397h53
q80 -33 125 -109l-276 -288h-107z" />
    <glyph glyph-name="Oslashacute" unicode="&#x1fe;" horiz-adv-x="1523" 
d="M750 88q216 0 334 155t118 457q0 244 -80 385l-630 -915q100 -82 258 -82zM774 1274q-215 0 -334 -152q-118 -152 -118 -434t88 -424l634 920q-102 90 -270 90zM1405 702q0 -322 -180 -525q-180 -204 -480 -204q-193 0 -337 90l-146 -210l-92 38l-10 23l153 225
q-94 95 -144 233t-50 300q0 315 179 516t482 201q205 0 350 -99l152 219l92 -39l10 -22l-159 -236q180 -188 180 -510zM680 1481l227 348h54q82 -35 122 -107l-290 -241h-113z" />
    <glyph glyph-name="oslashacute" unicode="&#x1ff;" horiz-adv-x="1138" 
d="M561 76q299 0 299 430q0 211 -51 311l-408 -698q61 -43 160 -43zM571 948q-295 0 -292 -448q0 -181 45 -279l403 690q-59 37 -156 37zM1051 540q-1 -256 -137 -412t-363 -155q-123 0 -217 50l-109 -185l-90 39l-12 21l115 194q-150 146 -150 398t135 406t363 155
q117 0 209 -45l116 198l90 -39l13 -20l-121 -205q158 -144 158 -400zM502 1174l205 397h53q80 -33 125 -109l-277 -288h-106z" />
    <glyph glyph-name="Scommaaccent" unicode="&#x218;" horiz-adv-x="1124" 
d="M529 -109q44 0 75 -16q37 -57 37 -133t-48 -144t-132 -98l-33 51q102 76 102 142q0 18 -2 31l-86 14v139q43 14 87 14zM542 84q288 0 286 212q0 108 -56 166q-55 58 -178 113l-174 80q-78 35 -131 75t-93 114t-40 178t53 190q110 175 385 177q180 0 352 -82
q12 -57 12 -113t-12 -150h-121l-26 191q-100 43 -220 43t-189 -59q-68 -59 -68 -157t41 -144t139 -91l166 -75q262 -115 322 -263q26 -63 26 -143q0 -188 -133 -280t-339 -92t-392 81q-23 106 -23 164t6 100l107 13l57 -201q103 -47 243 -47z" />
    <glyph glyph-name="scommaaccent" unicode="&#x219;" horiz-adv-x="911" 
d="M439 -109q44 0 75 -16q37 -57 37 -133t-48 -144t-132 -98l-33 51q102 76 102 142q0 18 -2 31l-86 14v139q43 14 87 14zM432 -27q-174 0 -334 70q-10 47 -10 121t10 137h123l27 -190q74 -35 174 -35q225 0 225 160q0 68 -43 108t-137 78l-102 41q-119 49 -182 111
q-62 62 -62 190t97 208q98 79 254 79t302 -66q10 -47 10 -122t-10 -136h-112l-25 184q-78 37 -167 37t-142 -42q-54 -42 -54 -112t35 -102t121 -67l111 -43q143 -55 213 -120t69 -188q-1 -154 -109 -228t-282 -73z" />
    <glyph glyph-name="uni021A" unicode="&#x21a;" horiz-adv-x="1155" 
d="M568 -109q44 0 75 -16q37 -57 37 -133t-48 -144t-132 -98l-33 51q102 76 102 142q0 18 -2 31l-86 14v139q43 14 87 14zM1118 1212q0 -102 -10 -168h-119l-28 201l-291 12v-1151l184 -10v-96h-551v96l184 31v1130l-292 -12l-29 -201h-119q-10 66 -10 168t10 150h1061
q10 -48 10 -150z" />
    <glyph glyph-name="uni021B" unicode="&#x21b;" horiz-adv-x="733" 
d="M378 -109q44 0 75 -16q37 -57 37 -133t-49 -144q-48 -68 -132 -98l-33 51q102 76 103 142q0 18 -2 31l-86 14v139q43 14 87 14zM464 -27q-274 0 -274 242v700l-143 11v82l146 32l104 254l61 -4v-266h306v-109h-306v-675q0 -80 32 -112t107 -32t181 43l24 -80
q-110 -86 -238 -86z" />
    <glyph glyph-name="dotlessj" unicode="&#x237;" horiz-adv-x="557" 
d="M373 -18q0 -158 -51.5 -248t-186.5 -170l-59 63l129 191v1061l-144 36v84q158 37 271 45l41 -8v-1054z" />
    <glyph glyph-name="uni0259" unicode="&#x259;" horiz-adv-x="1034" 
d="M477 76q148 0 229 150q40 77 52 186l-484 -19q0 -317 203 -317zM946 526q0 -246 -135 -400t-354 -153q-177 1 -267 103t-90 270q0 72 17 154h645q0 206 -86 316t-239 110t-300 -129l-43 65q147 188 391 189q152 0 258 -75q203 -144 203 -450z" />
    <glyph glyph-name="primemod" unicode="&#x2b9;" horiz-adv-x="378" 
d="M176 993h-115l48 469q98 23 174 23l34 -43z" />
    <glyph glyph-name="dblprimemod" unicode="&#x2ba;" horiz-adv-x="735" 
d="M532 993h-114l47 469q98 23 174 23l35 -43zM176 993h-115l48 469q98 23 174 23l34 -43z" />
    <glyph glyph-name="commaturnedmod" unicode="&#x2bb;" horiz-adv-x="342" 
d="M172 1391.5q0 -23.5 2 -35.5l86 -15v-139q-43 -14 -87 -14t-75 16q-37 57 -37 133t49.5 141.5t137.5 96.5l33 -51q-37 -27 -55.5 -42.5t-36 -41t-17.5 -49z" />
    <glyph glyph-name="circumflex" unicode="&#x2c6;" horiz-adv-x="712" 
d="M530 1161l-182 217h-20l-158 -204h-109l263 389h102l225 -330z" />
    <glyph glyph-name="caron" unicode="&#x2c7;" horiz-adv-x="712" 
d="M385 1360l158 205h108l-262 -389h-102l-226 329l121 72l183 -217h20z" />
    <glyph glyph-name="breve" unicode="&#x2d8;" horiz-adv-x="684" 
d="M365 1329q80 0 123.5 52.5t66.5 156.5l68 -29q-16 -152 -92 -230.5t-201 -78.5t-194 77t-75 216l121 45q33 -209 183 -209z" />
    <glyph glyph-name="dotaccent" unicode="&#x2d9;" horiz-adv-x="335" 
d="M86 1260l-25 208q120 33 179 7q35 -51 34.5 -101.5t-45.5 -113.5h-143z" />
    <glyph glyph-name="ring" unicode="&#x2da;" horiz-adv-x="565" 
d="M199 1386.5q0 -104.5 85 -104.5t85 104.5t-85 104.5t-85 -104.5zM293 1577q100 0 155.5 -48t55.5 -140t-63.5 -142.5t-165 -50.5t-158 47t-56.5 140t66 143.5t166 50.5z" />
    <glyph glyph-name="ogonek" unicode="&#x2db;" horiz-adv-x="532" 
d="M207 -221q0 -51 36 -83t93 -32t117 23l18 -74q-66 -49 -177.5 -49t-172 52t-60.5 134q1 160 226 293l65 -12q-145 -139 -145 -252z" />
    <glyph glyph-name="tilde" unicode="&#x2dc;" horiz-adv-x="731" 
d="M467 1235q-35 0 -90 29l-150 77l-110 -106l-56 55q92 189 205 189q33 0 88 -29l150 -78l110 107l56 -56q-91 -188 -203 -188z" />
    <glyph glyph-name="hungarumlaut" unicode="&#x2dd;" horiz-adv-x="741" 
d="M485 1571h52q84 -14 143 -80l-203 -317h-86zM156 1571h51q84 -14 143 -80l-203 -317h-86z" />
    <glyph glyph-name="commaaccentcomb" unicode="&#x326;" horiz-adv-x="0" 
d="M163 -109q44 0 75 -16q37 -57 36.5 -133t-48.5 -143.5t-132 -98.5l-33 51q102 76 103 142q0 18 -2 31l-86 14v139q43 14 87 14z" />
    <glyph glyph-name="Delta" unicode="&#x394;" horiz-adv-x="1189" 
d="M940 141l-354 992l-359 -992h713zM1147 0h-1104l-12 20l495 1342l113 27h20l500 -1369z" />
    <glyph glyph-name="Omega" unicode="&#x3a9;" horiz-adv-x="1445" 
d="M1405 176q0 -70 -14 -176h-535v301q287 141 287 490q0 229 -112 356q-113 127 -309 127t-308 -127t-111 -356q0 -348 287 -490v-301h-535q-14 104 -14 175t4 124l113 12l28 -137l301 -18v106q-163 45 -275 183t-112 348q0 251 160 417q78 82 200 130t274 48t270 -48
t192 -130q150 -167 150 -425t-180 -411q-87 -75 -208 -112v-106l302 18l28 137l113 -12q4 -53 4 -123z" />
    <glyph glyph-name="mu" unicode="&#x3bc;" horiz-adv-x="1232" 
d="M524 -27q-123 0 -196 95l-19 -9l29 -479q-55 -16 -150 -16l-34 33l30 514v903q74 20 127 30l41 -6v-690q0 -242 213 -242q160 0 279 150v758q74 20 127 30l41 -6v-888l143 -37v-84q-158 -37 -270 -45l-41 8l10 147h-20q-137 -166 -310 -166z" />
    <glyph glyph-name="pi" unicode="&#x3c0;" horiz-adv-x="1271" 
d="M991 -16q-156 0 -155 178q0 229 20 700h-405v-856q-55 -12 -148 -20l-41 14l31 506v356q-137 0 -258 -78l-35 54q53 102 129 144t229 42h848l15 -20l-21 -142h-186v-743l145 -10v-80q-86 -45 -168 -45z" />
    <glyph glyph-name="Wgrave" unicode="&#x1e80;" horiz-adv-x="2062" 
d="M27 1362h501v-96l-180 -31q147 -539 320 -1055h20q233 682 297 883l-59 192l-117 11v96h506v-96l-195 -31q10 -39 62 -211t76 -255q105 -356 190 -589h20q174 549 312 1075l-185 11v96h441v-96l-117 -29q-205 -672 -403 -1237l-138 -27h-20q-248 715 -301 883h-21
q-166 -514 -301 -856l-139 -27h-21q-250 698 -432 1284l-116 9v96zM1001 1481l-290 241q45 72 123 107h53l227 -348h-113z" />
    <glyph glyph-name="wgrave" unicode="&#x1e81;" horiz-adv-x="1701" 
d="M16 1024h426v-92l-104 -31q55 -231 205 -700h20q184 539 264 823l119 27h23q127 -496 239 -850h21q150 483 205 721l-158 10v92h410v-92l-125 -29q-111 -379 -295 -903l-117 -27h-21q-139 418 -247 809h-19q-209 -633 -262 -782l-117 -27h-20q-197 535 -316 949l-131 10
v92zM864 1174l-284 288q49 78 133 109h53l205 -397h-107z" />
    <glyph glyph-name="Wacute" unicode="&#x1e82;" horiz-adv-x="2062" 
d="M27 1362h501v-96l-180 -31q147 -539 320 -1055h20q233 682 297 883l-59 192l-117 11v96h506v-96l-195 -31q10 -39 62 -211t76 -255q105 -356 190 -589h20q174 549 312 1075l-185 11v96h441v-96l-117 -29q-205 -672 -403 -1237l-138 -27h-20q-248 715 -301 883h-21
q-166 -514 -301 -856l-139 -27h-21q-250 698 -432 1284l-116 9v96zM938 1481l227 348h54q82 -35 122 -107l-290 -241h-113z" />
    <glyph glyph-name="wacute" unicode="&#x1e83;" horiz-adv-x="1701" 
d="M16 1024h426v-92l-104 -31q55 -231 205 -700h20q184 539 264 823l119 27h23q127 -496 239 -850h21q150 483 205 721l-158 10v92h410v-92l-125 -29q-111 -379 -295 -903l-117 -27h-21q-139 418 -247 809h-19q-209 -633 -262 -782l-117 -27h-20q-197 535 -316 949l-131 10
v92zM817 1174l205 397h53q80 -33 125 -109l-276 -288h-107z" />
    <glyph glyph-name="Wdieresis" unicode="&#x1e84;" horiz-adv-x="2062" 
d="M27 1362h501v-96l-180 -31q147 -539 320 -1055h20q233 682 297 883l-59 192l-117 11v96h506v-96l-195 -31q10 -39 62 -211t76 -255q105 -356 190 -589h20q174 549 312 1075l-185 11v96h441v-96l-117 -29q-205 -672 -403 -1237l-138 -27h-20q-248 715 -301 883h-21
q-166 -514 -301 -856l-139 -27h-21q-250 698 -432 1284l-116 9v96zM1267 1745q52 0 76 -8q33 -41 33 -95t-37 -108h-137l-26 195q39 16 91 16zM778 1745q52 0 76 -8q33 -41 33 -95t-37 -108h-137l-27 195q40 16 92 16z" />
    <glyph glyph-name="wdieresis" unicode="&#x1e85;" horiz-adv-x="1701" 
d="M16 1024h426v-92l-104 -31q55 -231 205 -700h20q184 539 264 823l119 27h23q127 -496 239 -850h21q150 483 205 721l-158 10v92h410v-92l-125 -29q-111 -379 -295 -903l-117 -27h-21q-139 418 -247 809h-19q-209 -633 -262 -782l-117 -27h-20q-197 535 -316 949l-131 10
v92zM1086 1462q54 0 71 -8q33 -53 33 -96t-39 -103h-133l-25 191q39 16 93 16zM666 1462q54 0 71 -8q33 -53 33 -96t-39 -103h-133l-25 191q39 16 93 16z" />
    <glyph glyph-name="uni1E9E" unicode="&#x1e9e;" horiz-adv-x="1462" 
d="M1374 319q0 -161 -112 -253t-279 -92q-166 0 -309 81q-10 49 -10 126t12 157h121l30 -227q68 -27 140 -27q117 0 168 59t51 143t-36 132q-36 49 -131 134t-138 153t-43 159q0 213 229 357v18q-113 35 -256 35q-215 0 -317 -92t-103 -312v-870h-313v96l131 31v741
q0 270 152 396q153 125 409 125t440 -68v-111q-207 -160 -206 -295q0 -55 34 -107t106 -118q110 -100 170 -176q60 -77 60 -195z" />
    <glyph glyph-name="Ygrave" unicode="&#x1ef2;" horiz-adv-x="1304" 
d="M940 0h-551v96l184 31v356q-205 348 -423 772l-123 11v96h501v-96l-174 -29q186 -373 328 -606h20q147 236 326 624l-190 11v96h440v-96l-117 -31q-166 -342 -405 -748v-381l184 -10v-96zM623 1481l-291 241q45 72 123 107h53l227 -348h-112z" />
    <glyph glyph-name="ygrave" unicode="&#x1ef3;" horiz-adv-x="1157" 
d="M16 1024h426v-92l-104 -29q104 -313 266 -702h23q168 422 262 721l-158 10v92h410v-92l-125 -29q-143 -401 -402 -1018q-135 -322 -344 -321q-98 0 -143 61l16 107h265q82 129 124 254q-168 367 -382 936l-134 10v92zM582 1174l-285 288q49 78 133 109h53l205 -397h-106z
" />
    <glyph glyph-name="uni2009" unicode="&#x2009;" horiz-adv-x="286" 
 />
    <glyph glyph-name="endash" unicode="&#x2013;" horiz-adv-x="1212" 
d="M119 539v123h975v-123h-975z" />
    <glyph glyph-name="emdash" unicode="&#x2014;" horiz-adv-x="2031" 
d="M119 539v123h1794v-123h-1794z" />
    <glyph glyph-name="quoteleft" unicode="&#x2018;" horiz-adv-x="503" 
d="M260 1275q0 -38 4 -54l92 -17l4 -168q-45 -12 -97 -12t-87 18q-43 70 -43 166t60 187q60 90 169 123l23 -60q-53 -29 -89 -87t-36 -96z" />
    <glyph glyph-name="quoteright" unicode="&#x2019;" horiz-adv-x="503" 
d="M240 1501q52 0 88 -18q43 -73 43 -173q-1 -100 -61 -185t-169 -117l-22 59q53 29 89 81t36 118q0 23 -4 39l-93 16l-4 168q45 12 97 12z" />
    <glyph glyph-name="quotesinglbase" unicode="&#x201a;" horiz-adv-x="503" 
d="M371 4q-1 -100 -61 -186q-60 -84 -169 -117l-22 59q53 29 89 81t36 118q0 23 -4 39l-93 16l-4 168q118 30 185 -6q43 -72 43 -172z" />
    <glyph glyph-name="quotedblleft" unicode="&#x201c;" horiz-adv-x="860" 
d="M616 1275q0 -38 5 -54l92 -17l4 -168q-47 -12 -98 -12t-87 18q-43 70 -43 166q1 96 61 187q60 90 169 123l22 -60q-53 -29 -89 -87t-36 -96zM260 1275q0 -38 4 -54l92 -17l4 -168q-45 -12 -97 -12t-87 18q-43 70 -43 166t60 187q60 90 169 123l23 -60q-53 -29 -89 -87
t-36 -96z" />
    <glyph glyph-name="quotedblright" unicode="&#x201d;" horiz-adv-x="860" 
d="M597 1501q52 0 87 -18q43 -73 43 -173t-60 -185t-169 -117l-23 59q53 29 89 81t36 118q0 23 -4 39l-92 16l-4 168q45 12 97 12zM240 1501q52 0 88 -18q43 -73 43 -173q-1 -100 -61 -185t-169 -117l-22 59q53 29 89 81t36 118q0 23 -4 39l-93 16l-4 168q45 12 97 12z" />
    <glyph glyph-name="quotedblbase" unicode="&#x201e;" horiz-adv-x="860" 
d="M727 4q0 -100 -60 -186q-60 -84 -169 -117l-23 59q53 29 89 81t36 118q0 23 -4 39l-92 16l-4 168q116 31 184 -6q43 -72 43 -172zM371 4q-1 -100 -61 -186q-60 -84 -169 -117l-22 59q53 29 89 81t36 118q0 23 -4 39l-93 16l-4 168q118 30 185 -6q43 -72 43 -172z" />
    <glyph glyph-name="dagger" unicode="&#x2020;" horiz-adv-x="952" 
d="M553 768q0 -117 -37 -477h-80q-37 360 -37 477t37 244h80q37 -127 37 -244zM771 1010q-85 0 -222 41v79q133 44 220 44t122 -9v-147q-35 -8 -120 -8zM181 1010q-85 0 -120 8v147q35 9 123 9t219 -44v-79q-137 -41 -222 -41zM559 1394q0 -88 -43 -220h-80q-41 137 -41 222
t8 120h148q8 -34 8 -122z" />
    <glyph glyph-name="daggerdbl" unicode="&#x2021;" horiz-adv-x="993" 
d="M580 122q0 -87 -9 -122h-147q-8 35 -8 120t41 222h80q43 -133 43 -220zM791 506q85 0 120 -8v-148q-35 -8 -122 -8t-220 43v80q137 41 222 41zM202 506q85 0 222 -41v-80q-133 -43 -220 -43t-122 8v148q35 8 120 8zM420 758q0 127 37 254h80q73 -251 0 -508h-80
q-37 127 -37 254zM791 1010q-85 0 -222 41v79q133 44 220 44t122 -9v-147q-35 -8 -120 -8zM202 1010q-85 0 -120 8v147q35 9 122 9t220 -44v-79q-137 -41 -222 -41zM416 1396q0 85 8 120h147q9 -34 9 -122t-43 -220h-80q-41 137 -41 222z" />
    <glyph glyph-name="bullet" unicode="&#x2022;" horiz-adv-x="811" 
d="M407 850q123 0 187 -67t64 -185t-66 -186q-64 -66 -186 -66t-187 67t-65 185t66 186q66 66 187 66z" />
    <glyph glyph-name="ellipsis" unicode="&#x2026;" horiz-adv-x="1533" 
d="M1276 236q60 0 80 -7q45 -61 45 -116t-37 -113h-166l-37 205q55 31 115 31zM756 236q58 0 82 -7q45 -61 45 -116t-37 -113h-166l-37 205q55 31 113 31zM248 236q60 0 80 -7q45 -61 45 -116t-37 -113h-166l-37 205q55 31 115 31z" />
    <glyph glyph-name="perthousand" unicode="&#x2030;" horiz-adv-x="2447" 
d="M1319 643q-152 0 -152 -291t152 -291t151 291q1 291 -151 291zM2036 645q-152 0 -152 -291t152 -291t151 291q1 291 -151 291zM2024 -27q-150 1 -225 103t-75 271t87 277t235 107q148 0 225 -103q76 -103 76 -271t-87 -276q-86 -108 -236 -108zM1307 -27q-149 1 -225 103
t-74 271q0 169 86 277t236 107q148 0 224 -103t76 -271t-87 -276t-236 -108zM412 1157q-152 0 -152 -291t152 -291t151 291q1 291 -151 291zM400 487q-150 1 -225 103t-75 271t87 277t235 107q148 0 225 -103q76 -103 76 -271t-87 -276q-86 -108 -236 -108zM1300 1229l9 -25
q-43 -68 -172 -263t-201 -315t-199 -342t-207 -350l-98 50l-8 24q343 515 534 847q191 333 244 423z" />
    <glyph glyph-name="guilsinglleft" unicode="&#x2039;" horiz-adv-x="673" 
d="M328 567l180 -325l-82 -58l-307 369v29l305 368l82 -57z" />
    <glyph glyph-name="guilsinglright" unicode="&#x203a;" horiz-adv-x="673" 
d="M555 553l-307 -369l-82 58l180 325l-178 326l82 57l305 -368v-29z" />
    <glyph glyph-name="fraction" unicode="&#x2044;" horiz-adv-x="509" 
d="M727 1362l8 -25q-309 -469 -405 -627t-230 -392q-135 -234 -219 -367l-98 49l-8 25q307 467 409 633t233 396q132 230 212 357z" />
    <glyph glyph-name="Euro" unicode="&#x20ac;" horiz-adv-x="1189" 
d="M82 422v102h137q-2 33 -2 80t6 105h-141v102h160q51 201 185 317t326 117q192 0 285 -96q52 -53 52 -131t-54 -121h-121l-30 231q-66 12 -125 13q-272 0 -334 -330h371v-102h-385q-4 -51 -4 -99t2 -86h387v-102h-377q51 -324 313 -324q185 0 332 129l43 -65
q-147 -188 -391 -189q-133 -1 -235 57q-199 112 -251 392h-149z" />
    <glyph glyph-name="uni20B9" unicode="&#x20b9;" horiz-adv-x="946" 
d="M864 932v-103h-133q-16 -285 -375 -333l-4 -19q130 -125 192 -192t144 -156l139 -51l-8 -72q-68 -23 -131 -22q-121 0 -186 59q-43 39 -157 178t-239 311l35 58h246q131 51 141 239h-446v103h440q-23 113 -125 184h-315v103h782v-103h-264l-4 -16q106 -53 129 -168h139z
" />
    <glyph glyph-name="uni20BA" unicode="&#x20ba;" horiz-adv-x="1050" 
d="M473 -10q-117 0 -211 24v512l-186 -65l-13 20v84l199 70v194l-186 -65l-13 20v84l199 70v274q68 18 144 23l28 -23v-215l295 105l12 -21v-84l-307 -108v-195l295 105l12 -21v-84l-307 -108v-494h15q199 0 311 117t110 272q0 23 -4 60l111 10q23 -74 22 -137
q0 -176 -141 -300t-385 -124z" />
    <glyph glyph-name="uni2113" unicode="&#x2113;" horiz-adv-x="802" 
d="M352 1026v-512q205 281 205 692q0 137 -22 186q-23 48 -74 48q-69 0 -89 -82t-20 -332zM488 -27q-144 0 -218 85t-84 218q-72 -41 -141 -63l-25 86q86 33 164 84v618q0 265 68 403t225 138q115 0 164 -77t49 -227t-26 -282t-105 -292q-80 -160 -207 -289v-58
q0 -117 46 -177t124 -60t176 90l43 -66q-109 -131 -253 -131z" />
    <glyph glyph-name="uni2116" unicode="&#x2116;" horiz-adv-x="2220" 
d="M1581 184v123h422v-123h-422zM1791 1157q-179 1 -179 -279t179 -280t179 280t-179 279zM1802 1245q152 0 234 -104t82 -262q0 -159 -94 -263t-246 -104q-150 0 -232 102t-82 260t93 264t245 107zM1061 910q0 478 282 479q66 0 103 -29l6 -98l-203 -64q-57 -137 -57 -383
t31 -815l-125 -23h-31l-524 871q-43 68 -125 237h-21q25 -414 25 -723q0 -217 -72 -303t-179 -86t-151 52l17 98h223q29 86 29 221t-19 766l-168 12v97h414l490 -832q16 -27 63 -117h21q-29 410 -29 640z" />
    <glyph glyph-name="uni2117" unicode="&#x2117;" horiz-adv-x="1642" 
d="M858 1079q164 1 259 -73t95 -192t-76 -197q-77 -77 -167 -77t-123 15v86h8q90 0 127 39t37 127t-43 127t-154 39h-26v-596l120 -8v-88h-399v88l111 24v574h-2l-113 8v94q182 10 346 10zM821 70q254 0 412 168t158 445t-158 443t-412 166q-253 0 -411 -166t-158 -442
t158 -445t411 -169zM119 682q0 318 202 512t511 195t500 -191q192 -192 192 -511t-203 -517t-511 -197q-308 0 -500 195q-191 196 -191 514z" />
    <glyph glyph-name="trademark" unicode="&#x2122;" horiz-adv-x="1712" 
d="M1667 592h-328v70l101 18q2 303 -8 594h-21q-20 -84 -39 -146l-145 -491l-88 -25h-25l-166 535q-18 55 -33 127h-20q-4 -389 -10 -602l116 -8v-72h-313v70l103 18q14 444 26 604l-96 8v70h307q113 -373 152 -561h20q63 272 162 561h278v-68l-94 -16q18 -295 27 -608
l94 -6v-72zM649 1262q0 -70 -6 -113h-86l-16 127l-133 6v-612l100 -6v-72h-342v70l106 18v602l-133 -6l-16 -127h-86q-6 43 -6 113t4 100h610q4 -30 4 -100z" />
    <glyph glyph-name="uni2126" unicode="&#x2126;" horiz-adv-x="1445" 
d="M1405 176q0 -70 -14 -176h-535v301q287 141 287 490q0 229 -112 356q-113 127 -309 127t-308 -127t-111 -356q0 -348 287 -490v-301h-535q-14 104 -14 175t4 124l113 12l28 -137l301 -18v106q-163 45 -275 183t-112 348q0 251 160 417q78 82 200 130t274 48t270 -48
t192 -130q150 -167 150 -425t-180 -411q-87 -75 -208 -112v-106l302 18l28 137l113 -12q4 -53 4 -123z" />
    <glyph glyph-name="estimated" unicode="&#x212e;" horiz-adv-x="1308" 
d="M1014 539v286q-128 183 -358 183t-361 -183v-286h719zM295 199q125 -183 400 -183q128 0 243 58t184 139l23 -31q-172 -209 -465 -209q-252 0 -422 157t-170 381t166 382t402 158t400 -157q165 -157 165 -380v-14h-926v-301z" />
    <glyph glyph-name="oneeighth" unicode="&#x215b;" horiz-adv-x="1859" 
d="M1296 221q0 -154 150 -153q74 0 114 38t40 102t-40 99t-153 74l-25 8q-86 -59 -86 -168zM1585 635q0 137 -137 137q-68 0 -102 -34t-33 -88q-1 -54 33 -86t122 -64l31 -13q63 44 75 80q11 36 11 68zM1755 223q0 -121 -94 -181t-222 -60t-213 59t-85 168q0 145 164 205v20
q-147 66 -147 189t93 179q94 56 208 56t198 -56t84 -157q0 -123 -158 -182v-19q172 -70 172 -221zM78 1186v86q168 10 244 117l75 -5v-763l168 -9v-82h-483v82l170 23v569q-61 -18 -174 -18zM1335 1362l8 -25q-309 -469 -405 -627t-230 -392t-219 -367l-98 49l-8 25
q307 467 409 633t233 396q132 230 212 357z" />
    <glyph glyph-name="threeeighths" unicode="&#x215c;" horiz-adv-x="1933" 
d="M1370 221q0 -154 150 -153q74 0 114 38t39 102q1 64 -39 99t-153 74l-25 8q-86 -59 -86 -168zM1659 635q0 137 -137 137q-68 0 -102 -34t-34 -88t34 -86t122 -64l31 -13q27 19 41 31t30 44q15 32 15 73zM1829 223q0 -121 -94 -181q-95 -60 -223 -60t-213 59t-85 168
q0 145 164 205v20q-147 66 -147 189t94 179t208 56t198 -56t84 -157q0 -123 -158 -182v-19q172 -70 172 -221zM659 774q0 -114 -96 -188q-95 -74 -225 -74t-204 44t-75 112q0 68 45 102h113l25 -164q41 -8 77 -8q180 0 181 168q0 164 -183 164h-71v80h145q82 51 82 157
q0 135 -137 136q-43 0 -90 -15l-19 -155h-104q-49 35 -49 86q0 73 81 121t203 48t199 -62q76 -64 76 -163q-1 -127 -146 -182v-20q172 -47 172 -187zM1409 1362l8 -25q-309 -469 -405 -627t-230 -392q-135 -234 -219 -367l-98 49l-8 25q307 467 409 633t233 396
q132 230 212 357z" />
    <glyph glyph-name="fiveeighths" unicode="&#x215d;" horiz-adv-x="1921" 
d="M1358 221q0 -154 149 -153q74 0 114 38t40 102t-40 99t-153 74l-24 8q-86 -59 -86 -168zM1509 772q-67 0 -101 -34t-34 -80t16 -72q28 -43 140 -86l31 -13q64 45 75 81q10 35 11 67q0 137 -138 137zM1817 223q-1 -121 -95 -181t-222 -60t-213 59t-85 168q0 145 164 205
v20q-147 66 -147 199q0 76 50 130q88 95 253 95q112 0 196 -56t84 -144t-44 -130q-44 -40 -113 -65v-19q172 -70 172 -221zM674 811q0 -121 -96 -210t-244 -89q-104 0 -180 45t-76 113t47 100h111l24 -164q41 -8 68 -8q82 0 132 47t50 135t-48 131t-157 50l-174 10l14 399
l109 19q76 -29 163 -29t204 29l26 -60q-88 -98 -244 -98q-81 0 -163 29l-23 -211q109 29 180 28q113 -1 195 -73t82 -193zM1397 1362l8 -25q-309 -469 -405 -627t-230 -392q-135 -234 -219 -367l-98 49l-9 25q307 467 409 633t233 396q132 230 212 357z" />
    <glyph glyph-name="seveneighths" unicode="&#x215e;" horiz-adv-x="1748" 
d="M1186 221q0 -154 149 -153q74 0 114 38t40 102t-40 99t-153 74l-24 8q-86 -59 -86 -168zM1337 772q-67 0 -101 -34t-34 -88t34 -86t122 -64l31 -13q27 19 41 31t29 44t16 73q0 137 -138 137zM1645 223q-1 -121 -95 -181t-222 -60t-213 59t-85 168q0 145 164 205v20
q-147 66 -147 189t94 179t208 56q113 0 197 -56t84 -157q1 -123 -157 -182v-19q172 -70 172 -221zM178 629q0 82 85 225t272 403l-7 19l-354 -31l-16 -104h-86q-25 117 -6 221h587l13 -55q-272 -422 -324 -635l35 -135l-115 -43q-40 16 -62 55t-22 80zM1225 1362l8 -25
q-309 -469 -405 -627t-230 -392q-135 -234 -219 -367l-98 49l-9 25q307 467 409 633t233 396q132 230 212 357z" />
    <glyph glyph-name="arrowleft" unicode="&#x2190;" horiz-adv-x="1617" 
d="M1499 662v-123h-600q-33 0 -360 20l98 -297l-16 -10l-533 338v20q412 267 533 340l16 -10l-98 -299q328 20 360 21h600z" />
    <glyph glyph-name="arrowup" unicode="&#x2191;" horiz-adv-x="956" 
d="M522 961l19 -361v-600h-123v598q0 81 8 202q8 122 10 161l-297 -99l-10 15l340 532h20l338 -532l-10 -15z" />
    <glyph glyph-name="arrowright" unicode="&#x2192;" horiz-adv-x="1617" 
d="M719 539h-600v123h600q33 0 360 -21l-98 299l16 10l533 -340v-20l-533 -338l-16 10l98 297q-328 -20 -360 -20z" />
    <glyph glyph-name="arrowdown" unicode="&#x2193;" horiz-adv-x="956" 
d="M418 764v598h123v-600q0 -90 -6 -171t-13 -190l295 99l10 -15l-338 -532h-20l-340 532l10 15l297 -99q-18 333 -18 363z" />
    <glyph glyph-name="arrowboth" unicode="&#x2194;" horiz-adv-x="1976" 
d="M1098 539h-219q-76 0 -191 8t-149 10l98 -295l-16 -10l-533 338v20l533 340l16 -10l-98 -297q329 19 340 19h219q60 0 183 -8q122 -8 157 -11l-99 297l17 10l532 -340v-20l-532 -338l-17 10l99 295q-315 -18 -340 -18z" />
    <glyph glyph-name="arrowupdn" unicode="&#x2195;" horiz-adv-x="956" 
d="M522 961l19 -274q-1 -110 -7 -154q-6 -43 -8 -75t-4 -57l295 99l10 -15l-338 -532h-20l-340 532l10 15l297 -99q-18 261 -18 291t3 75q3 46 8 105t7 89l-297 -99l-10 15l340 532h20l338 -532l-10 -15z" />
    <glyph glyph-name="uni2196" unicode="&#x2196;" horiz-adv-x="1372" 
d="M1223 -27l-574 566q-57 54 -239 266l-142 -277l-16 4q-33 140 -66 291t-73 324l14 14l618 -135l3 -18l-281 -140q227 -201 270 -243l574 -564z" />
    <glyph glyph-name="uni2197" unicode="&#x2197;" horiz-adv-x="1372" 
d="M1245 1161l15 -14q-30 -122 -140 -615l-16 -4l-141 277q-19 -23 -59 -68t-89 -100t-92 -98l-573 -566l-89 88l574 564q43 43 270 243l-280 140l2 18z" />
    <glyph glyph-name="uni2198" unicode="&#x2198;" horiz-adv-x="1372" 
d="M1104 606l16 -4q25 -102 71 -307t69 -307l-15 -15l-618 136l-2 18l280 139q-227 201 -270 244l-574 563l89 88l573 -565q49 -46 138 -149t102 -117z" />
    <glyph glyph-name="uni2199" unicode="&#x2199;" horiz-adv-x="1372" 
d="M1311 1073l-574 -563q-43 -43 -270 -244l281 -139l-3 -18l-618 -136l-14 15q25 102 70 307q46 205 69 307l16 4l142 -276q18 24 58 68t89 100t92 98l574 565z" />
    <glyph glyph-name="uni21A9" unicode="&#x21a9;" horiz-adv-x="1640" 
d="M539 520q351 19 360 19h191q145 1 221 71q75 70 75 182t-74 184t-204 71h-170v122h170q184 -1 299 -109t115 -268t-118 -268q-118 -109 -314 -108h-191q-81 0 -202 8q-122 8 -158 10l98 -295l-16 -10l-533 338v20q288 186 533 340l16 -10z" />
    <glyph glyph-name="uni21AA" unicode="&#x21aa;" horiz-adv-x="1640" 
d="M741 416h-190q-197 0 -315 108t-117 269t115 269t298 107h170v-122h-170q-130 0 -204 -72q-74 -71 -74 -183t76 -183t221 -70h190q96 -1 210 -9t151 -10l-98 297l16 10l532 -340v-20l-532 -338l-16 10l98 295q-333 -18 -361 -18z" />
    <glyph glyph-name="uni21BB" unicode="&#x21bb;" horiz-adv-x="1372" 
d="M1280 565q0 -244 -173 -418t-420 -174t-421 171t-174 423q0 158 74 278t203 195l-228 187l9 18h630l13 -18l-271 -572h-20l-78 314q-197 -156 -197 -377q0 -220 134 -358t329 -138t325 138t130 335q0 250 -219 385l53 99q125 -45 213 -181t88 -307z" />
    <glyph glyph-name="partialdiff" unicode="&#x2202;" horiz-adv-x="1173" 
d="M492 74q179 0 289 213q61 113 90 274q13 68 24 141q-96 94 -269 94q-174 0 -264 -117q-90 -118 -90 -308q1 -297 220 -297zM618 1540q232 0 350 -172t118 -445t-79 -500q-44 -128 -111 -226q-68 -97 -178 -161t-264 -64t-260 96q-106 98 -106 312t145 382t377 168
q182 0 275 -92h22v67q0 227 -91 361t-294 135q-84 0 -188 -27l-19 76q127 90 303 90z" />
    <glyph glyph-name="emptyset" unicode="&#x2205;" horiz-adv-x="1509" 
d="M1094 995l-582 -843q110 -62 226 -62q220 -1 361 137q67 66 105 165q39 99 39 218q1 240 -149 385zM754 1128q-205 0 -346 -141q-142 -141 -142 -380t150 -384l581 844q-111 61 -243 61zM119 626q0 164 89 310t236 228q148 81 316 81t307 -78l150 217l92 -38l10 -23
l-154 -223q105 -88 165 -216t61 -276q-1 -272 -191 -453t-455 -182q-164 0 -303 78l-149 -217l-92 39l-11 23l154 223q-225 186 -225 507z" />
    <glyph glyph-name="product" unicode="&#x220f;" horiz-adv-x="1456" 
d="M1034 1251h-608v-1388q-61 -14 -141 -21l-43 15v1398l-166 11v96h1304v-96l-163 -31v-1372q-59 -14 -140 -21l-43 15v1394z" />
    <glyph glyph-name="summation" unicode="&#x2211;" horiz-adv-x="1110" 
d="M999 72q0 -88 -26 -215h-883l-10 39l438 661l-440 764l10 41h885q10 -47 10 -133t-10 -164h-119l-25 176l-497 19l-10 -15q8 -14 51 -80t76 -118l237 -394v-20l-272 -428q-45 -70 -123 -174l10 -15l537 19l39 190l118 -12q4 -53 4 -141z" />
    <glyph glyph-name="minus" unicode="&#x2212;" 
d="M141 539v123h975v-123h-975z" />
    <glyph glyph-name="radical" unicode="&#x221a;" horiz-adv-x="1210" 
d="M20 444h340q59 -160 166 -387h21q233 684 483 1520h115l24 -21q-309 -950 -581 -1699l-119 -27h-20q-121 256 -226 508l-203 14v92z" />
    <glyph glyph-name="infinity" unicode="&#x221e;" horiz-adv-x="1820" 
d="M421 774q-85 0 -151 -53t-66 -151t57 -157q56 -58 175 -59q199 0 377 195l-147 108q-160 117 -245 117zM1616 570q0 132 -94 185q-53 30 -136 29q-198 1 -376 -194l145 -109q295 -215 426 -27q35 50 35 116zM1407 915q170 0 251 -102t81 -247q0 -146 -95 -244t-244 -98
t-321 126l-188 139h-21q-66 -78 -118 -128t-146 -94q-92 -44 -192 -44q-170 -1 -251 101t-81 248t95 245q95 98 243 98t321 -127l191 -141h18q66 78 118 128t145 95t194 45z" />
    <glyph glyph-name="integral" unicode="&#x222b;" horiz-adv-x="673" 
d="M94 -217q58 0 84 8t58 32q59 46 59 218q0 111 -41 552t-41 558q0 391 344 391q70 0 117 -14v-96q-49 6 -96 6q-98 0 -148 -52t-49 -186q0 -133 41 -572t41 -556q0 -230 -98 -312t-254 -84q-62 1 -111 15v98q36 -6 94 -6z" />
    <glyph glyph-name="approxequal" unicode="&#x2248;" 
d="M1124 442q-37 -100 -103 -158q-22 -20 -58 -42q-79 -50 -200 1q-57 22 -212 107t-182 99l-181 -164l-55 55q24 66 71 121q90 104 191 102q41 0 95 -20t178 -88l223 -121l178 164zM877 641q-57 0 -116 24t-202 103t-190 102l-181 -163l-55 55q23 62 92 144q69 81 170 79
q41 0 95 -20t178 -88l223 -121l178 164l55 -56q-22 -55 -47 -96t-84 -84t-116 -43z" />
    <glyph glyph-name="notequal" unicode="&#x2260;" 
d="M1116 457v-123h-581l-195 -311l-94 49l-13 20l154 242h-246v123h324l182 286h-506v123h584l193 308l92 -48l12 -20l-150 -240h244v-123h-321l-183 -286h504z" />
    <glyph glyph-name="lessequal" unicode="&#x2264;" 
d="M156 0v123h893v-123h-893zM371 692v-20l651 -316l-57 -110l-783 362v148l783 362l57 -110z" />
    <glyph glyph-name="greaterequal" unicode="&#x2265;" 
d="M205 0v123h893v-123h-893zM1071 608l-782 -362l-58 110l652 316v20l-652 316l58 110l782 -362v-148z" />
    <glyph glyph-name="uni24EA" unicode="&#x24ea;" horiz-adv-x="1601" 
d="M801 1001q-170 -1 -170 -321t170 -320t170 320t-170 321zM481 679q0 177 89 291t240 113q150 -1 230 -111t80 -288t-89 -292t-239 -114t-230 112q-81 112 -81 289zM801 1290q-252 0 -425 -180t-173 -430t173 -429t425 -179t425 179t173 429t-173 430t-425 180zM801 1389
q293 0 501 -208t208 -501t-208 -500t-501 -207t-501 207t-208 500t208 501t501 208z" />
    <glyph glyph-name="uni24FF" unicode="&#x24ff;" horiz-adv-x="1601" 
d="M801 1001q170 -1 170 -321t-170 -320t-170 320t170 321zM1120 684q0 178 -80 288t-230 111q-151 1 -240 -113t-89 -291t81 -289t231 -112q151 0 239 114t88 292zM801 1389q293 0 501 -208t208 -501t-208 -500t-501 -207t-501 207t-208 500t208 501t501 208z" />
    <glyph glyph-name="uni25A0" unicode="&#x25a0;" horiz-adv-x="1671" 
d="M211 57v1250h1249v-1250h-1249z" />
    <glyph glyph-name="uni25A1" unicode="&#x25a1;" horiz-adv-x="1671" 
d="M354 190h963v984h-963v-984zM211 57v1250h1249v-1250h-1249z" />
    <glyph glyph-name="uni25AA" unicode="&#x25aa;" horiz-adv-x="1120" 
d="M170 174v778h780v-778h-780z" />
    <glyph glyph-name="uni25AB" unicode="&#x25ab;" horiz-adv-x="1120" 
d="M303 297h514v532h-514v-532zM170 174v778h780v-778h-780z" />
    <glyph glyph-name="triagup" unicode="&#x25b2;" horiz-adv-x="1632" 
d="M1538 127h-1444l-6 20l721 1242h20l715 -1242z" />
    <glyph glyph-name="whiteuppointingtriangle" unicode="&#x25b3;" horiz-adv-x="1632" 
d="M326 258h985l-492 856zM1538 127h-1444l-6 20l721 1242h20l715 -1242z" />
    <glyph glyph-name="blackuppointingsmalltriangle" unicode="&#x25b4;" horiz-adv-x="1253" 
d="M1159 174h-1065l-6 21l530 856h21l526 -856z" />
    <glyph glyph-name="whiteuppointingsmalltriangle" unicode="&#x25b5;" horiz-adv-x="1253" 
d="M307 297h641l-321 526zM1159 174h-1065l-6 21l530 856h21l526 -856z" />
    <glyph glyph-name="blackrightpointingtriangle" unicode="&#x25b6;" horiz-adv-x="1396" 
d="M1309 668l-1078 -695l-20 7v1402l20 7l1078 -701v-20z" />
    <glyph glyph-name="whiterightpointingtriangle" unicode="&#x25b7;" horiz-adv-x="1396" 
d="M344 201l739 477l-739 479v-956zM1309 668l-1078 -695l-20 7v1402l20 7l1078 -701v-20z" />
    <glyph glyph-name="uni25B8" unicode="&#x25b8;" horiz-adv-x="1093" 
d="M1006 590l-816 -527l-20 7v1065l20 6l816 -531v-20z" />
    <glyph glyph-name="whiterightpointingsmalltriangle" unicode="&#x25b9;" horiz-adv-x="1093" 
d="M303 291l477 309l-477 309v-618zM1006 590l-816 -527l-20 7v1065l20 6l816 -531v-20z" />
    <glyph glyph-name="triagdn" unicode="&#x25bc;" horiz-adv-x="1632" 
d="M88 1198l6 21h1444l6 -21l-715 -1241h-20z" />
    <glyph glyph-name="whitedownpointingtriangle" unicode="&#x25bd;" horiz-adv-x="1632" 
d="M819 248l492 856h-985zM829 -27h-20l-721 1241l6 21h1444l6 -21z" />
    <glyph glyph-name="uni25BE" unicode="&#x25be;" horiz-adv-x="1253" 
d="M88 1004l6 20h1065l6 -20l-526 -857h-21z" />
    <glyph glyph-name="whitedownpointingsmalltriangle" unicode="&#x25bf;" horiz-adv-x="1253" 
d="M627 375l321 526h-641zM639 147h-21l-530 857l6 20h1065l6 -20z" />
    <glyph glyph-name="blackleftpointingtriangle" unicode="&#x25c0;" horiz-adv-x="1396" 
d="M1186 -20l-21 -7l-1077 695v20l1077 701l21 -7v-1402z" />
    <glyph glyph-name="whiteleftpointingtriangle" unicode="&#x25c1;" horiz-adv-x="1396" 
d="M1053 201v956l-740 -479zM1186 -20l-21 -7l-1077 695v20l1077 701l21 -7v-1402z" />
    <glyph glyph-name="uni25C2" unicode="&#x25c2;" horiz-adv-x="1093" 
d="M924 70l-21 -7l-815 527v20l815 531l21 -6v-1065z" />
    <glyph glyph-name="whiteleftpointingsmalltriangle" unicode="&#x25c3;" horiz-adv-x="1093" 
d="M791 291v618l-478 -309zM924 70l-21 -7l-815 527v20l815 531l21 -6v-1065z" />
    <glyph glyph-name="lozenge" unicode="&#x25ca;" horiz-adv-x="1277" 
d="M254 682l391 -508l377 492l-389 510zM1190 657l-537 -700h-20l-545 711v20l537 701h20l545 -711v-21z" />
    <glyph glyph-name="whitecircle" unicode="&#x25cb;" horiz-adv-x="1601" 
d="M805 1251q-238 -1 -401 -163q-162 -162 -162 -403t162 -409t400 -168q236 0 396 168t160 409t-158 403t-397 163zM804 1389q288 0 496 -207t209 -495q0 -288 -209 -501q-210 -213 -496 -213t-499 212t-213 500t212 496t500 208z" />
    <glyph glyph-name="blackcircle" unicode="&#x25cf;" horiz-adv-x="1601" 
d="M804 1389q288 0 496 -207t209 -495q0 -288 -209 -501q-210 -213 -496 -213t-499 212t-213 500t212 496t500 208z" />
    <glyph glyph-name="blackstar" unicode="&#x2605;" horiz-adv-x="1636" 
d="M1552 858l7 -22l-453 -322l170 -528l-16 -11l-443 338l-440 -340l-17 13l168 530l-450 320l6 22h557l166 520h20l168 -520h557z" />
    <glyph glyph-name="whitestar" unicode="&#x2606;" horiz-adv-x="1636" 
d="M430 735l242 -172l-86 -272l229 178l234 -178l-88 272l243 172h-299l-88 273l-88 -273h-299zM1552 858l7 -22l-453 -320l170 -530l-16 -11l-443 338l-440 -340l-17 13l168 530l-450 320l6 22h557l166 520h20l168 -520h557z" />
    <glyph glyph-name="pointingindexleftwhite" unicode="&#x261c;" horiz-adv-x="2289" 
d="M154 813q0 -43 43 -88q594 55 737 55l27 -84q-105 -51 -199 -113t-127 -110q0 -43 24 -82q127 98 367 162l33 -66q-12 -8 -108 -61q-141 -77 -185 -135q0 -47 35 -90q8 6 18 12t58 39t133 65q86 33 129 43l32 -65q-188 -104 -247 -180q0 -66 59 -117q104 113 262 201
q106 -27 195 -27q242 0 391 180v400l-657 170h-242q-491 -10 -725 -31l-47 -2q-6 -33 -6 -76zM2212 911h-258q-12 -201 -12 -401t12 -397l258 -21v-92h-361l-22 221h-21q-135 -154 -362 -153q-102 0 -199 24q-150 -141 -207 -176q-94 0 -160 55t-77 135q-164 68 -164 195v2
q-135 63 -135 180q0 31 8 80q98 57 240 111l-7 20q-475 -70 -563 -69q-68 33 -110 79t-41 119q0 74 32 164q508 37 869 37h242l657 -170l20 170l361 -20v-93z" />
    <glyph glyph-name="pointingindexupwhite" unicode="&#x261d;" horiz-adv-x="1343" 
d="M1036 156q0 70 -26 176q88 158 200 262q-51 59 -116 59q-76 -59 -181 -247l-65 32q43 168 182 320q-55 53 -112 53q-57 -45 -158 -225q-31 -55 -39 -68l-66 33q59 223 183 352q-47 39 -103 39q-50 -32 -169 -234q-40 -69 -54 -92l-84 27q0 148 24 387q24 240 31 326
q-45 43 -102 43l-59 -6q-35 -426 -35 -748v-242l170 -534h399q102 93 141 155t39 132zM1208 -410h-92l-20 177q-201 12 -401 12t-398 -12v-177h-92l-21 258l170 21l-170 534v242q0 257 27 692l10 131q89 33 143 33q101 1 146 -45q44 -46 74 -106q0 -82 -82 -559l20 -5
q52 121 93 185t53 76t14 16l4 2q16 4 39 4q117 0 180 -131h2q127 0 195 -164q80 -10 135 -77t55 -160q-25 -41 -78 -97t-102 -90q29 -80 29 -169t-32 -148t-122 -142v-20l221 -23v-258z" />
    <glyph glyph-name="pointingindexrightwhite" unicode="&#x261e;" horiz-adv-x="2289" 
d="M850 172q88 0 194 27q158 -88 263 -201q59 51 59 117q-59 76 -248 180l33 65q188 -47 338 -159q35 43 35 90q-47 59 -226 158q-55 31 -67 38l33 66q240 -63 366 -162q25 39 25 82q-68 98 -326 223l27 84q143 0 737 -55q43 45 43 102l-6 62q-430 27 -772 33h-242
l-657 -170v-400q150 -180 391 -180zM1358 1024q320 0 731 -27l137 -10q33 -89 33 -163t-42 -120t-110 -79q-88 0 -563 69l-6 -20q91 -36 211 -94l29 -17q8 -49 8 -80q0 -117 -135 -180v-2q0 -127 -164 -195q-10 -80 -77 -135t-161 -55q-57 35 -207 176q-96 -25 -198 -24
q-227 0 -363 153h-20l-23 -221h-360v92l258 21q12 199 12 399t-12 399h-258v93l360 20l21 -170l657 170h242z" />
    <glyph glyph-name="pointingindexdownwhite" unicode="&#x261f;" horiz-adv-x="1343" 
d="M287 420q0 -329 26 -633l9 -115q28 -6 72 -6t89 43q-7 86 -31 338t-24 375l84 27q14 -23 54 -92q115 -198 169 -234q55 0 103 39q-123 129 -183 352l66 33q10 -19 33 -59q24 -40 34 -59q65 -117 130 -175q57 0 112 53q-139 152 -182 320l65 32q104 -188 181 -247
q66 0 116 59q-113 104 -200 262q26 107 26 163q-1 109 -74 194q-36 41 -106 106h-399l-170 -534v-242zM1141 884q0 -89 -29 -169q49 -35 102 -90t78 -97q0 -94 -55 -160t-135 -77q-68 -164 -195 -164h-2q-63 -131 -180 -131q-23 0 -39 4q-59 43 -164 279l-20 -5
q82 -477 82 -559q-33 -67 -79 -109q-45 -42 -119 -42t-165 33q-37 483 -37 823v242l170 534l-170 21l21 258h92v-177q199 -12 399 -12t400 12l20 177h92v-258l-221 -23v-20q90 -82 122 -142t32 -148z" />
    <glyph glyph-name="heartsuitwhite" unicode="&#x2661;" horiz-adv-x="1613" 
d="M1393 686q1 106 -61 180q-62 72 -171 72t-193 -97t-120 -237h-82q-35 138 -120 236q-86 98 -194 98t-169 -73t-61 -179t41 -179q42 -73 111 -125q68 -52 142 -95q202 -118 281 -217h20q76 95 281 217q74 43 142 95q153 115 153 304zM1178 1051q142 -1 244 -101
q103 -100 104 -278q0 -104 -41 -190t-103 -142q-121 -106 -307 -204q-185 -97 -258 -210h-20q-74 112 -261 211t-304 203q-62 55 -103 141t-41 191q0 178 103 278t245 100t236 -81q94 -82 125 -232h20q31 150 125 232t236 82z" />
    <glyph glyph-name="uni270C" unicode="&#x270c;" horiz-adv-x="1959" 
d="M1151 150q0 -32 6 -60q84 -37 201 -63q141 0 213 24q28 46 28 105l-2 28q-86 -18 -172 -18q-111 20 -245 57q-29 -41 -29 -73zM1237 387q0 -35 6 -61q84 -33 201 -60q139 0 213 25q29 45 29 104l-3 27q-80 -16 -167 -16q-113 18 -250 53q-29 -37 -29 -72zM1329 614
q0 -29 6 -63q92 -31 199 -45q135 0 207 24q61 102 61 181q0 23 -6 47q-90 55 -301 55q-115 0 -287 -8q-14 41 -14 97t23 132t51 161q29 85 39 146q-59 98 -170 99l-76 -338q-219 -145 -379 -334l-221 -57v-449h125q84 -106 148 -147t148 -41t156 12v12q0 104 86 164
q-6 39 -6 70q0 111 96 170q-6 33 -6 59q0 106 99 164q37 6 121 6t155 -16l-6 -66l-92 2q-90 0 -156 -12v-25zM1130 1548q106 0 184 -52t93 -163q0 -47 -57 -201t-64 -253q168 25 277 24q221 0 319 -84q27 -73 27 -147t-72 -195q-27 -16 -76 -33q29 -55 29 -102t-37 -104
q-29 -14 -78 -31q29 -57 29 -105t-37 -104q-43 -29 -137 -50t-191 -22q-141 27 -286 76q-88 -31 -175 -31t-182 49q-94 49 -137 140h-98l-23 -160h-360v92l258 21q12 199 12 399t-12 399h-258v93l360 20l21 -211l176 45q174 181 321 281l95 403q61 6 79 6z" />
    <glyph glyph-name="uni275B" unicode="&#x275b;" horiz-adv-x="909" 
d="M371 844q0 -39 2 -62l424 -88l14 -669q-139 -51 -309 -51t-291 55q-133 217 -133 452q0 305 180 559t506 349l35 -91q-428 -203 -428 -454z" />
    <glyph glyph-name="uni275C" unicode="&#x275c;" horiz-adv-x="909" 
d="M831 881q0 -305 -180 -558t-506 -350l-34 90q428 203 428 455q0 39 -2 62l-424 88l-15 669q139 51 309 51t291 -55q133 -217 133 -452z" />
    <glyph glyph-name="uni275D" unicode="&#x275d;" horiz-adv-x="1779" 
d="M1241 844q0 -39 2 -62l424 -88l14 -669q-139 -51 -309 -51t-291 55q-133 217 -133 452q0 305 180 559t506 349l35 -91q-428 -203 -428 -454zM371 844q0 -39 2 -62l424 -88l14 -669q-139 -51 -309 -51t-291 55q-133 217 -133 452q0 305 180 559t506 349l35 -91
q-428 -203 -428 -454z" />
    <glyph glyph-name="uni275E" unicode="&#x275e;" horiz-adv-x="1779" 
d="M1702 881q0 -305 -180 -558t-506 -350l-35 90q428 203 428 455q0 39 -2 62l-424 88l-14 669q139 51 309 51t291 -55q133 -217 133 -452zM831 881q0 -305 -180 -558t-506 -350l-34 90q428 203 428 455q0 39 -2 62l-424 88l-15 669q139 51 309 51t291 -55
q133 -217 133 -452z" />
    <glyph glyph-name="uni2764" unicode="&#x2764;" horiz-adv-x="1613" 
d="M1178 1051q142 -1 244 -101q103 -100 104 -278q0 -104 -41 -190t-103 -142q-121 -106 -307 -204q-185 -97 -258 -210h-20q-74 112 -261 211t-304 203q-62 55 -103 141t-41 191q0 178 103 278t245 100t236 -81q94 -82 125 -232h20q31 150 125 232t236 82z" />
    <glyph glyph-name="uni2766" unicode="&#x2766;" horiz-adv-x="2023" 
d="M934 342q0 -118 6 -217q248 55 382 246q71 101 71 209q1 108 -51 163t-131 55t-139 -58q-60 -60 -120 -169q-18 -111 -18 -229zM221 558q0 -130 66 -248q120 -215 367 -333q110 -51 200 -51q-31 198 -31 354t21 287q-53 133 -139 214t-204 81t-199 -87t-81 -217z
M1234 911q66 1 118 -21q174 -74 174 -310q0 -92 -52 -193q-52 -102 -138 -175q-174 -148 -386 -200q8 -88 23 -182l-25 -14q-158 0 -314 59q-327 124 -471 395q-75 139 -75 289q0 195 118 305t272 111q154 0 270 -88q114 -89 147 -236h20q54 150 184 222q69 38 135 38z
M793 1362q-121 0 -121 -110q0 -52 51 -82q95 -57 266 -9q-10 89 -71 145t-125 56zM829 1067q-145 0 -218 57q-73 56 -73 146t70 147t186 57t201 -78q86 -79 99 -198q145 51 264 51q254 -1 400 -161t146 -407t-157 -423q-158 -176 -408 -225l-24 73q457 182 457 562
q0 207 -127 338t-351 131q-86 0 -202 -27q-21 -155 -181 -270l-47 39q110 121 123 206q-84 -18 -158 -18z" />
    <glyph glyph-name="uni2780" unicode="&#x2780;" horiz-adv-x="1601" 
d="M1055 264h-484v82l170 23v569q-61 -18 -174 -18v86q168 10 244 116l76 -4v-764l168 -8v-82zM801 1290q-252 0 -425 -180t-173 -430t173 -429t425 -179t425 179t173 429t-173 430t-425 180zM801 1389q293 0 501 -208t208 -501t-208 -500t-501 -207t-501 207t-208 500
t208 501t501 208z" />
    <glyph glyph-name="uni2781" unicode="&#x2781;" horiz-adv-x="1601" 
d="M514 952q0 66 81 118t204 52t201 -68t77 -176q0 -106 -106 -220t-338 -289l6 -19q96 14 166 19l182 12l12 84h99q12 -51 12 -105t-8 -96h-592l-10 90q203 168 270 242q141 154 141 297t-135 143q-41 0 -78 -14l-22 -168h-115q-47 32 -47 98zM801 1290q-252 0 -425 -180
t-173 -430t173 -429t425 -179t425 179t173 429t-173 430t-425 180zM801 1389q293 0 501 -208t208 -501t-208 -500t-501 -207t-501 207t-208 500t208 501t501 208z" />
    <glyph glyph-name="uni2782" unicode="&#x2782;" horiz-adv-x="1601" 
d="M539 952q0 74 81 122q82 48 204 48t198 -63t76 -162q0 -129 -146 -182v-21q172 -47 172 -186q0 -115 -96 -189q-96 -73 -226 -73t-204 44t-74 112t45 102h113l25 -164q41 -8 77 -8q180 0 181 168q0 164 -183 164h-71v79h145q82 51 82 158q0 135 -137 135q-37 0 -90 -14
l-19 -156h-104q-49 35 -49 86zM801 1290q-252 0 -425 -180t-173 -430t173 -429t425 -179t425 179t173 429t-173 430t-425 180zM801 1389q293 0 501 -208t208 -501t-208 -500t-501 -207t-501 207t-208 500t208 501t501 208z" />
    <glyph glyph-name="uni2783" unicode="&#x2783;" horiz-adv-x="1601" 
d="M754 512h92v260l92 19l47 -5v-274h141v-102h-141v-146h-139v146h-369l-8 59q143 324 264 655l133 -49l6 -20q-168 -340 -294 -543l6 -16q94 16 170 16zM801 1290q-252 0 -425 -180t-173 -430t173 -429t425 -179t425 179t173 429t-173 430t-425 180zM801 1389
q293 0 501 -208t208 -501t-208 -500t-501 -207t-501 207t-208 500t208 501t501 208z" />
    <glyph glyph-name="uni2784" unicode="&#x2784;" horiz-adv-x="1601" 
d="M831 965q-82 0 -163 28l-23 -211q101 29 197 29t178 -73q82 -74 82 -194t-96 -209t-244 -89q-104 0 -180 45t-76 113t47 100h111l24 -164q41 -8 68 -8q82 0 132 47t50 135t-48 131t-157 49l-174 11l14 399l109 18q76 -29 163 -29t204 29l26 -59q-88 -98 -244 -98z
M801 1290q-252 0 -425 -180t-173 -430t173 -429t425 -179t425 179t173 429t-173 430t-425 180zM801 1389q293 0 501 -208t208 -501t-208 -500t-501 -207t-501 207t-208 500t208 501t501 208z" />
    <glyph glyph-name="uni2785" unicode="&#x2785;" horiz-adv-x="1601" 
d="M791 721q-88 0 -177 -92q0 -173 46 -235t120 -62t118 50t44 150q1 189 -151 189zM839 823q113 0 191 -80q78 -79 78 -195t-96 -209t-243 -93t-233 110t-87 291q0 227 132 351t322 124q63 0 125 -14l-4 -70q-198 4 -296 -64t-112 -237h21q88 86 202 86zM801 1290
q-252 0 -425 -180t-173 -430t173 -429t425 -179t425 179t173 429t-173 430t-425 180zM801 1389q293 0 501 -208t208 -501t-208 -500t-501 -207t-501 207t-208 500t208 501t501 208z" />
    <glyph glyph-name="uni2786" unicode="&#x2786;" horiz-adv-x="1601" 
d="M510 995q0 62 6 101h588l12 -56q-272 -422 -323 -634l34 -136l-114 -43q-41 15 -63 55t-21 80q0 82 85 226t271 403l-6 19l-354 -31l-17 -105h-86q-12 59 -12 121zM801 1290q-252 0 -425 -180t-173 -430t173 -429t425 -179t425 179t173 429t-173 430t-425 180zM801 1389
q293 0 501 -208t208 -501t-208 -500t-501 -207t-501 207t-208 500t208 501t501 208z" />
    <glyph glyph-name="uni2787" unicode="&#x2787;" horiz-adv-x="1601" 
d="M657 485q0 -154 150 -153q74 0 114 38t40 102t-40 99t-153 74l-25 8q-86 -61 -86 -168zM946 899q0 137 -137 137q-67 0 -101 -34t-34 -88t34 -86t121 -64l31 -12q27 18 41 30t30 44q15 32 15 73zM820 1122q114 0 198 -56t84 -157q0 -123 -158 -182v-18q172 -72 172 -222
q0 -121 -94 -181t-222 -60t-213 59t-85 168q0 146 164 205v20q-147 63 -148 199q0 113 94 169t208 56zM801 1290q-252 0 -425 -180t-173 -430t173 -429t425 -179t425 179t173 429t-173 430t-425 180zM801 1389q293 0 501 -208t208 -501t-208 -500t-501 -207t-501 207
t-208 500t208 501t501 208z" />
    <glyph glyph-name="uni2788" unicode="&#x2788;" horiz-adv-x="1601" 
d="M659 841q0 -194 160 -194q80 0 168 92q0 173 -46 235t-120 62t-118 -49t-44 -146zM763 545q-114 0 -192 81q-77 82 -77 198t91 207t241 91t239 -110q88 -110 88 -289q0 -229 -132 -353t-323 -124q-63 0 -125 14l5 70q199 -4 296 64t111 237h-20q-88 -86 -202 -86z
M801 1290q-252 0 -425 -180t-173 -430t173 -429t425 -179t425 179t173 429t-173 430t-425 180zM801 1389q293 0 501 -208t208 -501t-208 -500t-501 -207t-501 207t-208 500t208 501t501 208z" />
    <glyph glyph-name="uni278A" unicode="&#x278a;" horiz-adv-x="1601" 
d="M567 920q113 0 174 18v-569l-170 -23v-82h484v82l-168 8v764l-76 4q-76 -106 -244 -116v-86zM801 1389q293 0 501 -208t208 -501t-208 -500t-501 -207t-501 207t-208 500t208 501t501 208z" />
    <glyph glyph-name="uni278B" unicode="&#x278b;" horiz-adv-x="1601" 
d="M1077 878q0 106 -78 176q-79 68 -201 68t-203 -52t-81 -118t47 -98h115l22 168q37 14 78 14q135 0 135 -145t-129 -281q-98 -103 -185 -175q-88 -72 -97 -81l10 -90h592q8 43 8 96t-12 105h-99l-12 -84l-182 -12q-70 -5 -166 -19l-6 19q231 176 338 289q106 114 106 220z
M801 1389q293 0 501 -208t208 -501t-208 -500t-501 -207t-501 207t-208 500t208 501t501 208z" />
    <glyph glyph-name="uni278C" unicode="&#x278c;" horiz-adv-x="1601" 
d="M823 1122q-123 0 -203 -48t-81 -122q0 -51 49 -86h104l19 156q53 14 90 14q137 0 137 -135q0 -106 -82 -158h-145v-79h71q182 0 183 -164q0 -168 -181 -168q-37 0 -77 8l-25 164h-113q-45 -34 -45 -102t75 -112t203 -44t226 73q96 74 96 189q0 139 -172 186v21
q145 53 146 182q0 97 -76 161t-199 64zM801 1389q293 0 501 -208t208 -501t-208 -500t-501 -207t-501 207t-208 500t208 501t501 208z" />
    <glyph glyph-name="uni278D" unicode="&#x278d;" horiz-adv-x="1601" 
d="M846 410v-146h139v146h141v102h-141v274l-47 5l-92 -19v-260h-92q-76 0 -170 -16l-6 16q127 203 294 543l-6 20l-133 49q-121 -332 -264 -655l8 -59h369zM801 1389q293 0 501 -208t208 -501t-208 -500t-501 -207t-501 207t-208 500t208 501t501 208z" />
    <glyph glyph-name="uni278E" unicode="&#x278e;" horiz-adv-x="1601" 
d="M936 514q0 -88 -50 -135t-132 -47q-27 0 -68 8l-24 164h-111q-47 -32 -47 -100t76 -113t180 -45q147 0 244 89q96 89 96 210t-82 193t-178 73q-96 0 -197 -29l23 211q82 -29 163 -28q156 0 244 98l-26 59q-219 -54 -367 0l-109 -18l-14 -399l174 -11q109 -6 157 -49
t48 -131zM801 1389q293 0 501 -208t208 -501t-208 -500t-501 -207t-501 207t-208 500t208 501t501 208z" />
    <glyph glyph-name="uni278F" unicode="&#x278f;" horiz-adv-x="1601" 
d="M791 721q152 0 151 -189q0 -100 -44 -150t-118 -50t-120 61t-46 236q89 92 177 92zM903 1122q-190 0 -322 -124t-132 -351q0 -182 87 -292q87 -109 233 -109t243 93q96 93 96 209t-78 196t-192 79q-114 0 -201 -86h-21q14 169 112 237t296 64l4 70q-61 14 -125 14z
M801 1389q293 0 501 -208t208 -501t-208 -500t-501 -207t-501 207t-208 500t208 501t501 208z" />
    <glyph glyph-name="uni2790" unicode="&#x2790;" horiz-adv-x="1601" 
d="M510 996q0 -62 12 -122h86l17 105l354 31l6 -19q-186 -260 -271 -403t-85 -226q-1 -42 21 -80t63 -55l114 43l-34 136q51 213 323 634l-12 56h-588q-6 -38 -6 -100zM801 1389q293 0 501 -208t208 -501t-208 -500t-501 -207t-501 207t-208 500t208 501t501 208z" />
    <glyph glyph-name="uni2791" unicode="&#x2791;" horiz-adv-x="1601" 
d="M961 472q0 -64 -40 -102t-114 -38q-150 0 -150 153q0 107 86 168l25 -8q113 -39 153 -74t40 -99zM674 914q0 54 34 88t101 34q137 0 137 -137q0 -41 -15 -73t-29 -44t-42 -30l-31 12q-87 32 -121 64t-34 86zM1102 909q0 101 -84 157t-198 56t-208 -56t-94 -169
q0 -135 148 -199v-20q-164 -59 -164 -205q0 -109 85 -168t213 -59t222 60t94 181q0 150 -172 222v18q158 59 158 182zM801 1389q293 0 501 -208t208 -501t-208 -500t-501 -207t-501 207t-208 500t208 501t501 208z" />
    <glyph glyph-name="uni2792" unicode="&#x2792;" horiz-adv-x="1601" 
d="M821 1036q74 0 120 -61t46 -236q-88 -92 -168 -92q-160 0 -160 191q0 100 44 149t118 49zM698 246q190 0 323 124q132 124 132 353q0 180 -88 290q-89 109 -239 109t-241 -91t-91 -208t78 -197t191 -81q114 0 202 86h20q-14 -169 -111 -237t-296 -64l-5 -70
q61 -14 125 -14zM801 1389q293 0 501 -208t208 -501t-208 -500t-501 -207t-501 207t-208 500t208 501t501 208z" />
    <glyph glyph-name="uni27B3" unicode="&#x27b3;" horiz-adv-x="1736" 
d="M348 539l-76 -191l299 29l70 162h-293zM350 662h291l-70 163l-299 29zM838 539h-74l-107 -256l-532 -52l-16 11l143 360l-143 359l16 10l532 -51l107 -258h74q67 0 193 -8t167 -11l-98 297l16 10l533 -340v-20l-533 -338l-16 10l98 295q-41 -2 -159 -10q-119 -8 -201 -8z
" />
    <glyph glyph-name="uni27B5" unicode="&#x27b5;" horiz-adv-x="2488" 
d="M1589 547h-674l-122 -268h-86l-15 12l152 266h-117l-129 -278h-86l-14 12l151 266h-117l-129 -278h-86l-14 12l152 266h-117l-129 -278h-86l-14 12l149 262l-94 -6h-41v106h41l98 -6l-153 266l14 13h86l127 -283h123l-156 270l14 13h86l127 -283h123l-155 270l14 13h86
l127 -283h123l-156 270l15 13h86l122 -273h674q85 0 204 -8q118 -8 159 -10l-101 305l17 10q125 -77 532 -340v-20l-532 -338l-17 10q31 100 60 182q28 82 41 121q-41 -2 -159 -10q-119 -8 -204 -8z" />
    <glyph glyph-name="uni27BC" unicode="&#x27bc;" horiz-adv-x="1705" 
d="M807 539h-59l-91 -215l-532 -52l-16 11l127 319l-127 318l16 10l532 -51l91 -217h59q70 0 209 -10t151 -11l-98 299l16 10l533 -340v-20l-533 -338l-16 10l98 297q-12 0 -151 -10t-209 -10z" />
    <glyph glyph-name="uniF8FF" unicode="&#xf8ff;" horiz-adv-x="1511" 
d="M481 626q0 144 47 289q49 33 103 46q-106 -301 -131 -541h-15q-4 62 -4 206zM406 628q0 -196 43 -325l86 -16q82 434 192 690q55 6 96 6q139 0 140 -98q-1 -45 -55 -97t-236 -155l-2 -12q82 -205 140 -285t139 -80t127 46t46 108t-35 119q-35 58 -92 96l-51 -54
q94 -88 94 -157q0 -35 -20 -59q-20 -23 -61 -23t-84 55q-42 55 -113 215q176 100 231 162t55 134q0 71 -50 119q-52 48 -158 48q-39 0 -72 -4q43 82 55 115l-84 14q-16 -29 -69 -150q-106 -23 -213 -79q-49 -137 -49 -333zM211 0v1362h1089v-1362h-1089z" />
    <glyph glyph-name="Iacute_J.loclNLD" horiz-adv-x="1662" 
d="M1583 1362v-96l-164 -31v-862q0 -396 -382 -399q-140 -1 -221 70t-81 151t51 127h134l30 -224q41 -10 86 -10q201 0 201 254v913l-215 11v96h561zM610 1362v-96l-164 -31v-1129l164 -10v-96h-510v96l164 31v1128l-166 11v96h512zM1190 1481l227 348h53q82 -35 123 -107
l-290 -241h-113zM487 1829h54q82 -35 123 -107l-291 -241h-113z" />
    <glyph glyph-name="Cacute.loclPLK" horiz-adv-x="1320" 
d="M762 -27q-156 1 -281 57t-203 152q-160 198 -159 503q0 306 181 505t499 199q180 0 366 -80q21 -98 -2 -305h-121l-32 233q-90 37 -199 37q-242 0 -368 -150t-126 -434q-1 -284 133 -434t343 -150t381 140l45 -70q-166 -203 -457 -203zM639 1481l145 348h54
q90 -33 133 -90l-219 -258h-113z" />
    <glyph glyph-name="Nacute.loclPLK" horiz-adv-x="1562" 
d="M590 0h-492v96l164 31v1126l-166 13v96h424l467 -772q98 -162 180 -320h21l-17 985l-192 11v96h494v-96l-164 -31v-1235l-135 -27h-25l-586 967q-72 117 -155 289h-21l12 -1123l191 -10v-96zM686 1481l145 348h54q90 -33 133 -90l-219 -258h-113z" />
    <glyph glyph-name="Oacute.loclPLK" horiz-adv-x="1523" 
d="M762 1274q-203 0 -322 -153q-118 -153 -118 -439t120 -440t320 -154t320 155t120 441t-118 438t-322 152zM778 1389q301 0 464 -196t163 -504t-180 -512q-181 -204 -479 -204t-462 199t-165 507q0 308 179 509t480 201zM813 1829h53q90 -33 133 -90l-219 -258h-112z" />
    <glyph glyph-name="Sacute.loclPLK" horiz-adv-x="1124" 
d="M542 84q288 0 286 212q0 108 -56 166q-55 58 -178 113l-174 80q-78 35 -131 75t-93 114t-40 178t53 190q110 175 385 177q180 0 352 -82q12 -57 12 -113t-12 -150h-121l-26 191q-100 43 -220 43t-189 -59q-68 -59 -68 -157t41 -144t139 -91l166 -75q262 -115 322 -263
q26 -63 26 -143q0 -188 -133 -280t-339 -92t-392 81q-23 106 -23 164t6 100l107 13l57 -201q103 -47 243 -47zM485 1481l146 348h53q90 -33 133 -90l-219 -258h-113z" />
    <glyph glyph-name="Zacute.loclPLK" horiz-adv-x="1198" 
d="M1130 183q0 -83 -26 -183h-1016l-10 41l665 1014q91 134 138 194l-11 15l-606 -23l-26 -197h-121q-27 192 -2 318h1001l10 -41l-645 -983q-110 -160 -159 -225l10 -15l624 23l48 211l122 -13q4 -53 4 -136zM506 1481l145 348h54q90 -33 133 -90l-220 -258h-112z" />
    <glyph glyph-name="i.loclTRK" horiz-adv-x="600" 
d="M549 0h-471v92l143 31v756l-143 36v84q158 37 270 45l41 -8v-934l160 -10v-92zM397 1374q0 -50 -45 -114h-143l-25 208q121 33 178 7q35 -51 35 -101z" />
    <glyph glyph-name="iacute_j.loclNLD" horiz-adv-x="1157" 
d="M973 -18q0 -158 -51 -248t-187 -170l-59 63l129 191v1061l-143 36v84q158 37 270 45l41 -8v-1054zM549 0h-471v92l143 31v756l-143 36v84q158 37 270 45l41 -8v-934l160 -10v-92zM801 1174l170 397h53q80 -33 125 -109l-242 -288h-106zM385 1571h53q80 -33 125 -109
l-241 -288h-107z" />
    <glyph glyph-name="cacute.loclPLK" horiz-adv-x="1005" 
d="M88 508q0 234 134 388t345 155q127 -1 225 -57t97 -173q0 -76 -53 -119h-131l-33 236q-41 10 -99 10q-133 0 -217 -112t-84 -317t83 -313t230 -108t292 129l43 -65q-146 -188 -372 -188t-343 150t-117 384zM481 1174l123 397h53q90 -31 136 -92l-205 -305h-107z" />
    <glyph glyph-name="nacute.loclPLK" horiz-adv-x="1243" 
d="M1217 0h-472v92l140 31v557q0 238 -217 238q-160 0 -279 -146v-670l160 -10v-92h-471v92l143 31v756l-143 36v84q158 37 270 45l41 -8l-10 -147h20q141 162 320 162q147 0 240 -88t94 -254v-607l164 -10v-92zM555 1174l123 397h53q90 -31 135 -92l-204 -305h-107z" />
    <glyph glyph-name="oacute.loclPLK" horiz-adv-x="1138" 
d="M569 948q-291 0 -291 -436t292 -436q290 0 290 436t-291 436zM88 508q0 234 136 388t361 155q226 0 346 -150q120 -149 120 -383q-1 -234 -137 -390t-361 -155q-225 0 -345 151q-120 150 -120 384zM625 1571h53q90 -31 135 -92l-205 -305h-106z" />
    <glyph glyph-name="sacute.loclPLK" horiz-adv-x="911" 
d="M432 -27q-174 0 -334 70q-10 47 -10 121t10 137h123l27 -190q74 -35 174 -35q225 0 225 160q0 68 -43 108t-137 78l-102 41q-119 49 -182 111q-62 62 -62 190t97 208q98 79 254 79t302 -66q10 -47 10 -122t-10 -136h-112l-25 184q-78 37 -167 37t-142 -42
q-54 -42 -54 -112t35 -102t121 -67l111 -43q143 -55 213 -120t69 -188q-1 -154 -109 -228t-282 -73zM381 1174l123 397h53q90 -31 135 -92l-205 -305h-106z" />
    <glyph glyph-name="zacute.loclPLK" horiz-adv-x="933" 
d="M866 177q0 -79 -26 -177h-758l-14 86l438 633q31 47 139 196l-8 15l-395 -17l-27 -186h-113q-10 66 -10 158t10 139h727l15 -88l-436 -631q-31 -47 -140 -196l8 -15l422 15l52 202l112 -10q4 -45 4 -124zM389 1174l123 397h53q90 -31 135 -92l-204 -305h-107z" />
    <glyph glyph-name="uni00CD004A.loclNLD.sc" horiz-adv-x="1554" 
d="M1475 1090v-95l-144 -30v-662q0 -168 -97 -258q-76 -69 -219 -70q-142 -2 -221 68t-79 152t51 127h133l33 -230q33 -8 67 -8q76 0 117 40t41 144v717l-199 10v95h517zM590 1090v-95l-154 -30v-861l154 -10v-94h-481v94l153 31v860l-153 10v95h481zM1153 1194l205 397h53
q80 -33 125 -108l-276 -289h-107zM494 1591h53q80 -33 125 -108l-277 -289h-106z" />
    <glyph glyph-name="Cacute.loclPLK.sc" horiz-adv-x="1087" 
d="M627 -27q-240 0 -374 160t-134 408q-1 247 149 409t398 162q147 0 295 -63q10 -47 10 -118t-10 -159h-119l-31 207q-70 23 -139 22q-166 1 -261 -111t-95 -330t98 -336q100 -118 252 -118t297 101l43 -72q-139 -162 -379 -162zM543 1194l123 397h53q86 -31 133 -94
l-203 -303h-106z" />
    <glyph glyph-name="Nacute.loclPLK.sc" horiz-adv-x="1419" 
d="M549 0h-440v94l153 31v860l-153 10v95h403l371 -594q113 -178 155 -258h21l-17 745l-170 12v95h447v-95l-154 -30v-963l-139 -22l-25 2l-469 743q-102 160 -139 240h-20l12 -861l164 -10v-94zM639 1194l123 397h53q86 -31 133 -94l-203 -303h-106z" />
    <glyph glyph-name="Oacute.loclPLK.sc" horiz-adv-x="1288" 
d="M651 999q-162 -1 -249 -115t-87 -338t88 -342t248 -118q322 0 322 456t-322 457zM668 1110q252 0 376 -152t125 -408q0 -256 -142 -415q-142 -160 -393 -160t-383 157q-132 156 -132 408t148 411q149 159 401 159zM700 1591h54q86 -31 133 -94l-203 -303h-106z" />
    <glyph glyph-name="Sacute.loclPLK.sc" horiz-adv-x="1011" 
d="M488 -27q-181 0 -338 66q-27 140 -17 278l121 11l53 -215q79 -29 187 -29t165 37t57 118t-45 126q-46 45 -145 86l-149 63q-106 47 -165 112q-58 65 -58 175q0 145 103 228t273 83t314 -61q10 -77 10 -139t-10 -138h-119l-31 209q-68 20 -149 21q-225 0 -226 -162
q0 -66 34 -104t114 -72l145 -62q150 -63 221 -130t70 -187q0 -156 -117 -235t-298 -79zM457 1194l123 397h53q86 -31 133 -94l-203 -303h-106z" />
    <glyph glyph-name="Zacute.loclPLK.sc" horiz-adv-x="1048" 
d="M981 158q0 -68 -23 -158h-870l-10 49l536 772q55 78 127 168l-10 15l-477 -19l-25 -168h-116q-13 68 -13 148t11 125h856l10 -50l-520 -749q-39 -57 -140 -189l11 -14l483 16l45 181l121 -11q4 -48 4 -116zM459 1194l123 397h53q86 -31 133 -94l-203 -303h-106z" />
    <glyph glyph-name="I.loclTRK.sc" horiz-adv-x="688" 
d="M590 0h-481v94l153 31v860l-153 10v95h481v-95l-154 -30v-861l154 -10v-94zM334 1464q55 0 90 -10q33 -55 33 -104t-45 -111h-144l-22 209q33 16 88 16z" />
    <glyph glyph-name="A.sc" horiz-adv-x="1251" 
d="M391 418h400q-78 211 -193 504h-20q-132 -348 -187 -504zM1225 0h-498v94l164 29q-29 90 -64 186h-473q-37 -109 -67 -205l155 -10v-94h-415v94l141 21q137 403 364 972l142 23l24 -2q266 -647 394 -1004l133 -10v-94z" />
    <glyph glyph-name="Aacute.sc" horiz-adv-x="1251" 
d="M391 418h400q-78 211 -193 504h-20q-132 -348 -187 -504zM1225 0h-498v94l164 29q-29 90 -64 186h-473q-37 -109 -67 -205l155 -10v-94h-415v94l141 21q137 403 364 972l142 23l24 -2q266 -647 394 -1004l133 -10v-94zM545 1194l205 397h53q80 -33 125 -108l-277 -289
h-106z" />
    <glyph glyph-name="Abreve.sc" horiz-adv-x="1251" 
d="M391 418h400q-78 211 -193 504h-20q-132 -348 -187 -504zM1225 0h-498v94l164 29q-29 90 -64 186h-473q-37 -109 -67 -205l155 -10v-94h-415v94l141 21q137 403 364 972l142 23l24 -2q266 -647 394 -1004l133 -10v-94zM594 1194q-129 0 -199 79t-78 226l121 45
q18 -115 64 -168t129 -53q82 0 128 56q45 56 70 171l68 -28q-16 -162 -95 -245t-208 -83z" />
    <glyph glyph-name="Acircumflex.sc" horiz-adv-x="1251" 
d="M391 418h400q-78 211 -193 504h-20q-132 -348 -187 -504zM1225 0h-498v94l164 29q-29 90 -64 186h-473q-37 -109 -67 -205l155 -10v-94h-415v94l141 21q137 403 364 972l142 23l24 -2q266 -647 394 -1004l133 -10v-94zM274 1194l283 389h102l244 -330l-121 -71l-200 217
h-21l-178 -205h-109z" />
    <glyph glyph-name="Adieresis.sc" horiz-adv-x="1251" 
d="M391 418h400q-78 211 -193 504h-20q-132 -348 -187 -504zM1225 0h-498v94l164 29q-29 90 -64 186h-473q-37 -109 -67 -205l155 -10v-94h-415v94l141 21q137 403 364 972l142 23l24 -2q266 -647 394 -1004l133 -10v-94zM830 1421q54 0 71 -8q33 -53 33 -96t-39 -103h-133
l-25 191q39 16 93 16zM389 1421q53 0 72 -8q33 -53 33 -96t-39 -103h-133l-25 191q39 16 92 16z" />
    <glyph glyph-name="Agrave.sc" horiz-adv-x="1251" 
d="M391 418h400q-78 211 -193 504h-20q-132 -348 -187 -504zM1225 0h-498v94l164 29q-29 90 -64 186h-473q-37 -109 -67 -205l155 -10v-94h-415v94l141 21q137 403 364 972l142 23l24 -2q266 -647 394 -1004l133 -10v-94zM588 1194l-285 289q49 78 133 108h53l205 -397h-106
z" />
    <glyph glyph-name="Amacron.sc" horiz-adv-x="1251" 
d="M391 418h400q-78 211 -193 504h-20q-132 -348 -187 -504zM1225 0h-498v94l164 29q-29 90 -64 186h-473q-37 -109 -67 -205l155 -10v-94h-415v94l141 21q137 403 364 972l142 23l24 -2q266 -647 394 -1004l133 -10v-94zM326 1313q0 37 8 67h549q8 -32 8 -68t-8 -67h-549
q-8 31 -8 68z" />
    <glyph glyph-name="Aogonek.sc" horiz-adv-x="1251" 
d="M391 418h400q-78 211 -193 504h-20q-132 -348 -187 -504zM1225 0h-357q-86 -100 -86 -205q0 -131 140 -131q61 0 120 23l19 -74q-67 -49 -181 -49t-179 50t-65 145t67 196q67 100 192 160q-31 94 -68 194h-473q-37 -106 -67 -205l155 -10v-94h-415v94l141 21
q137 403 364 972l142 23l24 -2q269 -651 394 -1004l133 -10v-94z" />
    <glyph glyph-name="Aring.sc" horiz-adv-x="1251" 
d="M391 418h400q-78 211 -193 504h-20q-132 -348 -187 -504zM1225 0h-498v94l164 29q-29 90 -64 186h-473q-37 -109 -67 -205l155 -10v-94h-415v94l141 21q137 403 364 972l142 23l24 -2q266 -647 394 -1004l133 -10v-94zM607 1489q-85 -1 -85 -105t85 -104t85 104t-85 105z
M599 1194q-101 0 -158 47q-56 47 -56 140t66 143q65 50 165 51q100 0 156 -48t55 -140q0 -92 -63 -143q-64 -50 -165 -50z" />
    <glyph glyph-name="Aringacute.sc" horiz-adv-x="1251" 
d="M391 418h400q-78 213 -193 504h-20q-132 -348 -187 -504zM602 1038q92 0 92 104t-85 105q-85 0 -85 -104q0 -51 23 -78t55 -27zM618 1333q211 -1 211 -195q0 -98 -81 -149q250 -612 344 -885l133 -10v-94h-498v94l164 29q-29 90 -64 186h-473q-37 -106 -67 -205l155 -10
v-94h-415v94l141 21q137 395 319 858q-100 43 -100 164q0 67 32 111q61 86 199 85zM555 1407l174 283h53q76 -43 113 -97l-233 -186h-107z" />
    <glyph glyph-name="Atilde.sc" horiz-adv-x="1251" 
d="M391 418h400q-78 211 -193 504h-20q-132 -348 -187 -504zM1225 0h-498v94l164 29q-29 90 -64 186h-473q-37 -109 -67 -205l155 -10v-94h-415v94l141 21q137 403 364 972l142 23l24 -2q266 -647 394 -1004l133 -10v-94zM307 1270q91 188 202 188q36 0 91 -28l152 -78
l118 106l56 -55q-96 -188 -213 -189q-35 0 -90 29l-150 78l-111 -107z" />
    <glyph glyph-name="AE.sc" horiz-adv-x="1693" 
d="M850 989h-64q-174 -303 -321 -571h385v571zM696 0v94l154 31v184h-444l-111 -205l147 -10v-94h-415v94l141 21q219 399 500 870l-154 10v95h1067q10 -49 10 -125t-10 -148h-119l-22 162l-416 10v-381l246 4l22 119h92v-344h-92l-22 121l-246 4v-412l412 11l43 174
l120 -11q4 -57 4.5 -104t-20.5 -170h-887z" />
    <glyph glyph-name="AEacute.sc" horiz-adv-x="1693" 
d="M850 989h-64q-174 -303 -321 -571h385v571zM696 0v94l154 31v184h-444l-111 -205l147 -10v-94h-415v94l141 21q219 399 500 870l-154 10v95h1067q10 -49 10 -125t-10 -148h-119l-22 162l-416 10v-381l246 4l22 119h92v-344h-92l-22 121l-246 4v-412l412 11l43 174
l120 -11q5 -57 5 -104t-21 -170h-887zM903 1194l205 397h53q80 -33 125 -108l-276 -289h-107z" />
    <glyph glyph-name="B.sc" horiz-adv-x="1126" 
d="M436 109h162q129 0 184 46t56 150q0 103 -58 153t-192 50h-152v-399zM436 612h240q111 72 110 201q0 92 -54 136t-179 44h-117v-381zM1032 297q0 -297 -442 -297h-481v94l153 31v860l-153 10v95q221 10 446 10q426 0 426 -281q0 -172 -176 -233v-21q227 -51 227 -268z
" />
    <glyph glyph-name="C.sc" horiz-adv-x="1087" 
d="M627 -27q-240 0 -374 160t-134 408t149.5 409.5t397.5 161.5q147 0 295 -63q10 -47 10 -118t-10 -159h-119l-31 207q-70 23 -139 22q-166 0 -261.5 -111.5t-95.5 -329.5t99.5 -336t251.5 -117.5t297 100.5l43 -72q-139 -162 -379 -162z" />
    <glyph glyph-name="Cacute.sc" horiz-adv-x="1087" 
d="M627 -27q-240 0 -374 160t-134 408q-1 247 149 409t398 162q147 0 295 -63q10 -47 10 -118t-10 -159h-119l-31 207q-70 23 -139 22q-166 1 -261 -111t-95 -330t98 -336q100 -118 252 -118t297 101l43 -72q-139 -162 -379 -162zM547 1194l205 397h53q80 -33 125 -108
l-277 -289h-106z" />
    <glyph glyph-name="Ccaron.sc" horiz-adv-x="1087" 
d="M627 -27q-240 0 -374 160t-134 408q-1 247 149 409t398 162q147 0 295 -63q10 -47 10 -118t-10 -159h-119l-31 207q-70 23 -139 22q-166 1 -261 -111t-95 -330t98 -336q100 -118 252 -118t297 101l43 -72q-139 -162 -379 -162zM313 1524l121 71l203 -217h20l179 205h108
l-282 -389h-103z" />
    <glyph glyph-name="Ccedilla.sc" horiz-adv-x="1087" 
d="M821 -276q0 -66 -60 -113t-170 -47t-185 55l18 74q86 -29 135 -29t81 20t32 54q0 35 -28 48t-118 30l25 161q-203 25 -318 180t-115 393t150 400t398 162q147 0 295 -63q10 -47 10 -118t-10 -159h-119l-31 207q-70 23 -139 22q-166 1 -261 -111t-95 -330t98 -336
q100 -118 252 -118t297 101l43 -72q-131 -154 -361 -162v-110q176 -5 176 -139z" />
    <glyph glyph-name="Ccircumflex.sc" horiz-adv-x="1087" 
d="M627 -27q-240 0 -374 160t-134 408q-1 247 149 409t398 162q147 0 295 -63q10 -47 10 -118t-10 -159h-119l-31 207q-70 23 -139 22q-166 1 -261 -111t-95 -330t98 -336q100 -118 252 -118t297 101l43 -72q-139 -162 -379 -162zM276 1194l283 389h103l243 -330l-121 -71
l-200 217h-21l-178 -205h-109z" />
    <glyph glyph-name="Cdotaccent.sc" horiz-adv-x="1087" 
d="M627 -27q-240 0 -374 160t-134 408q-1 247 149 409t398 162q147 0 295 -63q10 -47 10 -118t-10 -159h-119l-31 207q-70 23 -139 22q-166 1 -261 -111t-95 -330t98 -336q100 -118 252 -118t297 101l43 -72q-139 -162 -379 -162zM592 1464q55 0 90 -10q33 -55 33 -104
t-45 -111h-144l-22 209q33 16 88 16z" />
    <glyph glyph-name="D.sc" 
d="M436 109h119q199 0 294 109.5t95 335.5t-89 331.5t-298 105.5h-121v-882zM541 1100q311 0 455.5 -142.5t144.5 -397.5t-147.5 -407.5t-438.5 -152.5h-446v94l153 31v860l-153 10v95q229 10 432 10z" />
    <glyph glyph-name="Eth.sc" 
d="M436 109h119q199 -1 294 109t95 336t-89 332t-298 105h-121v-368h201v-109h-201v-405zM541 1100q311 0 455 -142t144 -398t-146 -408q-148 -152 -439 -152h-446v94l153 31v389h-196v109h196v362l-153 10v95q229 10 432 10z" />
    <glyph glyph-name="Dcaron.sc" 
d="M436 109h119q199 -1 294 109t95 336t-89 332t-298 105h-121v-882zM541 1100q311 0 455 -142t144 -398t-146 -408q-148 -152 -439 -152h-446v94l153 31v860l-153 10v95q229 10 432 10zM248 1524l121 71l202 -217h21l178 205h109l-283 -389h-102z" />
    <glyph glyph-name="Dcroat.sc" 
d="M436 109h119q199 -1 294 109t95 336t-89 332t-298 105h-121v-368h201v-109h-201v-405zM541 1100q311 0 455 -142t144 -398t-146 -408q-148 -152 -439 -152h-446v94l153 31v389h-196v109h196v362l-153 10v95q229 10 432 10z" />
    <glyph glyph-name="E.sc" horiz-adv-x="1105" 
d="M1016 170q0 -47 -21 -170h-886v94l153 31v860l-153 10v95h884q24 -117 0 -273h-119l-22 162l-416 10v-381l246 4l23 119h92v-344h-92l-23 121l-246 4v-412l412 11l43 174l121 -11q4 -57 4 -104z" />
    <glyph glyph-name="Eacute.sc" horiz-adv-x="1105" 
d="M1016 170q0 -47 -21 -170h-886v94l153 31v860l-153 10v95h884q24 -117 0 -273h-119l-22 162l-416 10v-381l246 4l23 119h92v-344h-92l-23 121l-246 4v-412l412 11l43 174l121 -11q4 -57 4 -104zM510 1194l205 397h53q80 -33 125 -108l-277 -289h-106z" />
    <glyph glyph-name="Ebreve.sc" horiz-adv-x="1105" 
d="M1016 170q0 -47 -21 -170h-886v94l153 31v860l-153 10v95h884q24 -117 0 -273h-119l-22 162l-416 10v-381l246 4l23 119h92v-344h-92l-23 121l-246 4v-412l412 11l43 174l121 -11q4 -57 4 -104zM559 1194q-129 0 -199 79t-77 226l120 45q19 -115 65 -168t128 -53t128 56
t71 171l67 -28q-16 -162 -95 -245t-208 -83z" />
    <glyph glyph-name="Ecaron.sc" horiz-adv-x="1105" 
d="M1016 170q0 -47 -21 -170h-886v94l153 31v860l-153 10v95h884q24 -117 0 -273h-119l-22 162l-416 10v-381l246 4l23 119h92v-344h-92l-23 121l-246 4v-412l412 11l43 174l121 -11q4 -57 4 -104zM276 1524l121 71l203 -217h21l178 205h108l-282 -389h-103z" />
    <glyph glyph-name="Ecircumflex.sc" horiz-adv-x="1105" 
d="M1016 170q0 -47 -21 -170h-886v94l153 31v860l-153 10v95h884q24 -117 0 -273h-119l-22 162l-416 10v-381l246 4l23 119h92v-344h-92l-23 121l-246 4v-412l412 11l43 174l121 -11q4 -57 4 -104zM240 1194l282 389h103l243 -330l-120 -71l-201 217h-21l-178 -205h-108z
" />
    <glyph glyph-name="Edieresis.sc" horiz-adv-x="1105" 
d="M1016 170q0 -47 -21 -170h-886v94l153 31v860l-153 10v95h884q24 -117 0 -273h-119l-22 162l-416 10v-381l246 4l23 119h92v-344h-92l-23 121l-246 4v-412l412 11l43 174l121 -11q4 -57 4 -104zM794 1421q54 0 72 -8q33 -53 33 -96t-39 -103h-133l-25 191q38 16 92 16z
M354 1421q54 0 72 -8q33 -53 33 -96t-39 -103h-133l-25 191q38 16 92 16z" />
    <glyph glyph-name="Edotaccent.sc" horiz-adv-x="1105" 
d="M1016 170q0 -47 -21 -170h-886v94l153 31v860l-153 10v95h884q24 -117 0 -273h-119l-22 162l-416 10v-381l246 4l23 119h92v-344h-92l-23 121l-246 4v-412l412 11l43 174l121 -11q4 -57 4 -104zM555 1464q55 0 90 -10q33 -55 33 -104t-45 -111h-144l-22 209q33 16 88 16z
" />
    <glyph glyph-name="Egrave.sc" horiz-adv-x="1105" 
d="M1016 170q0 -47 -21 -170h-886v94l153 31v860l-153 10v95h884q24 -117 0 -273h-119l-22 162l-416 10v-381l246 4l23 119h92v-344h-92l-23 121l-246 4v-412l412 11l43 174l121 -11q4 -57 4 -104zM553 1194l-285 289q49 78 133 108h54l204 -397h-106z" />
    <glyph glyph-name="Emacron.sc" horiz-adv-x="1105" 
d="M1016 170q0 -47 -21 -170h-886v94l153 31v860l-153 10v95h884q24 -117 0 -273h-119l-22 162l-416 10v-381l246 4l23 119h92v-344h-92l-23 121l-246 4v-412l412 11l43 174l121 -11q4 -57 4 -104zM291 1313q0 37 8 67h549q8 -32 8 -68t-8 -67h-549q-8 31 -8 68z" />
    <glyph glyph-name="Eogonek.sc" horiz-adv-x="1105" 
d="M727 -221q0 -51 36 -83t93 -32t117 23l18 -74q-65 -49 -177 -49t-172 52t-60 134q0 133 159 250h-632v94l153 31v860l-153 10v95h884q24 -117 0 -273h-119l-22 162l-416 10v-381l246 4l23 119h92v-344h-92l-23 121l-246 4v-412l412 11l43 174l121 -11q4 -57 4 -104
t-21 -170h-153q-115 -123 -115 -221z" />
    <glyph glyph-name="F.sc" horiz-adv-x="1030" 
d="M109 1090h864q10 -49 10 -125t-10 -148h-119l-23 162l-395 10v-420l232 4l22 119h92v-344h-92l-22 121l-232 2v-367l195 -10v-94h-522v94l153 31v860l-153 10v95z" />
    <glyph glyph-name="G.sc" horiz-adv-x="1153" 
d="M633 -27q-244 0 -379 159t-135 407.5t148.5 410.5t391.5 162q154 0 302 -63q10 -47 10 -118t-10 -159h-119l-31 207q-72 23 -147 22q-164 0 -256.5 -110.5t-92.5 -338.5t91.5 -348t236.5 -120q72 0 176 33l-22 260l-164 10v94h426v-94l-84 -31v-311q-156 -72 -342 -72z
" />
    <glyph glyph-name="Gbreve.sc" horiz-adv-x="1153" 
d="M633 -27q-244 0 -379 159q-135 160 -135 408t148 410t392 162q154 0 302 -63q10 -47 10 -118t-10 -159h-119l-31 207q-72 23 -147 22q-164 -1 -256 -111t-92 -338t90 -348q92 -120 237 -120q72 0 176 33l-22 260l-164 10v94h426v-94l-84 -31v-311q-156 -72 -342 -72z
M616 1194q-128 0 -198 79t-78 226l121 45q18 -115 64 -168t128 -53t128 56t71 171l68 -28q-16 -162 -96 -245t-208 -83z" />
    <glyph glyph-name="Gcircumflex.sc" horiz-adv-x="1153" 
d="M633 -27q-244 0 -379 159q-135 160 -135 408t148 410t392 162q154 0 302 -63q10 -47 10 -118t-10 -159h-119l-31 207q-72 23 -147 22q-164 -1 -256 -111t-92 -338t90 -348q92 -120 237 -120q72 0 176 33l-22 260l-164 10v94h426v-94l-84 -31v-311q-156 -72 -342 -72z
M297 1194l283 389h102l244 -330l-121 -71l-201 217h-20l-178 -205h-109z" />
    <glyph glyph-name="Gcommaaccent.sc" horiz-adv-x="1153" 
d="M589 -109q44 0 75 -16q36 -57 36 -133t-48 -144t-132 -98l-33 51q102 76 103 142q0 18 -2 31l-86 14v139q43 14 87 14zM633 -27q-244 0 -379 159q-135 160 -135 408t148 410t392 162q154 0 302 -63q10 -47 10 -118t-10 -159h-119l-31 207q-72 23 -147 22
q-164 -1 -256 -111t-92 -338t90 -348q92 -120 237 -120q72 0 176 33l-22 260l-164 10v94h426v-94l-84 -31v-311q-156 -72 -342 -72z" />
    <glyph glyph-name="Gdotaccent.sc" horiz-adv-x="1153" 
d="M633 -27q-244 0 -379 159q-135 160 -135 408t148 410t392 162q154 0 302 -63q10 -47 10 -118t-10 -159h-119l-31 207q-72 23 -147 22q-164 -1 -256 -111t-92 -338t90 -348q92 -120 237 -120q72 0 176 33l-22 260l-164 10v94h426v-94l-84 -31v-311q-156 -72 -342 -72z
M612 1464q56 0 90 -10q33 -55 33 -104t-45 -111h-143l-23 209q32 16 88 16z" />
    <glyph glyph-name="H.sc" horiz-adv-x="1425" 
d="M1327 0h-491v94l153 31v385h-553v-406l164 -10v-94h-491v94l153 31v860l-153 10v95h491v-95l-164 -30v-347h553v367l-153 10v95h491v-95l-164 -30v-861l164 -10v-94z" />
    <glyph glyph-name="Hbar.sc" horiz-adv-x="1425" 
d="M436 735v-157h553v157h-553zM1327 0h-491v94l153 31v344h-553v-365l164 -10v-94h-491v94l153 31v610h-205v109h205v141l-153 10v95h491v-95l-164 -30v-121h553v141l-153 10v95h491v-95l-164 -30v-121h215v-109h-215v-631l164 -10v-94z" />
    <glyph glyph-name="Hcircumflex.sc" horiz-adv-x="1425" 
d="M1327 0h-491v94l153 31v385h-553v-406l164 -10v-94h-491v94l153 31v860l-153 10v95h491v-95l-164 -30v-347h553v367l-153 10v95h491v-95l-164 -30v-861l164 -10v-94zM379 1194l283 389h102l244 -330l-121 -71l-201 217h-20l-179 -205h-108z" />
    <glyph glyph-name="IJ.sc" horiz-adv-x="1554" 
d="M1331 303q0 -168 -97 -258q-76 -69 -219 -70q-142 -2 -221 68t-79 152t51 127h133l33 -230q33 -8 67 -8q76 0 117 40t41 144v717l-199 10v95h517v-95l-144 -30v-662zM590 1090v-95l-154 -30v-861l154 -10v-94h-481v94l153 31v860l-153 10v95h481z" />
    <glyph glyph-name="Iacute.sc" horiz-adv-x="688" 
d="M590 1090v-95l-154 -30v-861l154 -10v-94h-481v94l153 31v860l-153 10v95h481zM289 1194l205 397h53q80 -33 125 -108l-277 -289h-106z" />
    <glyph glyph-name="Ibreve.sc" horiz-adv-x="688" 
d="M590 1090v-95l-154 -30v-861l154 -10v-94h-481v94l153 31v860l-153 10v95h481zM338 1194q-129 0 -199 79t-78 226l121 45q18 -115 64 -168t129 -53q82 0 128 56q45 56 70 171l68 -28q-16 -162 -95 -245t-208 -83z" />
    <glyph glyph-name="Icircumflex.sc" horiz-adv-x="688" 
d="M590 1090v-95l-154 -30v-861l154 -10v-94h-481v94l153 31v860l-153 10v95h481zM18 1194l283 389h102l244 -330l-121 -71l-200 217h-21l-178 -205h-109z" />
    <glyph glyph-name="Idieresis.sc" horiz-adv-x="688" 
d="M590 1090v-95l-154 -30v-861l154 -10v-94h-481v94l153 31v860l-153 10v95h481zM574 1421q54 0 71 -8q33 -53 33 -96t-39 -103h-133l-25 191q39 16 93 16zM133 1421q53 0 72 -8q33 -53 33 -96t-39 -103h-133l-25 191q39 16 92 16z" />
    <glyph glyph-name="uni0130.sc" horiz-adv-x="688" 
d="M590 0h-481v94l153 31v860l-153 10v95h481v-95l-154 -30v-861l154 -10v-94z" />
    <glyph glyph-name="Igrave.sc" horiz-adv-x="688" 
d="M590 0h-481v94l153 31v860l-153 10v95h481v-95l-154 -30v-861l154 -10v-94zM332 1194l-285 289q49 78 133 108h53l205 -397h-106z" />
    <glyph glyph-name="Imacron.sc" horiz-adv-x="688" 
d="M590 1090v-95l-154 -30v-861l154 -10v-94h-481v94l153 31v860l-153 10v95h481zM635 1312q0 -36 -8 -67h-549q-8 31 -8 67t8 68h549q8 -32 8 -68z" />
    <glyph glyph-name="Iogonek.sc" horiz-adv-x="688" 
d="M453 -336q57 0 116 23l19 -74q-66 -49 -178 -49t-171 49q-61 49 -61 132t58 149t135 86v20h-262v94l153 31v860l-153 10v95h481v-95l-154 -30v-861l154 -10v-94q-119 -20 -193 -78t-73 -143q0 -115 129 -115z" />
    <glyph glyph-name="Itilde.sc" horiz-adv-x="688" 
d="M590 1090v-95l-154 -30v-861l154 -10v-94h-481v94l153 31v860l-153 10v95h481zM51 1270q91 188 202 188q36 0 91 -28l152 -78l118 106l56 -55q-96 -188 -213 -189q-35 0 -90 29l-150 78l-111 -107z" />
    <glyph glyph-name="J.sc" horiz-adv-x="866" 
d="M643 303q-1 -251 -199 -313q-56 -18 -124 -17q-141 0 -217 70t-76 152t51 127h133l33 -230q33 -8 67 -8q76 0 117 40t41 144v717l-199 10v95h516v-95l-143 -30v-662z" />
    <glyph glyph-name="Jcircumflex.sc" horiz-adv-x="866" 
d="M786 1090v-95l-143 -30v-662q0 -252 -199 -312q-130 -40 -245 0q-172 61 -172 227q0 58 51 104h133l33 -230q33 -8 67 -8q76 0 117 40t41 144v717l-199 10v95h516zM195 1194l282 389h103l243 -330l-121 -71l-200 217h-21l-178 -205h-108z" />
    <glyph glyph-name="K.sc" horiz-adv-x="1245" 
d="M436 506v-402l164 -10v-94h-491v94l153 31v860l-153 10v95h491v-95l-164 -30v-351h191q139 178 274 371l-143 10v95h422v-95l-133 -24q-145 -180 -310 -359q86 -111 344 -493l117 -43l-8 -66q-148 -54 -235 8q-46 32 -107.5 119.5t-233.5 368.5h-178z" />
    <glyph glyph-name="Kcommaaccent.sc" horiz-adv-x="1245" 
d="M683 -109q44 0 75 -16q37 -57 37 -133q-1 -76 -49 -144t-132 -98l-32 51q102 76 102 142q0 18 -2 31l-86 14v139q43 14 87 14zM436 506v-402l164 -10v-94h-491v94l153 31v860l-153 10v95h491v-95l-164 -30v-351h191q139 178 274 371l-143 10v95h422v-95l-133 -24
q-145 -180 -310 -359q86 -111 344 -493l117 -43l-8 -66q-148 -53 -235 8q-45 33 -107 120t-234 368h-178z" />
    <glyph glyph-name="L.sc" horiz-adv-x="995" 
d="M958 174q0 -51 -20 -174h-829v94l153 31v860l-153 10v95h512v-95l-185 -30v-865l348 9l50 196l120 -10q4 -70 4 -121z" />
    <glyph glyph-name="Lacute.sc" horiz-adv-x="995" 
d="M958 174q0 -51 -20 -174h-829v94l153 31v860l-153 10v95h512v-95l-185 -30v-865l348 9l50 196l120 -10q4 -70 4 -121zM293 1194l205 397h53q80 -33 125 -108l-277 -289h-106z" />
    <glyph glyph-name="Lcaron.sc" horiz-adv-x="995" 
d="M958 174q0 -51 -20 -174h-829v94l153 31v860l-153 10v95h512v-95l-185 -30v-865l348 9l50 196l120 -10q4 -70 4 -121zM850 1012q0 20 -4 37l-92 16l-4 168q47 12 98 12t86 -18q43 -73 43 -169q1 -96 -59 -176t-160 -110l-23 59q47 25 81 72t34 109z" />
    <glyph glyph-name="Lcommaaccent.sc" horiz-adv-x="995" 
d="M517 -109q44 0 75 -16q37 -57 37 -133t-48 -144t-132 -98l-33 51q102 76 102 142q0 18 -2 31l-86 14v139q43 14 87 14zM958 174q0 -51 -20 -174h-829v94l153 31v860l-153 10v95h512v-95l-185 -30v-865l348 9l50 196l120 -10q4 -70 4 -121z" />
    <glyph glyph-name="Ldot.sc" horiz-adv-x="995" 
d="M760 766q58 0 82 -6q45 -60 45 -116t-37 -114h-166l-37 205q55 31 113 31zM958 174q0 -51 -20 -174h-829v94l153 31v860l-153 10v95h512v-95l-185 -30v-865l348 9l50 196l120 -10q4 -70 4 -121z" />
    <glyph glyph-name="Lslash.sc" horiz-adv-x="995" 
d="M958 174q0 -51 -20 -174h-829v94l153 31v321l-217 -90l-12 21v88l229 96v424l-153 10v95h512v-95l-185 -30v-330l295 123l12 -21v-88l-307 -129v-420l348 9l50 196l120 -10q4 -70 4 -121z" />
    <glyph glyph-name="M.sc" horiz-adv-x="1634" 
d="M1579 0h-496v94l154 31q-12 498 -27 840h-20q-25 -104 -74 -238l-254 -674l-108 -20l-23 2l-254 682q-63 172 -84 248h-20q-18 -303 -31 -861l164 -10v-94h-443v94l154 31q14 367 51 860l-164 10v95h424q141 -365 287 -803h21q186 549 284 803h422v-95l-174 -28
q31 -424 47 -863l164 -10v-94z" />
    <glyph glyph-name="N.sc" horiz-adv-x="1419" 
d="M549 0h-440v94l153 31v860l-153 10v95h403l371 -594q113 -178 155 -258h21l-17 745l-170 12v95h447v-95l-154 -30v-963l-139 -22l-25 2l-469 743q-102 160 -139 240h-20l12 -861l164 -10v-94z" />
    <glyph glyph-name="Nacute.sc" horiz-adv-x="1419" 
d="M549 0h-440v94l153 31v860l-153 10v95h403l371 -594q113 -178 155 -258h21l-17 745l-170 12v95h447v-95l-154 -30v-963l-139 -22l-25 2l-469 743q-102 160 -139 240h-20l12 -861l164 -10v-94zM643 1194l205 397h53q80 -33 125 -108l-276 -289h-107z" />
    <glyph glyph-name="Ncaron.sc" horiz-adv-x="1419" 
d="M549 0h-440v94l153 31v860l-153 10v95h403l371 -594q113 -178 155 -258h21l-17 745l-170 12v95h447v-95l-154 -30v-963l-139 -22l-25 2l-469 743q-102 160 -139 240h-20l12 -861l164 -10v-94zM410 1524l120 71l203 -217h21l178 205h108l-282 -389h-103z" />
    <glyph glyph-name="Ncommaaccent.sc" horiz-adv-x="1419" 
d="M697 -109q44 0 75 -16q37 -57 37 -133t-48 -144t-132 -98l-33 51q102 76 102 142q0 18 -2 31l-86 14v139q43 14 87 14zM549 0h-440v94l153 31v860l-153 10v95h403l371 -594q113 -178 155 -258h21l-17 745l-170 12v95h447v-95l-154 -30v-963l-139 -22l-25 2l-469 743
q-102 160 -139 240h-20l12 -861l164 -10v-94z" />
    <glyph glyph-name="Eng.sc" horiz-adv-x="1419" 
d="M549 0h-440v94l153 31v860l-153 10v95h403l371 -594q113 -178 155 -258h21l-17 745l-170 12v95h447v-95l-154 -30v-926q0 -119 -45 -212q-44 -93 -116 -141t-163 -48t-134 63l16 106h240q51 58 51 170l-482 748q-102 160 -139 240h-20l12 -861l164 -10v-94z" />
    <glyph glyph-name="Ntilde.sc" horiz-adv-x="1419" 
d="M549 0h-440v94l153 31v860l-153 10v95h403l371 -594q113 -178 155 -258h21l-17 745l-170 12v95h447v-95l-154 -30v-963l-139 -22l-25 2l-469 743q-102 160 -139 240h-20l12 -861l164 -10v-94zM610 1458q33 0 88 -28l152 -78l119 106l55 -55q-96 -188 -213 -189
q-35 0 -90 29l-150 78l-110 -107l-55 56q91 188 204 188z" />
    <glyph glyph-name="O.sc" horiz-adv-x="1288" 
d="M651 999q-162 0 -249 -114.5t-87 -338.5t88.5 -342t247.5 -118q322 0 322 456.5t-322 456.5zM668 1110q252 0 376.5 -151.5t124.5 -407.5t-142 -416t-393 -160t-383 157t-132 408.5t148.5 410.5t400.5 159z" />
    <glyph glyph-name="Oacute.sc" horiz-adv-x="1288" 
d="M651 999q-162 -1 -249 -115t-87 -338t88 -342t248 -118q322 0 322 456t-322 457zM668 1110q252 0 376 -152t125 -408q0 -256 -142 -415q-142 -160 -393 -160t-383 157q-132 156 -132 408t148 411q149 159 401 159zM786 1591h54q80 -33 125 -108l-277 -289h-106z" />
    <glyph glyph-name="Obreve.sc" horiz-adv-x="1288" 
d="M651 999q-162 -1 -249 -115t-87 -338t88 -342t248 -118q322 0 322 456t-322 457zM668 1110q252 0 376 -152t125 -408q0 -256 -142 -415q-142 -160 -393 -160t-383 157q-132 156 -132 408t148 411q149 159 401 159zM631 1194q-129 0 -199 79t-78 226l121 45
q19 -115 65 -168t128 -53t128 56q45 56 70 171l68 -28q-16 -162 -95 -245t-208 -83z" />
    <glyph glyph-name="Ocircumflex.sc" horiz-adv-x="1288" 
d="M651 999q-162 -1 -249 -115t-87 -338t88 -342t248 -118q322 0 322 456t-322 457zM668 1110q252 0 376 -152t125 -408q0 -256 -142 -415q-142 -160 -393 -160t-383 157q-132 156 -132 408t148 411q149 159 401 159zM819 1182l-201 217h-20l-178 -205h-109l283 389h102
l244 -330z" />
    <glyph glyph-name="Odieresis.sc" horiz-adv-x="1288" 
d="M651 999q-162 -1 -249 -115t-87 -338t88 -342t248 -118q322 0 322 456t-322 457zM668 1110q252 0 376 -152t125 -408q0 -256 -142 -415q-142 -160 -393 -160t-383 157q-132 156 -132 408t148 411q149 159 401 159zM866 1421q54 0 72 -8q33 -53 33 -96t-39 -103h-133
l-25 191q38 16 92 16zM426 1421q53 0 72 -8q32 -53 32 -96t-38 -103h-134l-24 191q39 16 92 16z" />
    <glyph glyph-name="Ograve.sc" horiz-adv-x="1288" 
d="M651 999q-162 -1 -249 -115t-87 -338t88 -342t248 -118q322 0 322 456t-322 457zM668 1110q252 0 376 -152t125 -408q0 -256 -142 -415q-142 -160 -393 -160t-383 157q-132 156 -132 408t148 411q149 159 401 159zM625 1194l-285 289q49 78 133 108h53l205 -397h-106z
" />
    <glyph glyph-name="Ohungarumlaut.sc" horiz-adv-x="1288" 
d="M651 999q-162 -1 -249 -115t-87 -338t88 -342t248 -118q322 0 322 456t-322 457zM668 1110q252 0 376 -152t125 -408q0 -256 -142 -415q-142 -160 -393 -160t-383 157q-132 156 -132 408t148 411q149 159 401 159zM823 1591h51q84 -14 144 -80l-203 -317h-86zM494 1591
h51q84 -14 143 -80l-203 -317h-86z" />
    <glyph glyph-name="Omacron.sc" horiz-adv-x="1288" 
d="M651 999q-162 -1 -249 -115t-87 -338t88 -342t248 -118q322 0 322 456t-322 457zM668 1110q252 0 376 -152t125 -408q0 -256 -142 -415q-142 -160 -393 -160t-383 157q-132 156 -132 408t148 411q149 159 401 159zM928 1312q0 -36 -8 -67h-549q-8 31 -8 67t8 68h549
q8 -32 8 -68z" />
    <glyph glyph-name="Oslash.sc" horiz-adv-x="1288" 
d="M651 86q158 0 240 115.5t82 317t-49 310.5l-463 -686q78 -57 190 -57zM315 562.5q0 -207.5 66 -322.5l467 694q-76 66 -197 65q-162 0 -249 -114.5t-87 -322zM1169 560.5q0 -265.5 -142 -425.5t-394 -160q-147 0 -258 60l-125 -182l-92 38l-11 23l132 190
q-160 152 -160 420t148.5 427t402.5 159q156 0 268 -63l129 186l92 -39l10 -23l-137 -200q137 -145 137 -410.5z" />
    <glyph glyph-name="Oslashacute.sc" horiz-adv-x="1288" 
d="M651 86q158 0 240 116t82 317t-49 310l-463 -686q78 -57 190 -57zM315 562q0 -208 66 -322l467 694q-76 66 -197 65q-162 -1 -249 -115t-87 -322zM1169 560q0 -266 -142 -425q-142 -160 -394 -160q-147 0 -258 60l-125 -182l-92 38l-11 23l132 190q-160 152 -160 420
t148 427t403 159q156 0 268 -63l129 186l92 -39l10 -23l-137 -200q137 -145 137 -411zM582 1194l204 397h54q80 -33 125 -108l-277 -289h-106z" />
    <glyph glyph-name="Otilde.sc" horiz-adv-x="1288" 
d="M651 86q322 0 322 457t-322 456q-162 -1 -249 -115t-87 -338t88 -342t248 -118zM668 1110q252 0 376 -152t125 -408q0 -256 -142 -415q-142 -160 -393 -160t-383 157q-132 156 -132 408t148 411q149 159 401 159zM344 1270q91 188 202 188q36 0 91 -28l151 -78l119 106
l56 -55q-96 -188 -213 -189q-35 0 -91 29l-149 78l-111 -107z" />
    <glyph glyph-name="OE.sc" horiz-adv-x="1775" 
d="M315 543q0 -457 351 -457q139 0 266 45v830q-109 39 -232 38q-193 0 -289 -110.5t-96 -345.5zM670 -25q-274 0 -412.5 155t-138.5 409.5t154.5 412.5t435.5 158q113 0 229 -20h727v-11q8 -45 8 -117.5t-10 -144.5h-119l-22 164l-418 8v-381l248 4l22 119h92v-344h-92
l-22 121l-248 4v-410l414 9l43 174l120 -11q4 -57 4.5 -105.5t-20.5 -166.5h-743q-139 -27 -252 -27z" />
    <glyph glyph-name="P.sc" horiz-adv-x="1062" 
d="M555 1100q225 0 338 -91t113 -256t-98 -260t-251 -96q-70 0 -127 15v84h39q123 0 182 60q58 60 58 188t-61 188t-201 61h-111v-889l185 -12v-92h-512v94l153 31v860l-153 10v95q221 10 446 10z" />
    <glyph glyph-name="Thorn.sc" horiz-adv-x="1081" 
d="M436 903h148q207 0 313 -93q107 -93 107 -231q0 -137 -98 -229t-261 -92q-68 0 -117 14v84h35q244 0 244 219t-223 220h-148v-691l185 -12v-92h-512v94l153 31v860l-153 10v95h307l20 -27v-160z" />
    </font>
</defs>
</svg>
