<?xml version="1.0" encoding="utf-8"?>
<svg width="16px" height="16px" viewBox="0 0 16 16" version="1.1" xmlns="http://www.w3.org/2000/svg" xmlns:xlink="http://www.w3.org/1999/xlink">
    <title>Instagram</title>
	<g>
		<path d="M8,1.441c2.136,0,2.389,0.008,3.233,0.047c0.78,0.036,1.204,0.166,1.485,0.275c0.373,0.145,0.64,0.318,0.92,0.598
			c0.28,0.28,0.453,0.546,0.598,0.92c0.11,0.282,0.24,0.706,0.275,1.485C14.55,5.611,14.559,5.864,14.559,8s-0.008,2.389-0.047,3.233
			c-0.036,0.78-0.166,1.204-0.275,1.485c-0.145,0.373-0.318,0.64-0.598,0.92c-0.28,0.28-0.546,0.453-0.92,0.598
			c-0.282,0.11-0.706,0.24-1.485,0.275C10.389,14.55,10.136,14.559,8,14.559s-2.389-0.008-3.233-0.047
			c-0.78-0.036-1.204-0.166-1.485-0.275c-0.373-0.145-0.64-0.318-0.92-0.598c-0.28-0.28-0.453-0.546-0.598-0.92
			c-0.11-0.282-0.24-0.706-0.275-1.485C1.45,10.389,1.441,10.136,1.441,8S1.45,5.611,1.488,4.767c0.036-0.78,0.166-1.204,0.275-1.485
			c0.145-0.373,0.318-0.64,0.598-0.92c0.28-0.28,0.546-0.453,0.92-0.598c0.282-0.11,0.706-0.24,1.485-0.275
			C5.611,1.45,5.864,1.441,8,1.441 M8,0C5.827,0,5.555,0.009,4.702,0.048C3.85,0.087,3.269,0.222,2.76,0.42
			C2.234,0.624,1.787,0.898,1.343,1.343C0.898,1.787,0.624,2.234,0.42,2.76C0.222,3.269,0.087,3.85,0.048,4.702
			C0.009,5.555,0,5.827,0,8c0,2.173,0.009,2.445,0.048,3.298c0.039,0.852,0.174,1.433,0.372,1.942
			c0.204,0.526,0.478,0.972,0.923,1.417c0.445,0.445,0.891,0.718,1.417,0.923c0.509,0.198,1.09,0.333,1.942,0.372
			C5.555,15.991,5.827,16,8,16s2.445-0.009,3.298-0.048c0.852-0.039,1.433-0.174,1.942-0.372c0.526-0.204,0.972-0.478,1.417-0.923
			c0.445-0.445,0.718-0.891,0.923-1.417c0.198-0.509,0.333-1.09,0.372-1.942C15.991,10.445,16,10.173,16,8s-0.009-2.445-0.048-3.298
			C15.913,3.85,15.778,3.269,15.58,2.76c-0.204-0.526-0.478-0.972-0.923-1.417c-0.445-0.445-0.891-0.718-1.417-0.923
			c-0.509-0.198-1.09-0.333-1.942-0.372C10.445,0.009,10.173,0,8,0L8,0z"/>
		<path d="M8,3.892C5.731,3.892,3.892,5.731,3.892,8S5.731,12.108,8,12.108S12.108,10.269,12.108,8S10.269,3.892,8,3.892z M8,10.667
			c-1.473,0-2.667-1.194-2.667-2.667S6.527,5.333,8,5.333S10.667,6.527,10.667,8S9.473,10.667,8,10.667z"/>
		<circle cx="12.27" cy="3.73" r="0.96"/>
	</g>
</svg>
