<?xml version="1.0" encoding="utf-8"?>
<svg width="16px" height="16px" viewBox="0 0 16 16" version="1.1" xmlns="http://www.w3.org/2000/svg" xmlns:xlink="http://www.w3.org/1999/xlink">
	<title>Google</title>
	<g>
		<path fill="#4285F4" d="M15.68,8.182c0-0.567-0.051-1.113-0.145-1.636H8V9.64h4.305c-0.185,1-0.749,1.847-1.596,2.415v2.007h2.585
			C14.807,12.669,15.68,10.618,15.68,8.182z"/>
		<path fill="#34A853" d="M8,16c2.16,0,3.971-0.716,5.295-1.938l-2.585-2.007C9.993,12.535,9.076,12.818,8,12.818
			c-2.084,0-3.847-1.407-4.476-3.298H0.851v2.073C2.167,14.207,4.873,16,8,16z"/>
		<path fill="#FBBC05" d="M3.524,9.52C3.364,9.04,3.273,8.527,3.273,8s0.091-1.04,0.251-1.52V4.407H0.851C0.309,5.487,0,6.709,0,8
			s0.309,2.513,0.851,3.593L3.524,9.52z"/>
		<path fill="#EA4335" d="M8,3.182c1.175,0,2.229,0.404,3.058,1.196l2.295-2.295C11.967,0.793,10.156,0,8,0
			C4.873,0,2.167,1.793,0.851,4.407L3.524,6.48C4.153,4.589,5.917,3.182,8,3.182z"/>
	</g>
</svg>
