<?xml version="1.0" encoding="utf-8"?>
<svg width="12px" height="10px" viewBox="0 0 12 10" version="1.1" xmlns="http://www.w3.org/2000/svg" xmlns:xlink="http://www.w3.org/1999/xlink">
	<title>Antworten</title>
	<path d="M12,8.24c0,0.332-0.116,0.628-0.329,0.849c-0.213,0.223-0.507,0.369-0.824,0.369
		c-0.329,0-0.624-0.146-0.824-0.369c-0.2-0.22-0.341-0.517-0.341-0.849c0-0.554-0.21-1.071-0.564-1.44
		C8.764,6.431,8.271,6.208,7.742,6.208H6.2v2.437c0,0.149-0.037,0.294-0.119,0.418C6,9.187,5.906,9.286,5.765,9.373
		c-0.025,0.01-0.047,0.01-0.072,0.022L5.599,9.432C5.54,9.444,5.483,9.457,5.423,9.457c-0.082,0-0.166-0.025-0.247-0.049
		C5.095,9.383,5.035,9.348,4.953,9.286L0.317,5.642C0.21,5.58,0.141,5.468,0.094,5.36C0.034,5.248,0,5.112,0,5.001
		c0-0.134,0.035-0.257,0.094-0.369C0.141,4.521,0.21,4.437,0.317,4.35l4.637-3.645C5.082,0.607,5.211,0.56,5.352,0.547
		c0.141-0.012,0.285,0,0.413,0.084C5.906,0.693,6,0.792,6.082,0.928C6.163,1.062,6.2,1.198,6.2,1.346v2.437h1.541
		c1.175,0,2.247,0.505,3.011,1.304C11.518,5.889,12,7.007,12,8.24L12,8.24z"/>
</svg>
