<?xml version="1.0" encoding="utf-8"?>
<svg width="16px" height="16px" viewBox="0 0 16 16" version="1.1" xmlns="http://www.w3.org/2000/svg" xmlns:xlink="http://www.w3.org/1999/xlink">
	<title>Twitter</title>
	<path fill="#1DA1F2" d="M5.0316796,14.5004187c6.0377603,0,9.3401604-5.0022402,9.3401604-9.3401604
		c0-0.1420798,0-0.2835193-0.0095997-0.4243202C15.0046911,4.2712407,15.559268,3.6958611,16,3.0367389
		c-0.5991173,0.2654734-1.2346678,0.4395704-1.8854399,0.5164807c0.685276-0.4102516,1.1981583-1.0555065,1.4432001-1.8156803
		c-0.6443796,0.3823717-1.3493481,0.6518476-2.0844812,0.7967999c-1.2431993-1.3219308-3.322648-1.3857549-4.6445789-0.1425552
		C7.9761639,3.1935446,7.6144319,4.3882499,7.8790393,5.5282583c-2.6394262-0.1323199-5.0985746-1.378993-6.765439-3.4297595
		C0.2423184,3.5984313,0.6873521,5.5172887,2.12992,6.4805789C1.6075141,6.4650955,1.096499,6.3241715,0.64,6.0696988
		c0,0.0134406,0,0.0275197,0,0.0415998c0.0004277,1.5626192,1.101921,2.9085016,2.6336002,3.2179203
		C2.7903168,9.4610205,2.283252,9.4802866,1.7913604,9.3855391c0.4300463,1.3372297,1.6624472,2.2533016,3.0668797,2.2796803
		c-1.1624091,0.9135571-2.5983617,1.4094906-4.0767999,1.408C0.5202588,13.0727177,0.2593306,13.0569029,0,13.0258579
		c1.501207,0.963377,3.2479444,1.4743795,5.0316796,1.4720001"/>
</svg>
