<?xml version="1.0" encoding="utf-8"?>
<svg width="16px" height="16px" viewBox="0 0 16 16" version="1.1" xmlns="http://www.w3.org/2000/svg" xmlns:xlink="http://www.w3.org/1999/xlink">
	<title>Soundcloud</title>
	<path fill="#FFFFFF" d="M5.0833335,11.2080355h-0.583333V6.5017023C4.679667,6.3669519,4.8727503,6.251452,5.0833335,6.1715355
		V11.2080355z M6.833334,11.2080355h0.583333V5.8273687c-0.1335831,0.1545835-0.2584162,0.3196669-0.3622499,0.499917
		L6.833334,6.2199521V11.2080355z M5.666667,11.2080355h0.5833335V6.0467024
		C5.9536667,6.0006185,5.8865838,6.0175352,5.666667,6.0408688V11.2080355z M3.3333335,11.2080355H3.916667V7.1130352
		c-0.1819999,0.2671666-0.32375,0.5664163-0.4036667,0.8954163L3.3333335,7.9022851V11.2080355z M1.5833334,8.1455355
		C1.2298334,8.4646187,1,8.9353685,1,9.4685354c0,0.5331659,0.2298334,1.0039167,0.5833334,1.323V8.1455355z M12.5960836,7.7541189
		c-0.1189995-1.6549168-1.4023323-2.96275-2.9849167-2.96275C9.0150003,4.791369,8.4654999,4.9827023,8,5.3029523v5.9050832
		h5.3019171C14.2393341,11.2080355,15,10.3954525,15,9.3962021C15,8.0936193,13.7353334,7.1958685,12.5960836,7.7541189z
		 M2.7500002,7.738369C2.5738335,7.7243686,2.4431667,7.7208691,2.1666667,7.8095355v3.318583
		c0.2601666,0.083416,0.3710001,0.0805006,0.5833335,0.0805006V7.738369z"/>
</svg>
