<?xml version="1.0" encoding="utf-8"?>
<svg width="346px" height="37px" viewBox="0 0 346 37" version="1.1" xmlns="http://www.w3.org/2000/svg" xmlns:xlink="http://www.w3.org/1999/xlink">
<title>ZEIT ONLINE</title>
<desc>Nachrichten auf ZEIT ONLINE</desc>
<g>
	<path fill="#1D1D1B" d="M71.91,32.94c-1.06,0-2.82-1.02-2.82-2.61L69.1,4.61c0-1.59,1.84-2.6,2.65-2.6c0.29,0,0.32-0.72,0-0.72
		H60.3c-0.32,0-0.28,0.72,0,0.72c0.81,0,2.65,1,2.65,2.6v25.71c0,1.59-1.59,2.61-2.65,2.61c-0.28,0-0.4,0.81,0,0.81h11.61
		C72.31,33.75,72.19,32.94,71.91,32.94z M66.72,31.83c0,0.12-0.1,0.22-0.21,0.22h-0.8c-0.12,0-0.22-0.1-0.22-0.22V3.26
		c0-0.12,0.1-0.21,0.22-0.21h0.8c0.12,0,0.21,0.1,0.21,0.21V31.83z"/>
	<path fill="#1D1D1B" d="M42.13,3.04c5.92,0,10.65,2.23,13.71,6.93c0.18,0.27,0.63,0.13,0.53-0.13C56.22,9.46,52.8,1.3,52.8,1.3
		l-23.7,0c-0.32,0-0.28,0.72,0,0.72c1.27,0,3.27,1.39,3.27,2.98v24.1c0,2.31-1.52,3.84-3.27,3.84c-0.28,0-0.32,0.81,0,0.81h23.77
		c0,0,3.29-7.81,3.42-8.12c0.12-0.31-0.33-0.62-0.53-0.23c-1.34,2.57-6.38,6.65-13.01,6.65h-4.58V18.47h6.04
		c3.96,0,5.96,2.77,6.51,3.54c0.26,0.36,0.81,0.22,0.6-0.22c-0.2-0.44-2.1-4.21-2.1-4.21s1.9-3.77,2.1-4.21
		c0.2-0.44-0.23-0.65-0.46-0.26c-0.23,0.39-3.16,3.46-7.29,3.46h-5.41V3.04H42.13z M35.91,31.83c0,0.12-0.1,0.22-0.21,0.22h-0.8
		c-0.12,0-0.21-0.1-0.21-0.22V3.26c0-0.12,0.1-0.21,0.21-0.21h0.8c0.12,0,0.21,0.1,0.21,0.21V31.83z"/>
	<path fill="#1D1D1B" d="M25.79,25.32c-0.93,1.76-6.25,6.73-13.19,6.73H7.88L26.52,1.3H8.96c-2.1,0-4.11-0.17-4.11-0.17
		S1.59,8.59,1.29,9.23C1.08,9.69,1.55,9.91,1.84,9.42c0.89-1.5,4.79-6.38,12.6-6.38h3.98L0,33.75h22.43c0,0,3.6-7.88,3.77-8.28
		C26.37,25.07,25.98,24.96,25.79,25.32z M4.78,32.05L4.78,32.05H3.8h0c-0.12,0-0.15-0.1-0.08-0.22l17.3-28.58
		c0.07-0.12,0.23-0.21,0.34-0.21h0h0.98h0c0.12,0,0.15,0.1,0.08,0.21L5.12,31.83C5.05,31.95,4.9,32.05,4.78,32.05z"/>
	<path fill="#1D1D1B" d="M102.05,9.48c-0.17-0.38-3.43-7.03-3.75-7.86c-0.3-0.8-0.91-0.32-1.46-0.32H78.65
		c-0.55,0-1.16-0.47-1.46,0.32c-0.32,0.84-3.2,7.73-3.37,8.11c-0.17,0.38,0.41,0.7,0.7,0.17C75.77,7.64,80,3.04,84.64,3.04v27.28
		c0,1.59-1.59,2.61-2.65,2.61c-0.28,0-0.4,0.81,0,0.81h11.61c0.4,0,0.28-0.81,0-0.81c-1.06,0-2.82-1.02-2.82-2.61l0-27.28
		c4.49,0,9.06,4.42,10.56,6.61C101.68,10.15,102.22,9.86,102.05,9.48z M88.42,31.83c0,0.12-0.1,0.22-0.21,0.22h-0.8
		c-0.12,0-0.21-0.1-0.21-0.22V3.26c0-0.12,0.1-0.21,0.21-0.21h0.8c0.12,0,0.21,0.1,0.21,0.21V31.83z"/>
	<path fill="#1D1D1B" d="M331.74,3.04c5.92,0,10.65,2.23,13.71,6.93c0.18,0.27,0.64,0.13,0.53-0.13c-0.15-0.38-3.57-8.54-3.57-8.54
		l-23.7,0c-0.32,0-0.28,0.72,0,0.72c1.27,0,3.27,1.39,3.27,2.98v24.1c0,2.31-1.52,3.84-3.27,3.84c-0.28,0-0.32,0.81,0,0.81h23.77
		c0,0,3.29-7.81,3.42-8.12c0.13-0.31-0.33-0.62-0.53-0.23c-1.34,2.57-6.39,6.65-13.01,6.65h-4.58V18.47h6.04
		c3.96,0,5.96,2.77,6.51,3.54c0.26,0.36,0.81,0.22,0.6-0.22c-0.2-0.44-2.1-4.21-2.1-4.21s1.9-3.77,2.1-4.21
		c0.2-0.44-0.23-0.65-0.46-0.26c-0.23,0.39-3.16,3.46-7.29,3.46h-5.41V3.04H331.74z M325.52,31.83c0,0.12-0.09,0.22-0.21,0.22h-0.8
		c-0.12,0-0.21-0.1-0.21-0.22V3.26c0-0.12,0.09-0.21,0.21-0.21h0.8c0.12,0,0.21,0.1,0.21,0.21V31.83z"/>
	<path fill="#1D1D1B" d="M278.32,32.94c-1.06,0-2.82-1.02-2.82-2.61l0.01-25.71c0-1.59,1.84-2.6,2.65-2.6c0.28,0,0.32-0.72,0-0.72
		H266.7c-0.32,0-0.28,0.72,0,0.72c0.82,0,2.65,1,2.65,2.6v25.71c0,1.59-1.59,2.61-2.65,2.61c-0.28,0-0.4,0.81,0,0.81h11.61
		C278.71,33.75,278.6,32.94,278.32,32.94z M273.13,31.83c0,0.12-0.1,0.22-0.22,0.22h-0.8c-0.12,0-0.21-0.1-0.21-0.22V3.26
		c0-0.12,0.1-0.21,0.21-0.21h0.8c0.12,0,0.22,0.1,0.22,0.21V31.83z"/>
	<path fill="#1D1D1B" d="M315.63,1.3h-9.94c-0.32,0-0.28,0.72,0,0.72c2.32,0,3.86,1.09,3.86,6.54v15.27L290.67,1.3l-9.01,0
		c-0.32,0-0.28,0.72,0,0.72c1.6,0,5.08,1.83,5.08,4.54v18.31c0,6.73-1.13,8.07-3.56,8.07c-0.28,0-0.4,0.81,0,0.81h9.49
		c0.4,0,0.28-0.81,0-0.81c-2.66,0-3.73-1.34-3.73-8.07l0.01-16.64l22.82,26.55l-0.01-26.22c0-5.38,1.66-6.54,3.87-6.54
		C315.91,2.02,315.95,1.3,315.63,1.3z M309.72,27.97c0,0.3-0.9,0.19-1.01,0.07L287.54,3.18c-0.1-0.12-0.09-0.17,0.03-0.17h1.13
		c0.16,0,0.33,0.19,0.43,0.31l20.48,24.02c0.1,0.12,0.12,0.25,0.12,0.43L309.72,27.97L309.72,27.97z"/>
	<path fill="#1D1D1B" d="M235.45,1.3h-9.94c-0.32,0-0.28,0.72,0,0.72c2.32,0,3.87,1.09,3.87,6.54v15.27L210.49,1.3l-9.01,0
		c-0.32,0-0.28,0.72,0,0.72c1.6,0,5.08,1.83,5.08,4.54v18.31c0,6.73-1.12,8.07-3.56,8.07c-0.28,0-0.4,0.81,0,0.81h9.49
		c0.4,0,0.28-0.81,0-0.81c-2.66,0-3.73-1.34-3.73-8.07l0.01-16.64l22.82,26.55l0-26.22c0-5.38,1.66-6.54,3.86-6.54
		C235.73,2.02,235.77,1.3,235.45,1.3z M229.5,28.04c0,0.3-0.9,0.19-1.01,0.07L207.36,3.18c-0.1-0.12-0.09-0.17,0.03-0.17h1.13
		c0.16,0,0.33,0.19,0.43,0.31l20.43,24.09c0.1,0.12,0.12,0.25,0.12,0.43V28.04z"/>
	<path fill="#1D1D1B" d="M184,0.51c-7.59,0-16.93,5.73-16.93,17.28c0,10.12,6.4,16.4,16.7,16.4c13.36,0,17.24-9.84,17.24-16.68
		C201.01,7.9,193.65,0.51,184,0.51z M170.1,18.03c0-8.2,5.18-14.44,8.18-15.06c-2.66,1.53-6.99,7.24-6.83,15.06
		c0.15,7.32,2.39,10.67,5.66,13.65C173.84,29.64,170.1,26.2,170.1,18.03z M174.02,17.58c0-10.3,5.04-15.43,9.96-15.43
		c5.91,0,10.18,4.84,10.18,14.89c0,10.29-4.94,15.28-10.11,15.28C178.79,32.32,174.02,29.08,174.02,17.58z M189.81,31.68
		c2.66-1.53,6.9-6.76,6.83-14.58c-0.07-7.49-2.38-11.15-5.65-14.13C194.26,5.01,198,8.93,198,17.1
		C198,25.3,192.81,31.05,189.81,31.68z"/>
	<path fill="#1D1D1B" d="M264.72,25.04c-1.34,2.57-6.2,7.01-12.82,7.01h-3.8l0.01-27.44c0-1.59,2.14-2.6,2.95-2.6
		c0.28,0,0.32-0.72,0-0.72h-12.2c-0.32,0-0.28,0.72,0,0.72c1.27,0,3.27,1.39,3.27,2.98v23.65c0,3.07-1.82,4.3-3.57,4.3
		c-0.28,0-0.32,0.81,0,0.81h23.46c0,0,3.1-8.17,3.23-8.48C265.38,24.96,264.92,24.65,264.72,25.04z M245.75,31.83
		c0,0.12-0.1,0.22-0.21,0.22h-0.8c-0.12,0-0.21-0.1-0.21-0.22V3.26c0-0.12,0.1-0.21,0.21-0.21h0.8c0.12,0,0.21,0.1,0.21,0.21V31.83z
		"/>
</g>
<g>
	<path fill="#1D1D1B" d="M136.35,24.16c-1.63,0-2.95,1.29-2.95,2.88c0,1.59,1.32,2.88,2.95,2.88s2.95-1.29,2.95-2.88
		C139.29,25.44,137.97,24.16,136.35,24.16z M133.99,28c0,0-0.42-1.04,0-1.94C134.49,27.08,133.99,28,133.99,28z M137.32,24.75
		c-1.02,0.49-1.94,0-1.94,0S136.42,24.33,137.32,24.75z M135.37,29.32c0,0,0.92-0.49,1.94,0C136.42,29.73,135.37,29.32,135.37,29.32
		z M138.09,28.79c-0.36,0.41-0.91-0.16-1.75-0.16s-1.4,0.55-1.76,0.14c-0.41-0.36,0.15-0.89,0.15-1.74s-0.55-1.39-0.14-1.75
		c0.36-0.41,0.91,0.16,1.75,0.16s1.4-0.55,1.76-0.14c0.41,0.36-0.15,0.89-0.15,1.74S138.5,28.43,138.09,28.79z M138.69,26.06
		c0.42,0.9,0,1.94,0,1.94S138.2,27.08,138.69,26.06z"/>
	<path fill="#1D1D1B" d="M136.35,22.98c-0.6,0-1.16,0.12-1.68,0.34c-0.09-0.08-0.17-0.16-0.2-0.22c-0.13-0.29-0.36-0.13-0.36-0.13
		s-0.15-0.32-0.18-0.56c-0.04-0.23-0.27-0.25-0.46-0.06c-0.18,0.19-0.34,0.25-0.34,0.25l-2.7-2.6l0.84-0.87l0.37,0.35l-0.6,0.62
		l1.08,1.04l2.97-3.08l-1.73-1.67l-1.15,1.18l0.76,0.74l0.35-0.37l0.23,0.22l-0.61,0.63l-2.29-2.21l0.61-0.63l0.23,0.22l-0.35,0.37
		l0.65,0.62l1.15-1.19l-1.73-1.67l-2.97,3.08l1.08,1.04l0.6-0.62l0.37,0.35l-0.84,0.86l-1.96-1.89c-0.29-0.28-0.72-0.02-0.95,0.23
		s-0.46,0.7-0.17,0.99l5.63,5.43c0,0-0.06,0.16-0.24,0.35c-0.18,0.19-0.16,0.43,0.07,0.45c0.24,0.03,0.57,0.17,0.57,0.17
		s-0.15,0.24,0.14,0.36c0.04,0.01,0.08,0.05,0.12,0.09c-0.29,0.55-0.45,1.17-0.45,1.83c0,2.24,1.86,4.05,4.15,4.05
		c2.29,0,4.15-1.81,4.15-4.05C140.49,24.8,138.64,22.98,136.35,22.98z M126.77,18.22c-0.18-0.17-0.16-0.3,0.07-0.53
		c0.11-0.12,0.26-0.33,0.51-0.08l2.05,1.98l1.43-1.49l-0.91-0.88l-0.64,0.66l-0.52-0.5l2.38-2.47l1.2,1.16l-0.55,0.57l-0.19-0.18
		l0.32-0.33l-0.68-0.65l-1.1,1.14l2.77,2.68l1.1-1.14l-0.71-0.68l-0.32,0.33l-0.23-0.22l0.55-0.57l1.11,1.07l-2.35,2.44l-0.43-0.42
		l0.61-0.64l-1-0.97l-1.43,1.49l3.02,2.92l-0.59,0.61L126.77,18.22z M132.76,24.39c-0.13-0.16-0.25-0.03-0.35-0.14
		c-0.07-0.07-0.05-0.18,0.09-0.32c0.17-0.19,0.55-0.59,0.76-0.79c0.21-0.21,0.37-0.34,0.49-0.22c0.12,0.12,0.03,0.24,0.19,0.4
		c0.16,0.16,0.3-0.08,0.44,0.28c-0.95,0.65-1.39,1.34-1.39,1.34C132.58,24.7,132.9,24.56,132.76,24.39z M136.35,30.5
		c-1.96,0-3.55-1.55-3.55-3.47c0-1.91,1.59-3.47,3.55-3.47s3.55,1.55,3.55,3.47C139.89,28.95,138.3,30.5,136.35,30.5z"/>
	<path fill="#1D1D1B" d="M160.09,32.24c1.04-0.68,0.81-1.97,0.81-1.97s-0.57,0.4-1.36,0.55c-0.5,0.1-0.87,0.85-0.62,1.46
		c-0.28,0.21-0.34,0.55-0.34,0.55c-0.59,0.25-1.17,0.25-1.17,0.25c0.98-1.88,0.95-1.95,0.66-3.18c-0.19-0.83-0.27-1.07-0.62-0.99
		c-0.59,0.13-0.62-1.1-0.1-1.84c0,0,1.84,1.48,3.73-0.08c1.83-1.5,1.31-4.02-0.85-6.23c-2.16-2.22-2.33-3.11-2.29-4.47
		c1.42,0.06,1.59-1.04,1.46-1.21c0.99-0.42,0.55-1.32,0.55-1.32c0.36-0.55,0.17-1.46,0.17-1.46c-0.93-0.06-1.48,0.28-1.48,0.28
		c-0.61-0.19-1.08,0.66-1.08,0.66c-1.17,0.02-0.78,2.23-0.78,2.23s-0.52,1.31-0.17,2.39c0.93,2.9,2.6,3.68,3.66,5.53
		c0.43,0.75,0.42,2.18-0.53,2.54c-0.89,0.34-1.65-0.34-2.12-2.24c-0.47-1.9-0.64-1.95-1.76-3.45c-1.12-1.5-1.17-2.25-1.25-3.81
		c-0.08-1.55-0.23-3.18-0.23-3.18c0.25,0.06,0.32-0.13,0.32-0.13c-0.47-0.62-0.51-1.36-0.51-1.36c0.19,0,0.26-0.15,0.26-0.15
		c-0.57-0.59-0.3-0.76-0.57-1.27c0.32,0.02,0.38-0.23,0.38-0.23c-0.68-0.51-0.61-0.97-1.27-1.72c0.19,0.02,0.3-0.11,0.3-0.11
		c-0.53-0.64-0.74-1.19-1.76-1l-0.28-0.32c0,0,0.82-0.06,1.21-0.57c0.4-0.51-0.32-1.02-0.32-1.02s-0.17,0.2-0.26,0.17
		c-0.23-0.08,0.02-0.34-0.3-0.49c-0.26-0.12-0.11-0.62,0.28-0.55c0.4,0.08,0.1,0.59,0.38,0.68c0.28,0.1,0.39-0.47,0.65-0.38
		c0.15,0.06,0.19-0.07,0.59-0.76c0.25-0.42-0.15-0.4,0.1-0.93c0.18-0.38,0.23-0.95-1.42-1.19c-0.04-1.37-1.31-0.89-1.76-0.93
		c-0.25-0.89-1.06-1.06-2.22-0.96l-0.09,0.19c-0.78-0.04-1.27,0.15-1.27,0.15l0.06,0.32c-0.78-0.08-1.08,0.45-1.57,0.55l0.1,0.23
		c-0.72,0.44-0.61,0.98-1.31,1.36l0.28,0.29l-0.17,0.3c-0.76-0.02-1.23,0.34-1.23,0.34c-0.91-0.13-1.14,0.76-1.14,0.76
		c-0.97,0.17-1.23,1.25-1.14,1.69c-0.79,0.25-0.62,1.19-0.62,1.19c-0.51,0.23-0.74,0.97,0.02,1.38c0,0-0.34,0.87-1.34,0.46
		c-1-0.41-0.74-1.14-0.57-1.29c0.7,0.57,1.21,0.07,1.14-0.57c1.04-0.3,0.76-1.33,0.76-1.33c1.27-0.68,0.47-2.1,0.47-2.1
		c0.57-0.55,0.02-1.23,0.02-1.23c0.02-0.89-0.57-1.71-0.57-1.71c-0.91,0.15-1.25,0.74-1.25,0.74c-0.97,0.02-1.17,0.98-1.17,0.98
		c-1,0.04-1.35,0.95-1.21,1.7c-0.61,0.34-0.7,1.21-0.36,1.82c-0.53,0.61-0.08,1.35,0.51,1.36c0,0-0.11,0.91-1.16,0.91
		s-1.44-1.02-1.17-1.46c0.78,0.32,1.14-0.36,0.99-0.97c0.95-0.72,0.11-1.72,0.11-1.72c0.59-0.87,0.06-1.53-0.53-2.08
		c0-0.57-0.44-0.62-0.44-0.62c-0.38-1.04-1.14-1.46-1.14-1.46s-0.76,0.42-1.14,1.46c0,0-0.44,0.06-0.44,0.62
		c-0.59,0.55-1.12,1.21-0.53,2.08c0,0-0.83,1,0.11,1.72c-0.15,0.61,0.21,1.29,0.99,0.97c0.26,0.44-0.13,1.46-1.17,1.46
		s-1.16-0.91-1.16-0.91c0.59-0.02,1.04-0.76,0.51-1.36c0.34-0.61,0.25-1.48-0.36-1.82c0.13-0.76-0.21-1.67-1.21-1.7
		c0,0-0.21-0.97-1.17-0.99c0,0-0.34-0.59-1.25-0.74c0,0-0.59,0.81-0.57,1.7c0,0-0.55,0.68,0.02,1.23c0,0-0.8,1.42,0.47,2.1
		c0,0-0.28,1.02,0.76,1.33c-0.08,0.64,0.44,1.14,1.14,0.57c0.17,0.15,0.43,0.87-0.57,1.29c-1,0.42-1.34-0.46-1.34-0.46
		c0.76-0.42,0.53-1.15,0.02-1.38c0,0,0.17-0.95-0.62-1.19c0.1-0.44-0.17-1.51-1.14-1.69c0,0-0.23-0.89-1.14-0.76
		c0,0-0.47-0.36-1.23-0.34l-0.17-0.3l0.28-0.29c-0.7-0.38-0.59-0.93-1.31-1.36l0.1-0.23c-0.49-0.09-0.8-0.62-1.57-0.55l0.06-0.32
		c0,0-0.49-0.19-1.27-0.15l-0.09-0.19c-1.16-0.1-1.97,0.08-2.22,0.96c-0.46,0.04-1.72-0.44-1.76,0.93c-1.65,0.25-1.6,0.82-1.42,1.19
		c0.25,0.53-0.15,0.5,0.1,0.93c0.4,0.68,0.44,0.82,0.59,0.76c0.26-0.1,0.36,0.47,0.64,0.38c0.28-0.09-0.02-0.61,0.38-0.68
		c0.4-0.07,0.54,0.43,0.29,0.55c-0.32,0.15-0.08,0.42-0.3,0.49c-0.1,0.03-0.27-0.17-0.27-0.17s-0.72,0.51-0.32,1.02
		c0.4,0.51,1.21,0.57,1.21,0.57l-0.28,0.32c-1.02-0.19-1.23,0.36-1.76,1c0,0,0.11,0.13,0.3,0.11c-0.66,0.76-0.59,1.21-1.27,1.72
		c0,0,0.06,0.25,0.38,0.23c-0.26,0.51,0,0.68-0.57,1.27c0,0,0.08,0.15,0.27,0.15c0,0-0.04,0.74-0.51,1.36c0,0,0.08,0.19,0.32,0.13
		c0,0-0.15,1.63-0.23,3.18c-0.08,1.55-0.13,2.31-1.25,3.81c-1.12,1.5-1.29,1.55-1.76,3.45c-0.47,1.89-1.23,2.57-2.12,2.24
		c-0.95-0.36-0.96-1.79-0.53-2.54c1.06-1.85,2.73-2.63,3.66-5.53c0.35-1.08-0.17-2.39-0.17-2.39s0.4-2.22-0.78-2.23
		c0,0-0.47-0.85-1.08-0.66c0,0-0.55-0.34-1.48-0.28c0,0-0.19,0.91,0.17,1.46c0,0-0.44,0.91,0.55,1.32
		c-0.13,0.17,0.04,1.27,1.46,1.21c0.04,1.36-0.13,2.25-2.29,4.47c-2.16,2.22-2.68,4.73-0.85,6.23c1.89,1.55,3.73,0.08,3.73,0.08
		c0.53,0.74,0.49,1.97-0.1,1.84c-0.35-0.08-0.43,0.16-0.62,0.99c-0.28,1.23-0.32,1.31,0.66,3.18c0,0-0.59,0-1.18-0.25
		c0,0-0.06-0.34-0.34-0.55c0.25-0.61-0.12-1.36-0.62-1.46c-0.8-0.15-1.36-0.55-1.36-0.55s-0.23,1.29,0.82,1.97
		c0,0-1.21-0.27-1.88,0.62c0.78,0.27,0.79,0.82,1.52,1c0.81,0.21,1.21-0.6,1.21-0.6s0.25,0.16-0.06,0.57
		c-0.23,0.3-0.22,0.44,0.15,0.55c2.99,0.89,6.08,0.65,6.08,0.65s-0.62,0.34-0.87,1.15c1.29-0.32,3.62,0.61,5.04-1.42
		c0,0,1.65-0.45,3.94-0.85c0,0-0.51,0.3-0.81,0.83c0,0,2.01,0.99,4.6-0.51c0.12-0.07,0.3,0.13,0.11,0.21
		c-1.1,0.44-1.35,1.1-1.35,1.1s2.24,1.19,4.45-0.26c0,0-0.34,1.1,0.79,1.48c0,0,1.08-0.4,2.24-0.65c0,0-0.11,0.28,0.13,0.4
		c0,0,0.93-0.15,1.63-0.98c0.71,0.83,1.64,0.98,1.64,0.98c0.25-0.11,0.13-0.4,0.13-0.4c1.16,0.25,2.24,0.65,2.24,0.65
		c1.14-0.38,0.79-1.48,0.79-1.48c2.22,1.46,4.45,0.26,4.45,0.26s-0.25-0.66-1.35-1.1c-0.19-0.08-0.01-0.28,0.11-0.21
		c2.6,1.5,4.6,0.51,4.6,0.51c-0.3-0.53-0.81-0.83-0.81-0.83c2.29,0.4,3.94,0.85,3.94,0.85c1.42,2.03,3.75,1.1,5.04,1.42
		c-0.25-0.81-0.87-1.15-0.87-1.15s3.09,0.25,6.08-0.65c0.37-0.11,0.38-0.24,0.15-0.55c-0.3-0.4-0.06-0.57-0.06-0.57
		s0.4,0.81,1.21,0.6c0.73-0.19,0.74-0.74,1.51-1C161.3,31.98,160.09,32.24,160.09,32.24z M106.11,33.38
		c-0.49-0.06-0.89-0.49-0.89-0.49s0.36-0.32,0.95-0.27C106.76,32.68,106.78,33.46,106.11,33.38z M106.66,31.96
		c-0.75-0.31-0.7-0.93-0.7-0.93s0.19,0.11,0.59,0.21C107.25,31.41,107.17,32.17,106.66,31.96z M107.23,32.87
		c-0.13,0.21-0.42-0.13-0.44-0.3C106.79,32.57,107.41,32.58,107.23,32.87z M152.56,8.14c0,0-0.27,0.07-0.47,0.04
		c-0.2-0.03-0.28,0.12-0.01,0.27c0.81,0.45,1.05,1.13,1.05,1.13s-0.41-0.06-0.87-0.45c-0.2-0.17-0.31,0.02-0.16,0.27
		c0.26,0.43,1.25,0.52,1.39,1.56c0,0-0.58-0.21-0.99-0.61c-0.19-0.19-0.32-0.05-0.2,0.18c0.33,0.65,1.4,0.75,1.45,1.93
		c0,0-0.43-0.14-0.84-0.57c-0.2-0.21-0.37,0-0.14,0.3s0.81,0.58,0.88,1.22c0.07,0.64,0.26,3.53,0.4,4.38
		c0.14,0.85,0.38,1.83,1.39,3.05c1.01,1.22,1.15,1.49,1.49,2.67c0.75,2.62,1.69,3.29,2.88,2.95c1.19-0.34,1.65-2.22,0.74-3.56
		c-1.22-1.8-4.52-4.44-3.29-7.42c0,0-0.41-0.68,0.1-1.32c0,0,0.16,0.1,0.21,0.3c0.33-0.28,0-0.69,0.48-1.08c0,0,0.17,0.17,0.14,0.43
		c0.38-0.1,0.27-1.01,1.46-0.98c0.13,1.05-0.51,0.82-0.75,1.39c0,0,0.37-0.1,0.52,0.02c-0.18,0.71-0.68,0.48-0.89,0.79
		c0,0,0.24,0.01,0.4,0.21c0,0-0.24,0.88-1.29,0.54c0,0-0.3,0.31-0.21,1.32c0.08,0.95,0.31,1.83,2.11,3.87
		c0.63,0.72,2.01,2.14,2.01,3.59c0,1.35-0.95,2.55-2.21,2.55c-1.59,0-2.28-1.15-2.49-2.23c-0.09-0.45-0.6-0.28-0.51,0.24
		c0.13,0.78,0.43,1.52,0.43,1.52s-0.21,0.43-0.38,0.96c-0.17,0.54-0.14,0.73,0.01,0.98c0.27,0.42,0.07,0.99,0.57,0.92
		c0.3-0.04,0.3,0.09,0.43,0.52c0.27,0.93,0.21,0.98,0.03,1.5c-0.18,0.53-0.5,1.36-0.62,1.58c-0.23,0.41-0.45-0.07-0.89,0.17
		c-0.36,0.2-0.78,0.04-0.5-0.31c0,0-0.2-0.14-0.35,0.06c0,0-0.27-0.85-0.98-0.47c0,0-0.34-0.37-0.65-0.27c0,0,0.35-0.57,2.21,0.01
		c0.3,0.09,0.54-0.4,0.14-0.54c0,0,0.3-0.98,0.34-1.16c0.04-0.18,0.13-0.24-0.2-0.51c-2.07-1.74-2.24-1.65-2.51-2.72
		c-0.27-1.08-0.4-1.26-0.74-2.09c-0.87-2.14-0.65-2.87-1.26-3.56c-1.26-1.4-1.72-2.24-1.72-2.24s-0.11-0.01-0.14,0.11
		c-0.44-0.33-0.24-0.68-0.65-1.01c0,0-0.14,0.08-0.17,0.35c-0.64-0.47-0.48-1.28-0.72-1.59c0,0-0.16,0.07-0.23,0.3
		c0,0-0.21-0.37-0.21-0.52c0-0.16-0.08-0.26,0.18-0.47c0.27-0.21,0.37-0.13,0.44,0.11c0.4-0.33,0.58-0.78,0.99-1.19
		c0,0,0.2,0.09,0.34,0.34c0,0,0.37-0.5,0.6-1.33c0.38,0.07,0.58,0,0.54-0.51c-0.09-0.96,0.38-1.19,0.33-2.34
		c-0.02-0.41-0.41-0.27-0.4,0.06c0.04,0.92-0.26,0.94-0.35,1.74c-0.57-0.71-0.5,0.28-0.74,1.36c0,0-0.15-0.06-0.23-0.31
		c-0.14-0.47-0.33,0.26-0.84,1.13c-0.13-0.33-0.16-0.54-0.55-0.07c-0.4,0.47-1.82,1.68-3.19,2.68c-0.52,0.38-0.18,0.7-0.41,1.18
		c-0.16,0.33-0.45,0.58-0.45,0.58s-0.18-0.33-0.54-0.31c0,0,0.09-0.64-0.45-0.89c0,0,0.68-0.86-0.13-1.49
		c0.5-0.17,0.67-0.11,0.26-0.84c0,0,0.45-0.44-0.04-1.02c0.47-0.33,0.61,0.12,0.65,0.55c0.06,0.62,0.37,1.2,0.71,0.89
		c0.37-0.34,2.06-2.09,2.52-2.88c0.47-0.79,0.23-1.4,1.43-2.82c0.22-0.26,0-0.51-0.23-0.3c-0.14,0.13-0.44,0.25-0.44,0.25
		s-0.04-0.74,0.44-1.4c0.2-0.27,0.03-0.43-0.37-0.06c0,0-0.06-0.6,0.89-1.4c0.26-0.22,0.09-0.34-0.35-0.18c0,0,0.18-0.54,0.78-0.67
		c0.6-0.13,0.78,0.1,0.81,0.21c0.03,0.11,0.24,0.14,0.26,0s0.18-0.47,0.61-0.4c0.43,0.07,0.4,0.35,0.4,0.48
		c0,0.13,0.09,0.25,0.21,0.1C151.44,7.67,152.12,7.49,152.56,8.14z M154.58,33.02c-0.25,0.28-0.57,0.46-0.57,0.46
		c-0.06-0.38,0.25-0.66,0.25-0.66C154.58,32.83,154.58,33.02,154.58,33.02z M153.01,31.26c0,0-1.7-0.1-2.39,1.94
		c0,0-0.5,0.03-0.8-0.1c0,0,0.4-0.19,0.65-0.97c0.25-0.78,0.49-1.63,0.64-2.15c0.2-0.7-0.59-0.45-0.39-1.1
		c0.35-1.15,0.27-1.27,0.69-1.41c0.42-0.13,0.55-0.1,1.05-0.9c0,0,0.25,0.57,0.35,1.22c0.1,0.65,0.65,1.14,2.69,2.73
		c0,0-0.1,0.6-0.3,1.1c-2.14-0.4-1.99,0.25-2.79,1.79c0,0-0.35,0.03-0.7-0.05C151.71,33.35,153.02,32.72,153.01,31.26z
		 M151.01,33.28c0.14-0.62,0.85-1.3,1.5-1.47C152.34,32.5,151.66,33.12,151.01,33.28z M153.25,32.76c0.32,0.02,0.36,0.17,0.36,0.17
		c-0.45,0.38-0.7,0.61-0.7,0.61C152.82,33.02,153.25,32.76,153.25,32.76z M142.42,21.08c0,0-0.04,2.47-0.08,4.27
		c-0.06,3.04-1.16,6.87-9.2,6.87s-9.13-3.83-9.19-6.87c-0.04-1.81-0.08-4.27-0.08-4.27c0.21-0.1,0.33-0.25,0.33-0.25
		c-0.39-0.35-0.51-0.64-0.51-0.64c0.81,0.13,1.09-0.3,1.09-0.3c-0.58-0.62-0.79-1.03-0.79-1.03c0.52,0.06,0.98-0.11,0.98-0.11
		c0.1-0.97-0.91-1.01-0.96-1.78c0.24,0.02,0.45,0.17,0.45,0.17c0.6-1.25-0.71-1.25-0.44-2.32c0.4-0.13,0.58-0.43,0.58-0.43
		c-0.17-0.04-0.25-0.1-0.25-0.1c0.45-0.19,0.57-0.51,0.57-0.51c0.13,0.33,0.13,0.61,0.13,0.61c0.64-0.11,0.83-0.56,0.83-0.56
		c0.07,0.29,0.3,0.58,0.3,0.58c0.51-0.18,0.69-0.55,0.69-0.55s3.4,0.07,6.25,0.07s6.25-0.07,6.25-0.07s0.18,0.36,0.69,0.55
		c0,0,0.23-0.29,0.3-0.58c0,0,0.19,0.45,0.83,0.56c0,0,0-0.28,0.13-0.61c0,0,0.12,0.32,0.57,0.51c0,0-0.09,0.06-0.26,0.1
		c0,0,0.18,0.29,0.58,0.43c0.27,1.07-1.03,1.07-0.44,2.32c0,0,0.21-0.15,0.45-0.17c-0.05,0.76-1.06,0.81-0.96,1.78
		c0,0,0.46,0.17,0.98,0.11c0,0-0.21,0.41-0.79,1.03c0,0,0.28,0.43,1.09,0.3c0,0-0.12,0.29-0.51,0.64
		C142.09,20.82,142.22,20.98,142.42,21.08z M123.42,19.67c0,0-0.1-0.4,0.31-0.54c0,0,0.22,0.34,0.57,0.65
		C124.3,19.78,123.93,20.02,123.42,19.67z M123.59,20.78c0,0-0.46,0.01-0.79-0.28c0,0,0.01-0.27,0.26-0.31
		C123.07,20.19,123.37,20.36,123.59,20.78z M119.32,11.66c1.5,1.41,0.91,2.46,0.91,2.46s-0.42-0.44-0.44-0.93
		c-0.02-0.49-0.58-1.2-0.58-1.2C119.34,11.89,119.32,11.66,119.32,11.66z M119.09,10.58c0.33-0.02,0.28-0.41,0.28-0.41
		s0.49,0.33,0.82,0.83c0.43,0.64,0.22,0.75,0.34,1.44C119.56,11.68,119.09,10.58,119.09,10.58z M118.6,7.41c0,0,0.68,0.43,0.7,1.5
		c0.01,0.4-0.38,0.58-0.55-0.04l0.15-0.21C118.9,8.66,118.34,8.07,118.6,7.41z M117.43,5.72c0,0,0.25,0.22,0.61,0.42
		c0.57,0.32,0.18,1.05,0.18,1.05s-0.1-0.17-0.66-0.49C117.14,6.46,117.28,5.81,117.43,5.72z M117.37,7.03c0,0-0.16,0.04-0.38-0.04
		l0.2-0.18C117.19,6.81,117.23,6.94,117.37,7.03z M117.96,3.03c-0.75,0.02-0.92-0.51-0.7-0.8s0.68-0.13,0.64,0.15
		C117.86,2.65,117.96,3.03,117.96,3.03z M117.65,5.35c-0.27-0.15-0.14-1.18,0.43-0.62c0.38,0.38,0.31,1.08,0.31,1.08
		S118.11,5.6,117.65,5.35z M117.77,4.04c-0.32-0.52,0.06-0.86,0.43-0.44c0.37,0.43,0.25,0.91,0.25,0.91S118,4.4,117.77,4.04z
		 M118.41,3.07c0,0-0.28-0.28-0.17-0.94c0,0,0.86,0.04,1.15,0.96C119.39,3.09,118.92,2.97,118.41,3.07z M118.81,4.55
		c0.57,0.51,1.24,0.72,1.11,1.82C119.01,5.77,118.75,5.53,118.81,4.55z M119.69,8.01c-0.6-0.9-1.28-1-0.9-1.96
		C118.79,6.05,119.92,6.52,119.69,8.01z M118.6,3.5c0.85-0.19,1.3,0.43,1.3,1.19C119.9,4.68,118.84,4.47,118.6,3.5z M119.56,9.8
		c0,0-0.05-0.38,0.18-0.72c1.5,0.89,1.14,2.23,1.14,2.23C120.45,10.84,120.46,10.38,119.56,9.8z M120.43,4.77
		c0,0,1.66,0.46,1.38,2.13c-0.51-0.96-1.51-0.84-1.67-1.64c0,0,0.24,0.09,0.41,0.05C120.55,5.32,120.43,5.05,120.43,4.77z
		 M120.41,6.27c1.24,0.54,1.09,1.99,1.09,1.99c-0.42-0.64-1.27-0.69-1.41-1.36c0.16,0,0.31-0.14,0.31-0.14
		C120.3,6.53,120.41,6.27,120.41,6.27z M120.23,7.72c0.58,0.65,1.13,0.74,0.95,2.02c0,0-0.68-0.54-1.09-1.12
		C120.09,8.62,120.28,8.33,120.23,7.72z M120.89,13.65c0,0,0.34,0.1,0.85,0.16c0,0,0.21,0.81,1.25,0.74
		c0.07,0.31-0.02,0.32-0.28,0.41c-0.26,0.09-0.5,0.29-0.56,1.09c-0.01,0.21-0.13,0.21-0.32-0.01l-1.09-1.25
		C120.74,14.78,120.93,14.21,120.89,13.65z M122.71,14.06c-0.66-0.16-0.43-0.92-0.29-1.06c0.13-0.13,0.17-0.42-0.15-0.3
		c-0.57,0.22-0.32,0.6-0.69,0.53c-0.37-0.07-0.6-0.16-0.6-0.16c0.18-0.37,0.22-0.76,0.22-0.76c0.09,0.09,0.28-0.02,0.28-0.02
		c-0.28-0.56,0.06-0.79,0.06-0.79s0.52,0.5,0.85,0.72c0.26,0.18,0.41,0.06,0.46-0.03c0.38-0.75,1.04-0.38,1.04-0.38
		c0.81-0.5,1.28-0.06,1.28-0.06c0.82-0.4,1.29,0.1,1.29,0.1l0.31,0.68c-0.49-0.16-0.93,0.03-0.93,0.03
		c-0.4-0.25-0.99-0.09-0.99-0.09c-0.66-0.26-1.01,0.18-1.01,0.18c-0.22-0.31-0.54-0.47-0.38-0.06c0.1,0.26,0.13,0.66-0.12,0.62
		c-0.25-0.04-0.37,0.1-0.16,0.35C122.83,13.68,122.71,14.06,122.71,14.06z M146.16,5.26c-0.16,0.8-1.16,0.67-1.67,1.64
		c-0.28-1.67,1.38-2.13,1.38-2.13c0,0.28-0.12,0.54-0.12,0.54C145.92,5.35,146.16,5.26,146.16,5.26z M148.4,2.38
		c-0.04-0.27,0.42-0.44,0.64-0.15c0.22,0.29,0.05,0.82-0.7,0.8C148.34,3.03,148.44,2.65,148.4,2.38z M148.74,6.7
		c-0.56,0.32-0.66,0.49-0.66,0.49s-0.38-0.73,0.18-1.05c0.35-0.2,0.61-0.42,0.61-0.42C149.02,5.81,149.16,6.46,148.74,6.7z
		 M149.11,6.81l0.2,0.18c-0.22,0.07-0.38,0.04-0.38,0.04C149.07,6.94,149.11,6.81,149.11,6.81z M147.92,5.81c0,0-0.07-0.7,0.31-1.08
		c0.57-0.56,0.7,0.47,0.43,0.62C148.19,5.6,147.92,5.81,147.92,5.81z M148.52,4.04c-0.23,0.36-0.68,0.47-0.68,0.47
		s-0.12-0.48,0.25-0.91C148.47,3.18,148.85,3.52,148.52,4.04z M147.89,3.07c-0.51-0.1-0.98,0.02-0.98,0.02
		c0.28-0.92,1.15-0.96,1.15-0.96C148.17,2.78,147.89,3.07,147.89,3.07z M147.55,8.87C147.38,9.49,147,9.31,147,8.91
		c0.02-1.07,0.7-1.5,0.7-1.5c0.26,0.66-0.3,1.26-0.3,1.26L147.55,8.87z M147.09,11.99c0,0-0.56,0.71-0.58,1.2
		c-0.02,0.49-0.44,0.93-0.44,0.93s-0.59-1.05,0.91-2.46C146.98,11.66,146.96,11.89,147.09,11.99z M145.76,12.43
		c0.12-0.68-0.09-0.79,0.34-1.44c0.33-0.5,0.82-0.83,0.82-0.83s-0.05,0.39,0.28,0.41C147.21,10.58,146.74,11.68,145.76,12.43z
		 M146.61,8.01c-0.23-1.49,0.9-1.96,0.9-1.96C147.89,7.01,147.21,7.11,146.61,8.01z M147.7,3.5c-0.24,0.98-1.3,1.19-1.3,1.19
		C146.4,3.93,146.85,3.31,147.7,3.5z M147.49,4.55c0.06,0.98-0.21,1.22-1.11,1.82C146.25,5.26,146.93,5.06,147.49,4.55z
		 M146.56,9.08c0.23,0.33,0.18,0.72,0.18,0.72c-0.9,0.58-0.88,1.04-1.32,1.52C145.42,11.31,145.06,9.97,146.56,9.08z M145.56,14.78
		l-1.09,1.25c-0.19,0.22-0.31,0.22-0.32,0.01c-0.06-0.79-0.29-1-0.56-1.09s-0.35-0.1-0.28-0.41c1.04,0.07,1.25-0.74,1.25-0.74
		c0.51-0.06,0.85-0.16,0.85-0.16C145.37,14.21,145.56,14.78,145.56,14.78z M146.21,8.62c-0.41,0.58-1.09,1.12-1.09,1.12
		c-0.18-1.28,0.37-1.37,0.95-2.02C146.02,8.33,146.21,8.62,146.21,8.62z M144.8,8.26c0,0-0.16-1.44,1.09-1.99
		c0,0,0.11,0.26,0.02,0.49c0,0,0.15,0.14,0.31,0.14C146.07,7.57,145.22,7.62,144.8,8.26z M144.76,11.5c0,0,0.34,0.23,0.06,0.79
		c0,0,0.19,0.1,0.28,0.02c0,0,0.04,0.4,0.22,0.76c0,0-0.24,0.09-0.6,0.16c-0.37,0.07-0.12-0.31-0.69-0.53
		c-0.32-0.12-0.28,0.16-0.15,0.3c0.13,0.13,0.37,0.9-0.29,1.06c0,0-0.12-0.38-0.47-0.5c0.21-0.25,0.09-0.4-0.16-0.35
		s-0.22-0.35-0.12-0.62c0.16-0.41-0.16-0.25-0.38,0.06c0,0-0.35-0.44-1.01-0.18c0,0-0.59-0.16-0.99,0.09c0,0-0.44-0.19-0.93-0.03
		l0.31-0.68c0,0,0.47-0.5,1.29-0.1c0,0,0.47-0.44,1.28,0.06c0,0,0.66-0.37,1.04,0.38c0.05,0.1,0.19,0.21,0.46,0.03
		C144.24,12,144.76,11.5,144.76,11.5z M142.09,16.63c-0.03-0.54,0.41-0.84,0.41-0.84c0.32,0,0.28,0.4,0.28,0.4
		C142.38,16.35,142.09,16.63,142.09,16.63z M142.62,18.26c-0.51,0.35-0.93,0.13-0.93,0.13c0.32-0.47,0.76-0.59,0.76-0.59
		C142.75,17.92,142.62,18.26,142.62,18.26z M142.24,14.34c0.49-0.23,0.63-0.53,0.63-0.53c0.37,0.1,0.32,0.34,0.32,0.34
		C142.68,14.6,142.24,14.34,142.24,14.34z M142.04,13.82c-0.71-0.18-0.46-0.94-0.46-0.94c0.26-0.22,0.62,0.04,0.62,0.04
		C142,13.4,142.04,13.82,142.04,13.82z M141.19,12.85c-0.13,0.38-0.22,1.02-0.22,1.02c-0.62-0.47-0.29-0.99-0.29-0.99
		C140.88,12.75,141.19,12.85,141.19,12.85z M140.21,12.96c-0.21,0.44-0.26,0.94-0.26,0.94c-0.37-0.43-0.18-0.94-0.18-0.94
		C139.97,12.82,140.21,12.96,140.21,12.96z M133.15,12.04c-3.5,0-5.47,0.79-5.87,0.92c-0.4,0.13-0.44-0.17-0.16-0.3
		c0.28-0.13,2.61-1.05,6.03-1.05s5.74,0.92,6.02,1.05c0.28,0.13,0.24,0.43-0.16,0.3C138.62,12.83,136.65,12.04,133.15,12.04z
		 M137.36,13.02c0,0-0.93,0.09-4.21,0.09c-3.29,0-4.21-0.09-4.21-0.09s0.94-0.57,4.21-0.57C136.43,12.45,137.36,13.02,137.36,13.02z
		 M126.86,11.87c0.02-0.01,0.04-0.01,0.07-0.01c0.17,0,0.3,0.13,0.3,0.3c0,0.08-0.03,0.16-0.09,0.21L126.86,11.87z M127.55,11.81
		c0-0.16,0.13-0.3,0.3-0.3c0.17,0,0.3,0.13,0.3,0.3c0,0.16-0.13,0.3-0.3,0.3C127.68,12.11,127.55,11.97,127.55,11.81z M128.57,11.55
		c0-0.16,0.13-0.3,0.3-0.3c0.16,0,0.3,0.13,0.3,0.3c0,0.16-0.13,0.3-0.3,0.3C128.7,11.85,128.57,11.72,128.57,11.55z M129.65,11.3
		c0-0.16,0.13-0.3,0.3-0.3c0.16,0,0.3,0.13,0.3,0.3c0,0.16-0.13,0.3-0.3,0.3C129.78,11.6,129.65,11.46,129.65,11.3z M130.71,11.14
		c0-0.16,0.13-0.3,0.3-0.3s0.3,0.13,0.3,0.3c0,0.16-0.13,0.3-0.3,0.3S130.71,11.31,130.71,11.14z M131.79,11.06
		c0-0.16,0.13-0.3,0.3-0.3c0.16,0,0.3,0.13,0.3,0.3s-0.13,0.3-0.3,0.3C131.92,11.35,131.79,11.22,131.79,11.06z M132.85,11.03
		c0-0.16,0.13-0.3,0.3-0.3s0.3,0.13,0.3,0.3s-0.13,0.3-0.3,0.3S132.85,11.19,132.85,11.03z M133.91,11.06c0-0.16,0.13-0.3,0.3-0.3
		s0.3,0.13,0.3,0.3s-0.13,0.3-0.3,0.3S133.91,11.22,133.91,11.06z M134.99,11.14c0-0.16,0.13-0.3,0.3-0.3c0.16,0,0.3,0.13,0.3,0.3
		c0,0.16-0.13,0.3-0.3,0.3C135.13,11.44,134.99,11.31,134.99,11.14z M136.06,11.3c0-0.16,0.13-0.3,0.3-0.3s0.3,0.13,0.3,0.3
		c0,0.16-0.13,0.3-0.3,0.3S136.06,11.46,136.06,11.3z M137.13,11.55c0-0.16,0.13-0.3,0.3-0.3s0.3,0.13,0.3,0.3
		c0,0.16-0.13,0.3-0.3,0.3S137.13,11.72,137.13,11.55z M138.15,11.81c0-0.16,0.13-0.3,0.3-0.3s0.3,0.13,0.3,0.3
		c0,0.16-0.13,0.3-0.3,0.3S138.15,11.97,138.15,11.81z M139.17,12.38c-0.06-0.05-0.09-0.13-0.09-0.21c0-0.16,0.13-0.3,0.3-0.3
		c0.02,0,0.05,0,0.07,0.01L139.17,12.38z M133.15,10.43c-3.25,0-6.41,1.21-6.41,1.21l-0.5-0.74c0,0,0.87,0.44,1.9,0.13
		c1.13-0.34,1.38-1.1,1.38-1.1s0.78,0.59,1.96,0.44c0.94-0.12,1.67-0.89,1.67-0.89s0.74,0.77,1.67,0.89
		c1.18,0.15,1.96-0.44,1.96-0.44s0.24,0.77,1.38,1.1c1.03,0.31,1.9-0.13,1.9-0.13l-0.5,0.74C139.56,11.64,136.4,10.43,133.15,10.43z
		 M140.2,10.45c-0.79,0.47-2.64,0.57-3.29-1.02c0,0-0.76,0.72-1.96,0.58c-1.01-0.11-1.8-1.11-1.8-1.11s-0.79,0.99-1.8,1.1
		c-1.19,0.13-1.96-0.58-1.96-0.58c-0.65,1.59-2.5,1.49-3.29,1.02c-0.2-0.12-0.11-0.35,0.1-0.26s0.79,0.41,1.64,0.23
		c1.14-0.25,1.46-1.43,1.46-1.43s0.88,0.98,2.17,0.71c1.09-0.23,1.67-1.32,1.67-1.32s0.59,1.09,1.67,1.32
		c1.29,0.27,2.17-0.71,2.17-0.71s0.32,1.19,1.46,1.43c0.85,0.19,1.43-0.13,1.65-0.23C140.31,10.09,140.4,10.33,140.2,10.45z
		 M126.36,13.9c0,0-0.06-0.5-0.26-0.94c0,0,0.24-0.13,0.44,0C126.53,12.96,126.72,13.47,126.36,13.9z M125.33,13.87
		c0,0-0.09-0.63-0.22-1.02c0,0,0.31-0.1,0.51,0.03C125.62,12.88,125.94,13.4,125.33,13.87z M124.09,12.93c0,0,0.35-0.26,0.62-0.04
		c0,0,0.25,0.77-0.46,0.94C124.25,13.82,124.3,13.4,124.09,12.93z M123.43,13.81c0,0,0.15,0.3,0.63,0.53c0,0-0.44,0.27-0.96-0.19
		C123.11,14.15,123.07,13.91,123.43,13.81z M123.8,15.79c0,0,0.44,0.29,0.41,0.84c0,0-0.29-0.28-0.69-0.44
		C123.52,16.19,123.48,15.79,123.8,15.79z M123.84,17.81c0,0,0.44,0.12,0.76,0.59c0,0-0.41,0.22-0.93-0.13
		C123.68,18.26,123.55,17.92,123.84,17.81z M142,19.78c0.35-0.31,0.57-0.65,0.57-0.65c0.41,0.15,0.31,0.54,0.31,0.54
		C142.37,20.02,142,19.78,142,19.78z M143.23,20.19c0.25,0.04,0.26,0.31,0.26,0.31c-0.34,0.29-0.79,0.28-0.79,0.28
		C142.93,20.36,143.23,20.19,143.23,20.19z M151.49,5.7c-0.24,0.09-0.54-0.12-0.2-0.37C151.55,5.49,151.49,5.7,151.49,5.7z
		 M150.86,1.63c0.45-0.04,0.56,0.2,0.49,0.6c-0.04,0.2-0.06,0.34,0.42,0.33c1.15-0.04,1.38,0.25,1.13,0.49
		c-0.18,0.17-0.29,0.3-0.05,0.48c0.29,0.22-0.01,0.83-0.33,0.71c-0.96-0.36-1.25-0.33-1.62,0.51c-0.37,0.84-0.46,1.55,1.16,1.35
		c0,0-0.03,0.42-1.07,0.36c-1.04-0.05-1.23-1.68,0.04-3.01c0.3-0.31,0.25-0.48,0.05-0.68c-0.02-0.38-0.02-0.73-0.75-0.38
		c-0.65,0.31-0.6,0.53-0.22,0.51s0.65,0.27,0.65,0.27s-0.63,0.6-0.89,1.66c-0.36,1.5,0.51,1.97,0.51,1.97s-0.53,0.4-1.07-0.31
		c0,0,0.25-0.62-0.11-1.03c0,0,0.2-0.58-0.27-1.27c0,0,0.35-0.35,0.11-1.06c0,0,0.69-0.29,0.36-1.09
		C149.4,2.05,150.06,1.7,150.86,1.63z M149.81,1.12l-0.35,0.17C149.07,1,149,0.62,149,0.62C149.56,0.41,149.81,1.12,149.81,1.12z
		 M149.11,1.51c-0.58,0.32-1.29-0.35-1.32-0.65C148.57,0.51,148.74,1.21,149.11,1.51z M148.01,1.74c0,0-0.63,0.44-1.61-0.37
		C146.4,1.37,147.31,0.75,148.01,1.74z M147.09,2.12c-0.35,0.73-1.29,0.21-1.95,0.33C145.8,1.26,146.68,2.23,147.09,2.12z
		 M146.42,2.86c-0.23,0.73-1.18,0.35-1.76,0.76C144.99,2.65,145.71,2.98,146.42,2.86z M146.19,3.67c0.02,0.75-1.22,0.86-1.83,1.52
		C144.38,3.64,146.19,3.67,146.19,3.67z M143.94,7.79c0,0,0.12,0.09,0.3,0.03c-0.09,0.53,0.1,0.85-0.09,1.55c0,0,0.16,0.1,0.35,0.07
		c0.12,0.66-0.28,0.88,0,1.53c0,0-0.24,0.33-0.77,0.63c0,0-0.69-0.65-1.36-0.33c0,0-0.72-0.44-1.3,0c0,0-0.21-0.18-0.58-0.09
		c0,0,0.47-0.61,0.33-1.44c0,0,0.88-0.85,1.58-1.9c0.7-1.05,0.89-1.89,1.3-2.43c0,0,0.14,0.34-0.09,0.67c0,0,0.1,0.14,0.28,0.16
		C143.77,7.09,144.05,7.32,143.94,7.79z M141.86,5.54c0.14,0.2,0.18,0.64,0.04,0.77C141.72,6.2,141.63,5.75,141.86,5.54z
		 M141.02,6.65c0.17,0.04,0.28-0.06,0.15-0.26c-0.21-0.32-0.17-1.07,0.49-1.38c0,0-0.55,1.26,0.21,2c0,0,0.42-0.09,0.41-0.83
		c-0.01-0.92-0.37-1.82,0.4-2.04c0,0-0.16,0.35-0.06,0.79c0.04,0.15,0.21,0.12,0.2-0.15c-0.01-0.27,0.3-0.85,1.05-0.75
		c0,0-0.5,0.72-0.9,1.49c-0.4,0.78-0.46,1.32-1.49,2.81c0,0-0.11-1.06-0.91-1.04C140.37,6.9,140.66,6.56,141.02,6.65z M138.82,7.63
		c-0.15,0.29-0.49,0.1-0.31-0.1c0.12-0.14,0-0.43-0.29-0.18c-0.76,0.68-0.83,2.01,0.29,2.38c1.11,0.36,2.09-0.54,2.14-1.54
		c0.01-0.23-0.27-0.33-0.27-0.01c0,0.31-0.57,0.22-0.4-0.18c0.24-0.56,1.11-0.25,1.01,0.45c-0.16,1.14-1.35,1.97-2.59,1.61
		c-1.24-0.36-1.57-1.95-0.46-2.95C138.38,6.72,139.08,7.14,138.82,7.63z M137.76,3.58c0.2,0.14,0.24,0.54,0.07,0.86
		C137.6,4.14,137.6,3.76,137.76,3.58z M136.99,4.76c-0.4-0.6-0.24-1.41,0.4-1.5c0,0-0.25,1.24,0.54,1.86c0,0,0.68-0.9,0.06-2.06
		c0,0-0.04-0.61,0.44-0.75c0,0,0.05,0.54,0.25,0.8c0.06,0.08,0.13-0.06,0.09-0.3c-0.06-0.33,0.3-1,0.95-1.11c0,0,0.75,0.92-0.04,1.5
		c-0.13,0.1-0.05,0.3,0.12,0.23c0.29-0.12,0.44-0.31,0.44-0.31s0.28,0.51-0.19,0.7c-1.64,0.66-1.56,1.49-1.56,1.49
		s1.02,0.2,1.73-0.89c0.2,0.64,0.04,1.15-0.61,1.32c-0.19,0.05-0.23,0.22-0.05,0.34c0.27,0.17,0.26,0.87-0.36,0.96
		c0,0-0.61-0.82-1.61-0.11c0,0-0.23-0.94-1.12-0.86C136,5.66,136.22,4.7,136.99,4.76z M139.91,4.28c-0.09,0.3-0.64,0.69-1,0.7
		C139.07,4.63,139.54,4.29,139.91,4.28z M134.66,6.69c-0.16,0.2-0.46,0.04-0.35-0.15c0.19-0.34-0.09-0.45-0.32-0.15
		c-0.59,0.77-0.3,2.26,0.84,2.59c1.08,0.31,1.8-0.54,1.96-0.98c0.16-0.44,0.15-1.27-0.14-1.2c-0.2,0.05,0,0.27-0.16,0.32
		c-0.34,0.11-0.52-0.5-0.07-0.64c0.45-0.14,0.71,0.18,0.81,0.47c0.29,0.85-0.51,2.7-2.31,2.36c-1.68-0.31-1.81-2.27-1.26-2.99
		C134.27,5.52,135.06,6.09,134.66,6.69z M131.65,4.62c0.21-0.05,0.12-0.19,0.02-0.25c-0.61-0.39-0.36-1.22,0.09-1.53
		c-0.19,1.5,1.13,1.62,1.13,1.62s0.31-0.79-0.5-1.49c-0.4-0.35-0.47-0.65-0.26-0.8c0.12-0.09,0.32,0.14,0.45,0.25
		c0.15,0.14,0.27,0.06,0.15-0.1c-0.61-0.8,0.43-1.44,0.43-1.44s1.03,0.64,0.42,1.44c-0.12,0.16,0,0.23,0.15,0.1
		c0.12-0.11,0.33-0.34,0.45-0.25c0.21,0.15,0.14,0.45-0.26,0.8c-0.81,0.7-0.5,1.49-0.5,1.49s1.31-0.12,1.12-1.62
		c0.45,0.3,0.7,1.14,0.09,1.53c-0.1,0.06-0.19,0.2,0.02,0.25c0.46,0.1,0.69,0.8,0.25,1.12c-0.48-0.29-1.23-0.27-1.75,0.61
		c-0.51-0.89-1.27-0.9-1.75-0.61C130.96,5.42,131.19,4.72,131.65,4.62z M132.1,3.31c0.23,0.03,0.56,0.4,0.52,0.76
		C132.22,4.04,132.02,3.47,132.1,3.31z M133.67,4.07c-0.04-0.36,0.3-0.74,0.52-0.76C134.27,3.47,134.07,4.04,133.67,4.07z
		 M129.81,7.13c-0.16-0.05,0.04-0.28-0.16-0.32c-0.28-0.07-0.3,0.76-0.14,1.2c0.16,0.44,0.88,1.28,1.96,0.98
		c1.14-0.32,1.43-1.81,0.84-2.59c-0.23-0.3-0.51-0.19-0.32,0.15c0.11,0.19-0.19,0.35-0.35,0.15c-0.4-0.6,0.39-1.18,1.01-0.35
		c0.55,0.72,0.42,2.67-1.26,2.99c-1.8,0.34-2.6-1.51-2.31-2.36c0.1-0.3,0.36-0.61,0.81-0.47C130.34,6.63,130.15,7.24,129.81,7.13z
		 M128.54,3.58c0.16,0.18,0.16,0.56-0.07,0.86C128.3,4.12,128.34,3.72,128.54,3.58z M127.11,7.03c-0.62-0.09-0.64-0.79-0.36-0.96
		c0.18-0.12,0.14-0.28-0.05-0.34c-0.65-0.18-0.81-0.69-0.61-1.33c0.7,1.09,1.73,0.89,1.73,0.89s0.07-0.82-1.56-1.49
		c-0.47-0.19-0.19-0.7-0.19-0.7s0.15,0.19,0.44,0.31c0.18,0.08,0.25-0.13,0.12-0.23c-0.79-0.57-0.04-1.5-0.04-1.5
		c0.65,0.11,1.01,0.79,0.95,1.11c-0.05,0.25,0.03,0.38,0.09,0.3c0.2-0.26,0.25-0.8,0.25-0.8c0.47,0.14,0.44,0.75,0.44,0.75
		c-0.61,1.16,0.06,2.06,0.06,2.06c0.79-0.63,0.54-1.86,0.54-1.86c0.64,0.09,0.8,0.9,0.4,1.5c0.76-0.05,0.99,0.9,0.54,1.3
		c-0.9-0.07-1.12,0.86-1.12,0.86C127.72,6.21,127.11,7.03,127.11,7.03z M126.39,4.28c0.38,0.01,0.85,0.35,1,0.7
		C127.02,4.97,126.47,4.58,126.39,4.28z M126.32,8c0.17,0.4-0.4,0.49-0.4,0.18c0-0.31-0.29-0.22-0.28,0.01
		c0.05,1,1.02,1.9,2.14,1.54c1.11-0.36,1.05-1.7,0.29-2.38c-0.29-0.25-0.41,0.04-0.29,0.18c0.18,0.2-0.16,0.39-0.31,0.1
		c-0.25-0.49,0.45-0.91,0.89-0.51c1.11,1,0.78,2.59-0.46,2.95c-1.24,0.36-2.43-0.48-2.59-1.61C125.21,7.75,126.09,7.44,126.32,8z
		 M124.44,5.54c0.24,0.21,0.14,0.66-0.04,0.77C124.26,6.19,124.29,5.74,124.44,5.54z M123.49,4.78c-0.01,0.27,0.16,0.3,0.2,0.15
		c0.1-0.44-0.06-0.79-0.06-0.79c0.77,0.22,0.41,1.12,0.4,2.04c-0.01,0.74,0.41,0.83,0.41,0.83c0.76-0.75,0.21-2,0.21-2
		c0.66,0.32,0.7,1.06,0.49,1.38c-0.13,0.2-0.02,0.31,0.15,0.26c0.36-0.09,0.64,0.25,0.46,0.64c-0.8-0.02-0.91,1.04-0.91,1.04
		c-1.04-1.49-1.1-2.03-1.5-2.81s-0.89-1.49-0.89-1.49C123.18,3.93,123.5,4.52,123.49,4.78z M122.06,7.83
		c0.18,0.05,0.3-0.03,0.3-0.03c-0.11-0.47,0.18-0.7,0.04-1.54c0.18-0.02,0.28-0.16,0.28-0.16c-0.23-0.33-0.09-0.67-0.09-0.67
		c0.41,0.53,0.6,1.37,1.3,2.42c0.7,1.05,1.58,1.9,1.58,1.9c-0.14,0.83,0.33,1.44,0.33,1.44c-0.37-0.09-0.58,0.09-0.58,0.09
		c-0.58-0.44-1.3,0-1.3,0c-0.67-0.31-1.36,0.33-1.36,0.33c-0.53-0.3-0.77-0.63-0.77-0.63c0.28-0.65-0.12-0.87,0-1.53
		c0.19,0.03,0.35-0.07,0.35-0.07C121.95,8.68,122.15,8.36,122.06,7.83z M121.94,5.19c-0.61-0.67-1.85-0.77-1.83-1.52
		C120.11,3.67,121.92,3.64,121.94,5.19z M121.64,3.62c-0.58-0.41-1.53-0.04-1.76-0.76C120.59,2.98,121.31,2.65,121.64,3.62z
		 M121.17,2.45c-0.67-0.12-1.6,0.4-1.95-0.33C119.62,2.23,120.5,1.26,121.17,2.45z M119.9,1.37c-0.98,0.81-1.61,0.37-1.61,0.37
		C118.99,0.75,119.9,1.37,119.9,1.37z M118.51,0.86c-0.03,0.3-0.74,0.96-1.32,0.65C117.56,1.21,117.72,0.51,118.51,0.86z
		 M117.3,0.62c0,0-0.07,0.38-0.46,0.67l-0.35-0.17C116.49,1.12,116.74,0.41,117.3,0.62z M115,5.33c0.35,0.26,0.04,0.46-0.2,0.37
		C114.8,5.7,114.75,5.49,115,5.33z M114.24,6.1c1.62,0.2,1.53-0.52,1.16-1.35c-0.37-0.83-0.65-0.87-1.62-0.51
		c-0.32,0.12-0.62-0.49-0.33-0.71c0.24-0.18,0.12-0.31-0.05-0.48c-0.25-0.24-0.02-0.53,1.13-0.49c0.47,0.02,0.45-0.13,0.42-0.33
		c-0.07-0.4,0.04-0.64,0.49-0.6c0.8,0.06,1.46,0.42,1.46,0.42c-0.33,0.8,0.36,1.09,0.36,1.09c-0.24,0.72,0.11,1.06,0.11,1.06
		c-0.47,0.69-0.27,1.27-0.27,1.27c-0.36,0.41-0.11,1.03-0.11,1.03c-0.54,0.71-1.07,0.31-1.07,0.31s0.87-0.47,0.51-1.97
		c-0.26-1.06-0.89-1.66-0.89-1.66s0.27-0.29,0.65-0.27s0.44-0.2-0.22-0.51c-0.74-0.35-0.74,0-0.75,0.38
		c-0.2,0.2-0.24,0.37,0.05,0.68c1.26,1.33,1.08,2.95,0.04,3.01C114.27,6.52,114.24,6.1,114.24,6.1z M108.89,31.53
		c-0.18-0.52-0.24-0.57,0.03-1.5c0.13-0.44,0.13-0.57,0.43-0.52c0.49,0.07,0.3-0.5,0.57-0.92c0.16-0.25,0.18-0.44,0.01-0.98
		c-0.17-0.54-0.38-0.96-0.38-0.96s0.3-0.74,0.43-1.52c0.08-0.52-0.42-0.69-0.51-0.24c-0.21,1.08-0.91,2.23-2.5,2.23
		c-1.26,0-2.21-1.2-2.21-2.55c0-1.45,1.38-2.87,2.01-3.59c1.8-2.04,2.03-2.92,2.11-3.87c0.08-1.01-0.21-1.32-0.21-1.32
		c-1.05,0.34-1.29-0.54-1.29-0.54c0.16-0.2,0.4-0.21,0.4-0.21c-0.21-0.31-0.71-0.09-0.89-0.79c0.16-0.11,0.53-0.02,0.53-0.02
		c-0.24-0.57-0.88-0.34-0.75-1.39c1.19-0.03,1.08,0.88,1.46,0.98c-0.03-0.26,0.14-0.43,0.14-0.43c0.48,0.38,0.16,0.79,0.48,1.08
		c0.06-0.2,0.21-0.3,0.21-0.3c0.51,0.64,0.1,1.32,0.1,1.32c1.23,2.98-2.07,5.62-3.29,7.42c-0.91,1.34-0.45,3.22,0.74,3.56
		c1.19,0.34,2.13-0.33,2.88-2.95c0.34-1.18,0.48-1.45,1.49-2.67c1.01-1.22,1.25-2.2,1.39-3.05c0.14-0.85,0.33-3.74,0.4-4.38
		c0.07-0.64,0.65-0.92,0.88-1.22s0.06-0.51-0.14-0.3c-0.41,0.43-0.84,0.57-0.84,0.57c0.04-1.18,1.12-1.28,1.45-1.93
		c0.12-0.24-0.01-0.37-0.2-0.18c-0.41,0.4-0.99,0.61-0.99,0.61c0.14-1.03,1.13-1.13,1.39-1.56c0.15-0.25,0.04-0.44-0.16-0.27
		c-0.46,0.39-0.86,0.45-0.86,0.45s0.24-0.68,1.05-1.13c0.27-0.15,0.18-0.3-0.01-0.27c-0.2,0.03-0.47-0.04-0.47-0.04
		c0.44-0.65,1.12-0.47,1.33-0.21c0.12,0.15,0.21,0.03,0.21-0.1c0-0.13-0.03-0.41,0.4-0.48c0.43-0.07,0.6,0.26,0.61,0.4
		c0.01,0.14,0.23,0.11,0.25,0c0.03-0.11,0.21-0.34,0.81-0.21s0.78,0.67,0.78,0.67c-0.44-0.16-0.61-0.04-0.36,0.18
		c0.95,0.81,0.89,1.4,0.89,1.4c-0.4-0.37-0.56-0.22-0.37,0.06c0.48,0.66,0.44,1.4,0.44,1.4s-0.3-0.13-0.44-0.25
		c-0.23-0.21-0.45,0.04-0.23,0.3c1.21,1.42,0.96,2.03,1.43,2.82s2.15,2.54,2.52,2.88c0.34,0.31,0.65-0.27,0.71-0.89
		c0.04-0.44,0.18-0.88,0.65-0.55c-0.5,0.58-0.04,1.02-0.04,1.02c-0.41,0.72-0.24,0.67,0.25,0.84c-0.81,0.62-0.13,1.49-0.13,1.49
		c-0.54,0.26-0.45,0.89-0.45,0.89c-0.36-0.01-0.54,0.31-0.54,0.31s-0.3-0.25-0.45-0.58c-0.23-0.48,0.11-0.79-0.41-1.18
		c-1.37-1-2.79-2.21-3.19-2.68c-0.4-0.47-0.43-0.26-0.55,0.07c-0.51-0.88-0.69-1.6-0.84-1.13c-0.07,0.25-0.23,0.31-0.23,0.31
		c-0.24-1.08-0.17-2.07-0.74-1.36c-0.1-0.81-0.4-0.82-0.35-1.74c0.01-0.33-0.38-0.47-0.4-0.06c-0.06,1.15,0.41,1.38,0.33,2.34
		c-0.04,0.51,0.16,0.58,0.54,0.51c0.23,0.84,0.6,1.33,0.6,1.33c0.14-0.26,0.34-0.34,0.34-0.34c0.41,0.41,0.6,0.87,0.99,1.19
		c0.07-0.24,0.17-0.33,0.44-0.11c0.27,0.21,0.18,0.31,0.18,0.47c0,0.16-0.21,0.52-0.21,0.52c-0.07-0.23-0.23-0.3-0.23-0.3
		c-0.24,0.31-0.08,1.12-0.72,1.59c-0.03-0.27-0.17-0.35-0.17-0.35c-0.41,0.33-0.21,0.68-0.65,1.01c-0.03-0.13-0.14-0.11-0.14-0.11
		s-0.45,0.84-1.72,2.24c-0.62,0.69-0.4,1.42-1.26,3.56c-0.33,0.82-0.47,1.01-0.74,2.09c-0.27,1.08-0.44,0.98-2.51,2.72
		c-0.33,0.27-0.24,0.33-0.2,0.51c0.04,0.18,0.34,1.16,0.34,1.16c-0.4,0.14-0.15,0.63,0.14,0.54c1.86-0.58,2.21-0.01,2.21-0.01
		c-0.31-0.1-0.65,0.27-0.65,0.27c-0.71-0.38-0.98,0.47-0.98,0.47c-0.16-0.2-0.35-0.06-0.35-0.06c0.28,0.35-0.13,0.51-0.5,0.31
		c-0.44-0.24-0.67,0.24-0.89-0.17C109.39,32.89,109.07,32.06,108.89,31.53z M115.19,29.98c0.15,0.52,0.39,1.37,0.64,2.15
		s0.65,0.97,0.65,0.97c-0.3,0.13-0.8,0.1-0.8,0.1c-0.69-2.04-2.39-1.94-2.39-1.94c-0.02,1.46,1.3,2.09,1.3,2.09
		c-0.35,0.08-0.7,0.05-0.7,0.05c-0.8-1.54-0.65-2.19-2.79-1.79c-0.2-0.5-0.3-1.1-0.3-1.1c2.04-1.59,2.59-2.07,2.69-2.73
		c0.1-0.65,0.35-1.22,0.35-1.22c0.5,0.8,0.63,0.77,1.05,0.9c0.42,0.13,0.33,0.25,0.69,1.41C115.78,29.52,115,29.27,115.19,29.98z
		 M115.29,33.28c-0.65-0.16-1.33-0.78-1.5-1.47C114.44,31.98,115.15,32.66,115.29,33.28z M113.39,33.53c0,0-0.25-0.23-0.7-0.61
		c0,0,0.04-0.15,0.36-0.17C113.04,32.76,113.48,33.02,113.39,33.53z M112.29,33.47c0,0-0.32-0.17-0.57-0.46c0,0,0-0.19,0.32-0.21
		C112.04,32.81,112.35,33.1,112.29,33.47z M113.6,35.48c0.36-0.49,2.39-1.25,3.02-0.75C116.42,34.99,115.39,35.67,113.6,35.48z
		 M113.88,34.35c-4.55,0.19-6.33-0.63-6.33-0.63l0.21-0.3c1.02,0.25,1.4,0.11,1.82,0.3c0.42,0.19,0.49-0.25,1.31,0.06
		c0.29,0.11,0.42,0,0.59-0.25c0.19,0,0.57,0.17,0.74,0.36c0.16,0.18,0.47,0.19,0.4,0.06c-0.08-0.13,0.08-0.32,0.08-0.32
		s0.38,0.06,0.79,0.42c0.28,0.24,0.25-0.06,0.53-0.25c1.97,0,3.05-0.23,3.05-0.23c0.81,0.25,1.12-0.36,1.12-0.36
		c0.3,0.17,0.55,0.15,0.55,0.15c0.4,0.23,0.89,0.25,0.89,0.25S117.59,34.19,113.88,34.35z M118.71,32.72c0,0,0.1-0.21,0.32-0.21
		c0,0,0.47,0.28,0.44,0.66C119.47,33.17,118.96,33.06,118.71,32.72z M119.33,32.17c-0.84-0.24-1.13,0.23-0.89,0.72
		c-0.89-0.36-0.72,0.25-0.72,0.25s-0.17,0.25-0.49,0.08c-0.18-0.09-0.68-0.62-0.89-1.14c-0.21-0.51-0.34-1.31-0.53-1.89
		c-0.19-0.59,0.46-0.34,0.34-1.04c-0.08-0.48-0.29-1.25-0.49-1.76c-0.21-0.51-0.55-0.3-0.93-0.68c-0.27-0.27-0.64-0.78-0.64-0.78
		s0.51-0.83,0.91-2.67c0.22-1.01,0.66-1.25,0.66-1.25s0.36,0.83,1.27,1.76c0.3,0.31,0.42,0.55,0.47,1.25
		c0.06,0.7,0.34,1.59,0.44,2.59c0.04,0.46,0.14,0.65-0.26,1.29c-0.47,0.76-0.55,0.87-0.1,2.46c0.13,0.45,0.34,0.58,0.66,0.49
		c0.82-0.21,1.21-0.25,1.51-0.02C119.41,31.9,119.33,32.17,119.33,32.17z M119.73,33.61c0,0,0.13-0.23,0.11-0.47
		c0,0,0.47,0,0.81,0.28C120.66,33.42,120.07,33.57,119.73,33.61z M119.71,32.42c0,0,0.04-0.3,0.36-0.32c0,0,0.55,0.38,0.55,0.85
		C120.62,32.94,120.22,32.68,119.71,32.42z M118.35,31.23c-0.35,0.07-0.35,0.03-0.51-0.7c-0.17-0.73-0.03-0.8,0.29-1.37
		c0.26-0.46,0.45-0.75,0.38-1.18c-0.06-0.43-0.27-2.26-0.44-3.13c-0.18-0.86-0.21-1-1.18-2.22c-0.51-0.63-0.76-1.24-0.76-1.24
		l0.46-0.57c0.1,0.14,0.29,0.18,0.29,0.18c0.24-0.29,0.18-0.77,0.56-0.98c0.16-0.05,0.33,0.08,0.33,0.08
		c0.31-0.43,0.02-0.51,0.75-1.34c0.16,0.02,0.24,0.22,0.24,0.22c0.32-0.4,0.05-0.68,0.59-1.69c0.45,0.32,1.09,0.85,1.57,1.15
		c0.48,0.3,0.44,0.37,0.64,1.16c0.27,1.1,0.86,1.04,0.86,1.04c0.16,0.26,0.66,0.45,0.66,0.45l0.12,4.45
		c0.15,5.63,4.03,7.08,8.8,7.55c-0.19,0.32-0.09,0.61-0.09,0.61s-0.89-0.2-1.61,0.34c-0.28,0.21-0.48,0.11-0.48,0.11
		c-1.08-1.8-2.65-1.95-2.65-1.95c-0.33,0.24,0.32,1.26,0.32,1.26c-1.07-2.03-2.85-2.54-2.85-2.54c-0.05,1.29,0.83,1.92,0.83,1.92
		l-0.63-0.21c-0.43-2.2-1.96-2.52-1.96-2.52c-0.29,1.43,0.81,2.33,0.81,2.33l-0.44-0.08c-0.29-0.76-0.91-1.56-0.91-1.56
		c1.45-2.5,0.14-4.29,0.14-4.29c-0.56,0.76-0.81,1.52-0.81,1.52c-0.22-0.56-0.29-1.1-0.29-1.1c1.93-2.58,0.89-4.69,0.89-4.69
		c-0.76,0.51-1.11,1.44-1.11,1.44l-0.03-0.7c1.19-2.54-0.61-4.18-0.61-4.18c-1.45,2.58,0.27,4.18,0.27,4.18l0.03,0.67
		c-0.61-1.58-1.82-1.9-1.82-1.9c-0.4,2.73,1.77,3.98,1.77,3.98c0.02,0.49,0.1,0.92,0.1,0.92c-0.59-0.64-1.33-0.92-1.33-0.92
		c-0.18,3.19,2.03,4.02,2.03,4.02c0.14,0.35,0.19,0.67,0.19,0.67c-0.99-0.66-1.82-0.61-1.82-0.61c0.22,1.76,1.72,2.57,1.72,2.57
		c-0.43,0.02-0.75,0.15-0.75,0.15C120.14,31.18,119.76,30.94,118.35,31.23z M129.08,34.06c-0.67-0.1-1.19-0.68-1.35-1.19
		C128.11,32.98,128.76,33.25,129.08,34.06z M126.64,33.27c-0.67-0.1-1.31-1.06-1.32-1.45C125.89,31.96,126.61,32.76,126.64,33.27z
		 M124.31,32.52c-0.67-0.26-1.11-1.37-1.05-1.72C123.86,31.04,124.28,32.01,124.31,32.52z M122.68,32.31
		c-0.65-0.16-1.81-0.97-1.97-1.85C121.55,30.65,122.54,31.69,122.68,32.31z M122.35,27.69c0.43,0.75,0.1,2.01-0.21,2.09
		C121.77,29.15,122.12,27.93,122.35,27.69z M121.36,29.03c-0.89-0.43-1.42-2.03-1.36-2.38C120.98,27.28,121.33,28.52,121.36,29.03z
		 M120.9,22.49c-0.61-0.56-0.59-2.21-0.32-2.66C121.22,20.53,121.12,21.99,120.9,22.49z M121.25,26.06
		c-0.37-0.62,0.25-2.27,0.67-2.63C122.22,24.13,121.68,25.82,121.25,26.06z M120.71,25c-0.94-0.51-1.26-1.93-1.2-2.28
		C120.45,23.27,120.68,24.5,120.71,25z M121.61,34.42c0.36-0.44,2.22-1.08,2.85-0.58C124.26,34.1,123.14,34.76,121.61,34.42z
		 M125.06,35.22c0.45-0.49,2.01-0.91,2.75-0.3C127.54,35.14,126.19,35.75,125.06,35.22z M125.13,33.65
		c-2.25-0.79-4.22-0.26-4.22-0.26l0.3-0.42c1.84-0.26,2.99-0.08,5.19,0.68c1.81,0.63,4.05,1.1,4.05,1.1l-0.93,0.23
		C129.52,34.97,128.05,34.67,125.13,33.65z M129.45,36.05c-0.38-0.17-0.32-0.57-0.32-0.57c1.1-0.3,2.24-0.53,2.24-0.53
		c0.36,0.1,0.36,0.49,0.36,0.49S130.68,35.63,129.45,36.05z M132.2,35.56c-0.04-1.17-1.46-1.17-1.46-1.17
		c1.5-0.72,2.14,0.57,2.14,0.57L132.2,35.56z M133.15,33.1c1.01,0,0.87,0.87,0,1.31C132.28,33.97,132.14,33.1,133.15,33.1z
		 M134.1,35.56l-0.68-0.61c0,0,0.64-1.29,2.14-0.57C135.56,34.38,134.14,34.38,134.1,35.56z M136.85,36.05
		c-1.23-0.42-2.27-0.61-2.27-0.61s0-0.4,0.36-0.49c0,0,1.14,0.23,2.23,0.53C137.17,35.48,137.23,35.88,136.85,36.05z M141.24,35.22
		c-1.14,0.53-2.48-0.08-2.76-0.3C139.24,34.31,140.79,34.72,141.24,35.22z M141.84,33.84c0.63-0.5,2.49,0.15,2.85,0.58
		C143.16,34.76,142.04,34.1,141.84,33.84z M141.17,33.65c-2.92,1.02-4.4,1.33-4.4,1.33l-0.93-0.23c0,0,2.24-0.47,4.05-1.1
		c2.2-0.76,3.35-0.95,5.19-0.68l0.3,0.42C145.39,33.38,143.42,32.86,141.17,33.65z M137.22,34.06c0.32-0.81,0.97-1.08,1.35-1.19
		C138.41,33.38,137.89,33.97,137.22,34.06z M139.66,33.27c0.03-0.51,0.75-1.31,1.32-1.45C140.96,32.22,140.33,33.17,139.66,33.27z
		 M141.99,32.52c0.03-0.51,0.45-1.48,1.05-1.72C143.1,31.15,142.66,32.26,141.99,32.52z M145.59,30.46
		c-0.16,0.88-1.32,1.69-1.97,1.85C143.76,31.69,144.75,30.65,145.59,30.46z M143.95,27.69c0.22,0.24,0.57,1.47,0.21,2.09
		C143.86,29.69,143.52,28.44,143.95,27.69z M144.65,32.36c0,0,1.5-0.81,1.72-2.57c0,0-0.83-0.05-1.82,0.61c0,0,0.05-0.32,0.19-0.67
		c0,0,2.2-0.83,2.03-4.02c0,0-0.73,0.29-1.33,0.92c0,0,0.08-0.43,0.1-0.92c0,0,2.17-1.25,1.77-3.98c0,0-1.21,0.32-1.82,1.9
		l0.03-0.67c0,0,1.72-1.6,0.27-4.18c0,0-1.8,1.65-0.6,4.18l-0.03,0.7c0,0-0.35-0.92-1.11-1.44c0,0-1.04,2.1,0.89,4.69
		c0,0-0.06,0.54-0.29,1.1c0,0-0.26-0.75-0.81-1.52c0,0-1.31,1.79,0.14,4.29c0,0-0.63,0.8-0.91,1.56l-0.45,0.08
		c0,0,1.1-0.9,0.81-2.33c0,0-1.53,0.32-1.96,2.52l-0.62,0.21c0,0,0.88-0.63,0.83-1.92c0,0-1.79,0.51-2.85,2.54
		c0,0,0.65-1.02,0.32-1.26c0,0-1.56,0.14-2.65,1.95c0,0-0.2,0.1-0.48-0.11c-0.72-0.54-1.61-0.34-1.61-0.34s0.11-0.3-0.08-0.61
		c4.76-0.47,8.65-1.92,8.8-7.55l0.12-4.45c0,0,0.5-0.19,0.66-0.45c0,0,0.59,0.06,0.86-1.04c0.19-0.79,0.16-0.86,0.64-1.16
		c0.48-0.3,1.12-0.83,1.57-1.15c0.54,1.01,0.27,1.3,0.59,1.69c0,0,0.08-0.21,0.24-0.22c0.74,0.83,0.45,0.91,0.75,1.34
		c0,0,0.18-0.13,0.33-0.08c0.38,0.21,0.32,0.69,0.56,0.98c0,0,0.19-0.03,0.29-0.18l0.46,0.57c0,0-0.26,0.61-0.76,1.24
		c-0.97,1.21-1.01,1.35-1.18,2.22c-0.18,0.87-0.38,2.7-0.45,3.13c-0.06,0.43,0.12,0.72,0.38,1.18c0.32,0.57,0.46,0.64,0.29,1.37
		c-0.16,0.73-0.17,0.77-0.51,0.7c-1.42-0.29-1.8-0.05-2.55,1.28C145.4,32.51,145.08,32.38,144.65,32.36z M146.3,26.65
		c0.06,0.35-0.47,1.95-1.36,2.38C144.97,28.52,145.32,27.28,146.3,26.65z M145.05,26.06c-0.43-0.24-0.97-1.93-0.67-2.63
		C144.8,23.79,145.42,25.44,145.05,26.06z M145.72,19.82c0.27,0.45,0.29,2.11-0.32,2.66C145.18,21.99,145.08,20.53,145.72,19.82z
		 M145.59,25c0.03-0.51,0.26-1.74,1.2-2.28C146.85,23.08,146.54,24.5,145.59,25z M145.64,33.42c0.34-0.28,0.81-0.28,0.81-0.28
		c-0.02,0.25,0.11,0.47,0.11,0.47C146.23,33.57,145.64,33.42,145.64,33.42z M145.68,32.94c0-0.47,0.55-0.85,0.55-0.85
		c0.32,0.02,0.36,0.32,0.36,0.32C146.07,32.68,145.68,32.94,145.68,32.94z M148.16,31.85c0.32,0.08,0.54-0.04,0.66-0.49
		c0.46-1.59,0.38-1.7-0.1-2.46c-0.4-0.64-0.31-0.83-0.26-1.29c0.1-1,0.38-1.9,0.44-2.59c0.06-0.7,0.17-0.94,0.47-1.25
		c0.91-0.93,1.27-1.76,1.27-1.76s0.44,0.24,0.66,1.25c0.4,1.84,0.91,2.67,0.91,2.67s-0.38,0.51-0.64,0.78
		c-0.38,0.38-0.72,0.17-0.93,0.68c-0.21,0.51-0.41,1.28-0.49,1.76c-0.11,0.7,0.53,0.45,0.34,1.04c-0.19,0.59-0.32,1.38-0.53,1.89
		c-0.21,0.51-0.72,1.04-0.89,1.14c-0.32,0.17-0.49-0.08-0.49-0.08s0.17-0.61-0.72-0.25c0.24-0.49-0.05-0.96-0.89-0.72
		c0,0-0.08-0.27-0.32-0.34C146.95,31.6,147.34,31.64,148.16,31.85z M147.59,32.72c-0.25,0.34-0.76,0.46-0.76,0.46
		c-0.04-0.38,0.43-0.66,0.43-0.66C147.49,32.51,147.59,32.72,147.59,32.72z M149.68,34.73c0.63-0.5,2.66,0.26,3.02,0.75
		C150.9,35.67,149.88,34.99,149.68,34.73z M152.42,34.35c-3.71-0.15-5.74-0.74-5.74-0.74s0.49-0.02,0.89-0.25
		c0,0,0.25,0.02,0.55-0.15c0,0,0.3,0.61,1.12,0.36c0,0,1.08,0.23,3.05,0.23c0.28,0.19,0.26,0.48,0.53,0.25
		c0.42-0.36,0.79-0.42,0.79-0.42s0.15,0.19,0.08,0.32c-0.08,0.13,0.24,0.12,0.4-0.06c0.17-0.19,0.55-0.36,0.74-0.36
		c0.17,0.25,0.29,0.35,0.59,0.25c0.81-0.3,0.89,0.13,1.31-0.06c0.42-0.19,0.8-0.06,1.82-0.3l0.21,0.3
		C158.75,33.72,156.97,34.53,152.42,34.35z M159.07,32.87c-0.18-0.28,0.44-0.3,0.44-0.3C159.49,32.74,159.2,33.08,159.07,32.87z
		 M159.75,31.24c0.4-0.1,0.59-0.21,0.59-0.21s0.05,0.62-0.7,0.93C159.12,32.17,159.05,31.41,159.75,31.24z M160.19,33.38
		c-0.66,0.08-0.64-0.7-0.06-0.76c0.59-0.06,0.95,0.27,0.95,0.27S160.68,33.32,160.19,33.38z"/>
	<path fill="#1D1D1B" d="M136.35,25.91c-0.64,0-1.16,0.5-1.16,1.13c0,0.62,0.52,1.13,1.16,1.13s1.16-0.51,1.16-1.13
		C137.5,26.41,136.98,25.91,136.35,25.91z M136.35,27.7c-0.38,0-0.68-0.3-0.68-0.67c0-0.37,0.31-0.67,0.68-0.67
		c0.38,0,0.68,0.3,0.68,0.67C137.03,27.4,136.72,27.7,136.35,27.7z"/>
</g>
</svg>
