<?xml version="1.0" encoding="utf-8"?>
<svg version="1.1" id="Ebene_1" xmlns="http://www.w3.org/2000/svg" xmlns:xlink="http://www.w3.org/1999/xlink" x="0px" y="0px"
	 width="20px" height="40px" viewBox="0 0 20 40" enable-background="new 0 0 20 40" xml:space="preserve">
<title>Auf Komemntar antworten</title>
<g id="icon_reply">
	<path fill="#ABABAB" d="M14.2,4.5H2.9l1.4-2L3,1.5L0,5.5l3.1,4.1l1.3-1l-1.4-2h11.3
		c2.1,0,3.7,1.7,3.7,3.7c0,2.1-1.7,3.7-3.7,3.7H0v2.1h14.2c3.2,0,5.8-2.6,5.8-5.8S17.4,4.5,14.2,4.5z"/>
</g>
<g id="icon_reply_hover">
	<path fill="#787878" d="M14.2,24.5H2.9l1.4-2l-1.3-1l-3,4.1l3.1,4.1l1.3-1l-1.4-2h11.3
		c2.1,0,3.7,1.7,3.7,3.7c0,2.1-1.7,3.7-3.7,3.7H0v2.1h14.2c3.2,0,5.8-2.6,5.8-5.8C20,27.1,17.4,24.5,14.2,24.5z"/>
</g>
</svg>
