<?xml version="1.0" encoding="utf-8"?>
<svg width="90px" height="90px" viewBox="0 0 90 90" version="1.1" xmlns="http://www.w3.org/2000/svg" xmlns:xlink="http://www.w3.org/1999/xlink" x="0px" y="0px">
<title>Mail</title>
<g id="mail">
	<path fill="#FFFFFF" d="M0,24.1l45,34.1l45-34.1c0,0.4,0,31,0,44.1c0,3.2-2.6,5.8-5.8,5.8c-12.7,0-61.5,0-78.4,0
		C2.6,74,0,71.4,0,68.2L0,24.1z M45,49.6L4.2,19.2c-0.6-0.5-1.1-1-1.7-1.5c-0.8-0.8-0.6-1.3,0.5-1.5C3.6,16.1,4.2,16,4.7,16
		c26.5,0,53,0,79.5,0c0.6,0,1.3,0.1,1.9,0.2c0.9,0.2,1.1,0.7,0.4,1.3c-0.9,0.9-1.8,1.7-2.8,2.4L45,49.6z"/>
</g>
</svg>
