<?xml version="1.0" encoding="utf-8"?>
<!-- Generator: Adobe Illustrator 15.0.2, SVG Export Plug-In . SVG Version: 6.00 Build 0)  -->
<!DOCTYPE svg PUBLIC "-//W3C//DTD SVG 1.1//EN" "http://www.w3.org/Graphics/SVG/1.1/DTD/svg11.dtd">
<svg version="1.1" id="Ebene_1" xmlns="http://www.w3.org/2000/svg" xmlns:xlink="http://www.w3.org/1999/xlink" x="0px" y="0px"
 viewBox="0 0 90 92" enable-background="new 0 0 90 92" xml:space="preserve">
<title>Abspielen</title>
<circle opacity="0.35" enable-background="new    " cx="44.5" cy="45.442" r="43"/>
<g>
	<g opacity="0.1">
		<path d="M45,6.345c22.478,0,40.765,18.264,40.765,40.713c0,22.448-18.287,40.713-40.765,40.713S4.235,69.506,4.235,47.058
			C4.235,24.608,22.522,6.345,45,6.345 M45,2.115c-24.853,0-45,20.121-45,44.943C0,71.877,20.147,92,45,92
			c24.854,0,45-20.123,45-44.942C90,22.235,69.854,2.115,45,2.115L45,2.115z"/>
	</g>
	<g>
		<path fill="#FFFFFF" d="M45,4.23c22.478,0,40.765,18.264,40.765,40.712c0,22.448-18.287,40.713-40.765,40.713
			S4.235,67.391,4.235,44.942C4.235,22.494,22.522,4.23,45,4.23 M45,0C20.147,0,0,20.12,0,44.942c0,24.819,20.147,44.942,45,44.942
			c24.854,0,45-20.123,45-44.942C90,20.12,69.854,0,45,0L45,0z"/>
	</g>
</g>
<polygon fill="#FFFFFF" points="36,32 36,60 62,46.001 "/>
</svg>
