<?xml version="1.0" encoding="utf-8"?>
<!-- Generator: Adobe Illustrator 16.0.0, SVG Export Plug-In . SVG Version: 6.00 Build 0)  -->
<!DOCTYPE svg PUBLIC "-//W3C//DTD SVG 1.1//EN" "http://www.w3.org/Graphics/SVG/1.1/DTD/svg11.dtd">
<svg version="1.1" id="Ebene_1" xmlns="http://www.w3.org/2000/svg" xmlns:xlink="http://www.w3.org/1999/xlink" x="0px" y="0px"
	 width="18px" height="18.146px" viewBox="0 0 18 18.146" enable-background="new 0 0 18 18.146" xml:space="preserve">
<title>Suche</title>
<path id="magnifier-2-icon" fill="#FFFFFF" d="M18,16.365l-4.691-4.69c0.883-1.213,1.405-2.705,1.405-4.317
	c0-4.057-3.3-7.357-7.356-7.357C3.301,0,0,3.301,0,7.357s3.301,7.356,7.357,7.356c1.537,0,2.966-0.475,4.147-1.284l4.716,4.717
	L18,16.365z M2.158,7.357c0-2.867,2.332-5.199,5.199-5.199c2.867,0,5.199,2.332,5.199,5.199c0,2.866-2.332,5.199-5.199,5.199
	C4.49,12.557,2.158,10.224,2.158,7.357z"/>
</svg>
