<?xml version="1.0" encoding="utf-8"?>
<svg width="20px" height="17px" viewBox="0 0 20 17" version="1.1" xmlns="http://www.w3.org/2000/svg" xmlns:xlink="http://www.w3.org/1999/xlink" x="0px" y="0px">
<title>Twitter</title>
<g id="twitter">
	<path fill="#FFFFFF" d="M19.5,2c-0.7,0.3-1.5,0.6-2.2,0.7c0.8-0.5,1.4-1.4,1.7-2.4c-0.8,0.5-1.6,0.8-2.5,1C15.8,0.5,14.8,0,13.7,0
		c-2.2,0-3.9,1.9-3.9,4.3c0,0.3,0,0.7,0.1,1c-3.2-0.2-6.1-1.9-8-4.5C1.5,1.4,1.3,2.2,1.3,2.9C1.3,4.4,2,5.7,3,6.5
		C2.4,6.5,1.8,6.3,1.3,6c0,0,0,0,0,0.1c0,2.1,1.3,3.8,3.1,4.2c-0.3,0.1-0.7,0.2-1,0.2c-0.3,0-0.5,0-0.7-0.1c0.5,1.7,1.9,2.9,3.6,3
		c-1.3,1.2-3,1.8-4.8,1.8c-0.3,0-0.6,0-0.9-0.1c1.7,1.2,3.8,1.9,6,1.9c7.2,0,11.1-6.5,11.1-12.2c0-0.2,0-0.4,0-0.6
		C18.3,3.6,19,2.9,19.5,2"/>
</g>
</svg>
