<?xml version="1.0" encoding="UTF-8" standalone="no"?>
<svg width="23px" height="25px" viewBox="0 0 23 25" version="1.1" xmlns="http://www.w3.org/2000/svg" xmlns:xlink="http://www.w3.org/1999/xlink" xmlns:sketch="http://www.bohemiancoding.com/sketch/ns">
    <!-- Generator: Sketch 3.4.2 (15855) - http://www.bohemiancoding.com/sketch -->
    <title>Instagram-Autorenseite</title>
    <desc>Created with Sketch.</desc>
    <defs>
        <path id="path-1" d="M16.31525,21.0954545 L5.2136875,21.0954545 C1.9005,21.0954545 0,19.3436528 0,16.2883278 L0,5.32879972 C0,2.14162812 1.868125,0 4.6484375,0 L16.7164375,0 C18.776625,0 21,1.98824659 21,5.20090852 L21,16.224602 C21,18.9560239 18.9424375,21.0954545 16.31525,21.0954545 L16.31525,21.0954545 Z"></path>
    </defs>
    <g id="Autorenprofil" stroke="none" stroke-width="1" fill="none" fill-rule="evenodd" sketch:type="MSPage">
        <g id="Autoren-Profil_Phone-Phablet_verm_151201_dl" sketch:type="MSArtboardGroup" transform="translate(-164.000000, -785.000000)">
            <g id="Group" sketch:type="MSLayerGroup" transform="translate(20.000000, 120.000000)">
                <g transform="translate(0.000000, 335.000000)" id="Instagram-Autorenseite">
                    <g transform="translate(145.000000, 330.000000)">
                        <g id="Mask-+-Rectangle-355" transform="translate(0.000000, 2.812727)">
                            <mask id="mask-2" sketch:name="Mask" fill="white">
                                <use xlink:href="#path-1"></use>
                            </mask>
                            <use id="Mask" sketch:type="MSShapeGroup" xlink:href="#path-1"></use>
                            <rect id="Rectangle-355" fill="#66583D" sketch:type="MSShapeGroup" mask="url(#mask-2)" x="0" y="0" width="21" height="7.03181818"></rect>
                        </g>
                        <ellipse id="Oval-6" stroke="#66583D" stroke-width="1.30000007" fill="#FFFFFF" sketch:type="MSShapeGroup" cx="10.5" cy="13.3604545" rx="4.9" ry="4.92227273"></ellipse>
                        <ellipse id="Oval-6-Copy" fill="#66583D" sketch:type="MSShapeGroup" cx="10.5" cy="13.3604545" rx="2.1" ry="2.10954545"></ellipse>
                        <path d="M5.2136875,23.9081818 C1.9005,23.9081818 0,22.1563801 0,19.1010551 L0,8.14152699 C0,4.9543554 1.868125,2.81272727 4.6484375,2.81272727 L16.7164375,2.81272727 C18.776625,2.81272727 21,4.80097386 21,8.0136358 L21,19.0373293 C21,21.7687511 18.9424375,23.9081818 16.31525,23.9081818 L5.2136875,23.9081818 Z" id="Shape" stroke="#66583D" stroke-width="1.30000007" sketch:type="MSShapeGroup"></path>
                        <rect id="Rectangle-354" fill="#FFFFFF" sketch:type="MSShapeGroup" x="2.8" y="0" width="1.4" height="7.03181818"></rect>
                        <rect id="Rectangle-354-Copy" fill="#FFFFFF" sketch:type="MSShapeGroup" x="5.6" y="0" width="1.4" height="7.03181818"></rect>
                    </g>
                </g>
            </g>
        </g>
    </g>
</svg>