<?xml version="1.0" encoding="utf-8"?>
<svg width="23px" height="23px" viewBox="0 0 23 23" version="1.1" xmlns="http://www.w3.org/2000/svg" xmlns:xlink="http://www.w3.org/1999/xlink">
	<title>Instagram</title>
	<g fill="#66583D">
		<circle cx="11.5" cy="11.5" r="2.1"/>
		<path d="M17.717,0.35H7v6.682H5.6V0.352C5.107,0.357,4.64,0.426,4.2,0.547v6.485H2.8V1.18
			c-1.516,1-2.45,2.834-2.45,5.125v10.91c0,3.403,2.192,5.436,5.864,5.436h11.102c2.991,0,5.335-2.416,5.335-5.499V6.177
			C22.65,2.578,20.089,0.35,17.717,0.35z M11.5,7.25c2.344,0,4.25,1.907,4.25,4.25c0,2.344-1.906,4.25-4.25,4.25
			c-2.343,0-4.25-1.906-4.25-4.25C7.25,9.157,9.157,7.25,11.5,7.25z M21.35,17.151c0,2.354-1.771,4.198-4.034,4.198H6.214
			c-2.943,0-4.564-1.468-4.564-4.135V8.032h5.524C6.41,8.983,5.95,10.188,5.95,11.5c0,3.061,2.49,5.551,5.55,5.551
			c3.061,0,5.551-2.49,5.551-5.551c0-1.312-0.46-2.517-1.224-3.468h5.523V17.151z"/>
	</g>
</svg>
