<?xml version="1.0" encoding="utf-8"?>
<svg width="24px" height="19px" viewBox="0 0 24 19" version="1.1" xmlns="http://www.w3.org/2000/svg" xmlns:xlink="http://www.w3.org/1999/xlink">
	<title>Twitter</title>
	<path fill="#55ACEE" d="M7.548,19c9.058,0,14.01-7.309,14.01-13.647c0-0.209-0.005-0.415-0.015-0.621
		C22.506,4.056,23.34,3.211,24,2.249c-0.883,0.382-1.831,0.639-2.828,0.755c1.016-0.594,1.797-1.533,2.165-2.653
		C22.385,0.9,21.332,1.299,20.21,1.514C19.312,0.582,18.032,0,16.616,0c-2.719,0-4.923,2.147-4.923,4.796
		c0,0.376,0.043,0.742,0.127,1.094c-4.092-0.2-7.721-2.11-10.149-5.012C1.248,1.586,1.005,2.41,1.005,3.289
		c0,1.664,0.869,3.132,2.19,3.993c-0.806-0.025-1.566-0.241-2.23-0.6v0.06c0,2.324,1.698,4.263,3.949,4.704
		c-0.413,0.11-0.848,0.168-1.297,0.168c-0.318,0-0.625-0.03-0.927-0.087c0.627,1.906,2.445,3.293,4.6,3.332
		c-1.685,1.286-3.809,2.053-6.116,2.053c-0.397,0-0.788-0.023-1.174-0.068C2.179,18.206,4.768,19,7.548,19z"/>
</svg>
