<?xml version="1.0" encoding="UTF-8" standalone="no"?>
<svg width="24px" height="19px" viewBox="0 0 24 19" version="1.1" xmlns="http://www.w3.org/2000/svg" xmlns:xlink="http://www.w3.org/1999/xlink" xmlns:sketch="http://www.bohemiancoding.com/sketch/ns">
    <!-- Generator: Sketch 3.4.2 (15855) - http://www.bohemiancoding.com/sketch -->
    <title>Twitter-Autorenseite</title>
    <desc>Created with Sketch.</desc>
    <defs></defs>
    <g id="Autorenprofil" stroke="none" stroke-width="1" fill="none" fill-rule="evenodd" sketch:type="MSPage">
        <g id="Autoren-Profil_Phone-Phablet_verm_151201_dl" sketch:type="MSArtboardGroup" transform="translate(-44.000000, -789.000000)" fill="#55ACEE">
            <g id="Group" sketch:type="MSLayerGroup" transform="translate(20.000000, 120.000000)">
                <g transform="translate(0.000000, 335.000000)" id="Twitter-Autorenseite" sketch:type="MSShapeGroup">
                    <path d="M31.5476706,353.000076 C40.6051877,353.000076 45.5578586,345.691477 45.5578586,339.353302 C45.5578586,339.144159 45.5531745,338.938058 45.5430255,338.731957 C46.5056112,338.055854 47.3401643,337.210916 47.9998439,336.248858 C47.1168882,336.630639 46.1683549,336.887695 45.1721998,337.004055 C46.1886527,336.410089 46.9693386,335.470846 47.3370416,334.3506 C46.3853856,334.899695 45.3322404,335.298968 44.2103948,335.514196 C43.3118254,334.581798 42.0322814,334 40.6161173,334 C37.8969885,334 35.6931124,336.146949 35.6931124,338.79584 C35.6931124,339.172298 35.7360501,339.538108 35.8203642,339.889468 C31.7280091,339.689452 28.0993813,337.779785 25.6714484,334.87764 C25.247536,335.586445 25.0047427,336.410089 25.0047427,337.28925 C25.0047427,338.953268 25.873646,340.421072 27.1945664,341.281981 C26.388118,341.256884 25.6285106,341.040896 24.964147,340.68193 L24.964147,340.742012 C24.964147,343.066161 26.6621387,345.004727 28.9136366,345.445829 C28.5006538,345.555344 28.0658118,345.613904 27.6169175,345.613904 C27.2991783,345.613904 26.9915881,345.584244 26.6902434,345.527205 C27.3171341,347.433068 29.1353514,348.820257 31.2900443,348.859044 C29.6053243,350.145083 27.4810781,350.912448 25.1741515,350.912448 C24.7775631,350.912448 24.3856588,350.889633 24,350.844762 C26.1788942,352.206093 28.7676484,353.000076 31.5476706,353.000076 Z"></path>
                </g>
            </g>
        </g>
    </g>
</svg>