<?xml version="1.0" encoding="UTF-8" standalone="no"?>
<svg width="22px" height="11px" viewBox="0 0 22 11" version="1.1" xmlns="http://www.w3.org/2000/svg" xmlns:xlink="http://www.w3.org/1999/xlink" xmlns:sketch="http://www.bohemiancoding.com/sketch/ns">
    <!-- Generator: Sketch 3.3.2 (12043) - http://www.bohemiancoding.com/sketch -->
    <title>icon_meistgelesen</title>
    <desc>Created with Sketch.</desc>
    <defs></defs>
    <g id="Buzzbox-Groß" stroke="none" stroke-width="1" fill="none" fill-rule="evenodd" sketch:type="MSPage">
        <g id="Buzzbox-Groß-Desktop" sketch:type="MSArtboardGroup" transform="translate(-750.000000, -150.000000)" fill="#444444">
            <g id="MEISTGELESEN-+-Oval-23-Copy-5" sketch:type="MSLayerGroup" transform="translate(750.000000, 149.000000)">
                <path d="M21.2830138,6.5 C18.835831,9.84351137 14.9795569,12 10.6415069,12 C6.30345687,12 2.44718283,9.84351137 1.25321975e-12,6.5 C2.44718283,3.15648863 6.30345687,1 10.6415069,1 C14.9795569,1 18.835831,3.15648863 21.2830138,6.5 L21.2830138,6.5 Z M10.7612747,10 C12.610228,10 14.1091008,8.43299662 14.1091008,6.5 C14.1091008,4.56700338 12.610228,3 10.7612747,3 C8.91232137,3 7.41344858,4.56700338 7.41344858,6.5 C7.41344858,8.43299662 8.91232137,10 10.7612747,10 Z M10.7612747,8 C11.5536832,8 12.1960573,7.32842712 12.1960573,6.5 C12.1960573,5.67157288 11.5536832,5 10.7612747,5 C9.96886611,5 9.32649206,5.67157288 9.32649206,6.5 C9.32649206,7.32842712 9.96886611,8 10.7612747,8 Z" id="icon_meistgelesen" sketch:type="MSShapeGroup"></path>
            </g>
        </g>
    </g>
</svg>