<?xml version="1.0" encoding="utf-8"?>
<svg width="22px" height="11px" viewBox="0 0 22 11" version="1.1" xmlns="http://www.w3.org/2000/svg" xmlns:xlink="http://www.w3.org/1999/xlink">
    <title>Leser</title>
    <path fill="#444444" d="M21.2830143,5.5C18.8358307,8.8435116,14.979557,11,10.6415071,11S2.4471829,8.8435116,0,5.5 C2.4471829,2.1564887,6.3034568,0,10.6415071,0S18.8358307,2.1564887,21.2830143,5.5L21.2830143,5.5z M10.7612743,9 c1.8489532,0,3.347826-1.5670033,3.347826-3.5S12.6102276,2,10.7612743,2S7.4134488,3.5670033,7.4134488,5.5 S8.9123211,9,10.7612743,9z M10.7612743,7c0.7924089,0,1.434783-0.6715727,1.434783-1.5S11.5536833,4,10.7612743,4 c-0.792408,0-1.434782,0.6715727-1.434782,1.5S9.9688663,7,10.7612743,7z"/>
</svg>
