<?xml version="1.0" encoding="utf-8"?>
<svg width="16px" height="16px" viewBox="0 0 16 16" version="1.1" xmlns="http://www.w3.org/2000/svg" xmlns:xlink="http://www.w3.org/1999/xlink">
    <title>ZEIT ONLINE Redaktion</title>
    <path role="presentation" fill="#FFFFFF" d="M12.25,10.659c-0.316,0.594-2.121,2.268-4.474,2.268H6.174L12.5,2.557H6.542
        c-0.714,0-1.396-0.058-1.396-0.058S4.038,5.016,3.938,5.233c-0.07,0.154,0.088,0.23,0.186,0.065
        c0.303-0.505,1.625-2.153,4.275-2.153h1.351L3.5,13.499h7.612c0,0,1.221-2.657,1.278-2.789
        C12.448,10.575,12.314,10.537,12.25,10.659z M5.427,12.928L5.427,12.928H4.574H4.573c-0.038,0-0.052-0.032-0.026-0.073l5.867-9.636
        c0.025-0.041,0.078-0.074,0.117-0.074l0,0h0.853l0,0c0.04,0,0.052,0.033,0.027,0.074l-5.869,9.636
        C5.518,12.896,5.466,12.928,5.427,12.928z"/>
</svg>
