<svg width="27px" height="26px" viewBox="0 0 27 26" version="1.1" xmlns="http://www.w3.org/2000/svg" xmlns:xlink="http://www.w3.org/1999/xlink"><title>Icon_Feedback_noBG</title><g id="Page-1" stroke="none" stroke-width="1" fill="none" fill-rule="evenodd"><g id="Feedback-Page" transform="translate(-315.000000, -222.000000)" fill="#000000"><g id="Icon_Feedback_BG" transform="translate(304.000000, 209.000000)"><path d="M19.4803371,33.7297297 L14.1973684,39 L14.1973684,33.7297297 L13.4868421,33.7297297 C12.1133971,33.7297297 11,32.6285922 11,31.2702703 L11,15.4594595 C11,14.1011375 12.1133971,13 13.4868421,13 L35.5131579,13 C36.8866029,13 38,14.1011375 38,15.4594595 L38,31.2702703 C38,32.6285922 36.8866029,33.7297297 35.5131579,33.7297297 L19.4803371,33.7297297 Z M23.9060484,26.9595238 C23.5125455,26.9595238 23.1935484,27.2785209 23.1935484,27.6720238 L23.1935484,28.8470238 C23.1935484,29.2405267 23.5125455,29.5595238 23.9060484,29.5595238 L25.0939516,29.5595238 C25.4874545,29.5595238 25.8064516,29.2405267 25.8064516,28.8470238 L25.8064516,27.6720238 C25.8064516,27.2785209 25.4874545,26.9595238 25.0939516,26.9595238 L23.9060484,26.9595238 Z M23.9060484,17.3333333 C23.5125455,17.3333333 23.1935484,17.6523304 23.1935484,18.0458333 L23.1935484,24.4208333 C23.1935484,24.8143362 23.5125455,25.1333333 23.9060484,25.1333333 L23.9060484,25.1333333 L25.0939516,25.1333333 C25.4874545,25.1333333 25.8064516,24.8143362 25.8064516,24.4208333 L25.8064516,18.0458333 C25.8064516,17.6523304 25.4874545,17.3333333 25.0939516,17.3333333 L23.9060484,17.3333333 Z" id="Icon_Feedback_noBG"></path></g></g></g></svg>
