<svg width="21" height="16" viewBox="0 0 21 16" xmlns="http://www.w3.org/2000/svg"><title>twitter</title><path d="M6.848 16c7.43 0 11.493-6.155 11.493-11.492 0-.176-.004-.35-.012-.523a8.19 8.19 0 0 0 2.015-2.091 8.076 8.076 0 0 1-2.32.636A4.052 4.052 0 0 0 19.8.295a8.1 8.1 0 0 1-2.565.98A4.034 4.034 0 0 0 14.287 0a4.038 4.038 0 0 0-3.934 4.96A11.466 11.466 0 0 1 2.027.74a4.039 4.039 0 0 0 1.25 5.393 4.032 4.032 0 0 1-1.83-.506v.05a4.043 4.043 0 0 0 3.24 3.962 4.045 4.045 0 0 1-1.824.068 4.044 4.044 0 0 0 3.773 2.806 8.108 8.108 0 0 1-5.98 1.672A11.431 11.431 0 0 0 6.848 16z"/></svg>