<?xml version="1.0" encoding="UTF-8"?>
<svg width="14px" height="14px" viewBox="0 0 14 14" version="1.1" xmlns="http://www.w3.org/2000/svg" xmlns:xlink="http://www.w3.org/1999/xlink">
    <!-- Generator: Sketch 47.1 (45422) - http://www.bohemiancoding.com/sketch -->
    <title>Info</title>
    <g id="Info-icon" fill="#33333C">
        <path d="M8.82583333,12.1088333 L5.17416667,12.1088333 L5.17416667,11.0996667 L6.013,10.9608333 L6.013,6.33033333 L5.17416667,6.13433333 L5.17416667,4.94433333 L7.98583333,4.94433333 L7.98583333,10.9608333 L8.82583333,11.0996667 L8.82583333,12.1088333 Z M6.923,1.8935 C7.581,1.8935 8.08383333,2.41033333 8.08383333,3.04266667 C8.08383333,3.6715 7.581,4.18833333 6.937,4.18833333 C6.279,4.18833333 5.76216667,3.6715 5.76216667,3.0555 C5.76216667,2.41033333 6.279,1.8935 6.923,1.8935 L6.923,1.8935 Z M7,0 C3.13366667,0 0,3.13833333 0,7.00233333 C0,10.8675 3.13366667,14.0023333 7,14.0023333 C10.8663333,14.0023333 14,10.8675 14,7.00233333 C14,3.13833333 10.8663333,0 7,0 L7,0 Z" id="Info-Icon-filled"></path>
    </g>
</svg>
