<svg xmlns="http://www.w3.org/2000/svg" width="185" height="33" viewBox="0 0 210 100"><path d="M14.171.533V40.49c5.114-3.943 9.803-7.355 16.622-7.355 2.237 0 6.818.537 11.293 4.584 6.607 5.965 7.139 14.383 7.139 17.154 0 4.688-1.279 8.418-1.811 10.015-3.942 10.442-12.893 17.581-24.4 17.581-4.794 0-9.375-1.6-13.85-3.196l-3.837 2.024c-.639-.319-.745-.428-.852-.959.32-4.049.746-7.991.852-12.039.213-2.771.213-5.543.32-8.205V15.131C5.54 9.697 4.901 8.845 0 6.926V5.648C5.754 3.729 8.098 2.877 13.318 0l.853.533zm-.532 65.848c.213 2.981.426 5.752 1.917 8.099 1.172 1.703 4.155 5.114 9.588 5.114 1.172 0 3.517-.106 6.288-1.602 6.392-3.304 9.163-10.438 9.269-17.365 0-2.771-.533-12.467-7.884-18.326-1.173-.854-4.688-3.411-9.164-3.411-3.623 0-6.712 2.134-10.015 4.583l.001 22.908zM60.093 46.455c-.106-3.195-.32-4.475-5.541-6.285v-1.705c6.18-2.557 7.672-3.408 13.319-6.926l.746.64v11.294c1.172-1.6 2.344-3.09 3.623-4.477.64-.852 5.114-6.072 10.442-5.965 1.278 0 6.18.532 6.18 5.219-.107 3.092-2.345 5.648-5.328 5.648-1.599 0-1.812-.746-3.197-1.598-.533-.32-1.705-.959-3.303-.959-1.492 0-4.688.531-6.819 3.941-1.705 2.664-1.705 5.436-1.705 8.418v17.365c0 .535-.425 5.647 3.197 6.819 1.386.533 4.369.642 8.204.744V81.4H51.889v-2.666c6.393-.317 8.098-1.172 8.204-7.883V46.455zM117.308 55.084v-7.882c0-1.174 0-1.813-.32-2.983-1.064-4.049-4.901-6.394-9.055-6.394-1.492 0-6.606.532-8.205 5.222-.853 2.768-.213 4.688-2.983 5.859-.746.32-2.451.746-3.197.746-1.278 0-1.811-.746-1.811-2.238 0-1.065.533-3.41 2.344-5.541 1.704-1.918 4.368-3.303 9.269-5.965l4.583-2.133c.639-.212 2.983-1.172 5.114-1.172s6.286 1.172 8.204 2.345c4.369 2.557 4.369 7.245 4.475 8.844v27.273c0 1.494 0 2.027.212 2.666.319 1.172 1.066 3.193 4.369 3.193.959 0 1.812-.211 3.624-.744l.319 1.385c-2.771 2.134-6.393 5.115-10.228 5.115-1.705 0-3.089-.852-3.623-1.172-2.451-1.705-2.877-3.836-3.411-6.713-.426.428-.958.854-1.385 1.279-1.705 1.383-7.565 6.498-15.236 6.498-.746 0-2.558-.105-4.369-.744-3.729-1.492-6.499-5.754-6.499-9.697 0-1.916.746-3.73 1.917-5.326 2.451-3.197 6.18-4.582 13.852-7.779l12.04-3.942zm0 2.559l-7.884 2.451c-3.624 1.277-7.14 2.451-9.589 5.435-.534.531-1.812 2.133-1.812 4.369 0 .426.107 1.596.64 2.771 1.278 3.088 4.688 4.897 7.992 4.897.532 0 1.704 0 2.983-.53 2.024-.854 4.155-2.666 7.671-5.757l-.001-13.636zM141.708 45.922c-.64-4.687-1.493-5.432-5.754-7.139v-1.598c7.565-2.45 9.164-3.303 13.213-5.115l1.065.428v8.311c5.541-3.623 12.146-7.777 19.285-7.777 3.623 0 7.139 1.172 9.375 4.367 2.131 3.092 2.238 6.605 2.451 10.229v26.957c.319 4.047.853 3.729 6.82 4.367v2.453h-22.589v-2.559c7.352-.64 6.712-.216 7.138-7.566V49.547c0-.641-.106-3.303-.746-5.223-1.278-3.73-4.901-5.859-8.95-5.859-4.901 0-8.949 2.662-12.785 5.113v29.09c0 3.301.32 4.578 1.812 5.22.958.426 4.581.852 5.753.959v2.45h-23.334v-2.56c1.385-.106 2.664-.211 4.049-.426 2.664-.426 3.09-1.387 3.197-5.858V45.922zM228.648 14.064c0-.32.106-1.278-.212-2.236-.854-3.091-4.262-4.156-6.818-4.902V5.114c6.818-1.599 8.523-2.13 15.021-5.114l.641.747v72.452c.213 3.62.958 3.62 2.983 3.62h4.368v2.132c-2.771.534-5.541 1.174-8.205 1.812-2.236.641-4.581 1.387-6.819 2.025l-.853-.533v-7.459c-1.064.959-2.131 1.812-3.196 2.662-1.812 1.387-6.604 5.115-13.53 5.115-4.689 0-8.417-1.918-9.696-2.77-9.163-5.541-9.802-16.408-9.802-19.498 0-4.155.745-7.993 2.557-11.616 4.263-9.057 14.171-15.557 24.399-15.557 3.836 0 5.753.641 9.162 1.813V14.064zm.321 30.26c-.426-.746-.854-1.492-1.278-2.131-1.065-2.023-3.621-5.967-10.122-5.967-1.277.105-4.049.32-6.818 1.918-3.624 2.025-9.27 7.352-9.27 17.902 0 10.119 5.114 15.555 8.416 17.898 3.623 2.557 6.605 2.875 8.418 2.875 3.622 0 8.203-1.596 9.803-5.219.531-.961.745-2.025.853-4.369l-.002-22.907z"/><g><path d="M273.345 51.889v3.41c.427 4.688.853 6.927 1.491 9.058.959 2.877 4.688 12.254 15.022 12.254 5.968 0 9.802-3.197 14.173-6.926l1.062 1.809c-3.516 4.051-5.006 5.648-7.137 7.354-1.814 1.387-6.181 4.262-12.785 4.262-7.992 0-12.68-4.155-14.491-6.287-5.435-6.18-5.861-15.979-5.861-17.896 0-3.625.96-16.623 12.041-22.804 4.796-2.557 9.269-2.877 11.296-2.877 1.702 0 6.391.106 10.334 3.196 4.797 3.73 5.858 8.525 6.18 10.442.106.427.32 2.13.32 2.665 0 .105 0 1.703-.959 2.129-.429.213-1.174.213-1.277.213l-29.409-.002zm19.178-3.09c2.345-.318 3.407-.639 3.407-3.091 0-5.218-4.152-9.696-9.479-9.696-1.279 0-3.41.215-5.969 1.813-4.262 2.558-5.541 6.499-7.031 10.974h19.072zM316.286 46.137c-.213-2.133-.428-3.836-1.918-5.221-.854-.746-1.92-1.494-3.943-2.666v-1.49c6.5-1.812 7.777-2.344 13.529-5.221l.854.64v40.595c0 .531-.533 4.262 1.919 5.326.851.319 2.771.53 5.435.852v2.346h-23.548l.104-2.346c2.77-.32 5.01-.32 5.861-.852 1.601-.854 1.707-3.195 1.707-4.795V46.137zm4.582-40.489a5.002 5.002 0 0 1 5.008 5.006c0 2.877-2.668 4.902-5.438 4.902-.958 0-1.6-.105-2.344-.639-1.704-1.066-2.665-3.517-2.133-5.648.534-2.236 2.454-3.621 4.907-3.621zM340.362 45.922c-.641-4.687-1.49-5.432-5.754-7.139v-1.598c7.564-2.45 9.164-3.303 13.215-5.115l1.062.428v8.311c5.541-3.623 12.146-7.777 19.287-7.777 3.619 0 7.138 1.172 9.373 4.367 2.131 3.092 2.24 6.605 2.453 10.229v26.957c.319 4.047.85 3.729 6.818 4.367v2.453h-22.589v-2.559c7.351-.64 6.713-.216 7.142-7.566V49.547c0-.641-.111-3.303-.748-5.223-1.283-3.73-4.901-5.859-8.949-5.859-4.904 0-8.951 2.662-12.787 5.113v29.09c0 3.301.316 4.578 1.812 5.22.958.426 4.581.852 5.751.959v2.45h-23.33v-2.56c1.387-.106 2.664-.211 4.047-.426 2.666-.426 3.094-1.387 3.197-5.858V45.922z"/></g><path d="M421.821 46.561l-1.92-.105c-.213-.959-.533-2.023-.854-2.982-.426-1.279-1.703-4.583-5.219-6.713a11.406 11.406 0 0 0-5.541-1.387c-.43 0-1.92 0-3.199.535-2.873 1.065-5.221 3.941-5.221 6.924.107 3.305 2.452 5.541 3.305 6.287 2.662 2.557 5.543 3.408 8.846 4.793 1.916.854 3.302 1.492 5.113 2.559 2.022 1.277 7.029 4.9 7.029 12.039 0 1.066-.105 3.303-1.381 5.754-1.707 3.303-6.931 8.631-16.732 8.631-5.539 0-8.735-1.385-13.316-3.942l-1.064-12.252 1.812-.425c1.383 4.687 2.983 9.48 7.565 12.037 2.664 1.492 5.004 1.601 6.07 1.601 4.584 0 6.82-2.558 7.777-4.156.324-.53 1.068-2.131 1.068-4.153 0-.322-.109-1.812-.535-3.092-1.383-3.408-4.477-4.9-7.777-6.392-1.062-.535-3.939-1.601-6.816-3.412-1.812-1.064-7.992-4.9-7.992-12.146 0-3.834 1.705-7.671 4.369-10.014 4.367-3.73 10.973-3.837 12.463-3.837 3.519 0 5.968.533 12.15 2.558v11.29z"/></svg>
