<?xml version="1.0" encoding="utf-8"?>
<!-- Generator: Adobe Illustrator 21.1.0, SVG Export Plug-In . SVG Version: 6.00 Build 0)  -->
<svg version="1.1" id="Ebene_1" xmlns="http://www.w3.org/2000/svg" xmlns:xlink="http://www.w3.org/1999/xlink" x="0px" y="0px"
	 viewBox="0 0 350 210" style="enable-background:new 0 0 350 210;" height="28" width="45" xml:space="preserve">
<style type="text/css">
	.st0{fill:#FFBB00;}
</style>
<title>Thema: D18</title>
<path class="st0" d="M50.9,166h11.8l5-37h14.5l-5,37H89l5-37h9v-10h-7.7l3.8-29H110V79h-9.5l5-35H93.8l-5,35H74.3l5-35H67.5l-5,35
	H53v11h8.1l-3.8,29H47v10h8.9L50.9,166z M72.9,90h14.5l-3.8,29H69.1L72.9,90z"/>
<path class="st0" d="M172.1,157.1c5.6-5.5,8.9-14.7,8.9-26.2V73.3c0-10-3.2-16.6-8.5-22.2S159,43.9,149,43.9h-26v122h24.5
	C158,166,166.5,162.6,172.1,157.1z M141,60h7.7c5.2,0,8.6,0.4,10.6,3c2,2.7,2.8,5.5,2.8,10.3v59.3c0,5.3-0.9,10.2-2.9,12.7
	c-2.1,2.5-5.4,4.7-10.4,4.7H141V60z"/>
<polygon class="st0" points="213,166 231,166 231,44 213.3,44 195,54.5 195,73.2 213,60.2 "/>
<path class="st0" d="M0,0v210h350V0H0z M335,195H15V15h320V195z"/>
<g>
	<path class="st0" d="M251,76.1c0-3.3,0.1-6.1,0.3-8.5c0.2-2.3,0.6-4.4,1.1-6.1c0.5-1.7,1.2-3.2,2-4.6c0.8-1.4,1.8-2.8,2.9-4.3
		c2.3-3,5.1-5.3,8.6-6.9c3.4-1.7,7.1-2.5,11.1-2.5s7.7,0.8,11.1,2.5s6.3,4,8.6,6.9c1.1,1.5,2.1,2.9,2.9,4.3c0.8,1.4,1.5,2.9,2,4.6
		s0.9,3.7,1.1,6.1c0.2,2.3,0.3,5.2,0.3,8.5c0,3.6-0.1,6.7-0.2,9.2s-0.5,4.7-1,6.7c-0.6,1.9-1.5,3.7-2.7,5.2s-2.8,3.2-4.9,4.9
		c2.1,1.6,3.7,3.2,4.9,4.8c1.2,1.6,2.1,3.5,2.7,5.6c0.6,2.2,0.9,4.8,1,8c0.1,3.1,0.2,7,0.2,11.5c0,3.8-0.1,6.9-0.3,9.3
		c-0.2,2.5-0.4,4.6-0.8,6.4c-0.3,1.8-0.8,3.4-1.5,4.6c-0.6,1.3-1.4,2.6-2.3,3.9c-1.9,3-4.7,5.5-8.2,7.6s-7.9,3.2-13,3.2
		s-9.5-1.1-13-3.2c-3.5-2.1-6.3-4.6-8.2-7.6c-0.9-1.4-1.7-2.7-2.3-3.9c-0.6-1.3-1.1-2.8-1.5-4.6c-0.3-1.8-0.6-4-0.8-6.4
		c-0.2-2.5-0.3-5.6-0.3-9.3c0-4.6,0.1-8.4,0.2-11.5c0.1-3.1,0.5-5.8,1-8c0.6-2.2,1.5-4,2.7-5.6s2.8-3.2,4.9-4.8
		c-2.1-1.7-3.7-3.3-4.9-4.9c-1.2-1.5-2.1-3.3-2.7-5.2c-0.6-1.9-0.9-4.2-1-6.7C251,82.8,251,79.7,251,76.1z M285.5,69.2
		c0-2.4-0.9-4.4-2.6-6.1c-1.7-1.7-3.7-2.5-6-2.5s-4.3,0.8-6,2.5c-1.7,1.7-2.6,3.7-2.6,6.1V87c0,2.4,0.9,4.4,2.6,6.1s3.7,2.5,6,2.5
		s4.3-0.8,6-2.5s2.6-3.7,2.6-6.1V69.2z M285.5,117.1c0-2.4-0.9-4.4-2.6-6.1s-3.7-2.5-6-2.5s-4.3,0.8-6,2.5s-2.6,3.7-2.6,6.1V141
		c0,2.4,0.9,4.4,2.6,6.1c1.7,1.7,3.7,2.5,6,2.5s4.3-0.8,6-2.5s2.6-3.7,2.6-6.1V117.1z"/>
</g>
</svg>
