<?xml version="1.0" encoding="utf-8"?>
<!-- Generator: Adobe Illustrator 15.1.0, SVG Export Plug-In . SVG Version: 6.00 Build 0)  -->
<!DOCTYPE svg PUBLIC "-//W3C//DTD SVG 1.1//EN" "http://www.w3.org/Graphics/SVG/1.1/DTD/svg11.dtd">
<svg version="1.1" id="Ebene_2" xmlns="http://www.w3.org/2000/svg" xmlns:xlink="http://www.w3.org/1999/xlink" x="0px" y="0px"
	 width="672px" height="494px" viewBox="0 0 672 494" enable-background="new 0 0 672 494" xml:space="preserve">
<title>ze.tt</title>
<g>
	<path fill="#FFFFFF" d="M578.256,329.898c-5.483,0-9.591-1.423-11.74-4.273c-2.151-2.848-3.516-7.176-3.516-12.981V196.922h31v-35
		h-31v-70h-54v70h-8.755h-6.431H461v-70h-53v70h-29v35h29v102.66c0,5.914-0.107,11.182,0.163,15.803
		c0.268,4.624,0.686,9.623,1.492,14.997c0.806,5.377,1.875,10.079,3.326,14.11s3.409,7.982,5.937,11.853
		c2.525,3.87,5.521,7.069,9.016,9.595c3.492,2.528,7.785,4.544,12.893,6.048c5.105,1.504,11.156,2.258,17.5,2.258
		c15.804,0,26.674-1.077,34.674-3.226v-42.089c-5,0.646-9.898,0.968-16.133,0.968c-5.482,0-9.896-1.423-12.046-4.273
		c-2.151-2.848-3.821-7.176-3.821-12.981V196.922h32.814h6.431H509v102.66c0,5.914,0.281,11.182,0.551,15.803
		c0.268,4.624,0.88,9.623,1.687,14.997c0.807,5.377,1.972,10.079,3.424,14.11c1.451,4.031,3.457,7.982,5.984,11.853
		c2.525,3.87,5.545,7.069,9.04,9.595c3.492,2.528,7.798,4.544,12.905,6.048c5.105,1.504,10.773,2.258,17.117,2.258
		c15.804,0,27.292-1.077,34.292-3.226v-42.089C590,329.576,584.489,329.898,578.256,329.898z"/>
	<path fill="#FFFFFF" d="M75.597,371.826v-36.768l57.892-134.49H75.597v-39.186h114.01v35.961l-58.376,135.135h58.376v39.348H75.597
		z"/>
	<path fill="#FFFFFF" d="M204.143,317.159v-89.499c0-22.36,5.322-39.804,15.965-52.329c10.643-12.523,26.875-18.787,48.7-18.787
		c21.931,0,38.191,6.236,48.781,18.706c10.588,12.472,15.884,29.941,15.884,52.409v43.54h-74.985v46.604
		c0,11.827,3.439,17.739,10.321,17.739c7.523,0,11.288-6.342,11.288-19.029v-23.06h53.376v23.705
		c0,17.524-6.344,31.796-19.028,42.814c-12.687,11.021-27.898,16.528-45.636,16.528c-17.739,0-32.953-5.535-45.636-16.609
		C210.485,348.82,204.143,334.575,204.143,317.159z M258.487,242.657h21.125v-29.026c0-10.643-3.603-15.964-10.804-15.964
		c-6.881,0-10.321,5.321-10.321,15.964V242.657z"/>
	<path fill="#FFFFFF" d="M349.102,371.826v-43.078h43.077v43.078H349.102z"/>
</g>
</svg>
