<?xml version="1.0" encoding="utf-8"?>
<svg xmlns="http://www.w3.org/2000/svg" width="30px" height="30px" viewBox="0 0 30 30"  version="1.1" xmlns="http://www.w3.org/2000/svg" xmlns:xlink="http://www.w3.org/1999/xlink">
	<title>ZEIT Arbeit</title>
<g>
	<path class="st0" d="M6.1 4.2C4.7 4.2 3.3 4 3.3 4S1.1 9.2.9 9.6c-.1.3.2.5.4.1.6-1 3.3-4.4 8.6-4.4h2.7L0 26.4h15.4s2.5-5.4 2.6-5.7-.2-.4-.3-.1c-.6 1.2-4.3 4.6-9 4.6H5.4l12.8-21H6.1zM3.5 25.1c0 .1-.2.1-.2.1h-.7c-.1 0-.1-.1-.1-.1L14.4 5.5c.1-.1.2-.1.2-.1h.7c.1 0 .1.1.1.1L3.5 25.1z"/>
	<path class="st1" d="M29.4 1.9h1v26h-1z"/>
	<path class="st0" d="M54.5 24.9l-1.4-4h-7.5l-1.3 4h-4.1l6.6-18.7h5.4l6.6 18.7h-4.3zm-7.7-7.6H52l-2.5-7.6h-.1l-2.6 7.6zM69.9 10.7l-.6 3.6h-.2c-.4-.5-1.2-1-2.1-1-1.9 0-2.6 1.6-2.6 3.9v7.6h-3.7v-15h3.1l.2 2c.6-1.3 1.6-2.3 3.3-2.3 1.1.1 2.1.6 2.6 1.2zM75.8 11.4c.8-1.2 2.4-1.9 3.9-1.9 4.2 0 6.8 3.5 6.8 7.9s-2.5 7.7-6.7 7.7c-2.1 0-3.7-1-4.5-2.3h-.1l-.4 2H72V5h3.7l.1 6.4zm-.2 6.1c0 2.5 1.4 4.3 3.7 4.3 2.4 0 3.5-2 3.5-4.3 0-2-1.2-4.4-3.5-4.4-2.4-.1-3.7 1.9-3.7 4.4zM102.5 17.4v1.1H92.2c0 1.8 1.5 3.2 3.4 3.2 1.8 0 3.5-1.2 4.1-2.3h.2l1.7 3.2c-.6.9-2.8 2.6-6 2.6-4.3 0-7.3-3-7.3-7.7 0-4.8 3.1-7.9 7.1-7.9 4 0 7.1 3.1 7.1 7.8zm-10.2-1.8h6.2c-.1-1-1.1-2.6-3.1-2.6s-2.9 1.6-3.1 2.6zM109.4 5.6c0 1.4-.9 2.4-2.4 2.4-1.6 0-2.5-1-2.5-2.4s.9-2.4 2.5-2.4c1.5 0 2.4 1 2.4 2.4zm-4.3 19.3v-15h3.7v15h-3.7zM121.6 9.9v3.5h-4.1v6.8c0 .9.3 1.2 1 1.2.6 0 1.4-.3 2-.8h.2l.9 3.7c-.7.4-2.1 1-3.7 1-2.3 0-4-1.2-4-4.1v-7.7h-2.5v-2.2c2-.8 3.2-2.8 3.9-5.1h2.3v3.7h4z"/>
</g>
</svg>
