<?xml version="1.0" encoding="utf-8"?>
<svg width="125px" height="26px" viewBox="0 0 125 26" version="1.1" xmlns="http://www.w3.org/2000/svg" xmlns:xlink="http://www.w3.org/1999/xlink">
	<title>Spektrum.de</title>
	<path fill="#FFFFFF" d="M124.9880829,15.4940014c0.0922318-2.9512386-0.27668-5.2568932-3.7812805-5.2568932
		c-3.4123611,0-3.7812729,2.1212025-3.7812729,4.7035351c0,2.8590126,0.4611359,4.887989,3.7812729,4.887989
		c1.1989441,0,2.1212082-0.3689041,2.7667923-0.9222603c0.6455765-0.5533581,0.9222565-1.3833942,1.0144882-2.3978825h-2.5823364
		c0,0.7378082-0.1844482,1.6600704-1.1067123,1.6600704c-1.1067047,0-1.1989365-1.6600704-1.1989365-2.7667856h4.8879852V15.4940014
		z M120.0078735,14.1106091c0-0.8300352,0-2.2134295,1.1989441-2.2134295s1.1989441,1.2911663,1.1989441,2.2134285
		C122.4057617,14.1106081,120.0078735,14.1106081,120.0078735,14.1106091z M115.6732407,19.7364063V6.5480604h-2.5823364v4.8879881
		l0,0c-0.5533524-0.8300352-1.1989441-1.1067142-2.1212082-1.1067142c-2.5823364,0-2.4901047,2.8590117-2.4901047,4.703536
		c0,1.9367514-0.0922241,4.8879881,2.5823364,4.8879881c1.0144882,0,1.66008-0.2766781,2.2134323-1.1989403l0,0v1.0144882
		H115.6732407z M112.076416,18.353014c-0.9222641,0-1.1067123-1.0144882-1.1067123-3.3201437
		c0-1.8445244,0-3.1356907,1.1067123-3.1356907c1.0144882,0,1.0144882,1.2911663,1.0144882,3.1356907
		C113.0909042,17.3385258,112.9986801,18.353014,112.076416,18.353014 M103.8682861,19.7364063h3.2279129v-3.5045948h-3.2279129
		V19.7364063z M88.4665146,6.1791553h-3.7812729v13.557251h3.7812729v-9.3148451
		c0-1.1989412,0.1844482-2.1212034,1.3833923-2.1212034s1.3833923,0.9222622,1.3833923,2.1212034v9.314847h3.6890488v-9.314847
		c0-1.1989412,0.1844482-2.1212034,1.3833923-2.1212034s1.3833923,0.9222622,1.3833923,2.1212034v9.314847h3.7812729V8.8537159
		c0-1.8445244-1.5678406-2.9512386-3.4123688-2.9512386c-1.5678406,0-2.6745605,0.5533571-3.5046005,1.7522974
		c-0.6455765-1.1067142-1.6600723-1.7522979-3.0434647-1.7522979s-2.3978806,0.4611311-3.2279205,1.6600714H88.189827V6.1791553
		H88.4665146z M78.3216324,19.7364063h3.9657288c-0.0922241-0.9222622-0.0922241-1.8445244-0.0922241-2.6745586V6.1791553
		h-3.7812729v9.4070721c0,1.1989403-0.1844559,2.1212025-1.3833923,2.1212025c-1.1989441,0-1.3834-0.9222622-1.3834-2.1212025
		V6.1791553H71.865799v10.8826923c0,1.8445244,1.5678482,2.9512386,3.4123688,2.9512386
		c1.3833923,0,2.4901047-0.4611301,3.2279205-1.6600704h0.0922241v1.3833904H78.3216324z M62.7354012,6.1791553v13.557251h3.7812691
		v-7.3780956c0-1.3833933,0.0922241-3.3201437,3.4123688-3.0434647V5.9024768c-1.5678406,0-2.8590088,0.4611311-3.5046005,2.0289769
		h-0.0922241V6.1791553H62.7354012z M53.6972313,8.4848108h1.5678482v8.3925829c0,0.8300362,0.461132,3.0434647,3.6890488,3.0434647
		c0.9222603,0,1.4756165-0.092226,1.9367485-0.092226v-2.3056564c-0.1844521,0.0922279-0.461132,0.0922279-0.6455803,0.0922279
		c-1.1989441,0-1.1989441-0.6455841-1.1989441-1.6600714V8.4848108h1.9367485V6.1791553h-1.9367485V2.305655l-3.7812729,1.6600718
		v2.1212029h-1.5678482V8.4848108z M44.9357452,19.7364063v-7.3780956h0.0922241l3.5045929,7.3780956h4.2424049
		l-4.2424049-7.5625477l3.8735008-6.0869293h-3.9657249l-3.4123688,5.7180233h-0.0922241V0.2766786h-3.7812729v19.4597282
		H44.9357452z M38.8488121,13.557251c0.0922241-4.334631-0.461132-7.6547747-5.5335732-7.6547747
		c-4.9802132,0-5.5335712,3.1356907-5.5335712,6.9169655c0,4.2424059,0.6455841,7.1936445,5.5335712,7.1936445
		c1.7523003,0,3.1356926-0.4611301,3.9657288-1.2911663c0.9222603-0.8300362,1.3833923-2.0289764,1.4756165-3.5045948h-3.8735008
		c0,1.1067142-0.27668,2.3978806-1.5678482,2.3978806c-1.6600685,0-1.7522984-2.3978806-1.7522984-4.0579519
		C31.5629368,13.5572538,38.8488121,13.5572538,38.8488121,13.557251z M31.5629444,11.4360485
		c0-1.1989403,0-3.2279167,1.7522984-3.2279167c1.8445244,0,1.7523003,1.8445234,1.7523003,3.2279167H31.5629444z
		 M14.9622278,6.1791553v19.4597282h3.7812757V18.44524h0.092226c0.7378082,1.1067162,1.7522964,1.5678463,3.1356907,1.5678463
		c3.7812748,0,3.6890469-4.2424059,3.6890469-7.0091915s0.0922279-7.193644-3.7812748-7.193644
		c-1.4756184,0-2.4901066,0.4611311-3.2279167,1.7522974h-0.092226V6.1791553H14.9622278z M20.311348,17.7074318
		c-1.2911682,0-1.5678463-1.3833942-1.5678463-4.795763c0-2.6745605,0-4.61131,1.5678463-4.61131
		c1.6600704,0,1.5678444,1.8445244,1.5678444,4.61131C21.8791924,16.2318115,21.6947403,17.7074318,20.311348,17.7074318
		 M12.5643463,14.4795132c0-6.0869284-8.2081318-5.8102503-8.2081318-9.4992981c0-1.383393,0.7378097-2.0289764,2.1212029-2.0289764
		c1.6600714,0,1.8445244,1.4756193,1.8445244,2.9512382h3.9657259C12.5643463,1.7522978,10.6275959,0,6.661869,0
		C1.7738806,0,0.2982615,2.397881,0.2982615,5.4413462c0,5.8102512,8.2081318,5.9947023,8.2081318,9.499299
		c0,1.2911663-0.6455836,2.2134285-2.0289764,2.2134285c-2.213429,0-2.305655-1.5678463-2.305655-3.4123688H0.0215829
		c-0.1844524,3.3201427,0.7378097,6.3636074,5.7180243,6.3636074C8.8752985,20.0130863,12.5643463,19.4597282,12.5643463,14.4795132
		"/>
</svg>
