<?xml version="1.0" encoding="utf-8"?>
<svg width="31px" height="18px" viewBox="0 0 31 18" version="1.1" xmlns="http://www.w3.org/2000/svg" xmlns:xlink="http://www.w3.org/1999/xlink">
<g>
<title>ZEITMagazin</title>
	<path fill="#FFFFFF" d="M5.246,13.986H5.177c-0.046,0-0.046-0.023-0.023-0.07l5.739-9.84c0.023-0.046,0.069-0.069,0.115-0.069H11.1
		c0.046,0,0.046,0.023,0.022,0.069l-5.761,9.84C5.338,13.939,5.292,13.986,5.246,13.986 M12.367,11.635
		c-0.323,0.6-2.12,2.259-4.471,2.259h-1.59l6.314-10.347H6.467C5.753,3.546,5.085,3.5,5.085,3.5S3.956,6.012,3.863,6.219
		C3.794,6.38,3.956,6.45,4.047,6.289c0.3-0.507,1.614-2.144,4.264-2.144h1.543L3.633,14.492h7.605c0,0,1.221-2.65,1.268-2.788
		C12.574,11.566,12.437,11.521,12.367,11.635 M25.042,13.916c0,0.047-0.023,0.07-0.068,0.07h-0.093c-0.047,0-0.069-0.023-0.069-0.07
		v-9.84c0-0.046,0.022-0.069,0.069-0.069h0.093c0.045,0,0.068,0.023,0.068,0.069V13.916z M20.296,12.857l-0.047,0.114
		c-0.023,0.046-0.047,0.023-0.07-0.023l-3.848-8.872c-0.023-0.046,0-0.069,0.046-0.069h0.092c0.046,0,0.069,0.023,0.092,0.092
		l3.758,8.642C20.319,12.788,20.319,12.811,20.296,12.857z M20.386,12.672l-0.067-0.184L20.386,12.672z M27.209,14.354
		c-0.507,0-1.084-0.3-1.084-1.153V4.906c0-0.807,0.738-1.083,1.015-1.083c0.092,0,0.114-0.254,0-0.254h-3.133l-3.227,8.043
		c0,0-3.573-7.882-3.665-8.112c0,0-0.738,0.069-1.222,0.069h-1.89c-0.115,0-0.092,0.254,0,0.254c0.277,0,1.13,0.322,1.13,1.175
		v7.076c0,1.89-0.53,2.305-1.222,2.305c-0.092,0-0.138,0.276,0,0.276h3.273c0.138,0,0.092-0.276,0-0.276
		c-0.761,0-1.291-0.415-1.291-2.305V6.058L20.111,15l3.917-9.772v7.973c0,0.854-0.415,1.153-1.015,1.153
		c-0.091,0-0.138,0.277,0,0.277h4.195C27.348,14.632,27.301,14.354,27.209,14.354z"/>
</g>
</svg>
