<?xml version="1.0" encoding="utf-8"?>
<svg width="136px" height="28px" viewBox="0 0 136 28" version="1.1" xmlns="http://www.w3.org/2000/svg" xmlns:xlink="http://www.w3.org/1999/xlink">
	<title>Spektrum.de</title>
<g>
	<path fill="#FFFFFF" d="M135.5,16.8c0.1-3.2-0.3-5.7-4.1-5.7c-3.7,0-4.1,2.3-4.1,5.1c0,3.1,0.5,5.3,4.1,5.3c1.3,0,2.3-0.4,3-1
		c0.7-0.6,1-1.5,1.1-2.6h-2.8c0,0.8-0.2,1.8-1.2,1.8c-1.2,0-1.3-1.8-1.3-3H135.5z M130.1,15.3c0-0.9,0-2.4,1.3-2.4
		c1.3,0,1.3,1.4,1.3,2.4H130.1z M125.4,21.4V7.1h-2.8v5.3h0c-0.6-0.9-1.3-1.2-2.3-1.2c-2.8,0-2.7,3.1-2.7,5.1c0,2.1-0.1,5.3,2.8,5.3
		c1.1,0,1.8-0.3,2.4-1.3h0v1.1H125.4z M121.5,19.9c-1,0-1.2-1.1-1.2-3.6c0-2,0-3.4,1.2-3.4c1.1,0,1.1,1.4,1.1,3.4
		C122.6,18.8,122.5,19.9,121.5,19.9 M112.6,21.4h3.5v-3.8h-3.5V21.4z M95.9,6.7h-4.1v14.7h4.1V11.3c0-1.3,0.2-2.3,1.5-2.3
		c1.3,0,1.5,1,1.5,2.3v10.1h4V11.3c0-1.3,0.2-2.3,1.5-2.3c1.3,0,1.5,1,1.5,2.3v10.1h4.1V9.6c0-2-1.7-3.2-3.7-3.2
		c-1.7,0-2.9,0.6-3.8,1.9c-0.7-1.2-1.8-1.9-3.3-1.9c-1.5,0-2.6,0.5-3.5,1.8h-0.1V6.7z M84.9,21.4h4.3c-0.1-1-0.1-2-0.1-2.9V6.7h-4.1
		v10.2c0,1.3-0.2,2.3-1.5,2.3c-1.3,0-1.5-1-1.5-2.3V6.7h-4.1v11.8c0,2,1.7,3.2,3.7,3.2c1.5,0,2.7-0.5,3.5-1.8h0.1V21.4z M68,6.7
		v14.7h4.1v-8c0-1.5,0.1-3.6,3.7-3.3V6.4c-1.7,0-3.1,0.5-3.8,2.2h-0.1V6.7H68z M58.2,9.2h1.7v9.1c0,0.9,0.5,3.3,4,3.3
		c1,0,1.6-0.1,2.1-0.1v-2.5c-0.2,0.1-0.5,0.1-0.7,0.1c-1.3,0-1.3-0.7-1.3-1.8V9.2h2.1V6.7H64V2.5l-4.1,1.8v2.3h-1.7V9.2z M48.7,21.4
		v-8h0.1l3.8,8h4.6l-4.6-8.2l4.2-6.6h-4.3l-3.7,6.2h-0.1V0.3h-4.1v21.1H48.7z M42.1,14.7c0.1-4.7-0.5-8.3-6-8.3c-5.4,0-6,3.4-6,7.5
		c0,4.6,0.7,7.8,6,7.8c1.9,0,3.4-0.5,4.3-1.4c1-0.9,1.5-2.2,1.6-3.8h-4.2c0,1.2-0.3,2.6-1.7,2.6c-1.8,0-1.9-2.6-1.9-4.4H42.1z
		 M34.2,12.4c0-1.3,0-3.5,1.9-3.5c2,0,1.9,2,1.9,3.5H34.2z M16.2,6.7v21.1h4.1V20h0.1c0.8,1.2,1.9,1.7,3.4,1.7c4.1,0,4-4.6,4-7.6
		c0-3,0.1-7.8-4.1-7.8c-1.6,0-2.7,0.5-3.5,1.9h-0.1V6.7H16.2z M22,19.2c-1.4,0-1.7-1.5-1.7-5.2c0-2.9,0-5,1.7-5c1.8,0,1.7,2,1.7,5
		C23.7,17.6,23.5,19.2,22,19.2 M13.6,15.7c0-6.6-8.9-6.3-8.9-10.3c0-1.5,0.8-2.2,2.3-2.2c1.8,0,2,1.6,2,3.2h4.3
		C13.6,1.9,11.5,0,7.2,0C1.9,0,0.3,2.6,0.3,5.9c0,6.3,8.9,6.5,8.9,10.3c0,1.4-0.7,2.4-2.2,2.4c-2.4,0-2.5-1.7-2.5-3.7H0
		c-0.2,3.6,0.8,6.9,6.2,6.9C9.6,21.7,13.6,21.1,13.6,15.7"/>
</g>
</svg>
