<?xml version="1.0" encoding="UTF-8" ?>
<!DOCTYPE svg PUBLIC "-//W3C//DTD SVG 1.1//EN" "http://www.w3.org/Graphics/SVG/1.1/DTD/svg11.dtd">
<svg version="1.1" id="Ebene_2" xmlns="http://www.w3.org/2000/svg" xmlns:xlink="http://www.w3.org/1999/xlink" x="0px" y="0px" width="40px" height="24px" viewBox="0 0 40 24" >
<title>ze.tt</title>
<g transform="translate(4.365079, 2.736842)">
    <path d="M29.2900317,14.1855762 C28.9709153,14.1855762 28.7318254,14.1010796 28.6067513,13.9318489 C28.4815608,13.7627368 28.4021164,13.5057436 28.4021164,13.1610472 L28.4021164,6.28956545 L30.2063492,6.28956545 L30.2063492,4.21129285 L28.4021164,4.21129285 L28.4021164,0.0547476383 L25.2592593,0.0547476383 L25.2592593,4.21129285 L24.749709,4.21129285 L24.375418,4.21129285 L22.4656085,4.21129285 L22.4656085,0.0547476383 L19.3809524,0.0547476383 L19.3809524,4.21129285 L17.6931217,4.21129285 L17.6931217,6.28956545 L19.3809524,6.28956545 L19.3809524,12.3854359 C19.3809524,12.7366046 19.3747249,13.0494143 19.3904392,13.3238057 C19.406037,13.5983752 19.4303651,13.8952119 19.4772751,14.2143158 C19.5241852,14.5335978 19.5864021,14.8127989 19.6708519,15.0521565 C19.7553016,15.2915142 19.8692593,15.5261215 20.0163915,15.7559784 C20.1633492,15.985776 20.3377196,16.1757301 20.5411323,16.325722 C20.7443704,16.4758327 20.9942275,16.5955412 21.2915185,16.6848475 C21.5886349,16.7741538 21.9408095,16.8189258 22.310037,16.8189258 C23.2298466,16.8189258 23.8624921,16.7549744 24.3281005,16.6273684 L24.3281005,14.1281565 C24.0370952,14.1665155 23.7520265,14.1856356 23.3891429,14.1856356 C23.0700847,14.1856356 22.8131852,14.101139 22.6880529,13.9319082 C22.5628624,13.7627962 22.4656667,13.505803 22.4656667,13.1611066 L22.4656667,6.28956545 L24.3754762,6.28956545 L24.7497672,6.28956545 L25.2592593,6.28956545 L25.2592593,12.3854359 C25.2592593,12.7366046 25.2756138,13.0494143 25.291328,13.3238057 C25.3069259,13.5983752 25.342545,13.8952119 25.3895132,14.2143158 C25.4364815,14.5335978 25.5042857,14.8127989 25.5887937,15.0521565 C25.6732434,15.2915142 25.7899947,15.5261215 25.9370688,15.7559784 C26.0840265,15.985776 26.2597937,16.1757301 26.4632063,16.325722 C26.6664444,16.4758327 26.9170582,16.5955412 27.214291,16.6848475 C27.5114074,16.7741538 27.841291,16.8189258 28.2105185,16.8189258 C29.130328,16.8189258 29.7989418,16.7549744 30.2063492,16.6273684 L30.2063492,14.1281565 C29.973545,14.1664561 29.6527989,14.1855762 29.2900317,14.1855762 L29.2900317,14.1855762 Z" id="Shape"></path>
    <path d="M0.0347460317,16.6752281 L0.0347460317,14.491973 L3.40412169,6.50606208 L0.0347460317,6.50606208 L0.0347460317,4.17922807 L6.67024868,4.17922807 L6.67024868,6.3145641 L3.2727037,14.3387746 L6.67024868,14.3387746 L6.67024868,16.6752281 L0.0347460317,16.6752281 L0.0347460317,16.6752281 Z" id="Shape"></path>
    <path d="M7.51625926,13.4291444 L7.51625926,8.11476383 C7.51625926,6.78704453 7.82600529,5.75123347 8.44543915,5.00750877 C9.06487302,4.26390283 10.0095926,3.89195142 11.2798307,3.89195142 C12.5562381,3.89195142 13.5025873,4.26224022 14.1189365,5.00269906 C14.7351693,5.74327665 15.0434021,6.7805722 15.0434021,8.11470445 L15.0434021,10.7000756 L10.6791958,10.7000756 L10.6791958,13.4673846 C10.6791958,14.1696626 10.8793492,14.5207126 11.2798889,14.5207126 C11.7177354,14.5207126 11.9368624,14.1441296 11.9368624,13.3907854 L11.9368624,12.0215007 L15.0434021,12.0215007 L15.0434021,13.429085 C15.0434021,14.4696464 14.6741746,15.3171066 13.9359524,15.9713468 C13.1975556,16.6257652 12.3122593,16.9527665 11.2798889,16.9527665 C10.2474603,16.9527665 9.36198942,16.6241026 8.6238254,15.9665371 C7.88537037,15.3091498 7.51625926,14.4632928 7.51625926,13.4291444 L7.51625926,13.4291444 Z M10.6791376,9.00527395 L11.9086349,9.00527395 L11.9086349,7.28173279 C11.9086349,6.64975978 11.6989365,6.33380297 11.2798307,6.33380297 C10.8793492,6.33380297 10.6791376,6.64975978 10.6791376,7.28173279 L10.6791376,9.00527395 L10.6791376,9.00527395 Z" id="Shape"></path>
    <path d="M15.9530265,16.6752281 L15.9530265,14.1172901 L18.4601534,14.1172901 L18.4601534,16.6752281 L15.9530265,16.6752281 L15.9530265,16.6752281 Z" id="Shape"></path>
</g>
</svg>