<?xml version="1.0" encoding="utf-8"?>
<svg  width="185px" height="33px" viewBox="0 0 185 33" version="1.1" xmlns="http://www.w3.org/2000/svg" xmlns:xlink="http://www.w3.org/1999/xlink">
<title>ZEIT Campus</title>
<g fill="#ffffff">
	<path d="M42.5,21.5h0.4V2.3h-0.4V21.5z M38.7,1.1c2,0,8,0,8,0c0.1,0,0.3,0.3,0.1,0.5c-0.5,0.3-1.1,0.2-1.5,0.7
		c-0.3,0.4-0.4,1-0.4,1.4c0,0.2,0,0.5,0,0.7c0,1.5,0,3,0,4.5c0,3.5,0,7,0,10.5c0,0.3,0,0.5,0,0.8c0,0.5,0.1,1.1,0.6,1.4
		c0.3,0.2,1.7,0.4,1.4,0.9c-0.1,0.2-1.6,0.1-1.9,0.1c-1,0-2.1,0-3.1,0c-0.8,0-1.5,0-2.3,0c-0.3,0-1,0.2-0.8-0.4
		c0.1-0.3,0.5-0.2,0.8-0.3c0.4-0.2,0.8-0.4,1-0.8c0.4-0.7,0.2-1.6,0.2-2.3c0-0.8,0-1.6,0-2.4c0-2.8,0-5.5,0-8.3c0-1.3,0-2.6,0-4
		c0-0.7,0-1.5-0.6-2C39.8,2,38.1,1.7,38.7,1.1L38.7,1.1z"/>
	<path d="M22.9,2.3v19.2h0.4l0-19.2H22.9L22.9,2.3z M33.7,1.1c0.8,0,1.4,2.8,1.7,3.5C35.5,4.9,36.9,7,36.1,7c-0.5-0.2-1-1.1-1.4-1.5
		C33.9,4.7,33,4,32,3.4c-2.1-1.1-4.5-1.2-6.8-1.1c0,0,0,8.8,0,8.8c1.1,0,2.2,0,3.3,0c0.7,0,1.4-0.1,2.1-0.4c0.6-0.2,1.1-0.6,1.6-1
		c0.2-0.2,1-1.3,1.3-1.1c0.3,0.3-0.8,2.2-1,2.6c-0.4,0.8,0,1.2,0.3,2c0.1,0.3,1.2,2.1,0.3,1.8c-0.3-0.1-0.6-0.7-0.8-0.9
		c-0.3-0.4-0.7-0.7-1.2-0.9c-1.8-1-4.1-0.7-6.1-0.7c0,3,0,6.1,0,9.1c1.7,0,3.3,0.1,5-0.2c2.8-0.5,4.7-2.2,6.5-4.4
		c0.6,0.1,0,1-0.1,1.4c-0.4,0.9-0.7,1.7-1.1,2.6c-0.2,0.5-0.4,1.5-0.8,1.9c-0.2,0.2-1.3,0-1.7,0c-0.7,0-1.3-0.1-1.9-0.1
		c-2.3,0-4.7,0-7,0c-0.4,0-4.8,0.2-4.9-0.1c-0.2-0.5,1-0.6,1.3-0.8c0.6-0.4,0.6-1,0.7-1.6c0-1,0-2,0-3c0-2.3,0-4.6,0-6.9
		c0-1.7,0-3.5,0-5.2c0-0.5,0-1.1,0-1.6c-0.1-0.5-0.2-1-0.6-1.3c-0.2-0.2-1.3-0.3-1.4-0.6c-0.2-0.6,0.7-0.5,1.1-0.5
		c0.4,0,0.8,0,1.2,0c1.6,0,3.1,0,4.7,0C28.5,1.1,31.2,1.4,33.7,1.1z"/>
	<path d="M14,2.3L3,21.5c0.8,0.1,1-1,1.4-1.6c0.9-1.5,1.8-3,2.6-4.6c2-3.5,4.1-7,6.1-10.5c0.5-0.8,1-1.7,1.5-2.5H14L14,2.3z
		 M3.2,1.1c4.7,0.2,9.4,0.1,14.1,0.1c0,0-11.7,20.3-11.7,20.4c1.5,0,3.1,0.1,4.7-0.1c1.4-0.1,2.9-0.7,4-1.5c0.8-0.5,1.4-1.1,2-1.8
		c0.2-0.2,1-1.6,1.3-1.2c0.2,0.2-0.3,1-0.4,1.2c-0.3,0.8-0.7,1.6-1,2.5c-0.2,0.6-0.5,1.5-0.9,2c-0.4,0.5-1.2,0.2-1.9,0.2
		c-3.1,0-6.3,0-9.4,0c-0.2,0-3.8,0-3.8,0C0.3,22.7,12,2.3,12,2.3c-2.1,0-4.4,0-6.4,0.7C4.6,3.4,3.7,4,3,4.7C2.6,5.1,1.4,7.1,1,6.9
		C0.7,6.8,2.9,1.6,3.2,1.1z"/>
	<path d="M56.3,2.3v19.2l0.4,0l0-19.2H56.3L56.3,2.3z M49.8,1.1c4,0.1,8,0.2,12,0.1c0.3,0,1.1-0.2,1.4-0.1c0.3,0.1,0.5,1.2,0.6,1.4
		c0.4,0.9,0.7,1.7,1.1,2.5c0.2,0.4,0.4,0.8,0.6,1.2c0,0,0.3,1-0.2,0.6c-1.1-1-1.9-2.2-3.1-3.2c-1.1-0.8-2.3-1.3-3.7-1.3
		c0,3.9,0,7.9,0,11.8c0,1.9-0.1,3.9,0,5.8c0,0.7,0,1.4,0.6,1.8c0.4,0.3,1.6,0.3,1.4,0.9c-0.3,0.2-1.3,0-1.7,0c-0.8,0-1.7,0-2.5,0
		c-0.2,0-3.9,0.2-3.9-0.1c-0.3-0.6,0.9-0.6,1.2-0.8c0.6-0.3,0.7-1,0.7-1.6c0-0.5,0-1,0-1.4c0-1.1,0-2.2,0-3.3c0-3.5,0-6.9,0-10.4
		c0-0.9,0-1.8,0-2.7c-1.5,0-2.8,0.6-3.9,1.5C50,4.3,49.4,4.8,49,5.3c-0.2,0.3-1.1,1.7-1.5,1.5c-0.4-0.2,0.8-2.1,0.9-2.4
		C48.9,3.3,49.3,2.2,49.8,1.1z"/>
	<path d="M88.8,3.3c1.1-1.4-2.1-2.4-3-2.6c-1.8-0.5-3.6-0.6-5.4-0.3c-2.9,0.5-5.5,2.2-7.2,4.6c-3.4,4.8-2.7,12.3,2,16.1
		c2.3,1.9,5.4,2.6,8.3,2.4c1.9-0.1,3.9-0.5,5.7-1.3c0.7-0.3,1.6-0.7,2.1-1.3c0.4-0.4,0.6-1.1-0.2-1.1c-0.4,0-0.9,0.4-1.3,0.5
		c-0.4,0.2-0.9,0.3-1.3,0.5c-0.9,0.3-1.8,0.4-2.8,0.5c-1.8,0.1-3.7-0.1-5.3-1c-3.3-1.8-4.6-5.6-4.5-9.2C76,7.4,77.7,2.8,82,2.6
		c1-0.1,1.9,0.2,2.8,0.7c0.7,0.4,1.3,1.2,2.1,1.5C87.8,5.1,88.3,4,88.8,3.3"/>
	<path d="M98.2,16.1c0,1.8-0.1,3.6-1.8,4.6c-1.8,1.1-3.6-0.1-4-2c-0.4-1.7,0.1-3.8,1.9-4.3c1.1-0.3,2.2,0,3.2,0.3
		c0.5,0.2,0.6,0.2,0.7,0.6C98.2,15.5,98.2,15.8,98.2,16.1C98.2,16.1,98.2,16.1,98.2,16.1z M107,20.4c0-1.1-1.7,0-2,0.2
		c-0.6,0.3-1.4,0.4-1.9-0.2c-0.5-0.7-0.4-2-0.4-2.9c0-2.2,0.1-4.4,0-6.5c-0.1-1.5-0.3-3.2-1.4-4.4C100.3,5.3,98.7,5,97.1,5
		c-2.2,0-4.5,0.8-6.4,2.1c-0.5,0.3-1.5,1-1.5,1.7c0.1,1.3,2,0.1,2.5-0.1c1.6-0.7,3.9-1.3,5.5-0.1c1.2,0.9,0.9,2.7,0.9,4.1
		c-2.5-0.9-5.3-1.1-7.7,0.3c-2,1.1-3.3,3.3-3.1,5.6c0.1,2.3,1.5,4.3,3.7,5c2.6,0.9,5.5-0.2,7.3-2.1c0.6,1.8,2.2,2.7,4.1,2.3
		c1-0.2,2-0.7,2.8-1.4C105.9,22,107,21.2,107,20.4z"/>
	<path d="M106.3,21.8c0,1.1,0.2,1.5,1.3,1.6c0.8,0,1.6,0.1,2.3,0c1.4-0.2,1-2.5,1-3.5c0-1.7,0-3.4,0-5.1c0-2,0-4.5,2-5.6
		c1.1-0.6,2.5-0.4,2.9,0.9c0.2,0.6,0.1,1.2,0.1,1.8c0,1.6,0,3.2,0,4.8c0,1.6,0,3.2,0,4.8c0,0.5-0.1,1.1,0.1,1.6
		c0.3,0.6,1.4,0.4,2,0.4c0.6,0,1.7,0.2,2.2-0.3c0.4-0.4,0.3-1.1,0.3-1.7c0-1.7,0-3.4,0-5.1c0-1.6-0.2-3.3,0.2-4.8
		c0.3-1.3,1.2-2.4,2.6-2.7c1.3-0.3,2.3,0.6,2.5,1.9c0.3,2.8,0,5.7,0,8.6c0,1,0,2,0.5,2.9c0.8,1.2,2.2,1.7,3.6,1.5
		c1.5-0.2,2.9-1.2,4-2.2c0.3-0.3,0.9-0.8,0.6-1.3c-0.4-0.6-1.2,0.1-1.6,0.3c-0.9,0.5-2.1,0.6-2.4-0.6c-0.2-0.6-0.1-1.2-0.1-1.9
		c0-1.8,0-3.5,0-5.3c0-1.4,0.2-3-0.2-4.4c-0.7-2.9-4-4-6.6-2.8c-1.3,0.6-2.4,1.8-3.2,3C120,6.4,118.1,5,116,5c-2.2,0-3.8,1.5-5,3.2
		c0.1-0.7,0.8-2.5,0.1-3c-0.9-0.7-2,1-2.5,1.5c-0.5,0.5-1,0.9-1.5,1.4c-0.5,0.4-1.2,0.7-1.7,1.2c-1,1,0.6,1.1,0.9,1.8
		c0.3,0.6,0.1,2,0.1,2.7c0,1.6,0,3.2,0,4.8C106.3,19.7,106.3,20.7,106.3,21.8"/>
	<path d="M134,30.6c0,1.3,0.4,1.8,1.6,1.4c0.7-0.2,2-0.5,2.5-1c0.7-0.7,0.4-2.9,0.4-3.9c0-4.2,0-8.5,0-12.7c0-1.6-0.2-3.4,0.7-4.8
		c0.8-1.3,2.5-1.9,3.9-1.3c1.2,0.5,1.9,1.8,2.3,3c0.5,1.8,0.5,3.8,0.1,5.7c-0.2,1.3-0.7,2.8-1.9,3.6c-0.4,0.3-0.9,0.4-1.4,0.4
		c-0.8,0-1.4-0.8-2.2-0.8c-0.7,0.1-1,0.9-0.9,1.5c0.1,0.6,0.6,1,1.1,1.3c1.8,1.1,4.2,1,6.2,0.8c2.2-0.3,4.4-0.9,6.3-2.2
		c0.6-0.4,1.2-0.9,1.2-1.7c0-0.9-0.5-0.3-1,0c-1.8,1.3-3.9,1.9-6.1,2.1c3.9-3,4.9-9.2,2.5-13.4c-2.4-4.2-8.1-4.7-11-0.8
		c0.1-0.6,0.4-1.3,0.4-1.9c-0.1-1-1-1-1.6-0.5c-0.7,0.6-1.2,1.3-1.8,1.9c-0.6,0.6-1.3,1.1-2,1.6c-0.5,0.4-0.9,0.7-0.6,1.3
		c0.3,0.5,0.9,0.5,1.1,1c0.2,0.5,0.1,1.2,0.1,1.8c0,4.3,0,8.7,0,13C134,27.6,134,29.1,134,30.6"/>
	<path d="M168.5,9.4c0-1,0.1-1.9,0.3-2.9c0.1-0.8-0.1-1.7-1.1-1.3c-0.6,0.3-1.1,1-1.6,1.5c-0.4,0.4-0.8,0.8-1.3,1.2
		c-0.8,0.7-3.1,1.8-1.5,2.8c0.8,0.5,0.6,1.5,0.6,2.3c0,2.4,0.2,6.1-2.8,6.9c-2.6,0.7-2.7-2.1-2.7-3.9c0-1.7,0-3.5,0-5.2
		c0-1.5,0.1-3,0.3-4.5c0.1-0.6,0-1.2-0.8-1.2c-0.5,0-0.9,0.6-1.2,0.9c-0.6,0.6-1.2,1.2-1.9,1.8c-0.6,0.5-1.5,1-2,1.6
		c-0.9,1,0.6,1.1,0.9,1.7c0.2,0.5,0.1,1.5,0.1,2c0,1,0,2.1,0,3.1c0,2.1-0.3,4.4,1.3,6.1c1.2,1.2,3,1.6,4.7,1.2
		c1.8-0.4,3.2-1.9,4.2-3.4c0.3,2.6,2.2,4,4.8,3.3c1.3-0.4,2.8-1.4,3.6-2.4c0.3-0.3,0.6-0.9,0.1-1.2c-0.5-0.3-1.3,0.5-1.7,0.7
		c-0.7,0.3-1.7,0.3-2.1-0.5c-0.2-0.5-0.2-1.1-0.2-1.7c0-1.6,0-3.2,0-4.7C168.5,12.2,168.5,10.8,168.5,9.4"/>
	<path d="M182.9,21.8c2.3-2.5,3.1-7-0.2-9.1c-1.2-0.8-2.7-1.1-4-1.5c-0.9-0.3-2-0.5-2.8-1c-1.6-1.1-0.7-3,0.9-3.3
		c2-0.4,3.1,1.1,4.2,2.4c0.8,1,2-0.3,2.5-1.1c0.9-1.4-0.9-2.2-2.1-2.6c-3.1-1-7.4-1-9.6,1.8c-0.9,1.2-1.2,2.8-0.8,4.2
		c0.4,1.6,1.6,2.5,3.1,3.1c1.7,0.7,3.6,0.9,5.3,1.7c0.8,0.4,1.7,0.8,1.9,1.7c0.4,1.2-0.3,2.5-1.4,3.1c-1.4,0.8-3.1,0.5-4.5-0.2
		c-1-0.5-1.9-1.2-2.8-2c-0.5-0.4-1.2-1.1-1.9-0.6c-1.1,0.9,0.4,3.6,1.2,4.2c1.5,1.2,3.8,1.4,5.7,1.3
		C179.7,23.8,181.5,23.2,182.9,21.8"/>
</g>
</svg>
