<?xml version="1.0" encoding="utf-8"?>
<svg version="1.1" id="Brand Eins" xmlns="http://www.w3.org/2000/svg" xmlns:xlink="http://www.w3.org/1999/xlink" x="0px" y="0px" viewBox="0 0 71.5 14" xml:space="preserve">
<title>Brand Eins</title>
<g>
	<path class="st0" d="M7.1,6.4C6.3,5.7,5.6,5.6,5.2,5.6C4,5.6,3.2,6.2,2.4,6.8V0.1L2.2,0C1.4,0.5,1,0.6,0,1v0.2
		c0.8,0.3,0.9,0.5,1,1.4v7.6c0,0.4,0,0.9-0.1,1.4c0,0.7-0.1,1.3-0.1,2c0,0.1,0,0.1,0.1,0.2l0.6-0.3c0.8,0.3,1.5,0.5,2.3,0.5
		c1.9,0,3.4-1.2,4.1-3c0.1-0.3,0.3-0.9,0.3-1.7C8.3,8.8,8.2,7.4,7.1,6.4z M5.3,13.1c-0.5,0.3-0.9,0.3-1.1,0.3
		c-0.9,0-1.4-0.6-1.6-0.9c-0.3-0.4-0.3-0.9-0.3-1.4h0V7.3C2.9,6.9,3.4,6.6,4,6.6c0.8,0,1.3,0.4,1.5,0.6c1.2,1,1.3,2.6,1.3,3.1
		C6.8,11.4,6.4,12.6,5.3,13.1z"/>
	<path class="st0" d="M13.9,5.6c-0.9,0-1.7,0.9-1.8,1c-0.2,0.2-0.4,0.5-0.6,0.8V5.4l-0.1-0.1c-1,0.6-1.2,0.7-2.2,1.2v0.3
		c0.9,0.3,0.9,0.5,0.9,1.1v4.1c0,1.1-0.3,1.3-1.4,1.3v0.4h4.7v-0.5c-0.6,0-1.1,0-1.4-0.1c-0.6-0.2-0.5-1.1-0.5-1.1V9
		c0-0.5,0-1,0.3-1.4C12.2,7.1,12.7,7,13,7c0.3,0,0.5,0.1,0.6,0.2c0.2,0.1,0.3,0.3,0.5,0.3c0.5,0,0.9-0.4,0.9-1
		C15,5.7,14.1,5.6,13.9,5.6z"/>
	<path class="st0" d="M22,13c-0.6,0-0.7-0.3-0.7-0.5c0-0.1,0-0.2,0-0.4V7.4c0-0.3,0-1.1-0.8-1.5c-0.3-0.2-1-0.4-1.4-0.4
		s-0.8,0.2-0.9,0.2L17.4,6c-0.8,0.4-1.3,0.7-1.6,1c-0.3,0.4-0.4,0.8-0.4,0.9c0,0.3,0.1,0.4,0.3,0.4c0.1,0,0.4-0.1,0.5-0.1
		c0.5-0.2,0.4-0.5,0.5-1c0.3-0.8,1.1-0.9,1.4-0.9c0.7,0,1.3,0.4,1.5,1.1c0.1,0.2,0.1,0.3,0.1,0.5v1.3l-2,0.7
		c-1.3,0.5-1.9,0.8-2.3,1.3c-0.2,0.3-0.3,0.6-0.3,0.9c0,0.7,0.5,1.4,1.1,1.6c0.3,0.1,0.6,0.1,0.7,0.1c1.3,0,2.3-0.9,2.6-1.1
		c0.1-0.1,0.2-0.1,0.2-0.2c0.1,0.5,0.2,0.8,0.6,1.1c0.1,0.1,0.3,0.2,0.6,0.2c0.6,0,1.3-0.5,1.7-0.9l-0.1-0.2
		C22.3,12.9,22.1,13,22,13z M19.8,12c-0.6,0.5-1,0.8-1.3,1c-0.2,0.1-0.4,0.1-0.5,0.1c-0.6,0-1.1-0.3-1.3-0.8
		c-0.1-0.2-0.1-0.4-0.1-0.5c0-0.4,0.2-0.6,0.3-0.7c0.4-0.5,1-0.7,1.6-0.9l1.3-0.4h0V12z"/>
	<path class="st0" d="M30.5,12.6V8c0-0.6-0.1-1.2-0.4-1.7c-0.4-0.5-1-0.7-1.6-0.7c-1.2,0-2.3,0.7-3.2,1.3V5.5l-0.2-0.1
		c-0.7,0.3-1,0.4-2.2,0.9v0.3c0.7,0.3,0.9,0.4,1,1.2v4.5c0,0.8-0.1,0.9-0.5,1c-0.2,0-0.4,0.1-0.7,0.1v0.4h3.9v-0.4
		c-0.2,0-0.8-0.1-1-0.2c-0.3-0.1-0.3-0.3-0.3-0.9V7.3c0.6-0.4,1.3-0.9,2.2-0.9c0.7,0,1.3,0.4,1.5,1c0.1,0.3,0.1,0.8,0.1,0.9V12
		c-0.1,1.2,0,1.2-1.2,1.3v0.4h3.8v-0.4C30.7,13.2,30.6,13.2,30.5,12.6z"/>
	<path class="st0" d="M40,12.3V0.1L39.9,0c-1.1,0.5-1.4,0.6-2.5,0.9v0.3c0.4,0.1,1,0.3,1.1,0.8c0.1,0.2,0,0.3,0,0.4v3.5
		c-0.6-0.2-0.9-0.3-1.5-0.3c-1.7,0-3.4,1.1-4.1,2.6c-0.3,0.6-0.4,1.3-0.4,2c0,0.5,0.1,2.4,1.7,3.3c0.2,0.1,0.8,0.5,1.6,0.5
		c1.2,0,2-0.6,2.3-0.9c0.2-0.1,0.4-0.3,0.5-0.4v1.3l0.1,0.1c0.4-0.1,0.8-0.2,1.1-0.3c0.4-0.1,0.9-0.2,1.4-0.3v-0.4h-0.7
		C40.1,12.9,40,12.9,40,12.3z M38.6,11.3c0,0.4-0.1,0.6-0.1,0.7c-0.3,0.6-1,0.9-1.7,0.9c-0.3,0-0.8-0.1-1.4-0.5
		c-0.6-0.4-1.4-1.3-1.4-3c0-1.8,1-2.7,1.6-3c0.5-0.3,0.9-0.3,1.1-0.3c1.1,0,1.5,0.7,1.7,1c0.1,0.1,0.1,0.2,0.2,0.4h0V11.3z"/>
	<path class="st0" d="M48.8,12.9c-1.7,0-2.4-1.6-2.5-2.1c-0.1-0.4-0.2-0.7-0.3-1.5V8.7h5c0,0,0.1,0,0.2,0c0.2-0.1,0.2-0.3,0.2-0.4
		c0-0.1,0-0.4-0.1-0.4c-0.1-0.3-0.2-1.1-1-1.8c-0.7-0.5-1.5-0.5-1.7-0.5c-0.3,0-1.1,0.1-1.9,0.5c-1.9,1-2,3.2-2,3.8c0,0.3,0.1,2,1,3
		c0.3,0.4,1.1,1.1,2.4,1.1c1.1,0,1.8-0.5,2.2-0.7c0.4-0.3,0.6-0.6,1.2-1.2l-0.2-0.3C50.5,12.4,49.8,12.9,48.8,12.9z M47.2,6.4
		c0.4-0.3,0.8-0.3,1-0.3c0.9,0,1.6,0.8,1.6,1.6c0,0.4-0.2,0.5-0.6,0.5h-3.2C46.3,7.5,46.5,6.8,47.2,6.4z"/>
	<path class="st0" d="M53.6,2.5c0.1,0.1,0.2,0.1,0.4,0.1c0.5,0,0.9-0.3,0.9-0.8c0-0.5-0.4-0.8-0.8-0.8c-0.4,0-0.7,0.2-0.8,0.6
		C53.1,1.9,53.3,2.3,53.6,2.5z"/>
	<path class="st0" d="M54.7,12.3V5.4l-0.1-0.1c-1,0.5-1.2,0.6-2.3,0.9v0.3c0.3,0.2,0.5,0.3,0.7,0.4c0.3,0.2,0.3,0.5,0.3,0.9v4.6
		c0,0.3,0,0.7-0.3,0.8c-0.1,0.1-0.5,0.1-1,0.1l0,0.4h4v-0.4c-0.4-0.1-0.8-0.1-0.9-0.1C54.6,13,54.7,12.3,54.7,12.3z"/>
	<path class="st0" d="M64,12.6V8c0-0.6-0.1-1.2-0.4-1.7c-0.4-0.5-1-0.7-1.6-0.7c-1.2,0-2.3,0.7-3.2,1.3V5.5l-0.2-0.1
		c-0.7,0.3-1,0.4-2.2,0.9v0.3c0.7,0.3,0.9,0.4,1,1.2v4.5c0,0.8-0.1,0.9-0.5,1c-0.2,0-0.4,0.1-0.7,0.1v0.4H60v-0.4
		c-0.2,0-0.8-0.1-1-0.2c-0.3-0.1-0.3-0.3-0.3-0.9V7.3c0.6-0.4,1.3-0.9,2.2-0.9c0.7,0,1.3,0.4,1.5,1c0.1,0.3,0.1,0.8,0.1,0.9V12
		c-0.1,1.2,0,1.2-1.2,1.3v0.4h3.8v-0.4C64.2,13.2,64.1,13.2,64,12.6z"/>
	<path class="st0" d="M70.3,9.5c-0.3-0.2-0.5-0.3-0.9-0.4c-0.6-0.2-1-0.4-1.5-0.8c-0.1-0.1-0.5-0.5-0.6-1.1c0-0.5,0.4-1,0.9-1.2
		C68.5,6,68.7,6,68.8,6c0.2,0,0.5,0,0.9,0.2c0.6,0.4,0.8,0.9,0.9,1.1c0.1,0.2,0.1,0.3,0.1,0.5l0.3,0V5.9c-1-0.3-1.5-0.4-2-0.4
		c-0.3,0-1.4,0-2.1,0.6c-0.4,0.4-0.7,1-0.7,1.7c0,1.2,1,1.9,1.3,2c0.5,0.3,1,0.5,1.1,0.6c0.6,0.3,1.1,0.5,1.3,1.1
		c0.1,0.2,0.1,0.5,0.1,0.5c0,0.3-0.1,0.6-0.2,0.7c-0.2,0.3-0.5,0.7-1.3,0.7c-0.2,0-0.6,0-1-0.3c-0.8-0.4-1-1.2-1.3-2L66,11.2
		l0.2,2.1c0.8,0.4,1.3,0.7,2.2,0.7c1.7,0,2.5-0.9,2.8-1.5c0.2-0.4,0.2-0.8,0.2-1C71.5,10.3,70.6,9.7,70.3,9.5z"/>
</g>
</svg>
