<?xml version="1.0" encoding="utf-8"?>
<svg width="40px" height="24px" viewBox="0 0 40 24" version="1.1" xmlns="http://www.w3.org/2000/svg" xmlns:xlink="http://www.w3.org/1999/xlink">
<title>ze.tt</title>
<g>
	<path d="M34.169,17.682c-0.319,0-0.558-0.084-0.683-0.254c-0.125-0.169-0.205-0.426-0.205-0.771V9.786h1.804V7.708
		h-1.804V3.551h-3.143v4.157h-0.51h-0.374h-1.91V3.551H24.26v4.157h-1.688v2.078h1.688v6.096c0,0.351-0.006,0.664,0.009,0.938
		c0.016,0.275,0.04,0.571,0.087,0.891c0.047,0.319,0.109,0.598,0.194,0.838c0.084,0.239,0.198,0.474,0.346,0.704
		c0.147,0.23,0.321,0.42,0.525,0.57c0.203,0.15,0.453,0.27,0.75,0.359c0.297,0.089,0.649,0.134,1.019,0.134
		c0.92,0,1.552-0.064,2.018-0.192v-2.499c-0.291,0.038-0.576,0.057-0.939,0.057c-0.319,0-0.576-0.084-0.701-0.254
		c-0.125-0.169-0.222-0.426-0.222-0.771V9.786h1.91h0.374h0.509v6.096c0,0.351,0.016,0.664,0.032,0.938
		c0.016,0.275,0.051,0.571,0.098,0.891c0.047,0.319,0.115,0.598,0.199,0.838c0.084,0.239,0.201,0.474,0.348,0.704
		c0.147,0.23,0.323,0.42,0.526,0.57c0.203,0.15,0.454,0.27,0.751,0.359c0.297,0.089,0.627,0.134,0.996,0.134
		c0.92,0,1.588-0.064,1.996-0.192v-2.499C34.853,17.663,34.532,17.682,34.169,17.682L34.169,17.682z"/>
	<path d="M4.914,20.171v-2.183l3.369-7.986H4.914V7.675h6.636v2.135l-3.398,8.024h3.398v2.336H4.914L4.914,20.171z"/>
	<path d="M12.396,16.925v-5.314c0-1.328,0.31-2.364,0.929-3.107c0.619-0.744,1.564-1.116,2.834-1.116
		c1.276,0,2.223,0.37,2.839,1.111c0.616,0.741,0.924,1.778,0.924,3.112v2.585h-4.364v2.767c0,0.702,0.2,1.053,0.601,1.053
		c0.438,0,0.657-0.377,0.657-1.13v-1.369h3.107v1.408c0,1.041-0.369,1.888-1.107,2.542c-0.738,0.654-1.624,0.981-2.656,0.981
		c-1.032,0-1.918-0.329-2.656-0.986C12.765,18.805,12.396,17.96,12.396,16.925L12.396,16.925z M15.559,12.502h1.229v-1.724
		c0-0.632-0.21-0.948-0.629-0.948c-0.4,0-0.601,0.316-0.601,0.948V12.502L15.559,12.502z"/>
	<path d="M20.832,20.171v-2.558h2.507v2.558H20.832L20.832,20.171z"/>
</g>
</svg>
