<?xml version="1.0" encoding="UTF-8"?>
<svg width="11px" height="14px" viewBox="0 0 11 14" version="1.1" xmlns="http://www.w3.org/2000/svg" xmlns:xlink="http://www.w3.org/1999/xlink">
    <title>Podcast</title>
    <g stroke="none" stroke-width="1" fill="none" fill-rule="evenodd">
        <path d="M2.38380196,9.93131178 C0.943901921,8.94950892 0,7.3060933 0,5.44444444 C0,2.43756081 2.46243388,0 5.5,0 C8.53756612,0 11,2.43756081 11,5.44444444 C11,7.3060933 10.0560981,8.94950892 8.61619804,9.93131178 L8.17102689,9.29033073 C9.40522692,8.44878543 10.2142857,7.04014347 10.2142857,5.44444444 C10.2142857,2.86711561 8.10362811,0.777777778 5.5,0.777777778 C2.89637189,0.777777778 0.785714286,2.86711561 0.785714286,5.44444444 C0.785714286,7.04014347 1.59477308,8.44878543 2.82897311,9.29033073 L2.38380196,9.93131178 Z M3.49672983,8.32885916 C2.57107981,7.69770018 1.96428571,6.64121871 1.96428571,5.44444444 C1.96428571,3.51144782 3.54727892,1.94444444 5.5,1.94444444 C7.45272108,1.94444444 9.03571429,3.51144782 9.03571429,5.44444444 C9.03571429,6.64121871 8.42892019,7.69770018 7.50327017,8.32885916 L7.05809902,7.68787811 C7.77804904,7.19697668 8.25,6.37526887 8.25,5.44444444 C8.25,3.94100263 7.01878306,2.72222222 5.5,2.72222222 C3.98121694,2.72222222 2.75,3.94100263 2.75,5.44444444 C2.75,6.37526887 3.22195096,7.19697668 3.94190098,7.68787811 L3.49672983,8.32885916 Z M5.5,8.55555556 C6.58484504,8.55555556 7.46428571,9.43499623 7.46428571,10.5198413 L7.46428571,12.0357143 L7.46428571,12.0357143 C7.46428571,13.1205593 6.58484504,14 5.5,14 C4.41515496,14 3.53571429,13.1205593 3.53571429,12.0357143 L3.53571429,10.5198413 C3.53571429,9.43499623 4.41515496,8.55555556 5.5,8.55555556 Z M5.48412698,3.88888889 L5.51587302,3.88888889 C6.37498263,3.88888889 7.07142857,4.58533483 7.07142857,5.44444444 C7.07142857,6.30355406 6.37498263,7 5.51587302,7 L5.48412698,7 L5.48412698,7 C4.62501737,7 3.92857143,6.30355406 3.92857143,5.44444444 C3.92857143,4.58533483 4.62501737,3.88888889 5.48412698,3.88888889 Z" fill="#44444C" fill-rule="nonzero"></path>
    </g>
</svg>
