<?xml version="1.0" encoding="utf-8"?>
<svg width="15px" height="15px" viewBox="0 0 15 15" version="1.1" xmlns="http://www.w3.org/2000/svg" xmlns:xlink="http://www.w3.org/1999/xlink">
	<title>Redaktionsempfehlung</title>
	<path fill="#707070" d="M13.1000061,15H1.8999939C0.8999939,15,0,14.2000122,0,13.1000061
		V1.8999939C0,0.8999939,0.7999878,0,1.8999939,0h11.2000122C14.1000061,0,15,0.7999878,15,1.8999939v11.2000122
		C15,14.1000061,14.2000122,15,13.1000061,15z M11.5,10c-0.2999878,0.6000061-2,2.1000061-4.2000122,2.1000061h-1.5
		l5.8999939-9.7000122H6.0999756c-0.7000122,0-1.2999878-0.1000061-1.2999878-0.1000061s-1,2.3999939-1.1000061,2.6000061
		C3.5999756,5,3.7999878,5.1000061,3.8999939,5c0.2999878-0.5,1.5-2,4-2h1.2999878l-5.8999939,9.7000122h7.1000061
		c0,0,1.1000061-2.5,1.2000122-2.6000061C11.7000122,9.8999939,11.5,9.8999939,11.5,10L11.5,10z M5.1000061,12.1000061H4.3000183
		c0,0,0,0,0-0.1000061l5.5-9l0.1000061-0.1000061h0.7999878c0,0,0,0,0,0.1000061l-5.5,9
		C5.2000122,12.1000061,5.1000061,12.1000061,5.1000061,12.1000061L5.1000061,12.1000061z"/>
</svg>
