<?xml version="1.0" encoding="utf-8"?>
<!-- Generator: Adobe Illustrator 18.1.1, SVG Export Plug-In . SVG Version: 6.00 Build 0)  -->
<svg version="1.1" id="Ebene_1" xmlns:sketch="http://www.bohemiancoding.com/sketch/ns"
	 xmlns="http://www.w3.org/2000/svg" xmlns:xlink="http://www.w3.org/1999/xlink" x="0px" y="0px" viewBox="-472 273 15 16"
	 enable-background="new -472 273 15 16" xml:space="preserve">
	<path id="Juli-2015" sketch:type="MSPage" fill="#909090" d="M-458.9,288.6h-11.2c-1,0-1.9-0.8-1.9-1.9v-11.2c0-1,0.8-1.9,1.9-1.9
		h11.2c1,0,1.9,0.8,1.9,1.9v11.2C-457,287.7-457.8,288.6-458.9,288.6z M-460.5,283.6c-0.3,0.6-2,2.1-4.2,2.1h-1.5l5.9-9.7h-5.6
		c-0.7,0-1.3-0.1-1.3-0.1s-1,2.4-1.1,2.6c-0.1,0.1,0.1,0.2,0.2,0.1c0.3-0.5,1.5-2,4-2h1.3l-5.9,9.7h7.1c0,0,1.1-2.5,1.2-2.6
		C-460.3,283.5-460.5,283.5-460.5,283.6L-460.5,283.6z M-466.9,285.7h-0.8c0,0,0,0,0-0.1l5.5-9c0,0,0.1-0.1,0.1-0.1h0.8
		c0,0,0,0,0,0.1l-5.5,9C-466.8,285.7-466.9,285.7-466.9,285.7L-466.9,285.7z"/>
</svg>