<?xml version="1.0" encoding="UTF-8" standalone="no"?>
<svg width="15px" height="16px" viewBox="0 0 15 16" version="1.1" xmlns="http://www.w3.org/2000/svg" xmlns:xlink="http://www.w3.org/1999/xlink" xmlns:sketch="http://www.bohemiancoding.com/sketch/ns">
    <!-- Generator: Sketch 3.3.2 (12043) - http://www.bohemiancoding.com/sketch -->
    <title>Redaktionsempfehlung</title>
    <defs></defs>
    <g id="status-redemp" transform="translate(0.000000, 0.571902)" sketch:type="MSShapeGroup">
        <path d="M13.125,15 L1.875,15 C0.84375,15 0,14.15625 0,13.125 L0,1.875 C0,0.84375 0.84375,0 1.875,0 L13.125,0 C14.15625,0 15,0.84375 15,1.875 L15,13.125 C15,14.15625 14.15625,15 13.125,15 Z" id="Fill-1" fill="currentColor"></path>
        <path d="M11.484375,9.9928125 C11.188125,10.5496875 9.4959375,12.1190625 7.29,12.1190625 L5.788125,12.1190625 L11.71875,2.3971875 L6.133125,2.3971875 C5.4628125,2.3971875 4.824375,2.3428125 4.824375,2.3428125 C4.824375,2.3428125 3.785625,4.7025 3.691875,4.9059375 C3.6253125,5.0503125 3.7734375,5.1215625 3.86625,4.966875 C4.149375,4.4934375 5.3896875,2.9484375 7.873125,2.9484375 L9.1396875,2.9484375 L3.28125,12.6553125 L10.4175,12.6553125 C10.4175,12.6553125 11.5621875,10.164375 11.6165625,10.040625 C11.67,9.9140625 11.5453125,9.8784375 11.484375,9.9928125 L11.484375,9.9928125 Z M5.0878125,12.12 L4.2871875,12.12 C4.2515625,12.12 4.2384375,12.09 4.2628125,12.0515625 L9.763125,3.0178125 C9.7875,2.979375 9.83625,2.9484375 9.8728125,2.9484375 L10.6725,2.9484375 C10.71,2.9484375 10.72125,2.979375 10.6978125,3.0178125 L5.195625,12.0515625 C5.173125,12.09 5.124375,12.12 5.0878125,12.12 L5.0878125,12.12 Z" id="Fill-2" fill="#FFFFFF"></path>
    </g>
</svg>
