<?xml version="1.0" encoding="utf-8"?>
<svg width="14px" height="13px" viewBox="0 0 14 13" version="1.1" xmlns="http://www.w3.org/2000/svg" xmlns:xlink="http://www.w3.org/1999/xlink">
	<title>Neu laden</title>
	<g>
		<path fill="#444444" d="M9.192,7.15L8.13,13L14,11.963l-1.793-1.794c1.663-2.468,1.404-5.846-0.777-8.029
			C10.461,1.17,9.256,0.582,8,0.371L7.673,2.225c0.889,0.146,1.743,0.558,2.429,1.245c1.443,1.445,1.688,3.632,0.739,5.332
			L9.192,7.15z"/>
		<path fill="#444444" d="M3.177,4.244l1.63,1.632L5.843,0L0,1.063L1.824,2.89c-1.812,2.482-1.599,5.982,0.641,8.225
			c0.954,0.954,2.137,1.54,3.372,1.759l0.327-1.853c-0.869-0.155-1.7-0.564-2.371-1.235C2.29,8.279,2.087,5.971,3.177,4.244z"/>
	</g>
</svg>
