<?xml version="1.0" encoding="UTF-8"?>
<svg version="1.1" xmlns="http://www.w3.org/2000/svg" width="1301" height="1024" viewBox="0 0 1301 1024">
<title>Icon Das Deutsche Schulportal</title>
<path d="M820.67 504.651c-34.297 2.45-85.742 7.349-132.287 12.249 2.45-61.244 4.9-112.689 7.349-154.335 31.847 2.45 88.191 2.45 120.038 0 0 26.947 2.45 80.842 4.9 142.086zM1300.823 164.134c-2.45 9.799-115.139 85.742-159.234 107.789-7.349 2.45-17.148 7.349-22.048 7.349-51.445 12.249-213.129 29.397-244.976 200.88-2.45 7.349-2.45 22.048 0 24.498 0 0-2.45-2.45-2.45-2.45-2.45-29.397-7.349-122.488-9.799-144.536 0 0 2.45 0 2.45 0v0h2.45c0 0 0 0 0 0h9.799c0 0 0 0 2.45 0 0 0 0 0 2.45 0v0c0 0 2.45 0 2.45 0 24.498-9.799 29.397-22.048 34.297-51.445 4.9-34.297 7.349-53.895 7.349-78.392s-9.799-66.144-51.445-66.144c-75.943-2.45-142.086-4.9-213.129-22.048-31.847-7.349-56.344-4.9-71.043 36.746-7.349 22.048-22.048 97.99-17.148 132.287 2.45 39.196 24.498 53.895 71.043 58.794 0 0 0 0 2.45 0-4.9 31.847-12.249 78.392-17.148 129.837l-2.45 17.148c-44.096-218.029-271.923-276.823-347.866-303.77-12.249-4.9-29.397-14.699-36.746-19.598-71.043-44.096-237.627-173.933-242.526-191.081s-4.9 198.431 181.282 264.574v0c-26.947-2.45-117.589-12.249-142.086-29.397-14.699-9.799 73.493 129.837 215.579 134.737v0c-12.249 2.45-107.789 14.699-134.737 2.45-14.699-7.349 78.392 97.99 200.88 80.842-26.947 12.249-80.842 29.397-102.89 26.947-14.699-2.45 88.191 75.943 200.88 26.947h2.45c-9.799 4.9-36.746 22.048-61.244 31.847v0c-17.148 7.349-31.847 14.699-39.196 14.699-12.249 0 88.191 51.445 181.282-14.699h2.45c-12.249 12.249-63.694 56.344-83.292 61.244-9.799 2.45 46.545 19.598 107.789-7.349 2.45 0 4.9-2.45 7.349-4.9 2.45 0 12.249-4.9 14.699-4.9 31.847-7.349 56.344-2.45 56.344 29.397-22.048 39.196-41.646 75.943-61.244 112.689-24.498-24.498-61.244-29.397-75.943 0 24.498 34.297 169.033 230.278 210.679 284.172l19.598 2.45c0 0 22.048-46.545-26.947-122.488-17.148-26.947-48.995-73.493-61.244-88.191 24.498-58.794 51.445-115.139 73.493-166.584 22.048 14.699 56.344 29.397 88.191 41.646-17.148 44.096-31.847 80.842-36.746 88.191-34.297-26.947-56.344 2.45-56.344 2.45l188.632 249.876 17.148 2.45c12.249-29.397 2.45-75.943-17.148-102.89-14.699-22.048-66.144-95.541-66.144-95.541s24.498-56.344 53.895-117.589l39.196 7.349c14.699 0 34.297 0 58.794-4.9 19.598-2.45 115.139-22.048 137.187-31.847s36.746-24.498 26.947-44.096c-9.799-19.598-63.694-41.646-75.943-46.545-4.9-2.45-46.545-22.048-51.445-24.498l-46.545-22.048-24.498-12.249c2.45-2.45 9.799-14.699 26.947-4.9 4.9 2.45 9.799 4.9 14.699 7.349h2.45c24.498 7.349 41.646 2.45 39.196 2.45-9.799-4.9-34.297-34.297-41.646-51.445v0c46.545 56.344 110.239 31.847 102.89 29.397-12.249-2.45-46.545-36.746-53.895-44.096v0c58.794 46.545 124.938 2.45 117.589 2.45-12.249 0-41.646-17.148-56.344-26.947 68.593 24.498 129.837-34.297 122.488-31.847-17.148 4.9-68.593-14.699-75.943-17.148 83.292 12.249 144.536-75.943 134.737-68.593-17.148 9.799-71.043 7.349-83.292 2.45 115.139-22.048 134.737-171.483 129.837-159.234z"></path>
</svg>
