<?xml version="1.0" encoding="UTF-8"?>
<svg width="26px" height="24px" viewBox="0 0 26 24" version="1.1" xmlns="http://www.w3.org/2000/svg" xmlns:xlink="http://www.w3.org/1999/xlink">
    <!-- Generator: Sketch 47.1 (45422) - http://www.bohemiancoding.com/sketch -->
    <title>Anker</title>

    <g id="Page-1" stroke="none" stroke-width="1" fill="none" fill-rule="evenodd">
        <path d="M25.9478304,15.8595435 L24.2784048,10.694758 C24.2262353,10.5382493 24.1218962,10.3817407 23.913218,10.3295711 C23.7567093,10.2774016 23.5480311,10.2774016 23.443692,10.3817407 L18.9571106,13.6162528 C18.800602,13.7205919 18.6962629,13.9292701 18.7484324,14.1379483 C18.800602,14.3466265 18.9049411,14.5031352 19.1136193,14.5553047 L21.1482318,15.2335089 C20.2613494,18.4158515 17.6007023,20.8156509 14.3140206,21.3373464 L14.3140206,6.26034612 C15.2530725,5.79082017 15.8791071,4.85176825 15.8791071,3.70403812 C15.8791071,2.13895159 14.6270379,0.886882368 13.0619513,0.886882368 C11.4968648,0.886882368 10.2447956,2.13895159 10.2447956,3.70403812 C10.2447956,4.7995987 10.8708302,5.79082017 11.8098821,6.26034612 L11.8098821,21.3373464 C8.5232004,20.8156509 5.81038375,18.4158515 4.97567093,15.2335089 L6.85377477,14.6074743 C7.06245297,14.5553047 7.16679207,14.3987961 7.21896163,14.1901179 C7.27113118,13.9814397 7.16679207,13.7727615 7.01028342,13.6684224 L2.52370203,10.4339102 C2.36719338,10.3295711 2.21068473,10.3295711 2.05417607,10.3817407 C1.89766742,10.4339102 1.74115877,10.5382493 1.68898921,10.7469275 L0.0195635816,16.0160522 C-0.0326059694,16.2247304 0.0195635816,16.4334086 0.176072235,16.5377477 C0.280411337,16.6420868 0.43691999,16.6942563 0.541259092,16.6942563 C0.593428643,16.6942563 0.645598194,16.6942563 0.697767745,16.6420868 L2.57587158,16.0160522 C3.88011036,20.6069727 8.05367444,23.9458239 13.0619513,23.9458239 C18.0180587,23.9458239 22.2437923,20.6069727 23.5480311,16.0682217 L25.3217958,16.6420868 C25.3739654,16.6420868 25.4261349,16.6942563 25.4783045,16.6942563 L25.4783045,16.6942563 C25.7913218,16.6942563 26,16.4334086 26,16.1725608 C26,16.0160522 26,15.9117131 25.9478304,15.8595435 L25.9478304,15.8595435 Z M13.0619513,2.60847755 C13.6358164,2.60847755 14.1053424,3.07800351 14.1053424,3.65186857 C14.1053424,4.22573363 13.6358164,4.69525959 13.0619513,4.69525959 C12.4880863,4.69525959 12.0185603,4.22573363 12.0185603,3.65186857 C12.0185603,3.07800351 12.4880863,2.60847755 13.0619513,2.60847755 L13.0619513,2.60847755 Z" id="Anker" fill="#000000"></path>
    </g>
</svg>