<?xml version="1.0" encoding="UTF-8"?>
<svg width="17px" height="15px" viewBox="0 0 17 15" version="1.1" xmlns="http://www.w3.org/2000/svg" xmlns:xlink="http://www.w3.org/1999/xlink">
    <!-- Generator: Sketch 50.2 (55047) - http://www.bohemiancoding.com/sketch -->
    <title>icon-pocket</title>
    <desc>Created with Sketch.</desc>
    <defs></defs>
    <g id="Page-1" stroke="none" stroke-width="1" fill="none" fill-rule="evenodd">
        <g id="Sharebuttons-ZON-Desktop-smaller" transform="translate(-287.000000, -450.000000)" fill="#FFFFFF" fill-rule="nonzero">
            <g id="Group-6" transform="translate(280.000000, 442.000000)">
                <path d="M22.164966,8 C22.585034,8 22.9404762,8.14744532 23.2295918,8.44405045 C23.5204082,8.74065558 23.664966,9.09898201 23.6666667,9.5224587 L23.6666667,14.5921776 C23.6666667,15.739165 23.4472789,16.8330036 23.0085034,17.8736933 C22.5697279,18.9160974 21.9795918,19.8110563 21.2397959,20.5585698 C20.5,21.3077978 19.6139456,21.901008 18.585034,22.3416295 C17.5544218,22.782251 16.4744898,23.0017045 15.3435374,22.99999 C14.2057823,22.99999 13.122449,22.7805365 12.0935374,22.3416295 C11.0629252,21.9027225 10.1768707,21.3077978 9.43367347,20.5585698 C8.69047619,19.8093418 8.09863946,18.914383 7.65986395,17.8736933 C7.21938776,16.8330036 7,15.739165 7,14.5921776 L7,9.5224587 C7,9.10583993 7.14795918,8.7475135 7.44557823,8.4491939 C7.74319728,8.1491598 8.09693878,8 8.51020408,8 L22.164966,8 Z M15.3435374,18.3931809 C15.6462585,18.3931809 15.9115646,18.2851686 16.1377551,18.0708585 L20.0527211,14.2818566 C20.2908163,14.0538307 20.4115646,13.7777993 20.4115646,13.452048 C20.4115646,13.1331547 20.2993197,12.8605523 20.0765306,12.6376698 C19.8537415,12.4130728 19.5833333,12.3016316 19.2687075,12.2999171 C18.9659864,12.2999171 18.7006803,12.4079294 18.4744898,12.6222395 L15.3452381,15.6500121 L12.2142857,12.620525 C11.9880952,12.4062149 11.7261905,12.2982027 11.4285714,12.2982027 C11.1122449,12.2982027 10.8418367,12.4113584 10.6207483,12.6359553 C10.3996599,12.8605523 10.287415,13.1331547 10.2857143,13.4503336 C10.2857143,13.7829428 10.4013605,14.0589741 10.6343537,14.2801421 L14.5578231,18.0691441 C14.7721088,18.2851686 15.0340136,18.3931809 15.3435374,18.3931809 Z" id="icon-pocket"></path>
            </g>
        </g>
    </g>
</svg>