<?xml version="1.0" encoding="utf-8"?>
<svg width="15px" height="13px" viewBox="0 0 15 13" version="1.1" xmlns="http://www.w3.org/2000/svg" xmlns:xlink="http://www.w3.org/1999/xlink">
<g fill="#313131">
	<title>Shuffle</title>
	<path d="M10.7446404,3.5730991h1.2163734l-0.6081867,0.6081872
		c-0.3040943,0.3040938-0.3040943,0.912281,0,1.2163744c0.2027283,0.2027287,0.4054575,0.2027287,0.6081867,0.2027287
		c0.2027302,0,0.4054585-0.1013646,0.6081877-0.2027287l2.0272903-2.0272906l0.1013651-0.1013644c0,0,0,0,0-0.1013646V3.0662768
		c0,0,0,0,0-0.1013644V2.863548V2.7621834l0,0l0,0V2.6608188V2.5594544c0,0,0,0,0-0.1013646c0,0,0-0.1013646-0.1013651-0.1013646
		l0,0l-0.1013641-0.1013646l-2.0272913-2.0272903c-0.3040934-0.3040936-0.9122801-0.3040936-1.2163734,0
		c-0.3040943,0.3040936-0.3040943,0.9122807,0,1.2163744l0.6081867,0.4054577h-1.2163744
		c-2.4327488,0-3.8518524,2.2300196-5.0682263,4.0545812C4.4600391,7.6276798,3.446394,9.2495127,1.8245614,9.2495127H0.8109161
		C0.4054581,9.2495127,0,9.6549702,0,10.0604296c0,0.5068226,0.4054581,0.9122801,0.8109162,0.9122801h1.0136452
		c2.5341136,0,3.8518522-2.1286554,5.169591-4.0545812C8.1091623,5.194932,9.1228075,3.5730991,10.7446404,3.5730991"/>
	<path d="M14.6978559,10.4658871C14.6978559,10.4658871,14.6978559,10.364522,14.6978559,10.4658871
		c0-0.1013651,0-0.1013651,0-0.2027292v-0.1013651l0,0l0,0v-0.1013641V9.9590635V9.8576984V9.7563334c0,0,0,0,0-0.1013651
		l-0.1013651-0.1013651l-2.0272903-2.0272899c-0.3040934-0.3040938-0.9122801-0.3040938-1.2163734,0
		c-0.3040943,0.3040938-0.3040943,0.9122806,0,1.2163739l0.6081867,0.6081877h-1.2163734
		c-0.912282-0.1013622-1.6218328-0.5068207-2.4327497-1.5204654C8.0077972,7.5263157,7.5009751,7.4249511,7.0955167,7.7290449
		c-0.3040938,0.3040934-0.405458,0.8109159-0.1013641,1.2163744c0.7095513,0.9122801,1.9259257,2.0272903,3.6491227,2.0272903
		h1.2163744l-0.6081877,0.6081877c-0.3040943,0.3040934-0.3040943,0.9122801,0,1.2163734C11.4541903,13,11.6569195,13,11.8596497,13
		c0.2027283,0,0.4054575-0.1013651,0.6081867-0.2027292l2.0272913-2.0272903l0.1013641-0.1013651l0,0
		C14.6978559,10.4658871,14.6978559,10.4658871,14.6978559,10.4658871 M0.8109162,3.5730991h1.0136452
		c0.8109162,0,1.6218326,0.4054582,2.3313839,1.4191031C4.358674,5.1949315,4.5614038,5.2962961,4.7641325,5.2962961
		s0.405458-0.1013641,0.5068226-0.2027287c0.5068226-0.3040938,0.6081877-0.8109164,0.3040938-1.2163746
		C4.8654976,2.9649119,3.6491227,1.8499023,1.8245614,1.8499023H0.8109161C0.4054581,1.8499023,0,2.2553604,0,2.762183
		C0,3.1676409,0.4054581,3.5730991,0.8109162,3.5730991"/>
</g>
</svg>
