<?xml version="1.0" encoding="UTF-8" standalone="no"?>
<svg width="16px" height="14px" viewBox="0 0 16 14" version="1.1" xmlns="http://www.w3.org/2000/svg" xmlns:xlink="http://www.w3.org/1999/xlink" xmlns:sketch="http://www.bohemiancoding.com/sketch/ns">
    <!-- Generator: Sketch 3.3.1 (12002) - http://www.bohemiancoding.com/sketch -->
    <title>icon_shuffle</title>
    <desc>Created with Sketch.</desc>
    <defs></defs>
    <g id="Vermaßung" stroke="none" stroke-width="1" fill="none" fill-rule="evenodd" sketch:type="MSPage">
        <g id="bigariegel_phone+phablet_vermaßt" sketch:type="MSArtboardGroup" transform="translate(-386.000000, -716.000000)" fill="#313131">
            <g id="CTA" sketch:type="MSLayerGroup" transform="translate(369.500000, 704.000000)">
                <g id="icon_shuffle" transform="translate(17.000000, 12.500000)" sketch:type="MSShapeGroup">
                    <path d="M10.5573014,3.81265349 L11.7130647,3.81265349 L11.1385963,4.38764703 C10.8109287,4.71531458 10.8109287,5.24619902 11.1385963,5.57386657 C11.3029551,5.73770035 11.5171993,5.81961724 11.7319686,5.81961724 C11.9467379,5.81961724 12.160982,5.73770035 12.3253409,5.57386657 L14.3317796,3.56742794 C14.3711627,3.52856993 14.4063449,3.48551105 14.4368012,3.43930153 C14.4499289,3.41987252 14.4583306,3.39886819 14.4693579,3.37891408 C14.4845861,3.35108334 14.5013895,3.32377771 14.5139921,3.29489676 C14.5239692,3.27021667 14.5297454,3.24396126 14.537622,3.21770584 C14.5454986,3.19092532 14.5560008,3.16572013 14.5612519,3.13788939 C14.5701787,3.0943054 14.5728042,3.05072142 14.5743796,3.00713743 C14.5749047,2.99558505 14.5780553,2.98508289 14.5780553,2.9735305 C14.5780553,2.9604028 14.5749047,2.94832531 14.5738545,2.93467249 C14.5722791,2.89318894 14.5696536,2.85170539 14.5612519,2.81074695 C14.5554757,2.77976556 14.5449735,2.75193482 14.5355216,2.72305387 C14.52817,2.6999491 14.5234441,2.67631923 14.5139921,2.65426469 C14.5003393,2.62013265 14.4819605,2.59020148 14.4635817,2.55869498 C14.4546549,2.54189152 14.4478285,2.52508806 14.4373263,2.51038503 C14.4058198,2.46260017 14.3701125,2.41901619 14.3307293,2.37910796 L12.3248158,0.373719544 C11.9971483,0.0460519938 11.4657387,0.0460519938 11.1385963,0.373719544 C10.8104036,0.701387094 10.8104036,1.23279665 11.1385963,1.5604642 L11.7125396,2.13493262 L10.5573014,2.13493262 C8.08561688,2.13493262 6.7061575,4.27894962 5.48895657,6.17038955 C4.40880889,7.84968574 3.38799845,9.43603778 1.8326278,9.43603778 L0.839122988,9.43603778 C0.375977509,9.43603778 0.000525108253,9.81149018 0.000525108253,10.2751608 C0.000525108253,10.7377811 0.375977509,11.1137586 0.839122988,11.1137586 L1.8326278,11.1137586 C4.30378724,11.1137586 5.68324662,8.96974165 6.90044755,7.07830172 C7.98112034,5.39900553 9.00193078,3.81265349 10.5573014,3.81265349" id="Fill-1"></path>
                    <path d="M14.5140446,10.6006229 C14.5234966,10.5785683 14.5276974,10.5554635 14.5355741,10.5328839 C14.5445009,10.5034778 14.5555282,10.475122 14.5613044,10.4441406 C14.569181,10.4037073 14.5718065,10.3622237 14.573907,10.3212653 C14.5749572,10.3076125 14.5781078,10.2944847 14.5781078,10.281357 C14.5781078,10.2698047 14.5754823,10.2598276 14.5749572,10.2493254 C14.5728568,10.2052163 14.5702312,10.1611073 14.5618295,10.1175233 C14.5565784,10.0896925 14.5466013,10.0644873 14.5381996,10.0382319 C14.530323,10.0119765 14.5250719,9.98572109 14.5140446,9.9605159 C14.5019671,9.93163494 14.4856888,9.90432932 14.4704606,9.87702369 C14.4594334,9.85654446 14.4499814,9.83554013 14.4373788,9.81611113 C14.4063974,9.7699016 14.3717403,9.72684273 14.3323572,9.68798472 L12.3253934,7.68102097 C11.9977259,7.35335342 11.4668414,7.35335342 11.1391739,7.68102097 C10.8115063,8.00816341 10.8115063,8.54009807 11.1391739,8.86724052 L11.7136423,9.44223405 L10.557879,9.44223405 C9.72348203,9.44223405 8.99988286,9.01427083 8.20854472,8.05437294 C7.91395899,7.69677422 7.38517498,7.64583872 7.02757626,7.94147467 C6.66997754,8.23501018 6.61904204,8.7643193 6.91362777,9.12244313 C7.62042348,9.9794198 8.76831012,11.1199549 10.557879,11.1199549 L11.7136423,11.1199549 L11.1391739,11.6949485 C10.8115063,12.022616 10.8115063,12.5540256 11.1391739,12.881168 C11.3030077,13.0450018 11.5177769,13.1279689 11.7325462,13.1279689 C11.9467904,13.1279689 12.1620848,13.0450018 12.3253934,12.881168 L14.3302567,10.8763047 C14.3706901,10.8363965 14.4063974,10.7922874 14.4379039,10.7450276 C14.4484061,10.7303246 14.4547074,10.7140462 14.4636342,10.6993432 C14.4814879,10.6662614 14.5003918,10.6347549 14.5140446,10.6006229" id="Fill-5"></path>
                    <path d="M0.839700608,3.81932237 L1.83320542,3.81932237 C2.66392668,3.81932237 3.38542542,4.24360984 4.17256269,5.1956311 C4.3384969,5.39674756 4.57847137,5.50019389 4.81949606,5.50019389 C5.00748481,5.50019389 5.19704889,5.4371809 5.35353115,5.30800427 C5.71060476,5.01236832 5.76101516,4.48358431 5.46590432,4.1265107 C4.76120904,3.27426 3.61752327,2.14107639 1.83268031,2.14107639 L0.839700608,2.14107639 C0.37603002,2.14107639 5.25108253e-05,2.51757901 5.25108253e-05,2.97967427 C5.25108253e-05,3.44334486 0.376555128,3.81932237 0.839700608,3.81932237" id="Fill-3"></path>
                </g>
            </g>
        </g>
    </g>
</svg>