<?xml version="1.0" encoding="UTF-8"?>
<svg width="20px" height="16px" viewBox="0 0 20 16" version="1.1" xmlns="http://www.w3.org/2000/svg" xmlns:xlink="http://www.w3.org/1999/xlink">
	<title>Twitter</title>
	<path fill="#FFFFFF" d="M6.1917267,16c7.4297028,0,11.4932556-6.1545868,11.4932556-11.4919739
		c0-0.1761169-0.00383-0.3496857-0.0121613-0.5232391c0.7896576-0.5693512,1.4742889-1.2808685,2.0154419-2.0910187
		c-0.7243195,0.3215027-1.5024567,0.5386047-2.3196564,0.6359558c0.833847-0.5001831,1.4742889-1.2911224,1.7759399-2.2344818
		c-0.7807007,0.4623871-1.6446381,0.7986145-2.5649567,0.9798584C15.842453,0.4899292,14.7927856,0,13.6310272,0
		C11.4003906,0,9.592453,1.8079529,9.592453,4.0385895c0,0.3170166,0.0352173,0.625061,0.1043854,0.9209442
		C6.3396759,4.7910919,3.3629303,3.1829681,1.37117,0.7390594C1.0234222,1.3359528,0.8242493,2.029541,0.8242493,2.7698822
		c0,1.4012756,0.7127991,2.6373138,1.7964172,3.3622894C1.9584503,6.1110382,1.3359528,5.9297943,0.7909393,5.6268616v0.0505981
		c0,1.9578094,1.3929443,3.5896454,3.2399597,3.9610901C3.6921082,9.7307739,3.3353882,9.7800903,2.9671478,9.7800903
		c-0.2606659,0-0.5130005-0.0249786-0.7602081-0.0730133c0.514267,1.6049347,2.0058441,2.7730865,3.7734528,2.8057556
		c-1.3820648,1.0829773-3.1246948,1.7291718-5.0171814,1.7291718c-0.3253326,0-0.6468353-0.0192108-0.9632111-0.0569916
		C1.7874603,15.3313904,3.9111481,16,6.1917267,16z"/>
</svg>
