<?xml version="1.0" encoding="UTF-8"?>
<svg width="15px" height="14px" viewBox="0 0 15 14" version="1.1" xmlns="http://www.w3.org/2000/svg" xmlns:xlink="http://www.w3.org/1999/xlink">
	<title>Aktualisiert</title>
	<path fill="#707070" d="M9.8487511,7.6785131l-1.1382236,6.0972333L15,12.6953812l-1.9203911-1.8709192
		c1.780283-2.5719662,1.5039215-6.0934763-0.8329401-8.3693752C11.2080641,1.444201,9.9168777,0.8307849,8.5710611,0.6104556
		L8.2207899,2.5433428c0.9524822,0.1527283,1.868331,0.5821192,2.6022959,1.2969375
		c1.5469818,1.5059993,1.8079176,3.7862799,0.79245,5.5576754L9.8487511,7.6785131z M3.4043875,4.6483617l1.7468615,1.7012911
		l1.1099448-6.1253991L0,1.3327845l1.9544539,1.9034683c-1.9409572,2.587615-1.7121556,6.2361898,0.6870472,8.5740566
		c1.0218949,0.9946108,2.2893016,1.6048985,3.6126225,1.8333645l0.3502727-1.9316359
		c-0.9306316-0.1608658-1.8214149-0.5877533-2.5399547-1.2875481C2.4538326,8.8552713,2.2365997,6.4479251,3.4043875,4.6483617z"/>
</svg>
