<?xml version="1.0" encoding="UTF-8"?>
<svg width="19px" height="19px" viewBox="0 0 19 19" version="1.1" xmlns="http://www.w3.org/2000/svg" xmlns:xlink="http://www.w3.org/1999/xlink">
	<title>WhatsApp</title>
	<path fill="#FFFFFF" d="M16.1591187,2.7611194C14.3810329,0.9815357,12.016324,0.0009934,9.4969816,0
		C4.3059254,0,0.0810305,4.2232599,0.078952,9.4143314c-0.0006725,1.6593523,0.4330286,3.2791367,1.2571189,4.7068596L0,19
		l4.9926214-1.3092194c1.3755622,0.7500286,2.9243422,1.1452942,4.5006008,1.1459656h0.0038815
		c5.190506,0,9.4157686-4.2238245,9.4178762-9.414896C18.9159584,6.9061761,17.9372654,4.5406876,16.1591187,2.7611194
		 M9.4970732,17.2466259H9.4938641c-1.4046001-0.0005646-2.7822714-0.3777485-3.9840961-1.0907478l-0.2858534-0.1696253
		l-2.9626718,0.776927l0.7908039-2.8876629l-0.1861472-0.2960167c-0.7835596-1.2459621-1.1974233-2.6859884-1.196812-4.1645727
		c0.0017117-4.3146219,3.513288-7.8248072,7.8311033-7.8248072c2.0907459,0.0007946,4.0561714,0.8158374,5.5340986,2.2949572
		c1.4778967,1.4791198,2.2913504,3.4452171,2.290555,5.5361614C17.3230419,13.7361813,13.8115578,17.2466259,9.4970732,17.2466259
		 M13.7907724,11.3858843c-0.2353277-0.1177549-1.3922815-0.6868792-1.6079865-0.7653723
		c-0.215704-0.0784941-0.3725691-0.1177406-0.5294638,0.1177549c-0.1568651,0.2354965-0.6078358,0.7653885-0.7451382,0.9223757
		c-0.1372108,0.1570024-0.2745132,0.1766558-0.509841,0.0588856c-0.2352972-0.1177559-0.9935484-0.3661509-1.8923731-1.1676216
		C7.8064365,9.9281454,7.3341308,9.1577139,7.1968589,8.9222183C7.059587,8.6867075,7.1822786,8.5593691,7.3000498,8.4421024
		C7.4058995,8.3366957,7.5353775,8.167345,7.6530566,8.0299511c0.1176181-0.1373639,0.1568341-0.2354808,0.2352662-0.392468
		c0.0784631-0.1570177,0.039247-0.2944117-0.0195928-0.4121523C7.8098907,7.1075754,7.3392963,5.9496737,7.1431847,5.4786515
		C6.952178,5.0199323,6.7581754,5.0819964,6.6137204,5.0748134C6.4766011,5.0679975,6.3195839,5.0665302,6.1627188,5.0665302
		c-0.1568952,0-0.4118156,0.0588851-0.6275201,0.2943811C5.3194942,5.5964227,4.7115974,6.1655617,4.7115974,7.3234477
		c0,1.1579022,0.843194,2.276526,0.9608731,2.4335589c0.1176486,0.1570177,1.659337,2.5331583,4.0199504,3.5521679
		c0.5614367,0.2423735,0.999814,0.3870726,1.3415422,0.4955816c0.5637283,0.1789646,1.0767183,0.1537323,1.4822063,0.0931807
		c0.4521017-0.0675354,1.392251-0.5691395,1.5883627-1.1186552c0.1960812-0.5495157,0.1960812-1.0205221,0.1372414-1.118639
		C14.1829653,11.562541,14.0261002,11.5036554,13.7907724,11.3858843"/>
</svg>
