<?xml version="1.0" encoding="UTF-8" standalone="no"?>
<svg width="20px" height="20px" viewBox="0 0 20 20" version="1.1" xmlns="http://www.w3.org/2000/svg" xmlns:xlink="http://www.w3.org/1999/xlink" xmlns:sketch="http://www.bohemiancoding.com/sketch/ns">
    <!-- Generator: Sketch 3.3.3 (12072) - http://www.bohemiancoding.com/sketch -->
    <title>storystream_fb</title>
    <desc>Created with Sketch.</desc>
    <defs></defs>
    <g id="Storystream" stroke="none" stroke-width="1" fill="none" fill-rule="evenodd" sketch:type="MSPage">
        <g id="storystream-verm_1-mobil" sketch:type="MSArtboardGroup" transform="translate(-417.000000, -295.000000)" fill="#FFFFFF">
            <g id="Group-Copy-5" sketch:type="MSLayerGroup" transform="translate(263.000000, 60.000000)">
                <path d="M171.596794,235.100006 L156.630089,235.100006 C155.520527,235.100006 154.613299,236.007234 154.613299,237.116796 L154.613299,252.083216 C154.613299,253.192493 155.520527,254.100006 156.630089,254.100006 L161.932309,254.100006 L161.932309,246.101714 L160.320755,246.101714 L160.320755,243.222089 L161.932309,243.222089 L161.932309,241.356409 C161.932309,240.021179 162.566629,237.93609 165.353197,237.93609 L167.862872,237.945766 L167.862872,240.742579 L166.040448,240.742579 C165.743635,240.742579 165.322463,240.891127 165.322463,241.526301 L165.322463,243.222089 L167.906128,243.222089 L167.609031,246.101714 L165.322463,246.101714 L165.322463,254.100006 L171.596794,254.100006 C172.705786,254.100006 173.613584,253.192493 173.613584,252.083216 L173.613584,237.116796 C173.613584,236.007234 172.705786,235.100006 171.596794,235.100006" id="storystream_fb" sketch:type="MSShapeGroup"></path>
            </g>
        </g>
    </g>
</svg>