<?xml version="1.0" encoding="UTF-8"?>
<svg width="19px" height="19px" viewBox="0 0 19 19" version="1.1" xmlns="http://www.w3.org/2000/svg" xmlns:xlink="http://www.w3.org/1999/xlink">
	<title>Facebook</title>
	<path fill="#FFFFFF" d="M16.98349,0H2.0167999C0.9072266,0,0,0.9072266,0,2.0167847v14.9664307
		C0,18.0924835,0.9072266,19,2.0167999,19h5.3022156v-7.998291h-1.611557V8.1220856h1.611557V6.2564087
		c0-1.3352356,0.6343231-3.4203186,3.4208832-3.4203186l2.5096741,0.0096741v2.796814h-1.8224182
		c-0.296814,0-0.7179871,0.1485443-0.7179871,0.7837219v1.6957855h2.5836639l-0.2971039,2.8796234h-2.2865601V19H16.98349
		c1.1089935,0,2.0167999-0.9075165,2.0167999-2.0167847V2.0167847C19.0002899,0.9072266,18.0924835,0,16.98349,0"/>
</svg>
