<?xml version="1.0" encoding="UTF-8" standalone="no"?>
<svg width="20px" height="19px" viewBox="0 0 20 19" version="1.1" xmlns="http://www.w3.org/2000/svg" xmlns:xlink="http://www.w3.org/1999/xlink" xmlns:sketch="http://www.bohemiancoding.com/sketch/ns">
    <!-- Generator: Sketch 3.3.3 (12072) - http://www.bohemiancoding.com/sketch -->
    <title>storystream_whatsapp</title>
    <desc>Created with Sketch.</desc>
    <defs></defs>
    <g id="Storystream" stroke="none" stroke-width="1" fill="none" fill-rule="evenodd" sketch:type="MSPage">
        <g id="storystream-verm_1-mobil" sketch:type="MSArtboardGroup" transform="translate(-523.000000, -295.000000)" fill="#FFFFFF">
            <g id="Group-Copy-5" sketch:type="MSLayerGroup" transform="translate(263.000000, 60.000000)">
                <path d="M276.633509,237.756741 C274.858239,235.979985 272.497271,235.000999 269.981922,235 C264.799096,235 260.580916,239.216566 260.578842,244.399418 C260.578151,246.056131 261.011156,247.673358 261.833969,249.098819 L260.5,253.969887 L265.484709,252.662753 C266.858086,253.411589 268.40441,253.806236 269.978183,253.806902 L269.98205,253.806902 C275.164338,253.806902 279.382902,249.589772 279.385001,244.40692 C279.385974,241.895233 278.408832,239.533497 276.633509,237.756741 M269.982024,252.219301 L269.978823,252.219301 C268.57646,252.218737 267.200957,251.842143 266.001038,251.130283 L265.715628,250.960922 L262.757671,251.736619 L263.547221,248.853535 L263.361369,248.557985 C262.57904,247.313997 262.165829,245.876245 262.166443,244.400007 C262.168159,240.09223 265.674171,236.587601 269.985123,236.587601 C272.072562,236.588395 274.034888,237.402143 275.510461,238.878919 C276.986034,240.355695 277.798194,242.318687 277.7974,244.406306 C277.795608,248.714415 274.289673,252.219301 269.982024,252.219301 M274.268931,246.367838 C274.033966,246.250279 272.878858,245.682046 272.663482,245.60369 C272.448132,245.525309 272.291497,245.486131 272.134863,245.721249 C271.978253,245.956368 271.527989,246.485423 271.390892,246.64216 C271.253898,246.798923 271.116826,246.818538 270.881861,246.700953 C270.646947,246.583394 269.889892,246.335395 268.992488,245.535193 C268.294071,244.912418 267.822503,244.143199 267.685457,243.908081 C267.548411,243.672937 267.670887,243.545801 267.788497,243.428728 C267.894175,243.323485 268.023437,243.154406 268.140919,243.017232 C268.258376,242.880084 268.297528,242.782113 268.375833,242.625376 C268.454163,242.468613 268.415011,242.331439 268.35627,242.21388 C268.297528,242.096321 267.827675,240.94024 267.631863,240.469977 C267.441171,240.01198 267.247458,240.073947 267.103243,240.066778 C266.96635,240.059966 266.809562,240.058507 266.652953,240.058507 C266.496318,240.058507 266.24179,240.117299 266.026414,240.352418 C265.811063,240.587562 265.204139,241.155795 265.204139,242.31185 C265.204139,243.467906 266.046003,244.584757 266.163485,244.741546 C266.280942,244.898309 267.820198,247.270697 270.177069,248.288093 C270.73762,248.530074 271.175286,248.674546 271.516466,248.782887 C272.079322,248.961569 272.591503,248.936372 272.996341,248.875915 C273.447732,248.808493 274.386388,248.307682 274.582175,247.759038 C274.777962,247.210394 274.777962,246.740131 274.719221,246.64216 C274.660505,246.544216 274.503871,246.485423 274.268931,246.367838" id="storystream_whatsapp" sketch:type="MSShapeGroup"></path>
            </g>
        </g>
    </g>
</svg>