<?xml version="1.0" encoding="UTF-8" standalone="no"?>
<svg width="21px" height="17px" viewBox="0 0 21 17" version="1.1" xmlns="http://www.w3.org/2000/svg" xmlns:xlink="http://www.w3.org/1999/xlink" xmlns:sketch="http://www.bohemiancoding.com/sketch/ns">
    <!-- Generator: Sketch 3.3.3 (12072) - http://www.bohemiancoding.com/sketch -->
    <title>storystream_twitter</title>
    <desc>Created with Sketch.</desc>
    <defs></defs>
    <g id="Storystream" stroke="none" stroke-width="1" fill="none" fill-rule="evenodd" sketch:type="MSPage">
        <g id="storystream-verm_1-mobil" sketch:type="MSArtboardGroup" transform="translate(-469.000000, -297.000000)" fill="#FFFFFF">
            <g id="Group-Copy-5" sketch:type="MSLayerGroup" transform="translate(263.000000, 60.000000)">
                <path d="M212.80503,253.100006 C220.234722,253.100006 224.298285,246.945421 224.298285,241.608032 C224.298285,241.431912 224.294442,241.258354 224.286117,241.084796 C225.075774,240.515449 225.760399,239.803925 226.301567,238.993774 C225.577235,239.315272 224.799106,239.53238 223.98191,239.629726 C224.815757,239.129546 225.456192,238.338608 225.757838,237.395247 C224.977147,237.857641 224.113199,238.19387 223.192893,238.375113 C222.455752,237.589939 221.406078,237.100006 220.244328,237.100006 C218.013692,237.100006 216.205742,238.907956 216.205742,241.138592 C216.205742,241.455608 216.240966,241.763657 216.310133,242.059539 C212.95297,241.891104 209.976226,240.282971 207.984472,237.839069 C207.636715,238.435955 207.43754,239.129546 207.43754,239.86989 C207.43754,241.271162 208.150344,242.507203 209.233961,243.232176 C208.571751,243.211042 207.949248,243.029798 207.404237,242.726872 L207.404237,242.777467 C207.404237,244.735278 208.797184,246.367108 210.6442,246.73856 C210.30541,246.830783 209.948687,246.880097 209.580437,246.880097 C209.31978,246.880097 209.067448,246.85512 208.82024,246.807087 C209.33451,248.412018 210.826084,249.580173 212.593686,249.612835 C211.211626,250.695811 209.469001,251.342011 207.576514,251.342011 C207.251173,251.342011 206.929674,251.322798 206.613299,251.285012 C208.400755,252.431391 210.524439,253.100006 212.80503,253.100006 Z" id="storystream_twitter" sketch:type="MSShapeGroup"></path>
            </g>
        </g>
    </g>
</svg>