<?xml version="1.0" encoding="UTF-8" standalone="no"?>
<svg width="16px" height="15px" viewBox="0 0 16 15" version="1.1" xmlns="http://www.w3.org/2000/svg" xmlns:xlink="http://www.w3.org/1999/xlink" xmlns:sketch="http://www.bohemiancoding.com/sketch/ns">
    <!-- Generator: Sketch 3.3.3 (12072) - http://www.bohemiancoding.com/sketch -->
    <title>Storystream_aktualisiert</title>
    <desc>Created with Sketch.</desc>
    <defs></defs>
    <g id="Storystream" stroke="none" stroke-width="1" fill="none" fill-rule="evenodd" sketch:type="MSPage">
        <g id="storystream-verm_1-mobil" sketch:type="MSArtboardGroup" transform="translate(-295.000000, -236.000000)" fill="#CCCCCC">
            <g id="Group-Copy-5" sketch:type="MSLayerGroup" transform="translate(263.000000, 60.000000)">
                <g id="Group-Copy-3" transform="translate(0.000000, 50.000000)" sketch:type="MSShapeGroup">
                    <g id="Zuletzt-aktualisiert-+-Fill-1-Copy-2" transform="translate(32.750000, 123.500000)">
                        <path d="M9.5775,10.658 L8.470625,16.5873043 L14.586875,15.5366957 L12.719375,13.7173043 C14.450625,11.2161739 14.181875,7.79165217 11.909375,5.57843478 C10.899375,4.5953913 9.64375,3.99886957 8.335,3.7846087 L7.994375,5.66426087 C8.920625,5.81278261 9.81125,6.23034783 10.525,6.92547826 C12.029375,8.39 12.283125,10.6074783 11.295625,12.330087 L9.5775,10.658 Z M3.310625,7.71130435 L5.009375,9.36573913 L6.08875,3.40904348 L0,4.48704348 L1.900625,6.33808696 C0.013125,8.85443478 0.235625,12.4025217 2.56875,14.676 C3.5625,15.6432174 4.795,16.2366957 6.081875,16.4588696 L6.4225,14.5804348 C5.5175,14.424 4.65125,14.0088696 3.9525,13.3283478 C2.38625,11.8023478 2.175,9.46130435 3.310625,7.71130435 Z" id="Storystream_aktualisiert"></path>
                    </g>
                </g>
            </g>
        </g>
    </g>
</svg>