<?xml version="1.0" encoding="utf-8"?>
<svg width="29px" height="18px" viewBox="0 0 29 18" version="1.1" xmlns="http://www.w3.org/2000/svg" xmlns:xlink="http://www.w3.org/1999/xlink">
    <g>
        <title>D17</title>
        <path fill="#FFFFFF" d="M1,17 L28,17 L28,1 L1,1 L1,17 Z M0,0 L29,0 L29,18 L0,18 L0,0 Z"></path>
        <path fill="#FFFFFF" d="M5.926,10.99 L4.75,10.99 L4.344,14 L3.392,14 L3.798,10.99 L3.084,10.99 L3.084,10.15 L3.91,10.15 L4.218,7.882 L3.518,7.882 L3.518,7.042 L4.33,7.042 L4.736,4.032 L5.688,4.032 L5.282,7.042 L6.458,7.042 L6.864,4.032 L7.816,4.032 L7.41,7.042 L8.124,7.042 L8.124,7.882 L7.298,7.882 L6.99,10.15 L7.69,10.15 L7.69,10.99 L6.878,10.99 L6.472,14 L5.52,14 L5.926,10.99 Z M6.346,7.882 L5.17,7.882 L4.862,10.15 L6.038,10.15 L6.346,7.882 Z M9.08,4.032 L11.194,4.032 C12.0060041,4.032 12.6266645,4.25833107 13.056,4.711 C13.4853355,5.16366893 13.7,5.79599594 13.7,6.608 L13.7,11.27 C13.7,12.203338 13.4736689,12.8916644 13.021,13.335 C12.5683311,13.7783355 11.9173376,14 11.068,14 L9.08,14 L9.08,4.032 Z M10.508,12.656 L11.166,12.656 C11.5673353,12.656 11.8519992,12.5556677 12.02,12.355 C12.1880008,12.1543323 12.272,11.8393355 12.272,11.41 L12.272,6.608 C12.272,6.21599804 12.1926675,5.91266774 12.034,5.698 C11.8753325,5.48333226 11.5860021,5.376 11.166,5.376 L10.508,5.376 L10.508,12.656 Z M16.742,5.544 L15.314,6.594 L15.314,5.082 L16.742,4.032 L18.17,4.032 L18.17,14 L16.742,14 L16.742,5.544 Z M23.284,5.376 L21.716,5.376 L21.716,6.524 L20.456,6.524 L20.456,4.032 L24.712,4.032 L24.712,5.46 L22.29,14 L20.778,14 L23.284,5.376 Z"></path>
    </g>
</svg>
