<?xml version="1.0" encoding="utf-8"?>
<!-- Generator: Adobe Illustrator 15.1.0, SVG Export Plug-In . SVG Version: 6.00 Build 0)  -->
<!DOCTYPE svg PUBLIC "-//W3C//DTD SVG 1.1//EN" "http://www.w3.org/Graphics/SVG/1.1/DTD/svg11.dtd">
<svg version="1.1" id="Ebene_1" xmlns="http://www.w3.org/2000/svg" xmlns:xlink="http://www.w3.org/1999/xlink" x="0px" y="0px"
	 width="32px" height="22px" viewBox="0 0 32 22" enable-background="new 0 0 32 22" xml:space="preserve">
<g opacity="0.7">
	<g>
		<defs>
			<rect id="SVGID_1_" x="1" y="1" width="30" height="19.999"/>
		</defs>
		<clipPath id="SVGID_2_">
			<use xlink:href="#SVGID_1_"  overflow="visible"/>
		</clipPath>
		<path clip-path="url(#SVGID_2_)" fill="#1D1D1B" d="M30,1H2C1.448,1,1,1.449,1,2v17.999c0,0.552,0.448,1,1,1h28
			c0.552,0,1-0.448,1-1V2C31,1.449,30.552,1,30,1"/>
	</g>
</g>
<polygon fill="#FFFFFF" points="12.5,15.5 12.5,6.5 21.5,11 "/>
<path fill="#FFFFFF" d="M30,1c0.552,0,1,0.449,1,1v17.999c0,0.552-0.448,1-1,1H2c-0.552,0-1-0.448-1-1V2c0-0.551,0.448-1,1-1H30
	 M30,0H2C0.9,0,0,0.9,0,2v17.999c0,1.1,0.9,2,2,2h28c1.101,0,2-0.9,2-2V2C32,0.9,31.101,0,30,0"/>
</svg>
