<?xml version="1.0" encoding="utf-8"?>
<svg width="32px" height="22px" viewBox="0 0 32 22" version="1.1" xmlns="http://www.w3.org/2000/svg" xmlns:xlink="http://www.w3.org/1999/xlink">
    <title>Video</title>
    <path opacity="0.3" fill="#1D1D1B" d="M30,1H2C1.448,1,1,1.449,1,2v17.999c0,0.552,0.448,1,1,1h28c0.552,0,1-0.448,1-1V2 C31,1.449,30.552,1,30,1"/>
    <polygon fill="#FFFFFF" points="12.5,15.5 12.5,6.5 21.5,11 "/>
    <path fill="#FFFFFF" d="M30,1c0.552,0,1,0.449,1,1v17.999c0,0.552-0.448,1-1,1H2c-0.552,0-1-0.448-1-1V2c0-0.551,0.448-1,1-1H30 M30,0H2C0.9,0,0,0.9,0,2v17.999c0,1.101,0.9,2,2,2h28c1.102,0,2-0.899,2-2V2C32,0.9,31.102,0,30,0"/>
</svg>
