<?xml version="1.0" encoding="utf-8"?>
<svg width="22px" height="22px" viewBox="0 0 22 22" version="1.1" xmlns="http://www.w3.org/2000/svg" xmlns:xlink="http://www.w3.org/1999/xlink">
	<title>Twitter</title>
	<path fill="#FFFFFF" d="M7.29,19.127c7.547,0,11.675-6.252,11.675-11.675c0-0.178-0.004-0.355-0.012-0.531
		C19.755,6.343,20.45,5.62,21,4.797c-0.736,0.326-1.527,0.547-2.356,0.646c0.847-0.508,1.497-1.312,1.804-2.27
		c-0.793,0.47-1.671,0.812-2.606,0.996c-0.749-0.797-1.815-1.296-2.995-1.296c-2.266,0-4.103,1.837-4.103,4.103
		c0,0.322,0.036,0.635,0.106,0.935C7.44,7.74,4.416,6.107,2.393,3.624C2.04,4.23,1.837,4.935,1.837,5.687
		c0,1.424,0.724,2.679,1.825,3.415C2.99,9.081,2.357,8.896,1.804,8.589c0,0.017,0,0.034,0,0.052c0,1.988,1.415,3.646,3.292,4.024
		c-0.345,0.094-0.707,0.144-1.081,0.144c-0.265,0-0.521-0.026-0.772-0.074c0.523,1.631,2.038,2.816,3.833,2.85
		c-1.404,1.101-3.174,1.757-5.096,1.757c-0.331,0-0.658-0.019-0.979-0.058C2.816,18.447,4.973,19.127,7.29,19.127z"/>
</svg>
