<?xml version="1.0" encoding="utf-8"?>
<svg width="22px" height="22px" viewBox="0 0 22 22" version="1.1" xmlns="http://www.w3.org/2000/svg" xmlns:xlink="http://www.w3.org/1999/xlink">
	<title>Whatsapp</title>
	<path fill="#FFFFFF" d="M16.04,13.184c-0.274-0.136-1.619-0.796-1.87-0.886
		c-0.251-0.091-0.433-0.136-0.616,0.136c-0.183,0.273-0.707,0.886-0.867,1.068c-0.16,0.182-0.319,0.204-0.593,0.068
		c-0.274-0.136-1.156-0.424-2.201-1.352C9.08,11.496,8.53,10.604,8.37,10.331c-0.159-0.272-0.017-0.42,0.12-0.556
		c0.123-0.122,0.274-0.318,0.411-0.477c0.137-0.159,0.183-0.273,0.273-0.455C9.266,8.662,9.22,8.503,9.152,8.366
		C9.084,8.23,8.536,6.889,8.308,6.344C8.086,5.813,7.86,5.884,7.692,5.876c-0.159-0.008-0.342-0.01-0.524-0.01
		c-0.183,0-0.479,0.068-0.73,0.341C6.187,6.48,5.48,7.139,5.48,8.48s0.981,2.636,1.118,2.818c0.137,0.182,1.93,2.933,4.676,4.113
		c0.653,0.281,1.163,0.448,1.56,0.574c0.656,0.207,1.252,0.178,1.724,0.108c0.526-0.078,1.619-0.659,1.847-1.295
		c0.228-0.636,0.228-1.181,0.16-1.295C16.496,13.388,16.314,13.32,16.04,13.184 M11.046,19.97h-0.004
		c-1.634-0.001-3.236-0.437-4.634-1.263l-0.333-0.196L2.63,19.41l0.92-3.343l-0.216-0.343c-0.911-1.443-1.393-3.11-1.392-4.822
		c0.002-4.996,4.087-9.06,9.109-9.06c2.431,0.001,4.718,0.945,6.437,2.658c1.719,1.713,2.665,3.989,2.664,6.41
		C20.148,15.905,16.064,19.97,11.046,19.97 M18.795,3.197C16.726,1.137,13.976,0.001,11.046,0C5.008,0,0.094,4.89,0.092,10.901
		c-0.001,1.922,0.504,3.797,1.462,5.45L0,22l5.807-1.516c1.6,0.869,3.401,1.326,5.234,1.327h0.005
		c6.037,0,10.952-4.891,10.954-10.902C22.001,7.997,20.863,5.258,18.795,3.197"/>
</svg>
