<?xml version="1.0" encoding="UTF-8" standalone="no"?>
<svg width="40px" height="40px" viewBox="0 0 40 40" version="1.1" xmlns="http://www.w3.org/2000/svg" xmlns:xlink="http://www.w3.org/1999/xlink">
    <!-- Generator: Sketch 3.7.1 (28215) - http://www.bohemiancoding.com/sketch -->
    <title>Twitter</title>
    <desc>Created with Sketch.</desc>
    <defs></defs>
    <g id="Page-1" stroke="none" stroke-width="1" fill="none" fill-rule="evenodd">
        <g id="twitter-40x40" fill="#FFFFFF">
            <path d="M16.2900483,28.2534849 C23.8372947,28.2534849 27.9647838,22.0011768 27.9647838,16.5787494 C27.9647838,16.4010048 27.9607257,16.223666 27.9526096,16.0479505 C28.7544893,15.4696718 29.4500469,14.746925 29.9999188,13.9239432 C29.2641861,14.2502141 28.4732632,14.4709745 27.6437885,14.569992 C28.4903072,14.0619184 29.1412258,13.2580097 29.447612,12.2998933 C28.6546601,12.7702266 27.776894,13.1115124 26.8419088,13.29575 C26.0931901,12.4983342 25.0267226,12 23.8466283,12 C21.5809935,12 19.7438936,13.8370999 19.7438936,16.1031406 C19.7438936,16.4249475 19.7800106,16.7378267 19.8498099,17.0381258 C16.4397921,16.8668742 13.416105,15.2334907 11.3927384,12.7511535 C11.0396841,13.3570272 10.8371851,14.0619184 10.8371851,14.8138836 C10.8371851,16.2374635 11.5615552,17.4930383 12.6625166,18.2291769 C11.9896843,18.207669 11.3570272,18.0230256 10.8035029,17.7158278 C10.8030971,17.7328718 10.8030971,17.7503216 10.8030971,17.7673656 C10.8030971,19.7558325 12.2181551,21.4135646 14.0950244,21.7909675 C13.750492,21.8847095 13.3885099,21.9350299 13.0139477,21.9350299 C12.7493598,21.9350299 12.4928882,21.9090581 12.2416921,21.8611725 C12.7643748,23.4917154 14.2796677,24.677491 16.0749693,24.7107673 C14.6708681,25.8113229 12.9011326,26.467517 10.9788127,26.467517 C10.6480779,26.467517 10.3209954,26.4480381 10,26.409892 C11.8159978,27.5741597 13.9728757,28.2534849 16.2900483,28.2534849 Z" id="zco-twitter"></path>
        </g>
    </g>
</svg>
