<?xml version="1.0" encoding="UTF-8" standalone="no"?>
<svg width="20px" height="17px" viewBox="0 0 20 17" version="1.1" xmlns="http://www.w3.org/2000/svg" xmlns:xlink="http://www.w3.org/1999/xlink">
    <!-- Generator: Sketch 3.6.1 (26313) - http://www.bohemiancoding.com/sketch -->
    <title>Twitter</title>
    <desc>Created with Sketch.</desc>
    <defs></defs>
    <g id="Page-1" stroke="none" stroke-width="1" fill="none" fill-rule="evenodd">
        <g id="Sharing" transform="translate(-174.000000, -142.000000)" fill="#FFFFFF">
            <g id="Group-7" transform="translate(50.000000, 70.000000)">
                <g id="Group" transform="translate(14.000000, 60.000000)">
                    <path d="M110,26.409892 C111.815998,27.5741597 113.972876,28.2534849 116.290048,28.2534849 C123.837295,28.2534849 127.964784,22.0011768 127.964784,16.5787494 C127.964784,16.4010048 127.960726,16.223666 127.95261,16.0479505 C128.754489,15.4696718 129.450047,14.746925 129.999919,13.9239432 C129.264186,14.2502141 128.473263,14.4709745 127.643788,14.569992 C128.490307,14.0619184 129.141226,13.2580097 129.447612,12.2998933 C128.65466,12.7702266 127.776894,13.1115124 126.841909,13.29575 C126.09319,12.4983342 125.026723,12 123.846628,12 C121.580994,12 119.743894,13.8370999 119.743894,16.1031406 C119.743894,16.4249475 119.780011,16.7378267 119.84981,17.0381258 C116.439792,16.8668742 113.416105,15.2334907 111.392738,12.7511535 C111.039684,13.3570272 110.837185,14.0619184 110.837185,14.8138836 C110.837185,16.2374635 111.561555,17.4930383 112.662517,18.2291769 C111.989684,18.207669 111.357027,18.0230256 110.803503,17.7158278 C110.803097,17.7328718 110.803097,17.7503216 110.803097,17.7673656 C110.803097,19.7558325 112.218155,21.4135646 114.095024,21.7909675 C113.750492,21.8847095 113.38851,21.9350299 113.013948,21.9350299 C112.74936,21.9350299 112.492888,21.9090581 112.241692,21.8611725 C112.764375,23.4917154 114.279668,24.677491 116.074969,24.7107673 C114.670868,25.8113229 112.901133,26.467517 110.978813,26.467517 C110.648078,26.467517 110.320995,26.4480381 110,26.409892" id="twitter"></path>
                </g>
            </g>
        </g>
    </g>
</svg>
