<?xml version="1.0" encoding="UTF-8" standalone="no"?>
<svg width="40px" height="40px" viewBox="0 0 40 40" version="1.1" xmlns="http://www.w3.org/2000/svg" xmlns:xlink="http://www.w3.org/1999/xlink">
    <!-- Generator: Sketch 3.7.1 (28215) - http://www.bohemiancoding.com/sketch -->
    <title>Whatsapp</title>
    <desc>Created with Sketch.</desc>
    <defs></defs>
    <g id="Page-1" stroke="none" stroke-width="1" fill="none" fill-rule="evenodd">
        <g id="whatsapp-40x40" fill="#FFFFFF">
            <path d="M25.040138,22.1838138 C24.7662095,22.0474629 23.4207194,21.3882869 23.1697655,21.2976795 C22.9191061,21.2067789 22.7364871,21.1613286 22.553868,21.4337372 C22.371249,21.706439 21.846661,22.3201647 21.6873112,22.501966 C21.5273723,22.6837672 21.3680224,22.7063457 21.0943884,22.5699948 C20.8204598,22.4339371 19.9385865,22.1459874 18.8932397,21.2182148 C18.0797013,20.4959948 17.5303714,19.6037027 17.3704325,19.3310008 C17.2110827,19.0585922 17.3536433,18.9110987 17.4906076,18.7753342 C17.6137282,18.6530582 17.7645362,18.4571821 17.9012059,18.2979594 C18.0381702,18.1390299 18.083825,18.0252576 18.1745454,17.8434564 C18.2661495,17.6616551 18.2204947,17.5027257 18.1521599,17.3660815 C18.083825,17.2297306 17.5359678,15.8890933 17.3082831,15.3439828 C17.0859002,14.8126541 16.8602774,14.8844949 16.6920911,14.8762845 C16.5327412,14.8683674 16.3501222,14.866608 16.1677977,14.866608 C15.9851786,14.866608 15.6888645,14.9346369 15.4379106,15.2076319 C15.1872512,15.4803337 14.4797497,16.1392165 14.4797497,17.4798539 C14.4797497,18.8204913 15.4605907,20.1159716 15.5972604,20.2974796 C15.7342247,20.479574 17.527426,23.230637 20.2731918,24.4108788 C20.9262021,24.6914977 21.4360627,24.8589308 21.8334064,24.9847255 C22.4893623,25.1920375 23.0858197,25.1624215 23.5576837,25.0926333 C24.0834499,25.0143415 25.1768078,24.4334573 25.404787,23.797153 C25.6330609,23.1608488 25.6330609,22.6157383 25.5644314,22.501966 C25.4963911,22.3881936 25.3137721,22.3201647 25.040138,22.1838138 M20.0460961,28.9699841 L20.0419725,28.9699841 C18.4084156,28.9693977 16.8060807,28.5324883 15.4081614,27.7070521 L15.075618,27.5105895 L11.6300089,28.4099191 L12.5495841,25.066536 L12.3330922,24.7237528 C11.4220588,23.2810721 10.9404747,21.613779 10.9410638,19.9016221 C10.9434201,14.9059005 15.0276068,10.8411772 20.0496307,10.8411772 C22.481115,10.8420569 24.7673877,11.7859571 26.4863631,13.4987005 C28.2053385,15.2114439 29.151423,17.4877711 29.1505394,19.9089528 C29.148183,24.9052608 25.0642909,28.9699841 20.0460961,28.9699841 M27.7947402,12.1970624 C25.7264322,10.1365508 22.9759537,9.00117291 20.0458016,9 C14.0081802,9 9.09396045,13.8901595 9.09160407,19.9010356 C9.09101498,21.8225572 9.59527919,23.6977488 10.5537347,25.350967 L9,31 L14.8069912,29.4840124 C16.4066752,30.3525531 18.2081238,30.8102816 20.0413834,30.8111613 L20.0460961,30.8111613 C26.0831284,30.8111613 30.9976427,25.9204153 30.9999991,19.9095392 C31.0011773,16.9969078 29.8627537,14.2578672 27.7947402,12.1970624" id="zco-whatsapp"></path>
        </g>
    </g>
</svg>
