<?xml version="1.0" encoding="UTF-8" standalone="no"?>
<svg width="22px" height="22px" viewBox="0 0 22 22" version="1.1" xmlns="http://www.w3.org/2000/svg" xmlns:xlink="http://www.w3.org/1999/xlink">
    <!-- Generator: Sketch 3.6.1 (26313) - http://www.bohemiancoding.com/sketch -->
    <title>Whatsapp</title>
    <desc>Created with Sketch.</desc>
    <defs></defs>
    <g id="Page-1" stroke="none" stroke-width="1" fill="none" fill-rule="evenodd">
        <g id="Sharing" transform="translate(-125.000000, -139.000000)" fill="#FFFFFF">
            <g id="Group-7" transform="translate(50.000000, 70.000000)">
                <g id="Group" transform="translate(14.000000, 60.000000)">
                    <path d="M77.040138,22.1838138 C76.7662095,22.0474629 75.4207194,21.3882869 75.1697655,21.2976795 C74.9191061,21.2067789 74.7364871,21.1613286 74.553868,21.4337372 C74.371249,21.706439 73.846661,22.3201647 73.6873112,22.501966 C73.5273723,22.6837672 73.3680224,22.7063457 73.0943884,22.5699948 C72.8204598,22.4339371 71.9385865,22.1459874 70.8932397,21.2182148 C70.0797013,20.4959948 69.5303714,19.6037027 69.3704325,19.3310008 C69.2110827,19.0585922 69.3536433,18.9110987 69.4906076,18.7753342 C69.6137282,18.6530582 69.7645362,18.4571821 69.9012059,18.2979594 C70.0381702,18.1390299 70.083825,18.0252576 70.1745454,17.8434564 C70.2661495,17.6616551 70.2204947,17.5027257 70.1521599,17.3660815 C70.083825,17.2297306 69.5359678,15.8890933 69.3082831,15.3439828 C69.0859002,14.8126541 68.8602774,14.8844949 68.6920911,14.8762845 C68.5327412,14.8683674 68.3501222,14.866608 68.1677977,14.866608 C67.9851786,14.866608 67.6888645,14.9346369 67.4379106,15.2076319 C67.1872512,15.4803337 66.4797497,16.1392165 66.4797497,17.4798539 C66.4797497,18.8204913 67.4605907,20.1159716 67.5972604,20.2974796 C67.7342247,20.479574 69.527426,23.230637 72.2731918,24.4108788 C72.9262021,24.6914977 73.4360627,24.8589308 73.8334064,24.9847255 C74.4893623,25.1920375 75.0858197,25.1624215 75.5576837,25.0926333 C76.0834499,25.0143415 77.1768078,24.4334573 77.404787,23.797153 C77.6330609,23.1608488 77.6330609,22.6157383 77.5644314,22.501966 C77.4963911,22.3881936 77.3137721,22.3201647 77.040138,22.1838138 M72.0460961,28.9699841 L72.0419725,28.9699841 C70.4084156,28.9693977 68.8060807,28.5324883 67.4081614,27.7070521 L67.075618,27.5105895 L63.6300089,28.4099191 L64.5495841,25.066536 L64.3330922,24.7237528 C63.4220588,23.2810721 62.9404747,21.613779 62.9410638,19.9016221 C62.9434201,14.9059005 67.0276068,10.8411772 72.0496307,10.8411772 C74.481115,10.8420569 76.7673877,11.7859571 78.4863631,13.4987005 C80.2053385,15.2114439 81.151423,17.4877711 81.1505394,19.9089528 C81.148183,24.9052608 77.0642909,28.9699841 72.0460961,28.9699841 M79.7947402,12.1970624 C77.7264322,10.1365508 74.9759537,9.00117291 72.0458016,9 C66.0081802,9 61.0939604,13.8901595 61.0916041,19.9010356 C61.091015,21.8225572 61.5952792,23.6977488 62.5537347,25.350967 L61,31 L66.8069912,29.4840124 C68.4066752,30.3525531 70.2081238,30.8102816 72.0413834,30.8111613 L72.0460961,30.8111613 C78.0831284,30.8111613 82.9976427,25.9204153 82.9999991,19.9095392 C83.0011773,16.9969078 81.8627537,14.2578672 79.7947402,12.1970624" id="Whatsapp"></path>
                </g>
            </g>
        </g>
    </g>
</svg>
