<?xml version="1.0" encoding="utf-8"?>
<svg width="185px" height="33px" viewBox="0 0 185 33" version="1.1" xmlns="http://www.w3.org/2000/svg" xmlns:xlink="http://www.w3.org/1999/xlink">
    <title>ZEIT Campus</title>
    <g fill="#ffffff">
        <path d="M42.4726923,21.5109231 L42.9042308,21.5109231 L42.9042308,2.30576923 L42.4726923,2.30576923 L42.4726923,21.5109231 Z M38.6607692,1.14823077 C40.6746154,1.14823077 46.6129231,1.15161538 46.6416923,1.15161538 C46.7694615,1.14569231 46.9209231,1.48584615 46.6941538,1.66015385 C46.5113846,1.79807692 46.1822308,1.81246154 45.9673077,1.88607692 C44.9206154,2.233 44.869,2.76353846 44.7522308,3.81107692 C44.7649231,3.79584615 44.7412308,20.2797692 44.7412308,20.2797692 C44.7640769,20.6512308 44.8190769,20.9668462 44.9730769,21.2756923 C45.2176154,21.7656154 45.7557692,21.9754615 46.2499231,22.1040769 C46.3895385,22.1387692 46.6061538,22.1531538 46.7102308,22.2623077 C46.7813077,22.3367692 46.7897692,22.5330769 46.7406923,22.6261538 C46.7305385,22.638 46.7254615,22.6498462 46.7186923,22.6591538 C46.6924615,22.6718462 46.6653846,22.6853846 46.6383077,22.6972308 C46.4242308,22.7564615 46.1610769,22.7234615 45.9241538,22.7234615 C45.5408462,22.7234615 39.6922308,22.7251538 39.3072308,22.7234615 C39.094,22.7133077 38.8799231,22.7082308 38.6633077,22.7023077 C38.6226923,22.6904615 38.6226923,22.6938462 38.6226923,22.6532308 C38.5812308,22.5449231 38.5854615,22.3452308 38.6666923,22.2623077 C38.7673846,22.1531538 38.9856923,22.1387692 39.1261538,22.1040769 C39.6059231,21.9830769 40.084,21.791 40.3657692,21.3459231 C40.678,20.8390769 40.6289231,20.1122308 40.6373846,19.4530769 C40.6373846,18.9479231 40.6323077,8.49623077 40.6306154,3.77469231 C40.5993077,3.28561538 40.5637692,2.76861538 40.2667692,2.41830769 C39.9579231,2.05784615 39.5534615,1.925 39.1253077,1.80061538 C38.9780769,1.75830769 38.7631538,1.75830769 38.6675385,1.64746154 C38.5634615,1.52223077 38.5304615,1.27346154 38.6607692,1.14823077 L38.6607692,1.14823077 Z"></path>
        <path d="M22.9383846,2.31846154 L22.9383846,21.5117692 L23.3386154,21.5117692 L23.3335385,2.31846154 L22.9383846,2.31846154 L22.9383846,2.31846154 Z M33.6557692,1.06192308 C33.8046923,1.06530769 33.9493846,1.06023077 34.0263846,1.18546154 C34.2996923,1.87253846 34.573,2.56046154 34.8488462,3.25261538 C35.2736154,4.36784615 35.7973846,5.45261538 36.3338462,6.51961538 C36.608,7.06369231 36.1510769,7.02476923 36.1392308,7.02476923 C35.8845385,6.94946154 35.2016923,6.02969231 34.9757692,5.78346154 C34.3733077,5.12684615 33.6896154,4.46684615 32.9602308,3.99046154 C32.3264615,3.58007692 31.6893077,3.25684615 30.9861538,2.98607692 C29.2921538,2.33453846 27.3781538,2.19830769 25.2103077,2.31423077 C25.2103077,2.31423077 25.2348462,11.0939231 25.2145385,11.0939231 L28.6922308,11.0939231 C28.897,11.0922308 28.9926154,11.0829231 29.139,11.066 C29.2354615,11.0516154 29.3226154,11.0372308 29.4182308,11.0253846 C29.4876154,11.0143846 29.5553077,10.9974615 29.6272308,10.9856154 C29.7702308,10.9500769 29.9132308,10.9145385 30.0562308,10.8764615 C30.3498462,10.8028462 30.6392308,10.6903077 30.9133846,10.5718462 C31.7950769,10.1868462 32.5126154,9.41769231 33.1345385,8.66376923 C33.2377692,8.536 33.4146154,8.43107692 33.572,8.55461538 C33.6684615,8.63246154 33.6676154,8.75515385 33.6261538,8.86515385 C33.3283077,9.52769231 33.0304615,10.1868462 32.7317692,10.8468462 C32.6056923,11.1091538 32.4694615,11.3917692 32.3755385,11.6726923 C32.307,11.8757692 32.6099231,12.3792308 32.7072308,12.5746923 C32.9204615,13.0502308 33.1353846,13.5223846 33.3494615,14.0013077 C33.4467692,14.2221538 33.6083846,14.4565385 33.6540769,14.6968462 C33.6684615,14.7916154 33.6422308,14.872 33.5728462,14.9286923 C33.5068462,14.9836923 33.385,15.0065385 33.3037692,14.9633846 C33.1734615,14.8897692 33.077,14.7459231 32.9906923,14.6333846 C32.8104615,14.4303077 32.6336154,14.2280769 32.4542308,14.0224615 C32.0599231,13.6146154 31.6055385,13.2727692 31.13,13.0163846 C30.5613846,12.7083846 29.6602308,12.4443846 28.6820769,12.3936154 C28.6922308,12.4012308 25.2170769,12.3893846 25.2145385,12.3893846 C25.2145385,15.4338462 25.2026923,18.4791538 25.2026923,21.5261538 L27.9002308,21.5261538 C28.2344615,21.4999231 28.2928462,21.4999231 28.4764615,21.4872308 C28.7201538,21.4728462 28.7844615,21.461 28.9452308,21.4516923 C29.0543846,21.4398462 29.161,21.428 29.2676154,21.4144615 C29.3623846,21.4034615 29.4596923,21.3916154 29.5553077,21.3806154 C29.6407692,21.3679231 29.7236923,21.3535385 29.8074615,21.3442308 C29.8785385,21.3306923 29.9496154,21.3171538 30.0223846,21.3086923 C30.0951538,21.2943077 30.0765385,21.2993846 30.2364615,21.2714615 C30.6595385,21.1851538 30.7703846,21.153 31.0276154,21.0793846 C31.3550769,20.9998462 31.6867692,20.8822308 32.0015385,20.7722308 C33.5982308,20.2010769 34.8936923,19.096 36.0046923,17.7565385 C36.0630769,17.6795385 36.6748462,16.9222308 36.6748462,16.9222308 C36.9794615,16.9907692 37.0336154,17.1371538 36.9033077,17.4307692 C36.894,17.4536154 34.5552308,22.7894615 34.5552308,22.8148462 C33.6083846,22.7903077 32.5938462,22.759 31.6055385,22.7133077 C28.6465385,22.7133077 20.5429231,22.7073846 19.4513846,22.7073846 C19.3769231,22.7073846 19.1010769,22.7395385 19.0782308,22.5863846 C19.0266154,22.4687692 19.0181538,22.3435385 19.1247692,22.2453846 C19.2440769,22.1336923 19.4716923,22.1235385 19.6231538,22.0795385 C19.9776923,21.9763077 20.3559231,21.8510769 20.6266923,21.5853846 C20.9414615,21.2663846 21.0396154,20.8018462 21.0641538,20.3373077 C21.0658462,15.6030769 21.0692308,4.86284615 21.0692308,4.22823077 C21.0692308,2.98269231 20.9795385,2.19915385 19.7763077,1.84461538 C19.547,1.78876923 19.1095385,1.80569231 19.0621538,1.60430769 C19.0257692,1.48584615 18.9783846,1.26669231 19.1306923,1.188 C19.2736923,1.11692308 19.7466923,1.133 19.954,1.133 L32.9001538,1.133 C33.2208462,1.10253846 33.3393077,1.10253846 33.6557692,1.06192308 L33.6557692,1.06192308 Z"></path>
        <path d="M14.0275385,2.31 L2.98523077,21.516 L3.44638462,21.5168462 L14.5301538,2.31 L14.0275385,2.31 L14.0275385,2.31 Z M3.16546154,1.05261538 C3.76453846,1.07630769 4.96353846,1.12538462 4.96353846,1.12538462 L17.2276923,1.12538462 C17.2276923,1.12538462 5.53976923,21.4677692 5.53976923,21.516 L8.81269231,21.516 C8.99630769,21.5109231 9.54969231,21.4821538 9.72569231,21.4821538 C10.4846923,21.4195385 10.4102308,21.4762308 11.2868462,21.2316923 C11.7996154,21.1005385 12.1253846,20.9499231 12.4799231,20.8246923 C13.7195385,20.3855385 14.8787692,19.6341538 15.8137692,18.6263846 C16.1826923,18.2261538 16.4983077,17.8140769 16.819,17.3977692 C16.9484615,17.2336154 17.0533846,16.9831538 17.2403846,16.8621538 C17.3402308,16.7944615 17.5026923,16.8333846 17.5720769,16.9222308 C17.6533077,17.0161538 17.5500769,17.2336154 17.5500769,17.2336154 C17.5500769,17.2336154 15.2290769,22.8266923 15.1173846,22.7657692 C15.1131538,22.7615385 14.5597692,22.7615385 13.5579231,22.7420769 C13.0070769,22.7395385 12.4545385,22.7395385 11.9028462,22.7361538 C11.6176923,22.7243077 0.253,22.7158462 0.253,22.7014615 C0.291076923,22.6777692 11.9764615,2.32438462 11.9764615,2.31 C9.00561538,2.31 6.20484615,2.34892308 4.00315385,3.839 C3.24669231,4.34669231 2.61038462,5.08792308 2.04515385,5.79530769 C1.78284615,6.14561538 1.52476923,6.49507692 1.26330769,6.84623077 C1.18461538,6.92492308 1.05938462,6.94438462 0.954461538,6.90376923 C0.687076923,6.79715385 0.936692308,6.42315385 1.00438462,6.26661538 C1.49430769,5.13615385 1.99692308,4.01753846 2.46315385,2.87776923 C2.69838462,2.27107692 2.93276923,1.66184615 3.16546154,1.05261538 L3.16546154,1.05261538 Z"></path>
        <path d="M56.2616154,2.31423077 L56.2616154,21.516 L56.7100769,21.5210769 L56.6948462,2.31423077 L56.2616154,2.31423077 L56.2616154,2.31423077 Z M49.753,1.05261538 C50.3986154,1.07630769 51.0467692,1.10084615 51.6940769,1.12538462 C54.978,1.12538462 58.2653077,1.12707692 61.5475385,1.12707692 C62.04,1.11692308 63.1433846,1.06023077 63.1433846,1.06023077 C63.1433846,1.06023077 63.3743846,1.56115385 63.4674615,1.76507692 C63.6578462,2.233 63.8507692,2.70176923 64.0428462,3.16715385 C64.3186923,3.77723077 64.5911538,4.38815385 64.8686923,4.99992308 C65.1081538,5.5 65.3459231,5.99415385 65.5845385,6.49084615 C65.6784615,6.76923077 65.4246154,6.93253846 65.2892308,6.80646154 C65.1377692,6.66769231 65.0006923,6.49507692 64.8399231,6.31569231 C64.5936923,6.02292308 64.3550769,5.72761538 64.1105385,5.43315385 C62.5832308,3.75353846 60.9349231,2.34723077 58.5276154,2.34723077 C58.5335385,8.34138462 58.5377692,14.3338462 58.5394615,20.3271538 C58.5944615,20.7908462 58.6545385,21.2113846 58.9591538,21.5498462 C59.1918462,21.8045385 59.5387692,21.9348462 59.8518462,22.0313077 C60.0346154,22.0863077 60.3840769,22.0956154 60.5042308,22.2614615 C60.588,22.3748462 60.5786923,22.5339231 60.544,22.6659231 C60.4060769,22.7556154 60.0633846,22.7023077 59.8213846,22.7023077 C59.8078462,22.6972308 53.0123846,22.7073846 53.0242308,22.7023077 C52.8346923,22.6921538 52.4378462,22.7776154 52.4141538,22.6303846 C52.3591538,22.5127692 52.3616923,22.3316923 52.4539231,22.2369231 C52.5537692,22.1311538 52.7746154,22.1201538 52.9150769,22.0795385 C53.3263077,21.9695385 53.7663077,21.8485385 54.0362308,21.483 C54.4745385,20.8881538 54.3899231,19.8913846 54.3899231,19.0723077 L54.3899231,2.34807692 C52.2237692,2.34807692 50.7252308,3.51576923 49.2960769,4.94746154 C48.9203846,5.32061538 48.5836154,5.73607692 48.2553077,6.13292308 C48.0894615,6.33684615 47.9227692,6.54415385 47.7535385,6.743 C47.6697692,6.81238462 47.564,6.81915385 47.4658462,6.77684615 C47.1993077,6.66430769 47.4362308,6.30553846 47.5047692,6.14984615 C47.685,5.78430769 47.8618462,5.41876923 48.0403846,5.05069231 C48.6834615,3.75776923 49.2656154,2.41323077 49.753,1.05261538 L49.753,1.05261538 Z"></path>
        <path d="M88.8063846,3.33638462 C88.9722308,3.13584615 89.0712308,2.90569231 89.0712308,2.706 C89.0712308,2.37346154 88.8723846,2.14330769 88.1768462,1.74392308 C86.5547692,0.751384615 84.5316154,0.221692308 82.5473846,0.221692308 C76.0514615,0.221692308 71.1166923,5.258 71.1166923,11.8165385 C71.1166923,18.7406154 75.7883077,23.5450769 82.4813846,23.5450769 C85.0291538,23.5450769 87.8798462,22.9172308 89.8006154,21.923 C91.0588462,21.2596154 91.6553846,20.7299231 91.6553846,20.2332308 C91.6553846,20.0343846 91.4582308,19.8338462 91.2593846,19.8338462 C91.1595385,19.8338462 90.9945385,19.8676923 90.8278462,19.9336923 C88.5432308,20.9617692 86.7857692,21.3586154 84.799,21.3586154 C82.3485385,21.3586154 80.1942308,20.5302308 78.5721538,18.9403077 C76.9492308,17.3512308 75.889,14.4015385 75.889,11.3875385 C75.889,9.53107692 76.4203846,7.21261538 77.1810769,5.82069231 C78.2751538,3.83223077 80.2289231,2.60615385 82.2833846,2.60615385 C83.4764615,2.60615385 84.7008462,3.06984615 85.7940769,3.96507692 C86.9194615,4.82561538 86.9533077,4.85861538 87.2841538,4.85861538 C87.5828462,4.85861538 87.7156923,4.76046154 88.0465385,4.32807692 L88.8063846,3.33638462"></path>
        <path d="M98.1826154,16.0769231 C98.1826154,18.1305385 98.0624615,18.7736154 97.5395385,19.5393846 C96.9353846,20.4642308 95.9690769,21.0675385 95.0027692,21.0675385 C93.3933846,21.0675385 92.2248462,19.5791538 92.2248462,17.4857692 C92.2248462,15.4736154 93.3933846,14.1849231 95.2828462,14.1849231 C96.0892308,14.1849231 97.1748462,14.4692308 98.1817692,14.9100769 L98.1817692,16.0769231 L98.1826154,16.0769231 L98.1826154,16.0769231 Z M106.996154,20.4244615 C106.996154,20.1426923 106.836231,19.9421538 106.552769,19.9421538 C106.311615,19.9421538 106.068769,20.0216923 105.425692,20.3838462 C104.782615,20.7062308 104.461077,20.8263846 104.058308,20.8263846 C103.172385,20.8263846 102.771308,20.1426923 102.771308,18.6526154 L102.771308,11.4890769 C102.771308,7.02223077 100.999462,5.01007692 97.1359231,5.01007692 C95.0027692,5.01007692 92.6690769,5.77330769 90.7779231,7.10176923 C89.7303846,7.86584615 89.2878462,8.35069231 89.2878462,8.75261538 C89.2878462,9.075 89.6085385,9.35592308 89.9326154,9.35592308 C90.0933846,9.35592308 90.2947692,9.31530769 90.5359231,9.19346154 C92.8696154,8.14846154 93.6734615,7.90646154 95.0027692,7.90646154 C96.1704615,7.90646154 97.0953077,8.27030769 97.6190769,8.87276923 C98.1030769,9.43715385 98.1826154,9.878 98.1826154,11.6109231 L98.1826154,12.6153077 C96.6933846,12.0923846 95.7270769,11.891 94.3994615,11.891 C90.3345385,11.891 87.318,14.5479231 87.318,18.0899231 C87.318,21.4296923 89.6914615,23.8446154 92.9914615,23.8446154 C95.0442308,23.8446154 96.8160769,23.0796923 98.384,21.4296923 C98.9466923,22.9984615 100.074615,23.8446154 101.605308,23.8446154 C103.013308,23.8446154 104.380692,23.2421538 105.789538,22.0338462 C106.634,21.2697692 106.996154,20.8263846 106.996154,20.4244615 L106.996154,20.4244615 Z"></path>
        <path d="M106.343769,21.8333077 C106.343769,23.2006923 106.503692,23.4012308 107.550385,23.4012308 L109.521923,23.4012308 C110.649846,23.4012308 110.970538,23.0796923 110.970538,21.8333077 L110.970538,14.3871538 C110.970538,12.4934615 111.093231,11.6506923 111.453692,10.8045385 C111.977462,9.59792308 113.104538,8.79323077 114.230769,8.79323077 C114.874692,8.79323077 115.478,9.15369231 115.720846,9.63769231 C115.961154,10.0396154 116.001769,10.3628462 116.001769,11.3680769 L116.001769,21.8730769 C116.001769,23.2006923 116.162538,23.4012308 117.129692,23.4012308 L119.261154,23.4012308 C120.307,23.4012308 120.590462,23.0796923 120.590462,21.8333077 L120.590462,13.9429231 C120.590462,12.3352308 120.790154,11.3283077 121.233538,10.5219231 C121.836846,9.43715385 122.883538,8.79323077 123.891308,8.79323077 C124.574154,8.79323077 125.218077,9.11307692 125.539615,9.63769231 C125.821385,10.0802308 125.902615,10.5219231 125.902615,11.6506923 L125.902615,19.2982308 C125.902615,20.9473846 125.983,21.4296923 126.343462,22.0744615 C126.946769,23.1203077 128.034923,23.7236154 129.363385,23.7236154 C130.810308,23.7236154 132.018615,23.1592308 133.629692,21.791 C134.432692,21.1470769 134.715308,20.7451538 134.715308,20.383 C134.715308,20.1012308 134.513923,19.8600769 134.232154,19.8600769 C134.030769,19.8600769 133.869154,19.9404615 133.468077,20.1824615 C132.704,20.6266923 132.260615,20.7849231 131.736,20.7849231 C130.810308,20.7849231 130.487923,20.2213846 130.487923,18.612 L130.487923,10.2807692 C130.487923,8.62992308 130.288231,7.74315385 129.684077,6.86061538 C128.879385,5.73353846 127.469692,5.00923077 125.982154,5.00923077 C123.889615,5.00923077 122.117769,6.13546154 120.590462,8.46830769 C120.025231,6.37830769 118.213615,5.00923077 116.001769,5.00923077 C114.108923,5.00923077 112.621385,5.97384615 110.970538,8.22884615 C111.051769,7.66530769 111.051769,7.58492308 111.173615,7.02138462 C111.333538,6.41553846 111.375,6.17607692 111.375,5.852 C111.375,5.41115385 111.094077,5.08792308 110.651538,5.08792308 C110.247923,5.08792308 109.926385,5.28930769 109.362846,5.89346154 C108.355923,7.02138462 107.029154,8.18738462 105.901231,8.91253846 C105.216692,9.31446154 105.056769,9.51669231 105.056769,9.87715385 C105.056769,10.1191538 105.217538,10.4026154 105.418077,10.4813077 C106.343769,10.8857692 106.343769,10.8857692 106.343769,11.8097692 L106.343769,21.8333077"></path>
        <path d="M134.015538,30.5656154 C134.015538,31.7722308 134.216923,32.175 134.821923,32.175 C134.982692,32.175 134.982692,32.175 135.386308,32.0556923 L137.518615,31.2890769 C138.363077,31.0081538 138.564462,30.6053846 138.564462,29.0763846 L138.564462,13.0586923 C138.564462,11.3274615 138.683769,10.6014615 139.088231,9.79846154 C139.650923,8.71030769 140.736538,8.02661538 141.986308,8.02661538 C144.278538,8.02661538 145.768615,10.4406923 145.768615,14.2653077 C145.768615,18.3691538 144.480769,20.9067692 142.348462,20.9067692 C141.905923,20.9067692 141.464231,20.7451538 140.657,20.3026154 C140.417538,20.1824615 140.255923,20.1426923 140.094308,20.1426923 C139.611154,20.1426923 139.210077,20.7451538 139.210077,21.4288462 C139.210077,22.7979231 141.541231,23.8446154 144.602615,23.8446154 C147.578538,23.8446154 150.436846,23.0788462 152.57,21.67 C153.376385,21.1876923 154.056692,20.4862308 154.056692,20.163 C154.056692,19.9218462 154.165846,19.2880769 153.923,19.2880769 C153.802846,19.2880769 153.093769,19.9006923 152.891538,20.02 C150.799,21.2680769 149.228538,21.7901538 147.055615,21.9128462 C149.470538,20.0597692 150.799,17.0838462 150.799,13.5816154 C150.799,8.58930769 147.821385,5.00923077 143.674385,5.00923077 C141.662231,5.00923077 139.932692,5.89346154 138.565308,7.74653846 C138.684615,7.18046154 138.726077,6.941 138.805615,6.61776923 C138.926615,6.09569231 138.926615,6.05423077 138.926615,5.89346154 C138.926615,5.37053846 138.605923,5.00923077 138.162538,5.00923077 C137.801231,5.00923077 137.479692,5.20892308 137.037154,5.69376923 C135.667231,7.22107692 135.225538,7.66530769 133.978308,8.58930769 C132.891,9.35423077 132.728538,9.51669231 132.728538,9.91861538 C132.728538,10.2003846 132.931615,10.4813077 133.214231,10.6429231 C133.818385,11.0050769 133.818385,11.0050769 133.896231,11.1252308 C133.975769,11.2868462 134.015538,11.5288462 134.015538,12.6550769 L134.015538,30.5656154"></path>
        <path d="M168.500538,9.43715385 C168.500538,8.51061538 168.620692,7.46392308 168.781462,6.53823077 C168.821231,6.29792308 168.861,6.05507692 168.861,5.93492308 C168.861,5.49238462 168.541154,5.17 168.137538,5.17 C167.736462,5.17 167.414077,5.37138462 167.011308,5.81561538 C165.522077,7.42415385 165.320692,7.62638462 163.347462,9.075 C162.825385,9.43715385 162.663769,9.63769231 162.663769,10.0396154 C162.663769,10.3628462 162.825385,10.5625385 163.269615,10.7241538 C163.832308,10.9661538 163.913538,11.1658462 163.913538,12.133 L163.913538,14.5876923 C163.913538,16.0769231 163.751923,17.0838462 163.348308,17.9274615 C162.785615,19.1755385 161.620462,20.0216923 160.492538,20.0216923 C159.086231,20.0216923 158.399154,19.096 158.399154,17.204 L158.399154,10.8443077 C158.399154,9.03523077 158.479538,7.42415385 158.640308,6.65923077 C158.720692,6.33853846 158.762154,6.09653846 158.762154,5.93492308 C158.762154,5.533 158.439769,5.17 158.037,5.17 C157.553846,5.17 157.393923,5.291 156.468231,6.37915385 C155.903846,6.98161538 154.938385,7.82607692 153.931462,8.591 C152.643615,9.51753846 152.524308,9.63769231 152.524308,10.0396154 C152.524308,10.3628462 152.604692,10.4440769 153.288385,10.8045385 C153.770692,11.0465385 153.812154,11.1658462 153.812154,12.0111538 L153.812154,18.0095385 C153.812154,20.1012308 153.851077,20.4642308 154.297,21.3493077 C155.100846,22.8791538 156.589231,23.7642308 158.479538,23.7642308 C160.574615,23.7642308 162.305,22.638 163.914385,20.2230769 C164.155538,22.5576154 165.323231,23.7236154 167.336231,23.7236154 C168.742538,23.7236154 169.950846,23.1998462 171.439231,21.9534615 C172.324308,21.2291538 172.727923,20.7062308 172.727923,20.3423846 C172.727923,20.0614615 172.486769,19.8203077 172.203308,19.8203077 C172.082308,19.8203077 171.924077,19.9006923 171.721846,19.9819231 C170.593923,20.7062308 170.475462,20.746 169.830692,20.746 C168.903308,20.746 168.500538,20.1824615 168.500538,18.8548462 L168.500538,9.43715385"></path>
        <path d="M182.858923,21.7732308 C184.107,20.405 184.896462,18.4926923 184.896462,16.8841538 C184.896462,15.3940769 184.251692,13.9843846 183.164385,13.0595385 C182.359692,12.4156154 181.515231,12.0526154 178.657769,11.2064615 C176.323231,10.4821538 176.323231,10.4821538 175.719923,10.12 C175.237615,9.79930769 174.914385,9.27469231 174.914385,8.67138462 C174.914385,7.62638462 176,6.78023077 177.369077,6.78023077 C178.536769,6.78023077 179.703615,7.46392308 180.51,8.591 C181.233462,9.63769231 181.273231,9.67915385 181.635385,9.67915385 C182.401154,9.67915385 183.808308,8.18907692 183.808308,7.38438462 C183.808308,6.21753846 180.710538,5.01007692 177.650846,5.01007692 C173.626538,5.01007692 170.850308,7.22192308 170.850308,10.3628462 C170.850308,11.4484615 171.212462,12.5332308 171.856385,13.2998462 C172.580692,14.1451538 173.587615,14.6680769 175.681,15.2324615 C180.309462,16.4805385 181.395923,17.1642308 181.395923,18.8937692 C181.395923,20.4633846 179.905,21.67 178.015538,21.67 C176.406154,21.67 174.714692,20.8678462 172.622154,19.0147692 C171.897,18.4106154 171.576308,18.2083846 171.213308,18.2083846 C170.770769,18.2083846 170.409462,18.5722308 170.409462,19.0943077 C170.409462,19.7788462 170.851154,21.1868462 171.292846,21.8713846 C172.111923,23.2260769 175.077692,24.1703846 178.393769,23.8657692 C180.672462,23.6576154 181.902769,22.7733846 182.858923,21.7732308"></path>
    </g>
</svg>
