<?xml version="1.0" encoding="utf-8"?>
<svg width="21px" height="16px" viewBox="0 0 21 16" version="1.1" xmlns="http://www.w3.org/2000/svg" xmlns:xlink="http://www.w3.org/1999/xlink">
	<title>twitter</title>
	<path fill="#FFFFFF" d="M6.8475962,16c7.4303322,0,11.4932547-6.1545849,11.4932547-11.4919739 c0-0.1761208-0.0038414-0.349678-0.0121689-0.5232363c0.7896576-0.5693474,1.4742851-1.2808714,2.0154533-2.0910225 c-0.7243347,0.3214989-1.5024643,0.5379658-2.3196602,0.6359529c0.833847-0.5001802,1.4742851-1.2911177,1.7759285-2.2344799 c-0.7806892,0.4623947-1.6446381,0.7986231-2.5649452,0.979867C16.4983177,0.489933,15.4486456,0,14.2868948,0 c-2.2306366,0-4.0385857,1.8079491-4.0385857,4.0385857c0,0.3170166,0.035223,0.6250648,0.1043911,0.9209461 C6.9955359,4.7910976,4.0187922,3.1829643,2.0270376,0.7390623C1.6792812,1.335948,1.4801064,2.0295401,1.4801064,2.7698832 c0,1.4012728,0.7128048,2.6373129,1.7964211,3.3622866C2.6149578,6.1110363,1.9918137,5.9291515,1.4468031,5.6268654v0.0505962 c0,1.9571705,1.3929472,3.5896397,3.2399635,3.961092C4.3479767,9.7307777,3.9912539,9.7800903,3.623003,9.7800903 c-0.2606573,0-0.5129881-0.0249767-0.7601967-0.0730095c0.5142698,1.6049309,2.0058441,2.7730865,3.7734461,2.805748 c-1.3820601,1.0829754-3.1246853,1.7291756-5.0171719,1.7291756c-0.3253412,0-0.6468401-0.0192127-0.9632149-0.0569992 C2.4433212,15.3313847,4.5670052,16,6.8475962,16z"/>
</svg>
