<?xml version="1.0" encoding="utf-8"?>
<svg width="28px" height="23px" viewBox="0 0 28 23" version="1.1" xmlns="http://www.w3.org/2000/svg" xmlns:xlink="http://www.w3.org/1999/xlink">
    <title>Z+</title>
	<path fill="#FFFFFF" d="M21,11.5v-3h-1v3h-3v1h3v3h1v-3h3v-1H21z"/>
	<path fill="#FFFFFF" d="M15.4133472,15.0072947c-0.4107494,0.7838974-2.7672472,2.9927797-5.8368034,2.9927797
		H7.4878297l8.2521706-13.6803856H7.9667425c-0.9312682,0-1.8196025-0.0760765-1.8196025-0.0760765
		S4.7015495,7.563386,4.5700922,7.8507853C4.4784698,8.0532103,4.6847301,8.152421,4.8130894,7.9353142
		c0.3943725-0.6660013,2.1214681-2.8406262,5.5765438-2.8406262h1.7611771L4,18.7563877h9.9288073
		c0,0,1.5934248-3.5048475,1.6691122-3.6819143C15.6731644,14.8978519,15.4978876,14.8471346,15.4133472,15.0072947
		L15.4133472,15.0072947z M6.1165991,18.0009632L6.1165991,18.0009632H5.6819482H5.6815057
		c-0.0513434,0-0.0677204-0.0435982-0.0349669-0.0956516l7.6550789-12.7140827
		c0.0323105-0.0524974,0.1004734-0.0956516,0.1513748-0.0956516h0.0004425h0.4333229h0.0004425
		c0.0517864,0,0.0677214,0.0431542,0.0358524,0.0956516L6.2675319,17.9053116
		C6.2352209,17.957365,6.1675005,18.0009632,6.1165991,18.0009632L6.1165991,18.0009632z"/>
</svg>
