<?xml version="1.0" encoding="UTF-8" standalone="no"?>
<svg width="41px" height="50px" viewBox="0 0 41 50" version="1.1" xmlns="http://www.w3.org/2000/svg" xmlns:xlink="http://www.w3.org/1999/xlink" xmlns:sketch="http://www.bohemiancoding.com/sketch/ns">
    <title>Z-logo</title>
    <description>Created with Sketch (http://www.bohemiancoding.com/sketch)</description>
    <defs></defs>
    <g id="Longform" stroke="none" stroke-width="1" fill="none" fill-rule="evenodd" sketch:type="MSPage">
        <g id="Z-logo" sketch:type="MSArtboardGroup" fill="#777777">
            <path d="M7.38610984,47.7272727 L7.01061234,47.7272727 C6.83390763,47.7272727 6.78089622,47.5765063 6.88986412,47.3907134 L33.0966445,2.6092866 C33.2056124,2.42349367 33.4390099,2.27272727 33.6142421,2.27272727 L33.9897396,2.27272727 C34.1649717,2.27272727 34.2194557,2.42349367 34.1104878,2.6092866 L7.90370737,47.3907134 C7.79473947,47.5765063 7.561342,47.7272727 7.38610984,47.7272727 M39.8575433,37.0821914 C38.4229001,39.7826799 30.1943574,47.3911165 19.4743428,47.3911165 L12.1816983,47.3911165 L41,0.261409676 L12.9140423,0.261409676 C9.6646881,0.261409676 6.5587982,0 6.5587982,0 C6.5587982,0 1.51200879,11.4364871 1.05307319,12.4285033 C0.731592928,13.1255958 1.45342127,13.4666945 1.90259229,12.7189585 C3.28015022,10.4251072 9.31241183,2.93285272 21.3784373,2.93285272 L28.4660255,2.93285272 L0,50 L34.6748008,50 C34.6748008,50 40.2391133,37.9245114 40.5027572,37.3145555 C40.7656499,36.7045996 40.1527343,36.528837 39.8575433,37.0821914" id="Z" sketch:type="MSShapeGroup"></path>
        </g>
    </g>
</svg>