<?xml version="1.0" encoding="utf-8"?>
<svg width="190px" height="21px" viewBox="0 0 190 21" version="1.1" xmlns="http://www.w3.org/2000/svg" xmlns:xlink="http://www.w3.org/1999/xlink">
<title>ZEIT ONLINE</title>
<desc>Nachrichten auf ZEIT ONLINE</desc>
<path fill="#1D1D1B" d="M39.488,18.087c-0.583,0-1.547-0.562-1.547-1.435l0.007-14.119c0-0.874,1.009-1.425,1.456-1.425
	c0.157,0,0.178-0.395,0-0.395h-6.293c-0.176,0-0.155,0.395,0,0.395c0.448,0,1.456,0.551,1.456,1.425v14.119
	c0,0.873-0.873,1.435-1.456,1.435c-0.155,0-0.217,0.446,0,0.446h6.378C39.707,18.532,39.645,18.087,39.488,18.087z M36.638,17.48
	c0,0.064-0.052,0.118-0.118,0.118h-0.44c-0.065,0-0.119-0.054-0.119-0.118V1.787c0-0.065,0.053-0.118,0.119-0.118h0.44
	c0.066,0,0.118,0.053,0.118,0.118V17.48z"/>
<path fill="#1D1D1B" d="M23.136,1.668c3.249,0,5.847,1.224,7.528,3.803c0.097,0.148,0.348,0.071,0.293-0.07
	c-0.082-0.208-1.961-4.688-1.961-4.688L15.979,0.711c-0.173,0-0.153,0.396,0,0.393c0.697,0,1.793,0.762,1.793,1.636v13.235
	c0,1.266-0.835,2.109-1.793,2.109c-0.153,0-0.173,0.447,0,0.447h13.05c0,0,1.808-4.289,1.877-4.46
	c0.069-0.17-0.182-0.339-0.293-0.127c-0.735,1.412-3.506,3.652-7.144,3.652h-2.516v-7.453h3.317c2.173,0,3.271,1.522,3.575,1.943
	c0.145,0.2,0.443,0.121,0.332-0.121c-0.111-0.24-1.153-2.314-1.153-2.314s1.041-2.072,1.153-2.313
	c0.111-0.241-0.125-0.355-0.25-0.142c-0.125,0.213-1.737,1.899-4.001,1.899h-2.972V1.668H23.136z M19.718,17.48
	c0,0.064-0.052,0.118-0.116,0.118h-0.437c-0.064,0-0.115-0.054-0.115-0.118V1.787c0-0.065,0.052-0.118,0.115-0.118h0.437
	c0.064,0,0.116,0.053,0.116,0.118V17.48z"/>
<path fill="#1D1D1B" d="M14.16,13.903c-0.51,0.968-3.433,3.694-7.241,3.694H4.327L14.565,0.712H4.921
	c-1.155,0-2.257-0.094-2.257-0.094S0.87,4.715,0.707,5.07C0.594,5.32,0.85,5.442,1.009,5.174c0.489-0.822,2.632-3.506,6.919-3.506
	h2.185L0,18.531h12.318c0,0,1.977-4.326,2.071-4.545C14.482,13.768,14.265,13.706,14.16,13.903z M2.626,17.598L2.626,17.598H2.087
	H2.086c-0.064,0-0.084-0.054-0.043-0.118L11.54,1.787c0.04-0.065,0.125-0.118,0.188-0.118h0.001h0.538h0.001
	c0.064,0,0.084,0.053,0.044,0.118L2.813,17.48C2.773,17.545,2.689,17.598,2.626,17.598z"/>
<path fill="#1D1D1B" d="M56.037,5.206c-0.093-0.208-1.885-3.859-2.06-4.318c-0.166-0.437-0.5-0.177-0.801-0.177h-9.988
	c-0.301,0-0.635-0.26-0.801,0.177c-0.175,0.459-1.758,4.245-1.852,4.452c-0.094,0.208,0.224,0.383,0.385,0.094
	c0.686-1.238,3.013-3.767,5.562-3.767v14.983c0,0.873-0.874,1.435-1.457,1.435c-0.155,0-0.219,0.446,0,0.446h6.378
	c0.218,0,0.156-0.446,0-0.446c-0.583,0-1.547-0.562-1.547-1.435L49.854,1.668c2.464,0,4.977,2.425,5.798,3.631
	C55.839,5.572,56.13,5.413,56.037,5.206z M48.552,17.48c0,0.064-0.053,0.118-0.118,0.118h-0.44c-0.065,0-0.118-0.054-0.118-0.118
	V1.787c0-0.065,0.053-0.118,0.118-0.118h0.44c0.065,0,0.118,0.053,0.118,0.118V17.48z"/>
<path fill="#1D1D1B" d="M182.17,1.668c3.25,0,5.847,1.224,7.529,3.803c0.097,0.148,0.349,0.071,0.293-0.07
	c-0.082-0.208-1.961-4.688-1.961-4.688l-13.017-0.001c-0.174,0-0.153,0.396,0,0.393c0.696,0,1.793,0.762,1.793,1.636v13.235
	c0,1.266-0.835,2.109-1.793,2.109c-0.153,0-0.174,0.447,0,0.447h13.052c0,0,1.808-4.289,1.877-4.46
	c0.07-0.17-0.181-0.339-0.292-0.127c-0.736,1.412-3.506,3.652-7.145,3.652h-2.516v-7.453h3.317c2.172,0,3.271,1.522,3.575,1.943
	c0.145,0.2,0.443,0.121,0.331-0.121c-0.111-0.24-1.153-2.314-1.153-2.314s1.042-2.072,1.153-2.313
	c0.111-0.241-0.125-0.355-0.25-0.142c-0.125,0.213-1.737,1.899-4.001,1.899h-2.972V1.668H182.17z M178.753,17.48
	c0,0.064-0.052,0.118-0.115,0.118h-0.439c-0.064,0-0.116-0.054-0.116-0.118V1.787c0-0.065,0.052-0.118,0.116-0.118h0.439
	c0.064,0,0.115,0.053,0.115,0.118V17.48z"/>
<path fill="#1D1D1B" d="M152.833,18.087c-0.582,0-1.547-0.562-1.547-1.435l0.006-14.119c0-0.874,1.009-1.425,1.457-1.425
	c0.156,0,0.177-0.395,0-0.395h-6.294c-0.176,0-0.155,0.395,0,0.395c0.448,0,1.457,0.551,1.457,1.425v14.119
	c0,0.873-0.875,1.435-1.457,1.435c-0.155,0-0.217,0.446,0,0.446h6.378C153.052,18.532,152.99,18.087,152.833,18.087z M149.983,17.48
	c0,0.064-0.053,0.118-0.119,0.118h-0.441c-0.066,0-0.118-0.054-0.118-0.118V1.787c0.001-0.065,0.053-0.118,0.118-0.118h0.441
	c0.065,0,0.119,0.053,0.119,0.118V17.48z"/>
<path fill="#1D1D1B" d="M173.322,0.711h-5.461c-0.177,0-0.156,0.395,0,0.395c1.275,0,2.122,0.596,2.122,3.59v8.386l-10.366-12.37
	l-4.949-0.001c-0.176,0-0.156,0.395,0,0.395c0.88,0,2.789,1.006,2.789,2.494v10.054c0,3.695-0.619,4.432-1.956,4.432
	c-0.156,0-0.219,0.446,0,0.446h5.212c0.218,0,0.156-0.446,0-0.446c-1.461,0-2.047-0.737-2.047-4.432l0.005-9.136l12.53,14.577
	l-0.003-14.399c0-2.953,0.913-3.59,2.123-3.59C173.478,1.106,173.499,0.711,173.322,0.711z M170.079,15.36
	c0,0.163-0.497,0.104-0.554,0.04L157.895,1.748c-0.056-0.066-0.049-0.093,0.018-0.093h0.621c0.088,0,0.18,0.107,0.236,0.172
	l11.244,13.19c0.055,0.065,0.066,0.139,0.066,0.237L170.079,15.36L170.079,15.36z"/>
<path fill="#1D1D1B" d="M129.293,0.711h-5.461c-0.177,0-0.156,0.395,0,0.395c1.275,0,2.122,0.596,2.122,3.59v8.386l-10.367-12.37
	l-4.949-0.001c-0.176,0-0.155,0.395,0,0.395c0.881,0,2.788,1.006,2.788,2.494v10.054c0,3.695-0.617,4.432-1.956,4.432
	c-0.156,0-0.218,0.446,0,0.446h5.212c0.218,0,0.156-0.446,0-0.446c-1.461,0-2.047-0.737-2.047-4.432l0.005-9.136l12.53,14.577
	l-0.002-14.399c0-2.953,0.912-3.59,2.122-3.59C129.449,1.106,129.47,0.711,129.293,0.711z M126.027,15.395
	c0,0.163-0.497,0.105-0.553,0.041L113.868,1.748c-0.057-0.066-0.05-0.093,0.016-0.093h0.622c0.088,0,0.18,0.107,0.236,0.172
	l11.219,13.226c0.056,0.064,0.066,0.139,0.066,0.236V15.395z"/>
<path fill="#1D1D1B" d="M101.038,0.277c-4.17,0-9.295,3.146-9.295,9.488c0,5.557,3.517,9.007,9.168,9.007
	c7.334,0,9.469-5.403,9.469-9.159C110.381,4.337,106.338,0.277,101.038,0.277z M93.408,9.9c0-4.503,2.846-7.929,4.495-8.272
	c-1.461,0.842-3.84,3.978-3.752,8.272c0.082,4.02,1.31,5.858,3.106,7.495C95.461,16.275,93.408,14.386,93.408,9.9z M95.562,9.653
	c0-5.658,2.767-8.475,5.467-8.475c3.245,0,5.593,2.656,5.593,8.178c0,5.651-2.712,8.39-5.55,8.39
	C98.182,17.745,95.562,15.97,95.562,9.653z M104.232,17.394c1.461-0.843,3.791-3.711,3.751-8.005
	c-0.037-4.115-1.309-6.125-3.105-7.761c1.796,1.12,3.849,3.276,3.849,7.761C108.727,13.892,105.881,17.05,104.232,17.394z"/>
<path fill="#1D1D1B" d="M145.368,13.749c-0.736,1.413-3.403,3.849-7.042,3.849h-2.085l0.007-15.067c0-0.874,1.175-1.425,1.622-1.425
	c0.156,0,0.177-0.395,0-0.395h-6.701c-0.174,0-0.153,0.396-0.001,0.395c0.697,0,1.793,0.762,1.793,1.636v12.985
	c0,1.685-1.001,2.359-1.959,2.359c-0.153,0-0.173,0.446,0,0.446h12.885c0,0,1.705-4.486,1.774-4.655
	C145.729,13.707,145.478,13.536,145.368,13.749z M134.948,17.48c0,0.064-0.053,0.118-0.118,0.118h-0.442
	c-0.065,0-0.118-0.054-0.118-0.118V1.787c0-0.065,0.053-0.118,0.118-0.118h0.442c0.065,0,0.118,0.053,0.118,0.118V17.48z"/>
<g>
	<path fill="#1D1D1B" d="M74.872,13.264c-0.893,0-1.618,0.708-1.618,1.582c0,0.873,0.724,1.58,1.618,1.58s1.618-0.707,1.618-1.58
		C76.49,13.971,75.765,13.264,74.872,13.264z M73.581,15.377c0,0-0.229-0.572,0-1.066C73.852,14.873,73.581,15.377,73.581,15.377z
		 M75.404,13.591c-0.561,0.271-1.066,0-1.066,0S74.911,13.362,75.404,13.591z M74.338,16.098c0,0,0.505-0.271,1.066,0
		C74.911,16.327,74.338,16.098,74.338,16.098z M75.832,15.807c-0.198,0.223-0.499-0.088-0.962-0.088
		c-0.463,0-0.768,0.301-0.965,0.079c-0.223-0.198,0.082-0.49,0.082-0.953s-0.301-0.763-0.077-0.961
		c0.198-0.223,0.499,0.089,0.962,0.089s0.768-0.303,0.965-0.079c0.224,0.198-0.082,0.49-0.082,0.953
		C75.755,15.308,76.056,15.609,75.832,15.807z M76.16,14.311c0.229,0.494,0,1.066,0,1.066S75.89,14.873,76.16,14.311z"/>
	<path fill="#1D1D1B" d="M74.872,12.619c-0.327,0-0.639,0.068-0.92,0.189c-0.047-0.041-0.093-0.086-0.109-0.12
		c-0.072-0.158-0.2-0.071-0.2-0.071s-0.081-0.178-0.101-0.307c-0.021-0.128-0.149-0.137-0.251-0.033
		c-0.102,0.105-0.185,0.14-0.185,0.14l-1.482-1.43l0.459-0.476l0.202,0.195l-0.329,0.34l0.591,0.571l1.633-1.692l-0.95-0.917
		l-0.629,0.65l0.419,0.405l0.195-0.202l0.124,0.119l-0.336,0.348l-1.258-1.214l0.336-0.348l0.124,0.119L72.01,9.087l0.355,0.343
		l0.629-0.651l-0.95-0.917L70.41,9.554l0.591,0.571l0.329-0.341l0.202,0.195l-0.459,0.475l-1.074-1.037
		c-0.161-0.155-0.394-0.011-0.524,0.124c-0.13,0.135-0.252,0.385-0.092,0.541l3.089,2.983c0,0-0.032,0.085-0.133,0.19
		c-0.102,0.105-0.088,0.234,0.041,0.249c0.129,0.016,0.31,0.091,0.31,0.091s-0.082,0.13,0.077,0.197
		c0.02,0.008,0.044,0.026,0.069,0.048c-0.157,0.302-0.245,0.644-0.245,1.005c0,1.229,1.02,2.226,2.278,2.226
		c1.259,0,2.278-0.996,2.278-2.226C77.149,13.616,76.13,12.619,74.872,12.619z M69.615,10.005c-0.096-0.093-0.086-0.166,0.037-0.294
		c0.062-0.064,0.141-0.182,0.282-0.045l1.126,1.088l0.787-0.816l-0.498-0.48L71,9.819l-0.284-0.275l1.308-1.354l0.658,0.635
		l-0.304,0.315l-0.104-0.102l0.174-0.179l-0.371-0.358l-0.604,0.625l1.523,1.471L73.6,9.973l-0.389-0.376l-0.174,0.18l-0.127-0.122
		l0.304-0.315l0.61,0.589l-1.293,1.34l-0.236-0.228l0.336-0.349l-0.55-0.531l-0.788,0.816l1.661,1.604l-0.323,0.335L69.615,10.005z
		 M72.9,13.394c-0.073-0.088-0.135-0.015-0.193-0.079c-0.037-0.04-0.026-0.099,0.047-0.177c0.096-0.102,0.301-0.322,0.416-0.436
		c0.114-0.115,0.203-0.188,0.271-0.12c0.068,0.068,0.016,0.13,0.104,0.219c0.088,0.087,0.166-0.042,0.239,0.155
		c-0.52,0.359-0.765,0.735-0.765,0.735C72.806,13.561,72.978,13.488,72.9,13.394z M74.872,16.748c-1.076,0-1.948-0.853-1.948-1.903
		c0-1.051,0.872-1.904,1.948-1.904s1.948,0.853,1.948,1.904C76.819,15.896,75.947,16.748,74.872,16.748z"/>
	<path fill="#1D1D1B" d="M87.912,17.706c0.572-0.375,0.447-1.082,0.447-1.082s-0.311,0.219-0.748,0.302
		c-0.275,0.053-0.479,0.468-0.343,0.801c-0.156,0.114-0.187,0.301-0.187,0.301c-0.322,0.135-0.645,0.135-0.645,0.135
		c0.54-1.03,0.52-1.071,0.364-1.747c-0.105-0.456-0.15-0.585-0.343-0.541c-0.322,0.073-0.343-0.604-0.053-1.009
		c0,0,1.009,0.811,2.049-0.041c1.007-0.826,0.718-2.206-0.468-3.422c-1.186-1.218-1.279-1.706-1.259-2.456
		c0.78,0.031,0.874-0.572,0.801-0.666c0.541-0.229,0.301-0.728,0.301-0.728c0.198-0.303,0.094-0.801,0.094-0.801
		c-0.51-0.032-0.812,0.156-0.812,0.156c-0.333-0.104-0.593,0.364-0.593,0.364C85.873,7.283,86.091,8.5,86.091,8.5
		s-0.283,0.719-0.093,1.311c0.51,1.592,1.425,2.019,2.008,3.037c0.233,0.409,0.229,1.196-0.291,1.394
		c-0.489,0.186-0.905-0.188-1.165-1.227c-0.26-1.041-0.354-1.071-0.967-1.893c-0.614-0.822-0.645-1.238-0.686-2.092
		c-0.042-0.853-0.125-1.747-0.125-1.747c0.135,0.031,0.177-0.073,0.177-0.073c-0.26-0.343-0.281-0.749-0.281-0.749
		c0.104,0,0.146-0.083,0.146-0.083C84.5,6.056,84.646,5.962,84.5,5.681c0.177,0.01,0.208-0.125,0.208-0.125
		c-0.375-0.281-0.333-0.53-0.697-0.946c0.104,0.01,0.166-0.063,0.166-0.063c-0.291-0.354-0.405-0.655-0.968-0.551l-0.155-0.177
		c0,0,0.448-0.032,0.666-0.312c0.218-0.281-0.177-0.562-0.177-0.562s-0.092,0.111-0.146,0.094c-0.125-0.042,0.01-0.187-0.166-0.27
		c-0.143-0.068-0.063-0.343,0.156-0.302c0.219,0.042,0.052,0.322,0.208,0.375c0.156,0.053,0.212-0.261,0.354-0.208
		c0.083,0.032,0.104-0.041,0.322-0.416c0.136-0.233-0.083-0.219,0.052-0.51c0.096-0.206,0.125-0.52-0.78-0.655
		c-0.021-0.75-0.718-0.489-0.968-0.51c-0.135-0.489-0.583-0.583-1.218-0.53l-0.051,0.103C80.881,0.095,80.61,0.2,80.61,0.2
		l0.032,0.177c-0.427-0.042-0.593,0.249-0.864,0.301l0.052,0.125c-0.395,0.239-0.333,0.541-0.717,0.748l0.156,0.157l-0.094,0.166
		c-0.416-0.01-0.676,0.187-0.676,0.187C78,1.989,77.875,2.477,77.875,2.477c-0.53,0.094-0.676,0.686-0.624,0.926
		c-0.437,0.136-0.343,0.656-0.343,0.656c-0.281,0.125-0.406,0.53,0.009,0.758c0,0-0.186,0.479-0.737,0.25
		c-0.548-0.227-0.406-0.624-0.312-0.707c0.385,0.312,0.666,0.041,0.624-0.312c0.572-0.166,0.416-0.729,0.416-0.729
		c0.697-0.375,0.26-1.155,0.26-1.155c0.312-0.301,0.01-0.676,0.01-0.676c0.01-0.489-0.312-0.936-0.312-0.936
		c-0.499,0.083-0.686,0.406-0.686,0.406c-0.53,0.01-0.645,0.541-0.645,0.541c-0.551,0.021-0.739,0.52-0.666,0.936
		c-0.333,0.187-0.385,0.666-0.198,0.998c-0.291,0.333-0.042,0.739,0.281,0.749c0,0-0.063,0.5-0.635,0.5
		c-0.572,0-0.79-0.562-0.645-0.801c0.426,0.177,0.624-0.197,0.541-0.53c0.52-0.395,0.063-0.947,0.063-0.947
		c0.322-0.479,0.031-0.842-0.292-1.144c0-0.312-0.239-0.343-0.239-0.343c-0.208-0.572-0.628-0.801-0.628-0.801
		s-0.42,0.229-0.627,0.801c0,0-0.239,0.031-0.239,0.343c-0.322,0.301-0.613,0.666-0.291,1.144c0,0-0.458,0.551,0.062,0.947
		c-0.083,0.333,0.114,0.707,0.541,0.53c0.146,0.239-0.072,0.801-0.645,0.801c-0.572,0-0.635-0.5-0.635-0.5
		c0.322-0.01,0.572-0.416,0.281-0.749c0.187-0.333,0.135-0.812-0.198-0.998c0.072-0.416-0.114-0.915-0.666-0.936
		c0,0-0.114-0.53-0.645-0.541c0,0-0.187-0.322-0.686-0.406c0,0-0.322,0.447-0.312,0.936c0,0-0.301,0.375,0.01,0.676
		c0,0-0.437,0.78,0.26,1.155c0,0-0.156,0.562,0.416,0.729c-0.042,0.354,0.239,0.624,0.624,0.312c0.093,0.083,0.236,0.48-0.312,0.707
		c-0.551,0.229-0.737-0.25-0.737-0.25c0.415-0.228,0.29-0.634,0.01-0.758c0,0,0.093-0.52-0.343-0.656
		c0.052-0.239-0.093-0.832-0.624-0.926c0,0-0.125-0.488-0.624-0.416c0,0-0.26-0.198-0.676-0.187L66.97,1.708l0.156-0.157
		c-0.384-0.207-0.322-0.508-0.718-0.748l0.052-0.125c-0.271-0.052-0.437-0.343-0.863-0.301L65.628,0.2c0,0-0.27-0.104-0.697-0.083
		L64.88,0.013c-0.636-0.053-1.083,0.041-1.218,0.53c-0.25,0.021-0.947-0.239-0.968,0.51c-0.905,0.135-0.876,0.448-0.78,0.655
		c0.136,0.291-0.083,0.277,0.052,0.51c0.219,0.375,0.239,0.448,0.322,0.416c0.142-0.053,0.198,0.26,0.354,0.208
		c0.156-0.052-0.01-0.332,0.208-0.375c0.219-0.041,0.299,0.235,0.157,0.302c-0.177,0.083-0.042,0.228-0.166,0.27
		c-0.053,0.018-0.146-0.094-0.146-0.094S62.3,3.227,62.518,3.507c0.219,0.281,0.666,0.312,0.666,0.312l-0.155,0.177
		c-0.562-0.104-0.677,0.197-0.968,0.551c0,0,0.063,0.074,0.166,0.063c-0.364,0.416-0.322,0.666-0.697,0.946
		c0,0,0.031,0.136,0.208,0.125c-0.146,0.281,0,0.375-0.312,0.697c0,0,0.042,0.083,0.146,0.083c0,0-0.021,0.406-0.281,0.749
		c0,0,0.042,0.104,0.177,0.073c0,0-0.083,0.894-0.125,1.747c-0.042,0.853-0.073,1.27-0.686,2.092
		c-0.614,0.822-0.708,0.853-0.968,1.893c-0.26,1.04-0.676,1.413-1.165,1.227c-0.521-0.198-0.526-0.985-0.292-1.394
		c0.583-1.019,1.498-1.445,2.008-3.037c0.19-0.592-0.093-1.311-0.093-1.311s0.219-1.217-0.426-1.227c0,0-0.26-0.468-0.593-0.364
		c0,0-0.301-0.188-0.812-0.156c0,0-0.104,0.499,0.094,0.801c0,0-0.239,0.499,0.301,0.728c-0.073,0.094,0.021,0.697,0.801,0.666
		c0.021,0.75-0.073,1.238-1.259,2.456c-1.186,1.217-1.474,2.597-0.468,3.422c1.04,0.852,2.049,0.041,2.049,0.041
		c0.29,0.405,0.27,1.082-0.053,1.009c-0.193-0.044-0.238,0.085-0.343,0.541c-0.156,0.675-0.177,0.717,0.364,1.747
		c0,0-0.322,0-0.645-0.135c0,0-0.031-0.187-0.187-0.301c0.136-0.333-0.068-0.748-0.343-0.801c-0.437-0.083-0.749-0.302-0.749-0.302
		s-0.125,0.708,0.448,1.082c0,0-0.666-0.146-1.03,0.343c0.426,0.147,0.433,0.449,0.832,0.551c0.447,0.115,0.666-0.332,0.666-0.332
		s0.135,0.09-0.031,0.311c-0.125,0.167-0.122,0.241,0.083,0.301c1.644,0.489,3.339,0.354,3.339,0.354s-0.343,0.188-0.479,0.634
		c0.707-0.177,1.987,0.333,2.767-0.78c0,0,0.905-0.249,2.164-0.468c0,0-0.281,0.166-0.447,0.457c0,0,1.103,0.541,2.528-0.281
		c0.069-0.04,0.167,0.072,0.063,0.114c-0.603,0.24-0.739,0.603-0.739,0.603s1.227,0.656,2.445-0.146c0,0-0.187,0.604,0.437,0.812
		c0,0,0.593-0.218,1.228-0.354c0,0-0.063,0.156,0.072,0.218c0,0,0.51-0.082,0.898-0.54c0.388,0.457,0.898,0.54,0.898,0.54
		c0.136-0.062,0.072-0.218,0.072-0.218c0.635,0.136,1.228,0.354,1.228,0.354c0.624-0.208,0.437-0.812,0.437-0.812
		c1.217,0.801,2.444,0.146,2.444,0.146s-0.135-0.364-0.739-0.603c-0.104-0.041-0.006-0.153,0.062-0.114
		c1.425,0.822,2.528,0.281,2.528,0.281c-0.166-0.291-0.447-0.457-0.447-0.457c1.259,0.218,2.163,0.468,2.163,0.468
		c0.78,1.113,2.06,0.603,2.767,0.78c-0.135-0.446-0.478-0.634-0.478-0.634s1.696,0.135,3.339-0.354
		c0.205-0.06,0.208-0.135,0.083-0.301c-0.166-0.221-0.031-0.311-0.031-0.311s0.218,0.446,0.666,0.332
		c0.399-0.102,0.405-0.405,0.832-0.551C88.578,17.56,87.912,17.706,87.912,17.706z M58.27,18.33
		c-0.27-0.031-0.489-0.271-0.489-0.271s0.197-0.176,0.52-0.146C58.624,17.945,58.634,18.371,58.27,18.33z M58.572,17.55
		c-0.412-0.168-0.385-0.51-0.385-0.51s0.104,0.061,0.322,0.114C58.895,17.248,58.853,17.664,58.572,17.55z M58.884,18.048
		c-0.073,0.115-0.229-0.073-0.239-0.166C58.644,17.882,58.984,17.892,58.884,18.048z M83.776,4.468c0,0-0.148,0.038-0.257,0.023
		c-0.109-0.015-0.154,0.066-0.008,0.148c0.444,0.249,0.577,0.623,0.577,0.623s-0.223-0.033-0.475-0.249
		c-0.109-0.093-0.168,0.011-0.086,0.148c0.14,0.233,0.685,0.288,0.763,0.857c0,0-0.32-0.117-0.545-0.335
		c-0.105-0.102-0.174-0.03-0.109,0.101c0.18,0.359,0.771,0.413,0.794,1.059c0,0-0.233-0.078-0.459-0.311
		c-0.112-0.116-0.203,0-0.078,0.163s0.444,0.32,0.483,0.669c0.039,0.351,0.141,1.939,0.218,2.406
		c0.078,0.467,0.21,1.005,0.763,1.674c0.553,0.67,0.633,0.818,0.818,1.464c0.412,1.44,0.927,1.806,1.58,1.619
		c0.654-0.187,0.905-1.216,0.405-1.954c-0.67-0.989-2.484-2.438-1.807-4.073c0,0-0.226-0.374,0.055-0.724
		c0,0,0.086,0.054,0.116,0.163c0.18-0.156,0-0.382,0.265-0.591c0,0,0.093,0.093,0.078,0.233c0.21-0.054,0.148-0.553,0.802-0.538
		c0.07,0.577-0.281,0.452-0.412,0.763c0,0,0.202-0.054,0.288,0.008c-0.102,0.389-0.374,0.265-0.491,0.436
		c0,0,0.132,0.008,0.218,0.116c0,0-0.132,0.483-0.709,0.296c0,0-0.164,0.172-0.117,0.724c0.044,0.521,0.171,1.004,1.16,2.126
		c0.347,0.394,1.106,1.176,1.106,1.97c0,0.74-0.522,1.401-1.215,1.401c-0.872,0-1.254-0.63-1.37-1.222
		c-0.049-0.247-0.327-0.154-0.28,0.132c0.07,0.428,0.233,0.834,0.233,0.834s-0.116,0.234-0.21,0.529
		c-0.093,0.295-0.078,0.401,0.008,0.537c0.148,0.233,0.041,0.545,0.311,0.506c0.163-0.024,0.165,0.049,0.234,0.288
		c0.148,0.513,0.116,0.537,0.015,0.825c-0.101,0.288-0.277,0.745-0.343,0.865c-0.125,0.225-0.249-0.04-0.49,0.093
		c-0.199,0.109-0.428,0.024-0.273-0.171c0,0-0.109-0.078-0.195,0.031c0,0-0.148-0.467-0.537-0.258c0,0-0.187-0.202-0.358-0.148
		c0,0,0.194-0.312,1.214,0.008c0.163,0.051,0.296-0.218,0.078-0.297c0,0,0.163-0.537,0.187-0.638c0.024-0.102,0.07-0.13-0.109-0.281
		c-1.137-0.958-1.23-0.903-1.378-1.495c-0.148-0.592-0.222-0.692-0.405-1.145c-0.475-1.175-0.354-1.577-0.693-1.954
		c-0.694-0.77-0.942-1.23-0.942-1.23s-0.062-0.008-0.078,0.063c-0.241-0.18-0.132-0.374-0.358-0.553c0,0-0.078,0.047-0.094,0.194
		c-0.35-0.257-0.264-0.701-0.397-0.872c0,0-0.086,0.038-0.125,0.163c0,0-0.117-0.203-0.117-0.288c0-0.086-0.046-0.141,0.102-0.257
		c0.148-0.116,0.203-0.07,0.241,0.062c0.218-0.179,0.32-0.428,0.546-0.654c0,0,0.109,0.047,0.187,0.187c0,0,0.203-0.273,0.327-0.732
		c0.21,0.038,0.321-0.001,0.296-0.281c-0.047-0.529,0.21-0.653,0.179-1.284c-0.012-0.226-0.227-0.148-0.218,0.031
		c0.023,0.506-0.14,0.514-0.194,0.958c-0.311-0.389-0.272,0.156-0.405,0.747c0,0-0.083-0.034-0.125-0.171
		c-0.078-0.257-0.179,0.14-0.459,0.623c-0.07-0.179-0.086-0.296-0.304-0.038c-0.218,0.257-0.999,0.922-1.752,1.471
		c-0.288,0.21-0.101,0.385-0.226,0.646c-0.086,0.18-0.249,0.32-0.249,0.32s-0.102-0.18-0.296-0.171c0,0,0.047-0.35-0.249-0.491
		c0,0,0.374-0.474-0.07-0.818c0.272-0.094,0.366-0.063,0.14-0.459c0,0,0.249-0.241-0.023-0.561c0.257-0.179,0.337,0.064,0.359,0.304
		c0.031,0.342,0.202,0.662,0.389,0.49c0.203-0.186,1.13-1.145,1.386-1.581c0.257-0.436,0.125-0.771,0.786-1.549
		c0.122-0.143,0.002-0.278-0.125-0.163c-0.078,0.069-0.242,0.139-0.242,0.139s-0.023-0.405,0.242-0.77
		c0.108-0.149,0.015-0.234-0.203-0.031c0,0-0.031-0.327,0.491-0.771c0.143-0.121,0.047-0.187-0.194-0.101
		c0,0,0.102-0.295,0.428-0.366c0.327-0.07,0.428,0.054,0.444,0.116c0.016,0.063,0.132,0.078,0.14,0
		c0.008-0.078,0.101-0.257,0.335-0.218c0.233,0.04,0.218,0.194,0.218,0.265c0,0.07,0.05,0.135,0.116,0.054
		C83.161,4.211,83.535,4.11,83.776,4.468z M84.885,18.132c-0.135,0.156-0.312,0.25-0.312,0.25c-0.031-0.208,0.136-0.364,0.136-0.364
		C84.885,18.028,84.885,18.132,84.885,18.132z M84.021,17.167c0,0-0.935-0.054-1.313,1.066c0,0-0.275,0.018-0.44-0.055
		c0,0,0.22-0.103,0.357-0.534c0.137-0.431,0.27-0.897,0.351-1.182c0.11-0.387-0.324-0.249-0.214-0.607
		c0.195-0.632,0.149-0.699,0.378-0.772c0.229-0.074,0.303-0.055,0.577-0.495c0,0,0.137,0.314,0.193,0.672
		c0.055,0.358,0.36,0.624,1.478,1.497c0,0-0.055,0.33-0.165,0.605c-1.176-0.22-1.093,0.137-1.533,0.983c0,0-0.193,0.019-0.385-0.027
		C83.306,18.316,84.03,17.968,84.021,17.167z M82.924,18.277c0.079-0.342,0.465-0.716,0.823-0.807
		C83.654,17.848,83.282,18.189,82.924,18.277z M84.156,17.986c0.177,0.011,0.197,0.094,0.197,0.094
		c-0.249,0.208-0.384,0.333-0.384,0.333C83.917,18.132,84.156,17.986,84.156,17.986z M78.209,11.573c0,0-0.023,1.355-0.042,2.345
		c-0.035,1.67-0.636,3.774-5.049,3.774c-4.413,0-5.014-2.104-5.048-3.774c-0.02-0.991-0.043-2.345-0.043-2.345
		c0.114-0.054,0.18-0.14,0.18-0.14c-0.214-0.194-0.28-0.351-0.28-0.351c0.446,0.071,0.601-0.167,0.601-0.167
		c-0.32-0.34-0.434-0.567-0.434-0.567c0.287,0.033,0.54-0.06,0.54-0.06c0.053-0.53-0.5-0.557-0.527-0.977
		c0.134,0.013,0.247,0.093,0.247,0.093c0.327-0.686-0.387-0.686-0.241-1.271c0.22-0.073,0.32-0.233,0.32-0.233
		c-0.093-0.02-0.14-0.053-0.14-0.053c0.247-0.107,0.314-0.281,0.314-0.281c0.074,0.18,0.074,0.333,0.074,0.333
		c0.35-0.06,0.457-0.307,0.457-0.307c0.04,0.16,0.167,0.321,0.167,0.321c0.28-0.1,0.38-0.3,0.38-0.3s1.869,0.04,3.433,0.04
		s3.434-0.04,3.434-0.04s0.1,0.2,0.38,0.3c0,0,0.126-0.16,0.167-0.321c0,0,0.107,0.247,0.457,0.307c0,0,0-0.153,0.073-0.333
		c0,0,0.067,0.174,0.314,0.281c0,0-0.047,0.033-0.141,0.053c0,0,0.1,0.16,0.32,0.233c0.147,0.585-0.567,0.585-0.241,1.271
		c0,0,0.114-0.08,0.247-0.093c-0.026,0.42-0.58,0.447-0.527,0.977c0,0,0.254,0.093,0.54,0.06c0,0-0.114,0.227-0.434,0.567
		c0,0,0.153,0.238,0.6,0.167c0,0-0.066,0.157-0.28,0.351C78.029,11.433,78.096,11.52,78.209,11.573z M67.772,10.803
		c0,0-0.057-0.217,0.17-0.299c0,0,0.121,0.186,0.314,0.355C68.256,10.859,68.055,10.996,67.772,10.803z M67.87,11.408
		c0,0-0.25,0.008-0.435-0.153c0,0,0.008-0.147,0.145-0.171C67.579,11.085,67.748,11.182,67.87,11.408z M65.522,6.404
		c0.822,0.773,0.5,1.35,0.5,1.35s-0.231-0.241-0.241-0.51c-0.01-0.269-0.317-0.658-0.317-0.658
		C65.531,6.528,65.522,6.404,65.522,6.404z M65.397,5.807c0.183-0.014,0.154-0.226,0.154-0.226s0.269,0.183,0.452,0.456
		c0.236,0.354,0.119,0.413,0.187,0.789C65.657,6.413,65.397,5.807,65.397,5.807z M65.127,4.067c0,0,0.372,0.238,0.383,0.825
		c0.004,0.218-0.207,0.321-0.3-0.02l0.083-0.114C65.292,4.758,64.982,4.429,65.127,4.067z M64.484,3.14c0,0,0.139,0.12,0.333,0.23
		c0.311,0.176,0.1,0.578,0.1,0.578s-0.057-0.096-0.364-0.269C64.324,3.549,64.404,3.19,64.484,3.14z M64.454,3.858
		c0,0-0.09,0.02-0.209-0.02l0.109-0.1C64.354,3.738,64.374,3.808,64.454,3.858z M64.777,1.663c-0.413,0.01-0.503-0.278-0.383-0.438
		s0.374-0.07,0.349,0.08C64.719,1.455,64.777,1.663,64.777,1.663z M64.603,2.936c-0.15-0.083-0.08-0.649,0.233-0.34
		c0.21,0.207,0.17,0.594,0.17,0.594S64.857,3.076,64.603,2.936z M64.673,2.217c-0.176-0.284,0.03-0.473,0.234-0.239
		c0.204,0.233,0.14,0.499,0.14,0.499S64.798,2.417,64.673,2.217z M65.023,1.683c0,0-0.155-0.155-0.093-0.517
		c0,0,0.475,0.02,0.63,0.527C65.561,1.693,65.302,1.632,65.023,1.683z M65.24,2.498c0.31,0.279,0.683,0.393,0.61,1.001
		C65.355,3.167,65.21,3.035,65.24,2.498z M65.726,4.398c-0.331-0.496-0.703-0.548-0.496-1.075C65.23,3.323,65.85,3.581,65.726,4.398
		z M65.127,1.919c0.465-0.103,0.713,0.238,0.713,0.651C65.84,2.57,65.261,2.457,65.127,1.919z M65.657,5.379
		c0,0-0.029-0.211,0.096-0.394c0.822,0.49,0.629,1.226,0.629,1.226C66.141,5.951,66.151,5.697,65.657,5.379z M66.132,2.62
		c0,0,0.914,0.25,0.76,1.167c-0.279-0.528-0.831-0.462-0.918-0.898c0,0,0.13,0.048,0.226,0.029
		C66.199,2.918,66.132,2.775,66.132,2.62z M66.122,3.443c0.683,0.298,0.596,1.091,0.596,1.091c-0.231-0.35-0.697-0.379-0.774-0.745
		c0.087,0,0.167-0.077,0.167-0.077C66.061,3.586,66.122,3.443,66.122,3.443z M66.022,4.241c0.321,0.36,0.62,0.408,0.524,1.11
		c0,0-0.376-0.298-0.601-0.616C65.945,4.735,66.051,4.572,66.022,4.241z M66.385,7.494c0,0,0.186,0.057,0.468,0.088
		c0,0,0.113,0.444,0.686,0.404c0.04,0.169-0.009,0.177-0.154,0.226C67.24,8.26,67.11,8.373,67.078,8.809
		c-0.008,0.114-0.072,0.114-0.177-0.008l-0.597-0.686C66.304,8.115,66.409,7.801,66.385,7.494z M67.385,7.72
		c-0.363-0.088-0.233-0.507-0.161-0.58c0.072-0.072,0.096-0.229-0.081-0.162c-0.315,0.121-0.177,0.331-0.379,0.291
		c-0.202-0.041-0.331-0.09-0.331-0.09c0.097-0.202,0.121-0.42,0.121-0.42c0.048,0.048,0.153-0.009,0.153-0.009
		c-0.153-0.306,0.032-0.435,0.032-0.435s0.286,0.273,0.468,0.395c0.146,0.097,0.225,0.036,0.252-0.016
		c0.208-0.411,0.572-0.209,0.572-0.209c0.444-0.275,0.702-0.032,0.702-0.032c0.452-0.219,0.71,0.055,0.71,0.055l0.17,0.371
		c-0.266-0.088-0.508,0.016-0.508,0.016c-0.217-0.137-0.541-0.048-0.541-0.048c-0.363-0.145-0.556,0.097-0.556,0.097
		c-0.121-0.17-0.299-0.259-0.21-0.033c0.057,0.145,0.073,0.364-0.065,0.34c-0.137-0.024-0.202,0.057-0.089,0.193
		C67.45,7.51,67.385,7.72,67.385,7.72z M80.26,2.89c-0.087,0.437-0.639,0.37-0.918,0.898c-0.154-0.917,0.76-1.167,0.76-1.167
		c0,0.154-0.068,0.298-0.068,0.298C80.13,2.938,80.26,2.89,80.26,2.89z M81.49,1.305c-0.024-0.15,0.23-0.24,0.349-0.08
		c0.119,0.16,0.03,0.448-0.383,0.438C81.456,1.663,81.514,1.455,81.49,1.305z M81.68,3.678c-0.308,0.173-0.364,0.269-0.364,0.269
		s-0.211-0.403,0.1-0.578c0.194-0.11,0.333-0.23,0.333-0.23C81.83,3.19,81.909,3.549,81.68,3.678z M81.879,3.738l0.11,0.1
		c-0.12,0.04-0.21,0.02-0.21,0.02C81.859,3.808,81.879,3.738,81.879,3.738z M81.226,3.19c0,0-0.041-0.386,0.17-0.594
		c0.314-0.309,0.384,0.256,0.234,0.34C81.376,3.076,81.226,3.19,81.226,3.19z M81.56,2.217c-0.124,0.2-0.373,0.26-0.373,0.26
		s-0.064-0.265,0.139-0.499C81.53,1.744,81.737,1.933,81.56,2.217z M81.21,1.683c-0.279-0.052-0.538,0.01-0.538,0.01
		c0.155-0.507,0.63-0.527,0.63-0.527C81.365,1.528,81.21,1.683,81.21,1.683z M81.025,4.871c-0.094,0.341-0.304,0.239-0.3,0.02
		c0.01-0.586,0.382-0.825,0.382-0.825c0.145,0.362-0.165,0.69-0.165,0.69L81.025,4.871z M80.769,6.586c0,0-0.308,0.389-0.317,0.658
		c-0.01,0.27-0.241,0.51-0.241,0.51s-0.321-0.578,0.5-1.35C80.712,6.404,80.702,6.528,80.769,6.586z M80.044,6.827
		c0.067-0.375-0.049-0.435,0.187-0.789c0.183-0.273,0.452-0.456,0.452-0.456s-0.029,0.212,0.154,0.226
		C80.837,5.807,80.577,6.413,80.044,6.827z M80.507,4.398c-0.124-0.817,0.496-1.075,0.496-1.075
		C81.21,3.85,80.838,3.901,80.507,4.398z M81.106,1.919c-0.135,0.538-0.713,0.651-0.713,0.651
		C80.394,2.156,80.642,1.815,81.106,1.919z M80.993,2.498c0.031,0.538-0.114,0.669-0.61,1.001
		C80.311,2.89,80.683,2.777,80.993,2.498z M80.481,4.985c0.125,0.183,0.096,0.394,0.096,0.394c-0.495,0.317-0.485,0.572-0.724,0.832
		C79.853,6.211,79.659,5.476,80.481,4.985z M79.93,8.115l-0.597,0.686c-0.104,0.121-0.169,0.121-0.177,0.008
		c-0.032-0.436-0.161-0.549-0.306-0.597s-0.194-0.057-0.154-0.226c0.573,0.04,0.686-0.404,0.686-0.404
		c0.282-0.032,0.468-0.088,0.468-0.088C79.825,7.801,79.93,8.115,79.93,8.115z M80.288,4.735c-0.226,0.318-0.601,0.616-0.601,0.616
		c-0.096-0.702,0.202-0.75,0.523-1.11C80.183,4.572,80.288,4.735,80.288,4.735z M79.515,4.533c0,0-0.086-0.793,0.596-1.091
		c0,0,0.062,0.144,0.01,0.269c0,0,0.081,0.077,0.168,0.077C80.211,4.154,79.746,4.183,79.515,4.533z M79.494,6.315
		c0,0,0.185,0.129,0.032,0.435c0,0,0.105,0.057,0.153,0.009c0,0,0.024,0.217,0.121,0.42c0,0-0.129,0.048-0.331,0.09
		c-0.202,0.04-0.065-0.171-0.379-0.291c-0.176-0.068-0.153,0.09-0.08,0.162c0.072,0.073,0.202,0.492-0.161,0.58
		c0,0-0.065-0.209-0.259-0.274c0.113-0.137,0.048-0.217-0.089-0.193s-0.121-0.194-0.065-0.34c0.089-0.226-0.088-0.137-0.209,0.033
		c0,0-0.194-0.242-0.557-0.097c0,0-0.323-0.088-0.541,0.048c0,0-0.242-0.105-0.508-0.016l0.17-0.371c0,0,0.258-0.274,0.71-0.055
		c0,0,0.258-0.243,0.701,0.032c0,0,0.363-0.202,0.572,0.209c0.026,0.053,0.107,0.114,0.252,0.016
		C79.209,6.589,79.494,6.315,79.494,6.315z M78.025,9.131c-0.016-0.298,0.226-0.46,0.226-0.46c0.177,0,0.153,0.217,0.153,0.217
		C78.187,8.979,78.025,9.131,78.025,9.131z M78.316,10.028c-0.282,0.193-0.508,0.072-0.508,0.072c0.178-0.258,0.42-0.324,0.42-0.324
		C78.388,9.843,78.316,10.028,78.316,10.028z M78.106,7.873c0.266-0.128,0.346-0.29,0.346-0.29c0.202,0.057,0.177,0.186,0.177,0.186
		C78.348,8.018,78.106,7.873,78.106,7.873z M78.001,7.591c-0.387-0.097-0.25-0.517-0.25-0.517c0.145-0.121,0.339,0.024,0.339,0.024
		C77.977,7.357,78.001,7.591,78.001,7.591z M77.533,7.058c-0.072,0.21-0.121,0.557-0.121,0.557
		c-0.339-0.259-0.161-0.541-0.161-0.541C77.363,7.001,77.533,7.058,77.533,7.058z M76.993,7.114
		c-0.113,0.243-0.146,0.517-0.146,0.517c-0.202-0.233-0.097-0.517-0.097-0.517C76.863,7.042,76.993,7.114,76.993,7.114z
		 M73.117,6.609c-1.923,0-3.005,0.436-3.223,0.506c-0.218,0.07-0.241-0.093-0.086-0.163c0.156-0.07,1.433-0.576,3.31-0.576
		c1.876,0,3.153,0.506,3.309,0.576c0.155,0.07,0.132,0.233-0.086,0.163C76.121,7.045,75.04,6.609,73.117,6.609z M75.431,7.146
		c0,0-0.508,0.047-2.314,0.047c-1.807,0-2.312-0.047-2.312-0.047s0.514-0.311,2.312-0.311C74.916,6.835,75.431,7.146,75.431,7.146z
		 M69.661,6.52c0.012-0.003,0.025-0.004,0.038-0.004c0.091,0,0.164,0.072,0.164,0.163c0,0.046-0.019,0.087-0.049,0.116L69.661,6.52z
		 M70.041,6.485c0-0.09,0.073-0.163,0.163-0.163c0.091,0,0.164,0.074,0.164,0.163c0,0.091-0.073,0.164-0.164,0.164
		C70.114,6.648,70.041,6.575,70.041,6.485z M70.602,6.344c0-0.09,0.074-0.163,0.164-0.163c0.091,0,0.164,0.074,0.164,0.163
		c0,0.091-0.073,0.164-0.164,0.164C70.675,6.508,70.602,6.435,70.602,6.344z M71.194,6.204c0-0.091,0.074-0.164,0.164-0.164
		c0.091,0,0.164,0.074,0.164,0.164c0,0.091-0.073,0.163-0.164,0.163C71.267,6.368,71.194,6.295,71.194,6.204z M71.777,6.118
		c0-0.091,0.073-0.163,0.164-0.163c0.091,0,0.163,0.073,0.163,0.163c0,0.091-0.073,0.164-0.163,0.164
		C71.851,6.282,71.777,6.209,71.777,6.118z M72.369,6.072c0-0.091,0.073-0.164,0.164-0.164c0.09,0,0.163,0.074,0.163,0.164
		s-0.073,0.163-0.163,0.163C72.442,6.235,72.369,6.162,72.369,6.072z M72.953,6.056c0-0.091,0.074-0.163,0.164-0.163
		s0.164,0.072,0.164,0.163s-0.074,0.163-0.164,0.163S72.953,6.146,72.953,6.056z M73.537,6.072c0-0.091,0.073-0.164,0.164-0.164
		c0.091,0,0.163,0.074,0.163,0.164s-0.073,0.163-0.163,0.163C73.611,6.235,73.537,6.162,73.537,6.072z M74.129,6.118
		c0-0.091,0.073-0.163,0.164-0.163c0.09,0,0.163,0.073,0.163,0.163c0,0.091-0.073,0.164-0.163,0.164
		C74.202,6.282,74.129,6.209,74.129,6.118z M74.713,6.204c0-0.091,0.073-0.164,0.164-0.164c0.091,0,0.164,0.074,0.164,0.164
		c0,0.091-0.073,0.163-0.164,0.163C74.786,6.367,74.713,6.295,74.713,6.204z M75.304,6.344c0-0.09,0.074-0.163,0.164-0.163
		s0.164,0.074,0.164,0.163c0,0.091-0.073,0.164-0.164,0.164C75.377,6.508,75.304,6.435,75.304,6.344z M75.865,6.485
		c0-0.09,0.074-0.163,0.164-0.163s0.164,0.074,0.164,0.163c0,0.091-0.074,0.164-0.164,0.164S75.865,6.575,75.865,6.485z
		 M76.421,6.795c-0.031-0.03-0.049-0.071-0.049-0.116c0-0.091,0.074-0.163,0.164-0.163c0.013,0,0.025,0.001,0.037,0.004
		L76.421,6.795z M73.117,5.729c-1.783,0-3.519,0.662-3.519,0.662l-0.272-0.405c0,0,0.477,0.24,1.043,0.07
		c0.623-0.187,0.755-0.607,0.755-0.607s0.428,0.326,1.075,0.241c0.515-0.068,0.919-0.49,0.919-0.49s0.404,0.422,0.918,0.49
		c0.646,0.085,1.075-0.241,1.075-0.241s0.132,0.42,0.755,0.607c0.566,0.17,1.043-0.07,1.043-0.07l-0.272,0.405
		C76.635,6.391,74.9,5.729,73.117,5.729z M76.986,5.737c-0.435,0.257-1.449,0.311-1.807-0.561c0,0-0.42,0.393-1.074,0.32
		c-0.553-0.062-0.989-0.607-0.989-0.607s-0.436,0.545-0.989,0.607c-0.653,0.074-1.074-0.32-1.074-0.32
		c-0.358,0.872-1.371,0.818-1.807,0.561c-0.111-0.066-0.062-0.194,0.054-0.14s0.436,0.226,0.903,0.125
		c0.624-0.135,0.802-0.786,0.802-0.786s0.483,0.537,1.191,0.389C72.794,5.2,73.116,4.6,73.116,4.6s0.322,0.6,0.919,0.724
		c0.708,0.148,1.191-0.389,1.191-0.389s0.178,0.651,0.802,0.786c0.467,0.102,0.786-0.07,0.903-0.125
		C77.049,5.542,77.097,5.671,76.986,5.737z M69.386,7.631c0,0-0.032-0.274-0.146-0.517c0,0,0.129-0.072,0.242,0
		C69.483,7.114,69.588,7.398,69.386,7.631z M68.822,7.615c0,0-0.048-0.347-0.121-0.557c0,0,0.169-0.057,0.282,0.016
		C68.983,7.074,69.161,7.357,68.822,7.615z M68.144,7.098c0,0,0.193-0.145,0.339-0.024c0,0,0.137,0.42-0.25,0.517
		C68.232,7.591,68.256,7.357,68.144,7.098z M67.781,7.582c0,0,0.081,0.162,0.347,0.29c0,0-0.242,0.146-0.524-0.105
		C67.603,7.768,67.579,7.639,67.781,7.582z M67.982,8.672c0,0,0.242,0.162,0.226,0.46c0,0-0.161-0.153-0.379-0.242
		C67.83,8.89,67.805,8.672,67.982,8.672z M68.007,9.777c0,0,0.242,0.066,0.419,0.324c0,0-0.226,0.121-0.508-0.072
		C67.918,10.028,67.845,9.843,68.007,9.777z M77.977,10.859c0.194-0.17,0.315-0.355,0.315-0.355
		c0.226,0.081,0.169,0.299,0.169,0.299C78.178,10.996,77.977,10.859,77.977,10.859z M78.655,11.085
		c0.137,0.024,0.146,0.171,0.146,0.171c-0.186,0.161-0.435,0.153-0.435,0.153C78.485,11.182,78.655,11.085,78.655,11.085z
		 M83.191,3.13c-0.13,0.05-0.299-0.064-0.11-0.205C83.221,3.016,83.191,3.13,83.191,3.13z M82.842,0.895
		c0.249-0.02,0.309,0.11,0.27,0.329c-0.02,0.108-0.032,0.188,0.229,0.179c0.629-0.02,0.758,0.139,0.618,0.27
		c-0.098,0.092-0.16,0.166-0.03,0.264c0.16,0.119-0.003,0.456-0.18,0.389c-0.529-0.199-0.685-0.179-0.888,0.28
		c-0.204,0.46-0.254,0.853,0.639,0.743c0,0-0.016,0.229-0.589,0.2c-0.573-0.03-0.673-0.923,0.02-1.651
		c0.163-0.171,0.139-0.264,0.03-0.374c-0.01-0.209-0.01-0.4-0.414-0.209c-0.359,0.169-0.329,0.289-0.12,0.28
		c0.21-0.01,0.359,0.149,0.359,0.149s-0.348,0.33-0.489,0.912c-0.199,0.823,0.28,1.082,0.28,1.082s-0.289,0.22-0.589-0.17
		c0,0,0.139-0.34-0.06-0.563c0,0,0.11-0.32-0.149-0.698c0,0,0.189-0.189,0.06-0.583c0,0,0.379-0.16,0.199-0.599
		C82.039,1.125,82.402,0.931,82.842,0.895z M82.264,0.617l-0.192,0.096c-0.212-0.163-0.25-0.37-0.25-0.37
		C82.13,0.227,82.264,0.617,82.264,0.617z M81.88,0.827c-0.317,0.174-0.706-0.192-0.725-0.355C81.587,0.28,81.678,0.664,81.88,0.827
		z M81.279,0.953c0,0-0.346,0.241-0.885-0.202C80.394,0.751,80.894,0.41,81.279,0.953z M80.769,1.165
		c-0.192,0.404-0.706,0.115-1.072,0.182C80.063,0.693,80.548,1.222,80.769,1.165z M80.404,1.568
		c-0.125,0.398-0.649,0.192-0.966,0.418C79.621,1.452,80.015,1.635,80.404,1.568z M80.278,2.015c0.01,0.413-0.668,0.471-1.004,0.837
		C79.284,1.996,80.278,2.015,80.278,2.015z M79.043,4.279c0,0,0.068,0.048,0.164,0.019c-0.048,0.293,0.058,0.466-0.048,0.851
		c0,0,0.087,0.058,0.192,0.038c0.068,0.365-0.154,0.481,0,0.841c0,0-0.135,0.182-0.423,0.346c0,0-0.379-0.356-0.745-0.183
		c0,0-0.394-0.241-0.716,0c0,0-0.115-0.096-0.317-0.048c0,0,0.26-0.336,0.183-0.792c0,0,0.485-0.466,0.869-1.042
		c0.385-0.578,0.49-1.04,0.716-1.332c0,0,0.077,0.187-0.048,0.37c0,0,0.058,0.077,0.154,0.086
		C78.947,3.894,79.101,4.019,79.043,4.279z M77.902,3.043c0.078,0.108,0.097,0.354,0.019,0.424
		C77.824,3.403,77.772,3.157,77.902,3.043z M77.437,3.653c0.093,0.024,0.156-0.033,0.083-0.146
		c-0.114-0.177-0.094-0.585,0.269-0.758c0,0-0.301,0.69,0.115,1.1c0,0,0.23-0.047,0.225-0.455c-0.006-0.504-0.205-0.998,0.218-1.12
		c0,0-0.088,0.193-0.032,0.436c0.019,0.083,0.115,0.064,0.109-0.083c-0.007-0.148,0.167-0.468,0.574-0.41
		c0,0-0.273,0.394-0.491,0.821c-0.218,0.427-0.25,0.723-0.821,1.541c0,0-0.063-0.582-0.5-0.572
		C77.083,3.787,77.239,3.601,77.437,3.653z M76.233,4.189c-0.083,0.158-0.268,0.055-0.172-0.054
		c0.069-0.075,0.001-0.236-0.158-0.097c-0.418,0.371-0.454,1.105,0.158,1.304c0.611,0.199,1.146-0.295,1.173-0.844
		c0.006-0.125-0.151-0.179-0.151-0.007c0,0.171-0.311,0.12-0.219-0.097c0.13-0.309,0.611-0.139,0.555,0.248
		c-0.09,0.624-0.741,1.084-1.421,0.885c-0.681-0.199-0.864-1.071-0.254-1.619C75.987,3.691,76.373,3.923,76.233,4.189z M75.65,1.966
		c0.109,0.076,0.13,0.296,0.041,0.474C75.56,2.275,75.56,2.062,75.65,1.966z M75.224,2.61c-0.219-0.329-0.13-0.775,0.22-0.824
		c0,0-0.137,0.679,0.295,1.023c0,0,0.371-0.494,0.035-1.133c0,0-0.021-0.336,0.24-0.412c0,0,0.027,0.295,0.137,0.439
		c0.033,0.043,0.074-0.03,0.049-0.165c-0.035-0.178,0.164-0.549,0.521-0.61c0,0,0.412,0.507-0.02,0.823
		c-0.071,0.052-0.027,0.166,0.068,0.124c0.158-0.069,0.241-0.172,0.241-0.172s0.154,0.281-0.103,0.385
		c-0.899,0.364-0.858,0.817-0.858,0.817s0.563,0.11,0.947-0.487c0.11,0.35,0.021,0.631-0.336,0.728
		c-0.106,0.029-0.127,0.122-0.027,0.186c0.151,0.096,0.144,0.48-0.199,0.528c0,0-0.337-0.452-0.885-0.062
		c0,0-0.124-0.515-0.618-0.473C74.682,3.105,74.805,2.583,75.224,2.61z M76.83,2.35c-0.048,0.165-0.349,0.379-0.549,0.385
		C76.365,2.542,76.624,2.357,76.83,2.35z M73.947,3.675c-0.09,0.109-0.25,0.023-0.192-0.082c0.103-0.185-0.052-0.249-0.178-0.082
		c-0.323,0.425-0.165,1.243,0.46,1.42c0.592,0.169,0.988-0.295,1.078-0.535c0.089-0.24,0.08-0.697-0.076-0.658
		c-0.11,0.027,0,0.149-0.09,0.178c-0.186,0.062-0.288-0.274-0.041-0.35c0.247-0.075,0.391,0.098,0.446,0.261
		c0.158,0.467-0.281,1.483-1.27,1.298c-0.924-0.173-0.993-1.245-0.694-1.64C73.735,3.029,74.167,3.346,73.947,3.675z M72.293,2.535
		c0.117-0.025,0.069-0.103,0.014-0.137c-0.336-0.213-0.199-0.673,0.048-0.838c-0.103,0.824,0.618,0.892,0.618,0.892
		s0.171-0.432-0.275-0.817c-0.221-0.191-0.259-0.358-0.144-0.439c0.069-0.048,0.178,0.076,0.247,0.137
		c0.083,0.075,0.149,0.032,0.082-0.054c-0.336-0.439,0.233-0.79,0.233-0.79s0.568,0.35,0.231,0.79
		c-0.066,0.086-0.001,0.129,0.082,0.054c0.069-0.062,0.179-0.185,0.248-0.137c0.115,0.081,0.077,0.248-0.144,0.439
		c-0.446,0.385-0.275,0.817-0.275,0.817s0.721-0.068,0.618-0.892c0.247,0.165,0.384,0.625,0.048,0.838
		c-0.054,0.034-0.103,0.111,0.014,0.137c0.254,0.055,0.377,0.439,0.137,0.618c-0.261-0.158-0.678-0.15-0.959,0.337
		c-0.281-0.487-0.7-0.494-0.961-0.337C71.916,2.975,72.039,2.59,72.293,2.535z M72.541,1.814c0.124,0.014,0.309,0.22,0.288,0.42
		C72.609,2.22,72.499,1.905,72.541,1.814z M73.403,2.234c-0.021-0.199,0.165-0.405,0.288-0.42
		C73.733,1.905,73.623,2.22,73.403,2.234z M71.284,3.915c-0.089-0.03,0.02-0.151-0.09-0.178c-0.155-0.039-0.165,0.418-0.076,0.658
		c0.09,0.241,0.485,0.705,1.077,0.535c0.625-0.177,0.783-0.995,0.46-1.42c-0.126-0.167-0.281-0.103-0.178,0.082
		c0.058,0.105-0.103,0.192-0.192,0.082c-0.219-0.329,0.213-0.646,0.556-0.192c0.3,0.395,0.23,1.467-0.693,1.64
		c-0.989,0.185-1.428-0.831-1.27-1.298c0.055-0.163,0.199-0.336,0.446-0.261C71.572,3.641,71.47,3.977,71.284,3.915z M70.584,1.966
		c0.09,0.097,0.09,0.309-0.041,0.474C70.454,2.261,70.474,2.042,70.584,1.966z M69.802,3.86c-0.343-0.048-0.35-0.432-0.199-0.528
		c0.1-0.064,0.079-0.157-0.027-0.186c-0.357-0.097-0.446-0.378-0.336-0.728c0.384,0.597,0.948,0.487,0.948,0.487
		s0.041-0.453-0.858-0.817c-0.258-0.104-0.103-0.385-0.103-0.385s0.082,0.103,0.24,0.172c0.096,0.042,0.139-0.072,0.069-0.124
		c-0.432-0.315-0.02-0.823-0.02-0.823c0.356,0.062,0.556,0.432,0.521,0.61c-0.026,0.135,0.016,0.207,0.048,0.165
		c0.11-0.144,0.137-0.439,0.137-0.439c0.261,0.075,0.241,0.412,0.241,0.412c-0.336,0.639,0.034,1.133,0.034,1.133
		c0.432-0.344,0.295-1.023,0.295-1.023c0.35,0.048,0.439,0.494,0.219,0.824c0.419-0.027,0.543,0.494,0.295,0.714
		c-0.494-0.041-0.617,0.473-0.617,0.473C70.138,3.407,69.802,3.86,69.802,3.86z M69.404,2.35c0.206,0.007,0.465,0.192,0.549,0.385
		C69.753,2.73,69.452,2.515,69.404,2.35z M69.369,4.395c0.092,0.217-0.22,0.269-0.22,0.097c0-0.172-0.157-0.118-0.151,0.007
		c0.027,0.549,0.562,1.043,1.174,0.844c0.611-0.199,0.577-0.934,0.158-1.304c-0.158-0.139-0.226,0.021-0.158,0.097
		C70.268,4.244,70.083,4.347,70,4.189c-0.139-0.266,0.246-0.499,0.488-0.281c0.61,0.549,0.427,1.42-0.254,1.619
		c-0.68,0.199-1.332-0.261-1.421-0.885C68.759,4.256,69.239,4.087,69.369,4.395z M68.332,3.043c0.13,0.114,0.077,0.36-0.02,0.424
		C68.234,3.397,68.254,3.15,68.332,3.043z M67.81,2.627c-0.006,0.148,0.09,0.166,0.109,0.083c0.056-0.243-0.032-0.436-0.032-0.436
		c0.423,0.122,0.225,0.616,0.218,1.12c-0.005,0.408,0.225,0.455,0.225,0.455c0.417-0.41,0.115-1.1,0.115-1.1
		c0.362,0.173,0.383,0.581,0.269,0.758c-0.072,0.112-0.01,0.17,0.083,0.146c0.198-0.052,0.354,0.135,0.25,0.354
		c-0.437-0.01-0.499,0.572-0.499,0.572c-0.571-0.818-0.603-1.114-0.821-1.541c-0.218-0.427-0.491-0.821-0.491-0.821
		C67.643,2.159,67.816,2.48,67.81,2.627z M67.027,4.298c0.097,0.029,0.164-0.019,0.164-0.019c-0.058-0.26,0.096-0.385,0.019-0.847
		c0.096-0.009,0.154-0.086,0.154-0.086c-0.125-0.183-0.048-0.37-0.048-0.37c0.226,0.292,0.332,0.754,0.716,1.332
		c0.385,0.577,0.87,1.042,0.87,1.042c-0.077,0.456,0.183,0.792,0.183,0.792c-0.202-0.048-0.317,0.048-0.317,0.048
		c-0.321-0.241-0.716,0-0.716,0c-0.366-0.173-0.745,0.183-0.745,0.183c-0.288-0.164-0.423-0.346-0.423-0.346
		c0.154-0.36-0.068-0.476,0-0.841c0.106,0.019,0.193-0.038,0.193-0.038C66.969,4.764,67.074,4.591,67.027,4.298z M66.959,2.852
		c-0.337-0.366-1.014-0.423-1.004-0.837C65.955,2.015,66.95,1.996,66.959,2.852z M66.796,1.986c-0.317-0.226-0.841-0.02-0.965-0.418
		C66.219,1.635,66.613,1.452,66.796,1.986z M66.536,1.347c-0.366-0.067-0.879,0.221-1.072-0.182
		C65.685,1.222,66.171,0.693,66.536,1.347z M65.839,0.751c-0.539,0.443-0.885,0.202-0.885,0.202
		C65.34,0.41,65.839,0.751,65.839,0.751z M65.079,0.472c-0.019,0.163-0.408,0.529-0.725,0.355
		C64.556,0.664,64.647,0.28,65.079,0.472z M64.412,0.343c0,0-0.038,0.206-0.25,0.37l-0.193-0.096
		C63.969,0.617,64.104,0.227,64.412,0.343z M63.153,2.926c0.189,0.14,0.02,0.254-0.11,0.205C63.043,3.13,63.013,3.016,63.153,2.926z
		 M62.734,3.349c0.892,0.11,0.842-0.283,0.639-0.743c-0.204-0.458-0.359-0.479-0.888-0.28c-0.177,0.067-0.339-0.27-0.18-0.389
		c0.13-0.098,0.069-0.172-0.03-0.264c-0.139-0.13-0.01-0.289,0.618-0.27c0.261,0.009,0.249-0.071,0.23-0.179
		c-0.04-0.22,0.02-0.349,0.27-0.329c0.439,0.035,0.803,0.229,0.803,0.229c-0.18,0.439,0.199,0.599,0.199,0.599
		c-0.13,0.393,0.06,0.583,0.06,0.583c-0.259,0.379-0.149,0.698-0.149,0.698c-0.2,0.223-0.06,0.563-0.06,0.563
		c-0.299,0.389-0.589,0.17-0.589,0.17s0.479-0.26,0.28-1.082c-0.142-0.582-0.489-0.912-0.489-0.912s0.149-0.16,0.359-0.149
		c0.21,0.01,0.239-0.11-0.12-0.28c-0.404-0.191-0.404,0-0.413,0.209c-0.11,0.11-0.133,0.203,0.03,0.374
		c0.692,0.729,0.593,1.621,0.02,1.651C62.749,3.579,62.734,3.349,62.734,3.349z M59.795,17.315
		c-0.101-0.288-0.132-0.311,0.016-0.825c0.069-0.24,0.07-0.312,0.233-0.288c0.271,0.038,0.163-0.273,0.311-0.506
		c0.086-0.135,0.101-0.241,0.008-0.537c-0.093-0.295-0.21-0.529-0.21-0.529s0.164-0.405,0.234-0.834
		c0.047-0.287-0.232-0.379-0.281-0.132c-0.117,0.591-0.498,1.222-1.371,1.222c-0.693,0-1.215-0.661-1.215-1.401
		c0-0.795,0.759-1.577,1.106-1.97c0.989-1.121,1.116-1.605,1.16-2.126c0.047-0.552-0.116-0.724-0.116-0.724
		c-0.577,0.187-0.709-0.296-0.709-0.296c0.086-0.109,0.218-0.116,0.218-0.116c-0.116-0.171-0.389-0.047-0.49-0.436
		c0.086-0.062,0.288-0.008,0.288-0.008c-0.132-0.311-0.483-0.187-0.412-0.763c0.653-0.015,0.592,0.483,0.802,0.538
		c-0.015-0.14,0.078-0.233,0.078-0.233c0.265,0.21,0.086,0.435,0.265,0.591c0.031-0.109,0.117-0.163,0.117-0.163
		c0.28,0.35,0.054,0.724,0.054,0.724c0.677,1.635-1.137,3.084-1.807,4.073c-0.5,0.738-0.249,1.767,0.405,1.954
		c0.654,0.187,1.167-0.179,1.58-1.619c0.185-0.646,0.265-0.794,0.818-1.464c0.553-0.669,0.685-1.206,0.763-1.674
		c0.078-0.467,0.18-2.055,0.218-2.406c0.039-0.35,0.358-0.506,0.483-0.669c0.125-0.163,0.034-0.279-0.078-0.163
		c-0.226,0.233-0.459,0.311-0.459,0.311c0.023-0.646,0.615-0.701,0.794-1.059c0.065-0.131-0.003-0.203-0.109-0.101
		c-0.226,0.218-0.545,0.335-0.545,0.335c0.077-0.568,0.623-0.623,0.763-0.857c0.082-0.137,0.024-0.242-0.086-0.148
		c-0.252,0.216-0.475,0.249-0.475,0.249s0.132-0.374,0.576-0.623c0.146-0.082,0.102-0.163-0.008-0.148
		c-0.109,0.016-0.257-0.023-0.257-0.023c0.242-0.359,0.616-0.258,0.732-0.118c0.068,0.081,0.117,0.015,0.117-0.054
		c0-0.07-0.015-0.226,0.218-0.265c0.234-0.038,0.327,0.14,0.334,0.218c0.008,0.078,0.125,0.063,0.14,0
		c0.016-0.062,0.117-0.187,0.444-0.116c0.327,0.07,0.428,0.366,0.428,0.366c-0.242-0.086-0.338-0.02-0.195,0.101
		c0.522,0.444,0.491,0.771,0.491,0.771c-0.218-0.203-0.31-0.118-0.202,0.031c0.265,0.365,0.241,0.77,0.241,0.77
		s-0.164-0.07-0.241-0.139c-0.127-0.115-0.247,0.02-0.125,0.163c0.662,0.778,0.529,1.113,0.786,1.549
		c0.257,0.436,1.183,1.395,1.386,1.581c0.187,0.171,0.359-0.148,0.389-0.49c0.022-0.241,0.102-0.483,0.358-0.304
		c-0.272,0.32-0.023,0.561-0.023,0.561c-0.226,0.396-0.132,0.365,0.14,0.459c-0.444,0.343-0.07,0.818-0.07,0.818
		c-0.296,0.141-0.249,0.491-0.249,0.491c-0.195-0.008-0.296,0.171-0.296,0.171s-0.164-0.14-0.249-0.32
		c-0.125-0.261,0.063-0.435-0.226-0.646c-0.752-0.549-1.534-1.214-1.752-1.471c-0.218-0.257-0.233-0.141-0.304,0.038
		c-0.28-0.483-0.381-0.88-0.459-0.623c-0.041,0.137-0.125,0.171-0.125,0.171c-0.132-0.591-0.093-1.137-0.405-0.747
		c-0.055-0.444-0.218-0.452-0.194-0.958c0.008-0.179-0.207-0.257-0.219-0.031C63.3,7.077,63.557,7.201,63.51,7.73
		c-0.024,0.28,0.086,0.32,0.296,0.281c0.125,0.46,0.327,0.732,0.327,0.732c0.078-0.14,0.187-0.187,0.187-0.187
		c0.226,0.226,0.327,0.476,0.545,0.654c0.039-0.132,0.093-0.179,0.241-0.062c0.148,0.116,0.102,0.171,0.102,0.257
		c0,0.085-0.117,0.288-0.117,0.288c-0.038-0.125-0.124-0.163-0.124-0.163c-0.132,0.171-0.047,0.615-0.398,0.872
		c-0.015-0.148-0.093-0.194-0.093-0.194c-0.226,0.179-0.116,0.373-0.358,0.553c-0.016-0.071-0.078-0.063-0.078-0.063
		s-0.249,0.46-0.942,1.23c-0.339,0.377-0.218,0.779-0.693,1.954c-0.183,0.452-0.257,0.553-0.405,1.145
		c-0.148,0.591-0.242,0.537-1.378,1.495c-0.179,0.151-0.132,0.18-0.109,0.281c0.024,0.101,0.187,0.638,0.187,0.638
		c-0.218,0.079-0.085,0.348,0.077,0.297c1.02-0.32,1.215-0.008,1.215-0.008c-0.171-0.054-0.358,0.148-0.358,0.148
		c-0.389-0.21-0.537,0.258-0.537,0.258c-0.086-0.109-0.194-0.031-0.194-0.031c0.156,0.194-0.074,0.281-0.272,0.171
		c-0.241-0.132-0.366,0.132-0.491-0.093C60.071,18.06,59.896,17.603,59.795,17.315z M63.257,16.462
		c0.081,0.286,0.214,0.752,0.351,1.182s0.357,0.534,0.357,0.534c-0.165,0.074-0.44,0.055-0.44,0.055
		c-0.378-1.12-1.313-1.066-1.313-1.066c-0.009,0.801,0.715,1.149,0.715,1.149c-0.193,0.046-0.385,0.027-0.385,0.027
		c-0.44-0.846-0.357-1.203-1.533-0.983c-0.11-0.275-0.165-0.605-0.165-0.605c1.118-0.873,1.423-1.138,1.478-1.497
		c0.055-0.357,0.192-0.672,0.192-0.672c0.275,0.44,0.348,0.422,0.578,0.495c0.229,0.073,0.183,0.14,0.378,0.772
		C63.581,16.212,63.148,16.074,63.257,16.462z M63.31,18.277c-0.359-0.088-0.731-0.428-0.823-0.807
		C62.845,17.561,63.231,17.935,63.31,18.277z M62.264,18.413c0,0-0.135-0.126-0.384-0.333c0,0,0.021-0.083,0.197-0.094
		C62.077,17.986,62.316,18.132,62.264,18.413z M61.662,18.382c0,0-0.177-0.094-0.312-0.25c0,0,0-0.103,0.177-0.114
		C61.526,18.017,61.692,18.174,61.662,18.382z M62.379,19.484c0.197-0.271,1.31-0.686,1.658-0.414
		C63.929,19.213,63.367,19.589,62.379,19.484z M62.535,18.86c-2.497,0.102-3.474-0.344-3.474-0.344l0.114-0.166
		c0.561,0.136,0.769,0.063,0.998,0.166c0.229,0.104,0.27-0.135,0.718,0.032c0.161,0.06,0.229,0,0.322-0.135
		c0.104,0,0.312,0.094,0.405,0.197c0.09,0.099,0.26,0.104,0.219,0.032c-0.042-0.073,0.042-0.177,0.042-0.177
		s0.208,0.031,0.437,0.228c0.151,0.131,0.136-0.031,0.291-0.135c1.082,0,1.675-0.125,1.675-0.125
		c0.447,0.135,0.614-0.198,0.614-0.198c0.166,0.094,0.301,0.083,0.301,0.083c0.219,0.125,0.489,0.135,0.489,0.135
		S64.574,18.776,62.535,18.86z M65.187,17.966c0,0,0.052-0.115,0.177-0.115c0,0,0.26,0.156,0.239,0.365
		C65.603,18.216,65.323,18.153,65.187,17.966z M65.53,17.664c-0.463-0.13-0.619,0.125-0.489,0.395
		c-0.489-0.197-0.395,0.136-0.395,0.136s-0.094,0.135-0.271,0.041c-0.096-0.051-0.375-0.343-0.489-0.624
		c-0.115-0.281-0.187-0.718-0.292-1.04c-0.104-0.323,0.25-0.188,0.188-0.572c-0.043-0.264-0.157-0.687-0.271-0.968
		c-0.114-0.281-0.301-0.166-0.51-0.375c-0.146-0.146-0.354-0.426-0.354-0.426s0.281-0.457,0.499-1.467
		c0.12-0.555,0.364-0.686,0.364-0.686s0.198,0.457,0.697,0.966c0.166,0.17,0.229,0.302,0.26,0.687
		c0.031,0.384,0.187,0.874,0.239,1.425c0.024,0.25,0.074,0.356-0.146,0.708c-0.26,0.416-0.301,0.478-0.052,1.352
		c0.071,0.248,0.186,0.316,0.364,0.271c0.448-0.114,0.666-0.135,0.832-0.011C65.573,17.518,65.53,17.664,65.53,17.664z
		 M65.749,18.454c0,0,0.073-0.125,0.063-0.26c0,0,0.26,0,0.447,0.155C66.259,18.35,65.937,18.434,65.749,18.454z M65.739,17.799
		c0,0,0.021-0.167,0.198-0.177c0,0,0.301,0.208,0.301,0.468C66.238,18.09,66.02,17.945,65.739,17.799z M64.988,17.148
		c-0.192,0.038-0.192,0.017-0.282-0.384c-0.091-0.402-0.018-0.44,0.16-0.754c0.143-0.254,0.245-0.411,0.21-0.647
		c-0.035-0.236-0.149-1.244-0.244-1.719c-0.096-0.474-0.116-0.551-0.65-1.217c-0.278-0.348-0.42-0.681-0.42-0.681l0.253-0.315
		c0.053,0.079,0.158,0.097,0.158,0.097c0.131-0.158,0.096-0.423,0.306-0.537c0.087-0.026,0.183,0.044,0.183,0.044
		c0.169-0.237,0.009-0.28,0.413-0.735c0.088,0.009,0.131,0.122,0.131,0.122c0.175-0.217,0.026-0.375,0.323-0.929
		c0.245,0.175,0.597,0.466,0.859,0.633c0.262,0.166,0.244,0.205,0.35,0.638c0.149,0.606,0.472,0.571,0.472,0.571
		c0.087,0.141,0.361,0.245,0.361,0.245l0.066,2.441c0.081,3.094,2.215,3.89,4.831,4.146c-0.104,0.174-0.047,0.337-0.047,0.337
		s-0.489-0.11-0.882,0.187c-0.153,0.115-0.265,0.06-0.265,0.06c-0.595-0.991-1.454-1.069-1.454-1.069
		c-0.183,0.134,0.175,0.694,0.175,0.694c-0.586-1.113-1.567-1.393-1.567-1.393c-0.026,0.708,0.457,1.052,0.457,1.052l-0.344-0.113
		c-0.236-1.21-1.075-1.384-1.075-1.384c-0.16,0.786,0.446,1.278,0.446,1.278l-0.244-0.046c-0.158-0.42-0.501-0.857-0.501-0.857
		c0.798-1.375,0.079-2.357,0.079-2.357c-0.306,0.42-0.446,0.834-0.446,0.834c-0.122-0.309-0.157-0.606-0.157-0.606
		c1.06-1.419,0.489-2.575,0.489-2.575c-0.42,0.283-0.612,0.79-0.612,0.79l-0.017-0.384c0.656-1.393-0.332-2.296-0.332-2.296
		c-0.798,1.419,0.149,2.296,0.149,2.296l0.018,0.367c-0.335-0.868-0.999-1.043-0.999-1.043c-0.219,1.497,0.973,2.183,0.973,2.183
		c0.009,0.271,0.053,0.507,0.053,0.507c-0.326-0.35-0.729-0.507-0.729-0.507c-0.096,1.751,1.113,2.205,1.113,2.205
		c0.079,0.195,0.105,0.37,0.105,0.37c-0.542-0.361-0.999-0.335-0.999-0.335c0.122,0.964,0.947,1.41,0.947,1.41
		c-0.236,0.012-0.411,0.081-0.411,0.081C65.976,17.121,65.766,16.99,64.988,17.148z M70.882,18.706
		c-0.367-0.052-0.656-0.376-0.743-0.655C70.348,18.112,70.708,18.26,70.882,18.706z M69.542,18.269
		c-0.367-0.052-0.717-0.579-0.725-0.798C69.131,17.55,69.524,17.989,69.542,18.269z M68.263,17.856
		c-0.367-0.141-0.612-0.752-0.577-0.945C68.018,17.043,68.245,17.576,68.263,17.856z M67.368,17.742
		c-0.359-0.088-0.996-0.534-1.084-1.014C66.748,16.832,67.29,17.4,67.368,17.742z M67.185,15.204
		c0.239,0.411,0.052,1.102-0.114,1.145C66.87,16.009,67.062,15.336,67.185,15.204z M66.643,15.938
		c-0.49-0.236-0.781-1.113-0.746-1.305C66.433,14.982,66.625,15.659,66.643,15.938z M66.389,12.347
		c-0.334-0.306-0.326-1.215-0.175-1.463C66.564,11.271,66.512,12.076,66.389,12.347z M66.582,14.31
		c-0.201-0.341,0.14-1.245,0.367-1.445C67.115,13.249,66.817,14.178,66.582,14.31z M66.284,13.73
		c-0.518-0.28-0.694-1.058-0.658-1.25C66.145,12.777,66.267,13.45,66.284,13.73z M66.779,18.902c0.198-0.239,1.217-0.593,1.565-0.32
		C68.235,18.725,67.621,19.089,66.779,18.902z M68.672,19.339c0.249-0.271,1.102-0.499,1.513-0.165
		C70.035,19.297,69.296,19.63,68.672,19.339z M68.714,18.475c-1.236-0.433-2.32-0.146-2.32-0.146l0.167-0.229
		c1.009-0.146,1.644-0.042,2.85,0.375c0.996,0.344,2.226,0.603,2.226,0.603l-0.51,0.125C71.127,19.203,70.315,19.037,68.714,18.475z
		 M71.085,19.797c-0.208-0.094-0.177-0.312-0.177-0.312c0.604-0.167,1.227-0.292,1.227-0.292c0.198,0.052,0.198,0.271,0.198,0.271
		S71.761,19.568,71.085,19.797z M72.593,19.526c-0.021-0.645-0.801-0.645-0.801-0.645c0.822-0.395,1.176,0.312,1.176,0.312
		L72.593,19.526z M73.117,18.174c0.555,0,0.475,0.478,0,0.717C72.642,18.652,72.563,18.174,73.117,18.174z M73.64,19.526
		l-0.375-0.333c0,0,0.354-0.707,1.176-0.312C74.441,18.881,73.661,18.881,73.64,19.526z M75.148,19.797
		c-0.676-0.229-1.248-0.333-1.248-0.333s0-0.219,0.198-0.271c0,0,0.624,0.125,1.227,0.292
		C75.325,19.484,75.356,19.703,75.148,19.797z M77.562,19.339c-0.624,0.291-1.362-0.042-1.513-0.165
		C76.459,18.84,77.312,19.068,77.562,19.339z M77.89,18.581c0.348-0.272,1.367,0.081,1.565,0.32
		C78.612,19.089,77.999,18.725,77.89,18.581z M77.52,18.475c-1.602,0.562-2.413,0.728-2.413,0.728l-0.51-0.125
		c0,0,1.23-0.26,2.226-0.603c1.206-0.416,1.841-0.519,2.85-0.375l0.166,0.229C79.84,18.33,78.756,18.042,77.52,18.475z
		 M75.352,18.706c0.175-0.446,0.533-0.594,0.743-0.655C76.008,18.33,75.719,18.654,75.352,18.706z M76.692,18.269
		c0.017-0.28,0.411-0.719,0.725-0.798C77.409,17.69,77.059,18.217,76.692,18.269z M77.971,17.856
		c0.018-0.28,0.244-0.813,0.577-0.945C78.583,17.103,78.338,17.715,77.971,17.856z M79.949,16.728
		c-0.087,0.48-0.725,0.926-1.084,1.014C78.944,17.4,79.486,16.832,79.949,16.728z M79.049,15.204
		c0.122,0.131,0.315,0.805,0.114,1.145C78.996,16.305,78.81,15.616,79.049,15.204z M79.433,17.768c0,0,0.824-0.446,0.947-1.41
		c0,0-0.457-0.026-0.999,0.335c0,0,0.026-0.175,0.105-0.37c0,0,1.209-0.455,1.113-2.205c0,0-0.402,0.157-0.729,0.507
		c0,0,0.044-0.236,0.053-0.507c0,0,1.192-0.685,0.973-2.183c0,0-0.664,0.175-0.999,1.043l0.018-0.367c0,0,0.947-0.877,0.149-2.296
		c0,0-0.988,0.903-0.332,2.296l-0.018,0.384c0,0-0.192-0.507-0.612-0.79c0,0-0.571,1.156,0.489,2.575c0,0-0.035,0.297-0.158,0.606
		c0,0-0.14-0.414-0.446-0.834c0,0-0.719,0.982,0.079,2.357c0,0-0.344,0.438-0.501,0.857l-0.245,0.046c0,0,0.606-0.492,0.446-1.278
		c0,0-0.839,0.174-1.075,1.384l-0.343,0.113c0,0,0.483-0.344,0.457-1.052c0,0-0.982,0.28-1.567,1.393c0,0,0.358-0.56,0.174-0.694
		c0,0-0.859,0.079-1.454,1.069c0,0-0.111,0.055-0.265-0.06c-0.393-0.298-0.882-0.187-0.882-0.187s0.058-0.163-0.046-0.337
		c2.616-0.256,4.749-1.052,4.831-4.146l0.065-2.441c0,0,0.274-0.105,0.361-0.245c0,0,0.323,0.035,0.472-0.571
		c0.106-0.432,0.087-0.471,0.349-0.638c0.262-0.166,0.614-0.457,0.859-0.633c0.297,0.554,0.149,0.711,0.323,0.929
		c0,0,0.044-0.114,0.131-0.122c0.405,0.455,0.245,0.499,0.414,0.735c0,0,0.096-0.07,0.183-0.044c0.21,0.113,0.175,0.378,0.306,0.537
		c0,0,0.105-0.018,0.157-0.097l0.254,0.315c0,0-0.142,0.334-0.42,0.681c-0.533,0.667-0.554,0.743-0.65,1.217
		c-0.097,0.476-0.21,1.483-0.245,1.719c-0.035,0.236,0.067,0.393,0.21,0.647c0.177,0.314,0.25,0.352,0.16,0.754
		c-0.091,0.401-0.091,0.423-0.283,0.384c-0.778-0.157-0.988-0.026-1.401,0.702C79.844,17.85,79.669,17.78,79.433,17.768z
		 M80.337,14.633c0.035,0.192-0.256,1.069-0.746,1.305C79.608,15.659,79.801,14.982,80.337,14.633z M79.652,14.31
		c-0.236-0.131-0.533-1.061-0.367-1.445C79.512,13.065,79.853,13.969,79.652,14.31z M80.019,10.884
		c0.151,0.248,0.16,1.156-0.175,1.463C79.722,12.076,79.669,11.271,80.019,10.884z M79.949,13.73c0.018-0.28,0.14-0.953,0.658-1.25
		C80.642,12.672,80.468,13.45,79.949,13.73z M79.975,18.35c0.187-0.155,0.447-0.155,0.447-0.155c-0.01,0.135,0.063,0.26,0.063,0.26
		C80.298,18.434,79.975,18.35,79.975,18.35z M79.996,18.09c0-0.26,0.301-0.468,0.301-0.468c0.177,0.011,0.198,0.177,0.198,0.177
		C80.214,17.945,79.996,18.09,79.996,18.09z M81.358,17.488c0.178,0.045,0.294-0.023,0.364-0.271
		c0.25-0.874,0.208-0.936-0.052-1.352c-0.219-0.352-0.169-0.457-0.146-0.708c0.052-0.551,0.208-1.041,0.239-1.425
		c0.031-0.385,0.094-0.517,0.26-0.687c0.499-0.509,0.697-0.966,0.697-0.966s0.244,0.131,0.364,0.686
		c0.218,1.009,0.499,1.467,0.499,1.467s-0.208,0.281-0.354,0.426c-0.208,0.209-0.395,0.094-0.51,0.375
		c-0.114,0.281-0.228,0.703-0.271,0.968c-0.062,0.384,0.292,0.249,0.187,0.572c-0.104,0.322-0.177,0.759-0.291,1.04
		c-0.115,0.281-0.393,0.574-0.489,0.624c-0.177,0.094-0.27-0.041-0.27-0.041s0.093-0.333-0.395-0.136
		c0.13-0.27-0.026-0.526-0.489-0.395c0,0-0.042-0.146-0.177-0.187C80.692,17.352,80.911,17.373,81.358,17.488z M81.046,17.966
		c-0.136,0.187-0.416,0.25-0.416,0.25c-0.021-0.209,0.239-0.365,0.239-0.365C80.994,17.851,81.046,17.966,81.046,17.966z
		 M82.197,19.07c0.348-0.272,1.461,0.143,1.659,0.414C82.866,19.589,82.305,19.213,82.197,19.07z M83.699,18.86
		c-2.039-0.083-3.152-0.406-3.152-0.406s0.27-0.011,0.489-0.135c0,0,0.135,0.011,0.301-0.083c0,0,0.166,0.333,0.614,0.198
		c0,0,0.593,0.125,1.675,0.125c0.156,0.104,0.14,0.266,0.291,0.135c0.229-0.197,0.437-0.228,0.437-0.228s0.083,0.104,0.042,0.177
		c-0.042,0.072,0.129,0.068,0.218-0.032c0.094-0.103,0.301-0.197,0.406-0.197c0.093,0.135,0.161,0.195,0.322,0.135
		c0.447-0.167,0.489,0.073,0.718-0.032c0.229-0.103,0.437-0.031,0.999-0.166l0.114,0.166C87.173,18.517,86.196,18.961,83.699,18.86z
		 M87.35,18.048c-0.1-0.157,0.239-0.166,0.239-0.166C87.579,17.975,87.423,18.163,87.35,18.048z M87.724,17.154
		c0.218-0.053,0.322-0.114,0.322-0.114s0.026,0.342-0.385,0.51C87.381,17.664,87.34,17.248,87.724,17.154z M87.964,18.33
		c-0.364,0.041-0.353-0.385-0.031-0.417c0.322-0.031,0.521,0.146,0.521,0.146S88.233,18.299,87.964,18.33z"/>
	<path fill="#1D1D1B" d="M74.872,14.225c-0.35,0-0.635,0.277-0.635,0.62c0,0.342,0.284,0.62,0.635,0.62s0.635-0.278,0.635-0.62
		C75.506,14.502,75.222,14.225,74.872,14.225z M74.872,15.211c-0.206,0-0.375-0.164-0.375-0.366c0-0.202,0.168-0.366,0.375-0.366
		c0.207,0,0.375,0.164,0.375,0.366C75.246,15.047,75.079,15.211,74.872,15.211z"/>
</g>
</svg>
