<?xml version="1.0" encoding="utf-8"?>
<svg width="142px" height="15px" viewBox="0 0 142 15" version="1.1" xmlns="http://www.w3.org/2000/svg" xmlns:xlink="http://www.w3.org/1999/xlink">
<title>ZEIT ONLINE</title>
<desc>Nachrichten auf ZEIT ONLINE</desc>
<path fill="#1D1D1B" d="M29.35,13.443c-0.433,0-1.15-0.418-1.15-1.067l0.005-10.494c0-0.65,0.75-1.059,1.082-1.059
	c0.117,0,0.132-0.293,0-0.293H24.61c-0.131,0-0.116,0.293,0,0.293c0.333,0,1.082,0.409,1.082,1.059v10.494
	c0,0.649-0.649,1.067-1.082,1.067c-0.116,0-0.162,0.331,0,0.331h4.74C29.513,13.774,29.467,13.443,29.35,13.443z M27.232,12.993
	c0,0.048-0.039,0.088-0.088,0.088h-0.327c-0.049,0-0.088-0.04-0.088-0.088V1.328c0-0.048,0.04-0.088,0.088-0.088h0.327
	c0.049,0,0.088,0.04,0.088,0.088V12.993z"/>
<path fill="#1D1D1B" d="M17.196,1.239c2.415,0,4.346,0.91,5.595,2.826c0.072,0.11,0.259,0.053,0.218-0.052
	c-0.061-0.155-1.458-3.484-1.458-3.484l-9.675-0.001c-0.129,0-0.114,0.294,0,0.292c0.518,0,1.333,0.566,1.333,1.216v9.837
	c0,0.941-0.621,1.567-1.333,1.567c-0.114,0-0.129,0.332,0,0.332h9.7c0,0,1.344-3.188,1.395-3.315
	c0.051-0.126-0.136-0.252-0.218-0.094c-0.546,1.049-2.606,2.714-5.31,2.714h-1.87v-5.54h2.466c1.615,0,2.431,1.131,2.657,1.444
	c0.108,0.149,0.329,0.09,0.247-0.09c-0.083-0.178-0.857-1.72-0.857-1.72s0.774-1.54,0.857-1.72c0.083-0.179-0.093-0.264-0.186-0.105
	c-0.093,0.158-1.291,1.412-2.974,1.412h-2.209V1.239H17.196z M14.656,12.993c0,0.048-0.039,0.088-0.086,0.088h-0.325
	c-0.047,0-0.086-0.04-0.086-0.088V1.328c0-0.048,0.039-0.088,0.086-0.088h0.325c0.048,0,0.086,0.04,0.086,0.088V12.993z"/>
<path fill="#1D1D1B" d="M10.525,10.334c-0.379,0.719-2.552,2.746-5.382,2.746H3.216l7.61-12.551H3.658
	c-0.859,0-1.678-0.07-1.678-0.07S0.647,3.505,0.526,3.768C0.441,3.954,0.631,4.045,0.75,3.846C1.113,3.235,2.706,1.24,5.892,1.24
	h1.624L0,13.773h9.156c0,0,1.469-3.215,1.539-3.378C10.764,10.234,10.603,10.187,10.525,10.334z M1.952,13.08L1.952,13.08H1.551h0
	c-0.047,0-0.062-0.04-0.032-0.088L8.577,1.328c0.03-0.048,0.093-0.088,0.14-0.088h0h0.4h0c0.048,0,0.062,0.04,0.033,0.088
	L2.091,12.993C2.061,13.04,1.999,13.08,1.952,13.08z"/>
<path fill="#1D1D1B" d="M41.651,3.87c-0.069-0.155-1.401-2.869-1.531-3.209c-0.124-0.325-0.371-0.131-0.595-0.131h-7.424
	c-0.224,0-0.472-0.193-0.595,0.131c-0.13,0.341-1.307,3.155-1.377,3.309c-0.07,0.155,0.167,0.284,0.286,0.07
	c0.51-0.92,2.239-2.8,4.134-2.8v11.136c0,0.649-0.65,1.067-1.083,1.067c-0.116,0-0.162,0.331,0,0.331h4.741
	c0.162,0,0.116-0.331,0-0.331c-0.433,0-1.15-0.418-1.15-1.067L37.055,1.24c1.831,0,3.699,1.802,4.31,2.699
	C41.503,4.142,41.72,4.023,41.651,3.87z M36.087,12.993c0,0.048-0.039,0.088-0.088,0.088h-0.327c-0.049,0-0.088-0.04-0.088-0.088
	V1.328c0-0.048,0.04-0.088,0.088-0.088H36c0.049,0,0.088,0.04,0.088,0.088V12.993z"/>
<path fill="#1D1D1B" d="M135.402,1.239c2.415,0,4.346,0.91,5.596,2.826c0.072,0.11,0.259,0.053,0.218-0.052
	c-0.061-0.155-1.458-3.484-1.458-3.484l-9.675-0.001c-0.129,0-0.114,0.294,0,0.292c0.518,0,1.333,0.566,1.333,1.216v9.837
	c0,0.941-0.62,1.567-1.333,1.567c-0.114,0-0.129,0.332,0,0.332h9.701c0,0,1.344-3.188,1.395-3.315
	c0.052-0.126-0.134-0.252-0.217-0.094c-0.547,1.049-2.606,2.714-5.311,2.714h-1.87v-5.54h2.466c1.615,0,2.431,1.131,2.657,1.444
	c0.108,0.149,0.329,0.09,0.246-0.09c-0.082-0.178-0.857-1.72-0.857-1.72s0.774-1.54,0.857-1.72c0.083-0.179-0.093-0.264-0.186-0.105
	c-0.093,0.158-1.291,1.412-2.974,1.412h-2.209V1.239H135.402z M132.862,12.993c0,0.048-0.038,0.088-0.086,0.088h-0.326
	c-0.048,0-0.086-0.04-0.086-0.088V1.328c0-0.048,0.038-0.088,0.086-0.088h0.326c0.047,0,0.086,0.04,0.086,0.088V12.993z"/>
<path fill="#1D1D1B" d="M113.596,13.443c-0.433,0-1.15-0.418-1.15-1.067l0.004-10.494c0-0.65,0.75-1.059,1.083-1.059
	c0.116,0,0.132-0.293,0-0.293h-4.678c-0.131,0-0.116,0.293,0,0.293c0.333,0,1.083,0.409,1.083,1.059v10.494
	c0,0.649-0.65,1.067-1.083,1.067c-0.116,0-0.162,0.331,0,0.331h4.74C113.759,13.774,113.713,13.443,113.596,13.443z M111.478,12.993
	c0,0.048-0.04,0.088-0.088,0.088h-0.328c-0.049,0-0.088-0.04-0.088-0.088V1.328c0-0.048,0.04-0.088,0.088-0.088h0.328
	c0.049,0,0.088,0.04,0.088,0.088V12.993z"/>
<path fill="#1D1D1B" d="M128.826,0.528h-4.059c-0.132,0-0.116,0.293,0,0.293c0.947,0,1.577,0.443,1.577,2.669v6.233l-7.705-9.194
	l-3.678,0c-0.131,0-0.116,0.293,0,0.293c0.654,0,2.073,0.748,2.073,1.853v7.473c0,2.746-0.46,3.294-1.454,3.294
	c-0.116,0-0.163,0.331,0,0.331h3.874c0.162,0,0.116-0.331,0-0.331c-1.086,0-1.522-0.548-1.522-3.294l0.004-6.791l9.313,10.834
	L127.247,3.49c0-2.195,0.678-2.669,1.578-2.669C128.941,0.822,128.957,0.528,128.826,0.528z M126.415,11.417
	c0,0.121-0.369,0.077-0.411,0.029l-8.645-10.147c-0.042-0.049-0.036-0.069,0.013-0.069h0.462c0.066,0,0.134,0.079,0.175,0.128
	l8.357,9.804c0.041,0.049,0.049,0.103,0.049,0.176L126.415,11.417L126.415,11.417z"/>
<path fill="#1D1D1B" d="M96.1,0.528h-4.059c-0.131,0-0.116,0.293,0,0.293c0.947,0,1.578,0.443,1.578,2.669v6.233l-7.705-9.194
	l-3.678,0c-0.131,0-0.116,0.293,0,0.293c0.655,0,2.072,0.748,2.072,1.853v7.473c0,2.746-0.459,3.294-1.454,3.294
	c-0.116,0-0.162,0.331,0,0.331h3.874c0.162,0,0.116-0.331,0-0.331c-1.086,0-1.522-0.548-1.522-3.294l0.004-6.791l9.313,10.834
	L94.522,3.49c0-2.195,0.678-2.669,1.577-2.669C96.216,0.822,96.232,0.528,96.1,0.528z M93.672,11.443
	c0,0.121-0.369,0.078-0.411,0.03L84.635,1.299C84.592,1.25,84.597,1.23,84.647,1.23h0.462c0.065,0,0.133,0.079,0.175,0.128
	l8.339,9.831c0.042,0.048,0.049,0.103,0.049,0.176V11.443z"/>
<path fill="#1D1D1B" d="M75.099,0.206c-3.1,0-6.908,2.338-6.908,7.053c0,4.13,2.614,6.695,6.814,6.695
	c5.451,0,7.038-4.016,7.038-6.808C82.043,3.224,79.038,0.206,75.099,0.206z M69.428,7.358c0-3.347,2.115-5.893,3.341-6.148
	c-1.086,0.626-2.854,2.957-2.789,6.148c0.061,2.988,0.974,4.354,2.309,5.571C70.953,12.096,69.428,10.693,69.428,7.358z
	 M71.028,7.174c0-4.205,2.057-6.299,4.063-6.299c2.412,0,4.157,1.974,4.157,6.078c0,4.2-2.015,6.236-4.125,6.236
	C72.976,13.189,71.028,11.87,71.028,7.174z M77.473,12.929c1.086-0.627,2.817-2.758,2.788-5.95
	c-0.028-3.058-0.973-4.553-2.308-5.769c1.335,0.833,2.861,2.435,2.861,5.769C80.814,10.325,78.698,12.673,77.473,12.929z"/>
<path fill="#1D1D1B" d="M108.048,10.219c-0.547,1.051-2.529,2.861-5.234,2.861h-1.55l0.005-11.199c0-0.649,0.873-1.059,1.206-1.059
	c0.116,0,0.132-0.293,0-0.293h-4.981c-0.129,0-0.113,0.294-0.001,0.293c0.518,0,1.333,0.566,1.333,1.216v9.651
	c0,1.252-0.744,1.753-1.456,1.753c-0.114,0-0.129,0.332,0,0.332h9.577c0,0,1.267-3.334,1.318-3.46
	C108.316,10.188,108.129,10.061,108.048,10.219z M100.303,12.993c0,0.048-0.039,0.088-0.087,0.088h-0.329
	c-0.048,0-0.088-0.04-0.088-0.088V1.328c0-0.048,0.04-0.088,0.088-0.088h0.329c0.048,0,0.087,0.04,0.087,0.088V12.993z"/>
<g>
	<path fill="#1D1D1B" d="M55.65,9.858c-0.664,0-1.202,0.526-1.202,1.175c0,0.649,0.538,1.175,1.202,1.175
		c0.664,0,1.203-0.526,1.203-1.175C56.853,10.385,56.314,9.858,55.65,9.858z M54.691,11.429c0,0-0.17-0.425,0-0.793
		C54.892,11.054,54.691,11.429,54.691,11.429z M56.046,10.102c-0.417,0.201-0.792,0-0.792,0S55.679,9.932,56.046,10.102z
		 M55.254,11.965c0,0,0.375-0.201,0.792,0C55.679,12.135,55.254,11.965,55.254,11.965z M56.364,11.749
		c-0.147,0.166-0.371-0.066-0.715-0.066c-0.344,0-0.571,0.224-0.718,0.058c-0.166-0.147,0.061-0.364,0.061-0.708
		s-0.224-0.567-0.058-0.714c0.147-0.166,0.371,0.066,0.715,0.066c0.344,0,0.571-0.225,0.718-0.059
		c0.167,0.147-0.061,0.364-0.061,0.708S56.53,11.602,56.364,11.749z M56.607,10.637c0.17,0.367,0,0.793,0,0.793
		S56.407,11.054,56.607,10.637z"/>
	<path fill="#1D1D1B" d="M55.65,9.379c-0.243,0-0.475,0.05-0.684,0.14c-0.035-0.031-0.069-0.064-0.081-0.089
		c-0.054-0.117-0.149-0.053-0.149-0.053s-0.06-0.132-0.075-0.228c-0.016-0.095-0.111-0.102-0.187-0.024
		c-0.076,0.078-0.138,0.104-0.138,0.104l-1.101-1.063l0.341-0.353l0.15,0.145L53.483,8.21l0.439,0.424l1.214-1.258L54.43,6.695
		l-0.467,0.483l0.311,0.301l0.145-0.15l0.092,0.089l-0.25,0.258l-0.935-0.902l0.25-0.259l0.092,0.089l-0.145,0.15l0.264,0.255
		l0.467-0.484l-0.706-0.682l-1.214,1.257l0.439,0.424l0.244-0.253l0.15,0.145L52.827,7.77l-0.798-0.771
		c-0.12-0.116-0.293-0.008-0.389,0.092s-0.187,0.287-0.068,0.402l2.296,2.217c0,0-0.024,0.063-0.099,0.141
		c-0.076,0.078-0.065,0.174,0.031,0.185c0.096,0.012,0.231,0.067,0.231,0.067s-0.061,0.096,0.058,0.147
		c0.015,0.006,0.033,0.02,0.051,0.036c-0.117,0.224-0.182,0.478-0.182,0.747c0,0.913,0.758,1.654,1.693,1.654
		c0.935,0,1.693-0.74,1.693-1.654C57.343,10.12,56.585,9.379,55.65,9.379z M51.743,7.436c-0.071-0.069-0.064-0.123,0.028-0.218
		c0.046-0.047,0.104-0.136,0.21-0.033l0.837,0.809l0.585-0.607l-0.37-0.357l-0.26,0.269l-0.211-0.204l0.972-1.007l0.489,0.472
		l-0.226,0.234l-0.078-0.076l0.129-0.133l-0.276-0.266l-0.449,0.464l1.132,1.093l0.449-0.464l-0.289-0.28l-0.129,0.133l-0.094-0.091
		l0.226-0.234l0.453,0.438L53.91,8.375l-0.175-0.169l0.249-0.259l-0.409-0.395L52.99,8.159l1.235,1.192L53.984,9.6L51.743,7.436z
		 M54.185,9.956c-0.054-0.066-0.1-0.011-0.143-0.058c-0.028-0.03-0.019-0.073,0.035-0.131c0.071-0.076,0.224-0.24,0.309-0.324
		c0.085-0.085,0.151-0.14,0.201-0.089c0.05,0.051,0.012,0.096,0.077,0.162c0.066,0.065,0.124-0.031,0.178,0.115
		c-0.387,0.267-0.569,0.546-0.569,0.546C54.114,10.08,54.242,10.025,54.185,9.956z M55.65,12.449c-0.8,0-1.448-0.634-1.448-1.415
		c0-0.781,0.648-1.415,1.448-1.415s1.448,0.634,1.448,1.415C57.098,11.815,56.449,12.449,55.65,12.449z"/>
	<path fill="#1D1D1B" d="M65.343,13.16c0.425-0.278,0.332-0.804,0.332-0.804s-0.231,0.162-0.556,0.224
		c-0.204,0.039-0.356,0.348-0.255,0.595c-0.116,0.085-0.139,0.224-0.139,0.224c-0.24,0.1-0.479,0.1-0.479,0.1
		c0.402-0.766,0.387-0.796,0.271-1.299c-0.078-0.339-0.111-0.435-0.255-0.402c-0.24,0.054-0.255-0.449-0.039-0.75
		c0,0,0.75,0.603,1.523-0.031c0.748-0.614,0.534-1.64-0.348-2.544c-0.881-0.905-0.951-1.268-0.936-1.825
		c0.58,0.023,0.649-0.425,0.595-0.495c0.402-0.17,0.224-0.541,0.224-0.541c0.147-0.225,0.07-0.595,0.07-0.595
		c-0.379-0.024-0.603,0.116-0.603,0.116c-0.247-0.078-0.441,0.271-0.441,0.271c-0.479,0.008-0.317,0.912-0.317,0.912
		s-0.211,0.534-0.069,0.974c0.379,1.183,1.059,1.5,1.492,2.258c0.173,0.304,0.17,0.889-0.216,1.036
		c-0.364,0.138-0.673-0.14-0.866-0.912c-0.193-0.773-0.263-0.796-0.719-1.407c-0.456-0.611-0.479-0.92-0.51-1.555
		c-0.031-0.634-0.093-1.299-0.093-1.299c0.1,0.023,0.131-0.054,0.131-0.054c-0.193-0.255-0.209-0.557-0.209-0.557
		c0.078,0,0.108-0.062,0.108-0.062c-0.232-0.24-0.124-0.309-0.232-0.518c0.131,0.008,0.155-0.093,0.155-0.093
		c-0.278-0.209-0.247-0.394-0.518-0.703c0.077,0.008,0.124-0.047,0.124-0.047c-0.216-0.263-0.301-0.487-0.72-0.409l-0.115-0.131
		c0,0,0.333-0.024,0.495-0.232c0.162-0.209-0.131-0.418-0.131-0.418s-0.069,0.083-0.108,0.07c-0.093-0.031,0.008-0.139-0.124-0.201
		c-0.107-0.05-0.047-0.255,0.116-0.224c0.162,0.031,0.039,0.24,0.155,0.278c0.116,0.039,0.158-0.194,0.263-0.154
		c0.062,0.024,0.077-0.031,0.239-0.309c0.101-0.173-0.062-0.162,0.039-0.379c0.071-0.153,0.093-0.387-0.58-0.487
		c-0.016-0.557-0.533-0.364-0.719-0.379c-0.1-0.363-0.433-0.433-0.905-0.394l-0.038,0.077c-0.317-0.016-0.518,0.062-0.518,0.062
		l0.024,0.131c-0.317-0.031-0.441,0.185-0.642,0.224l0.039,0.093c-0.293,0.178-0.247,0.402-0.533,0.556l0.116,0.117l-0.07,0.124
		c-0.309-0.008-0.502,0.139-0.502,0.139c-0.371-0.054-0.464,0.309-0.464,0.309c-0.394,0.07-0.502,0.51-0.464,0.688
		c-0.324,0.101-0.255,0.487-0.255,0.487c-0.209,0.093-0.302,0.394,0.007,0.564c0,0-0.138,0.356-0.548,0.186
		c-0.407-0.169-0.302-0.464-0.232-0.526c0.286,0.232,0.495,0.031,0.464-0.232c0.425-0.124,0.309-0.542,0.309-0.542
		c0.518-0.278,0.193-0.858,0.193-0.858c0.232-0.224,0.008-0.502,0.008-0.502c0.008-0.364-0.232-0.696-0.232-0.696
		c-0.371,0.062-0.51,0.302-0.51,0.302c-0.394,0.008-0.479,0.402-0.479,0.402c-0.41,0.016-0.549,0.387-0.495,0.696
		c-0.247,0.139-0.286,0.495-0.147,0.742c-0.216,0.248-0.031,0.549,0.209,0.557c0,0-0.047,0.371-0.472,0.371
		s-0.587-0.418-0.479-0.595c0.317,0.131,0.464-0.147,0.402-0.394c0.387-0.294,0.047-0.704,0.047-0.704
		c0.239-0.356,0.023-0.626-0.217-0.85c0-0.232-0.178-0.255-0.178-0.255c-0.154-0.425-0.467-0.595-0.467-0.595
		s-0.312,0.17-0.466,0.595c0,0-0.178,0.023-0.178,0.255c-0.24,0.224-0.456,0.495-0.216,0.85c0,0-0.34,0.41,0.046,0.704
		c-0.062,0.247,0.085,0.526,0.402,0.394c0.108,0.178-0.054,0.595-0.479,0.595c-0.425,0-0.472-0.371-0.472-0.371
		c0.24-0.008,0.425-0.309,0.209-0.557c0.139-0.247,0.1-0.603-0.147-0.742c0.054-0.309-0.085-0.68-0.495-0.696
		c0,0-0.085-0.394-0.479-0.402c0,0-0.139-0.24-0.51-0.302c0,0-0.24,0.332-0.232,0.696c0,0-0.224,0.278,0.008,0.502
		c0,0-0.325,0.58,0.193,0.858c0,0-0.116,0.418,0.309,0.542c-0.031,0.263,0.178,0.464,0.464,0.232
		c0.069,0.062,0.175,0.357-0.232,0.526c-0.41,0.17-0.548-0.186-0.548-0.186c0.309-0.17,0.216-0.471,0.007-0.564
		c0,0,0.069-0.387-0.255-0.487c0.039-0.178-0.069-0.618-0.464-0.688c0,0-0.093-0.363-0.464-0.309c0,0-0.193-0.147-0.502-0.139
		l-0.069-0.124l0.116-0.117c-0.286-0.154-0.24-0.378-0.533-0.556l0.039-0.093c-0.201-0.038-0.325-0.255-0.642-0.224l0.023-0.131
		c0,0-0.201-0.078-0.518-0.062L48.224,0.01c-0.473-0.039-0.805,0.031-0.905,0.394c-0.186,0.016-0.704-0.178-0.719,0.379
		c-0.673,0.1-0.651,0.333-0.58,0.487c0.101,0.216-0.062,0.206,0.039,0.379c0.162,0.279,0.178,0.333,0.24,0.309
		c0.106-0.04,0.147,0.193,0.263,0.154c0.116-0.038-0.008-0.247,0.154-0.278c0.162-0.031,0.222,0.175,0.116,0.224
		C46.7,2.12,46.8,2.228,46.708,2.259c-0.04,0.013-0.109-0.07-0.109-0.07s-0.293,0.209-0.131,0.418
		c0.162,0.209,0.495,0.232,0.495,0.232L46.847,2.97c-0.418-0.078-0.503,0.147-0.72,0.409c0,0,0.047,0.055,0.124,0.047
		c-0.271,0.309-0.24,0.495-0.518,0.703c0,0,0.023,0.101,0.154,0.093c-0.108,0.209,0,0.278-0.232,0.518c0,0,0.031,0.062,0.109,0.062
		c0,0-0.016,0.302-0.209,0.557c0,0,0.031,0.077,0.131,0.054c0,0-0.062,0.664-0.093,1.299c-0.031,0.634-0.054,0.944-0.51,1.555
		c-0.456,0.611-0.526,0.634-0.719,1.407c-0.193,0.773-0.502,1.05-0.866,0.912c-0.387-0.147-0.391-0.732-0.217-1.036
		c0.433-0.757,1.113-1.074,1.492-2.258c0.141-0.44-0.069-0.974-0.069-0.974s0.162-0.904-0.317-0.912c0,0-0.193-0.348-0.441-0.271
		c0,0-0.224-0.14-0.603-0.116c0,0-0.077,0.371,0.07,0.595c0,0-0.178,0.371,0.224,0.541c-0.054,0.07,0.016,0.518,0.595,0.495
		c0.016,0.557-0.054,0.92-0.935,1.825c-0.882,0.904-1.096,1.93-0.348,2.544c0.773,0.633,1.523,0.031,1.523,0.031
		c0.216,0.301,0.201,0.804-0.039,0.75c-0.144-0.033-0.177,0.063-0.255,0.402c-0.116,0.502-0.131,0.533,0.271,1.299
		c0,0-0.24,0-0.48-0.1c0,0-0.023-0.139-0.139-0.224c0.101-0.247-0.051-0.556-0.255-0.595c-0.325-0.062-0.557-0.224-0.557-0.224
		s-0.093,0.526,0.333,0.804c0,0-0.495-0.109-0.765,0.255c0.317,0.109,0.322,0.334,0.619,0.41c0.332,0.085,0.495-0.247,0.495-0.247
		s0.1,0.067-0.023,0.231c-0.093,0.124-0.091,0.179,0.062,0.224c1.222,0.364,2.482,0.263,2.482,0.263s-0.255,0.14-0.356,0.471
		c0.526-0.131,1.477,0.247,2.057-0.58c0,0,0.673-0.185,1.608-0.348c0,0-0.209,0.124-0.332,0.34c0,0,0.82,0.402,1.879-0.209
		c0.051-0.029,0.124,0.054,0.047,0.084c-0.449,0.178-0.549,0.449-0.549,0.449s0.912,0.487,1.817-0.108c0,0-0.139,0.449,0.324,0.603
		c0,0,0.441-0.162,0.913-0.263c0,0-0.047,0.116,0.054,0.162c0,0,0.379-0.061,0.667-0.401c0.289,0.34,0.668,0.401,0.668,0.401
		c0.101-0.046,0.054-0.162,0.054-0.162C55.541,14.838,55.982,15,55.982,15c0.464-0.154,0.324-0.603,0.324-0.603
		c0.904,0.595,1.817,0.108,1.817,0.108s-0.1-0.27-0.549-0.449c-0.077-0.031-0.004-0.114,0.046-0.084
		C58.68,14.582,59.5,14.18,59.5,14.18c-0.124-0.216-0.332-0.34-0.332-0.34c0.935,0.162,1.608,0.348,1.608,0.348
		c0.58,0.827,1.531,0.449,2.057,0.58c-0.1-0.332-0.356-0.471-0.356-0.471s1.26,0.1,2.482-0.263c0.153-0.045,0.154-0.1,0.062-0.224
		c-0.124-0.164-0.023-0.231-0.023-0.231s0.162,0.332,0.495,0.247c0.297-0.076,0.301-0.301,0.618-0.41
		C65.837,13.052,65.343,13.16,65.343,13.16z M43.311,13.624c-0.2-0.023-0.363-0.201-0.363-0.201s0.147-0.131,0.387-0.109
		C43.573,13.338,43.581,13.655,43.311,13.624z M43.535,13.044c-0.306-0.125-0.286-0.379-0.286-0.379s0.078,0.045,0.24,0.085
		C43.775,12.82,43.744,13.129,43.535,13.044z M43.766,13.415c-0.054,0.085-0.17-0.054-0.178-0.123
		C43.589,13.291,43.841,13.298,43.766,13.415z M62.269,3.321c0,0-0.11,0.029-0.191,0.017c-0.081-0.011-0.115,0.049-0.006,0.11
		c0.33,0.185,0.429,0.463,0.429,0.463s-0.166-0.025-0.353-0.185c-0.081-0.069-0.125,0.008-0.064,0.11
		c0.104,0.173,0.509,0.214,0.567,0.637c0,0-0.238-0.087-0.405-0.249c-0.078-0.076-0.129-0.022-0.081,0.075
		c0.133,0.267,0.573,0.307,0.59,0.787c0,0-0.173-0.058-0.341-0.231c-0.083-0.086-0.151,0-0.058,0.121
		c0.093,0.121,0.33,0.238,0.359,0.498c0.029,0.261,0.104,1.441,0.162,1.789c0.058,0.347,0.156,0.747,0.567,1.244
		c0.411,0.498,0.47,0.608,0.608,1.088c0.307,1.071,0.689,1.342,1.175,1.204c0.486-0.139,0.673-0.904,0.301-1.453
		c-0.498-0.735-1.846-1.812-1.343-3.027c0,0-0.168-0.278,0.041-0.538c0,0,0.064,0.04,0.087,0.121c0.133-0.116,0-0.284,0.197-0.44
		c0,0,0.069,0.069,0.058,0.173c0.156-0.04,0.11-0.411,0.596-0.4c0.052,0.429-0.209,0.336-0.307,0.567c0,0,0.15-0.04,0.214,0.006
		c-0.076,0.289-0.278,0.197-0.365,0.324c0,0,0.098,0.006,0.162,0.087c0,0-0.098,0.359-0.527,0.22c0,0-0.122,0.128-0.087,0.538
		c0.033,0.387,0.127,0.747,0.862,1.58c0.258,0.293,0.822,0.874,0.822,1.464c0,0.55-0.388,1.041-0.903,1.041
		c-0.648,0-0.932-0.469-1.018-0.909c-0.036-0.184-0.243-0.115-0.208,0.098c0.052,0.318,0.173,0.62,0.173,0.62
		s-0.087,0.174-0.156,0.393c-0.069,0.22-0.058,0.298,0.006,0.399c0.11,0.173,0.03,0.405,0.231,0.376
		c0.121-0.018,0.122,0.036,0.174,0.214c0.11,0.382,0.087,0.399,0.011,0.613c-0.075,0.214-0.206,0.554-0.255,0.643
		c-0.093,0.167-0.185-0.029-0.364,0.069c-0.148,0.081-0.318,0.018-0.203-0.127c0,0-0.081-0.058-0.145,0.023
		c0,0-0.11-0.347-0.399-0.191c0,0-0.139-0.15-0.266-0.11c0,0,0.144-0.232,0.902,0.006c0.121,0.038,0.22-0.162,0.058-0.22
		c0,0,0.121-0.399,0.139-0.474c0.018-0.076,0.052-0.096-0.081-0.209c-0.845-0.712-0.914-0.671-1.024-1.111
		c-0.11-0.44-0.165-0.515-0.301-0.851c-0.353-0.873-0.263-1.172-0.515-1.453c-0.515-0.572-0.7-0.914-0.7-0.914
		s-0.046-0.006-0.058,0.047c-0.179-0.133-0.098-0.278-0.266-0.411c0,0-0.058,0.035-0.07,0.144c-0.26-0.191-0.196-0.521-0.295-0.648
		c0,0-0.064,0.029-0.093,0.121c0,0-0.087-0.151-0.087-0.214c0-0.064-0.034-0.104,0.076-0.191c0.11-0.087,0.151-0.052,0.179,0.046
		c0.162-0.133,0.238-0.318,0.406-0.486c0,0,0.081,0.035,0.139,0.139c0,0,0.151-0.203,0.243-0.544
		c0.156,0.029,0.238-0.001,0.22-0.209c-0.035-0.393,0.156-0.486,0.133-0.955c-0.009-0.168-0.169-0.11-0.162,0.023
		c0.017,0.376-0.104,0.382-0.144,0.712c-0.231-0.289-0.202,0.116-0.301,0.555c0,0-0.062-0.025-0.093-0.127
		c-0.058-0.191-0.133,0.104-0.341,0.463c-0.052-0.133-0.064-0.22-0.226-0.029c-0.162,0.191-0.743,0.685-1.302,1.093
		c-0.214,0.156-0.075,0.287-0.168,0.48c-0.064,0.133-0.185,0.238-0.185,0.238s-0.076-0.133-0.22-0.127c0,0,0.035-0.26-0.185-0.365
		c0,0,0.278-0.353-0.052-0.608c0.202-0.07,0.272-0.047,0.104-0.341c0,0,0.185-0.179-0.017-0.417c0.191-0.133,0.25,0.047,0.267,0.226
		c0.023,0.254,0.15,0.492,0.289,0.364c0.151-0.138,0.84-0.851,1.03-1.175c0.191-0.324,0.093-0.573,0.584-1.151
		c0.091-0.107,0.002-0.207-0.093-0.121c-0.058,0.051-0.18,0.104-0.18,0.104s-0.017-0.301,0.18-0.573
		c0.08-0.111,0.011-0.174-0.151-0.023c0,0-0.023-0.243,0.365-0.573c0.106-0.09,0.035-0.139-0.144-0.075c0,0,0.076-0.22,0.318-0.272
		c0.243-0.052,0.318,0.04,0.33,0.087c0.012,0.047,0.098,0.058,0.104,0s0.075-0.191,0.249-0.162c0.173,0.029,0.162,0.144,0.162,0.197
		c0,0.052,0.037,0.1,0.087,0.04C61.811,3.13,62.089,3.055,62.269,3.321z M63.092,13.477c-0.1,0.116-0.232,0.186-0.232,0.186
		c-0.023-0.154,0.101-0.27,0.101-0.27C63.092,13.4,63.092,13.477,63.092,13.477z M62.45,12.76c0,0-0.695-0.04-0.976,0.792
		c0,0-0.204,0.013-0.327-0.041c0,0,0.163-0.077,0.266-0.397c0.102-0.32,0.201-0.667,0.261-0.879
		c0.082-0.288-0.241-0.185-0.159-0.451c0.145-0.47,0.111-0.52,0.281-0.574c0.17-0.055,0.225-0.041,0.429-0.368
		c0,0,0.102,0.233,0.143,0.499c0.041,0.266,0.267,0.464,1.098,1.113c0,0-0.041,0.245-0.122,0.449
		c-0.874-0.163-0.813,0.102-1.14,0.731c0,0-0.143,0.014-0.286-0.02C61.919,13.613,62.457,13.355,62.45,12.76z M61.635,13.585
		c0.059-0.254,0.345-0.532,0.611-0.6C62.178,13.266,61.901,13.519,61.635,13.585z M62.551,13.369c0.131,0.008,0.147,0.07,0.147,0.07
		c-0.185,0.154-0.286,0.247-0.286,0.247C62.373,13.477,62.551,13.369,62.551,13.369z M58.13,8.602c0,0-0.017,1.007-0.031,1.743
		c-0.026,1.241-0.473,2.805-3.753,2.805c-3.28,0-3.726-1.564-3.752-2.805c-0.015-0.737-0.032-1.743-0.032-1.743
		c0.084-0.04,0.134-0.104,0.134-0.104c-0.159-0.144-0.208-0.261-0.208-0.261c0.332,0.053,0.447-0.124,0.447-0.124
		c-0.238-0.253-0.322-0.422-0.322-0.422c0.213,0.025,0.402-0.045,0.402-0.045c0.04-0.394-0.372-0.414-0.392-0.727
		c0.1,0.01,0.184,0.069,0.184,0.069c0.243-0.51-0.288-0.51-0.179-0.945c0.164-0.054,0.238-0.173,0.238-0.173
		c-0.069-0.015-0.104-0.04-0.104-0.04c0.183-0.079,0.233-0.209,0.233-0.209c0.055,0.134,0.055,0.248,0.055,0.248
		c0.26-0.045,0.34-0.228,0.34-0.228c0.03,0.119,0.124,0.238,0.124,0.238c0.208-0.075,0.282-0.223,0.282-0.223s1.389,0.03,2.551,0.03
		s2.552-0.03,2.552-0.03s0.074,0.149,0.282,0.223c0,0,0.094-0.119,0.124-0.238c0,0,0.079,0.183,0.34,0.228c0,0,0-0.114,0.054-0.248
		c0,0,0.05,0.129,0.233,0.209c0,0-0.035,0.025-0.104,0.04c0,0,0.075,0.119,0.238,0.173c0.109,0.435-0.422,0.435-0.179,0.945
		c0,0,0.084-0.06,0.183-0.069c-0.02,0.312-0.431,0.332-0.391,0.727c0,0,0.189,0.069,0.402,0.045c0,0-0.084,0.169-0.322,0.422
		c0,0,0.114,0.177,0.446,0.124c0,0-0.049,0.117-0.208,0.261C57.996,8.498,58.046,8.562,58.13,8.602z M50.373,8.03
		c0,0-0.042-0.162,0.126-0.222c0,0,0.09,0.138,0.233,0.264C50.733,8.071,50.583,8.173,50.373,8.03z M50.446,8.479
		c0,0-0.186,0.006-0.324-0.114c0,0,0.006-0.109,0.108-0.127C50.23,8.239,50.355,8.311,50.446,8.479z M48.701,4.76
		c0.611,0.575,0.371,1.004,0.371,1.004s-0.171-0.179-0.179-0.379c-0.007-0.2-0.236-0.489-0.236-0.489
		C48.708,4.852,48.701,4.76,48.701,4.76z M48.608,4.316c0.136-0.01,0.115-0.168,0.115-0.168s0.2,0.136,0.336,0.339
		c0.176,0.263,0.089,0.307,0.139,0.587C48.801,4.766,48.608,4.316,48.608,4.316z M48.407,3.023c0,0,0.277,0.177,0.284,0.613
		c0.003,0.162-0.154,0.238-0.223-0.015l0.062-0.085C48.53,3.536,48.299,3.292,48.407,3.023z M47.929,2.334
		c0,0,0.104,0.089,0.248,0.171c0.231,0.131,0.074,0.43,0.074,0.43s-0.042-0.071-0.27-0.2C47.81,2.638,47.87,2.371,47.929,2.334z
		 M47.907,2.867c0,0-0.067,0.015-0.156-0.015l0.081-0.074C47.833,2.779,47.848,2.83,47.907,2.867z M48.147,1.236
		c-0.307,0.007-0.374-0.207-0.285-0.326c0.089-0.119,0.278-0.052,0.26,0.06C48.104,1.081,48.147,1.236,48.147,1.236z M48.018,2.182
		C47.906,2.12,47.959,1.7,48.191,1.93c0.156,0.154,0.127,0.441,0.127,0.441S48.206,2.286,48.018,2.182z M48.07,1.648
		c-0.131-0.211,0.022-0.352,0.174-0.178c0.152,0.173,0.104,0.371,0.104,0.371S48.162,1.797,48.07,1.648z M48.33,1.251
		c0,0-0.115-0.116-0.069-0.384c0,0,0.353,0.015,0.469,0.392C48.73,1.259,48.537,1.213,48.33,1.251z M48.491,1.857
		c0.231,0.207,0.507,0.292,0.453,0.744C48.576,2.354,48.468,2.256,48.491,1.857z M48.853,3.269C48.607,2.9,48.33,2.861,48.484,2.47
		C48.484,2.47,48.945,2.661,48.853,3.269z M48.407,1.426c0.346-0.077,0.53,0.177,0.53,0.484C48.937,1.91,48.507,1.826,48.407,1.426z
		 M48.801,3.998c0,0-0.022-0.157,0.071-0.293c0.611,0.364,0.467,0.911,0.467,0.911C49.161,4.423,49.168,4.234,48.801,3.998z
		 M49.154,1.948c0,0,0.679,0.186,0.565,0.868c-0.207-0.393-0.618-0.343-0.682-0.668c0,0,0.096,0.036,0.168,0.021
		C49.204,2.169,49.154,2.062,49.154,1.948z M49.147,2.559C49.655,2.78,49.59,3.37,49.59,3.37c-0.172-0.26-0.518-0.282-0.575-0.553
		c0.064,0,0.124-0.057,0.124-0.057C49.101,2.666,49.147,2.559,49.147,2.559z M49.072,3.152c0.239,0.267,0.461,0.303,0.389,0.825
		c0,0-0.279-0.221-0.447-0.458C49.015,3.519,49.094,3.398,49.072,3.152z M49.342,5.57c0,0,0.138,0.042,0.348,0.066
		c0,0,0.084,0.33,0.51,0.3c0.03,0.126-0.007,0.131-0.115,0.168c-0.108,0.036-0.204,0.12-0.228,0.444
		c-0.006,0.084-0.054,0.084-0.132-0.006l-0.444-0.51C49.282,6.032,49.36,5.798,49.342,5.57z M50.085,5.738
		c-0.27-0.066-0.173-0.377-0.12-0.431c0.054-0.054,0.071-0.17-0.06-0.12c-0.234,0.09-0.132,0.246-0.282,0.216
		c-0.15-0.03-0.246-0.067-0.246-0.067c0.072-0.15,0.09-0.312,0.09-0.312c0.036,0.036,0.114-0.007,0.114-0.007
		c-0.114-0.228,0.024-0.324,0.024-0.324s0.212,0.203,0.348,0.294c0.108,0.072,0.167,0.027,0.187-0.012
		c0.155-0.306,0.425-0.156,0.425-0.156c0.33-0.204,0.522-0.024,0.522-0.024c0.336-0.162,0.528,0.041,0.528,0.041l0.126,0.276
		c-0.198-0.066-0.378,0.012-0.378,0.012c-0.162-0.102-0.402-0.036-0.402-0.036c-0.27-0.108-0.413,0.072-0.413,0.072
		c-0.09-0.127-0.222-0.192-0.156-0.024c0.042,0.108,0.054,0.271-0.048,0.253c-0.102-0.018-0.15,0.042-0.066,0.144
		C50.134,5.582,50.085,5.738,50.085,5.738z M59.655,2.148c-0.064,0.324-0.475,0.275-0.682,0.668
		c-0.114-0.682,0.565-0.868,0.565-0.868c0,0.115-0.05,0.222-0.05,0.222C59.558,2.184,59.655,2.148,59.655,2.148z M60.569,0.97
		c-0.018-0.111,0.171-0.178,0.26-0.06c0.089,0.119,0.022,0.333-0.285,0.326C60.544,1.236,60.587,1.081,60.569,0.97z M60.71,2.734
		c-0.229,0.129-0.27,0.2-0.27,0.2s-0.157-0.299,0.074-0.43c0.144-0.082,0.248-0.171,0.248-0.171
		C60.822,2.371,60.881,2.638,60.71,2.734z M60.858,2.779l0.082,0.074c-0.089,0.03-0.156,0.015-0.156,0.015
		C60.844,2.83,60.858,2.779,60.858,2.779z M60.373,2.371c0,0-0.03-0.287,0.126-0.441c0.233-0.229,0.286,0.191,0.174,0.253
		C60.485,2.286,60.373,2.371,60.373,2.371z M60.621,1.648c-0.092,0.149-0.278,0.193-0.278,0.193s-0.048-0.197,0.104-0.371
		C60.599,1.296,60.753,1.437,60.621,1.648z M60.361,1.251c-0.207-0.039-0.4,0.007-0.4,0.007c0.115-0.377,0.469-0.392,0.469-0.392
		C60.476,1.136,60.361,1.251,60.361,1.251z M60.223,3.621C60.153,3.874,59.997,3.798,60,3.636c0.008-0.436,0.284-0.613,0.284-0.613
		c0.108,0.269-0.123,0.513-0.123,0.513L60.223,3.621z M60.034,4.895c0,0-0.229,0.289-0.236,0.489
		c-0.007,0.2-0.179,0.379-0.179,0.379S59.38,5.334,59.991,4.76C59.991,4.76,59.983,4.852,60.034,4.895z M59.494,5.074
		c0.05-0.279-0.037-0.324,0.139-0.587c0.136-0.203,0.336-0.339,0.336-0.339s-0.022,0.158,0.114,0.168
		C60.084,4.316,59.891,4.766,59.494,5.074z M59.838,3.269c-0.092-0.607,0.369-0.799,0.369-0.799
		C60.361,2.861,60.085,2.9,59.838,3.269z M60.284,1.426c-0.1,0.4-0.53,0.484-0.53,0.484C59.754,1.603,59.939,1.349,60.284,1.426z
		 M60.2,1.857c0.023,0.4-0.084,0.498-0.453,0.744C59.693,2.148,59.969,2.064,60.2,1.857z M59.819,3.706
		c0.093,0.136,0.071,0.293,0.071,0.293c-0.368,0.236-0.361,0.425-0.538,0.618C59.352,4.617,59.208,4.07,59.819,3.706z M59.409,6.032
		l-0.444,0.51c-0.078,0.09-0.126,0.09-0.132,0.006c-0.024-0.324-0.12-0.408-0.228-0.444s-0.144-0.042-0.114-0.168
		c0.426,0.03,0.51-0.3,0.51-0.3c0.21-0.024,0.348-0.066,0.348-0.066C59.331,5.798,59.409,6.032,59.409,6.032z M59.676,3.519
		c-0.168,0.236-0.447,0.458-0.447,0.458c-0.071-0.522,0.15-0.558,0.389-0.825C59.598,3.398,59.676,3.519,59.676,3.519z
		 M59.101,3.369c0,0-0.064-0.589,0.443-0.811c0,0,0.046,0.107,0.007,0.2c0,0,0.06,0.057,0.125,0.057
		C59.619,3.088,59.273,3.109,59.101,3.369z M59.086,4.694c0,0,0.138,0.096,0.024,0.324c0,0,0.078,0.042,0.114,0.007
		c0,0,0.018,0.162,0.09,0.312c0,0-0.096,0.036-0.246,0.067c-0.15,0.03-0.048-0.127-0.282-0.216c-0.131-0.05-0.114,0.067-0.06,0.12
		c0.054,0.054,0.15,0.366-0.12,0.431c0,0-0.049-0.156-0.192-0.204c0.084-0.102,0.036-0.162-0.066-0.144s-0.09-0.144-0.048-0.253
		c0.066-0.168-0.066-0.102-0.156,0.024c0,0-0.144-0.18-0.414-0.072c0,0-0.24-0.066-0.402,0.036c0,0-0.18-0.078-0.378-0.012
		l0.126-0.276c0,0,0.192-0.204,0.528-0.041c0,0,0.192-0.18,0.521,0.024c0,0,0.27-0.15,0.425,0.156
		c0.02,0.039,0.079,0.084,0.187,0.012C58.874,4.897,59.086,4.694,59.086,4.694z M57.994,6.787c-0.012-0.221,0.168-0.342,0.168-0.342
		c0.132,0,0.114,0.162,0.114,0.162C58.114,6.674,57.994,6.787,57.994,6.787z M58.21,7.454C58,7.597,57.832,7.507,57.832,7.507
		c0.132-0.192,0.312-0.241,0.312-0.241C58.264,7.316,58.21,7.454,58.21,7.454z M58.054,5.852c0.198-0.096,0.258-0.216,0.258-0.216
		c0.15,0.042,0.132,0.138,0.132,0.138C58.234,5.96,58.054,5.852,58.054,5.852z M57.976,5.642C57.688,5.57,57.79,5.258,57.79,5.258
		c0.108-0.09,0.252,0.018,0.252,0.018C57.958,5.468,57.976,5.642,57.976,5.642z M57.628,5.246c-0.054,0.156-0.09,0.414-0.09,0.414
		c-0.252-0.192-0.12-0.402-0.12-0.402C57.502,5.204,57.628,5.246,57.628,5.246z M57.227,5.288c-0.084,0.18-0.108,0.384-0.108,0.384
		c-0.15-0.173-0.072-0.384-0.072-0.384C57.13,5.234,57.227,5.288,57.227,5.288z M54.345,4.912c-1.429,0-2.234,0.324-2.396,0.376
		c-0.162,0.052-0.179-0.069-0.064-0.121c0.116-0.052,1.065-0.428,2.46-0.428s2.344,0.376,2.459,0.428
		c0.116,0.052,0.098,0.173-0.064,0.121C56.579,5.236,55.775,4.912,54.345,4.912z M56.066,5.312c0,0-0.378,0.035-1.72,0.035
		c-1.343,0-1.719-0.035-1.719-0.035s0.382-0.231,1.719-0.231C55.683,5.08,56.066,5.312,56.066,5.312z M51.777,4.846
		c0.009-0.002,0.018-0.003,0.028-0.003c0.067,0,0.122,0.054,0.122,0.121c0,0.034-0.014,0.065-0.036,0.087L51.777,4.846z M52.06,4.82
		c0-0.067,0.054-0.121,0.121-0.121c0.067,0,0.122,0.055,0.122,0.121c0,0.067-0.054,0.122-0.122,0.122
		C52.114,4.941,52.06,4.887,52.06,4.82z M52.476,4.715c0-0.067,0.055-0.121,0.122-0.121c0.067,0,0.122,0.055,0.122,0.121
		c0,0.067-0.054,0.122-0.122,0.122C52.531,4.837,52.476,4.783,52.476,4.715z M52.916,4.611c0-0.067,0.055-0.122,0.122-0.122
		c0.067,0,0.122,0.055,0.122,0.122c0,0.067-0.054,0.121-0.122,0.121C52.971,4.733,52.916,4.679,52.916,4.611z M53.35,4.548
		c0-0.067,0.054-0.121,0.122-0.121s0.121,0.054,0.121,0.121c0,0.067-0.054,0.122-0.121,0.122S53.35,4.615,53.35,4.548z M53.79,4.513
		c0-0.067,0.054-0.122,0.122-0.122c0.067,0,0.121,0.055,0.121,0.122s-0.054,0.121-0.121,0.121C53.844,4.634,53.79,4.58,53.79,4.513z
		 M54.224,4.501c0-0.067,0.055-0.121,0.122-0.121s0.122,0.054,0.122,0.121s-0.055,0.121-0.122,0.121S54.224,4.568,54.224,4.501z
		 M54.658,4.513c0-0.067,0.054-0.122,0.122-0.122s0.121,0.055,0.121,0.122s-0.054,0.121-0.121,0.121
		C54.713,4.634,54.658,4.58,54.658,4.513z M55.098,4.548c0-0.067,0.054-0.121,0.122-0.121c0.067,0,0.121,0.054,0.121,0.121
		c0,0.067-0.054,0.122-0.121,0.122C55.152,4.669,55.098,4.615,55.098,4.548z M55.532,4.611c0-0.067,0.054-0.122,0.122-0.122
		s0.122,0.055,0.122,0.122c0,0.067-0.054,0.121-0.122,0.121S55.532,4.679,55.532,4.611z M55.972,4.715
		c0-0.067,0.055-0.121,0.122-0.121c0.067,0,0.122,0.055,0.122,0.121c0,0.067-0.054,0.122-0.122,0.122
		C56.026,4.837,55.972,4.783,55.972,4.715z M56.388,4.82c0-0.067,0.055-0.121,0.122-0.121s0.122,0.055,0.122,0.121
		c0,0.067-0.055,0.122-0.122,0.122S56.388,4.887,56.388,4.82z M56.801,5.051c-0.023-0.022-0.036-0.053-0.036-0.087
		c0-0.067,0.055-0.121,0.122-0.121c0.01,0,0.019,0.001,0.028,0.003L56.801,5.051z M54.345,4.258c-1.325,0-2.616,0.492-2.616,0.492
		l-0.202-0.301c0,0,0.355,0.178,0.775,0.052c0.463-0.139,0.561-0.451,0.561-0.451s0.318,0.242,0.799,0.179
		c0.382-0.051,0.683-0.364,0.683-0.364s0.3,0.314,0.682,0.364c0.48,0.063,0.799-0.179,0.799-0.179s0.098,0.312,0.561,0.451
		c0.421,0.126,0.775-0.052,0.775-0.052L56.961,4.75C56.961,4.75,55.671,4.258,54.345,4.258z M57.222,4.264
		c-0.324,0.191-1.077,0.231-1.343-0.417c0,0-0.312,0.292-0.798,0.238c-0.411-0.046-0.735-0.451-0.735-0.451
		s-0.324,0.405-0.735,0.451c-0.486,0.055-0.798-0.238-0.798-0.238c-0.266,0.648-1.019,0.608-1.343,0.417
		c-0.082-0.049-0.046-0.144,0.04-0.104c0.087,0.04,0.324,0.168,0.671,0.093c0.464-0.1,0.596-0.584,0.596-0.584
		s0.359,0.399,0.885,0.289c0.443-0.093,0.683-0.538,0.683-0.538s0.24,0.446,0.683,0.538c0.527,0.11,0.885-0.289,0.885-0.289
		s0.132,0.484,0.596,0.584c0.347,0.076,0.584-0.052,0.671-0.093C57.268,4.119,57.304,4.215,57.222,4.264z M51.573,5.672
		c0,0-0.024-0.204-0.108-0.384c0,0,0.096-0.053,0.18,0C51.645,5.288,51.723,5.499,51.573,5.672z M51.153,5.66
		c0,0-0.036-0.258-0.09-0.414c0,0,0.126-0.042,0.21,0.012C51.273,5.258,51.405,5.468,51.153,5.66z M50.649,5.276
		c0,0,0.144-0.108,0.252-0.018c0,0,0.102,0.312-0.186,0.384C50.715,5.642,50.733,5.468,50.649,5.276z M50.379,5.636
		c0,0,0.06,0.12,0.258,0.216c0,0-0.18,0.108-0.39-0.078C50.248,5.774,50.23,5.678,50.379,5.636z M50.529,6.445
		c0,0,0.18,0.12,0.168,0.342c0,0-0.12-0.113-0.282-0.18C50.416,6.608,50.398,6.445,50.529,6.445z M50.548,7.267
		c0,0,0.18,0.049,0.311,0.241c0,0-0.168,0.09-0.378-0.054C50.481,7.454,50.428,7.316,50.548,7.267z M57.958,8.071
		c0.144-0.126,0.234-0.264,0.234-0.264c0.168,0.06,0.126,0.222,0.126,0.222C58.108,8.173,57.958,8.071,57.958,8.071z M58.462,8.239
		c0.102,0.018,0.108,0.127,0.108,0.127c-0.138,0.12-0.324,0.114-0.324,0.114C58.336,8.311,58.462,8.239,58.462,8.239z M61.833,2.326
		c-0.096,0.037-0.222-0.048-0.082-0.152C61.856,2.241,61.833,2.326,61.833,2.326z M61.574,0.666c0.185-0.015,0.229,0.082,0.2,0.245
		c-0.015,0.08-0.024,0.14,0.17,0.133c0.468-0.015,0.564,0.104,0.46,0.2c-0.073,0.068-0.119,0.124-0.022,0.196
		c0.119,0.089-0.002,0.339-0.133,0.289c-0.393-0.148-0.509-0.133-0.66,0.208c-0.151,0.342-0.189,0.634,0.475,0.552
		c0,0-0.012,0.17-0.438,0.149c-0.426-0.022-0.5-0.686,0.015-1.227c0.121-0.127,0.104-0.196,0.022-0.278
		c-0.008-0.156-0.007-0.297-0.307-0.156c-0.267,0.126-0.245,0.215-0.089,0.208c0.156-0.007,0.267,0.111,0.267,0.111
		s-0.258,0.245-0.364,0.678c-0.148,0.612,0.208,0.804,0.208,0.804s-0.215,0.163-0.438-0.126c0,0,0.104-0.253-0.044-0.419
		c0,0,0.082-0.238-0.111-0.519c0,0,0.141-0.141,0.044-0.433c0,0,0.282-0.119,0.148-0.445C60.977,0.836,61.247,0.692,61.574,0.666z
		 M61.145,0.458l-0.143,0.071c-0.158-0.121-0.186-0.275-0.186-0.275C61.045,0.168,61.145,0.458,61.145,0.458z M60.859,0.615
		c-0.236,0.129-0.525-0.143-0.539-0.264C60.641,0.208,60.709,0.493,60.859,0.615z M60.412,0.708c0,0-0.257,0.179-0.658-0.15
		C59.755,0.558,60.126,0.305,60.412,0.708z M60.034,0.866c-0.143,0.3-0.525,0.086-0.797,0.136
		C59.509,0.515,59.869,0.908,60.034,0.866z M59.762,1.166c-0.093,0.296-0.482,0.143-0.718,0.311
		C59.18,1.079,59.473,1.215,59.762,1.166z M59.669,1.497c0.007,0.307-0.496,0.35-0.747,0.622
		C58.929,1.484,59.669,1.497,59.669,1.497z M58.751,3.181c0,0,0.05,0.036,0.122,0.014c-0.036,0.218,0.043,0.346-0.036,0.632
		c0,0,0.064,0.043,0.143,0.029c0.05,0.271-0.114,0.358,0,0.625c0,0-0.1,0.136-0.315,0.257c0,0-0.282-0.264-0.553-0.136
		c0,0-0.293-0.179-0.532,0c0,0-0.086-0.071-0.236-0.036c0,0,0.193-0.25,0.136-0.589c0,0,0.36-0.346,0.646-0.775
		c0.286-0.429,0.364-0.773,0.532-0.99c0,0,0.058,0.139-0.036,0.275c0,0,0.043,0.057,0.114,0.064
		C58.679,2.895,58.794,2.987,58.751,3.181z M57.902,2.261c0.058,0.08,0.072,0.263,0.014,0.316
		C57.845,2.53,57.806,2.346,57.902,2.261z M57.556,2.715c0.069,0.018,0.116-0.025,0.062-0.108c-0.085-0.131-0.07-0.435,0.2-0.563
		c0,0-0.224,0.513,0.086,0.818c0,0,0.171-0.035,0.167-0.338c-0.004-0.375-0.153-0.742,0.162-0.832c0,0-0.065,0.144-0.024,0.324
		c0.014,0.062,0.086,0.048,0.081-0.062c-0.005-0.11,0.124-0.348,0.427-0.305c0,0-0.203,0.293-0.365,0.61
		c-0.162,0.317-0.186,0.537-0.61,1.145c0,0-0.047-0.433-0.371-0.425C57.294,2.815,57.409,2.676,57.556,2.715z M56.662,3.113
		c-0.062,0.118-0.199,0.041-0.128-0.04c0.051-0.056,0-0.176-0.117-0.072c-0.311,0.276-0.337,0.822,0.117,0.969
		c0.454,0.148,0.852-0.219,0.872-0.627c0.004-0.093-0.112-0.133-0.112-0.005c0,0.127-0.231,0.089-0.163-0.072
		c0.097-0.229,0.454-0.103,0.413,0.184c-0.067,0.464-0.551,0.806-1.056,0.658c-0.506-0.148-0.642-0.796-0.189-1.204
		C56.479,2.743,56.766,2.916,56.662,3.113z M56.228,1.461c0.081,0.057,0.097,0.22,0.031,0.352
		C56.162,1.691,56.162,1.533,56.228,1.461z M55.912,1.94c-0.163-0.244-0.097-0.576,0.163-0.612c0,0-0.102,0.505,0.219,0.76
		c0,0,0.276-0.367,0.026-0.842c0,0-0.016-0.25,0.178-0.306c0,0,0.02,0.219,0.102,0.327c0.024,0.032,0.055-0.022,0.036-0.122
		c-0.026-0.133,0.122-0.408,0.387-0.453c0,0,0.306,0.377-0.015,0.611c-0.053,0.039-0.02,0.123,0.051,0.092
		c0.118-0.051,0.179-0.128,0.179-0.128s0.115,0.209-0.077,0.286c-0.668,0.27-0.638,0.607-0.638,0.607s0.418,0.082,0.704-0.362
		c0.082,0.26,0.016,0.469-0.25,0.541c-0.079,0.022-0.095,0.091-0.02,0.138c0.112,0.071,0.107,0.357-0.148,0.392
		c0,0-0.25-0.336-0.658-0.046c0,0-0.092-0.382-0.459-0.352C55.509,2.308,55.601,1.92,55.912,1.94z M57.105,1.746
		c-0.036,0.123-0.26,0.282-0.408,0.286C56.76,1.889,56.952,1.752,57.105,1.746z M54.963,2.731c-0.067,0.081-0.186,0.017-0.143-0.061
		c0.077-0.138-0.038-0.185-0.133-0.061c-0.24,0.316-0.123,0.924,0.342,1.055c0.44,0.126,0.735-0.219,0.801-0.398
		c0.066-0.178,0.059-0.518-0.056-0.489c-0.082,0.02,0,0.111-0.067,0.133c-0.138,0.046-0.214-0.204-0.031-0.26
		c0.184-0.056,0.291,0.073,0.331,0.194c0.117,0.347-0.209,1.102-0.944,0.964c-0.687-0.129-0.738-0.925-0.515-1.219
		C54.805,2.251,55.126,2.487,54.963,2.731z M53.733,1.884c0.087-0.019,0.051-0.077,0.01-0.102c-0.25-0.158-0.148-0.5,0.036-0.623
		c-0.076,0.613,0.46,0.663,0.46,0.663s0.127-0.321-0.204-0.607c-0.164-0.142-0.193-0.266-0.107-0.326
		c0.051-0.036,0.133,0.056,0.184,0.102c0.062,0.056,0.111,0.024,0.061-0.04c-0.25-0.327,0.173-0.587,0.173-0.587
		s0.422,0.26,0.172,0.587c-0.049,0.064-0.001,0.096,0.061,0.04c0.051-0.046,0.133-0.137,0.184-0.102
		c0.086,0.06,0.058,0.184-0.107,0.326c-0.332,0.286-0.204,0.607-0.204,0.607s0.536-0.051,0.459-0.663
		c0.183,0.123,0.286,0.464,0.036,0.623c-0.04,0.025-0.077,0.083,0.01,0.102c0.189,0.041,0.28,0.327,0.102,0.459
		c-0.194-0.118-0.504-0.112-0.713,0.25c-0.209-0.362-0.52-0.367-0.714-0.25C53.453,2.211,53.545,1.925,53.733,1.884z M53.917,1.348
		c0.092,0.011,0.229,0.164,0.214,0.312C53.968,1.65,53.886,1.416,53.917,1.348z M54.558,1.66c-0.016-0.148,0.122-0.301,0.214-0.312
		C54.803,1.416,54.722,1.65,54.558,1.66z M52.983,2.91c-0.066-0.022,0.015-0.112-0.067-0.133c-0.116-0.029-0.122,0.311-0.056,0.489
		c0.067,0.179,0.361,0.524,0.801,0.398c0.464-0.132,0.582-0.74,0.342-1.055c-0.094-0.124-0.209-0.077-0.133,0.061
		c0.043,0.078-0.077,0.143-0.143,0.061c-0.163-0.245,0.158-0.48,0.413-0.143c0.223,0.294,0.171,1.091-0.515,1.219
		c-0.735,0.138-1.061-0.618-0.944-0.964c0.041-0.121,0.148-0.25,0.331-0.194C53.197,2.706,53.121,2.956,52.983,2.91z M52.463,1.461
		c0.067,0.072,0.067,0.23-0.031,0.352C52.366,1.681,52.381,1.517,52.463,1.461z M51.882,2.869c-0.255-0.036-0.26-0.321-0.148-0.392
		c0.074-0.047,0.059-0.116-0.02-0.138c-0.265-0.072-0.331-0.281-0.25-0.541c0.286,0.444,0.704,0.362,0.704,0.362
		s0.031-0.337-0.638-0.607c-0.191-0.078-0.076-0.286-0.076-0.286s0.061,0.077,0.178,0.128c0.071,0.031,0.104-0.053,0.051-0.092
		c-0.321-0.234-0.015-0.611-0.015-0.611c0.265,0.046,0.413,0.321,0.387,0.453c-0.019,0.1,0.012,0.154,0.036,0.122
		c0.082-0.107,0.102-0.327,0.102-0.327c0.194,0.056,0.179,0.306,0.179,0.306c-0.25,0.475,0.025,0.842,0.025,0.842
		c0.321-0.256,0.22-0.76,0.22-0.76c0.26,0.036,0.326,0.367,0.163,0.612c0.311-0.02,0.403,0.367,0.219,0.531
		C52.632,2.44,52.54,2.823,52.54,2.823C52.132,2.532,51.882,2.869,51.882,2.869z M51.586,1.746c0.153,0.005,0.345,0.143,0.408,0.286
		C51.846,2.029,51.621,1.869,51.586,1.746z M51.56,3.266c0.068,0.161-0.163,0.2-0.163,0.072c0-0.128-0.117-0.088-0.112,0.005
		c0.02,0.408,0.418,0.775,0.872,0.627s0.429-0.694,0.118-0.969c-0.118-0.104-0.168,0.016-0.118,0.072
		c0.071,0.081-0.066,0.158-0.128,0.04c-0.104-0.198,0.183-0.371,0.362-0.209c0.453,0.408,0.318,1.055-0.189,1.204
		c-0.505,0.148-0.99-0.194-1.056-0.658C51.106,3.163,51.463,3.037,51.56,3.266z M50.789,2.261c0.096,0.085,0.058,0.268-0.015,0.316
		C50.717,2.525,50.731,2.341,50.789,2.261z M50.401,1.953c-0.004,0.11,0.067,0.124,0.081,0.062c0.042-0.18-0.024-0.324-0.024-0.324
		c0.315,0.091,0.167,0.458,0.162,0.832c-0.004,0.303,0.167,0.338,0.167,0.338c0.31-0.305,0.086-0.818,0.086-0.818
		c0.269,0.129,0.285,0.432,0.2,0.563c-0.053,0.083-0.007,0.126,0.062,0.108c0.147-0.039,0.263,0.1,0.186,0.263
		c-0.325-0.007-0.371,0.425-0.371,0.425c-0.424-0.608-0.448-0.828-0.61-1.145c-0.162-0.318-0.365-0.61-0.365-0.61
		C50.277,1.605,50.406,1.843,50.401,1.953z M49.819,3.195c0.072,0.022,0.122-0.014,0.122-0.014
		c-0.043-0.193,0.071-0.286,0.014-0.629c0.071-0.007,0.114-0.064,0.114-0.064c-0.093-0.136-0.036-0.275-0.036-0.275
		c0.168,0.217,0.247,0.56,0.532,0.99c0.286,0.429,0.647,0.775,0.647,0.775c-0.057,0.339,0.136,0.589,0.136,0.589
		c-0.15-0.036-0.236,0.036-0.236,0.036c-0.239-0.179-0.532,0-0.532,0c-0.272-0.129-0.553,0.136-0.553,0.136
		c-0.214-0.122-0.315-0.257-0.315-0.257c0.115-0.267-0.05-0.354,0-0.625c0.079,0.014,0.143-0.029,0.143-0.029
		C49.776,3.541,49.855,3.412,49.819,3.195z M49.769,2.119c-0.25-0.272-0.753-0.315-0.747-0.622
		C49.022,1.497,49.762,1.484,49.769,2.119z M49.647,1.476c-0.236-0.168-0.625-0.015-0.718-0.311
		C49.219,1.215,49.512,1.079,49.647,1.476z M49.455,1.001c-0.272-0.05-0.653,0.164-0.797-0.136
		C48.822,0.908,49.183,0.515,49.455,1.001z M48.937,0.558c-0.4,0.329-0.658,0.15-0.658,0.15C48.565,0.305,48.937,0.558,48.937,0.558
		z M48.372,0.351c-0.014,0.121-0.303,0.393-0.539,0.264C47.983,0.493,48.05,0.208,48.372,0.351z M47.875,0.255
		c0,0-0.029,0.153-0.186,0.275l-0.143-0.071C47.546,0.458,47.646,0.168,47.875,0.255z M46.939,2.175
		c0.141,0.104,0.015,0.189-0.082,0.152C46.858,2.326,46.836,2.241,46.939,2.175z M46.628,2.489c0.663,0.082,0.626-0.211,0.475-0.552
		c-0.151-0.34-0.267-0.356-0.66-0.208c-0.131,0.05-0.252-0.2-0.133-0.289c0.097-0.073,0.051-0.128-0.022-0.196
		c-0.104-0.096-0.008-0.215,0.46-0.2c0.194,0.007,0.185-0.053,0.171-0.133c-0.029-0.163,0.015-0.26,0.2-0.245
		c0.327,0.026,0.597,0.17,0.597,0.17c-0.133,0.327,0.148,0.445,0.148,0.445c-0.096,0.292,0.044,0.433,0.044,0.433
		c-0.193,0.282-0.111,0.519-0.111,0.519c-0.149,0.166-0.044,0.419-0.044,0.419c-0.222,0.289-0.438,0.126-0.438,0.126
		s0.356-0.193,0.208-0.804c-0.105-0.433-0.364-0.678-0.364-0.678s0.111-0.119,0.267-0.111c0.156,0.008,0.178-0.082-0.089-0.208
		c-0.3-0.142-0.3,0-0.307,0.156c-0.082,0.082-0.099,0.151,0.022,0.278c0.515,0.542,0.441,1.205,0.015,1.227
		C46.639,2.66,46.628,2.489,46.628,2.489z M44.444,12.869c-0.075-0.214-0.098-0.231,0.012-0.613
		c0.051-0.178,0.052-0.232,0.173-0.214c0.201,0.029,0.121-0.203,0.231-0.376c0.064-0.1,0.075-0.179,0.006-0.399
		c-0.069-0.22-0.156-0.393-0.156-0.393s0.122-0.301,0.174-0.62c0.035-0.213-0.172-0.282-0.209-0.098
		c-0.087,0.44-0.37,0.909-1.019,0.909c-0.515,0-0.903-0.491-0.903-1.041c0-0.591,0.564-1.172,0.822-1.464
		c0.735-0.833,0.83-1.193,0.862-1.58c0.035-0.411-0.087-0.538-0.087-0.538c-0.429,0.139-0.527-0.22-0.527-0.22
		c0.064-0.081,0.162-0.087,0.162-0.087c-0.087-0.127-0.289-0.035-0.364-0.324c0.064-0.046,0.214-0.006,0.214-0.006
		c-0.098-0.231-0.359-0.139-0.307-0.567c0.486-0.011,0.44,0.359,0.596,0.4c-0.011-0.104,0.058-0.173,0.058-0.173
		c0.197,0.156,0.064,0.323,0.197,0.44c0.023-0.081,0.087-0.121,0.087-0.121c0.208,0.26,0.04,0.538,0.04,0.538
		c0.503,1.215-0.845,2.292-1.343,3.027c-0.372,0.549-0.185,1.313,0.301,1.453c0.486,0.139,0.868-0.133,1.175-1.204
		c0.137-0.48,0.197-0.59,0.608-1.088c0.411-0.498,0.509-0.897,0.567-1.244c0.058-0.347,0.133-1.528,0.162-1.789
		c0.029-0.26,0.266-0.376,0.359-0.498s0.025-0.207-0.058-0.121c-0.168,0.173-0.341,0.231-0.341,0.231
		c0.017-0.48,0.457-0.521,0.59-0.787c0.049-0.097-0.002-0.151-0.081-0.075c-0.168,0.162-0.405,0.249-0.405,0.249
		c0.058-0.422,0.463-0.463,0.567-0.637c0.061-0.102,0.018-0.18-0.064-0.11c-0.187,0.16-0.353,0.185-0.353,0.185
		s0.098-0.278,0.428-0.463c0.109-0.061,0.076-0.121-0.006-0.11c-0.081,0.012-0.191-0.017-0.191-0.017
		c0.18-0.267,0.458-0.191,0.544-0.087c0.05,0.06,0.087,0.011,0.087-0.04c0-0.052-0.011-0.168,0.162-0.197
		c0.174-0.029,0.243,0.104,0.249,0.162c0.006,0.058,0.093,0.047,0.104,0c0.012-0.046,0.087-0.139,0.33-0.087
		c0.243,0.052,0.318,0.272,0.318,0.272c-0.18-0.064-0.251-0.015-0.145,0.075c0.388,0.33,0.365,0.573,0.365,0.573
		c-0.162-0.151-0.23-0.088-0.15,0.023c0.197,0.271,0.179,0.573,0.179,0.573s-0.122-0.052-0.179-0.104
		c-0.094-0.085-0.184,0.015-0.093,0.121c0.492,0.578,0.393,0.827,0.584,1.151c0.191,0.324,0.879,1.037,1.03,1.175
		c0.139,0.127,0.267-0.11,0.289-0.364c0.016-0.179,0.076-0.359,0.266-0.226c-0.202,0.238-0.017,0.417-0.017,0.417
		C50.179,7.053,50.249,7.03,50.451,7.1c-0.33,0.255-0.052,0.608-0.052,0.608c-0.22,0.104-0.185,0.365-0.185,0.365
		c-0.145-0.006-0.22,0.127-0.22,0.127s-0.122-0.104-0.185-0.238c-0.093-0.194,0.047-0.324-0.168-0.48
		c-0.559-0.408-1.14-0.902-1.302-1.093c-0.162-0.191-0.173-0.104-0.226,0.029c-0.208-0.359-0.283-0.654-0.341-0.463
		c-0.031,0.102-0.093,0.127-0.093,0.127c-0.098-0.44-0.069-0.845-0.301-0.555c-0.041-0.33-0.162-0.336-0.144-0.712
		c0.006-0.133-0.154-0.191-0.162-0.023c-0.023,0.469,0.168,0.561,0.133,0.955c-0.018,0.208,0.064,0.238,0.22,0.209
		c0.093,0.342,0.243,0.544,0.243,0.544c0.058-0.104,0.139-0.139,0.139-0.139c0.168,0.168,0.243,0.353,0.405,0.486
		c0.029-0.098,0.069-0.133,0.179-0.046c0.11,0.087,0.076,0.127,0.076,0.191c0,0.063-0.087,0.214-0.087,0.214
		c-0.029-0.093-0.092-0.121-0.092-0.121c-0.098,0.127-0.035,0.457-0.296,0.648c-0.011-0.11-0.069-0.144-0.069-0.144
		c-0.168,0.133-0.087,0.278-0.266,0.411c-0.012-0.053-0.058-0.047-0.058-0.047s-0.185,0.342-0.7,0.914
		c-0.252,0.28-0.162,0.579-0.515,1.453c-0.136,0.336-0.191,0.411-0.301,0.851c-0.11,0.44-0.18,0.399-1.024,1.111
		c-0.133,0.112-0.098,0.133-0.081,0.209c0.018,0.075,0.139,0.474,0.139,0.474c-0.162,0.058-0.063,0.258,0.058,0.22
		c0.758-0.238,0.903-0.006,0.903-0.006c-0.127-0.04-0.266,0.11-0.266,0.11c-0.289-0.156-0.399,0.191-0.399,0.191
		c-0.064-0.081-0.144-0.023-0.144-0.023c0.116,0.144-0.055,0.209-0.202,0.127c-0.179-0.098-0.272,0.098-0.365-0.069
		C44.649,13.424,44.519,13.084,44.444,12.869z M47.017,12.236c0.06,0.212,0.159,0.559,0.261,0.879s0.266,0.397,0.266,0.397
		c-0.122,0.055-0.327,0.041-0.327,0.041c-0.281-0.833-0.976-0.792-0.976-0.792c-0.007,0.595,0.531,0.854,0.531,0.854
		c-0.143,0.034-0.286,0.02-0.286,0.02c-0.327-0.629-0.265-0.894-1.14-0.731c-0.082-0.204-0.123-0.449-0.123-0.449
		c0.831-0.649,1.058-0.846,1.099-1.113c0.041-0.265,0.143-0.499,0.143-0.499c0.204,0.327,0.259,0.313,0.429,0.368
		c0.17,0.054,0.136,0.104,0.281,0.574C47.258,12.05,46.936,11.947,47.017,12.236z M47.057,13.585
		c-0.267-0.065-0.543-0.318-0.611-0.6C46.711,13.053,46.998,13.331,47.057,13.585z M46.279,13.686c0,0-0.1-0.093-0.286-0.247
		c0,0,0.016-0.062,0.147-0.07C46.14,13.369,46.318,13.477,46.279,13.686z M45.831,13.662c0,0-0.131-0.07-0.232-0.186
		c0,0,0-0.077,0.131-0.084C45.731,13.392,45.854,13.508,45.831,13.662z M46.364,14.482c0.147-0.201,0.974-0.51,1.233-0.308
		C47.517,14.281,47.099,14.56,46.364,14.482z M46.48,14.018c-1.856,0.076-2.582-0.256-2.582-0.256l0.085-0.124
		c0.417,0.101,0.572,0.047,0.742,0.124c0.17,0.078,0.201-0.1,0.533,0.024c0.12,0.044,0.17,0,0.24-0.1
		c0.077,0,0.232,0.07,0.301,0.147c0.067,0.074,0.193,0.077,0.162,0.024c-0.031-0.054,0.031-0.131,0.031-0.131
		s0.154,0.023,0.324,0.17c0.112,0.097,0.101-0.023,0.216-0.1c0.804,0,1.245-0.093,1.245-0.093c0.332,0.1,0.456-0.147,0.456-0.147
		c0.123,0.07,0.224,0.062,0.224,0.062c0.162,0.093,0.363,0.1,0.363,0.1S47.996,13.956,46.48,14.018z M48.452,13.354
		c0,0,0.039-0.085,0.131-0.085c0,0,0.193,0.116,0.178,0.271C48.761,13.539,48.553,13.493,48.452,13.354z M48.707,13.129
		c-0.344-0.097-0.46,0.093-0.363,0.294c-0.364-0.147-0.294,0.101-0.294,0.101s-0.07,0.1-0.201,0.031
		c-0.071-0.038-0.278-0.255-0.363-0.464c-0.085-0.209-0.139-0.534-0.217-0.773c-0.077-0.24,0.186-0.14,0.14-0.425
		c-0.032-0.196-0.116-0.511-0.201-0.719c-0.085-0.209-0.224-0.124-0.379-0.279c-0.109-0.109-0.263-0.317-0.263-0.317
		s0.209-0.34,0.371-1.09c0.089-0.412,0.271-0.51,0.271-0.51s0.147,0.34,0.518,0.718c0.124,0.127,0.17,0.224,0.193,0.511
		c0.023,0.286,0.139,0.649,0.178,1.059c0.018,0.186,0.055,0.264-0.108,0.526c-0.193,0.309-0.224,0.355-0.039,1.005
		c0.053,0.184,0.138,0.235,0.271,0.201c0.333-0.085,0.495-0.1,0.618-0.008C48.738,13.02,48.707,13.129,48.707,13.129z
		 M48.869,13.716c0,0,0.054-0.093,0.047-0.193c0,0,0.193,0,0.332,0.116C49.248,13.639,49.009,13.701,48.869,13.716z M48.862,13.23
		c0,0,0.016-0.124,0.147-0.132c0,0,0.224,0.155,0.224,0.348C49.232,13.446,49.07,13.338,48.862,13.23z M48.304,12.745
		c-0.142,0.029-0.143,0.013-0.21-0.286c-0.067-0.299-0.013-0.327,0.119-0.56c0.107-0.189,0.182-0.306,0.156-0.481
		c-0.026-0.176-0.111-0.924-0.182-1.278c-0.071-0.353-0.087-0.409-0.483-0.905c-0.207-0.258-0.312-0.507-0.312-0.507l0.188-0.234
		c0.039,0.059,0.117,0.072,0.117,0.072c0.098-0.117,0.071-0.315,0.227-0.399c0.065-0.02,0.136,0.033,0.136,0.033
		c0.126-0.176,0.007-0.208,0.307-0.546c0.065,0.007,0.098,0.091,0.098,0.091c0.13-0.162,0.02-0.279,0.24-0.691
		c0.182,0.13,0.444,0.347,0.639,0.47c0.195,0.123,0.181,0.153,0.26,0.474c0.111,0.451,0.351,0.424,0.351,0.424
		c0.065,0.104,0.268,0.182,0.268,0.182l0.049,1.815c0.06,2.3,1.646,2.891,3.591,3.082c-0.078,0.129-0.035,0.25-0.035,0.25
		s-0.363-0.082-0.655,0.139c-0.114,0.086-0.197,0.045-0.197,0.045c-0.442-0.736-1.08-0.795-1.08-0.795
		c-0.136,0.1,0.13,0.516,0.13,0.516c-0.436-0.827-1.165-1.035-1.165-1.035c-0.019,0.526,0.34,0.782,0.34,0.782l-0.256-0.084
		c-0.176-0.899-0.799-1.029-0.799-1.029c-0.119,0.584,0.331,0.95,0.331,0.95l-0.182-0.034c-0.117-0.312-0.373-0.637-0.373-0.637
		c0.593-1.022,0.058-1.752,0.058-1.752c-0.227,0.312-0.331,0.62-0.331,0.62c-0.091-0.229-0.117-0.451-0.117-0.451
		c0.788-1.055,0.364-1.914,0.364-1.914c-0.312,0.21-0.455,0.587-0.455,0.587L49.43,9.374c0.487-1.035-0.247-1.706-0.247-1.706
		c-0.593,1.055,0.111,1.706,0.111,1.706l0.013,0.273c-0.249-0.645-0.743-0.775-0.743-0.775c-0.162,1.113,0.723,1.622,0.723,1.622
		c0.007,0.201,0.039,0.377,0.039,0.377c-0.242-0.26-0.542-0.377-0.542-0.377c-0.071,1.301,0.827,1.639,0.827,1.639
		c0.058,0.145,0.078,0.275,0.078,0.275c-0.403-0.269-0.743-0.249-0.743-0.249c0.091,0.717,0.704,1.048,0.704,1.048
		c-0.176,0.009-0.306,0.06-0.306,0.06C49.038,12.726,48.882,12.628,48.304,12.745z M52.685,13.903
		c-0.273-0.039-0.487-0.279-0.552-0.487C52.288,13.462,52.555,13.572,52.685,13.903z M51.688,13.579
		c-0.273-0.039-0.533-0.431-0.539-0.593C51.383,13.044,51.675,13.371,51.688,13.579z M50.738,13.272
		c-0.273-0.104-0.455-0.559-0.429-0.702C50.556,12.667,50.725,13.064,50.738,13.272z M50.073,13.187
		c-0.267-0.065-0.74-0.397-0.806-0.754C49.612,12.511,50.015,12.933,50.073,13.187z M49.937,11.3
		c0.178,0.306,0.039,0.819-0.085,0.851C49.703,11.899,49.846,11.398,49.937,11.3z M49.534,11.847
		c-0.364-0.176-0.58-0.827-0.555-0.97C49.378,11.136,49.521,11.639,49.534,11.847z M49.345,9.177
		c-0.249-0.228-0.242-0.903-0.13-1.087C49.475,8.378,49.436,8.976,49.345,9.177z M49.488,10.636
		c-0.149-0.253,0.104-0.925,0.273-1.074C49.885,9.848,49.664,10.538,49.488,10.636z M49.267,10.205
		c-0.385-0.208-0.515-0.787-0.489-0.929C49.164,9.497,49.254,9.997,49.267,10.205z M49.635,14.049
		c0.147-0.178,0.904-0.44,1.163-0.238C50.717,13.918,50.261,14.188,49.635,14.049z M51.042,14.374
		c0.185-0.201,0.819-0.371,1.124-0.122C52.055,14.343,51.506,14.59,51.042,14.374z M51.073,13.732
		c-0.918-0.322-1.724-0.108-1.724-0.108l0.124-0.17c0.75-0.108,1.222-0.031,2.118,0.278c0.74,0.256,1.655,0.449,1.655,0.449
		l-0.379,0.093C52.866,14.273,52.263,14.15,51.073,13.732z M52.836,14.714c-0.154-0.07-0.131-0.232-0.131-0.232
		c0.449-0.124,0.912-0.217,0.912-0.217c0.147,0.039,0.147,0.201,0.147,0.201S53.338,14.544,52.836,14.714z M53.956,14.513
		c-0.016-0.48-0.595-0.48-0.595-0.48c0.611-0.293,0.874,0.232,0.874,0.232L53.956,14.513z M54.345,13.508
		c0.412,0,0.353,0.356,0,0.533C53.992,13.864,53.934,13.508,54.345,13.508z M54.734,14.513l-0.278-0.247
		c0,0,0.263-0.525,0.874-0.232C55.33,14.033,54.75,14.033,54.734,14.513z M55.856,14.714c-0.502-0.17-0.927-0.247-0.927-0.247
		s0-0.162,0.147-0.201c0,0,0.464,0.093,0.912,0.217C55.987,14.482,56.01,14.644,55.856,14.714z M57.649,14.374
		c-0.464,0.216-1.013-0.031-1.124-0.122C56.829,14.003,57.464,14.173,57.649,14.374z M57.893,13.811
		c0.259-0.202,1.016,0.06,1.163,0.238C58.43,14.188,57.974,13.918,57.893,13.811z M57.618,13.732
		c-1.191,0.418-1.794,0.541-1.794,0.541l-0.379-0.093c0,0,0.914-0.193,1.655-0.449c0.897-0.309,1.369-0.386,2.118-0.278l0.124,0.17
		C59.342,13.624,58.537,13.41,57.618,13.732z M56.007,13.903c0.13-0.331,0.396-0.441,0.552-0.487
		C56.494,13.625,56.28,13.865,56.007,13.903z M57.003,13.579c0.013-0.208,0.305-0.535,0.539-0.593
		C57.536,13.148,57.276,13.54,57.003,13.579z M57.954,13.272c0.013-0.208,0.182-0.604,0.429-0.702
		C58.409,12.712,58.227,13.167,57.954,13.272z M59.424,12.434c-0.065,0.357-0.539,0.689-0.806,0.754
		C58.677,12.933,59.08,12.511,59.424,12.434z M58.755,11.3c0.091,0.098,0.234,0.598,0.084,0.851
		C58.716,12.119,58.577,11.607,58.755,11.3z M59.04,13.207c0,0,0.613-0.331,0.704-1.048c0,0-0.34-0.02-0.742,0.249
		c0,0,0.019-0.13,0.078-0.275c0,0,0.899-0.338,0.827-1.639c0,0-0.299,0.117-0.542,0.377c0,0,0.033-0.176,0.039-0.377
		c0,0,0.886-0.509,0.723-1.622c0,0-0.493,0.13-0.742,0.775l0.013-0.273c0,0,0.704-0.652,0.111-1.706c0,0-0.734,0.671-0.247,1.706
		l-0.013,0.286c0,0-0.143-0.377-0.455-0.587c0,0-0.424,0.859,0.364,1.914c0,0-0.026,0.221-0.117,0.451c0,0-0.104-0.308-0.331-0.62
		c0,0-0.535,0.73,0.059,1.752c0,0-0.256,0.325-0.373,0.637l-0.182,0.034c0,0,0.451-0.366,0.331-0.95c0,0-0.624,0.129-0.799,1.029
		l-0.255,0.084c0,0,0.359-0.256,0.34-0.782c0,0-0.73,0.208-1.165,1.035c0,0,0.266-0.416,0.129-0.516c0,0-0.638,0.059-1.08,0.795
		c0,0-0.083,0.041-0.197-0.045c-0.292-0.221-0.655-0.139-0.655-0.139s0.043-0.121-0.034-0.25c1.944-0.19,3.53-0.782,3.591-3.082
		l0.049-1.815c0,0,0.204-0.078,0.269-0.182c0,0,0.24,0.026,0.351-0.424c0.079-0.321,0.065-0.35,0.26-0.474
		c0.195-0.124,0.457-0.34,0.639-0.47c0.221,0.412,0.111,0.529,0.24,0.691c0,0,0.033-0.084,0.097-0.091
		c0.301,0.338,0.182,0.371,0.307,0.546c0,0,0.071-0.052,0.136-0.033c0.156,0.084,0.13,0.281,0.227,0.399
		c0,0,0.078-0.013,0.117-0.072l0.189,0.234c0,0-0.106,0.248-0.312,0.507c-0.396,0.496-0.411,0.552-0.483,0.905
		c-0.072,0.353-0.156,1.102-0.182,1.278c-0.026,0.176,0.05,0.292,0.156,0.481c0.132,0.233,0.186,0.262,0.119,0.56
		c-0.067,0.298-0.068,0.315-0.21,0.286c-0.578-0.117-0.734-0.02-1.042,0.522C59.346,13.267,59.216,13.215,59.04,13.207z
		 M59.712,10.876c0.026,0.143-0.191,0.795-0.554,0.97C59.171,11.639,59.314,11.136,59.712,10.876z M59.203,10.636
		c-0.175-0.098-0.396-0.789-0.273-1.074C59.099,9.711,59.353,10.383,59.203,10.636z M59.476,8.09c0.112,0.184,0.119,0.86-0.13,1.087
		C59.255,8.976,59.216,8.378,59.476,8.09z M59.424,10.205c0.013-0.208,0.104-0.709,0.489-0.929
		C59.939,9.419,59.809,9.997,59.424,10.205z M59.443,13.639c0.139-0.116,0.332-0.116,0.332-0.116
		c-0.008,0.1,0.047,0.193,0.047,0.193C59.683,13.701,59.443,13.639,59.443,13.639z M59.458,13.446c0-0.193,0.224-0.348,0.224-0.348
		c0.131,0.008,0.147,0.132,0.147,0.132C59.621,13.338,59.458,13.446,59.458,13.446z M60.471,12.998
		c0.133,0.033,0.218-0.017,0.271-0.201c0.186-0.65,0.155-0.696-0.039-1.005c-0.163-0.262-0.126-0.34-0.108-0.526
		c0.039-0.41,0.155-0.773,0.178-1.059c0.023-0.286,0.07-0.384,0.193-0.511c0.371-0.378,0.518-0.718,0.518-0.718
		s0.181,0.098,0.271,0.51c0.162,0.75,0.371,1.09,0.371,1.09s-0.154,0.209-0.263,0.317c-0.155,0.155-0.294,0.07-0.379,0.279
		c-0.085,0.209-0.169,0.523-0.201,0.719c-0.046,0.286,0.217,0.185,0.139,0.425c-0.077,0.239-0.131,0.564-0.216,0.773
		c-0.085,0.209-0.292,0.427-0.364,0.464c-0.131,0.07-0.201-0.031-0.201-0.031s0.069-0.247-0.294-0.101
		c0.097-0.201-0.02-0.391-0.364-0.294c0,0-0.031-0.109-0.131-0.139C59.976,12.898,60.139,12.913,60.471,12.998z M60.239,13.354
		c-0.101,0.139-0.309,0.186-0.309,0.186c-0.016-0.155,0.178-0.271,0.178-0.271C60.201,13.268,60.239,13.354,60.239,13.354z
		 M61.094,14.174c0.259-0.202,1.086,0.107,1.233,0.308C61.592,14.56,61.175,14.281,61.094,14.174z M62.211,14.018
		c-1.515-0.062-2.343-0.302-2.343-0.302s0.201-0.008,0.363-0.1c0,0,0.1,0.008,0.224-0.062c0,0,0.124,0.247,0.456,0.147
		c0,0,0.441,0.093,1.245,0.093c0.116,0.078,0.104,0.198,0.216,0.1c0.17-0.147,0.324-0.17,0.324-0.17s0.062,0.077,0.031,0.131
		c-0.031,0.054,0.096,0.05,0.162-0.024c0.07-0.077,0.224-0.147,0.302-0.147c0.069,0.1,0.12,0.145,0.239,0.1
		c0.332-0.124,0.364,0.054,0.533-0.024c0.17-0.077,0.325-0.023,0.742-0.124l0.085,0.124C64.793,13.763,64.067,14.093,62.211,14.018z
		 M64.924,13.415c-0.074-0.116,0.178-0.123,0.178-0.123C65.095,13.36,64.979,13.5,64.924,13.415z M65.203,12.75
		c0.162-0.04,0.24-0.085,0.24-0.085s0.02,0.254-0.286,0.379C64.948,13.129,64.917,12.82,65.203,12.75z M65.381,13.624
		c-0.271,0.031-0.262-0.286-0.023-0.31c0.24-0.023,0.387,0.109,0.387,0.109S65.581,13.601,65.381,13.624z"/>
	<path fill="#1D1D1B" d="M55.65,10.573c-0.26,0-0.472,0.206-0.472,0.461c0,0.254,0.211,0.461,0.472,0.461
		c0.26,0,0.472-0.207,0.472-0.461C56.121,10.779,55.91,10.573,55.65,10.573z M55.65,11.306c-0.153,0-0.278-0.122-0.278-0.272
		c0-0.15,0.125-0.272,0.278-0.272c0.154,0,0.278,0.122,0.278,0.272C55.928,11.184,55.804,11.306,55.65,11.306z"/>
</g>
</svg>
