<?xml version="1.0" encoding="utf-8"?>
<!-- Generator: Adobe Illustrator 16.0.4, SVG Export Plug-In . SVG Version: 6.00 Build 0)  -->
<!DOCTYPE svg PUBLIC "-//W3C//DTD SVG 1.1//EN" "http://www.w3.org/Graphics/SVG/1.1/DTD/svg11.dtd">
<svg version="1.1" id="logo-optimiert" xmlns="http://www.w3.org/2000/svg" xmlns:xlink="http://www.w3.org/1999/xlink" x="0px"
	 y="0px" width="346px" height="37px" viewBox="0 0 346 37" enable-background="new 0 0 346 37" xml:space="preserve">
<title>ZEIT ONLINE</title>
<desc>Nachrichten auf ZEIT ONLINE</desc>
<path fill="#1D1D1B" d="M71.91,32.938c-1.061,0-2.818-1.024-2.818-2.614l0.012-25.711c0-1.592,1.838-2.595,2.652-2.595
	c0.286,0,0.324-0.719,0-0.719h-11.46c-0.321,0-0.283,0.719,0,0.719c0.815,0,2.651,1.003,2.651,2.595v25.711
	c0,1.59-1.59,2.614-2.651,2.614c-0.283,0-0.396,0.812,0,0.812H71.91C72.308,33.749,72.195,32.938,71.91,32.938z M66.719,31.834
	c0,0.117-0.095,0.215-0.215,0.215h-0.801c-0.119,0-0.216-0.098-0.216-0.215V3.256c0-0.118,0.097-0.215,0.216-0.215h0.801
	c0.12,0,0.215,0.097,0.215,0.215V31.834z"/>
<path fill="#1D1D1B" d="M42.131,3.038c5.917,0,10.648,2.229,13.709,6.925c0.176,0.27,0.634,0.129,0.533-0.128
	c-0.149-0.379-3.571-8.537-3.571-8.537L29.098,1.296c-0.315,0-0.279,0.721,0,0.716c1.27,0,3.266,1.387,3.266,2.979v24.102
	c0,2.305-1.521,3.84-3.266,3.84c-0.279,0-0.315,0.814,0,0.814h23.765c0,0,3.292-7.811,3.419-8.121
	c0.125-0.309-0.332-0.618-0.534-0.231c-1.338,2.571-6.384,6.65-13.01,6.65h-4.582V18.472h6.041c3.958,0,5.957,2.772,6.51,3.539
	c0.264,0.365,0.807,0.22,0.604-0.22c-0.203-0.437-2.099-4.214-2.099-4.214s1.896-3.774,2.099-4.213
	c0.203-0.439-0.227-0.646-0.456-0.258c-0.227,0.387-3.163,3.459-7.286,3.459h-5.412V3.038H42.131z M35.907,31.834
	c0,0.117-0.095,0.215-0.211,0.215h-0.796c-0.116,0-0.21-0.098-0.21-0.215V3.256c0-0.118,0.095-0.215,0.21-0.215h0.796
	c0.117,0,0.211,0.097,0.211,0.215V31.834z"/>
<path fill="#1D1D1B" d="M25.786,25.32c-0.928,1.762-6.252,6.727-13.187,6.727H7.88l18.644-30.75H8.962
	c-2.104,0-4.111-0.171-4.111-0.171S1.585,8.588,1.288,9.234C1.081,9.689,1.547,9.912,1.837,9.424
	C2.728,7.927,6.63,3.039,14.436,3.039h3.979L0,33.747h22.432c0,0,3.6-7.878,3.771-8.276C26.373,25.074,25.977,24.96,25.786,25.32z
	 M4.782,32.049L4.782,32.049H3.8H3.799c-0.116,0-0.153-0.098-0.079-0.215L21.015,3.256c0.073-0.118,0.227-0.215,0.342-0.215h0.001
	h0.979h0.001c0.117,0,0.153,0.097,0.081,0.215L5.123,31.834C5.05,31.951,4.897,32.049,4.782,32.049z"/>
<path fill="#1D1D1B" d="M102.046,9.482c-0.17-0.379-3.433-7.028-3.751-7.863c-0.303-0.796-0.91-0.322-1.458-0.322H78.648
	c-0.549,0-1.156-0.474-1.459,0.322c-0.318,0.835-3.202,7.73-3.373,8.108c-0.171,0.379,0.408,0.697,0.701,0.171
	c1.25-2.255,5.486-6.859,10.128-6.859v27.284c0,1.59-1.592,2.614-2.653,2.614c-0.283,0-0.398,0.812,0,0.812h11.615
	c0.397,0,0.284-0.812,0-0.812c-1.062,0-2.818-1.024-2.818-2.614L90.786,3.039c4.487,0,9.063,4.416,10.559,6.613
	C101.685,10.149,102.216,9.859,102.046,9.482z M88.416,31.834c0,0.117-0.096,0.215-0.215,0.215h-0.802
	c-0.119,0-0.215-0.098-0.215-0.215V3.256c0-0.118,0.097-0.215,0.215-0.215h0.802c0.119,0,0.215,0.097,0.215,0.215V31.834z"/>
<path fill="#1D1D1B" d="M331.741,3.038c5.918,0,10.648,2.229,13.711,6.925c0.177,0.27,0.635,0.129,0.533-0.128
	c-0.149-0.379-3.571-8.537-3.571-8.537L318.71,1.296c-0.316,0-0.279,0.721,0,0.716c1.268,0,3.265,1.387,3.265,2.979v24.102
	c0,2.305-1.52,3.84-3.265,3.84c-0.279,0-0.316,0.814,0,0.814h23.768c0,0,3.293-7.811,3.418-8.121
	c0.127-0.309-0.329-0.618-0.532-0.231c-1.34,2.571-6.385,6.65-13.012,6.65h-4.581V18.472h6.041c3.956,0,5.957,2.772,6.51,3.539
	c0.264,0.365,0.806,0.22,0.603-0.22c-0.202-0.437-2.1-4.214-2.1-4.214s1.897-3.774,2.1-4.213c0.203-0.439-0.227-0.646-0.456-0.258
	c-0.228,0.387-3.163,3.459-7.286,3.459h-5.412V3.038H331.741z M325.519,31.834c0,0.117-0.094,0.215-0.21,0.215h-0.799
	c-0.117,0-0.211-0.098-0.211-0.215V3.256c0-0.118,0.094-0.215,0.211-0.215h0.799c0.116,0,0.21,0.097,0.21,0.215V31.834z"/>
<path fill="#1D1D1B" d="M278.316,32.938c-1.06,0-2.817-1.024-2.817-2.614l0.011-25.711c0-1.592,1.838-2.595,2.653-2.595
	c0.284,0,0.323-0.719,0-0.719h-11.461c-0.321,0-0.283,0.719,0,0.719c0.815,0,2.654,1.003,2.654,2.595v25.711
	c0,1.59-1.593,2.614-2.654,2.614c-0.283,0-0.396,0.812,0,0.812h11.614C278.715,33.749,278.602,32.938,278.316,32.938z
	 M273.127,31.834c0,0.117-0.097,0.215-0.216,0.215h-0.804c-0.12,0-0.215-0.098-0.215-0.215V3.256
	c0.001-0.118,0.097-0.215,0.215-0.215h0.804c0.119,0,0.216,0.097,0.216,0.215V31.834z"/>
<path fill="#1D1D1B" d="M315.629,1.296h-9.944c-0.323,0-0.284,0.719,0,0.719c2.321,0,3.864,1.085,3.864,6.538v15.271L290.672,1.298
	l-9.012-0.001c-0.321,0-0.284,0.719,0,0.719c1.603,0,5.078,1.832,5.078,4.541v18.309c0,6.729-1.128,8.071-3.562,8.071
	c-0.284,0-0.399,0.812,0,0.812h9.491c0.397,0,0.284-0.812,0-0.812c-2.66,0-3.728-1.342-3.728-8.071l0.01-16.638l22.817,26.545
	l-0.005-26.221c0-5.377,1.662-6.538,3.866-6.538C315.912,2.015,315.95,1.296,315.629,1.296z M309.723,27.973
	c0,0.297-0.905,0.189-1.008,0.072l-21.18-24.86c-0.102-0.12-0.089-0.17,0.032-0.17h1.131c0.161,0,0.328,0.194,0.429,0.313
	l20.476,24.02c0.1,0.119,0.12,0.253,0.12,0.432V27.973z"/>
<path fill="#1D1D1B" d="M235.45,1.296h-9.944c-0.322,0-0.284,0.719,0,0.719c2.321,0,3.865,1.085,3.865,6.538v15.271L210.493,1.298
	l-9.012-0.001c-0.321,0-0.283,0.719,0,0.719c1.604,0,5.077,1.832,5.077,4.541v18.309c0,6.729-1.124,8.071-3.562,8.071
	c-0.284,0-0.397,0.812,0,0.812h9.492c0.397,0,0.284-0.812,0-0.812c-2.66,0-3.728-1.342-3.728-8.071l0.01-16.638l22.817,26.545
	l-0.003-26.221c0-5.377,1.661-6.538,3.864-6.538C235.734,2.015,235.772,1.296,235.45,1.296z M229.501,28.037
	c0,0.297-0.905,0.191-1.007,0.074L207.359,3.185c-0.104-0.12-0.091-0.17,0.03-0.17h1.132c0.16,0,0.327,0.194,0.429,0.313
	l20.43,24.086c0.102,0.117,0.121,0.253,0.121,0.43V28.037z"/>
<path fill="#1D1D1B" d="M183.996,0.506c-7.594,0-16.926,5.729-16.926,17.279c0,10.119,6.404,16.403,16.695,16.403
	c13.356,0,17.244-9.84,17.244-16.679C201.01,7.9,193.646,0.506,183.996,0.506z M170.101,18.029c0-8.2,5.183-14.439,8.185-15.063
	c-2.661,1.534-6.992,7.244-6.833,15.063c0.149,7.32,2.386,10.667,5.657,13.648C173.839,29.638,170.101,26.199,170.101,18.029z
	 M174.023,17.579c0-10.303,5.039-15.433,9.955-15.433c5.91,0,10.185,4.837,10.185,14.892c0,10.29-4.938,15.278-10.107,15.278
	C178.795,32.316,174.023,29.084,174.023,17.579z M189.812,31.677c2.661-1.535,6.903-6.758,6.831-14.577
	c-0.068-7.493-2.384-11.154-5.655-14.134c3.271,2.04,7.01,5.965,7.01,14.134C197.998,25.299,192.814,31.051,189.812,31.677z"/>
<path fill="#1D1D1B" d="M264.722,25.038c-1.34,2.574-6.197,7.009-12.823,7.009h-3.797l0.012-27.437c0-1.591,2.14-2.595,2.954-2.595
	c0.284,0,0.323-0.719,0-0.719h-12.203c-0.316,0-0.278,0.721-0.002,0.719c1.27,0,3.266,1.387,3.266,2.979V28.64
	c0,3.068-1.823,4.296-3.568,4.296c-0.279,0-0.315,0.813,0,0.813h23.464c0,0,3.104-8.169,3.23-8.477
	C265.379,24.962,264.922,24.651,264.722,25.038z M245.747,31.834c0,0.117-0.096,0.215-0.214,0.215h-0.805
	c-0.118,0-0.215-0.098-0.215-0.215V3.256c0-0.118,0.097-0.215,0.215-0.215h0.805c0.118,0,0.214,0.097,0.214,0.215V31.834z"/>
<g>
	<path fill="#1D1D1B" d="M136.345,24.155c-1.627,0-2.946,1.289-2.946,2.88c0,1.59,1.319,2.878,2.946,2.878
		c1.627,0,2.947-1.288,2.947-2.878C139.292,25.444,137.972,24.155,136.345,24.155z M133.995,28.004c0,0-0.417-1.042,0-1.942
		C134.488,27.085,133.995,28.004,133.995,28.004z M137.315,24.752c-1.022,0.493-1.941,0-1.941,0S136.416,24.335,137.315,24.752z
		 M135.374,29.316c0,0,0.919-0.493,1.941,0C136.416,29.733,135.374,29.316,135.374,29.316z M138.094,28.786
		c-0.36,0.407-0.909-0.161-1.752-0.161c-0.843,0-1.398,0.549-1.758,0.143c-0.407-0.361,0.15-0.893,0.15-1.735
		s-0.548-1.39-0.141-1.75c0.36-0.406,0.909,0.162,1.752,0.162c0.843,0,1.399-0.551,1.758-0.144c0.408,0.361-0.15,0.893-0.15,1.735
		S138.502,28.426,138.094,28.786z M138.691,26.062c0.417,0.9,0,1.942,0,1.942S138.2,27.085,138.691,26.062z"/>
	<path fill="#1D1D1B" d="M136.345,22.981c-0.596,0-1.163,0.123-1.676,0.344c-0.086-0.075-0.169-0.157-0.198-0.219
		c-0.132-0.287-0.364-0.13-0.364-0.13s-0.147-0.324-0.184-0.559c-0.038-0.233-0.272-0.249-0.457-0.06
		c-0.185,0.191-0.337,0.255-0.337,0.255l-2.698-2.605l0.835-0.866l0.368,0.355l-0.599,0.62l1.076,1.04l2.974-3.081l-1.73-1.67
		l-1.145,1.184l0.763,0.738l0.355-0.368l0.225,0.217l-0.612,0.633l-2.29-2.21l0.612-0.634l0.225,0.217l-0.355,0.368l0.647,0.625
		l1.145-1.186l-1.73-1.67l-2.974,3.08l1.076,1.04l0.599-0.621l0.368,0.355l-0.836,0.865l-1.956-1.889
		c-0.293-0.283-0.717-0.02-0.954,0.225s-0.459,0.702-0.167,0.985l5.625,5.432c0,0-0.058,0.155-0.242,0.346
		c-0.185,0.191-0.16,0.426,0.075,0.454c0.235,0.03,0.565,0.165,0.565,0.165s-0.15,0.236,0.141,0.359
		c0.036,0.014,0.08,0.048,0.125,0.088c-0.286,0.55-0.446,1.172-0.446,1.831c0,2.238,1.857,4.053,4.148,4.053
		c2.292,0,4.148-1.814,4.148-4.053C140.493,24.796,138.636,22.981,136.345,22.981z M126.772,18.22
		c-0.175-0.169-0.157-0.302,0.068-0.535c0.112-0.116,0.256-0.332,0.514-0.082l2.051,1.981l1.434-1.486l-0.906-0.875l-0.638,0.66
		l-0.518-0.5l2.382-2.466l1.199,1.157l-0.553,0.573l-0.19-0.185l0.316-0.326l-0.675-0.652l-1.099,1.138l2.773,2.678l1.099-1.137
		l-0.708-0.685l-0.316,0.327l-0.231-0.223l0.553-0.573l1.11,1.072l-2.355,2.44l-0.429-0.415l0.611-0.635l-1.001-0.967l-1.435,1.486
		l3.025,2.921l-0.589,0.61L126.772,18.22z M132.755,24.393c-0.133-0.161-0.246-0.028-0.351-0.143
		c-0.068-0.073-0.047-0.18,0.085-0.322c0.174-0.186,0.549-0.587,0.757-0.794c0.208-0.209,0.37-0.342,0.493-0.219
		c0.123,0.124,0.029,0.236,0.189,0.398c0.161,0.159,0.303-0.077,0.436,0.282c-0.947,0.654-1.394,1.338-1.394,1.338
		C132.583,24.697,132.896,24.563,132.755,24.393z M136.345,30.501c-1.959,0-3.547-1.553-3.547-3.466
		c0-1.914,1.588-3.467,3.547-3.467c1.959,0,3.547,1.553,3.547,3.467C139.892,28.948,138.304,30.501,136.345,30.501z"/>
	<path fill="#1D1D1B" d="M160.093,32.244c1.042-0.682,0.814-1.971,0.814-1.971s-0.567,0.398-1.363,0.55
		c-0.501,0.096-0.872,0.853-0.625,1.459c-0.284,0.208-0.341,0.549-0.341,0.549c-0.587,0.246-1.174,0.246-1.174,0.246
		c0.984-1.876,0.947-1.951,0.663-3.182c-0.191-0.83-0.273-1.065-0.625-0.985c-0.587,0.133-0.625-1.1-0.096-1.837
		c0,0,1.838,1.477,3.732-0.075c1.833-1.504,1.308-4.017-0.853-6.232c-2.159-2.218-2.33-3.107-2.292-4.472
		c1.42,0.057,1.591-1.041,1.458-1.212c0.986-0.417,0.549-1.325,0.549-1.325c0.36-0.551,0.171-1.459,0.171-1.459
		c-0.928-0.058-1.478,0.284-1.478,0.284c-0.606-0.19-1.08,0.663-1.08,0.663c-1.174,0.019-0.776,2.235-0.776,2.235
		s-0.516,1.309-0.17,2.387c0.928,2.899,2.595,3.676,3.656,5.531c0.425,0.745,0.417,2.178-0.53,2.539
		c-0.891,0.338-1.648-0.342-2.122-2.235c-0.473-1.895-0.644-1.95-1.761-3.447c-1.118-1.497-1.174-2.255-1.25-3.809
		c-0.077-1.553-0.228-3.182-0.228-3.182c0.246,0.056,0.322-0.133,0.322-0.133c-0.474-0.625-0.512-1.364-0.512-1.364
		c0.19,0,0.265-0.151,0.265-0.151c-0.568-0.587-0.303-0.758-0.568-1.269c0.322,0.019,0.379-0.228,0.379-0.228
		c-0.682-0.511-0.606-0.966-1.269-1.723c0.189,0.019,0.303-0.115,0.303-0.115c-0.53-0.644-0.738-1.193-1.763-1.003l-0.282-0.322
		c0,0,0.815-0.058,1.212-0.568c0.397-0.511-0.322-1.023-0.322-1.023s-0.168,0.203-0.265,0.171c-0.228-0.077,0.019-0.341-0.303-0.492
		c-0.261-0.123-0.114-0.625,0.284-0.55c0.398,0.077,0.095,0.587,0.379,0.682c0.284,0.096,0.386-0.475,0.645-0.378
		c0.151,0.058,0.189-0.075,0.586-0.758c0.248-0.424-0.151-0.398,0.095-0.928c0.175-0.376,0.228-0.947-1.421-1.193
		c-0.038-1.365-1.307-0.891-1.762-0.929c-0.246-0.89-1.061-1.061-2.218-0.965l-0.093,0.188c-0.776-0.038-1.269,0.152-1.269,0.152
		l0.058,0.322c-0.777-0.077-1.08,0.454-1.573,0.548l0.095,0.228c-0.719,0.436-0.606,0.985-1.306,1.362l0.284,0.286l-0.171,0.303
		c-0.757-0.019-1.231,0.341-1.231,0.341c-0.909-0.132-1.137,0.757-1.137,0.757c-0.966,0.171-1.231,1.25-1.136,1.686
		c-0.795,0.247-0.625,1.194-0.625,1.194c-0.512,0.227-0.739,0.966,0.017,1.381c0,0-0.339,0.873-1.343,0.456
		c-0.998-0.414-0.739-1.136-0.568-1.288c0.701,0.568,1.212,0.075,1.137-0.568c1.042-0.303,0.758-1.327,0.758-1.327
		c1.269-0.682,0.474-2.103,0.474-2.103c0.568-0.549,0.019-1.231,0.019-1.231c0.019-0.891-0.568-1.705-0.568-1.705
		c-0.909,0.151-1.25,0.739-1.25,0.739c-0.966,0.019-1.174,0.985-1.174,0.985c-1.004,0.038-1.345,0.947-1.212,1.705
		c-0.606,0.34-0.701,1.212-0.36,1.818c-0.53,0.607-0.076,1.345,0.512,1.364c0,0-0.114,0.91-1.156,0.91
		c-1.042,0-1.439-1.023-1.174-1.459c0.776,0.322,1.137-0.359,0.985-0.966c0.947-0.72,0.114-1.724,0.114-1.724
		c0.586-0.872,0.057-1.534-0.531-2.083c0-0.568-0.436-0.625-0.436-0.625c-0.378-1.042-1.144-1.459-1.144-1.459
		s-0.764,0.417-1.142,1.459c0,0-0.436,0.056-0.436,0.625c-0.587,0.549-1.117,1.212-0.53,2.083c0,0-0.834,1.004,0.113,1.724
		c-0.152,0.606,0.208,1.288,0.985,0.966c0.265,0.436-0.132,1.459-1.174,1.459s-1.156-0.91-1.156-0.91
		c0.587-0.019,1.042-0.757,0.512-1.364c0.341-0.606,0.246-1.478-0.36-1.818c0.132-0.758-0.208-1.667-1.212-1.705
		c0,0-0.208-0.966-1.174-0.985c0,0-0.341-0.587-1.25-0.739c0,0-0.587,0.814-0.568,1.705c0,0-0.549,0.682,0.019,1.231
		c0,0-0.796,1.421,0.474,2.103c0,0-0.284,1.023,0.757,1.327c-0.076,0.644,0.436,1.137,1.137,0.568
		c0.17,0.152,0.429,0.874-0.568,1.288c-1.004,0.417-1.343-0.456-1.343-0.456c0.756-0.416,0.528-1.154,0.018-1.381
		c0,0,0.17-0.947-0.625-1.194c0.095-0.436-0.17-1.515-1.136-1.686c0,0-0.228-0.889-1.137-0.757c0,0-0.474-0.36-1.231-0.341
		l-0.17-0.303l0.284-0.286c-0.7-0.377-0.587-0.926-1.307-1.362l0.095-0.228c-0.493-0.094-0.796-0.625-1.572-0.548l0.056-0.322
		c0,0-0.492-0.19-1.269-0.152l-0.093-0.188c-1.158-0.096-1.972,0.075-2.218,0.965c-0.455,0.038-1.724-0.436-1.762,0.929
		c-1.648,0.246-1.595,0.816-1.421,1.193c0.247,0.53-0.152,0.504,0.095,0.928c0.398,0.683,0.436,0.815,0.587,0.758
		c0.259-0.097,0.36,0.474,0.645,0.378c0.284-0.094-0.019-0.605,0.378-0.682c0.398-0.075,0.545,0.428,0.285,0.55
		c-0.322,0.151-0.076,0.416-0.303,0.492c-0.097,0.032-0.266-0.171-0.266-0.171s-0.719,0.512-0.322,1.023
		c0.398,0.511,1.212,0.568,1.212,0.568l-0.283,0.322c-1.024-0.19-1.232,0.359-1.763,1.003c0,0,0.114,0.134,0.303,0.115
		c-0.663,0.757-0.587,1.212-1.269,1.723c0,0,0.057,0.247,0.378,0.228c-0.265,0.511,0,0.682-0.568,1.269c0,0,0.076,0.151,0.266,0.151
		c0,0-0.038,0.739-0.512,1.364c0,0,0.076,0.189,0.322,0.133c0,0-0.151,1.628-0.227,3.182c-0.077,1.554-0.133,2.312-1.25,3.809
		c-1.118,1.497-1.289,1.553-1.762,3.447c-0.474,1.894-1.231,2.573-2.122,2.235c-0.948-0.361-0.957-1.794-0.531-2.539
		c1.061-1.855,2.728-2.632,3.656-5.531c0.346-1.078-0.17-2.387-0.17-2.387s0.398-2.216-0.776-2.235c0,0-0.474-0.853-1.08-0.663
		c0,0-0.549-0.342-1.478-0.284c0,0-0.189,0.908,0.171,1.459c0,0-0.436,0.909,0.549,1.325c-0.133,0.171,0.038,1.269,1.458,1.212
		c0.038,1.365-0.133,2.254-2.292,4.472c-2.16,2.216-2.685,4.729-0.852,6.232c1.894,1.552,3.732,0.075,3.732,0.075
		c0.529,0.737,0.492,1.97-0.096,1.837c-0.352-0.08-0.433,0.155-0.625,0.985c-0.284,1.23-0.322,1.306,0.663,3.182
		c0,0-0.587,0-1.175-0.246c0,0-0.057-0.341-0.341-0.549c0.247-0.606-0.124-1.363-0.625-1.459c-0.796-0.151-1.364-0.55-1.364-0.55
		s-0.227,1.289,0.815,1.971c0,0-1.212-0.266-1.875,0.624c0.776,0.267,0.789,0.818,1.516,1.004c0.814,0.209,1.212-0.604,1.212-0.604
		s0.246,0.164-0.057,0.567c-0.228,0.304-0.223,0.438,0.151,0.549c2.994,0.891,6.081,0.645,6.081,0.645s-0.625,0.342-0.872,1.155
		c1.288-0.322,3.618,0.606,5.039-1.421c0,0,1.648-0.454,3.94-0.852c0,0-0.511,0.303-0.814,0.833c0,0,2.008,0.985,4.603-0.511
		c0.125-0.072,0.304,0.132,0.114,0.207c-1.099,0.437-1.345,1.099-1.345,1.099s2.235,1.194,4.452-0.265c0,0-0.341,1.1,0.795,1.478
		c0,0,1.08-0.397,2.236-0.645c0,0-0.114,0.284,0.132,0.397c0,0,0.928-0.15,1.635-0.983c0.707,0.833,1.636,0.983,1.636,0.983
		c0.247-0.113,0.132-0.397,0.132-0.397c1.156,0.247,2.236,0.645,2.236,0.645c1.136-0.378,0.795-1.478,0.795-1.478
		c2.216,1.459,4.451,0.265,4.451,0.265s-0.246-0.662-1.345-1.099c-0.189-0.075-0.011-0.279,0.113-0.207
		c2.595,1.496,4.604,0.511,4.604,0.511c-0.303-0.53-0.814-0.833-0.814-0.833c2.292,0.397,3.939,0.852,3.939,0.852
		c1.421,2.027,3.751,1.099,5.039,1.421c-0.246-0.813-0.871-1.155-0.871-1.155s3.088,0.246,6.081-0.645
		c0.374-0.11,0.378-0.245,0.151-0.549c-0.303-0.403-0.057-0.567-0.057-0.567s0.397,0.813,1.212,0.604
		c0.727-0.186,0.738-0.737,1.515-1.004C161.305,31.979,160.093,32.244,160.093,32.244z M106.113,33.381
		c-0.491-0.057-0.89-0.493-0.89-0.493s0.359-0.321,0.947-0.266C106.757,32.68,106.776,33.456,106.113,33.381z M106.662,31.96
		c-0.75-0.306-0.701-0.928-0.701-0.928s0.19,0.111,0.587,0.208C107.25,31.41,107.174,32.168,106.662,31.96z M107.23,32.868
		c-0.133,0.209-0.417-0.133-0.436-0.302C106.794,32.566,107.413,32.583,107.23,32.868z M152.561,8.138c0,0-0.27,0.07-0.468,0.042
		c-0.198-0.027-0.281,0.121-0.015,0.27c0.809,0.454,1.05,1.134,1.05,1.134s-0.406-0.061-0.865-0.454
		c-0.199-0.17-0.306,0.02-0.156,0.27c0.255,0.425,1.248,0.524,1.39,1.56c0,0-0.582-0.213-0.993-0.61
		c-0.192-0.186-0.317-0.054-0.198,0.184c0.327,0.653,1.404,0.752,1.446,1.929c0,0-0.425-0.142-0.836-0.567
		c-0.204-0.211-0.369,0-0.142,0.297c0.227,0.297,0.809,0.582,0.879,1.219c0.071,0.639,0.256,3.531,0.397,4.382
		c0.142,0.851,0.382,1.83,1.389,3.048c1.007,1.22,1.152,1.489,1.489,2.666c0.751,2.623,1.688,3.289,2.878,2.949
		c1.191-0.341,1.648-2.215,0.737-3.559c-1.22-1.801-4.523-4.439-3.29-7.417c0,0-0.411-0.681,0.1-1.318c0,0,0.156,0.099,0.212,0.297
		c0.327-0.284,0-0.695,0.482-1.077c0,0,0.17,0.169,0.142,0.425c0.382-0.099,0.27-1.007,1.46-0.979
		c0.127,1.05-0.511,0.823-0.751,1.39c0,0,0.368-0.099,0.524,0.015c-0.185,0.709-0.681,0.482-0.894,0.794
		c0,0,0.241,0.014,0.397,0.212c0,0-0.241,0.88-1.291,0.539c0,0-0.298,0.313-0.213,1.319c0.081,0.949,0.312,1.829,2.113,3.871
		c0.632,0.717,2.014,2.141,2.014,3.588c0,1.347-0.95,2.551-2.212,2.551c-1.588,0-2.283-1.148-2.495-2.226
		c-0.089-0.45-0.596-0.281-0.51,0.241c0.127,0.78,0.425,1.518,0.425,1.518s-0.212,0.426-0.383,0.964
		c-0.169,0.538-0.142,0.731,0.015,0.978c0.27,0.425,0.074,0.992,0.567,0.922c0.297-0.043,0.3,0.089,0.426,0.525
		c0.269,0.935,0.212,0.978,0.028,1.502c-0.184,0.525-0.504,1.357-0.624,1.575c-0.227,0.41-0.454-0.072-0.893,0.169
		c-0.362,0.199-0.78,0.043-0.497-0.312c0,0-0.198-0.142-0.355,0.057c0,0-0.269-0.851-0.978-0.469c0,0-0.34-0.367-0.652-0.269
		c0,0,0.353-0.568,2.211,0.015c0.297,0.093,0.539-0.397,0.142-0.54c0,0,0.297-0.978,0.34-1.161c0.043-0.185,0.127-0.236-0.198-0.512
		c-2.07-1.744-2.24-1.645-2.51-2.722c-0.27-1.078-0.405-1.261-0.737-2.085c-0.865-2.14-0.645-2.872-1.262-3.559
		c-1.263-1.402-1.716-2.24-1.716-2.24s-0.113-0.015-0.142,0.114c-0.439-0.327-0.241-0.681-0.652-1.007c0,0-0.142,0.085-0.171,0.354
		c-0.638-0.468-0.481-1.276-0.723-1.588c0,0-0.156,0.07-0.227,0.297c0,0-0.213-0.369-0.213-0.524c0-0.157-0.084-0.256,0.185-0.468
		c0.27-0.212,0.369-0.128,0.439,0.113c0.397-0.326,0.582-0.779,0.994-1.191c0,0,0.198,0.086,0.34,0.341c0,0,0.369-0.497,0.595-1.333
		c0.383,0.07,0.584-0.002,0.539-0.511c-0.085-0.963,0.382-1.19,0.326-2.339c-0.021-0.412-0.413-0.27-0.397,0.056
		c0.042,0.922-0.255,0.936-0.354,1.745c-0.567-0.709-0.496,0.284-0.737,1.361c0,0-0.152-0.062-0.227-0.312
		c-0.142-0.468-0.326,0.255-0.836,1.134c-0.128-0.326-0.156-0.539-0.553-0.07c-0.397,0.468-1.82,1.679-3.19,2.679
		c-0.524,0.383-0.184,0.702-0.411,1.177c-0.156,0.327-0.453,0.582-0.453,0.582s-0.185-0.327-0.539-0.312
		c0,0,0.085-0.638-0.454-0.894c0,0,0.681-0.864-0.127-1.489c0.496-0.171,0.667-0.114,0.255-0.836c0,0,0.454-0.439-0.042-1.022
		c0.468-0.326,0.613,0.116,0.653,0.554c0.057,0.623,0.368,1.205,0.708,0.893c0.37-0.339,2.057-2.085,2.524-2.879
		c0.468-0.794,0.227-1.404,1.432-2.821c0.222-0.261,0.004-0.506-0.227-0.297c-0.142,0.126-0.44,0.254-0.44,0.254
		s-0.042-0.738,0.44-1.403c0.196-0.272,0.028-0.426-0.369-0.057c0,0-0.057-0.596,0.894-1.404c0.26-0.221,0.085-0.34-0.354-0.184
		c0,0,0.185-0.538,0.78-0.666c0.596-0.128,0.78,0.099,0.808,0.212c0.029,0.114,0.241,0.142,0.255,0s0.184-0.468,0.61-0.397
		c0.425,0.072,0.397,0.354,0.397,0.482c0,0.127,0.091,0.246,0.212,0.099C151.44,7.669,152.121,7.485,152.561,8.138z M154.579,33.02
		c-0.246,0.284-0.569,0.455-0.569,0.455c-0.056-0.378,0.247-0.662,0.247-0.662C154.579,32.831,154.579,33.02,154.579,33.02z
		 M153.006,31.264c0,0-1.703-0.099-2.391,1.941c0,0-0.501,0.033-0.801-0.101c0,0,0.4-0.188,0.651-0.973
		c0.25-0.784,0.492-1.634,0.639-2.153c0.2-0.705-0.59-0.454-0.389-1.105c0.355-1.151,0.272-1.273,0.689-1.406
		c0.417-0.134,0.551-0.101,1.051-0.901c0,0,0.25,0.572,0.351,1.223c0.1,0.652,0.655,1.136,2.691,2.726c0,0-0.1,0.601-0.3,1.101
		c-2.141-0.4-1.991,0.25-2.792,1.791c0,0-0.351,0.034-0.701-0.05C151.705,33.355,153.023,32.722,153.006,31.264z M151.008,33.284
		c0.144-0.622,0.846-1.303,1.498-1.469C152.339,32.504,151.661,33.124,151.008,33.284z M153.253,32.755
		c0.322,0.02,0.359,0.171,0.359,0.171c-0.454,0.378-0.7,0.606-0.7,0.606C152.817,33.02,153.253,32.755,153.253,32.755z
		 M142.422,21.077c0,0-0.041,2.467-0.077,4.271c-0.063,3.041-1.158,6.873-9.195,6.873c-8.037,0-9.13-3.832-9.193-6.873
		c-0.037-1.805-0.078-4.271-0.078-4.271c0.207-0.098,0.328-0.255,0.328-0.255c-0.389-0.353-0.51-0.639-0.51-0.639
		c0.813,0.129,1.094-0.304,1.094-0.304c-0.583-0.62-0.79-1.033-0.79-1.033c0.522,0.061,0.984-0.11,0.984-0.11
		c0.097-0.966-0.911-1.015-0.96-1.78c0.244,0.024,0.45,0.169,0.45,0.169c0.596-1.25-0.705-1.25-0.438-2.315
		c0.401-0.133,0.583-0.425,0.583-0.425c-0.169-0.036-0.255-0.097-0.255-0.097c0.449-0.194,0.571-0.511,0.571-0.511
		c0.134,0.328,0.134,0.607,0.134,0.607c0.638-0.11,0.833-0.559,0.833-0.559c0.073,0.292,0.304,0.584,0.304,0.584
		c0.51-0.183,0.692-0.547,0.692-0.547s3.403,0.073,6.251,0.073s6.253-0.073,6.253-0.073s0.182,0.364,0.692,0.547
		c0,0,0.23-0.292,0.304-0.584c0,0,0.194,0.449,0.833,0.559c0,0,0-0.279,0.133-0.607c0,0,0.122,0.316,0.572,0.511
		c0,0-0.085,0.061-0.256,0.097c0,0,0.183,0.292,0.583,0.425c0.267,1.065-1.033,1.065-0.438,2.315c0,0,0.207-0.146,0.449-0.169
		c-0.048,0.765-1.057,0.814-0.959,1.78c0,0,0.462,0.17,0.984,0.11c0,0-0.207,0.413-0.79,1.033c0,0,0.279,0.433,1.093,0.304
		c0,0-0.121,0.286-0.51,0.639C142.094,20.822,142.216,20.979,142.422,21.077z M123.417,19.674c0,0-0.103-0.396,0.309-0.544
		c0,0,0.22,0.338,0.572,0.646C124.298,19.776,123.931,20.025,123.417,19.674z M123.594,20.776c0,0-0.456,0.015-0.793-0.279
		c0,0,0.014-0.267,0.264-0.311C123.065,20.187,123.373,20.364,123.594,20.776z M119.319,11.663c1.496,1.408,0.91,2.459,0.91,2.459
		s-0.42-0.438-0.438-0.929c-0.018-0.49-0.578-1.199-0.578-1.199C119.336,11.889,119.319,11.663,119.319,11.663z M119.091,10.576
		c0.333-0.025,0.281-0.411,0.281-0.411s0.49,0.333,0.823,0.831c0.43,0.644,0.217,0.753,0.34,1.437
		C119.564,11.679,119.091,10.576,119.091,10.576z M118.599,7.407c0,0,0.678,0.434,0.697,1.502c0.007,0.397-0.377,0.584-0.547-0.037
		l0.152-0.208C118.9,8.665,118.336,8.066,118.599,7.407z M117.429,5.719c0,0,0.254,0.218,0.607,0.418
		c0.566,0.32,0.182,1.053,0.182,1.053s-0.103-0.174-0.662-0.49C117.138,6.464,117.283,5.81,117.429,5.719z M117.374,7.026
		c0,0-0.164,0.037-0.381-0.036l0.199-0.182C117.192,6.809,117.229,6.936,117.374,7.026z M117.963,3.03
		c-0.753,0.018-0.916-0.507-0.698-0.798c0.218-0.291,0.681-0.127,0.636,0.146C117.856,2.65,117.963,3.03,117.963,3.03z
		 M117.646,5.348c-0.273-0.152-0.145-1.181,0.425-0.619c0.383,0.377,0.31,1.081,0.31,1.081S118.108,5.602,117.646,5.348z
		 M117.773,4.039c-0.321-0.517,0.055-0.862,0.426-0.436c0.372,0.425,0.255,0.908,0.255,0.908S118,4.403,117.773,4.039z
		 M118.411,3.067c0,0-0.282-0.283-0.169-0.942c0,0,0.865,0.037,1.148,0.96C119.39,3.085,118.919,2.973,118.411,3.067z M118.806,4.55
		c0.565,0.508,1.243,0.715,1.111,1.822C119.014,5.769,118.75,5.529,118.806,4.55z M119.691,8.01
		c-0.602-0.904-1.28-0.998-0.904-1.958C118.787,6.052,119.917,6.522,119.691,8.01z M118.599,3.496
		c0.847-0.188,1.299,0.433,1.299,1.186C119.898,4.682,118.844,4.475,118.599,3.496z M119.564,9.797c0,0-0.053-0.384,0.175-0.717
		c1.497,0.893,1.145,2.232,1.145,2.232C120.447,10.839,120.465,10.375,119.564,9.797z M120.43,4.773c0,0,1.664,0.456,1.384,2.126
		c-0.508-0.962-1.514-0.841-1.672-1.636c0,0,0.236,0.087,0.411,0.052C120.552,5.316,120.43,5.054,120.43,4.773z M120.412,6.271
		c1.244,0.542,1.086,1.986,1.086,1.986c-0.421-0.638-1.269-0.69-1.409-1.356c0.158,0,0.305-0.14,0.305-0.14
		C120.3,6.532,120.412,6.271,120.412,6.271z M120.229,7.724c0.585,0.655,1.129,0.743,0.954,2.021c0,0-0.684-0.542-1.094-1.121
		C120.09,8.624,120.282,8.327,120.229,7.724z M120.89,13.648c0,0,0.338,0.103,0.852,0.161c0,0,0.206,0.809,1.25,0.736
		c0.073,0.308-0.016,0.322-0.281,0.411c-0.264,0.088-0.5,0.293-0.558,1.087c-0.015,0.207-0.132,0.207-0.323-0.014l-1.087-1.249
		C120.743,14.78,120.934,14.207,120.89,13.648z M122.711,14.059c-0.661-0.161-0.425-0.924-0.293-1.057
		c0.132-0.132,0.174-0.417-0.147-0.295c-0.573,0.22-0.323,0.603-0.69,0.53c-0.367-0.074-0.603-0.163-0.603-0.163
		c0.176-0.368,0.22-0.764,0.22-0.764c0.088,0.088,0.279-0.016,0.279-0.016c-0.279-0.558,0.059-0.793,0.059-0.793
		s0.52,0.498,0.852,0.72c0.265,0.176,0.41,0.065,0.458-0.03c0.379-0.749,1.041-0.381,1.041-0.381c0.808-0.5,1.278-0.058,1.278-0.058
		c0.824-0.398,1.293,0.101,1.293,0.101l0.309,0.676c-0.485-0.161-0.925,0.03-0.925,0.03c-0.396-0.25-0.986-0.088-0.986-0.088
		c-0.661-0.264-1.013,0.177-1.013,0.177c-0.221-0.31-0.544-0.471-0.382-0.06c0.104,0.264,0.133,0.663-0.118,0.619
		c-0.25-0.044-0.367,0.103-0.162,0.352C122.83,13.678,122.711,14.059,122.711,14.059z M146.157,5.264
		c-0.158,0.795-1.164,0.673-1.671,1.636c-0.28-1.67,1.384-2.126,1.384-2.126c0,0.281-0.123,0.543-0.123,0.543
		C145.921,5.351,146.157,5.264,146.157,5.264z M148.398,2.378c-0.044-0.273,0.418-0.437,0.636-0.146
		c0.217,0.291,0.055,0.816-0.698,0.798C148.336,3.03,148.442,2.65,148.398,2.378z M148.743,6.7c-0.56,0.315-0.662,0.49-0.662,0.49
		s-0.385-0.733,0.182-1.053c0.353-0.2,0.607-0.418,0.607-0.418C149.016,5.81,149.161,6.464,148.743,6.7z M149.106,6.809l0.2,0.182
		c-0.218,0.073-0.382,0.036-0.382,0.036C149.07,6.936,149.106,6.809,149.106,6.809z M147.917,5.81c0,0-0.074-0.703,0.309-1.081
		c0.571-0.562,0.7,0.467,0.426,0.619C148.19,5.602,147.917,5.81,147.917,5.81z M148.525,4.039c-0.226,0.364-0.68,0.473-0.68,0.473
		s-0.117-0.483,0.254-0.908C148.471,3.177,148.847,3.522,148.525,4.039z M147.888,3.067c-0.508-0.095-0.979,0.018-0.979,0.018
		c0.282-0.923,1.148-0.96,1.148-0.96C148.17,2.784,147.888,3.067,147.888,3.067z M147.55,8.872
		c-0.171,0.621-0.554,0.435-0.547,0.037c0.019-1.068,0.696-1.502,0.696-1.502c0.264,0.659-0.301,1.257-0.301,1.257L147.55,8.872z
		 M147.085,11.995c0,0-0.561,0.709-0.578,1.199c-0.018,0.491-0.438,0.929-0.438,0.929s-0.585-1.052,0.911-2.459
		C146.98,11.663,146.962,11.889,147.085,11.995z M145.764,12.433c0.122-0.683-0.09-0.793,0.34-1.437
		c0.333-0.498,0.823-0.831,0.823-0.831s-0.053,0.386,0.28,0.411C147.208,10.576,146.735,11.679,145.764,12.433z M146.607,8.01
		c-0.226-1.488,0.904-1.958,0.904-1.958C147.888,7.012,147.21,7.106,146.607,8.01z M147.699,3.496
		c-0.245,0.979-1.298,1.186-1.298,1.186C146.401,3.928,146.853,3.307,147.699,3.496z M147.492,4.55
		c0.057,0.979-0.207,1.219-1.11,1.822C146.25,5.265,146.928,5.059,147.492,4.55z M146.56,9.08c0.228,0.333,0.175,0.717,0.175,0.717
		c-0.901,0.578-0.884,1.042-1.319,1.515C145.416,11.312,145.063,9.973,146.56,9.08z M145.556,14.78l-1.087,1.249
		c-0.19,0.221-0.308,0.221-0.323,0.014c-0.059-0.794-0.293-0.999-0.558-1.087s-0.354-0.103-0.28-0.411
		c1.044,0.073,1.25-0.736,1.25-0.736c0.514-0.059,0.852-0.161,0.852-0.161C145.365,14.207,145.556,14.78,145.556,14.78z
		 M146.209,8.624c-0.411,0.579-1.094,1.121-1.094,1.121c-0.175-1.279,0.368-1.366,0.953-2.021
		C146.017,8.327,146.209,8.624,146.209,8.624z M144.8,8.256c0,0-0.157-1.444,1.086-1.986c0,0,0.113,0.262,0.018,0.49
		c0,0,0.148,0.14,0.306,0.14C146.069,7.566,145.221,7.619,144.8,8.256z M144.763,11.502c0,0,0.337,0.235,0.059,0.793
		c0,0,0.191,0.104,0.279,0.016c0,0,0.044,0.396,0.22,0.764c0,0-0.235,0.088-0.602,0.163c-0.367,0.073-0.118-0.311-0.691-0.53
		c-0.32-0.123-0.279,0.163-0.146,0.295c0.132,0.133,0.367,0.896-0.294,1.057c0,0-0.119-0.381-0.471-0.499
		c0.206-0.25,0.088-0.396-0.162-0.352c-0.25,0.044-0.221-0.354-0.118-0.619c0.162-0.411-0.161-0.25-0.381,0.06
		c0,0-0.353-0.441-1.014-0.177c0,0-0.588-0.161-0.985,0.088c0,0-0.441-0.191-0.925-0.03l0.309-0.676c0,0,0.47-0.499,1.293-0.101
		c0,0,0.47-0.442,1.277,0.058c0,0,0.661-0.368,1.041,0.381c0.048,0.096,0.194,0.207,0.458,0.03
		C144.244,12,144.763,11.502,144.763,11.502z M142.088,16.63c-0.029-0.542,0.411-0.837,0.411-0.837c0.323,0,0.279,0.396,0.279,0.396
		C142.382,16.353,142.088,16.63,142.088,16.63z M142.617,18.263c-0.514,0.352-0.925,0.132-0.925,0.132
		c0.324-0.47,0.764-0.59,0.764-0.59C142.749,17.925,142.617,18.263,142.617,18.263z M142.235,14.338
		c0.485-0.234,0.631-0.529,0.631-0.529c0.367,0.104,0.323,0.338,0.323,0.338C142.676,14.603,142.235,14.338,142.235,14.338z
		 M142.044,13.825c-0.705-0.177-0.456-0.942-0.456-0.942c0.264-0.22,0.617,0.044,0.617,0.044
		C142,13.398,142.044,13.825,142.044,13.825z M141.191,12.854c-0.132,0.383-0.221,1.015-0.221,1.015
		c-0.617-0.471-0.293-0.986-0.293-0.986C140.882,12.751,141.191,12.854,141.191,12.854z M140.208,12.957
		c-0.206,0.442-0.265,0.941-0.265,0.941c-0.367-0.425-0.177-0.941-0.177-0.941C139.972,12.825,140.208,12.957,140.208,12.957z
		 M133.149,12.036c-3.502,0-5.473,0.794-5.87,0.922c-0.397,0.127-0.439-0.169-0.157-0.297c0.284-0.128,2.61-1.049,6.027-1.049
		s5.742,0.921,6.025,1.049c0.283,0.128,0.241,0.425-0.156,0.297C138.621,12.83,136.652,12.036,133.149,12.036z M137.364,13.015
		c0,0-0.925,0.085-4.214,0.085c-3.29,0-4.211-0.085-4.211-0.085s0.936-0.567,4.211-0.567
		C136.425,12.448,137.364,13.015,137.364,13.015z M126.856,11.874c0.022-0.005,0.045-0.007,0.069-0.007
		c0.165,0,0.298,0.132,0.298,0.297c0,0.083-0.034,0.159-0.089,0.212L126.856,11.874z M127.549,11.81
		c0-0.164,0.133-0.297,0.297-0.297c0.165,0,0.298,0.134,0.298,0.297c0,0.165-0.133,0.298-0.298,0.298
		C127.682,12.108,127.549,11.974,127.549,11.81z M128.569,11.554c0-0.164,0.134-0.297,0.298-0.297c0.165,0,0.298,0.134,0.298,0.297
		c0,0.165-0.133,0.299-0.298,0.299C128.703,11.853,128.569,11.719,128.569,11.554z M129.647,11.299c0-0.165,0.134-0.298,0.298-0.298
		c0.165,0,0.298,0.134,0.298,0.298c0,0.165-0.133,0.297-0.298,0.297C129.781,11.597,129.647,11.464,129.647,11.299z M130.71,11.143
		c0-0.165,0.133-0.297,0.298-0.297s0.297,0.133,0.297,0.297c0,0.165-0.133,0.298-0.297,0.298S130.71,11.308,130.71,11.143z
		 M131.788,11.059c0-0.165,0.133-0.299,0.298-0.299c0.164,0,0.297,0.134,0.297,0.299c0,0.165-0.133,0.297-0.297,0.297
		C131.921,11.355,131.788,11.223,131.788,11.059z M132.852,11.03c0-0.165,0.134-0.297,0.298-0.297s0.298,0.132,0.298,0.297
		c0,0.165-0.134,0.297-0.298,0.297S132.852,11.194,132.852,11.03z M133.915,11.059c0-0.165,0.133-0.299,0.298-0.299
		s0.297,0.134,0.297,0.299c0,0.165-0.133,0.297-0.297,0.297S133.915,11.223,133.915,11.059z M134.993,11.143
		c0-0.165,0.133-0.297,0.298-0.297c0.164,0,0.297,0.133,0.297,0.297c0,0.165-0.133,0.298-0.297,0.298
		C135.126,11.441,134.993,11.308,134.993,11.143z M136.056,11.299c0-0.165,0.133-0.298,0.298-0.298s0.298,0.134,0.298,0.298
		c0,0.165-0.133,0.297-0.298,0.297S136.056,11.464,136.056,11.299z M137.133,11.554c0-0.164,0.134-0.297,0.298-0.297
		s0.298,0.134,0.298,0.297c0,0.165-0.133,0.299-0.298,0.299S137.133,11.719,137.133,11.554z M138.154,11.81
		c0-0.164,0.134-0.297,0.298-0.297s0.298,0.134,0.298,0.297c0,0.165-0.134,0.298-0.298,0.298S138.154,11.974,138.154,11.81z
		 M139.166,12.376c-0.056-0.054-0.089-0.129-0.089-0.212c0-0.165,0.134-0.297,0.298-0.297c0.024,0,0.046,0.002,0.068,0.007
		L139.166,12.376z M133.149,10.434c-3.247,0-6.409,1.206-6.409,1.206l-0.496-0.738c0,0,0.869,0.437,1.9,0.128
		c1.134-0.34,1.375-1.105,1.375-1.105s0.78,0.594,1.957,0.439c0.937-0.124,1.673-0.893,1.673-0.893s0.735,0.769,1.671,0.893
		c1.177,0.155,1.957-0.439,1.957-0.439s0.241,0.765,1.375,1.105c1.031,0.309,1.9-0.128,1.9-0.128l-0.496,0.738
		C139.557,11.64,136.396,10.434,133.149,10.434z M140.196,10.448c-0.793,0.468-2.638,0.566-3.291-1.022c0,0-0.765,0.716-1.955,0.583
		c-1.007-0.113-1.801-1.105-1.801-1.105s-0.794,0.992-1.801,1.105c-1.19,0.134-1.956-0.583-1.956-0.583
		c-0.652,1.588-2.497,1.49-3.291,1.022c-0.202-0.12-0.113-0.354,0.099-0.255s0.794,0.412,1.645,0.227
		c1.137-0.246,1.461-1.431,1.461-1.431s0.879,0.978,2.169,0.709c1.086-0.227,1.673-1.319,1.673-1.319s0.587,1.092,1.673,1.319
		c1.29,0.269,2.169-0.709,2.169-0.709s0.324,1.186,1.46,1.431c0.851,0.185,1.432-0.127,1.645-0.227
		C140.31,10.094,140.398,10.329,140.196,10.448z M126.356,13.897c0,0-0.059-0.499-0.265-0.941c0,0,0.235-0.131,0.44,0
		C126.532,12.957,126.724,13.473,126.356,13.897z M125.328,13.869c0,0-0.088-0.632-0.22-1.015c0,0,0.308-0.103,0.514,0.029
		C125.622,12.883,125.945,13.398,125.328,13.869z M124.093,12.927c0,0,0.352-0.264,0.617-0.044c0,0,0.25,0.765-0.456,0.942
		C124.254,13.825,124.298,13.398,124.093,12.927z M123.432,13.809c0,0,0.147,0.295,0.632,0.529c0,0-0.441,0.265-0.955-0.191
		C123.109,14.147,123.065,13.913,123.432,13.809z M123.799,15.793c0,0,0.44,0.295,0.412,0.837c0,0-0.294-0.278-0.69-0.44
		C123.521,16.19,123.477,15.793,123.799,15.793z M123.844,17.805c0,0,0.44,0.12,0.763,0.59c0,0-0.411,0.22-0.925-0.132
		C123.682,18.263,123.55,17.925,123.844,17.805z M142,19.776c0.353-0.309,0.573-0.646,0.573-0.646
		c0.411,0.147,0.308,0.544,0.308,0.544C142.367,20.025,142,19.776,142,19.776z M143.234,20.187c0.25,0.044,0.265,0.311,0.265,0.311
		c-0.338,0.294-0.793,0.279-0.793,0.279C142.925,20.364,143.234,20.187,143.234,20.187z M151.495,5.701
		c-0.236,0.091-0.545-0.117-0.2-0.373C151.549,5.493,151.495,5.701,151.495,5.701z M150.859,1.632c0.454-0.036,0.562,0.2,0.491,0.6
		c-0.037,0.197-0.058,0.342,0.417,0.326c1.146-0.036,1.381,0.254,1.126,0.491c-0.178,0.167-0.291,0.303-0.054,0.481
		c0.291,0.217-0.005,0.83-0.327,0.708c-0.964-0.363-1.247-0.326-1.618,0.509c-0.371,0.837-0.462,1.553,1.163,1.353
		c0,0-0.029,0.417-1.072,0.364c-1.044-0.055-1.226-1.68,0.036-3.006c0.297-0.312,0.254-0.481,0.055-0.681
		c-0.019-0.381-0.018-0.728-0.753-0.381c-0.654,0.308-0.6,0.527-0.218,0.509s0.654,0.272,0.654,0.272s-0.633,0.601-0.891,1.661
		c-0.363,1.499,0.509,1.971,0.509,1.971s-0.527,0.4-1.072-0.309c0,0,0.254-0.619-0.109-1.026c0,0,0.2-0.582-0.272-1.271
		c0,0,0.345-0.345,0.109-1.062c0,0,0.69-0.291,0.363-1.091C149.397,2.05,150.059,1.697,150.859,1.632z M149.807,1.124l-0.35,0.174
		c-0.386-0.297-0.456-0.673-0.456-0.673C149.562,0.414,149.807,1.124,149.807,1.124z M149.107,1.508
		c-0.578,0.316-1.286-0.35-1.321-0.647C148.574,0.511,148.739,1.21,149.107,1.508z M148.013,1.736c0,0-0.63,0.438-1.611-0.368
		C146.402,1.368,147.312,0.748,148.013,1.736z M147.085,2.122c-0.35,0.735-1.286,0.21-1.952,0.332
		C145.799,1.263,146.682,2.226,147.085,2.122z M146.419,2.857c-0.228,0.725-1.181,0.35-1.759,0.761
		C144.993,2.646,145.711,2.979,146.419,2.857z M146.191,3.67c0.018,0.753-1.216,0.857-1.829,1.524
		C144.38,3.636,146.191,3.67,146.191,3.67z M143.942,7.794c0,0,0.123,0.087,0.298,0.035c-0.087,0.533,0.105,0.848-0.087,1.549
		c0,0,0.158,0.105,0.35,0.07c0.123,0.665-0.28,0.876,0,1.532c0,0-0.245,0.332-0.771,0.63c0,0-0.691-0.648-1.356-0.333
		c0,0-0.717-0.438-1.303,0c0,0-0.21-0.175-0.578-0.088c0,0,0.473-0.612,0.333-1.443c0,0,0.883-0.848,1.583-1.898
		c0.701-1.052,0.893-1.893,1.304-2.425c0,0,0.141,0.34-0.087,0.673c0,0,0.105,0.14,0.28,0.156
		C143.767,7.093,144.047,7.32,143.942,7.794z M141.863,5.542c0.142,0.196,0.177,0.645,0.035,0.773
		C141.722,6.199,141.627,5.75,141.863,5.542z M141.016,6.653c0.169,0.044,0.284-0.061,0.152-0.265
		c-0.208-0.322-0.171-1.065,0.489-1.38c0,0-0.549,1.256,0.21,2.003c0,0,0.418-0.086,0.409-0.829
		c-0.011-0.918-0.374-1.817,0.397-2.039c0,0-0.16,0.352-0.058,0.794c0.035,0.151,0.21,0.117,0.198-0.152
		c-0.012-0.269,0.304-0.853,1.046-0.747c0,0-0.498,0.717-0.895,1.495c-0.397,0.777-0.456,1.316-1.495,2.806
		c0,0-0.114-1.06-0.91-1.042C140.372,6.898,140.656,6.558,141.016,6.653z M138.824,7.629c-0.151,0.288-0.488,0.1-0.313-0.099
		c0.125-0.137,0.001-0.43-0.287-0.176c-0.762,0.675-0.826,2.013,0.287,2.375c1.113,0.363,2.087-0.537,2.137-1.537
		c0.011-0.227-0.275-0.326-0.275-0.012c0,0.312-0.566,0.218-0.399-0.177c0.237-0.562,1.112-0.253,1.011,0.451
		c-0.163,1.137-1.349,1.974-2.587,1.612c-1.24-0.363-1.574-1.95-0.462-2.949C138.376,6.722,139.079,7.145,138.824,7.629z
		 M137.762,3.581c0.199,0.139,0.237,0.539,0.075,0.863C137.599,4.144,137.599,3.756,137.762,3.581z M136.987,4.755
		c-0.399-0.599-0.237-1.411,0.4-1.5c0,0-0.25,1.237,0.537,1.863c0,0,0.675-0.9,0.063-2.063c0,0-0.039-0.612,0.437-0.75
		c0,0,0.05,0.537,0.25,0.8c0.06,0.078,0.135-0.055,0.089-0.3c-0.063-0.325,0.299-0.999,0.949-1.111c0,0,0.75,0.924-0.037,1.498
		c-0.129,0.095-0.05,0.302,0.124,0.226c0.288-0.125,0.438-0.313,0.438-0.313s0.281,0.511-0.188,0.701
		c-1.637,0.662-1.562,1.487-1.562,1.487s1.025,0.2,1.725-0.887c0.2,0.637,0.038,1.149-0.612,1.325
		c-0.193,0.053-0.232,0.222-0.05,0.338c0.275,0.174,0.262,0.874-0.362,0.961c0,0-0.613-0.824-1.612-0.112
		c0,0-0.225-0.937-1.125-0.862C135.999,5.656,136.224,4.705,136.987,4.755z M139.911,4.28c-0.087,0.301-0.636,0.691-0.999,0.701
		C139.065,4.63,139.536,4.293,139.911,4.28z M134.662,6.693c-0.163,0.199-0.456,0.041-0.35-0.15
		c0.188-0.337-0.094-0.454-0.325-0.149c-0.588,0.774-0.301,2.263,0.837,2.586c1.078,0.308,1.8-0.537,1.963-0.975
		c0.162-0.437,0.145-1.27-0.138-1.199c-0.2,0.05,0,0.271-0.163,0.325c-0.338,0.112-0.524-0.499-0.075-0.638
		c0.45-0.137,0.712,0.179,0.812,0.475c0.287,0.85-0.512,2.7-2.312,2.363c-1.682-0.315-1.809-2.267-1.263-2.987
		C134.275,5.517,135.062,6.094,134.662,6.693z M131.649,4.618c0.213-0.046,0.125-0.188,0.025-0.25
		c-0.612-0.388-0.362-1.225,0.087-1.526c-0.187,1.501,1.126,1.625,1.126,1.625s0.312-0.787-0.501-1.488
		c-0.403-0.347-0.472-0.652-0.262-0.799c0.125-0.087,0.325,0.138,0.45,0.25c0.152,0.136,0.271,0.058,0.15-0.099
		c-0.612-0.8,0.425-1.438,0.425-1.438s1.034,0.638,0.421,1.438c-0.12,0.157-0.002,0.235,0.15,0.099
		c0.125-0.112,0.326-0.336,0.451-0.25c0.21,0.147,0.141,0.452-0.262,0.799c-0.813,0.701-0.501,1.488-0.501,1.488
		s1.313-0.124,1.125-1.625c0.449,0.301,0.7,1.138,0.087,1.526c-0.099,0.062-0.188,0.203,0.025,0.25c0.462,0.1,0.687,0.8,0.25,1.125
		c-0.475-0.288-1.234-0.274-1.746,0.613c-0.512-0.887-1.275-0.9-1.75-0.613C130.962,5.418,131.187,4.718,131.649,4.618z
		 M132.1,3.305c0.225,0.026,0.562,0.401,0.525,0.764C132.224,4.044,132.024,3.47,132.1,3.305z M133.67,4.069
		c-0.038-0.363,0.3-0.738,0.525-0.764C134.271,3.47,134.071,4.044,133.67,4.069z M129.812,7.13
		c-0.162-0.054,0.037-0.275-0.163-0.325c-0.283-0.071-0.3,0.762-0.138,1.199c0.163,0.438,0.884,1.283,1.962,0.975
		c1.138-0.323,1.426-1.812,0.837-2.586c-0.23-0.304-0.512-0.188-0.325,0.149c0.106,0.191-0.188,0.35-0.35,0.15
		c-0.399-0.6,0.387-1.176,1.013-0.35c0.546,0.72,0.419,2.672-1.262,2.987c-1.801,0.337-2.6-1.513-2.313-2.363
		c0.101-0.296,0.362-0.612,0.812-0.475C130.336,6.631,130.15,7.243,129.812,7.13z M128.537,3.581
		c0.163,0.176,0.163,0.563-0.075,0.863C128.3,4.119,128.337,3.719,128.537,3.581z M127.113,7.03
		c-0.625-0.087-0.638-0.787-0.363-0.961c0.182-0.116,0.144-0.285-0.05-0.338c-0.65-0.176-0.812-0.688-0.612-1.325
		c0.7,1.087,1.726,0.887,1.726,0.887s0.075-0.825-1.563-1.487c-0.469-0.19-0.187-0.701-0.187-0.701s0.15,0.188,0.437,0.313
		c0.175,0.076,0.254-0.131,0.125-0.226c-0.787-0.574-0.037-1.498-0.037-1.498c0.649,0.112,1.012,0.787,0.949,1.111
		c-0.047,0.245,0.029,0.377,0.088,0.3c0.2-0.263,0.25-0.8,0.25-0.8c0.475,0.137,0.438,0.75,0.438,0.75
		c-0.612,1.163,0.062,2.063,0.062,2.063c0.787-0.626,0.538-1.863,0.538-1.863c0.637,0.088,0.799,0.9,0.399,1.5
		c0.763-0.05,0.988,0.9,0.537,1.3c-0.899-0.075-1.124,0.862-1.124,0.862C127.725,6.206,127.113,7.03,127.113,7.03z M126.388,4.28
		c0.375,0.013,0.846,0.35,1,0.701C127.024,4.972,126.475,4.581,126.388,4.28z M126.325,8.004c0.167,0.395-0.4,0.489-0.4,0.177
		c0-0.314-0.286-0.215-0.275,0.012c0.05,1,1.024,1.899,2.137,1.537c1.113-0.362,1.05-1.7,0.288-2.375
		c-0.288-0.254-0.412,0.039-0.288,0.176c0.175,0.199-0.162,0.387-0.313,0.099c-0.254-0.485,0.448-0.908,0.888-0.511
		c1.111,1,0.778,2.586-0.462,2.949c-1.238,0.362-2.425-0.475-2.587-1.612C125.213,7.751,126.087,7.443,126.325,8.004z
		 M124.436,5.542c0.236,0.208,0.141,0.656-0.036,0.773C124.258,6.187,124.294,5.738,124.436,5.542z M123.485,4.785
		c-0.011,0.269,0.164,0.303,0.199,0.152c0.102-0.442-0.059-0.794-0.059-0.794c0.771,0.222,0.409,1.121,0.397,2.039
		c-0.009,0.743,0.409,0.829,0.409,0.829c0.759-0.747,0.21-2.003,0.21-2.003c0.66,0.315,0.698,1.058,0.489,1.38
		c-0.131,0.204-0.018,0.309,0.151,0.265c0.361-0.095,0.644,0.246,0.455,0.644c-0.796-0.018-0.909,1.042-0.909,1.042
		c-1.04-1.49-1.098-2.028-1.495-2.806s-0.894-1.495-0.894-1.495C123.181,3.933,123.497,4.517,123.485,4.785z M122.059,7.829
		c0.176,0.053,0.298-0.035,0.298-0.035c-0.105-0.474,0.175-0.701,0.035-1.542c0.175-0.017,0.28-0.156,0.28-0.156
		c-0.228-0.333-0.088-0.673-0.088-0.673c0.411,0.532,0.604,1.373,1.304,2.425c0.701,1.051,1.584,1.898,1.584,1.898
		c-0.14,0.831,0.333,1.443,0.333,1.443c-0.368-0.087-0.578,0.088-0.578,0.088c-0.585-0.438-1.304,0-1.304,0
		c-0.666-0.315-1.356,0.333-1.356,0.333c-0.525-0.298-0.771-0.63-0.771-0.63c0.281-0.655-0.123-0.867,0-1.532
		c0.193,0.035,0.351-0.07,0.351-0.07C121.954,8.676,122.146,8.361,122.059,7.829z M121.936,5.194
		c-0.613-0.667-1.846-0.771-1.829-1.524C120.107,3.67,121.919,3.636,121.936,5.194z M121.638,3.618
		c-0.578-0.411-1.531-0.036-1.758-0.761C120.588,2.979,121.306,2.646,121.638,3.618z M121.166,2.454
		c-0.666-0.122-1.601,0.403-1.952-0.332C119.616,2.226,120.5,1.263,121.166,2.454z M119.897,1.368
		c-0.981,0.806-1.611,0.368-1.611,0.368C118.987,0.748,119.897,1.368,119.897,1.368z M118.513,0.861
		c-0.034,0.297-0.743,0.963-1.321,0.647C117.56,1.21,117.725,0.511,118.513,0.861z M117.297,0.625c0,0-0.07,0.376-0.456,0.673
		l-0.351-0.174C116.491,1.124,116.736,0.414,117.297,0.625z M115.004,5.329c0.345,0.255,0.036,0.463-0.2,0.373
		C114.804,5.701,114.75,5.493,115.004,5.329z M114.241,6.1c1.625,0.2,1.534-0.516,1.163-1.353c-0.371-0.834-0.653-0.872-1.617-0.509
		c-0.322,0.122-0.617-0.491-0.327-0.708c0.237-0.178,0.125-0.314-0.054-0.481c-0.254-0.236-0.019-0.526,1.126-0.491
		c0.475,0.016,0.454-0.129,0.418-0.326c-0.072-0.4,0.037-0.636,0.491-0.6c0.8,0.064,1.462,0.417,1.462,0.417
		c-0.327,0.8,0.363,1.091,0.363,1.091c-0.236,0.716,0.109,1.062,0.109,1.062c-0.472,0.69-0.272,1.271-0.272,1.271
		c-0.364,0.407-0.109,1.026-0.109,1.026c-0.545,0.709-1.072,0.309-1.072,0.309s0.872-0.473,0.509-1.971
		c-0.258-1.06-0.891-1.661-0.891-1.661s0.272-0.291,0.654-0.272s0.436-0.201-0.218-0.509c-0.735-0.347-0.735,0-0.752,0.381
		c-0.2,0.2-0.243,0.369,0.054,0.681c1.261,1.327,1.08,2.952,0.037,3.006C114.269,6.518,114.241,6.1,114.241,6.1z M108.889,31.532
		c-0.184-0.524-0.241-0.567,0.029-1.502c0.126-0.437,0.127-0.568,0.425-0.525c0.493,0.07,0.297-0.497,0.567-0.922
		c0.156-0.246,0.184-0.439,0.014-0.978c-0.17-0.538-0.383-0.964-0.383-0.964s0.298-0.737,0.426-1.518
		c0.085-0.522-0.422-0.691-0.511-0.241c-0.213,1.077-0.907,2.226-2.496,2.226c-1.262,0-2.212-1.204-2.212-2.551
		c0-1.447,1.382-2.871,2.014-3.588c1.801-2.042,2.033-2.922,2.113-3.871c0.085-1.006-0.212-1.319-0.212-1.319
		c-1.05,0.341-1.291-0.539-1.291-0.539c0.156-0.198,0.397-0.212,0.397-0.212c-0.212-0.312-0.708-0.085-0.893-0.794
		c0.156-0.113,0.525-0.015,0.525-0.015c-0.241-0.567-0.879-0.34-0.751-1.39c1.19-0.028,1.078,0.88,1.46,0.979
		c-0.028-0.255,0.142-0.425,0.142-0.425c0.482,0.382,0.156,0.792,0.482,1.077c0.057-0.198,0.213-0.297,0.213-0.297
		c0.51,0.637,0.099,1.318,0.099,1.318c1.233,2.978-2.07,5.616-3.29,7.417c-0.911,1.344-0.454,3.218,0.738,3.559
		c1.191,0.34,2.126-0.326,2.878-2.949c0.336-1.177,0.482-1.446,1.489-2.666c1.007-1.219,1.248-2.197,1.389-3.048
		c0.142-0.851,0.327-3.743,0.397-4.382c0.071-0.638,0.652-0.922,0.879-1.219c0.227-0.297,0.062-0.508-0.142-0.297
		c-0.411,0.425-0.836,0.567-0.836,0.567c0.042-1.177,1.12-1.276,1.446-1.929c0.119-0.238-0.006-0.37-0.198-0.184
		c-0.412,0.397-0.993,0.61-0.993,0.61c0.141-1.035,1.134-1.134,1.389-1.56c0.15-0.25,0.043-0.44-0.156-0.27
		c-0.459,0.393-0.865,0.454-0.865,0.454s0.241-0.681,1.049-1.134c0.266-0.149,0.185-0.297-0.014-0.27
		c-0.198,0.029-0.468-0.042-0.468-0.042c0.44-0.653,1.121-0.469,1.333-0.214c0.123,0.147,0.213,0.028,0.213-0.099
		c0-0.128-0.028-0.411,0.397-0.482c0.426-0.07,0.595,0.255,0.609,0.397c0.015,0.142,0.227,0.114,0.255,0
		c0.029-0.113,0.213-0.34,0.809-0.212s0.78,0.666,0.78,0.666c-0.44-0.156-0.615-0.037-0.355,0.184
		c0.951,0.808,0.894,1.404,0.894,1.404c-0.397-0.369-0.564-0.215-0.368,0.057c0.482,0.665,0.439,1.403,0.439,1.403
		s-0.298-0.128-0.439-0.254c-0.231-0.209-0.45,0.036-0.227,0.297c1.205,1.417,0.964,2.027,1.432,2.821
		c0.468,0.794,2.154,2.54,2.524,2.879c0.34,0.312,0.653-0.27,0.709-0.893c0.04-0.438,0.185-0.88,0.652-0.554
		c-0.496,0.583-0.042,1.022-0.042,1.022c-0.411,0.722-0.241,0.665,0.255,0.836c-0.808,0.625-0.127,1.489-0.127,1.489
		c-0.539,0.256-0.454,0.894-0.454,0.894c-0.355-0.015-0.539,0.312-0.539,0.312s-0.298-0.255-0.454-0.582
		c-0.227-0.475,0.114-0.793-0.411-1.177c-1.37-1-2.793-2.211-3.19-2.679c-0.397-0.468-0.425-0.256-0.553,0.07
		c-0.51-0.879-0.694-1.602-0.836-1.134c-0.075,0.25-0.227,0.312-0.227,0.312c-0.241-1.077-0.17-2.07-0.737-1.361
		c-0.1-0.809-0.397-0.823-0.354-1.745c0.015-0.326-0.377-0.468-0.398-0.056c-0.056,1.149,0.412,1.375,0.327,2.339
		c-0.044,0.509,0.156,0.582,0.539,0.511c0.227,0.837,0.595,1.333,0.595,1.333c0.142-0.255,0.34-0.341,0.34-0.341
		c0.411,0.412,0.595,0.866,0.993,1.191c0.071-0.241,0.17-0.326,0.439-0.113c0.27,0.212,0.185,0.312,0.185,0.468
		c0,0.155-0.213,0.524-0.213,0.524c-0.07-0.227-0.226-0.297-0.226-0.297c-0.241,0.312-0.085,1.12-0.724,1.588
		c-0.028-0.27-0.17-0.354-0.17-0.354c-0.412,0.326-0.212,0.68-0.652,1.007c-0.029-0.129-0.142-0.114-0.142-0.114
		s-0.454,0.838-1.716,2.24c-0.617,0.687-0.397,1.419-1.262,3.559c-0.333,0.824-0.468,1.007-0.737,2.085
		c-0.27,1.077-0.44,0.978-2.509,2.722c-0.326,0.275-0.241,0.327-0.199,0.512c0.043,0.184,0.341,1.161,0.341,1.161
		c-0.397,0.143-0.155,0.633,0.141,0.54c1.858-0.583,2.212-0.015,2.212-0.015c-0.312-0.099-0.652,0.269-0.652,0.269
		c-0.708-0.382-0.978,0.469-0.978,0.469c-0.156-0.198-0.354-0.057-0.354-0.057c0.284,0.354-0.134,0.511-0.496,0.312
		c-0.439-0.241-0.666,0.241-0.894-0.169C109.393,32.89,109.073,32.058,108.889,31.532z M115.194,29.979
		c0.147,0.52,0.39,1.369,0.64,2.153s0.651,0.973,0.651,0.973c-0.3,0.134-0.801,0.101-0.801,0.101
		c-0.689-2.04-2.391-1.941-2.391-1.941c-0.017,1.458,1.302,2.092,1.302,2.092c-0.351,0.084-0.701,0.05-0.701,0.05
		c-0.801-1.541-0.65-2.191-2.792-1.791c-0.201-0.5-0.301-1.101-0.301-1.101c2.036-1.59,2.591-2.073,2.692-2.726
		c0.1-0.65,0.35-1.223,0.35-1.223c0.501,0.801,0.634,0.768,1.052,0.901c0.417,0.133,0.333,0.255,0.689,1.406
		C115.784,29.524,114.995,29.273,115.194,29.979z M115.291,33.284c-0.653-0.16-1.331-0.78-1.498-1.469
		C114.444,31.981,115.147,32.662,115.291,33.284z M113.386,33.532c0,0-0.246-0.229-0.7-0.606c0,0,0.038-0.151,0.359-0.171
		C113.045,32.755,113.481,33.02,113.386,33.532z M112.289,33.475c0,0-0.322-0.171-0.568-0.455c0,0,0-0.188,0.322-0.207
		C112.042,32.812,112.345,33.097,112.289,33.475z M113.595,35.483c0.359-0.493,2.386-1.25,3.02-0.754
		C116.418,34.99,115.395,35.673,113.595,35.483z M113.879,34.347c-4.548,0.185-6.327-0.626-6.327-0.626l0.208-0.303
		c1.022,0.247,1.401,0.114,1.818,0.303c0.417,0.19,0.492-0.246,1.307,0.058c0.294,0.109,0.417,0,0.587-0.246
		c0.189,0,0.568,0.171,0.738,0.359c0.163,0.181,0.474,0.189,0.398,0.058c-0.076-0.133,0.076-0.322,0.076-0.322
		s0.378,0.057,0.795,0.416c0.275,0.238,0.247-0.056,0.53-0.246c1.97,0,3.05-0.227,3.05-0.227c0.814,0.246,1.118-0.36,1.118-0.36
		c0.302,0.171,0.549,0.151,0.549,0.151c0.398,0.227,0.89,0.246,0.89,0.246S117.592,34.194,113.879,34.347z M118.709,32.718
		c0,0,0.095-0.209,0.322-0.209c0,0,0.474,0.284,0.436,0.664C119.467,33.173,118.956,33.059,118.709,32.718z M119.334,32.168
		c-0.843-0.237-1.127,0.228-0.89,0.72c-0.891-0.359-0.72,0.247-0.72,0.247s-0.171,0.246-0.493,0.075
		c-0.175-0.092-0.682-0.625-0.89-1.137c-0.209-0.511-0.341-1.308-0.531-1.894c-0.189-0.588,0.455-0.342,0.342-1.042
		c-0.078-0.48-0.285-1.251-0.493-1.762c-0.208-0.512-0.549-0.303-0.928-0.683c-0.266-0.266-0.644-0.776-0.644-0.776
		s0.511-0.833,0.909-2.671c0.218-1.01,0.663-1.249,0.663-1.249s0.36,0.833,1.269,1.76c0.303,0.31,0.417,0.55,0.474,1.251
		c0.057,0.7,0.341,1.591,0.436,2.595c0.043,0.456,0.135,0.648-0.265,1.289c-0.473,0.757-0.549,0.87-0.095,2.462
		c0.129,0.451,0.338,0.575,0.663,0.493c0.815-0.208,1.212-0.246,1.515-0.02C119.411,31.902,119.334,32.168,119.334,32.168z
		 M119.732,33.607c0,0,0.133-0.227,0.114-0.473c0,0,0.474,0,0.814,0.283C120.661,33.418,120.074,33.57,119.732,33.607z
		 M119.714,32.415c0,0,0.038-0.304,0.36-0.323c0,0,0.548,0.379,0.548,0.853C120.622,32.944,120.225,32.68,119.714,32.415z
		 M118.346,31.228c-0.349,0.07-0.35,0.031-0.514-0.7c-0.165-0.732-0.032-0.801,0.292-1.373c0.261-0.463,0.446-0.749,0.382-1.179
		c-0.063-0.43-0.271-2.265-0.445-3.131c-0.175-0.864-0.212-1.003-1.183-2.217c-0.506-0.633-0.764-1.241-0.764-1.241l0.461-0.573
		c0.096,0.144,0.287,0.176,0.287,0.176c0.239-0.287,0.175-0.771,0.557-0.977c0.159-0.048,0.334,0.08,0.334,0.08
		c0.308-0.431,0.016-0.51,0.753-1.338c0.16,0.016,0.239,0.222,0.239,0.222c0.318-0.396,0.048-0.683,0.589-1.692
		c0.446,0.319,1.087,0.849,1.565,1.152c0.478,0.302,0.444,0.374,0.637,1.161c0.271,1.104,0.859,1.04,0.859,1.04
		c0.159,0.256,0.657,0.447,0.657,0.447l0.12,4.446c0.148,5.634,4.033,7.084,8.798,7.55c-0.19,0.317-0.085,0.613-0.085,0.613
		s-0.89-0.201-1.606,0.341c-0.279,0.21-0.483,0.11-0.483,0.11c-1.083-1.804-2.647-1.947-2.647-1.947
		c-0.334,0.244,0.318,1.264,0.318,1.264c-1.067-2.027-2.854-2.536-2.854-2.536c-0.047,1.289,0.833,1.915,0.833,1.915l-0.626-0.206
		c-0.43-2.203-1.958-2.521-1.958-2.521c-0.292,1.432,0.812,2.328,0.812,2.328l-0.445-0.084c-0.287-0.764-0.913-1.561-0.913-1.561
		c1.454-2.504,0.143-4.292,0.143-4.292c-0.557,0.764-0.812,1.518-0.812,1.518c-0.223-0.562-0.286-1.104-0.286-1.104
		c1.931-2.584,0.891-4.689,0.891-4.689c-0.764,0.515-1.115,1.438-1.115,1.438l-0.031-0.7c1.194-2.536-0.605-4.181-0.605-4.181
		c-1.453,2.584,0.271,4.181,0.271,4.181l0.032,0.668c-0.61-1.58-1.82-1.899-1.82-1.899c-0.398,2.727,1.772,3.975,1.772,3.975
		c0.016,0.493,0.096,0.923,0.096,0.923c-0.594-0.637-1.327-0.923-1.327-0.923c-0.175,3.188,2.027,4.016,2.027,4.016
		c0.143,0.355,0.191,0.674,0.191,0.674c-0.987-0.658-1.82-0.61-1.82-0.61c0.223,1.756,1.725,2.568,1.725,2.568
		c-0.43,0.021-0.749,0.148-0.749,0.148C120.145,31.18,119.763,30.941,118.346,31.228z M129.08,34.065
		c-0.668-0.095-1.194-0.684-1.353-1.193C128.108,32.984,128.762,33.254,129.08,34.065z M126.639,33.27
		c-0.668-0.095-1.305-1.055-1.32-1.453C125.891,31.96,126.607,32.761,126.639,33.27z M124.31,32.518
		c-0.669-0.256-1.115-1.37-1.051-1.72C123.864,31.037,124.278,32.008,124.31,32.518z M122.681,32.311
		c-0.653-0.16-1.814-0.972-1.974-1.847C121.551,30.654,122.538,31.688,122.681,32.311z M122.347,27.688
		c0.435,0.749,0.095,2.006-0.208,2.086C121.774,29.154,122.124,27.928,122.347,27.688z M121.36,29.026
		c-0.892-0.43-1.422-2.027-1.359-2.377C120.978,27.285,121.328,28.517,121.36,29.026z M120.898,22.485
		c-0.609-0.558-0.594-2.213-0.318-2.664C121.217,20.527,121.121,21.992,120.898,22.485z M121.249,26.061
		c-0.366-0.621,0.255-2.267,0.668-2.632C122.22,24.129,121.678,25.821,121.249,26.061z M120.707,25.005
		c-0.944-0.51-1.263-1.927-1.199-2.276C120.453,23.269,120.675,24.495,120.707,25.005z M121.608,34.422
		c0.36-0.435,2.216-1.079,2.85-0.583C124.26,34.101,123.142,34.763,121.608,34.422z M125.056,35.218
		c0.454-0.493,2.007-0.909,2.755-0.3C127.537,35.142,126.191,35.748,125.056,35.218z M125.131,33.646
		c-2.25-0.789-4.225-0.265-4.225-0.265l0.304-0.417c1.837-0.265,2.993-0.076,5.19,0.682c1.813,0.626,4.054,1.099,4.054,1.099
		l-0.929,0.227C129.525,34.971,128.048,34.669,125.131,33.646z M129.45,36.052c-0.378-0.171-0.322-0.568-0.322-0.568
		c1.099-0.304,2.235-0.531,2.235-0.531c0.36,0.095,0.36,0.493,0.36,0.493S130.681,35.635,129.45,36.052z M132.196,35.559
		c-0.038-1.175-1.458-1.175-1.458-1.175c1.496-0.719,2.141,0.568,2.141,0.568L132.196,35.559z M133.149,33.097
		c1.01,0,0.865,0.871,0,1.306C132.284,33.968,132.14,33.097,133.149,33.097z M134.102,35.559l-0.682-0.606
		c0,0,0.644-1.287,2.141-0.568C135.561,34.384,134.14,34.384,134.102,35.559z M136.849,36.052c-1.231-0.417-2.272-0.606-2.272-0.606
		s0-0.398,0.36-0.493c0,0,1.136,0.228,2.234,0.531C137.17,35.483,137.228,35.881,136.849,36.052z M141.244,35.218
		c-1.137,0.53-2.481-0.076-2.755-0.3C139.235,34.309,140.789,34.725,141.244,35.218z M141.841,33.839
		c0.634-0.496,2.49,0.148,2.85,0.583C143.157,34.763,142.04,34.101,141.841,33.839z M141.168,33.646
		c-2.917,1.023-4.395,1.325-4.395,1.325l-0.928-0.227c0,0,2.24-0.473,4.054-1.099c2.197-0.758,3.353-0.946,5.19-0.682l0.303,0.417
		C145.392,33.381,143.418,32.856,141.168,33.646z M137.219,34.065c0.318-0.812,0.971-1.081,1.353-1.193
		C138.414,33.382,137.888,33.971,137.219,34.065z M139.66,33.27c0.031-0.509,0.748-1.31,1.321-1.453
		C140.965,32.215,140.329,33.175,139.66,33.27z M141.989,32.518c0.032-0.51,0.445-1.48,1.05-1.72
		C143.104,31.147,142.658,32.262,141.989,32.518z M145.591,30.464c-0.159,0.875-1.321,1.687-1.974,1.847
		C143.761,31.688,144.748,30.654,145.591,30.464z M143.952,27.688c0.223,0.239,0.573,1.466,0.207,2.086
		C143.856,29.694,143.517,28.438,143.952,27.688z M144.652,32.358c0,0,1.501-0.812,1.724-2.568c0,0-0.833-0.048-1.819,0.61
		c0,0,0.047-0.318,0.191-0.674c0,0,2.202-0.828,2.027-4.016c0,0-0.732,0.286-1.327,0.923c0,0,0.08-0.43,0.096-0.923
		c0,0,2.17-1.248,1.771-3.975c0,0-1.209,0.319-1.819,1.899l0.032-0.668c0,0,1.724-1.597,0.271-4.181c0,0-1.799,1.645-0.605,4.181
		l-0.032,0.7c0,0-0.35-0.923-1.114-1.438c0,0-1.04,2.105,0.891,4.689c0,0-0.064,0.541-0.287,1.104c0,0-0.255-0.754-0.812-1.518
		c0,0-1.31,1.788,0.144,4.292c0,0-0.626,0.797-0.913,1.561l-0.446,0.084c0,0,1.104-0.896,0.812-2.328c0,0-1.528,0.317-1.958,2.521
		l-0.625,0.206c0,0,0.88-0.626,0.833-1.915c0,0-1.788,0.509-2.854,2.536c0,0,0.652-1.02,0.317-1.264c0,0-1.564,0.144-2.647,1.947
		c0,0-0.203,0.1-0.483-0.11c-0.716-0.542-1.606-0.341-1.606-0.341s0.106-0.296-0.084-0.613c4.764-0.466,8.649-1.916,8.798-7.55
		l0.119-4.446c0,0,0.499-0.191,0.658-0.447c0,0,0.589,0.064,0.86-1.04c0.193-0.787,0.159-0.858,0.636-1.161
		c0.478-0.303,1.119-0.833,1.565-1.152c0.541,1.009,0.271,1.295,0.589,1.692c0,0,0.08-0.207,0.238-0.222
		c0.737,0.829,0.446,0.908,0.753,1.338c0,0,0.175-0.128,0.334-0.08c0.382,0.206,0.318,0.689,0.557,0.977
		c0,0,0.191-0.032,0.286-0.176l0.462,0.573c0,0-0.259,0.608-0.764,1.241c-0.971,1.214-1.008,1.353-1.183,2.217
		c-0.176,0.866-0.382,2.701-0.446,3.131c-0.063,0.43,0.122,0.716,0.382,1.179c0.323,0.572,0.456,0.641,0.292,1.373
		c-0.165,0.731-0.166,0.771-0.515,0.7c-1.417-0.286-1.799-0.048-2.552,1.279C145.4,32.507,145.082,32.379,144.652,32.358z
		 M146.297,26.649c0.064,0.35-0.467,1.947-1.358,2.377C144.971,28.517,145.321,27.285,146.297,26.649z M145.05,26.061
		c-0.429-0.239-0.971-1.932-0.668-2.632C144.796,23.794,145.417,25.439,145.05,26.061z M145.719,19.821
		c0.275,0.451,0.292,2.106-0.319,2.664C145.178,21.992,145.082,20.527,145.719,19.821z M145.591,25.005
		c0.032-0.51,0.255-1.736,1.199-2.276C146.854,23.078,146.536,24.495,145.591,25.005z M145.638,33.418
		c0.341-0.283,0.814-0.283,0.814-0.283c-0.019,0.246,0.114,0.473,0.114,0.473C146.226,33.57,145.638,33.418,145.638,33.418z
		 M145.676,32.944c0-0.474,0.549-0.853,0.549-0.853c0.322,0.02,0.36,0.323,0.36,0.323C146.074,32.68,145.676,32.944,145.676,32.944z
		 M148.157,31.847c0.325,0.082,0.535-0.042,0.663-0.493c0.455-1.592,0.379-1.705-0.095-2.462c-0.399-0.641-0.308-0.833-0.265-1.289
		c0.095-1.004,0.379-1.895,0.436-2.595c0.057-0.701,0.171-0.941,0.473-1.251c0.909-0.927,1.27-1.76,1.27-1.76
		s0.444,0.239,0.663,1.249c0.397,1.838,0.909,2.671,0.909,2.671s-0.378,0.511-0.644,0.776c-0.379,0.38-0.72,0.171-0.928,0.683
		c-0.208,0.511-0.415,1.281-0.493,1.762c-0.113,0.7,0.531,0.454,0.341,1.042c-0.189,0.586-0.322,1.383-0.53,1.894
		c-0.209,0.512-0.716,1.045-0.891,1.137c-0.322,0.171-0.492-0.075-0.492-0.075s0.17-0.606-0.72-0.247
		c0.237-0.492-0.048-0.957-0.891-0.72c0,0-0.076-0.266-0.322-0.341C146.945,31.601,147.343,31.639,148.157,31.847z M147.589,32.718
		c-0.247,0.341-0.757,0.455-0.757,0.455c-0.038-0.38,0.435-0.664,0.435-0.664C147.495,32.509,147.589,32.718,147.589,32.718z
		 M149.684,34.729c0.634-0.496,2.66,0.261,3.021,0.754C150.904,35.673,149.881,34.99,149.684,34.729z M152.42,34.347
		c-3.713-0.152-5.74-0.739-5.74-0.739s0.492-0.02,0.89-0.246c0,0,0.246,0.02,0.549-0.151c0,0,0.303,0.606,1.118,0.36
		c0,0,1.08,0.227,3.05,0.227c0.284,0.19,0.255,0.484,0.53,0.246c0.417-0.359,0.795-0.416,0.795-0.416s0.152,0.189,0.077,0.322
		c-0.077,0.132,0.235,0.123,0.397-0.058c0.171-0.188,0.549-0.359,0.739-0.359c0.17,0.246,0.293,0.355,0.586,0.246
		c0.814-0.304,0.891,0.133,1.307-0.058c0.417-0.188,0.796-0.056,1.819-0.303l0.208,0.303
		C158.746,33.721,156.967,34.531,152.42,34.347z M159.068,32.868c-0.182-0.285,0.436-0.302,0.436-0.302
		C159.485,32.735,159.201,33.077,159.068,32.868z M159.75,31.24c0.397-0.097,0.587-0.208,0.587-0.208s0.048,0.622-0.701,0.928
		C159.125,32.168,159.05,31.41,159.75,31.24z M160.186,33.381c-0.663,0.075-0.643-0.701-0.057-0.759
		c0.587-0.056,0.948,0.266,0.948,0.266S160.676,33.324,160.186,33.381z"/>
	<path fill="#1D1D1B" d="M136.345,25.906c-0.638,0-1.156,0.505-1.156,1.129c0,0.623,0.518,1.129,1.156,1.129
		s1.156-0.506,1.156-1.129C137.5,26.411,136.983,25.906,136.345,25.906z M136.345,27.701c-0.376,0-0.682-0.299-0.682-0.666
		c0-0.368,0.306-0.667,0.682-0.667c0.377,0,0.682,0.299,0.682,0.667C137.027,27.402,136.722,27.701,136.345,27.701z"/>
</g>
</svg>
